<?xml version="1.0" encoding="utf-8"?>
<!-- Generator: Adobe Illustrator 23.1.1, SVG Export Plug-In . SVG Version: 6.00 Build 0)  -->
<svg version="1.1" xmlns="http://www.w3.org/2000/svg" xmlns:xlink="http://www.w3.org/1999/xlink" x="0px" y="0px"
	 viewBox="0 0 406 394.9" style="enable-background:new 0 0 406 394.9;" xml:space="preserve">
<style type="text/css">
	.st0{opacity:0.19;}
	.st1{fill:#FFFFFF;}
	.st2{fill:#676767;}
	.st3{fill:#E93725;}
	.st4{fill:#CCCCCB;}
	.st5{fill:#796350;}
	.st6{fill:#595959;}
	.st7{fill:#DC8844;}
	.st8{fill:#907259;}
	.st9{fill:#BD7F4C;}
	.st10{fill:#131313;}
	.st11{fill:#CC732A;}
	.st12{fill:#575655;}
	.st13{fill:#E5F4F7;stroke:#5C5A5C;stroke-width:2;stroke-linecap:round;stroke-linejoin:round;stroke-miterlimit:9.9996;}
	.st14{fill:#DC8844;stroke:#565555;stroke-width:3;stroke-linecap:round;stroke-linejoin:round;stroke-miterlimit:10;}
	.st15{opacity:0.66;}
	.st16{fill:none;stroke:#53B848;stroke-width:3;stroke-linecap:round;stroke-linejoin:round;stroke-miterlimit:10;}
	.st17{fill:none;stroke:#305BAA;stroke-width:2;stroke-linecap:round;stroke-linejoin:round;stroke-miterlimit:10;}
	.st18{fill:none;stroke:#2D5CA9;stroke-width:2;stroke-linecap:round;stroke-linejoin:round;stroke-miterlimit:10;}
	.st19{fill:none;stroke:#8C191B;stroke-width:3;stroke-linecap:round;stroke-linejoin:round;stroke-miterlimit:10;}
	.st20{fill:#DC8844;stroke:#8C191B;stroke-width:3;stroke-linecap:round;stroke-linejoin:round;stroke-miterlimit:10;}
	.st21{fill:none;stroke:#8C191B;stroke-width:2;stroke-linecap:round;stroke-linejoin:round;stroke-miterlimit:10;}
	.st22{fill:none;stroke:#53B848;stroke-width:2;stroke-linecap:round;stroke-linejoin:round;stroke-miterlimit:10;}
	.st23{fill:none;stroke:#305BAA;stroke-width:3;stroke-linecap:round;stroke-linejoin:round;stroke-miterlimit:10;}
	.st24{fill:none;}
	.st25{font-family:'ArialMT';}
	.st26{font-size:12px;}
</style>
<g id="Layer_1">
	<g class="st0">
		<g>
			<g>
				<path class="st1" d="M343.2,394.9c19.4-73,38.8-146.1,58.2-219.1c0.6-2.1,0.2-2.8-1.9-3.3c-115.1-30.5-230.2-61-345.2-91.6
					c0.1-0.1-0.1-0.5,0.3-0.4c0.6,0.2,1.1,0.3,1.7,0.5c114.8,30.5,229.6,60.9,344.4,91.4c1.6,0.4,1.9,0.9,1.5,2.5
					c-19.4,72.8-38.7,145.5-58,218.3C343.9,393.7,344.2,394.6,343.2,394.9z"/>
				<path class="st2" d="M29.4,245.2c0.1-0.6,0.3-1.3,0.4-1.9c9.3-34.9,18.6-69.7,27.7-104.6c2.3-8.7,10.6-14.9,19.5-14.4
					c1.2,0.1,2.3,0.3,3.5,0.6c94.5,25,188.9,50.1,283.4,75.1c9.3,2.4,15.4,12.6,13.6,21c-0.5,2.2-0.8,4.3-1.4,6.5
					c-10.5,39.5-20.9,78.9-31.4,118.3c-1.8,6.7-5.3,11.9-12.1,14.5c-3.7,1.4-7.5,1.7-11.3,0.7c-12.5-3.2-25-6.6-37.5-10
					c0-0.1,0-0.3,0.1-0.4c0.5-0.4,0.8-0.9,0.8-1.5c0.1-0.1,0.1-0.3,0.2-0.4c11.9,3.1,23.8,6.3,35.7,9.5c1.4,0.4,2.9,0.6,4.4,0.7
					c8.2,0.3,14.4-4.3,16.2-10.6c4.5-15.3,8.3-30.9,12.4-46.4c0.1-0.1,0.2-0.2,0.2-0.4c1-0.3,1.6-1,1.9-2c2.6-9.7,5.2-19.5,7.7-29.2
					c0.3-1,0.2-2.1-1.1-2.5c0.7-0.6,0.8-1.4,1-2.2c3.7-14,7.4-28,11.1-42c0.5-1.9,0.8-3.8,0.8-5.7c-0.1-7.6-5-13.6-12.9-15.6
					c-69.4-18.4-138.8-36.9-208.2-55.3c-0.1-1.2-1-1.7-2-2c-7.4-1.9-14.8-3.9-22.2-5.9c-0.9-0.2-1.7-0.5-2.4,0.4
					c-0.1,0.1-0.3,0.1-0.4,0.2c-15.3-4.1-30.7-8.1-46-12.2c-1.4-0.4-2.7-0.7-4.1-0.8c-8.2-0.4-14.6,4.5-16.8,12.7
					c-7.5,28.3-15,56.6-22.6,84.9c-1.9,7-3.7,14-5.6,20.9C31.1,245,30.3,244.9,29.4,245.2z"/>
				<path class="st2" d="M257.5,344.1c-0.7-0.2-1.4-0.3-2.1-0.5c-72.2-19.2-144.4-38.3-216.6-57.5c-9.4-2.5-15.2-10.3-14.8-20
					c0.1-1.4,0.4-2.6,0.9-3.9c0.6,0.8,1.5,1,2.4,1.1c-2.3,8.2,2.5,17.6,12.2,20.1c72.8,19.3,145.6,38.6,218.5,58
					c-0.4,0.7-0.5,1.5-0.2,2.3C257.6,343.9,257.6,344,257.5,344.1z"/>
				<path class="st3" d="M257.7,343.8c-0.2-0.8-0.1-1.5,0.2-2.3c0.8-0.4,1.6-0.4,2.5-0.2c7.4,2,14.8,4,22.2,5.9
					c0.8,0.2,1.6,0.5,1.8,1.4c0.1,0.2,0.1,0.4,0.2,0.5c0,0.6-0.3,1.2-0.8,1.5c-0.2,0.1-0.5,0.2-0.7,0.2c-8.4-2.2-16.7-4.4-25.1-6.6
					C257.9,344.1,257.8,343.9,257.7,343.8z"/>
				<path class="st3" d="M27.2,263.4c-0.9-0.1-1.8-0.3-2.4-1.1c0-0.2,0-0.3,0-0.5c0-0.1,0-0.3,0-0.4c0.6-2.1,1.1-4.3,1.7-6.4
					l0.1-0.1v-0.2c0.1-0.2,0.3-0.3,0.4-0.5c0.9-0.2,1.6,0.8,2.6,0.3C30,257.7,29.4,260.8,27.2,263.4z"/>
				<path class="st4" d="M29.7,254.4c-0.9,0.5-1.7-0.5-2.6-0.3c0.2-3.1,1-6.1,2.3-8.9c0.9-0.3,1.7-0.2,2.5,0.3
					C32.2,248.7,31.2,251.6,29.7,254.4z"/>
				<path class="st5" d="M24.9,261.3c0,0.1,0,0.3,0,0.4C24.9,261.6,24.9,261.5,24.9,261.3z"/>
				<path class="st5" d="M26.7,254.6v0.2l-0.1,0.1C26.5,254.8,26.6,254.7,26.7,254.6z"/>
				<path class="st6" d="M257.7,343.8c0.1,0.2,0.3,0.3,0.4,0.5c-0.2,0-0.3-0.1-0.5-0.1C257.6,344,257.6,343.9,257.7,343.8z"/>
				<path class="st6" d="M283.1,350.9c0.2-0.1,0.5-0.2,0.7-0.2c0,0.1,0,0.3-0.1,0.4C283.5,351,283.3,350.9,283.1,350.9z"/>
				<path class="st7" d="M29.7,254.4c1.5-2.8,2.6-5.7,2.2-9c1.9-7,3.8-14,5.6-20.9c7.5-28.3,15-56.6,22.6-84.9
					c2.2-8.3,8.6-13.1,16.8-12.7c1.4,0.1,2.8,0.4,4.1,0.8c15.3,4,30.7,8.1,46,12.2c0.1,0.1,0.2,0.2,0.4,0.2
					c-0.6,1.7,0.6,2.2,1.8,2.5c7.3,2,14.6,3.9,21.9,5.9c1.4,0.4,2.5,0.1,2.9-1.4c69.4,18.4,138.8,36.8,208.2,55.3
					c7.9,2.1,12.8,8,12.9,15.7c0,1.9-0.3,3.8-0.8,5.7c-3.7,14-7.4,28-11.1,42c-0.2,0.8-0.3,1.6-1,2.2c-1.4-0.3-2,0.5-2.3,1.7
					c-2.6,9.7-5.1,19.4-7.7,29.1c-0.3,1.2-0.1,2.2,1.1,2.8c0.1,0.1,0.1,0.3,0.2,0.5c-4.1,15.5-7.9,31-12.4,46.4
					c-1.9,6.3-8,10.9-16.2,10.6c-1.5-0.1-2.9-0.3-4.4-0.7c-11.9-3.2-23.8-6.3-35.7-9.5c-0.1,0-0.2-0.1-0.3-0.1
					c-0.3-0.9-1-1.2-1.8-1.4c-7.4-2-14.8-3.9-22.2-5.9c-0.9-0.2-1.7-0.2-2.5,0.2c-72.8-19.3-145.6-38.7-218.5-58
					c-9.7-2.6-14.5-11.9-12.2-20.1C29.4,260.8,30,257.7,29.7,254.4z M340.4,225.4c0.2,0,0.5,0.1,0.6,0.1c0.2-0.4-0.1-0.6-0.4-0.8
					c-1.2-1.3-2.6-2.1-4.3-2.6c-16.2-4.3-32.4-8.6-48.6-12.9c-2-0.5-3.9-0.3-5.8,0.4c-3.5,1.4-4.8,4.3-5.7,7.7
					c-7.5,28.1-14.9,56.2-22.4,84.3c-0.3,1.1-0.5,2.2-0.6,3.3c-0.5,4.4,2.1,8.4,6.5,9.5c16.3,4.4,32.5,8.7,48.8,13
					c1.9,0.5,3.7,0.5,5.9-0.6c-1.3-0.3-2-0.5-2.8-0.7c-16.1-4.3-32.1-8.6-48.2-12.7c-5.4-1.4-9-5.7-7.3-12.4
					c7.2-27.1,14.4-54.2,21.6-81.3c0.5-1.8,1-3.6,2.2-5c2.4-2.8,5.5-3.8,9.2-2.8C306.3,216.4,323.4,220.9,340.4,225.4z M138.6,270
					c26.3,7,52.5,13.9,78.8,21c2,0.5,2.6,0.1,3.1-1.8c6.7-25.4,13.4-50.8,20.2-76.2c0.5-1.8,0.3-2.5-1.7-3
					c-52.5-13.9-104.9-27.8-157.4-41.8c-1.9-0.5-2.5-0.1-2.9,1.7c-6.7,25.4-13.4,50.8-20.2,76.2c-0.5,1.9-0.3,2.6,1.7,3.1
					C86.3,256.1,112.4,263.1,138.6,270z M301.4,277.5c0.1-0.1,0.2-0.3,0.2-0.4c0.7,0.2,1.4,0.4,2,0.5c6.4,1.7,12.9,3.4,19.3,5.1
					c1.7,0.5,2.4,0,2.8-1.6c0.4-1.9,0.9-3.7,1.5-5.6c0.3-1.1,0.1-1.8-1.1-2.1c-11.2-3-22.4-5.9-33.6-8.9c-1.4-0.4-1.9,0.2-2.1,1.4
					c-0.5,2.3-1.1,4.6-1.8,6.8c-0.5,1.6-0.3,2.7,1.1,3.8c4.2,3.3,8.3,6.7,12.4,10c0.5,0.4,1.6,0.7,1.4,1.5c-0.2,0.7-1.3,0.6-2,0.7
					c-5.3,0.9-10.6,1.7-15.9,2.5c-1,0.2-2,0.3-2.3,1.6c-0.6,2.7-1.4,5.4-2.1,8.1c-0.3,1.1,0,1.6,1.1,2c11.3,3,22.6,6,33.8,9
					c1.1,0.3,1.7,0,1.9-1.1c0.5-1.9,0.9-3.7,1.5-5.6c0.5-1.5,0-2.1-1.5-2.5c-6.5-1.7-13-3.4-19.5-5.1c-0.6-0.2-1.3-0.4-2-0.5
					c4.7-1.1,9.4-1.7,14-2.4c1-0.2,2.2,0,2.8-1.3c1.9-4,1.6-5.7-2-8.3c-0.1,0-0.1-0.1-0.2-0.1C307.8,282.5,304.6,280,301.4,277.5z
					 M296.8,241.2c-1,3.6-1.8,7.2-2.9,10.7c-0.6,1.8-0.2,2.6,1.7,3.1c5.5,1.3,10.9,2.8,16.3,4.3c2,0.6,2.6,0.2,2.6-1.9
					c-0.1-3.9,0.7-7.6,2.6-11.1c1.2-2.2,3.3-3.4,5.4-3.1c2.1,0.4,3.8,2.1,4.1,4.6c0.3,2.2,0.1,4.4-0.9,6.5c-1.2,2.5-2.5,4.8-4.5,6.8
					c-1.3,1.3-1,2,0.8,2.6c1.5,0.4,3,0.7,4.5,1.2c1.2,0.4,1.9,0.1,2.6-0.9c1.7-2.4,2.9-5.1,3.9-7.9c1.7-4.9,2.6-10,0.5-15.1
					c-2-4.9-6-7.2-11-7.8c-4.5-0.5-7.8,1.7-10.1,5.4c-1.6,2.5-2.6,5.3-3.3,8.1c-0.3,1.4-0.9,2-2.3,1.4c-0.5-0.2-1-0.3-1.5-0.4
					c-1.8-0.2-2.3-1-1.8-2.9c1-3.2,1.7-6.4,2.6-9.6c1.5-5.5,1.5-5.5-4.1-6.8c-1.4-0.3-2,0.1-2.3,1.4
					C298.8,233.8,297.8,237.5,296.8,241.2z"/>
				<path class="st4" d="M353.3,301.4c-1.2-0.6-1.5-1.5-1.1-2.8c2.6-9.7,5.2-19.4,7.7-29.1c0.3-1.2,0.9-2,2.3-1.7
					c1.3,0.4,1.4,1.5,1.1,2.5c-2.6,9.7-5.2,19.5-7.7,29.2c-0.3,1-0.8,1.7-1.9,2C353.6,301.4,353.5,301.4,353.3,301.4z"/>
				<path class="st4" d="M154.1,147.1c-0.5,1.5-1.5,1.8-2.9,1.4c-7.3-2-14.6-3.9-21.9-5.9c-1.3-0.4-2.5-0.8-1.8-2.5
					c0-0.1,0.1-0.3,0.1-0.4c0.7-0.9,1.6-0.6,2.4-0.4c7.4,2,14.8,3.9,22.2,5.9C153.1,145.4,154,145.8,154.1,147.1z"/>
				<path class="st8" d="M127.4,139.6c0,0.1-0.1,0.3-0.1,0.4c-0.1,0-0.2-0.1-0.4-0.2C127.2,139.8,127.3,139.7,127.4,139.6z"/>
				<path class="st9" d="M284.5,348.6c0.1,0,0.2,0.1,0.3,0.1c-0.1,0.1-0.1,0.3-0.2,0.4C284.6,348.9,284.5,348.7,284.5,348.6z"/>
				<path class="st9" d="M353.3,301.4c0.2,0,0.3,0,0.4,0.1c0,0.1-0.1,0.3-0.2,0.4C353.5,301.7,353.4,301.6,353.3,301.4z"/>
				<path class="st10" d="M138.6,270c-26.1-6.9-52.2-13.9-78.4-20.8c-2-0.5-2.2-1.2-1.7-3.1c6.8-25.4,13.5-50.8,20.2-76.2
					c0.5-1.9,1.1-2.2,2.9-1.7c52.4,14,104.9,27.9,157.4,41.8c2,0.5,2.1,1.2,1.7,3c-6.8,25.4-13.5,50.8-20.2,76.2
					c-0.5,1.9-1.1,2.3-3.1,1.8C191.1,283.9,164.8,277,138.6,270z"/>
				<path class="st11" d="M301.4,277.5c3.2,2.5,6.4,5,9.6,7.6c0.1,0,0.1,0.1,0.2,0.1c3.5,2.6,3.9,4.3,2,8.3
					c-0.6,1.3-1.8,1.1-2.8,1.3c-4.6,0.7-9.3,1.4-14,2.4c0.6,0.2,1.3,0.4,2,0.5c6.5,1.7,13,3.5,19.5,5.1c1.5,0.4,2,0.9,1.5,2.5
					c-0.6,1.8-1,3.7-1.5,5.6c-0.3,1.1-0.8,1.4-1.9,1.1c-11.3-3-22.5-6-33.8-9c-1.1-0.3-1.4-0.9-1.1-2c0.8-2.7,1.5-5.4,2.1-8.1
					c0.3-1.3,1.3-1.5,2.3-1.6c5.3-0.9,10.6-1.7,15.9-2.5c0.7-0.1,1.8,0.1,2-0.7c0.2-0.8-0.8-1-1.4-1.5c-4.1-3.4-8.2-6.8-12.4-10
					c-1.4-1.1-1.7-2.2-1.1-3.8c0.8-2.2,1.3-4.5,1.8-6.8c0.3-1.2,0.8-1.8,2.1-1.4c11.2,3,22.4,6,33.6,8.9c1.2,0.3,1.5,1,1.1,2.1
					c-0.5,1.8-1.1,3.7-1.5,5.6c-0.3,1.7-1,2.1-2.8,1.6c-6.4-1.8-12.8-3.5-19.3-5.1c-0.7-0.2-1.4-0.4-2-0.5
					C301.6,277.2,301.5,277.4,301.4,277.5z"/>
				<path class="st11" d="M296.8,241.2c1-3.7,2-7.4,2.9-11.1c0.3-1.4,0.9-1.8,2.3-1.4c5.5,1.3,5.5,1.3,4.1,6.8
					c-0.9,3.2-1.6,6.5-2.6,9.6c-0.6,1.8,0,2.6,1.8,2.9c0.5,0.1,1,0.2,1.5,0.4c1.4,0.5,2-0.1,2.3-1.4c0.7-2.9,1.7-5.6,3.3-8.1
					c2.3-3.7,5.6-5.9,10.1-5.4c5,0.6,8.9,2.9,11,7.8c2.1,5.1,1.2,10.1-0.5,15.1c-1,2.8-2.2,5.5-3.9,7.9c-0.7,1-1.4,1.3-2.6,0.9
					c-1.5-0.5-3-0.8-4.5-1.2c-1.8-0.5-2.1-1.3-0.8-2.6c2-2,3.3-4.3,4.5-6.8c1-2.1,1.2-4.3,0.9-6.5c-0.3-2.5-2-4.3-4.1-4.6
					c-2.1-0.4-4.2,0.8-5.4,3.1c-1.9,3.5-2.7,7.2-2.6,11.1c0,2.1-0.6,2.5-2.6,1.9c-5.4-1.6-10.8-3-16.3-4.3c-2-0.5-2.3-1.3-1.7-3.1
					C295,248.3,295.9,244.7,296.8,241.2z"/>
				<path class="st12" d="M340.4,225.4c-17.1-4.5-34.1-9-51.2-13.5c-3.7-1-6.8,0-9.2,2.8c-1.2,1.4-1.8,3.2-2.2,5
					c-7.2,27.1-14.4,54.2-21.6,81.3c-1.8,6.6,1.9,11,7.3,12.4c16.1,4.1,32.1,8.5,48.2,12.7c0.8,0.2,1.5,0.4,2.8,0.7
					c-2.2,1.1-4.1,1.1-5.9,0.6c-16.3-4.3-32.5-8.6-48.8-13c-4.4-1.2-7-5.1-6.5-9.5c0.1-1.1,0.3-2.2,0.6-3.3
					c7.4-28.1,14.9-56.2,22.4-84.3c0.9-3.3,2.2-6.3,5.7-7.7c1.9-0.8,3.8-1,5.8-0.4c16.2,4.3,32.4,8.6,48.6,12.9
					c1.7,0.5,3.1,1.3,4.3,2.6C340.5,224.9,340.5,225.2,340.4,225.4z"/>
				<path class="st5" d="M340.4,225.4c0.1-0.2,0.1-0.5,0.2-0.7c0.3,0.2,0.6,0.4,0.4,0.8C341,225.6,340.6,225.5,340.4,225.4z"/>
			</g>
			
				<rect x="107" y="146.4" transform="matrix(0.2566 -0.9665 0.9665 0.2566 -110.8905 315.5685)" class="st13" width="85.3" height="167"/>
			<circle cx="79.9" cy="167.3" r="1.6"/>
			<circle cx="219.5" cy="292.6" r="1.6"/>
			<g>
				<g>
					<path class="st2" d="M23.1,179.7c0.1-0.6,0.3-1.3,0.4-1.9c9.3-34.9,18.6-69.7,27.7-104.7c2.3-8.7,10.6-14.9,19.5-14.3
						c1.2,0.1,2.3,0.3,3.5,0.6c94.4,25.1,188.8,50.2,283.3,75.2c9.3,2.4,15.4,12.6,13.6,21c-0.5,2.2-0.8,4.3-1.4,6.5
						c-10.5,39.5-20.9,78.9-31.4,118.3c-1.8,6.7-5.3,11.9-12.1,14.5c-3.7,1.4-7.5,1.7-11.3,0.7c-12.5-3.2-25-6.6-37.5-10
						c0-0.1,0-0.3,0.1-0.4c0.5-0.4,0.8-0.9,0.8-1.5c0.1-0.1,0.1-0.3,0.2-0.4c11.9,3.1,23.8,6.3,35.7,9.5c1.4,0.4,2.9,0.6,4.4,0.7
						c8.2,0.3,14.4-4.3,16.2-10.6c4.5-15.3,8.3-30.9,12.4-46.4c0.1-0.1,0.2-0.2,0.2-0.4c1-0.3,1.6-1,1.9-2
						c2.6-9.7,5.2-19.5,7.7-29.2c0.3-1.1,0.2-2.1-1.1-2.5c0.7-0.6,0.8-1.4,1-2.2c3.7-14,7.4-28,11.1-42c0.5-1.9,0.8-3.8,0.8-5.7
						c-0.1-7.6-5-13.5-12.9-15.6c-69.4-18.4-138.8-36.8-208.2-55.3c-0.1-1.2-1-1.7-2-2c-7.4-1.9-14.8-3.9-22.2-5.9
						c-0.9-0.2-1.7-0.5-2.4,0.4c-0.1,0.1-0.3,0.1-0.4,0.2c-15.3-4.1-30.7-8.1-46-12.2c-1.4-0.3-2.7-0.7-4.1-0.8
						C62.4,60.9,56,65.7,53.8,74c-7.5,28.3-15,56.6-22.6,84.9c-1.9,7-3.7,14-5.6,20.9C24.8,179.4,23.9,179.4,23.1,179.7z"/>
					<path class="st2" d="M251.2,278.6c-0.7-0.2-1.4-0.3-2.1-0.5c-72.2-19.2-144.4-38.3-216.6-57.5c-9.4-2.5-15.2-10.3-14.8-20
						c0.1-1.4,0.4-2.6,0.9-3.9c0.6,0.8,1.5,1,2.4,1.1c-2.3,8.2,2.5,17.6,12.2,20.1c72.8,19.3,145.6,38.6,218.5,58
						c-0.4,0.7-0.5,1.5-0.2,2.3C251.3,278.3,251.2,278.5,251.2,278.6z"/>
					<path class="st3" d="M251.3,278.2c-0.2-0.8-0.1-1.5,0.2-2.3c0.8-0.4,1.6-0.4,2.5-0.2c7.4,2,14.8,4,22.2,5.9
						c0.8,0.2,1.6,0.5,1.8,1.4c0.1,0.2,0.1,0.4,0.2,0.5c0,0.6-0.3,1.2-0.8,1.5c-0.2,0.1-0.5,0.2-0.7,0.2c-8.4-2.2-16.7-4.4-25.1-6.6
						C251.6,278.5,251.4,278.4,251.3,278.2z"/>
					<path class="st3" d="M20.9,197.8c-0.9-0.1-1.8-0.3-2.4-1.1c0-0.2,0-0.3,0-0.5c0-0.1,0-0.3,0-0.4c0.6-2.1,1.1-4.3,1.7-6.4
						l0.1-0.1v-0.2c0.1-0.2,0.3-0.3,0.4-0.5c0.9-0.2,1.6,0.8,2.6,0.3C23.6,192.2,23,195.2,20.9,197.8z"/>
					<path class="st4" d="M23.3,188.9c-0.9,0.5-1.7-0.5-2.6-0.3c0.2-3.1,1-6.1,2.3-8.9c0.9-0.3,1.7-0.2,2.5,0.3
						C25.9,183.2,24.9,186.1,23.3,188.9z"/>
					<path class="st5" d="M18.5,195.8c0,0.1,0,0.3,0,0.4C18.5,196.1,18.5,195.9,18.5,195.8z"/>
					<path class="st5" d="M20.4,189.1v0.2l-0.1,0.1C20.2,189.2,20.2,189.1,20.4,189.1z"/>
					<path class="st6" d="M251.3,278.2c0.1,0.2,0.3,0.3,0.4,0.5c-0.2,0-0.3-0.1-0.5-0.1C251.2,278.5,251.3,278.3,251.3,278.2z"/>
					<path class="st6" d="M276.8,285.3c0.2-0.1,0.5-0.2,0.7-0.2c0,0.1,0,0.3-0.1,0.4C277.2,285.5,277,285.4,276.8,285.3z"/>
					<path class="st7" d="M23.3,188.9c1.5-2.8,2.6-5.7,2.2-9c1.9-7,3.8-13.9,5.6-20.9c7.5-28.3,15-56.6,22.6-84.9
						c2.2-8.3,8.6-13.1,16.8-12.7c1.4,0.1,2.8,0.4,4.1,0.8c15.3,4,30.7,8.1,46,12.2c0.1,0.1,0.2,0.2,0.4,0.2
						c-0.6,1.7,0.6,2.2,1.8,2.5c7.3,2,14.6,3.9,21.9,5.9c1.4,0.4,2.5,0.1,2.9-1.4c69.4,18.4,138.8,36.8,208.2,55.3
						c7.9,2.1,12.8,8,12.9,15.6c0,1.9-0.3,3.8-0.8,5.7c-3.7,14-7.4,28-11.1,41.9c-0.2,0.8-0.3,1.6-1,2.2c-1.4-0.3-2,0.5-2.3,1.7
						c-2.6,9.7-5.1,19.4-7.7,29.1c-0.3,1.2-0.1,2.2,1.1,2.8c0.1,0.1,0.1,0.3,0.2,0.5c-4.1,15.5-7.9,31-12.4,46.4
						c-1.9,6.3-8,10.9-16.2,10.6c-1.5-0.1-2.9-0.3-4.4-0.7c-11.9-3.2-23.8-6.3-35.7-9.5c-0.1,0-0.2-0.1-0.3-0.1
						c-0.3-0.9-1-1.2-1.8-1.4c-7.4-2-14.8-3.9-22.2-5.9c-0.9-0.2-1.7-0.2-2.5,0.2c-72.8-19.3-145.6-38.7-218.5-58
						c-9.7-2.6-14.5-11.9-12.2-20.1C23,195.2,23.6,192.2,23.3,188.9z M334,159.9c0.2,0,0.5,0.1,0.6,0.1c0.2-0.4-0.1-0.6-0.4-0.8
						c-1.2-1.3-2.6-2.1-4.3-2.6c-16.2-4.3-32.4-8.6-48.6-12.9c-2-0.5-3.9-0.3-5.8,0.4c-3.5,1.4-4.8,4.3-5.7,7.7
						c-7.5,28.1-14.9,56.2-22.4,84.3c-0.3,1.1-0.5,2.2-0.6,3.3c-0.5,4.4,2.1,8.4,6.5,9.5c16.3,4.4,32.5,8.7,48.8,13
						c1.9,0.5,3.7,0.5,5.9-0.6c-1.3-0.3-2-0.5-2.8-0.7c-16.1-4.3-32.1-8.6-48.2-12.7c-5.4-1.4-9-5.7-7.3-12.4
						c7.2-27.1,14.4-54.2,21.6-81.3c0.5-1.8,1-3.6,2.2-5c2.4-2.8,5.5-3.8,9.2-2.8C299.9,150.9,317,155.4,334,159.9z M132.2,204.5
						c26.3,7,52.5,13.9,78.8,21c2,0.5,2.6,0.1,3.1-1.8c6.7-25.4,13.4-50.8,20.2-76.2c0.5-1.8,0.3-2.5-1.7-3
						c-52.5-13.9-104.9-27.8-157.4-41.8c-1.9-0.5-2.5-0.1-2.9,1.7c-6.7,25.4-13.4,50.8-20.2,76.2c-0.5,1.9-0.3,2.6,1.7,3.1
						C79.9,190.6,106.1,197.5,132.2,204.5z M295,212c0.1-0.1,0.2-0.3,0.2-0.4c0.7,0.2,1.4,0.4,2,0.5c6.4,1.7,12.9,3.4,19.3,5.1
						c1.7,0.5,2.4,0,2.8-1.6c0.4-1.9,0.9-3.7,1.5-5.6c0.3-1.1,0.1-1.8-1.1-2.1c-11.2-2.9-22.4-5.9-33.6-8.9
						c-1.4-0.4-1.9,0.2-2.1,1.4c-0.5,2.3-1.1,4.6-1.8,6.8c-0.5,1.6-0.3,2.7,1.1,3.8c4.2,3.3,8.3,6.7,12.4,10
						c0.5,0.4,1.6,0.7,1.4,1.5c-0.2,0.7-1.3,0.6-2,0.7c-5.3,0.9-10.6,1.7-15.9,2.5c-1,0.2-2,0.3-2.3,1.6c-0.6,2.7-1.4,5.4-2.1,8.1
						c-0.3,1.1,0,1.6,1.1,2c11.3,3,22.6,6,33.8,9c1.1,0.3,1.7,0,1.9-1.1c0.5-1.9,0.9-3.7,1.5-5.6c0.5-1.5,0-2.1-1.5-2.5
						c-6.5-1.7-13-3.4-19.5-5.1c-0.6-0.2-1.3-0.4-2-0.5c4.7-1.1,9.4-1.7,14-2.4c1-0.2,2.2,0,2.8-1.3c1.9-4,1.6-5.7-2-8.3
						c-0.1,0-0.1-0.1-0.2-0.1C301.5,217,298.2,214.5,295,212z M290.5,175.6c-1,3.6-1.8,7.2-2.9,10.7c-0.6,1.8-0.2,2.6,1.7,3.1
						c5.5,1.3,10.9,2.8,16.3,4.3c2,0.6,2.6,0.2,2.6-1.9c-0.1-3.9,0.7-7.6,2.6-11.1c1.2-2.2,3.3-3.4,5.4-3.1c2.1,0.4,3.8,2.1,4.1,4.6
						c0.3,2.2,0.1,4.4-0.9,6.5c-1.2,2.5-2.5,4.8-4.5,6.8c-1.3,1.3-1,2,0.8,2.6c1.5,0.4,3,0.7,4.5,1.2c1.2,0.4,1.9,0.1,2.6-0.9
						c1.7-2.4,2.9-5.1,3.9-7.9c1.7-4.9,2.6-10,0.5-15.1c-2-4.9-6-7.2-11-7.8c-4.5-0.5-7.8,1.7-10.1,5.4c-1.6,2.5-2.6,5.3-3.3,8.1
						c-0.3,1.4-0.9,2-2.3,1.4c-0.5-0.2-1-0.3-1.5-0.4c-1.8-0.2-2.3-1-1.8-2.9c1-3.2,1.7-6.4,2.6-9.6c1.5-5.5,1.5-5.5-4.1-6.8
						c-1.4-0.3-2,0.1-2.3,1.4C292.5,168.2,291.5,171.9,290.5,175.6z"/>
					<path class="st4" d="M346.9,235.9c-1.2-0.6-1.5-1.5-1.1-2.8c2.6-9.7,5.2-19.4,7.7-29.1c0.3-1.2,0.9-2,2.3-1.7
						c1.3,0.4,1.3,1.4,1.1,2.5c-2.6,9.7-5.2,19.5-7.7,29.2c-0.3,1-0.8,1.7-1.9,2C347.2,235.9,347.1,235.9,346.9,235.9z"/>
					<path class="st4" d="M147.7,81.6c-0.5,1.5-1.5,1.8-2.9,1.4c-7.3-2-14.6-3.9-21.9-5.9c-1.3-0.3-2.5-0.8-1.8-2.5
						c0-0.1,0.1-0.3,0.1-0.4c0.7-0.9,1.6-0.6,2.4-0.4c7.4,2,14.8,3.9,22.2,5.9C146.7,79.9,147.6,80.3,147.7,81.6z"/>
					<path class="st8" d="M121.1,74.1c0,0.1-0.1,0.3-0.1,0.4c-0.1-0.1-0.2-0.1-0.4-0.2C120.8,74.2,120.9,74.2,121.1,74.1z"/>
					<path class="st9" d="M278.1,283c0.1,0,0.2,0.1,0.3,0.1c-0.1,0.1-0.1,0.3-0.2,0.4C278.2,283.4,278.2,283.2,278.1,283z"/>
					<path class="st9" d="M346.9,235.9c0.1,0,0.3,0,0.4,0.1c0,0.1-0.1,0.3-0.2,0.4C347.1,236.2,347,236,346.9,235.9z"/>
					<path class="st10" d="M132.2,204.5c-26.1-6.9-52.2-13.9-78.4-20.8c-2-0.5-2.2-1.2-1.7-3.1c6.8-25.4,13.5-50.8,20.2-76.2
						c0.5-1.9,1.1-2.2,2.9-1.7c52.4,14,104.9,27.9,157.4,41.8c2,0.5,2.1,1.2,1.7,3c-6.8,25.4-13.5,50.8-20.2,76.2
						c-0.5,1.9-1.1,2.3-3.1,1.8C184.7,218.4,158.4,211.4,132.2,204.5z"/>
					<path class="st11" d="M295,212c3.2,2.5,6.4,5.1,9.6,7.6c0.1,0,0.1,0.1,0.2,0.1c3.5,2.6,3.9,4.3,2,8.3c-0.6,1.3-1.8,1.1-2.8,1.3
						c-4.6,0.7-9.3,1.4-14,2.4c0.6,0.2,1.3,0.4,2,0.5c6.5,1.7,13,3.5,19.5,5.1c1.5,0.4,2,0.9,1.5,2.5c-0.6,1.8-1,3.7-1.5,5.6
						c-0.3,1.1-0.8,1.4-1.9,1.1c-11.3-3-22.5-6-33.8-9c-1.1-0.3-1.4-0.9-1.1-2c0.8-2.7,1.5-5.4,2.1-8.1c0.3-1.3,1.3-1.5,2.3-1.6
						c5.3-0.9,10.6-1.7,15.9-2.5c0.7-0.1,1.8,0.1,2-0.7s-0.8-1-1.4-1.5c-4.1-3.4-8.2-6.8-12.4-10c-1.4-1.1-1.7-2.2-1.1-3.8
						c0.8-2.2,1.3-4.5,1.8-6.8c0.3-1.2,0.8-1.8,2.1-1.4c11.2,3,22.4,6,33.6,8.9c1.2,0.3,1.5,1,1.1,2.1c-0.5,1.8-1.1,3.7-1.5,5.6
						c-0.3,1.7-1,2.1-2.8,1.6c-6.4-1.8-12.8-3.5-19.3-5.1c-0.7-0.2-1.4-0.4-2-0.5C295.2,211.7,295.1,211.8,295,212z"/>
					<path class="st11" d="M290.5,175.6c1-3.7,2-7.4,2.9-11.1c0.3-1.4,0.9-1.8,2.3-1.4c5.5,1.3,5.5,1.3,4.1,6.8
						c-0.9,3.2-1.6,6.4-2.6,9.6c-0.6,1.8,0,2.6,1.8,2.9c0.5,0.1,1,0.2,1.5,0.4c1.4,0.5,2-0.1,2.3-1.4c0.7-2.9,1.7-5.6,3.3-8.1
						c2.3-3.7,5.6-5.9,10.1-5.4c5,0.6,8.9,2.9,11,7.8c2.1,5.1,1.2,10.1-0.5,15.1c-1,2.8-2.2,5.5-3.9,7.9c-0.7,1-1.4,1.3-2.6,0.9
						c-1.5-0.5-3-0.8-4.5-1.2c-1.8-0.5-2.1-1.3-0.8-2.6c2-2,3.3-4.3,4.5-6.8c1-2.1,1.2-4.3,0.9-6.5c-0.3-2.5-2-4.3-4.1-4.6
						c-2.1-0.4-4.2,0.8-5.4,3.1c-1.9,3.5-2.7,7.2-2.6,11.1c0,2.1-0.6,2.5-2.6,1.9c-5.4-1.6-10.8-3-16.3-4.3c-2-0.5-2.3-1.3-1.7-3.1
						C288.7,182.8,289.5,179.2,290.5,175.6z"/>
					<path class="st12" d="M334,159.9c-17.1-4.5-34.1-9-51.2-13.5c-3.7-1-6.8,0-9.2,2.8c-1.2,1.4-1.8,3.2-2.2,5
						c-7.2,27.1-14.4,54.2-21.6,81.3c-1.8,6.6,1.9,11,7.3,12.4c16.1,4.1,32.1,8.5,48.2,12.7c0.8,0.2,1.5,0.4,2.8,0.7
						c-2.2,1.1-4.1,1.1-5.9,0.6c-16.3-4.3-32.5-8.6-48.8-13c-4.4-1.2-7-5.1-6.5-9.5c0.1-1.1,0.3-2.2,0.6-3.3
						c7.5-28.1,14.9-56.2,22.4-84.3c0.9-3.3,2.2-6.3,5.7-7.7c1.9-0.8,3.8-1,5.8-0.4c16.2,4.3,32.4,8.6,48.6,12.9
						c1.7,0.4,3.1,1.3,4.3,2.6C334.2,159.4,334.1,159.6,334,159.9z"/>
					<path class="st5" d="M334,159.9c0.1-0.2,0.1-0.5,0.2-0.7c0.3,0.2,0.6,0.4,0.4,0.8C334.6,160,334.2,159.9,334,159.9z"/>
				</g>
				
					<rect x="100.7" y="80.9" transform="matrix(0.2566 -0.9665 0.9665 0.2566 -52.3177 260.7593)" class="st13" width="85.3" height="167"/>
				<circle cx="73.6" cy="101.7" r="1.6"/>
				<circle cx="213.1" cy="227" r="1.6"/>
			</g>
		</g>
		<path class="st14" d="M25.6,275.1l-6.8-72.8c0,0,2.2,16.9,13.6,18.3c6.4,0.8,282.4,74.9,282.4,74.9s15.6,2.7,19.9-12.8
			c4.3-15.4,34-135.9,34-135.9l6.4,62.1c0,0,1.1,8.1,0.3,13.8c-0.8,5.7-32.7,128.3-32.7,128.3s-1.7,10.5-15.4,10.5
			c-6.1,0-283.1-72.8-292.4-76.9C25.6,280.5,25.6,275.1,25.6,275.1z"/>
		<path class="st1" d="M329.2,293.3"/>
	</g>
	<g id="Layer_4" class="st15">
		<g>
			<path class="st16" d="M177.2,60.6c0,0-13-3.6-14.5,2.3c-3,11.5,37.5,21.2,40.3,10.5c0,0,1.5-5.8-11.2-9.2"/>
			<g>
				<line class="st16" x1="190.4" y1="63.6" x2="194.8" y2="68.3"/>
				<line class="st16" x1="190.4" y1="63.6" x2="196.7" y2="62.2"/>
			</g>
		</g>
		<g>
			<path class="st17" d="M154.1,17.2c0,0-13.5-0.2-13.5,5.9c0,11.9,41.7,11.1,41.7,0c0,0,0-6-13.2-6"/>
			<g>
				<line class="st18" x1="167.7" y1="16.8" x2="173.1" y2="20.2"/>
				<line class="st18" x1="167.7" y1="16.8" x2="173.4" y2="13.8"/>
			</g>
		</g>
		<g>
			<path class="st19" d="M15.7,132.4c0,0-4.2,12.8,1.6,14.6c11.3,3.5,23.1-36.5,12.5-39.8c0,0-5.8-1.8-9.7,10.8"/>
			<g>
				<line class="st19" x1="19.3" y1="119.3" x2="24.2" y2="115.2"/>
				<line class="st19" x1="19.3" y1="119.3" x2="18.2" y2="113"/>
			</g>
		</g>
	</g>
	<g id="Layer_3">
		<path class="st14" d="M161.6,19.8"/>
		<g>
			<polyline class="st20" points="5.9,124.2 161.4,168 402.3,235.9 			"/>
			<g>
				<line class="st21" x1="405" y1="236.6" x2="400.4" y2="232.1"/>
				<line class="st21" x1="405" y1="236.6" x2="398.8" y2="238.2"/>
			</g>
			<g>
				<line class="st21" x1="4.1" y1="123.3" x2="8.3" y2="128.2"/>
				<line class="st21" x1="4.1" y1="123.3" x2="10.4" y2="122.2"/>
			</g>
		</g>
		<g>
			<line class="st16" x1="186.3" y1="47.2" x2="127.1" y2="337"/>
			<g>
				<line class="st22" x1="186.4" y1="45.7" x2="182.2" y2="50.6"/>
				<line class="st22" x1="186.4" y1="45.7" x2="188.5" y2="51.7"/>
			</g>
			<g>
				<line class="st22" x1="126.6" y1="340.1" x2="131" y2="335.4"/>
				<line class="st22" x1="126.6" y1="340.1" x2="124.8" y2="333.9"/>
			</g>
		</g>
		<g>
			<line class="st23" x1="161.6" y1="363" x2="161.6" y2="3.8"/>
			<g>
				<line class="st17" x1="161.7" y1="1" x2="158.5" y2="6.6"/>
				<line class="st17" x1="161.7" y1="1" x2="164.9" y2="6.6"/>
			</g>
			<g>
				<line class="st17" x1="161.8" y1="365" x2="165.1" y2="359.5"/>
				<line class="st17" x1="161.8" y1="365" x2="158.7" y2="359.3"/>
			</g>
		</g>
	</g>
</g>
<g id="Layer_2">
	<rect x="168.5" y="356.2" class="st24" width="21.2" height="21.6"/>
	<text transform="matrix(1 0 0 1 168.4993 364.8333)" class="st25 st26">z</text>
	<rect x="114.2" y="330.4" class="st24" width="21.2" height="21.6"/>
	<text transform="matrix(1 0 0 1 114.2086 338.972)" class="st25 st26">y</text>
	<rect x="5.9" y="108.5" class="st24" width="21.2" height="21.6"/>
	<text transform="matrix(1 0 0 1 5.9002 117.1034)" class="st25 st26">x</text>
</g>
</svg>
