<?xml version="1.0" encoding="utf-8"?>
<!-- Generator: Adobe Illustrator 23.1.1, SVG Export Plug-In . SVG Version: 6.00 Build 0)  -->
<svg version="1.1" xmlns="http://www.w3.org/2000/svg" xmlns:xlink="http://www.w3.org/1999/xlink" x="0px" y="0px"
	 viewBox="0 0 841.89 595.28" style="enable-background:new 0 0 841.89 595.28;" xml:space="preserve">
<style type="text/css">
	.st0{opacity:0.19;}
	.st1{fill:#FFFFFF;}
	.st2{fill:#676767;}
	.st3{fill:#E93725;}
	.st4{fill:#CCCCCB;}
	.st5{fill:#796350;}
	.st6{fill:#595959;}
	.st7{fill:#DC8844;}
	.st8{fill:#907259;}
	.st9{fill:#BD7F4C;}
	.st10{fill:#131313;}
	.st11{fill:#CC732A;}
	.st12{fill:#575655;}
	.st13{fill:#E5F4F7;stroke:#5C5A5C;stroke-width:2;stroke-linecap:round;stroke-linejoin:round;stroke-miterlimit:10;}
	.st14{fill:#DC8844;stroke:#565555;stroke-width:3;stroke-linecap:round;stroke-linejoin:round;stroke-miterlimit:10;}
	.st15{opacity:0.66;}
	.st16{fill:none;stroke:#53B848;stroke-width:3;stroke-linecap:round;stroke-linejoin:round;stroke-miterlimit:10;}
	.st17{fill:none;stroke:#305BAA;stroke-width:2;stroke-linecap:round;stroke-linejoin:round;stroke-miterlimit:10;}
	.st18{fill:none;stroke:#2D5CA9;stroke-width:2;stroke-linecap:round;stroke-linejoin:round;stroke-miterlimit:10;}
	.st19{fill:none;stroke:#8C191B;stroke-width:3;stroke-linecap:round;stroke-linejoin:round;stroke-miterlimit:10;}
	.st20{fill:#DC8844;stroke:#8C191B;stroke-width:3;stroke-linecap:round;stroke-linejoin:round;stroke-miterlimit:10;}
	.st21{fill:none;stroke:#8C191B;stroke-width:2;stroke-linecap:round;stroke-linejoin:round;stroke-miterlimit:10;}
	.st22{fill:#DC8844;stroke:#53B848;stroke-width:3;stroke-linecap:round;stroke-linejoin:round;stroke-miterlimit:10;}
	.st23{fill:none;stroke:#53B848;stroke-width:2;stroke-linecap:round;stroke-linejoin:round;stroke-miterlimit:10;}
	.st24{fill:#DC8844;stroke:#305BAA;stroke-width:3;stroke-linecap:round;stroke-linejoin:round;stroke-miterlimit:10;}
	.st25{fill:none;stroke:#ABD037;stroke-width:3;stroke-linecap:round;stroke-linejoin:round;stroke-miterlimit:10;}
	.st26{fill:#FFFFFF;stroke:#ABD037;stroke-width:2;stroke-linecap:round;stroke-linejoin:round;stroke-miterlimit:10;}
	.st27{fill:none;stroke:#5C4CA0;stroke-width:2;stroke-linecap:round;stroke-linejoin:round;stroke-miterlimit:10;}
	.st28{fill:#FFFFFF;stroke:#5C4CA0;stroke-width:2;stroke-linecap:round;stroke-linejoin:round;stroke-miterlimit:10;}
	.st29{fill:none;stroke:#BC4426;stroke-width:2;stroke-linecap:round;stroke-linejoin:round;stroke-miterlimit:10;}
	.st30{fill:#FFFFFF;stroke:#BC4426;stroke-width:2;stroke-linecap:round;stroke-linejoin:round;stroke-miterlimit:10;}
</style>
<g id="Layer_1" class="st0">
	<g>
		<g>
			<path class="st1" d="M466.32,438.05C485.72,365,505.1,291.94,524.56,218.9c0.57-2.15,0.2-2.76-1.94-3.33
				c-115.09-30.49-230.16-61.05-345.24-91.59c0.13-0.11-0.1-0.5,0.33-0.38c0.57,0.17,1.14,0.31,1.71,0.46
				c114.79,30.47,229.58,60.95,344.39,91.38c1.61,0.43,1.87,0.88,1.45,2.49c-19.37,72.76-38.68,145.53-58.02,218.3
				C467.07,436.86,467.34,437.82,466.32,438.05z"/>
			<path class="st2" d="M152.58,288.37c0.14-0.65,0.26-1.3,0.43-1.94c9.26-34.88,18.6-69.74,27.72-104.65
				c2.28-8.74,10.56-14.94,19.54-14.35c1.17,0.08,2.33,0.34,3.47,0.64c94.43,25.06,188.85,50.15,283.29,75.15
				c9.26,2.45,15.38,12.6,13.63,20.99c-0.45,2.16-0.85,4.33-1.41,6.47c-10.46,39.45-20.92,78.89-31.42,118.33
				c-1.78,6.67-5.35,11.93-12.13,14.46c-3.7,1.38-7.54,1.7-11.32,0.73c-12.51-3.22-24.98-6.62-37.47-9.95
				c0.02-0.14,0.04-0.29,0.06-0.43c0.53-0.38,0.81-0.88,0.81-1.54c0.06-0.14,0.11-0.28,0.17-0.42c11.92,3.15,23.84,6.28,35.74,9.45
				c1.44,0.38,2.89,0.65,4.36,0.71c8.19,0.32,14.36-4.28,16.23-10.59c4.54-15.34,8.32-30.9,12.4-46.38
				c0.09-0.11,0.15-0.23,0.19-0.37c1.03-0.27,1.59-0.97,1.86-1.97c2.58-9.74,5.17-19.47,7.73-29.21c0.28-1.05,0.25-2.08-1.08-2.5
				c0.67-0.57,0.76-1.41,0.96-2.19c3.72-13.98,7.43-27.96,11.14-41.95c0.49-1.86,0.79-3.76,0.76-5.68
				c-0.1-7.64-4.96-13.55-12.86-15.65c-69.39-18.43-138.77-36.85-208.16-55.27c-0.11-1.25-0.97-1.67-2.04-1.96
				c-7.39-1.94-14.78-3.91-22.17-5.87c-0.86-0.23-1.74-0.47-2.43,0.39c-0.15,0.07-0.29,0.13-0.44,0.2
				c-15.34-4.05-30.67-8.11-46.01-12.15c-1.35-0.35-2.73-0.73-4.11-0.8c-8.18-0.4-14.6,4.45-16.81,12.74
				c-7.54,28.28-15.03,56.58-22.55,84.87c-1.86,6.98-3.74,13.96-5.62,20.94C154.29,288.15,153.45,288.11,152.58,288.37z"/>
			<path class="st2" d="M380.72,387.27c-0.72-0.17-1.44-0.32-2.15-0.51c-72.2-19.16-144.39-38.33-216.59-57.5
				c-9.42-2.5-15.2-10.34-14.79-19.97c0.06-1.35,0.45-2.61,0.86-3.87c0.58,0.8,1.46,0.98,2.35,1.13
				c-2.33,8.23,2.53,17.58,12.21,20.14c72.83,19.28,145.64,38.63,218.46,57.96c-0.37,0.73-0.45,1.49-0.23,2.28
				C380.81,387.05,380.77,387.16,380.72,387.27z"/>
			<path class="st3" d="M380.85,386.93c-0.22-0.79-0.14-1.55,0.23-2.28c0.82-0.4,1.64-0.44,2.55-0.2c7.38,1.99,14.78,3.95,22.17,5.9
				c0.81,0.21,1.56,0.46,1.83,1.37c0.06,0.18,0.11,0.36,0.17,0.54c0,0.65-0.29,1.16-0.81,1.54c-0.22,0.08-0.45,0.16-0.67,0.23
				c-8.36-2.21-16.72-4.42-25.08-6.64C381.11,387.25,380.98,387.09,380.85,386.93z"/>
			<path class="st3" d="M150.4,306.56c-0.89-0.15-1.77-0.33-2.35-1.13c0-0.17,0-0.34,0.01-0.5c0-0.14-0.01-0.28-0.01-0.43
				c0.56-2.13,1.12-4.26,1.68-6.39c0,0,0.14-0.1,0.14-0.1l0.04-0.17c0.13-0.17,0.27-0.34,0.4-0.51c0.89-0.23,1.64,0.77,2.56,0.28
				C153.13,300.88,152.55,303.93,150.4,306.56z"/>
			<path class="st4" d="M152.87,297.59c-0.92,0.49-1.67-0.52-2.56-0.28c0.16-3.13,0.98-6.1,2.28-8.94c0.87-0.27,1.7-0.22,2.49,0.26
				C155.42,291.88,154.41,294.8,152.87,297.59z"/>
			<path class="st5" d="M148.05,304.49c0,0.14,0.01,0.29,0.01,0.43C148.06,304.78,148.05,304.63,148.05,304.49z"/>
			<path class="st5" d="M149.9,297.82l-0.04,0.17c0,0-0.14,0.1-0.14,0.1C149.69,297.95,149.75,297.85,149.9,297.82z"/>
			<path class="st6" d="M380.85,386.93c0.13,0.16,0.26,0.32,0.39,0.47c-0.17-0.04-0.34-0.09-0.51-0.13
				C380.77,387.16,380.81,387.05,380.85,386.93z"/>
			<path class="st6" d="M406.31,394.04c0.22-0.08,0.45-0.16,0.67-0.23c-0.02,0.14-0.04,0.29-0.06,0.43
				C406.72,394.17,406.51,394.11,406.31,394.04z"/>
			<path class="st7" d="M152.87,297.59c1.54-2.79,2.55-5.71,2.21-8.96c1.87-6.98,3.76-13.95,5.62-20.94
				c7.52-28.29,15.01-56.59,22.55-84.87c2.21-8.29,8.63-13.13,16.81-12.74c1.38,0.07,2.76,0.44,4.11,0.8
				c15.34,4.04,30.67,8.09,46.01,12.15c0.1,0.11,0.22,0.18,0.35,0.23c-0.63,1.74,0.55,2.2,1.84,2.54c7.31,1.97,14.63,3.93,21.94,5.9
				c1.4,0.38,2.48,0.1,2.94-1.44c69.39,18.42,138.78,36.84,208.16,55.27c7.9,2.1,12.76,8.01,12.86,15.65
				c0.03,1.92-0.27,3.82-0.76,5.68c-3.7,13.99-7.42,27.97-11.14,41.95c-0.21,0.78-0.29,1.61-0.96,2.19c-1.4-0.27-2.02,0.5-2.34,1.72
				c-2.57,9.7-5.14,19.4-7.72,29.1c-0.32,1.22-0.09,2.19,1.13,2.77c0.07,0.15,0.15,0.3,0.22,0.45c-4.09,15.47-7.86,31.04-12.4,46.38
				c-1.87,6.32-8.04,10.91-16.23,10.59c-1.47-0.06-2.92-0.33-4.36-0.71c-11.91-3.17-23.83-6.31-35.74-9.45
				c-0.11-0.04-0.22-0.08-0.34-0.12c-0.27-0.91-1.02-1.16-1.83-1.37c-7.39-1.95-14.79-3.91-22.17-5.9c-0.91-0.25-1.73-0.2-2.55,0.2
				c-72.82-19.33-145.63-38.68-218.46-57.96c-9.68-2.56-14.54-11.91-12.21-20.14C152.55,303.93,153.13,300.88,152.87,297.59z
				 M463.59,268.6c0.2,0.03,0.54,0.14,0.57,0.08c0.22-0.39-0.08-0.6-0.37-0.79c-1.16-1.31-2.59-2.12-4.29-2.57
				c-16.21-4.28-32.41-8.58-48.61-12.9c-2.03-0.54-3.94-0.32-5.84,0.44c-3.47,1.39-4.82,4.33-5.7,7.66
				c-7.45,28.11-14.92,56.21-22.37,84.32c-0.28,1.06-0.47,2.16-0.59,3.26c-0.48,4.42,2.14,8.38,6.49,9.54
				c16.26,4.36,32.54,8.66,48.82,12.97c1.87,0.5,3.7,0.46,5.93-0.65c-1.26-0.33-2.02-0.54-2.79-0.74
				c-16.06-4.26-32.09-8.65-48.19-12.72c-5.38-1.36-9.03-5.74-7.27-12.36c7.22-27.1,14.39-54.21,21.62-81.31
				c0.47-1.75,1.03-3.58,2.23-4.96c2.43-2.8,5.52-3.77,9.18-2.81C429.46,259.58,446.53,264.09,463.59,268.6z M261.72,313.17
				c26.26,6.97,52.53,13.92,78.78,20.96c1.97,0.53,2.58,0.13,3.09-1.8c6.67-25.41,13.42-50.8,20.22-76.18
				c0.48-1.81,0.3-2.47-1.66-2.99c-52.47-13.86-104.93-27.79-157.37-41.77c-1.9-0.51-2.46-0.15-2.95,1.72
				c-6.67,25.41-13.42,50.8-20.22,76.18c-0.5,1.88-0.28,2.59,1.74,3.12C209.49,299.27,235.6,306.23,261.72,313.17z M424.58,320.67
				c0.07-0.14,0.15-0.27,0.22-0.41c0.68,0.18,1.36,0.36,2.04,0.54c6.42,1.71,12.87,3.36,19.26,5.15c1.72,0.48,2.42,0.05,2.75-1.64
				c0.37-1.88,0.92-3.73,1.46-5.57c0.34-1.14,0.11-1.78-1.13-2.11c-11.21-2.95-22.42-5.92-33.62-8.93
				c-1.38-0.37-1.85,0.18-2.14,1.39c-0.55,2.3-1.09,4.6-1.84,6.84c-0.55,1.64-0.27,2.71,1.12,3.8c4.18,3.28,8.26,6.68,12.37,10.03
				c0.54,0.44,1.6,0.69,1.37,1.49c-0.21,0.74-1.26,0.57-1.95,0.68c-5.31,0.87-10.63,1.7-15.94,2.55c-1.03,0.16-2,0.3-2.31,1.63
				c-0.64,2.73-1.39,5.43-2.15,8.14c-0.3,1.06-0.04,1.65,1.08,1.95c11.28,2.97,22.56,5.97,33.84,8.98c1.1,0.29,1.66-0.03,1.92-1.12
				c0.45-1.86,0.9-3.74,1.49-5.56c0.5-1.52-0.05-2.09-1.49-2.46c-6.51-1.67-13-3.42-19.49-5.15c-0.65-0.17-1.31-0.35-1.96-0.52
				c4.73-1.06,9.39-1.7,14.04-2.41c1.04-0.16,2.22-0.03,2.84-1.31c1.93-4.01,1.56-5.72-1.97-8.3c-0.06-0.04-0.13-0.07-0.19-0.12
				C431,325.72,427.79,323.19,424.58,320.67z M420.01,284.35c-0.95,3.57-1.8,7.16-2.88,10.69c-0.56,1.82-0.23,2.61,1.73,3.09
				c5.46,1.31,10.88,2.76,16.27,4.32c1.97,0.57,2.62,0.21,2.58-1.89c-0.08-3.88,0.72-7.61,2.58-11.06c1.2-2.23,3.29-3.42,5.38-3.07
				c2.13,0.36,3.8,2.11,4.12,4.62c0.28,2.21,0.09,4.42-0.89,6.47c-1.17,2.47-2.49,4.82-4.45,6.79c-1.28,1.28-0.98,2.04,0.84,2.57
				c1.49,0.43,3.02,0.73,4.49,1.22c1.18,0.39,1.87,0.07,2.58-0.93c1.73-2.43,2.92-5.14,3.87-7.9c1.7-4.94,2.6-9.99,0.46-15.08
				c-2.05-4.86-6.01-7.19-10.98-7.76c-4.49-0.52-7.78,1.69-10.13,5.42c-1.59,2.52-2.6,5.27-3.28,8.15c-0.32,1.35-0.9,1.95-2.31,1.42
				c-0.48-0.18-0.99-0.33-1.5-0.39c-1.79-0.24-2.31-1.05-1.75-2.86c0.98-3.17,1.74-6.41,2.59-9.62c1.46-5.5,1.45-5.45-4.06-6.75
				c-1.44-0.34-1.99,0.07-2.32,1.43C422.02,276.94,421,280.64,420.01,284.35z"/>
			<path class="st4" d="M476.48,344.6c-1.22-0.58-1.46-1.55-1.13-2.77c2.58-9.7,5.16-19.4,7.72-29.1c0.32-1.22,0.94-1.99,2.34-1.72
				c1.33,0.41,1.35,1.45,1.08,2.5c-2.56,9.74-5.16,19.47-7.73,29.21c-0.27,1-0.83,1.7-1.86,1.97
				C476.76,344.61,476.62,344.58,476.48,344.6z"/>
			<path class="st4" d="M277.25,190.27c-0.46,1.54-1.54,1.81-2.94,1.44c-7.31-1.97-14.63-3.93-21.94-5.9
				c-1.29-0.35-2.47-0.8-1.84-2.54c0.03-0.14,0.06-0.29,0.09-0.43c0.69-0.86,1.56-0.62,2.43-0.39c7.39,1.96,14.77,3.93,22.17,5.87
				C276.28,188.6,277.14,189.02,277.25,190.27z"/>
			<path class="st8" d="M250.61,182.83c-0.03,0.14-0.06,0.29-0.09,0.43c-0.14-0.05-0.25-0.12-0.35-0.23
				C250.32,182.97,250.46,182.9,250.61,182.83z"/>
			<path class="st9" d="M407.63,391.74c0.11,0.04,0.23,0.07,0.34,0.12c-0.06,0.14-0.11,0.28-0.17,0.42
				C407.74,392.1,407.68,391.92,407.63,391.74z"/>
			<path class="st9" d="M476.48,344.6c0.15-0.02,0.28,0.01,0.41,0.09c-0.03,0.14-0.1,0.26-0.19,0.37
				C476.63,344.9,476.55,344.75,476.48,344.6z"/>
			<path class="st10" d="M261.72,313.17c-26.12-6.93-52.24-13.89-78.38-20.75c-2.03-0.53-2.25-1.24-1.74-3.12
				c6.8-25.38,13.54-50.77,20.22-76.18c0.49-1.87,1.05-2.23,2.95-1.72c52.44,13.98,104.9,27.91,157.37,41.77
				c1.97,0.52,2.15,1.18,1.66,2.99c-6.8,25.38-13.54,50.77-20.22,76.18c-0.51,1.94-1.12,2.33-3.09,1.8
				C314.25,327.09,287.98,320.14,261.72,313.17z"/>
			<path class="st11" d="M424.58,320.67c3.21,2.52,6.42,5.05,9.63,7.57c0.06,0.05,0.13,0.08,0.19,0.12c3.53,2.59,3.91,4.29,1.97,8.3
				c-0.62,1.28-1.81,1.15-2.84,1.31c-4.65,0.71-9.31,1.35-14.04,2.41c0.65,0.17,1.31,0.35,1.96,0.52c6.5,1.72,12.98,3.48,19.49,5.15
				c1.45,0.37,1.99,0.94,1.49,2.46c-0.6,1.82-1.04,3.69-1.49,5.56c-0.27,1.1-0.82,1.42-1.92,1.12c-11.27-3.01-22.55-6.01-33.84-8.98
				c-1.12-0.3-1.38-0.88-1.08-1.95c0.75-2.7,1.5-5.41,2.15-8.14c0.31-1.33,1.29-1.47,2.31-1.63c5.31-0.85,10.63-1.68,15.94-2.55
				c0.7-0.11,1.75,0.06,1.95-0.68c0.22-0.8-0.83-1.05-1.37-1.49c-4.12-3.36-8.2-6.76-12.37-10.03c-1.39-1.09-1.67-2.17-1.12-3.8
				c0.75-2.24,1.29-4.54,1.84-6.84c0.29-1.21,0.76-1.77,2.14-1.39c11.2,3.01,22.41,5.98,33.62,8.93c1.24,0.33,1.47,0.97,1.13,2.11
				c-0.54,1.84-1.09,3.69-1.46,5.57c-0.33,1.69-1.03,2.13-2.75,1.64c-6.4-1.8-12.84-3.45-19.26-5.15c-0.68-0.18-1.36-0.36-2.04-0.54
				C424.73,320.4,424.65,320.54,424.58,320.67z"/>
			<path class="st11" d="M420.01,284.35c0.99-3.71,2.01-7.41,2.93-11.13c0.34-1.35,0.88-1.77,2.32-1.43
				c5.51,1.3,5.52,1.26,4.06,6.75c-0.85,3.21-1.61,6.45-2.59,9.62c-0.56,1.81-0.04,2.63,1.75,2.86c0.51,0.07,1.02,0.21,1.5,0.39
				c1.41,0.53,1.99-0.07,2.31-1.42c0.68-2.87,1.7-5.63,3.28-8.15c2.35-3.73,5.64-5.94,10.13-5.42c4.98,0.58,8.94,2.9,10.98,7.76
				c2.14,5.09,1.25,10.14-0.46,15.08c-0.95,2.76-2.15,5.47-3.87,7.9c-0.71,1-1.4,1.33-2.58,0.93c-1.47-0.49-3-0.79-4.49-1.22
				c-1.82-0.53-2.12-1.29-0.84-2.57c1.96-1.97,3.28-4.33,4.45-6.79c0.98-2.06,1.17-4.27,0.89-6.47c-0.32-2.52-1.98-4.27-4.12-4.62
				c-2.09-0.35-4.18,0.83-5.38,3.07c-1.86,3.45-2.65,7.18-2.58,11.06c0.04,2.1-0.61,2.46-2.58,1.89
				c-5.39-1.56-10.82-3.01-16.27-4.32c-1.96-0.47-2.28-1.26-1.73-3.09C418.21,291.51,419.06,287.92,420.01,284.35z"/>
			<path class="st12" d="M463.59,268.6c-17.06-4.51-34.13-9.02-51.19-13.54c-3.66-0.97-6.75,0.01-9.18,2.81
				c-1.2,1.38-1.76,3.21-2.23,4.96c-7.23,27.1-14.41,54.21-21.62,81.31c-1.76,6.61,1.89,11,7.27,12.36
				c16.11,4.07,32.14,8.46,48.19,12.72c0.77,0.2,1.53,0.41,2.79,0.74c-2.23,1.11-4.06,1.15-5.93,0.65
				c-16.28-4.31-32.55-8.61-48.82-12.97c-4.35-1.17-6.97-5.12-6.49-9.54c0.12-1.09,0.31-2.19,0.59-3.26
				c7.45-28.11,14.91-56.21,22.37-84.32c0.88-3.32,2.23-6.27,5.7-7.66c1.9-0.76,3.82-0.98,5.84-0.44c16.2,4.32,32.4,8.62,48.61,12.9
				c1.7,0.45,3.13,1.26,4.29,2.57C463.72,268.12,463.66,268.36,463.59,268.6z"/>
			<path class="st5" d="M463.59,268.6c0.07-0.24,0.13-0.47,0.2-0.71c0.29,0.19,0.59,0.4,0.37,0.79
				C464.13,268.74,463.79,268.63,463.59,268.6z"/>
		</g>
		
			<rect x="189.36" y="230.45" transform="matrix(0.9665 0.2566 -0.2566 0.9665 79.2093 -60.8766)" class="st13" width="167.05" height="85.3"/>
		<circle cx="203.12" cy="210.44" r="1.6"/>
		<circle cx="342.68" cy="335.75" r="1.6"/>
		<g>
			<g>
				<path class="st2" d="M146.22,222.84c0.14-0.65,0.26-1.3,0.43-1.94c9.26-34.88,18.6-69.74,27.72-104.65
					c2.28-8.74,10.56-14.94,19.54-14.35c1.17,0.08,2.33,0.34,3.47,0.64c94.43,25.06,188.85,50.15,283.29,75.15
					c9.26,2.45,15.38,12.6,13.63,20.99c-0.45,2.16-0.85,4.33-1.41,6.47c-10.46,39.45-20.92,78.89-31.42,118.33
					c-1.78,6.67-5.35,11.93-12.13,14.46c-3.7,1.38-7.54,1.7-11.32,0.73c-12.51-3.22-24.98-6.62-37.47-9.95
					c0.02-0.14,0.04-0.29,0.06-0.43c0.53-0.38,0.81-0.88,0.81-1.54c0.06-0.14,0.11-0.28,0.17-0.42c11.92,3.15,23.84,6.28,35.74,9.45
					c1.44,0.38,2.89,0.65,4.36,0.71c8.19,0.32,14.36-4.28,16.23-10.59c4.54-15.34,8.32-30.9,12.4-46.38
					c0.09-0.11,0.15-0.23,0.19-0.37c1.03-0.27,1.59-0.97,1.86-1.97c2.58-9.74,5.17-19.47,7.73-29.21c0.28-1.05,0.25-2.08-1.08-2.5
					c0.67-0.57,0.76-1.41,0.96-2.19c3.72-13.98,7.43-27.96,11.14-41.95c0.49-1.86,0.79-3.76,0.76-5.68
					c-0.1-7.64-4.96-13.55-12.86-15.65c-69.39-18.43-138.77-36.85-208.16-55.27c-0.11-1.25-0.97-1.67-2.04-1.96
					c-7.39-1.94-14.78-3.91-22.17-5.87c-0.86-0.23-1.74-0.47-2.43,0.39c-0.15,0.07-0.29,0.13-0.44,0.2
					c-15.34-4.05-30.67-8.11-46.01-12.15c-1.35-0.35-2.73-0.73-4.11-0.8c-8.18-0.4-14.6,4.45-16.81,12.74
					c-7.54,28.28-15.03,56.58-22.55,84.87c-1.86,6.98-3.74,13.96-5.62,20.94C147.92,222.62,147.08,222.57,146.22,222.84z"/>
				<path class="st2" d="M374.36,321.74c-0.72-0.17-1.44-0.32-2.15-0.51c-72.2-19.16-144.39-38.33-216.59-57.5
					c-9.42-2.5-15.2-10.34-14.79-19.97c0.06-1.35,0.45-2.61,0.86-3.87c0.58,0.8,1.46,0.98,2.35,1.13
					c-2.33,8.23,2.53,17.58,12.21,20.14c72.83,19.28,145.64,38.63,218.46,57.96c-0.37,0.73-0.45,1.49-0.23,2.28
					C374.44,321.52,374.4,321.63,374.36,321.74z"/>
				<path class="st3" d="M374.48,321.4c-0.22-0.79-0.14-1.55,0.23-2.28c0.82-0.4,1.64-0.44,2.55-0.2c7.38,1.99,14.78,3.95,22.17,5.9
					c0.81,0.21,1.56,0.46,1.83,1.37c0.06,0.18,0.11,0.36,0.17,0.54c0,0.65-0.29,1.16-0.81,1.54c-0.22,0.08-0.45,0.16-0.67,0.23
					c-8.36-2.21-16.72-4.42-25.08-6.64C374.74,321.72,374.61,321.56,374.48,321.4z"/>
				<path class="st3" d="M144.04,241.02c-0.89-0.15-1.77-0.33-2.35-1.13c0-0.17,0-0.34,0.01-0.5c0-0.14-0.01-0.28-0.01-0.43
					c0.56-2.13,1.12-4.26,1.68-6.39c0,0,0.14-0.1,0.14-0.1l0.04-0.17c0.13-0.17,0.27-0.34,0.4-0.51c0.89-0.23,1.64,0.77,2.56,0.28
					C146.76,235.34,146.18,238.4,144.04,241.02z"/>
				<path class="st4" d="M146.5,232.06c-0.92,0.49-1.67-0.52-2.56-0.28c0.16-3.13,0.98-6.1,2.28-8.94c0.87-0.27,1.7-0.22,2.49,0.26
					C149.05,226.35,148.04,229.27,146.5,232.06z"/>
				<path class="st5" d="M141.68,238.96c0,0.14,0.01,0.29,0.01,0.43C141.69,239.24,141.69,239.1,141.68,238.96z"/>
				<path class="st5" d="M143.54,232.29l-0.04,0.17c0,0-0.14,0.1-0.14,0.1C143.32,232.41,143.38,232.32,143.54,232.29z"/>
				<path class="st6" d="M374.48,321.4c0.13,0.16,0.26,0.32,0.39,0.47c-0.17-0.04-0.34-0.09-0.51-0.13
					C374.4,321.63,374.44,321.52,374.48,321.4z"/>
				<path class="st6" d="M399.94,328.51c0.22-0.08,0.45-0.16,0.67-0.23c-0.02,0.14-0.04,0.29-0.06,0.43
					C400.35,328.64,400.15,328.58,399.94,328.51z"/>
				<path class="st7" d="M146.5,232.06c1.54-2.79,2.55-5.71,2.21-8.96c1.87-6.98,3.76-13.95,5.62-20.94
					c7.52-28.29,15.01-56.59,22.55-84.87c2.21-8.29,8.63-13.13,16.81-12.74c1.38,0.07,2.76,0.44,4.11,0.8
					c15.34,4.04,30.67,8.09,46.01,12.15c0.1,0.11,0.22,0.18,0.35,0.23c-0.63,1.74,0.55,2.2,1.84,2.54
					c7.31,1.97,14.63,3.93,21.94,5.9c1.4,0.38,2.48,0.1,2.94-1.44c69.39,18.42,138.78,36.84,208.16,55.27
					c7.9,2.1,12.76,8.01,12.86,15.65c0.03,1.92-0.27,3.82-0.76,5.68c-3.7,13.99-7.42,27.97-11.14,41.95
					c-0.21,0.78-0.29,1.61-0.96,2.19c-1.4-0.27-2.02,0.5-2.34,1.72c-2.57,9.7-5.14,19.4-7.72,29.1c-0.32,1.22-0.09,2.19,1.13,2.77
					c0.07,0.15,0.15,0.3,0.22,0.45c-4.09,15.47-7.86,31.04-12.4,46.38c-1.87,6.32-8.04,10.91-16.23,10.59
					c-1.47-0.06-2.92-0.33-4.36-0.71c-11.91-3.17-23.83-6.31-35.74-9.45c-0.11-0.04-0.22-0.08-0.34-0.12
					c-0.27-0.91-1.02-1.16-1.83-1.37c-7.39-1.95-14.79-3.91-22.17-5.9c-0.91-0.25-1.73-0.2-2.55,0.2
					c-72.82-19.33-145.63-38.68-218.46-57.96c-9.68-2.56-14.54-11.91-12.21-20.14C146.18,238.4,146.76,235.34,146.5,232.06z
					 M457.22,203.06c0.2,0.03,0.54,0.14,0.57,0.08c0.22-0.39-0.08-0.6-0.37-0.79c-1.16-1.31-2.59-2.12-4.29-2.57
					c-16.21-4.28-32.41-8.58-48.61-12.9c-2.03-0.54-3.94-0.32-5.84,0.44c-3.47,1.39-4.82,4.33-5.7,7.66
					c-7.45,28.11-14.92,56.21-22.37,84.32c-0.28,1.06-0.47,2.16-0.59,3.26c-0.48,4.42,2.14,8.38,6.49,9.54
					c16.26,4.36,32.54,8.66,48.82,12.97c1.87,0.5,3.7,0.46,5.93-0.65c-1.26-0.33-2.02-0.54-2.79-0.74
					c-16.06-4.26-32.09-8.65-48.19-12.72c-5.38-1.36-9.03-5.74-7.27-12.36c7.22-27.1,14.39-54.21,21.62-81.31
					c0.47-1.75,1.03-3.58,2.23-4.96c2.43-2.8,5.52-3.77,9.18-2.81C423.09,194.05,440.16,198.55,457.22,203.06z M255.35,247.63
					c26.26,6.97,52.53,13.92,78.78,20.96c1.97,0.53,2.58,0.13,3.09-1.8c6.67-25.41,13.42-50.8,20.22-76.18
					c0.48-1.81,0.3-2.47-1.66-2.99c-52.47-13.86-104.93-27.79-157.37-41.77c-1.9-0.51-2.46-0.15-2.95,1.72
					c-6.67,25.41-13.42,50.8-20.22,76.18c-0.5,1.88-0.28,2.59,1.74,3.12C203.12,233.74,229.23,240.7,255.35,247.63z M418.21,255.14
					c0.07-0.14,0.15-0.27,0.22-0.41c0.68,0.18,1.36,0.36,2.04,0.54c6.42,1.71,12.87,3.36,19.26,5.15c1.72,0.48,2.42,0.05,2.75-1.64
					c0.37-1.88,0.92-3.73,1.46-5.57c0.34-1.14,0.11-1.78-1.13-2.11c-11.21-2.95-22.42-5.92-33.62-8.93
					c-1.38-0.37-1.85,0.18-2.14,1.39c-0.55,2.3-1.09,4.6-1.84,6.84c-0.55,1.64-0.27,2.71,1.12,3.8c4.18,3.28,8.26,6.68,12.37,10.03
					c0.54,0.44,1.6,0.69,1.37,1.49c-0.21,0.74-1.26,0.57-1.95,0.68c-5.31,0.87-10.63,1.7-15.94,2.55c-1.03,0.16-2,0.3-2.31,1.63
					c-0.64,2.73-1.39,5.43-2.15,8.14c-0.3,1.06-0.04,1.65,1.08,1.95c11.28,2.97,22.56,5.97,33.84,8.98c1.1,0.29,1.66-0.03,1.92-1.12
					c0.45-1.86,0.9-3.74,1.49-5.56c0.5-1.52-0.05-2.09-1.49-2.46c-6.51-1.67-13-3.42-19.49-5.15c-0.65-0.17-1.31-0.35-1.96-0.52
					c4.73-1.06,9.39-1.7,14.04-2.41c1.04-0.16,2.22-0.03,2.84-1.31c1.93-4.01,1.56-5.71-1.97-8.3c-0.06-0.04-0.13-0.07-0.19-0.12
					C424.63,260.19,421.42,257.66,418.21,255.14z M413.64,218.82c-0.95,3.57-1.8,7.16-2.88,10.69c-0.56,1.82-0.23,2.61,1.73,3.09
					c5.46,1.31,10.88,2.76,16.27,4.32c1.97,0.57,2.62,0.21,2.58-1.89c-0.08-3.88,0.72-7.61,2.58-11.06c1.2-2.23,3.29-3.42,5.38-3.07
					c2.13,0.36,3.8,2.11,4.12,4.62c0.28,2.21,0.09,4.42-0.89,6.47c-1.17,2.47-2.49,4.82-4.45,6.79c-1.28,1.28-0.98,2.04,0.84,2.57
					c1.49,0.43,3.02,0.73,4.49,1.22c1.18,0.39,1.87,0.07,2.58-0.93c1.73-2.43,2.92-5.14,3.87-7.9c1.7-4.94,2.6-9.99,0.46-15.08
					c-2.05-4.86-6.01-7.19-10.98-7.76c-4.49-0.52-7.78,1.69-10.13,5.42c-1.59,2.52-2.6,5.27-3.28,8.15
					c-0.32,1.35-0.9,1.95-2.31,1.42c-0.48-0.18-0.99-0.33-1.5-0.39c-1.79-0.24-2.31-1.05-1.75-2.86c0.98-3.17,1.74-6.41,2.59-9.62
					c1.46-5.5,1.45-5.45-4.06-6.75c-1.44-0.34-1.99,0.07-2.32,1.43C415.65,211.41,414.63,215.11,413.64,218.82z"/>
				<path class="st4" d="M470.11,279.06c-1.22-0.58-1.46-1.55-1.13-2.77c2.58-9.7,5.16-19.4,7.72-29.1
					c0.32-1.22,0.94-1.99,2.34-1.72c1.33,0.41,1.35,1.45,1.08,2.5c-2.56,9.74-5.16,19.47-7.73,29.21c-0.27,1-0.83,1.7-1.86,1.97
					C470.39,279.08,470.26,279.05,470.11,279.06z"/>
				<path class="st4" d="M270.88,124.74c-0.46,1.54-1.54,1.81-2.94,1.44c-7.31-1.97-14.63-3.93-21.94-5.9
					c-1.29-0.35-2.47-0.8-1.84-2.54c0.03-0.14,0.06-0.29,0.09-0.43c0.69-0.86,1.56-0.62,2.43-0.39c7.39,1.96,14.77,3.93,22.17,5.87
					C269.91,123.07,270.77,123.48,270.88,124.74z"/>
				<path class="st8" d="M244.24,117.3c-0.03,0.14-0.06,0.29-0.09,0.43c-0.14-0.05-0.25-0.12-0.35-0.23
					C243.95,117.43,244.09,117.37,244.24,117.3z"/>
				<path class="st9" d="M401.26,326.2c0.11,0.04,0.23,0.07,0.34,0.12c-0.06,0.14-0.11,0.28-0.17,0.42
					C401.37,326.56,401.32,326.38,401.26,326.2z"/>
				<path class="st9" d="M470.11,279.06c0.15-0.02,0.28,0.01,0.41,0.09c-0.03,0.14-0.1,0.26-0.19,0.37
					C470.26,279.36,470.18,279.21,470.11,279.06z"/>
				<path class="st10" d="M255.35,247.63c-26.12-6.93-52.24-13.89-78.38-20.75c-2.03-0.53-2.25-1.24-1.74-3.12
					c6.8-25.38,13.54-50.77,20.22-76.18c0.49-1.87,1.05-2.23,2.95-1.72c52.44,13.98,104.9,27.91,157.37,41.77
					c1.97,0.52,2.15,1.18,1.66,2.99c-6.8,25.38-13.54,50.77-20.22,76.18c-0.51,1.94-1.12,2.33-3.09,1.8
					C307.89,261.56,281.62,254.61,255.35,247.63z"/>
				<path class="st11" d="M418.21,255.14c3.21,2.52,6.42,5.05,9.63,7.57c0.06,0.05,0.13,0.08,0.19,0.12
					c3.53,2.59,3.91,4.29,1.97,8.3c-0.62,1.28-1.81,1.15-2.84,1.31c-4.65,0.71-9.31,1.35-14.04,2.41c0.65,0.17,1.31,0.35,1.96,0.52
					c6.5,1.72,12.98,3.48,19.49,5.15c1.45,0.37,1.99,0.94,1.49,2.46c-0.6,1.82-1.04,3.69-1.49,5.56c-0.27,1.1-0.82,1.42-1.92,1.12
					c-11.27-3.01-22.55-6.01-33.84-8.98c-1.12-0.3-1.38-0.88-1.08-1.95c0.75-2.7,1.5-5.41,2.15-8.14c0.31-1.33,1.29-1.47,2.31-1.63
					c5.31-0.85,10.63-1.68,15.94-2.55c0.7-0.11,1.75,0.06,1.95-0.68c0.22-0.8-0.83-1.05-1.37-1.49c-4.12-3.36-8.2-6.76-12.37-10.03
					c-1.39-1.09-1.67-2.17-1.12-3.8c0.75-2.24,1.29-4.54,1.84-6.84c0.29-1.21,0.76-1.77,2.14-1.39c11.2,3.01,22.41,5.98,33.62,8.93
					c1.24,0.33,1.47,0.97,1.13,2.11c-0.54,1.84-1.09,3.69-1.46,5.57c-0.33,1.69-1.03,2.13-2.75,1.64c-6.4-1.8-12.84-3.45-19.26-5.15
					c-0.68-0.18-1.36-0.36-2.04-0.54C418.36,254.87,418.28,255,418.21,255.14z"/>
				<path class="st11" d="M413.64,218.82c0.99-3.71,2.01-7.41,2.93-11.13c0.34-1.35,0.88-1.77,2.32-1.43
					c5.51,1.3,5.52,1.26,4.06,6.75c-0.85,3.21-1.61,6.45-2.59,9.62c-0.56,1.81-0.04,2.63,1.75,2.86c0.51,0.07,1.02,0.21,1.5,0.39
					c1.41,0.53,1.99-0.07,2.31-1.42c0.68-2.87,1.7-5.63,3.28-8.15c2.35-3.73,5.64-5.94,10.13-5.42c4.98,0.58,8.94,2.9,10.98,7.76
					c2.14,5.09,1.25,10.14-0.46,15.08c-0.95,2.76-2.15,5.47-3.87,7.9c-0.71,1-1.4,1.33-2.58,0.93c-1.47-0.49-3-0.79-4.49-1.22
					c-1.82-0.53-2.12-1.29-0.84-2.57c1.96-1.97,3.28-4.33,4.45-6.79c0.98-2.06,1.17-4.27,0.89-6.47c-0.32-2.52-1.98-4.27-4.12-4.62
					c-2.09-0.35-4.18,0.83-5.38,3.07c-1.86,3.45-2.65,7.18-2.58,11.06c0.04,2.1-0.61,2.46-2.58,1.89
					c-5.39-1.56-10.82-3.01-16.27-4.32c-1.96-0.47-2.28-1.26-1.73-3.09C411.84,225.98,412.7,222.38,413.64,218.82z"/>
				<path class="st12" d="M457.22,203.06c-17.06-4.51-34.13-9.02-51.19-13.54c-3.66-0.97-6.75,0.01-9.18,2.81
					c-1.2,1.38-1.76,3.21-2.23,4.96c-7.23,27.1-14.41,54.21-21.62,81.31c-1.76,6.61,1.89,11,7.27,12.36
					c16.11,4.07,32.14,8.46,48.19,12.72c0.77,0.2,1.53,0.41,2.79,0.74c-2.23,1.11-4.06,1.15-5.93,0.65
					c-16.28-4.31-32.55-8.61-48.82-12.97c-4.35-1.17-6.97-5.12-6.49-9.54c0.12-1.09,0.31-2.19,0.59-3.26
					c7.45-28.11,14.91-56.21,22.37-84.32c0.88-3.32,2.23-6.27,5.7-7.66c1.9-0.76,3.82-0.98,5.84-0.44
					c16.2,4.32,32.4,8.62,48.61,12.9c1.7,0.45,3.13,1.26,4.29,2.57C457.35,202.59,457.29,202.83,457.22,203.06z"/>
				<path class="st5" d="M457.22,203.06c0.07-0.24,0.13-0.47,0.2-0.71c0.29,0.19,0.59,0.4,0.37,0.79
					C457.76,203.21,457.42,203.1,457.22,203.06z"/>
			</g>
			
				<rect x="183" y="164.92" transform="matrix(0.9665 0.2566 -0.2566 0.9665 62.1813 -61.4365)" class="st13" width="167.05" height="85.3"/>
			<circle cx="196.75" cy="144.9" r="1.6"/>
			<circle cx="336.31" cy="270.22" r="1.6"/>
		</g>
	</g>
	<path class="st14" d="M148.77,318.23l-6.81-72.81c0,0,2.16,16.86,13.65,18.31c6.44,0.81,282.4,74.92,282.4,74.92
		s15.57,2.67,19.91-12.76c4.33-15.43,33.98-135.93,33.98-135.93l6.37,62.15c0,0,1.1,8.13,0.34,13.8
		c-0.76,5.68-32.72,128.32-32.72,128.32s-1.65,10.53-15.42,10.51c-6.1-0.01-283.11-72.76-292.4-76.93
		C148.77,323.64,148.77,318.23,148.77,318.23z"/>
	<path class="st1" d="M452.35,336.5"/>
</g>
<g id="Layer_2">
</g>
<g id="Layer_4" class="st15">
	<g>
		<path class="st16" d="M300.33,103.73c0,0-12.97-3.55-14.49,2.28c-2.99,11.48,37.55,21.23,40.34,10.51c0,0,1.52-5.83-11.23-9.15"/>
		<g>
			<line class="st16" x1="313.6" y1="106.74" x2="317.97" y2="111.46"/>
			<line class="st16" x1="313.6" y1="106.74" x2="319.91" y2="105.38"/>
		</g>
	</g>
	<g>
		<path class="st17" d="M277.25,60.38c0,0-13.45-0.17-13.45,5.86c0,11.86,41.69,11.07,41.69,0c0,0,0-6.03-13.18-6.02"/>
		<g>
			<line class="st18" x1="290.85" y1="59.95" x2="296.26" y2="63.41"/>
			<line class="st18" x1="290.85" y1="59.95" x2="296.6" y2="57.03"/>
		</g>
	</g>
	<g>
		<path class="st19" d="M138.82,175.62c0,0-4.19,12.78,1.56,14.59c11.32,3.55,23.05-36.46,12.49-39.78c0,0-5.75-1.81-9.69,10.77"/>
		<g>
			<line class="st19" x1="142.48" y1="162.5" x2="147.41" y2="158.38"/>
			<line class="st19" x1="142.48" y1="162.5" x2="141.42" y2="156.14"/>
		</g>
	</g>
</g>
<g id="Layer_3">
	<path class="st14" d="M284.77,62.98"/>
	<g>
		<polyline class="st20" points="129.05,167.39 284.56,211.2 525.44,279.06 		"/>
		<g>
			<line class="st21" x1="528.15" y1="279.76" x2="523.57" y2="275.25"/>
			<line class="st21" x1="528.15" y1="279.76" x2="521.92" y2="281.42"/>
		</g>
		<g>
			<line class="st21" x1="127.24" y1="166.52" x2="131.45" y2="171.37"/>
			<line class="st21" x1="127.24" y1="166.52" x2="133.58" y2="165.35"/>
		</g>
	</g>
	<g>
		<line class="st22" x1="309.42" y1="90.42" x2="250.27" y2="380.18"/>
		<g>
			<line class="st23" x1="309.56" y1="88.83" x2="305.41" y2="93.74"/>
			<line class="st23" x1="309.56" y1="88.83" x2="311.69" y2="94.92"/>
		</g>
		<g>
			<line class="st23" x1="249.78" y1="383.28" x2="254.21" y2="378.62"/>
			<line class="st23" x1="249.78" y1="383.28" x2="248.01" y2="377.08"/>
		</g>
	</g>
	<g>
		<line class="st24" x1="284.77" y1="406.15" x2="284.77" y2="46.98"/>
		<g>
			<line class="st17" x1="284.84" y1="44.18" x2="281.64" y2="49.75"/>
			<line class="st17" x1="284.84" y1="44.18" x2="288.03" y2="49.79"/>
		</g>
		<g>
			<line class="st17" x1="284.94" y1="408.2" x2="288.29" y2="402.71"/>
			<line class="st17" x1="284.94" y1="408.2" x2="281.9" y2="402.51"/>
		</g>
	</g>
	<g>
		<g>
			<g>
				<path d="M126.1,157.91l-2.72-3.75h1.46l1.23,1.7c0.27,0.43,0.59,0.9,0.91,1.31h0.06c0.29-0.42,0.61-0.9,0.88-1.33l1.15-1.68
					h1.41l-2.75,3.86l2.98,3.92h-1.47l-1.34-1.79c-0.34-0.43-0.69-0.96-1.02-1.41h-0.06c-0.32,0.46-0.64,0.93-0.96,1.42l-1.28,1.78
					h-1.41L126.1,157.91z"/>
			</g>
		</g>
	</g>
	<g>
		<g>
			<g>
				<path d="M292.25,414.97l5.31-6h-4.72v-1.07h6.63v0.7l-5.31,5.99h5.46v1.09h-7.36V414.97z"/>
			</g>
		</g>
	</g>
	<g>
		<g>
			<path d="M255.28,393.2l0.27-1.06c0.21,0.06,0.46,0.11,0.7,0.11c1.09,0,1.75-0.69,2.13-1.65l0.22-0.58l-3.62-7.8h1.34l1.89,4.29
				c0.3,0.69,0.64,1.5,0.96,2.26h0.06c0.27-0.74,0.58-1.55,0.83-2.26l1.68-4.29h1.28l-3.44,8.42c-0.58,1.54-1.52,2.71-3.3,2.71
				C255.94,393.36,255.55,393.29,255.28,393.2z"/>
		</g>
	</g>
	<g>
		<g>
			<path d="M459.44,334.81h1.09l0.11,0.99h0.05c0.72-0.69,1.75-1.18,2.69-1.18c2.1,0,3.22,1.55,3.22,3.97
				c0,2.64-1.66,4.19-3.54,4.19c-0.72,0-1.62-0.37-2.32-1.01h-0.03l0.06,1.47v2.62h-1.33V334.81z M465.23,338.59
				c0-1.71-0.64-2.85-2.19-2.85c-0.69,0-1.49,0.35-2.27,1.15v3.87c0.72,0.66,1.54,0.9,2.06,0.9
				C464.21,341.66,465.23,340.51,465.23,338.59z"/>
			<path d="M472.59,335.88h-3.6v-1.07h4.93v7.78h-1.33V335.88z M472.06,332.15c0-0.61,0.45-1.02,1.06-1.02s1.06,0.42,1.06,1.02
				c0,0.62-0.45,1.02-1.06,1.02S472.06,332.78,472.06,332.15z"/>
			<path d="M480.45,339.56v-3.68h-2.21v-0.99l2.26-0.08l0.18-2.5h1.1v2.5h3.81v1.07h-3.81v3.7c0,1.39,0.46,2.11,1.97,2.11
				c0.72,0,1.3-0.14,1.86-0.35l0.29,0.98c-0.71,0.26-1.46,0.46-2.43,0.46C481.18,342.78,480.45,341.48,480.45,339.56z"/>
			<path d="M488.03,338.71c0-2.61,1.99-4.1,4.34-4.1c1.26,0,2.19,0.51,2.83,1.14l-0.66,0.85c-0.64-0.54-1.31-0.88-2.13-0.88
				c-1.79,0-3.03,1.2-3.03,2.99c0,1.78,1.22,2.96,2.99,2.96c0.96,0,1.76-0.43,2.4-0.98l0.59,0.86c-0.86,0.77-1.94,1.22-3.09,1.22
				C489.86,342.78,488.03,341.29,488.03,338.71z"/>
			<path d="M497.84,331.19h1.33v3.11l-0.08,1.84h0.05c0.78-0.86,1.7-1.52,2.9-1.52c1.84,0,2.69,1.09,2.69,3.14v4.83h-1.33v-4.66
				c0-1.47-0.51-2.16-1.78-2.16c-0.93,0-1.55,0.46-2.45,1.39v5.43h-1.33V331.19z"/>
		</g>
	</g>
	<g>
		<g>
			<path d="M226.46,139.15h1.1l0.13,1.84h0.03c0.82-1.26,2.03-2.03,3.47-2.03c0.58,0,1.06,0.08,1.54,0.32l-0.3,1.14
				c-0.54-0.18-0.83-0.26-1.44-0.26c-1.17,0-2.27,0.59-3.2,2.22v4.55h-1.33V139.15z"/>
			<path d="M234.7,143.06c0-2.61,1.79-4.1,3.84-4.1s3.84,1.49,3.84,4.1c0,2.58-1.79,4.07-3.84,4.07S234.7,145.64,234.7,143.06z
				 M241.02,143.06c0-1.79-0.99-2.99-2.48-2.99c-1.49,0-2.48,1.2-2.48,2.99c0,1.78,0.99,2.96,2.48,2.96
				C240.03,146.02,241.02,144.84,241.02,143.06z"/>
			<path d="M247.28,144.32v-7.72h-2.75v-1.07h4.08v8.88c0,1.12,0.61,1.6,1.54,1.6c0.45,0,0.93-0.11,1.46-0.35l0.34,0.99
				c-0.72,0.3-1.23,0.46-2.08,0.46C248.19,147.12,247.28,146.16,247.28,144.32z"/>
			<path d="M256.88,144.32v-7.72h-2.75v-1.07h4.08v8.88c0,1.12,0.61,1.6,1.54,1.6c0.45,0,0.93-0.11,1.46-0.35l0.34,0.99
				c-0.72,0.3-1.23,0.46-2.08,0.46C257.79,147.12,256.88,146.16,256.88,144.32z"/>
		</g>
	</g>
	<g>
		<g>
			<path d="M356.5,177.75l0.27-1.06c0.21,0.06,0.46,0.11,0.7,0.11c1.09,0,1.74-0.69,2.13-1.65l0.22-0.58l-3.62-7.8h1.34l1.89,4.29
				c0.3,0.69,0.64,1.5,0.96,2.26h0.06c0.27-0.74,0.58-1.55,0.83-2.26l1.68-4.29h1.28l-3.44,8.42c-0.58,1.54-1.52,2.71-3.3,2.71
				C357.15,177.91,356.77,177.84,356.5,177.75z"/>
			<path d="M366.3,172.55c0-1.75,1.63-2.59,5.65-2.91c-0.05-1.06-0.56-1.95-2.06-1.95c-1.01,0-2,0.48-2.72,0.93l-0.53-0.9
				c0.8-0.51,2.11-1.12,3.47-1.12c2.13,0,3.17,1.26,3.17,3.2v4.77h-1.1l-0.11-1.06h-0.05c-0.85,0.67-1.97,1.25-3.06,1.25
				C367.5,174.75,366.3,173.94,366.3,172.55z M371.95,172.53v-2.02c-3.33,0.26-4.34,0.91-4.34,1.94c0,0.88,0.8,1.23,1.7,1.23
				C370.19,173.68,371.06,173.27,371.95,172.53z"/>
			<path d="M374.75,166.78h1.31l0.93,4.51c0.14,0.74,0.26,1.41,0.35,2.14h0.06c0.1-0.74,0.27-1.42,0.45-2.14l0.96-4.03h1.31
				l0.93,4.03c0.18,0.74,0.38,1.41,0.48,2.14h0.06c0.13-0.74,0.21-1.41,0.35-2.14l0.93-4.51h1.22l-1.66,7.78h-1.7l-0.9-3.71
				c-0.13-0.54-0.26-1.31-0.38-2.31h-0.06c-0.13,0.99-0.26,1.76-0.38,2.31l-0.86,3.71h-1.7L374.75,166.78z"/>
		</g>
	</g>
</g>
<g id="Layer_5">
	<g>
		<path class="st25" d="M305.63,109.44c0,0,0.12-49.72-20.86-46.46c-20.98,3.26-31.91,242.2-31.78,303.86"/>
		<g>
			<line class="st26" x1="253.2" y1="368.85" x2="256.18" y2="363.16"/>
			<line class="st26" x1="253.2" y1="368.85" x2="249.8" y2="363.37"/>
		</g>
		<g>
			<line class="st26" x1="305.63" y1="110.44" x2="308.61" y2="104.75"/>
			<line class="st26" x1="305.63" y1="110.44" x2="302.23" y2="104.97"/>
		</g>
	</g>
</g>
<g id="Layer_6">
	<g>
		<path class="st27" d="M286.61,80.57c89.72,23.97,121,325.46,0,294.74"/>
		<g>
			<line class="st28" x1="285.16" y1="79.72" x2="289.1" y2="84.79"/>
			<line class="st28" x1="285.16" y1="79.72" x2="291.56" y2="78.89"/>
		</g>
		<g>
			<line class="st28" x1="284.65" y1="374.21" x2="288.71" y2="379.18"/>
			<line class="st28" x1="284.65" y1="374.21" x2="291.02" y2="373.23"/>
		</g>
	</g>
</g>
<g id="Layer_7">
	<g>
		<path class="st29" d="M144.94,171.87C157,346.35,457.95,438.05,499.26,270.68"/>
		<g>
			<line class="st30" x1="144.48" y1="170.62" x2="142.42" y2="176.71"/>
			<line class="st30" x1="144.48" y1="170.62" x2="148.69" y2="175.51"/>
		</g>
		<g>
			<line class="st30" x1="499.75" y1="270.29" x2="495.01" y2="274.63"/>
			<line class="st30" x1="499.75" y1="270.29" x2="501.09" y2="276.6"/>
		</g>
	</g>
</g>
</svg>
