<?xml version="1.0" encoding="utf-8"?>
<!-- Generator: Adobe Illustrator 23.1.1, SVG Export Plug-In . SVG Version: 6.00 Build 0)  -->
<svg version="1.1" xmlns="http://www.w3.org/2000/svg" xmlns:xlink="http://www.w3.org/1999/xlink" x="0px" y="0px"
	 viewBox="0 0 329.3 371.5" style="enable-background:new 0 0 329.3 371.5;" xml:space="preserve">
<style type="text/css">
	.st0{opacity:0.34;}
	.st1{fill:#FEC23B;}
	.st2{fill:#DE9438;}
	.st3{fill:#AC6F20;}
	.st4{fill:#EFEEEE;}
	.st5{fill:#DDDAD8;}
	.st6{fill:#F3F2F2;}
	.st7{fill:#EBEAEA;}
	.st8{fill:#3D3A39;}
	.st9{fill:#742E04;}
	.st10{fill:#9D9997;}
	.st11{fill:#B9B5B3;}
	.st12{opacity:0.19;}
	.st13{fill:#FFFFFF;}
	.st14{opacity:0.66;}
	.st15{fill:none;stroke:#53B848;stroke-width:3;stroke-linecap:round;stroke-linejoin:round;stroke-miterlimit:10;}
	.st16{fill:none;stroke:#305BAA;stroke-width:2;stroke-linecap:round;stroke-linejoin:round;stroke-miterlimit:10;}
	.st17{fill:none;stroke:#2D5CA9;stroke-width:2;stroke-linecap:round;stroke-linejoin:round;stroke-miterlimit:10;}
	.st18{fill:none;stroke:#8C191B;stroke-width:3;stroke-linecap:round;stroke-linejoin:round;stroke-miterlimit:10;}
	.st19{fill:#DC8844;stroke:#565555;stroke-width:3;stroke-linecap:round;stroke-linejoin:round;stroke-miterlimit:10;}
	.st20{fill:#DC8844;stroke:#8C191B;stroke-width:3;stroke-linecap:round;stroke-linejoin:round;stroke-miterlimit:10;}
	.st21{fill:none;stroke:#8C191B;stroke-width:2;stroke-linecap:round;stroke-linejoin:round;stroke-miterlimit:10;}
	.st22{fill:none;stroke:#305BAA;stroke-width:3;stroke-linecap:round;stroke-linejoin:round;stroke-miterlimit:10;}
	.st23{fill:none;stroke:#52B848;stroke-width:2;stroke-linecap:round;stroke-linejoin:round;stroke-miterlimit:10;}
	.st24{fill:none;}
	.st25{font-family:'ArialMT';}
	.st26{font-size:12px;}
</style>
<g id="Layer_2" class="st0">
	<g>
		<path class="st1" d="M11.6,199.7c1.4-3.2,3.7-5.6,6-8.1c0.3-0.2,0.6-0.5,0.9-0.8c1.7-0.9,3-2.3,4.4-3.6
			c11.3-9,22.5-18.1,33.8-27.1c6.6-5.3,12.8-11.1,19.7-16.1c0.6-0.4,1-1.1,1.5-1.6c4.4-2.9,8.4-6.2,12.5-9.5
			c1.4-1.1,2.8-2.4,4.1-3.5c8.2-6.5,16.4-13.1,24.5-19.6c17-13.7,34-27.5,51-41.2c2.2-1.8,4.5-3.4,6.6-5.4
			c5.9-5.5,12.8-6.5,20.2-4.5c35.6,9.4,71.2,18.9,106.7,28.4c3.4,0.9,6.7,2,9.3,4.5c2.4,2.4,3.9,5.1,2.9,8.7c-2,1-3.2,3-4.3,4.7
			c-4.4,6.5-9.7,12.3-14.1,18.8c-2.3,3.4-5.5,6.2-7.9,9.4c-3.9,5.1-8.2,10-11.8,15.4c-2.5,3.9-5.5,7.4-8,11.3
			c-4.7,7.6-10.3,14.8-16.1,21.7c-5.8,6.8-10.8,14.1-16.4,21.1c-2.9,3.7-5.6,7.5-8.5,11.2c-2.2,2.9-4.6,5.6-6.6,8.5
			c-4.1,6.1-8.8,11.7-13.4,17.5c-3.3,4.2-6.6,8.4-10.1,12.4c-2.2,2.6-3.9,5.5-6.2,8c-1.7,1.9-3.4,3.8-4.6,6.1
			c-0.3,0.6-0.8,1-1.5,1.2c-6,1.9-12.1,2.9-18.3,2.5c-4.2-0.3-8.4-1.1-12-3.2c-2.5-1.5-5.1-2.8-7.8-3.6c-5-1.6-9.5-4.3-14.2-6.4
			c-4.6-2.1-9.2-4.3-13.8-6.3c-5.2-2.3-10.5-4.4-15.7-6.4c-3.5-1.4-6.8-3.4-10.3-4.8c-5.3-2.1-10.4-4.5-15.6-6.9
			c-3.2-1.5-6.5-2.7-9.7-4.3c-1.8-0.9-3.9-1.6-5.9-2.6c-2-0.9-3.7-2.4-5.8-2.8c-3.5-0.8-6.6-2.6-9.7-4.1c-6.8-3.3-13.9-6-20.9-9.1
			c-5-2.2-10.4-4-12.9-9.6C13.4,198.9,12.5,199.2,11.6,199.7z M113.4,164.9c0.1,0,0.2,0.1,0.2,0.1
			C113.6,164.9,113.5,164.9,113.4,164.9c-0.6-2.6-4.6-3.9-6.7-2c-8.2,7.3-16.4,14.7-24.6,22.1c-1.5,1.3-3,2.6-4.4,4
			c-0.3,0.3-0.9,0.7-0.4,1.2c0.4,0.4,0.9,0.1,1.3-0.2c1.1-1,2.1-2.1,3.2-3.1c7.3-6.5,14.7-12.9,21.9-19.5
			C108.1,163.2,108,163.1,113.4,164.9z M204.4,80.5c-0.6-0.1-0.9,0.3-1.3,0.6c-11.5,10.5-23,21-34.6,31.5
			c-8.4,7.6-16.8,15.3-25.3,22.8c-2.7,2.4-2.7,2.3,0.8,3.8c0.8,0.2,1.6,0.4,2.4,0.7c19.9,6.8,39.9,13.6,59.8,20.5
			c1.1,0.4,2.2,0.7,3.1,1.5c1.5,0,2.9,1.1,4.3-0.6c5.5-6.4,11.1-12.8,16.7-19.1c6.5-7.4,13.1-14.8,19.6-22.1
			c8.4-9.5,16.9-18.9,25.3-28.3c1.1-1.3,1.1-1.8-0.7-2.3c-16.2-4.4-32.4-8.9-48.6-13.3c-6.1-1.7-12.1-3.4-18.2-5
			c-0.7-0.2-1.9-1.2-2,0.6c-0.1,2.5-0.3,4.9-0.4,7.4C205.1,79.6,204.8,80,204.4,80.5z M196.9,193.9c3.4-4,3.1-7.7-0.9-11
			c-1.6-1.3-3.5-2.3-5.4-3c-5.5-2-11.1-4-16.6-6c-18.4-6.6-36.7-13.3-55.1-19.9c-3.9-1.4-7.9-1.8-12-1.3c-5.7,0.7-9.6,4.2-13.6,7.7
			c-5.9,5.2-11.8,10.2-17.7,15.3c-3.5,3.1-7.2,5.8-10.3,9.3c1.4,1.1,2.5,1.5,4,0.2c9.7-8.6,19.6-17,29.2-25.7
			c5.6-5.1,11.8-6.2,18.7-3.8c20.3,7.3,40.6,14.7,60.9,22.1c4.7,1.7,9.8,2.9,14,5.7c3.8,2.5,4.4,5.6,1.4,9c-8.9,10.4-18,20.7-27,31
			c-0.6,0.6-1.8,1.3-1,2.2c0.6,0.8,1.9,1.3,3,0.9c0.6-0.2,1.2-0.9,1.7-1.5c4.9-5.7,9.8-11.3,14.6-17c3.2-3.9,6.9-7.4,9.7-11.6
			C195.2,195.7,196.1,194.8,196.9,193.9z M160.7,207.8c-4,5-9.4,5.2-14.8,4.1c-5.7-1.2-10.8-4.1-16.3-6.1c-2.9-1.1-4.7-0.1-5.4,3.3
			c0.9,0,1.3-0.7,1.8-1.2c0.8-1,1.8-1,2.9-0.6c4.2,1.7,8.5,3.2,12.7,5.1c3.8,1.7,7.6,2.4,11.6,1.4
			C156.5,212.8,159.6,211.5,160.7,207.8z M154.6,178.3c-2,0.1-2.9,1.3-3.5,2.6c-0.3,0.6,0.4,1.1,0.8,0.6c2.1-2.6,4.2-0.8,6.2-0.1
			c8.1,2.9,16.2,6,24.2,8.9c0.8,0.3,2,1.1,2.4-0.1c0.4-1.3-1.2-1.2-1.8-1.4c-6.7-2.6-13.5-5-20.3-7.5
			C159.8,180.3,157.1,179.2,154.6,178.3z M146.8,176.3c-0.1-0.2-0.3-0.6-0.5-0.6c-2-0.5-3.7-1.8-5.9-1.4c-7.4,1.5-14.8,2.7-22.1,4.5
			c-0.6,0.2-1.8-0.3-1.6,0.9c0.2,1,1.2,0.6,1.9,0.5c4.1-0.8,8.2-2,12.4-2.5c4.8-0.7,9.6-3.3,14.5-0.6
			C146.1,177.4,146.5,177,146.8,176.3z M167.7,203.9c0-2.4-1.3-4-2.9-5.3c-4.2-3.5-9.3-4.9-14.3-6.7c-0.5-0.2-1.1-0.3-1.4,0.2
			c-0.4,0.7,0.3,1,0.8,1.2c0.4,0.2,0.9,0.3,1.4,0.5C157.4,196.4,164,197.8,167.7,203.9z M133.1,183c-0.2,0-0.5,0-0.7,0.1
			c-6.9,6.6-13.3,13.6-20.4,19.9c-0.3,0.2-0.5,0.5-0.3,0.8c0.3,0.4,0.8,0.3,1.1,0.1c0.4-0.3,0.8-0.6,1.1-1c6-6,12.1-12.1,18.1-18.1
			C132.5,184.4,133.4,184.1,133.1,183z M140.1,192.8c2.9-2.2,5.4-4.7,7.6-7.6C145.2,187.7,142.6,190.3,140.1,192.8z"/>
		<path class="st2" d="M11.6,199.7c0.9-0.6,1.7-0.8,2.3,0.4c2.5,5.6,7.9,7.4,12.9,9.6c6.9,3.1,14,5.7,20.9,9.1
			c3.1,1.5,6.2,3.4,9.7,4.1c2.1,0.4,3.8,1.9,5.8,2.8c2,0.9,4,1.6,5.9,2.6c3.2,1.6,6.5,2.8,9.7,4.3c5.1,2.4,10.3,4.7,15.6,6.9
			c3.5,1.4,6.8,3.4,10.3,4.8c5.3,2.1,10.6,4.2,15.7,6.4c4.6,2,9.2,4.2,13.8,6.3c4.7,2.1,9.2,4.8,14.2,6.4c2.7,0.9,5.3,2.2,7.8,3.6
			c3.6,2.1,7.8,2.9,12,3.2c6.3,0.4,12.4-0.6,18.3-2.5c0.7-0.2,1.2-0.5,1.5-1.2c1.2-2.3,2.9-4.3,4.6-6.1c2.3-2.5,4-5.5,6.2-8
			c3.5-4,6.8-8.2,10.1-12.4c4.6-5.7,9.2-11.4,13.4-17.5c2-3,4.4-5.7,6.6-8.5c2.8-3.7,5.6-7.5,8.5-11.2c5.5-7,10.6-14.3,16.4-21.1
			c5.8-6.9,11.4-14.1,16.1-21.7c2.5-4,5.4-7.5,8-11.3c3.5-5.4,7.8-10.3,11.8-15.4c2.5-3.2,5.6-5.9,7.9-9.4
			c4.3-6.5,9.7-12.3,14.1-18.8c1.2-1.7,2.3-3.7,4.3-4.7c-2.2,10.7-4.5,21.4-6.7,32.1c-0.6,2.9-1.2,5.8-1.8,8.8
			c-0.4,1.1-0.7,2.2-0.7,3.4c-0.1,0.2-0.1,0.4-0.2,0.6c-0.1,0.3-0.1,0.7-0.2,1c-0.6,1.9-1.1,3.8-1.2,5.8c-0.5,0.7-0.5,1.4-0.5,2.2
			c-0.1,0.1-0.2,0.2-0.1,0.4c-0.5,1.3-0.9,2.6-0.8,4.1c-0.3,1-0.6,2-0.9,3c-0.5,0.5-0.6,1.2-0.7,1.9c-0.3,0.4-0.5,0.7-0.8,1.1
			c-0.1,0.2-0.3,0.3-0.4,0.5c0,0.1-0.1,0.3-0.1,0.4c-3.4,3.5-5.7,7.9-8.7,11.8c-4.5,6.1-8.7,12.4-12.8,18.9
			c-5.4,8.5-11.2,16.7-16.9,25c-11.8,17.3-23.7,34.5-35.5,51.8c-6.5,9.5-13.1,19-19.6,28.5c-0.8-0.1-1.6-0.1-2.4-0.3
			c-3.9-0.8-4.7-0.5-6.6,3.1c-0.8,0.7-1.2,1.7-1.7,2.6c-0.7,0.2-1,0.9-1.3,1.4c-3.1,4.4-6.1,8.9-9.2,13.3c-1.9,2.6-3.4,5.5-6.2,7.4
			c0.1-1.9,0.3-3.7,0.4-5.6c0.8-8.9,1.7-17.8,2.6-26.6c0.7-7.4,1.5-14.9,2.3-22.3c0.2-1.8-0.6-2.7-2.3-2.2
			c-4.9,1.3-9.9,1.5-14.9,1.7c-6.1,0.2-11.7-1.9-17.3-4.4c-7.5-3.4-14.9-6.8-22.5-9.9c-6.1-2.5-12.3-5-18.2-7.9
			c-5.9-2.9-12-5.2-18-7.9c-5.3-2.4-10.2-5.4-15.6-7.6c-4.5-1.8-8.8-4.4-13.3-6.2c-2.6-1.1-5.2-2.3-7.8-3.4
			c-3.4-1.4-6.9-2.7-10.2-4.7c-3.7-2.2-8.1-3.2-12-5.4c-4.7-2.6-9.8-4.4-14.8-6.6c-3.5-1.5-6.8-3.2-6.5-7.9
			C11.4,201.5,11.5,200.6,11.6,199.7z M288.3,145.3c-1.1,1-2.9,1.6-1.9,3.7c-2.6,4.3-5.9,8.2-9,12.2c-1.1,0.1-1.4,0.9-1.5,1.7
			c-1,5.2-2.1,10.4-3,15.6c-0.2,1.4-0.9,3.5,0.6,4.4c1.9,1,4,2.1,6.3,0.9c0.6-0.3,1.2-0.5,1.4-1.3c0.9-4.3,1.7-8.5,2.6-12.8
			c-2.3,1.6-3.2,4.1-5.6,6.1c0.9-4.6,1.7-8.8,2.5-13c2.7-3.7,5.3-7.4,8.1-11c1.1-1.4,1-2.3-0.6-3
			C288.3,147.7,288.3,146.5,288.3,145.3c0.1,0,0.2-0.1,0.2-0.2C288.4,145.2,288.4,145.3,288.3,145.3z M251,211.7
			c-3.2,3.3-5.1,7.2-7.7,10.6c-1.3,1.8-2.9,3.4-3.7,5.5c-0.3,0.7-0.6,1.6,0.2,2c0.8,0.4,1-0.6,1.3-1.1c2.4-3,4.8-6,7-9.1
			C249.7,217.4,252.2,215.4,251,211.7z M291.7,156.7c1.5-0.3,2-1.1,2.5-1.9c1.4-2,2.5-4.2,4.2-5.8c1.9-1.8,2.7-3.8,2.7-7.1
			C297.8,147.2,293.8,151.1,291.7,156.7z"/>
		<path class="st3" d="M11.7,202.4c-0.3,4.7,3,6.3,6.5,7.9c4.9,2.2,10.1,4,14.8,6.6c3.9,2.1,8.3,3.2,12,5.4c3.3,2,6.8,3.3,10.2,4.7
			c2.6,1.1,5.2,2.3,7.8,3.4c4.5,1.8,8.8,4.4,13.3,6.2c5.4,2.2,10.3,5.2,15.6,7.6c6,2.7,12.2,5,18,7.9c6,2.9,12.1,5.4,18.2,7.9
			c7.6,3.1,15,6.5,22.5,9.9c5.6,2.5,11.2,4.5,17.3,4.4c5-0.1,10-0.4,14.9-1.7c1.8-0.5,2.5,0.4,2.3,2.2c-0.8,7.4-1.5,14.9-2.3,22.3
			c-0.9,8.9-1.7,17.7-2.6,26.6c-0.2,1.9-0.3,3.7-0.4,5.6c-0.4,1.1-1.3,1.7-2.2,2.2c-6.8,3.8-13.8,4.7-21.1,1.7
			c-2.1-0.8-4.1-1.7-6.2-2.6c-0.3-0.2-0.7-0.5-1-0.7c-7.5-3.8-15.2-7.2-22.6-11.2c-1.3-0.7-2.6-1.8-4.3-1.6
			c-0.6-2.4-0.8-4.8-0.8-7.3c0-2.1,1.3-2.8,2.9-3.3c0.5-0.1,1.1,0.3,1.5-0.4c-1-0.9-2.8-1-2.6-3c0.3-2.3,0.4-4.7,0.4-7.1
			c0-1.8,0.6-2.3,2.2-1.4c0.6,0.3,1.4,1,1.8-0.2c0.3-0.9,0.1-1.6-1-1.9c-1.2-0.5-2.4-1.1-3.6-1.7c-2.6-1.2-2.8-1-2.8,1.8
			c0,7.7,0,15.4,0,23.2c0,1-0.1,2,0.6,2.9c-0.7,0.9-1.4,0.4-2.2,0c-1.5-0.7-2.9-1.3-4.4-2c-1.6-1.5-4.8-1.6-4.4-4.9
			c0-0.2-0.7-0.6-1.2-0.8c-1.2-0.7-2.5-1.3-3.8-1.9c-2-1.1-2.4-2.5-1-4.4c1.6-2,3.2-4,4.8-6c0.2-0.1,0.4-0.2,0.6-0.3
			c0.3,1,1.3,0.9,1.9,1.3c1,0.7,2.4,0.3,3.3,1.4c0.4,0.4,0.7,1.1,1.4,0.8c0.6-0.3,0.8-1,0.8-1.7c0-2-0.1-4,0.1-5.9
			c0.1-1.5-0.5-2.3-2-2.5c-3.4-1.7-6.9-3.3-10.3-5c-2.2-1.1-2.7-2.9-1.2-4.8c1.2-1.4,0.7-2-0.7-2.7c-3.5-1.6-7-3-10.3-5.1
			c-0.2-0.2-0.4-0.3-0.5-0.5c-0.1,0-0.2,0-0.4,0c-0.1-0.7-0.6-1-1.1-1.2c-4.2-1.9-8.4-3.9-12.7-5.8c-0.8-0.3-1.5-0.7-2.2-1.1
			c-0.9-0.6-0.7-1.6-0.4-2.3c0.4-0.9,1.2-0.1,1.7,0.1c2.8,1.2,5.6,2.5,8.4,3.8c6.6,3.1,13.2,6.2,19.8,9.3c1.2,0.6,2.3,0.9,1.1,2.6
			c-0.5,0.8-0.4,2,0.9,2.4c3,1,6,1.9,9,2.9c1.3,0.4,1.8,0,1.9-1.3c0-5.3,0.1-10.6-0.5-15.9c-0.2-1.7-1.4-3.7-2.7-4.6
			c1.2,2.8,2,5.6,1.9,8.7c-0.1,4.4-3.2,6.6-7.4,5c-1.7-0.6-3.4-1.3-5-2.1c-4.3-2.2-9.1-3.6-13.1-6.5c0.5-0.7,1-0.2,1.5,0
			c4.5,2.1,9,4.1,13.5,6.3c1.8,0.9,3.7,1.4,5.8,1.2c0.4,0,0.9-0.1,0.9-0.6c0-0.5-0.4-0.7-0.8-0.8c-3.8-0.3-6.8-2.8-10.2-4.1
			c-3-1.1-5.8-3.2-8.6-4.4c-8.8-3.4-17-8-25.7-11.5c-1.7-0.7-3.7-1.2-4.9-2.4c-1.8-1.8-2.2-0.8-2.9,0.7c-4.7-3.5-6-8.3-5.5-13.8
			c0.2-2.1,2.5-3.7,4.7-3.6c0.8,0,1.5,0.8,2.4,0.2c-1.3-0.6-1.3-0.6-3.8-0.7c-2.7,0-4.3,1.3-4.3,3.9c-0.1,2.1,0,4.1,0.3,6.2
			c0.5,4,0.8,8.1,1.2,12.1c0.1,1.2-0.1,1.6-1.5,1.1c-2.5-0.9-4.6-2.6-7.6-3.1c0.3,6,1.5,11.6,2.1,17.6c1.9-1.5,3.8-1.3,5.8-1
			c-1.6-0.5-2.4-1.6-2.8-3c-0.7-2.5-0.5-5.1-0.6-7.7c0-0.9,0.5-1,1.3-1.3c1.8-0.7,3.7,0.3,5.5-0.8c3-1.8,4.8-1.4,7.1,0.2
			c2,1.4,3.9,3.1,6.3,3.8c1.8,0.5,1.4,1.4,0.4,2.2c-0.9,0.7-1.7,1.5-1.6,2.7c0.2,2.1-0.6,2.1-2.3,1.4c-3.2-1.2-6-3.3-9.1-4.6
			c-1.1-0.5-1.7-0.6-1.6,0.9c0.5,5.8,1,11.7,1.6,17.5c0.1,0.7,0.2,1.7,0.7,2c0.7,0.5,1.3-0.5,1.9-0.9c1.4-0.9,2.7-1.8,4-2.9
			c1.8-1.5,3.5-3.6,6.1-1.4c0.1,0.1,0.5,0.1,0.7,0c2.4-0.9,4.7-0.2,7.1,0.4c-1.1,2.2-2.3,4.2-4.2,5.8c-1.6,1.4-4.1,2.9-3.3,5.9
			c-1.1,0.9-1.7-0.4-2.3-0.7c-1.7-0.9-3-0.9-4.4,0.3c-2.9-1.4-5.9-2.8-8.8-4.2c-0.3-1.5-0.5-2.9-0.8-4.4c0.4-2.6-0.3-5.1-0.6-7.9
			c-1,1.2-0.6,2-0.5,2.9c0.2,1.5,0.6,3.1-0.2,4.6c-2.5-1.2-4.9-2.4-7.4-3.6c-4.2-2-8.5-4.1-12.7-6.1c-1.2-0.9-2.5-1.6-3.9-2
			c-0.6-0.5-1.2-1-2-0.9c-1-0.7-2-1.3-3-2c-1.1-1.8-3.1-3-3.8-5.1c-0.6-2.3-1.1-4.6-1.7-6.9c-0.1-0.7-0.1-1.4-0.2-2
			c0.1-0.4,0-0.8-0.3-1.2c-0.9-1.5-0.3-3.2-0.6-4.8c-1.6-11-3.1-22-4.7-33c-1-3.1-1-6.3-1.6-9.5C11,204.3,10.9,203.2,11.7,202.4z
			 M66.5,237.3c-0.2-0.2-0.3-0.7-0.7-0.2C66,237.1,66.3,237.2,66.5,237.3c0.2,0.4,0.6,0.4,1,0.5c0.6,1.1,1.7,1,3.2,1.5
			c-1.2-1.2-2.1-1.5-3.2-1.5C67.1,237.6,66.8,237.4,66.5,237.3z M111.9,258.7c0.1,0,0.1,0.1,0.2,0.1
			C112.1,258.8,112,258.8,111.9,258.7c-0.2-0.1-0.3-0.6-0.6-0.2C111.5,258.6,111.7,258.7,111.9,258.7z M113.4,260.7
			c-0.1-0.3-0.2-0.5-0.3-0.8c-0.1,0.1-0.2,0.1-0.3,0.2C113,260.3,113.2,260.5,113.4,260.7c0.2,0.2,0.3,0.5,0.5,0.7
			c0.1-0.1,0.3-0.2,0.3-0.3C114.1,260.8,113.7,260.8,113.4,260.7z M106.4,255.2c-0.2-0.2-0.3-0.6-0.6-0.2
			C106,255.1,106.2,255.2,106.4,255.2c0.3,0.4,0.5,0.8,1.1,0.7c0.1,0,0.1-0.1,0.1-0.2C107.5,255.1,106.9,255.3,106.4,255.2z
			 M64,236.2c0.2,0.2,0.3,0.7,0.6,0.2C64.4,236.4,64.2,236.3,64,236.2c-0.4-0.6-0.8-1.2-1.7-0.7C62.7,236.3,63.4,236.2,64,236.2z
			 M101.9,253.2c-0.2-0.2-0.3-0.6-0.6-0.2C101.5,253.1,101.7,253.2,101.9,253.2c0.8,0.7,1.6,1.2,3.4,1.4
			C103.9,253.6,103,253.2,101.9,253.2z M74,240.8c-0.6-1-1.5-1.4-2.9-1.4C72,240.4,73,240.5,74,240.8c1,0.9,2.2,1.4,3.5,1.5
			c0.8,1.3,2.1,1.5,3.5,1.5c0.6,1.1,1.6,1,3.1,1.5c-1.2-1.2-2.1-1.5-3.1-1.5c-1-0.9-2.1-1.5-3.5-1.5C76.5,241.3,75.4,240.6,74,240.8
			z M56.9,240.9c-0.4,1.9,0.6,3.1,2.6,4.2c1.2,0.7,2.5,0.6,3.8,1.2c3.2,1.6,6.8,2.1,10.1,3.5c4.2,1.8,8.4,3.6,12.5,5.5
			c3.1,1.4,5.9,3.3,9.3,4.4c5.8,2,11.2,5,16.8,7.5c0.7,0.3,1.5,1.4,2.4,0.5c0.9-0.9,0.3-1.8-0.1-2.8c-1.5-3.9-4.8-6.1-8.2-7.8
			c-9.5-4.5-19.1-8.8-28.7-13.1c-5.1-2.3-10.2-4.7-15.5-6.8C58.3,235.7,56.9,236.8,56.9,240.9z M114.1,312.3
			c2.8-0.7,3.1-2.5,2.6-5.1C115.2,308.8,113.6,309.9,114.1,312.3z M84.8,245.6c0.1,0,0.1,0.1,0.2,0.1c0,0,0-0.1,0.1-0.2
			c-0.1,0-0.1-0.1-0.2-0.1C84.9,245.4,84.8,245.5,84.8,245.6z"/>
		<path class="st4" d="M23,187.3c-1.4,1.3-2.7,2.7-4.4,3.6C17.9,188.4,20.1,186.6,23,187.3z"/>
		<path class="st5" d="M18.1,252.5c0.3,0.3,0.4,0.7,0.3,1.2C18,253.4,18,253,18.1,252.5z"/>
		<path class="st6" d="M306.5,145.3c0.1-0.2,0.1-0.4,0.2-0.6C306.7,144.9,306.6,145.1,306.5,145.3z"/>
		<path class="st7" d="M305.8,153.3c0,0.7-0.4,1-1.1,1c0-0.8,0-1.6,0.5-2.2C305.4,152.5,305.6,152.9,305.8,153.3z"/>
		<path class="st8" d="M209.4,161.8c-0.9-0.7-2-1.1-3.1-1.5c-19.9-6.8-39.9-13.7-59.8-20.5c-0.8-0.3-1.6-0.4-2.4-0.7
			c-0.1-0.6,0.4-0.8,0.8-1.2c4.3-4,8.7-8,13-11.9c8.3-7.6,16.7-15.1,25-22.8c6.5-6.1,13.4-11.8,19.6-18.3c1.3-0.3,2-1.4,2.8-2.3
			c1.3-1.5,2.6-2.1,4.5-1.3c1.7,0.6,3.4,1,5.2,1.5c13.7,3.9,27.4,7.7,41.1,11.7c3.6,1,7.5,1.5,10.8,3.4c-7,7.9-14,15.8-21.1,23.7
			c-9.1,10.2-18.2,20.6-27.4,30.7C215.5,155.6,213,159.3,209.4,161.8z"/>
		<path class="st2" d="M209.4,161.8c3.7-2.6,6.2-6.3,9.1-9.5c9.2-10.2,18.3-20.5,27.4-30.7c7-7.9,14-15.8,21.1-23.7
			c0.5-0.6,0.9-1.2,1.4-1.7c2.1-1.7,0.9-2.1-0.9-2.6c-13.7-3.8-27.4-7.7-41.1-11.5c-5.3-1.5-10.6-3.2-16-4.2c-2-1.5-3.4-0.3-4.8,1.1
			c0.1-2.5,0.2-4.9,0.4-7.4c0.1-1.8,1.3-0.8,2-0.6c6.1,1.6,12.1,3.4,18.2,5c16.2,4.5,32.4,8.9,48.6,13.3c1.8,0.5,1.8,1,0.7,2.3
			c-8.5,9.4-16.9,18.9-25.3,28.3c-6.6,7.4-13.1,14.7-19.6,22.1c-5.6,6.3-11.2,12.7-16.7,19.1C212.2,162.9,210.8,161.8,209.4,161.8z"
			/>
		<path class="st3" d="M194.4,196.6c-2.8,4.2-6.5,7.7-9.7,11.6c-4.8,5.8-9.7,11.4-14.6,17c-0.5,0.6-1,1.2-1.7,1.5
			c-1.1,0.4-2.3-0.1-3-0.9c-0.8-0.9,0.4-1.6,1-2.2c9-10.3,18-20.6,27-31c2.9-3.4,2.4-6.5-1.4-9c-4.3-2.9-9.3-4-14-5.7
			c-20.3-7.5-40.6-14.8-60.9-22.1c-6.9-2.5-13.1-1.3-18.7,3.8c-9.6,8.7-19.5,17.1-29.2,25.7c-1.5,1.3-2.6,0.9-4-0.2
			c3.1-3.5,6.9-6.2,10.3-9.3c5.8-5.2,11.8-10.2,17.7-15.3c4-3.5,8-7,13.6-7.7c4.1-0.5,8.1-0.1,12,1.3c18.4,6.6,36.7,13.3,55.1,19.9
			c5.5,2,11.1,4,16.6,6c2,0.7,3.8,1.7,5.4,3c4,3.3,4.3,7,0.9,11c-0.1-1-0.5-1.9-1.5-1.8c-0.9,0.1-0.5,1.2-0.6,1.9
			C194.6,194.8,194.5,195.7,194.4,196.6z"/>
		<path class="st3" d="M202.5,85c-6.2,6.5-13.1,12.2-19.6,18.3c-8.2,7.7-16.7,15.2-25,22.8c-4.4,4-8.7,8-13,11.9
			c-0.4,0.3-0.9,0.5-0.8,1.2c-3.5-1.5-3.5-1.4-0.8-3.8c8.5-7.6,16.9-15.2,25.3-22.8c11.5-10.5,23.1-21,34.6-31.5
			c0.4-0.3,0.7-0.7,1.3-0.6C204.1,82.1,202.5,83.2,202.5,85z"/>
		<path class="st2" d="M160.7,207.8c-1.1,3.7-4.2,5-7.6,5.9c-4,1.1-7.8,0.4-11.6-1.4c-4.1-1.9-8.4-3.4-12.7-5.1
			c-1.1-0.4-2-0.5-2.9,0.6c-0.4,0.5-0.9,1.2-1.8,1.2c0.8-3.4,2.5-4.4,5.4-3.3c5.4,2,10.6,5,16.3,6.1
			C151.3,213,156.7,212.8,160.7,207.8z"/>
		<path class="st2" d="M154.6,178.3c2.5,1,5.2,2,8,3c6.8,2.5,13.5,5,20.3,7.5c0.7,0.3,2.3,0.2,1.8,1.4c-0.4,1.2-1.6,0.3-2.4,0.1
			c-8.1-3-16.1-6-24.2-8.9c-2-0.7-4.1-2.6-6.2,0.1c-0.4,0.5-1.1,0-0.8-0.6C151.7,179.6,152.6,178.4,154.6,178.3z"/>
		<path class="st2" d="M113.4,164.9c-5.4-1.8-5.3-1.7-9.7,2.3c-7.2,6.6-14.6,13-21.9,19.5c-1.1,1-2.1,2.1-3.2,3.1
			c-0.4,0.3-0.9,0.7-1.3,0.2c-0.5-0.5,0.1-0.9,0.4-1.2c1.5-1.3,3-2.6,4.4-4c8.2-7.4,16.4-14.7,24.6-22.1
			C108.8,161,112.8,162.2,113.4,164.9L113.4,164.9z"/>
		<path class="st2" d="M146.8,176.3c-0.3,0.8-0.7,1.1-1.4,0.8c-5-2.7-9.7-0.1-14.5,0.6c-4.2,0.6-8.3,1.7-12.4,2.5
			c-0.7,0.1-1.7,0.5-1.9-0.5c-0.2-1.2,1-0.8,1.6-0.9c7.3-1.8,14.8-3,22.1-4.5c2.3-0.5,4,0.9,5.9,1.4
			C146.5,175.7,146.7,176.1,146.8,176.3z"/>
		<path class="st9" d="M202.5,85c0-1.8,1.6-2.9,1.9-4.5c0.4-0.5,0.8-0.9,1.1-1.4c1.4-1.4,2.8-2.6,4.8-1.1c0.3,1.7,1.9,2.1,3.1,2.9
			c0.7,0.5,1.6,0.9,1.6,1.9c-1.7-0.5-3.5-0.8-5.2-1.5c-1.9-0.8-3.2-0.2-4.5,1.3C204.5,83.6,203.8,84.7,202.5,85z"/>
		<path class="st2" d="M167.7,203.9c-3.7-6.2-10.3-7.6-16.3-10.1c-0.5-0.2-0.9-0.3-1.4-0.5c-0.5-0.2-1.2-0.5-0.8-1.2
			c0.2-0.5,0.9-0.4,1.4-0.2c4.9,1.9,10.1,3.3,14.3,6.7C166.4,200,167.8,201.6,167.7,203.9z"/>
		<path class="st2" d="M133.1,183c0.3,1-0.6,1.4-1,1.8c-6,6.1-12.1,12.1-18.1,18.1c-0.4,0.4-0.7,0.7-1.1,1c-0.3,0.3-0.8,0.4-1.1-0.1
			c-0.2-0.3,0-0.6,0.3-0.8c7.1-6.3,13.5-13.4,20.4-19.9C132.6,183,132.9,183.1,133.1,183z"/>
		<path class="st2" d="M140.1,192.8c2.5-2.5,5.1-5.1,7.6-7.6C145.5,188.1,143,190.7,140.1,192.8z"/>
		<path class="st9" d="M194.4,196.6c0.1-0.9,0.2-1.8,0.4-2.6c0.1-0.7-0.3-1.8,0.6-1.9c1-0.1,1.4,0.8,1.5,1.8
			C196.1,194.8,195.2,195.7,194.4,196.6z"/>
		<path class="st2" d="M113.5,164.8c0.1,0,0.1,0.1,0.2,0.1C113.6,164.9,113.5,164.9,113.5,164.8
			C113.4,164.9,113.5,164.8,113.5,164.8z"/>
		<path class="st10" d="M206.4,304.2c0-0.3,0.6-0.7,0-1c0.3-0.5,0.6-1,0.9-1.5c6.5-9.5,13.1-19,19.6-28.5
			c11.8-17.3,23.7-34.5,35.5-51.8c5.7-8.3,11.5-16.5,16.9-25c4.1-6.4,8.3-12.8,12.8-18.9c2.9-3.9,5.2-8.2,8.7-11.8
			c0.1,1.4-0.7,2.6-1.4,3.6c-5.2,7.2-10,14.6-15,21.9c-5.3,7.9-10.9,15.6-16.2,23.4c-3.8,5.6-7.5,11.3-11.3,16.8
			c-6.5,9.5-13.1,18.9-19.5,28.4c-5.3,7.9-10.3,16-15.7,23.8c-2.5,3.6-5.1,7.1-7.4,10.8c-0.6,0.1-0.9,0.4-1,1c0,0,0,0,0,0
			c-0.7,0.3-1,0.8-1,1.5c-0.2,0.3-0.4,0.6-0.5,1c-0.6,0-1,0.4-1,1c-0.3,0.5-0.7,1-1,1.5c-0.7,0.3-1,0.8-1,1.5c-0.5,0.7-1,1.3-1.5,2
			c-0.2,0.2-0.3,0.3-0.5,0.5c0,0,0,0,0,0c-0.2,0-0.4,0-0.5,0c0,0,0,0,0,0C206.3,304.5,206.4,304.4,206.4,304.2z"/>
		<path class="st3" d="M280.8,162.8c-0.8,4.2-1.6,8.4-2.5,13c2.4-1.9,3.3-4.5,5.6-6.1c-0.9,4.3-1.7,8.5-2.6,12.8
			c-0.2,0.8-0.8,1-1.4,1.3c-2.3,1.2-4.5,0.1-6.3-0.9c-1.6-0.9-0.9-3-0.6-4.4c0.8-5.2,1.9-10.4,3-15.6c0.2-0.8,0.4-1.6,1.5-1.7
			C278.4,162,279.6,162.5,280.8,162.8z M279.4,181.3c-0.3-2.9-0.7-3.9-1.7-3.8c-1.1,0-3.2,2.1-2.9,3c0.5,1.8,1.8,2.4,3.6,2.3
			C279.7,182.8,279.8,182.2,279.4,181.3z"/>
		<path class="st1" d="M280.8,162.8c-1.3-0.3-2.4-0.8-3.4-1.5c3.1-4,6.3-7.9,9-12.2c0.6-0.1,1.3-0.2,1.9-0.2c1.6,0.7,1.6,1.6,0.6,3
			C286.1,155.4,283.5,159.1,280.8,162.8z"/>
		<path class="st3" d="M251,211.7c1.2,3.7-1.3,5.7-2.9,7.9c-2.3,3.1-4.7,6.1-7,9.1c-0.4,0.5-0.5,1.5-1.3,1.1c-0.7-0.4-0.4-1.3-0.2-2
			c0.9-2.1,2.4-3.8,3.7-5.5C245.9,218.9,247.8,215.1,251,211.7z"/>
		<path class="st3" d="M291.7,156.7c2.1-5.7,6.1-9.6,9.4-14.8c-0.1,3.3-0.8,5.3-2.7,7.1c-1.7,1.6-2.8,3.8-4.2,5.8
			C293.7,155.6,293.3,156.4,291.7,156.7z"/>
		<path class="st3" d="M207.3,301.7c-0.3,0.5-0.6,1-0.9,1.5c-1.7,1-3.5,1.7-5.6,1.6c-0.8-0.1-1.6-0.1-2.4-0.2c1.9-3.6,2.6-4,6.6-3.1
			C205.7,301.6,206.5,301.6,207.3,301.7z"/>
		<path class="st3" d="M288.3,148.8c-0.6,0.1-1.3,0.2-1.9,0.2c-1-2.1,0.9-2.7,1.9-3.7l0,0C288.3,146.5,288.3,147.7,288.3,148.8z"/>
		<path class="st10" d="M301.3,164.8c-0.1,0.2-0.3,0.3-0.4,0.5C301,165.2,301.1,165,301.3,164.8z"/>
		<path class="st3" d="M288.3,145.3c0.1-0.1,0.2-0.1,0.2-0.2C288.5,145.2,288.4,145.3,288.3,145.3
			C288.3,145.4,288.3,145.3,288.3,145.3z"/>
		<path class="st9" d="M70.6,291.7c-0.8-3,1.7-4.5,3.3-5.9c1.9-1.7,3-3.6,4.2-5.8c-2.4-0.5-4.7-1.3-7.1-0.4c-0.2,0.1-0.6,0.1-0.7,0
			c-2.7-2.2-4.3-0.1-6.1,1.4c-1.2,1-2.6,2-4,2.9c-0.6,0.4-1.2,1.4-1.9,0.9c-0.5-0.3-0.6-1.3-0.7-2c-0.5-5.8-1-11.7-1.6-17.5
			c-0.1-1.5,0.5-1.4,1.6-0.9c3.1,1.3,5.9,3.4,9.1,4.6c1.6,0.6,2.5,0.7,2.3-1.4c-0.1-1.2,0.7-1.9,1.6-2.7c1-0.9,1.4-1.7-0.4-2.2
			c-2.4-0.7-4.3-2.4-6.3-3.8c-2.3-1.6-4-2-7.1-0.2c-1.8,1.1-3.7,0.1-5.5,0.8c-0.8,0.3-1.3,0.3-1.3,1.3c0.1,2.6-0.2,5.1,0.6,7.7
			c0.4,1.4,1.2,2.5,2.8,3c-2-0.3-3.9-0.5-5.8,1c-0.6-6-1.9-11.7-2.1-17.6c3,0.5,5.1,2.2,7.6,3.1c1.4,0.5,1.6,0.1,1.5-1.1
			c-0.4-4-0.7-8.1-1.2-12.1c-0.3-2.1-0.3-4.1-0.3-6.2c0.1-2.6,1.6-4,4.3-3.9c2.5,0,2.5,0,3.8,0.7c-0.9,0.5-1.6-0.2-2.4-0.2
			c-2.2,0-4.5,1.5-4.7,3.6c-0.6,5.5,0.8,10.4,5.5,13.8c0.3,0.6,0.8,0.9,1.4,1.1c3.7,3.4,8.4,4.8,13,6.5l0,0c1.9,1.7,4.2,2.5,6.5,3.4
			c3.2,1.3,6,3.4,9.5,4.1c0.3,0.2,0.7,0.3,1,0.5c4,2.8,8.8,4.2,13.1,6.5c1.6,0.8,3.3,1.5,5,2.1c4.2,1.6,7.2-0.6,7.4-5
			c0.1-3-0.6-5.9-1.9-8.7c1.3,0.9,2.5,2.9,2.7,4.6c0.6,5.3,0.5,10.6,0.5,15.9c0,1.4-0.5,1.8-1.9,1.3c-3-1-6-1.9-9-2.9
			c-1.3-0.4-1.4-1.7-0.9-2.4c1.2-1.7,0.1-2.1-1.1-2.6c-6.6-3.1-13.2-6.2-19.8-9.3c-2.8-1.3-5.6-2.6-8.4-3.8c-0.5-0.2-1.2-1-1.7-0.1
			c-0.3,0.7-0.5,1.7,0.4,2.3c0.7,0.5,1.5,0.8,2.2,1.1c4.2,1.9,8.4,3.9,12.7,5.8c0.5,0.2,1,0.5,1.1,1.2c-1.3,0.1-2.7-1.8-4,0
			c-3.3,4.4-7.6,8-11.2,12.3C74.6,288.1,72.6,289.8,70.6,291.7z"/>
		<path class="st9" d="M56.9,240.9c0-4.1,1.4-5.2,5-3.7c5.2,2.1,10.3,4.5,15.5,6.8c9.6,4.3,19.2,8.6,28.7,13.1
			c3.5,1.7,6.7,3.9,8.2,7.8c0.4,1,0.9,1.9,0.1,2.8c-0.9,0.9-1.7-0.2-2.4-0.5c-5.6-2.5-11.1-5.6-16.8-7.5c-3.4-1.1-6.2-3-9.3-4.4
			c-4.1-1.9-8.3-3.7-12.5-5.5c-3.3-1.4-6.9-2-10.1-3.5c-1.2-0.6-2.5-0.5-3.8-1.2C57.6,244.1,56.5,242.8,56.9,240.9z M70.9,242.5
			c-0.8-0.1-0.8,0.3-0.9,0.8c-0.2,1.2,0.7,1.6,1.5,2c11.3,5.1,22.6,10.3,33.9,15.4c0.5,0.2,1.4,1.1,1.9,0c0.3-0.8-0.1-1.5-0.9-1.8
			c-1.8-0.8-3.5-1.7-5.3-2.5c-8.6-3.9-17.1-7.7-25.7-11.6C73.8,243.9,72.3,243.1,70.9,242.5z"/>
		<path class="st2" d="M61,253.2c-0.6-0.1-1.1-0.4-1.4-1.1c0.6-1.5,1.1-2.5,2.9-0.7c1.2,1.2,3.2,1.7,4.9,2.4
			c8.7,3.5,16.9,8.1,25.7,11.5c2.9,1.1,5.6,3.2,8.6,4.4c3.4,1.3,6.4,3.7,10.2,4.1c0.4,0,0.8,0.3,0.8,0.8c0,0.5-0.5,0.5-0.9,0.6
			c-2.1,0.2-3.9-0.3-5.8-1.2c-4.5-2.1-9-4.2-13.5-6.3c-0.5-0.2-1-0.8-1.5,0c-0.3-0.2-0.7-0.3-1-0.5c0-0.6-0.3-0.8-0.9-1.1
			c-2.6-1.2-5.1-2.6-7.8-3.7c-2.4-1-4.6-2.7-7.3-2.7c0,0,0,0,0,0c-0.3-1.8-2-1.5-3.1-2C67.5,256.3,64.4,254.3,61,253.2z"/>
		<path class="st9" d="M122.4,317.2c-0.5,0.5-0.9,1-1.4,1.5c-0.6-0.9-0.6-1.9-0.6-2.9c0-7.7,0-15.4,0-23.2c0-2.8,0.3-2.9,2.8-1.8
			c1.2,0.6,2.4,1.2,3.6,1.7c1,0.4,1.2,1.1,1,1.9c-0.4,1.2-1.2,0.5-1.8,0.2c-1.6-0.9-2.2-0.4-2.2,1.4c0,2.4-0.1,4.7-0.4,7.1
			c-0.2,2,1.6,2,2.6,3c-0.4,0.8-1,0.3-1.5,0.4c-1.7,0.5-2.9,1.2-2.9,3.3C121.6,312.4,121.8,314.8,122.4,317.2z"/>
		<path class="st9" d="M109.5,298.4c1.5-2.5,4-4.2,5.4-6.7c1.5,0.2,2.1,1,2,2.5c-0.1,2,0,4-0.1,5.9c0,0.7-0.2,1.4-0.8,1.7
			c-0.7,0.3-1-0.4-1.4-0.8c-0.9-1-2.2-0.7-3.3-1.4C110.8,299.3,109.8,299.4,109.5,298.4z"/>
		<path class="st9" d="M114.1,312.3c-0.4-2.4,1.2-3.5,2.6-5.1C117.2,309.8,116.9,311.7,114.1,312.3z"/>
		<path class="st9" d="M54.3,282.8c-0.4-0.1-0.9-0.3-1.3-0.4c0.9-1.5,0.5-3.1,0.2-4.6c-0.1-0.9-0.5-1.8,0.5-2.9
			C54,277.7,54.8,280.2,54.3,282.8z"/>
		<path class="st9" d="M77.5,242.3c1.4,0,2.5,0.6,3.5,1.5l0,0C79.6,243.7,78.3,243.5,77.5,242.3L77.5,242.3z"/>
		<path class="st9" d="M77.5,242.2c-1.4-0.1-2.5-0.6-3.5-1.5l0,0C75.4,240.6,76.5,241.3,77.5,242.2
			C77.5,242.3,77.5,242.2,77.5,242.2z"/>
		<path class="st9" d="M101.9,253.2c1.1,0,2,0.3,3.4,1.4C103.6,254.4,102.7,253.9,101.9,253.2L101.9,253.2z"/>
		<path class="st9" d="M80.9,243.8c1,0,1.9,0.3,3.1,1.5C82.6,244.7,81.5,244.8,80.9,243.8C81,243.7,80.9,243.8,80.9,243.8z"/>
		<path class="st9" d="M74,240.7c-0.9-0.3-1.9-0.4-2.9-1.3C72.5,239.4,73.3,239.8,74,240.7C74,240.8,74,240.7,74,240.7z"/>
		<path class="st9" d="M67.5,237.8c1,0,1.9,0.4,3.2,1.5C69.1,238.7,68,238.9,67.5,237.8L67.5,237.8z"/>
		<path class="st9" d="M64,236.2c-0.6,0-1.3,0-1.7-0.7C63.2,235.1,63.6,235.7,64,236.2L64,236.2z"/>
		<path class="st9" d="M106.4,255.2c0.4,0.1,1-0.2,1.2,0.5c0,0.1-0.1,0.2-0.1,0.2C106.9,256.1,106.7,255.6,106.4,255.2L106.4,255.2z
			"/>
		<path class="st9" d="M113.4,260.7c0.3,0.1,0.7,0.1,0.7,0.5c0,0.1-0.2,0.2-0.3,0.3C113.8,261.2,113.6,261,113.4,260.7L113.4,260.7z
			"/>
		<path class="st9" d="M113.4,260.7c-0.2-0.2-0.4-0.4-0.6-0.6c0.1-0.1,0.2-0.1,0.3-0.2C113.2,260.2,113.3,260.5,113.4,260.7
			C113.4,260.7,113.4,260.7,113.4,260.7z"/>
		<path class="st9" d="M111.9,258.7c-0.2-0.1-0.4-0.1-0.6-0.2C111.7,258.1,111.7,258.6,111.9,258.7L111.9,258.7z"/>
		<path class="st9" d="M106.5,255.2c-0.2-0.1-0.4-0.1-0.7-0.2C106.2,254.6,106.3,255.1,106.5,255.2
			C106.4,255.2,106.5,255.2,106.5,255.2z"/>
		<path class="st9" d="M102,253.2c-0.2-0.1-0.4-0.1-0.7-0.2C101.7,252.6,101.8,253,102,253.2C101.9,253.2,102,253.2,102,253.2z"/>
		<path class="st9" d="M84.8,245.6c0-0.1,0-0.2,0.1-0.2c0.1,0,0.1,0,0.2,0.1c0,0.1,0,0.2-0.1,0.2C84.9,245.6,84.9,245.6,84.8,245.6z
			"/>
		<path class="st9" d="M67.5,237.7c-0.4,0-0.8-0.1-1-0.5l0,0C66.8,237.4,67.1,237.6,67.5,237.7C67.5,237.8,67.5,237.7,67.5,237.7z"
			/>
		<path class="st9" d="M66.5,237.2c-0.2-0.1-0.4-0.1-0.7-0.2C66.2,236.6,66.3,237.1,66.5,237.2C66.5,237.3,66.5,237.2,66.5,237.2z"
			/>
		<path class="st9" d="M64,236.3c0.2,0,0.4,0.1,0.7,0.1C64.3,236.9,64.2,236.4,64,236.3C64,236.2,64,236.3,64,236.3z"/>
		<path class="st9" d="M111.9,258.7c0.1,0,0.1,0.1,0.2,0.1C112.1,258.8,112,258.8,111.9,258.7C111.9,258.7,111.9,258.7,111.9,258.7z
			"/>
		<path class="st9" d="M92.4,274.2c-0.2-0.2-0.4-0.3-0.5-0.5C92.1,273.9,92.3,274.1,92.4,274.2z"/>
		<path class="st11" d="M212.4,297.2c0-0.7,0.3-1.2,1-1.5C213.4,296.4,213.4,297.1,212.4,297.2z"/>
		<path class="st11" d="M208.8,302.2c0-0.7,0.4-1.2,1-1.5C209.9,301.4,209.9,302.2,208.8,302.2z"/>
		<path class="st11" d="M213.4,295.7c0-0.6,0.3-1,1-1C214.4,295.3,214,295.7,213.4,295.7z"/>
		<path class="st11" d="M206.9,304.7c0.2-0.2,0.3-0.3,0.5-0.5C207.2,304.3,207,304.5,206.9,304.7z"/>
		<path class="st3" d="M215,82.9c0-1.1-0.8-1.4-1.6-1.9c-1.2-0.8-2.8-1.2-3.1-2.9c5.5,1,10.7,2.8,16,4.2
			c13.7,3.8,27.4,7.7,41.1,11.5c1.8,0.5,3,0.8,0.9,2.6c-0.6,0.5-0.9,1.1-1.4,1.7c-3.4-1.9-7.2-2.4-10.8-3.4
			C242.4,90.6,228.7,86.7,215,82.9z"/>
		<path class="st11" d="M206.4,304.2c0,0.2,0,0.3,0,0.5c-0.1-0.1-0.1-0.2-0.2-0.4C206.2,304.3,206.3,304.3,206.4,304.2z"/>
		<path class="st9" d="M279.4,181.3c0.4,0.9,0.3,1.5-1,1.5c-1.8,0.1-3.1-0.6-3.6-2.3c-0.3-0.9,1.8-3,2.9-3
			C278.6,177.5,279.1,178.4,279.4,181.3z"/>
		<path class="st3" d="M74,259.7c2.8,0.1,4.9,1.7,7.3,2.7c2.7,1.1,5.2,2.5,7.8,3.7c0.5,0.2,0.8,0.5,0.9,1.1
			c-3.5-0.6-6.3-2.7-9.5-4.1C78.2,262.2,75.8,261.4,74,259.7z"/>
		<path class="st3" d="M61,253.2c3.5,1.1,6.6,3,9.9,4.5c1.1,0.5,2.8,0.3,3.1,2C69.4,258,64.7,256.6,61,253.2z"/>
		<path class="st3" d="M70.9,242.5c1.4,0.7,2.9,1.5,4.5,2.2c8.6,3.9,17.1,7.7,25.7,11.6c1.8,0.8,3.6,1.7,5.3,2.5
			c0.8,0.4,1.2,1.1,0.9,1.8c-0.5,1.1-1.4,0.2-1.9,0c-11.3-5.1-22.6-10.2-33.9-15.4c-0.9-0.4-1.7-0.8-1.5-2
			C70.1,242.8,70.1,242.4,70.9,242.5z"/>
	</g>
</g>
<g id="Layer_1">
	<g>
		<g class="st12">
			<path class="st13" d="M307.2,278.5"/>
		</g>
		<g id="Layer_4" class="st14">
			<g>
				<path class="st15" d="M260.1,40.3c0,0-10.8-8.1-14.3-3.1c-7,9.6,27.2,33.4,33.7,24.5c0,0,3.5-4.9-7.1-12.7"/>
				<g>
					<line class="st15" x1="271.3" y1="47.9" x2="273.7" y2="53.9"/>
					<line class="st15" x1="271.3" y1="47.9" x2="277.7" y2="48.9"/>
				</g>
			</g>
			<g>
				<path class="st16" d="M152.2,23.2c0,0-13.5-0.2-13.5,5.9c0,11.9,41.7,11.1,41.7,0c0,0,0-6-13.2-6"/>
				<g>
					<line class="st17" x1="165.8" y1="22.8" x2="171.2" y2="26.2"/>
					<line class="st17" x1="165.8" y1="22.8" x2="171.5" y2="19.8"/>
				</g>
			</g>
			<g>
				<path class="st18" d="M25.6,124.6c0,0-5.9,12.1-0.4,14.7c10.7,5,27.9-33,17.8-37.7c0,0-5.5-2.6-11.1,9.4"/>
				<g>
					<line class="st18" x1="30.9" y1="112.1" x2="36.3" y2="108.7"/>
					<line class="st18" x1="30.9" y1="112.1" x2="30.7" y2="105.7"/>
				</g>
			</g>
		</g>
		<g id="Layer_3">
			<path class="st19" d="M139.6,5"/>
			<g>
				<polyline class="st20" points="2.9,109 129.7,156.5 326.2,230.2 				"/>
				<g>
					<line class="st21" x1="328.3" y1="231.3" x2="324.6" y2="226"/>
					<line class="st21" x1="328.3" y1="231.3" x2="321.9" y2="231.7"/>
				</g>
				<g>
					<line class="st21" x1="1" y1="108.5" x2="5.2" y2="113.4"/>
					<line class="st21" x1="1" y1="108.5" x2="7.3" y2="107.4"/>
				</g>
			</g>
			<g>
				<line class="st15" x1="276.6" y1="31.3" x2="37.2" y2="308"/>
			</g>
			<g>
				<line class="st22" x1="161" y1="363" x2="161" y2="3.8"/>
				<g>
					<line class="st16" x1="161.1" y1="1" x2="157.9" y2="6.6"/>
					<line class="st16" x1="161.1" y1="1" x2="164.3" y2="6.6"/>
				</g>
				<g>
					<line class="st16" x1="161.2" y1="365" x2="164.5" y2="359.5"/>
					<line class="st16" x1="161.2" y1="365" x2="158.1" y2="359.3"/>
				</g>
			</g>
			<g>
				<line class="st23" x1="278.1" y1="28.8" x2="272.4" y2="31.7"/>
				<line class="st23" x1="278.1" y1="28.8" x2="277.8" y2="35.2"/>
			</g>
			<g>
				<line class="st23" x1="35.9" y1="310.3" x2="41.7" y2="307.4"/>
				<line class="st23" x1="35.9" y1="310.3" x2="36.4" y2="303.8"/>
			</g>
		</g>
	</g>
	<g>
		<rect x="137" y="349.9" class="st24" width="21.2" height="21.6"/>
		<text transform="matrix(1 0 0 1 147.6293 355.3342)" class="st25 st26">z</text>
		<text transform="matrix(1 0 0 1 311.3035 237.7288)" class="st25 st26">x</text>
		<text transform="matrix(1 0 0 1 44.5737 310.7993)" class="st25 st26">y</text>
	</g>
</g>
</svg>
