<?xml version="1.0" encoding="utf-8"?>
<!-- Generator: Adobe Illustrator 23.1.1, SVG Export Plug-In . SVG Version: 6.00 Build 0)  -->
<svg version="1.1" xmlns="http://www.w3.org/2000/svg" xmlns:xlink="http://www.w3.org/1999/xlink" x="0px" y="0px"
	 viewBox="0 0 841.89 595.28" style="enable-background:new 0 0 841.89 595.28;" xml:space="preserve">
<style type="text/css">
	.st0{fill:#DC8843;stroke:#565656;stroke-width:3;stroke-linecap:round;stroke-linejoin:round;stroke-miterlimit:10;}
	.st1{fill:#DC8843;stroke:#8D191C;stroke-width:3;stroke-linecap:round;stroke-linejoin:round;stroke-miterlimit:10;}
	.st2{fill:none;stroke:#8D191C;stroke-width:2;stroke-linecap:round;stroke-linejoin:round;stroke-miterlimit:10;}
	.st3{fill:none;stroke:#53B949;stroke-width:3;stroke-linecap:round;stroke-linejoin:round;stroke-miterlimit:10;}
	.st4{fill:none;stroke:#53B949;stroke-width:2;stroke-linecap:round;stroke-linejoin:round;stroke-miterlimit:10;}
	.st5{fill:none;stroke:#345CAA;stroke-width:3;stroke-linecap:round;stroke-linejoin:round;stroke-miterlimit:10;}
	.st6{fill:none;stroke:#345CAA;stroke-width:2;stroke-linecap:round;stroke-linejoin:round;stroke-miterlimit:10;}
	.st7{fill:#010101;}
	.st8{fill:#FFFFFF;}
</style>
<g id="Layer_1">
	<path class="st0" d="M379.65,120.43"/>
	<g>
		<polyline class="st1" points="52.97,133.6 153.91,161.85 310.26,205.6 		"/>
		<g>
			<line class="st2" x1="312.02" y1="206.05" x2="309.04" y2="203.15"/>
			<line class="st2" x1="312.02" y1="206.05" x2="307.97" y2="207.12"/>
		</g>
		<g>
			<line class="st2" x1="51.8" y1="133.04" x2="54.53" y2="136.17"/>
			<line class="st2" x1="51.8" y1="133.04" x2="55.91" y2="132.29"/>
		</g>
	</g>
	<g>
		<line class="st3" x1="261.51" y1="52.39" x2="109.65" y2="268.69"/>
		<g>
			<line class="st4" x1="262.2" y1="51.14" x2="257.11" y2="53.69"/>
			<line class="st4" x1="262.2" y1="51.14" x2="261.71" y2="56.87"/>
		</g>
		<g>
			<line class="st4" x1="108.14" y1="271.05" x2="113.37" y2="268.8"/>
			<line class="st4" x1="108.14" y1="271.05" x2="108.96" y2="265.35"/>
		</g>
	</g>
	<g>
		<line class="st5" x1="178.36" y1="294.94" x2="178.36" y2="44.78"/>
		<g>
			<line class="st6" x1="178.43" y1="42.83" x2="175.23" y2="46.71"/>
			<line class="st6" x1="178.43" y1="42.83" x2="181.62" y2="46.74"/>
		</g>
		<g>
			<line class="st6" x1="178.53" y1="296.37" x2="181.88" y2="292.55"/>
			<line class="st6" x1="178.53" y1="296.37" x2="175.49" y2="292.41"/>
		</g>
	</g>
	<g>
		<g>
			<g>
				<path class="st7" d="M307.13,192.9l-2.72-3.75h1.46l1.23,1.7c0.27,0.43,0.59,0.9,0.91,1.31h0.06c0.29-0.42,0.61-0.9,0.88-1.33
					l1.15-1.68h1.41l-2.75,3.86l2.98,3.92h-1.47l-1.34-1.79c-0.34-0.43-0.69-0.96-1.02-1.41h-0.06c-0.32,0.46-0.64,0.93-0.96,1.42
					l-1.28,1.78h-1.41L307.13,192.9z"/>
			</g>
		</g>
	</g>
	<g>
		<g>
			<g>
				<path class="st7" d="M185.87,293.16l5.31-6h-4.72v-1.07h6.63v0.7l-5.31,5.99h5.46v1.09h-7.36v-0.71H185.87z"/>
			</g>
		</g>
	</g>
	<g>
		<g>
			<path class="st7" d="M119.93,275.34l0.27-1.06c0.21,0.06,0.46,0.11,0.7,0.11c1.09,0,1.75-0.69,2.13-1.65l0.22-0.58l-3.62-7.8
				h1.34l1.89,4.29c0.3,0.69,0.64,1.5,0.96,2.26h0.06c0.27-0.74,0.58-1.55,0.83-2.26l1.68-4.29h1.28l-3.44,8.42
				c-0.58,1.54-1.52,2.71-3.3,2.71C120.59,275.5,120.2,275.43,119.93,275.34z"/>
		</g>
	</g>
</g>
<g id="Layer_3">
	<g>
		<path class="st8" d="M209.55,93.37c0.1,7.95,0.19,15.9,0.29,23.85c-4.82,0.06-9.64,0.12-14.46,0.17
			c-0.1-7.95-0.19-15.9-0.29-23.85C199.91,93.49,204.73,93.43,209.55,93.37z M198.45,99.4c-0.19-0.15-0.39-0.28-0.57-0.45
			c-0.39-0.38-0.39-0.76-0.07-1.16c0.2-0.24,0.46-0.41,0.74-0.56c0.03-0.01,0.07-0.02,0.1,0c0.61,0.26,1.24,0.41,1.89,0.52
			c0.75,0.13,1.5,0.18,2.26,0.18c0.6,0,1.2-0.04,1.8-0.13c0.51-0.07,1.02-0.15,1.51-0.33c0.22-0.08,0.44-0.16,0.62-0.33
			c0.2-0.2,0.18-0.51-0.05-0.68c-0.24-0.18-0.53-0.27-0.82-0.35c-0.8-0.22-1.63-0.28-2.45-0.3c-1.04-0.03-2.06,0.05-3.08,0.27
			c-0.67,0.14-1.32,0.34-1.93,0.65c-0.34,0.17-0.66,0.38-0.92,0.66c-0.3,0.32-0.47,0.7-0.39,1.15c0.09,0.52,0.44,0.84,0.84,1.12
			c0.02,0.01,0.05,0.01,0.07,0C198.15,99.57,198.31,99.48,198.45,99.4z M198.57,110.73c-0.2-0.16-0.41-0.32-0.59-0.49
			c-0.18-0.16-0.27-0.37-0.25-0.61c0.01-0.17,0.09-0.33,0.2-0.46c0.21-0.26,0.48-0.45,0.78-0.6c0.03-0.01,0.07,0,0.11,0.01
			c0.41,0.12,0.81,0.27,1.21,0.37c0.86,0.23,1.75,0.31,2.64,0.31c0.55,0,1.1-0.04,1.65-0.07c0.51-0.03,1.02-0.12,1.52-0.25
			c0.33-0.08,0.65-0.18,0.93-0.37c0.3-0.19,0.33-0.56,0.04-0.78c-0.12-0.09-0.26-0.16-0.41-0.21c-0.47-0.19-0.96-0.26-1.46-0.33
			c-0.83-0.12-1.67-0.15-2.5-0.09c-0.56,0.04-1.11,0.11-1.66,0.19c-0.63,0.1-1.25,0.27-1.84,0.52c-0.32,0.13-0.62,0.29-0.9,0.49
			c-0.32,0.23-0.6,0.49-0.75,0.87c-0.12,0.3-0.11,0.61,0.01,0.91c0.15,0.37,0.44,0.62,0.76,0.84c0.02,0.01,0.07,0.02,0.09,0.01
			C198.29,110.9,198.43,110.81,198.57,110.73z M198.64,113.55c-0.03-0.02-0.05-0.03-0.07-0.05c-0.19-0.14-0.38-0.27-0.55-0.43
			c-0.17-0.16-0.28-0.37-0.26-0.61c0.02-0.22,0.13-0.39,0.27-0.55c0.19-0.2,0.41-0.35,0.65-0.49c0.06-0.04,0.11-0.04,0.18-0.01
			c0.52,0.21,1.06,0.36,1.61,0.47c0.83,0.16,1.68,0.23,2.53,0.23c0.6,0,1.19-0.04,1.78-0.13c0.5-0.07,1-0.15,1.48-0.32
			c0.21-0.07,0.42-0.15,0.6-0.29c0.24-0.2,0.27-0.51,0.05-0.7c-0.09-0.08-0.19-0.14-0.3-0.18c-0.45-0.19-0.93-0.3-1.42-0.37
			c-0.68-0.09-1.37-0.16-2.06-0.13c-0.6,0.02-1.21,0.07-1.81,0.13c-0.59,0.06-1.17,0.2-1.74,0.38c-0.41,0.13-0.8,0.29-1.18,0.51
			c-0.35,0.2-0.66,0.43-0.9,0.75c-0.3,0.41-0.34,0.86-0.12,1.31c0.15,0.32,0.42,0.55,0.71,0.75c0.02,0.02,0.07,0.02,0.09,0.01
			C198.32,113.73,198.47,113.64,198.64,113.55z M198.53,105.05c-0.04-0.02-0.06-0.04-0.09-0.06c-0.21-0.13-0.41-0.27-0.57-0.46
			c-0.14-0.16-0.23-0.34-0.22-0.56c0.01-0.18,0.09-0.34,0.2-0.48c0.21-0.26,0.49-0.44,0.78-0.6c0.02-0.01,0.06-0.01,0.09,0
			c0.5,0.21,1.02,0.35,1.56,0.46c0.65,0.13,1.3,0.21,1.96,0.23c1.02,0.03,2.03-0.02,3.03-0.21c0.44-0.08,0.87-0.18,1.27-0.39
			c0.11-0.06,0.22-0.13,0.3-0.22c0.18-0.21,0.12-0.48-0.08-0.64c-0.12-0.09-0.27-0.17-0.41-0.22c-0.27-0.09-0.55-0.17-0.83-0.23
			c-0.86-0.18-1.72-0.22-2.59-0.21c-0.79,0.01-1.57,0.07-2.34,0.23c-0.76,0.15-1.5,0.36-2.19,0.73c-0.39,0.21-0.75,0.46-1.01,0.82
			c-0.28,0.39-0.33,0.82-0.14,1.25c0.15,0.35,0.43,0.59,0.73,0.8c0.02,0.01,0.06,0.03,0.08,0.02
			C198.21,105.24,198.37,105.15,198.53,105.05z M198.5,102.22c-0.08-0.05-0.15-0.09-0.21-0.13c-0.24-0.16-0.46-0.33-0.59-0.59
			c-0.15-0.3-0.1-0.56,0.11-0.83c0.2-0.26,0.46-0.44,0.75-0.58c0.04-0.02,0.1-0.02,0.14-0.01c0.75,0.3,1.53,0.48,2.32,0.58
			c0.73,0.09,1.47,0.13,2.2,0.1c0.83-0.03,1.65-0.11,2.46-0.31c0.36-0.09,0.72-0.19,1.03-0.42c0.23-0.17,0.26-0.49,0.05-0.68
			c-0.09-0.08-0.2-0.16-0.32-0.21c-0.54-0.24-1.13-0.33-1.71-0.4c-0.59-0.07-1.18-0.1-1.78-0.1c-0.92,0.01-1.83,0.11-2.73,0.3
			c-0.61,0.13-1.21,0.32-1.77,0.6c-0.42,0.22-0.82,0.47-1.11,0.87c-0.21,0.3-0.3,0.62-0.23,0.98c0.09,0.51,0.45,0.81,0.83,1.09
			c0.02,0.01,0.05,0.01,0.07,0.01C198.18,102.4,198.34,102.31,198.5,102.22z M198.57,107.88c-0.03-0.02-0.06-0.04-0.09-0.06
			c-0.23-0.13-0.45-0.29-0.61-0.5c-0.17-0.22-0.26-0.47-0.13-0.75c0.05-0.12,0.13-0.23,0.21-0.33c0.19-0.22,0.43-0.37,0.68-0.51
			c0.04-0.02,0.1-0.02,0.15-0.01c0.17,0.06,0.34,0.14,0.51,0.19c0.52,0.16,1.04,0.3,1.58,0.36c0.48,0.05,0.95,0.11,1.43,0.13
			c0.65,0.04,1.29,0.01,1.94-0.06c0.73-0.08,1.47-0.17,2.16-0.46c0.15-0.06,0.3-0.16,0.43-0.26c0.19-0.16,0.19-0.47,0-0.63
			c-0.12-0.1-0.26-0.19-0.4-0.24c-0.26-0.1-0.53-0.18-0.81-0.24c-0.82-0.16-1.64-0.23-2.47-0.23c-0.85,0-1.69,0.08-2.52,0.23
			c-0.67,0.13-1.32,0.31-1.94,0.6c-0.46,0.22-0.9,0.48-1.22,0.89c-0.29,0.37-0.38,0.77-0.22,1.22c0.14,0.4,0.44,0.68,0.79,0.91
			c0.02,0.01,0.05,0.01,0.07,0C198.25,108.07,198.41,107.98,198.57,107.88z M197.78,115.32c0.01-0.18,0.08-0.33,0.17-0.46
			c0.2-0.27,0.48-0.46,0.77-0.62c0.04-0.02,0.1-0.02,0.14-0.01c0.2,0.07,0.39,0.15,0.59,0.21c0.81,0.25,1.63,0.38,2.47,0.44
			c0.79,0.06,1.58,0.05,2.37-0.03c0.7-0.07,1.39-0.16,2.05-0.4c0.2-0.07,0.4-0.16,0.57-0.31c0.13-0.12,0.18-0.3,0.13-0.47
			c-0.05-0.14-0.15-0.23-0.27-0.3c-0.3-0.18-0.64-0.27-0.99-0.34c-0.7-0.14-1.41-0.21-2.12-0.23c-1.19-0.03-2.36,0.07-3.52,0.36
			c-0.69,0.17-1.36,0.41-1.97,0.8c-0.34,0.23-0.64,0.5-0.82,0.88c-0.07,0.15-0.1,0.32-0.1,0.49
			C197.45,115.33,197.61,115.33,197.78,115.32z M198.53,96.51c-0.43-0.26-0.86-0.5-0.99-1.02c-0.17,0-0.34,0-0.51,0.01
			c0.02,0.18,0.06,0.35,0.14,0.5c0.16,0.29,0.4,0.51,0.67,0.71c0.11,0.08,0.19,0.09,0.31,0.01
			C198.26,96.64,198.39,96.58,198.53,96.51z"/>
		<path d="M198.45,99.4c-0.14,0.08-0.3,0.17-0.45,0.26c-0.02,0.01-0.05,0.01-0.07,0c-0.4-0.28-0.75-0.6-0.84-1.12
			c-0.08-0.45,0.09-0.83,0.39-1.15c0.26-0.28,0.58-0.49,0.92-0.66c0.61-0.31,1.26-0.51,1.93-0.65c1.02-0.22,2.04-0.3,3.08-0.27
			c0.83,0.02,1.65,0.09,2.45,0.3c0.29,0.08,0.57,0.16,0.82,0.35c0.23,0.17,0.26,0.48,0.05,0.68c-0.17,0.17-0.4,0.25-0.62,0.33
			c-0.49,0.18-1,0.26-1.51,0.33c-0.6,0.09-1.2,0.13-1.8,0.13c-0.76,0-1.51-0.05-2.26-0.18c-0.65-0.11-1.28-0.27-1.89-0.52
			c-0.03-0.01-0.07-0.01-0.1,0c-0.27,0.15-0.54,0.32-0.74,0.56c-0.33,0.39-0.32,0.77,0.07,1.16
			C198.05,99.12,198.26,99.25,198.45,99.4z M199.28,96.9c0.06,0.02,0.09,0.04,0.12,0.04c0.29,0.07,0.57,0.16,0.86,0.22
			c0.65,0.14,1.31,0.22,1.97,0.24c0.93,0.03,1.86-0.02,2.78-0.19c0.39-0.07,0.77-0.15,1.13-0.31c0.05-0.02,0.1-0.05,0.17-0.09
			c-0.06-0.02-0.09-0.04-0.12-0.05c-0.38-0.16-0.78-0.24-1.19-0.3c-0.82-0.12-1.64-0.16-2.46-0.13c-0.86,0.03-1.7,0.14-2.54,0.35
			C199.76,96.75,199.54,96.82,199.28,96.9z"/>
		<path d="M198.57,110.73c-0.13,0.08-0.28,0.17-0.43,0.26c-0.02,0.01-0.07,0.01-0.09-0.01c-0.32-0.22-0.61-0.47-0.76-0.84
			c-0.12-0.3-0.13-0.6-0.01-0.91c0.15-0.38,0.43-0.64,0.75-0.87c0.28-0.2,0.59-0.35,0.9-0.49c0.59-0.25,1.21-0.42,1.84-0.52
			c0.55-0.09,1.11-0.16,1.66-0.19c0.84-0.05,1.67-0.03,2.5,0.09c0.49,0.07,0.99,0.14,1.46,0.33c0.14,0.06,0.28,0.12,0.41,0.21
			c0.29,0.21,0.26,0.58-0.04,0.78c-0.29,0.19-0.61,0.29-0.93,0.37c-0.5,0.13-1,0.22-1.52,0.25c-0.55,0.03-1.1,0.07-1.65,0.07
			c-0.89,0-1.78-0.08-2.64-0.31c-0.41-0.11-0.81-0.25-1.21-0.37c-0.03-0.01-0.08-0.02-0.11-0.01c-0.3,0.15-0.57,0.34-0.78,0.6
			c-0.11,0.13-0.19,0.29-0.2,0.46c-0.02,0.24,0.08,0.45,0.25,0.61C198.16,110.41,198.37,110.56,198.57,110.73z M199.45,108.21
			c0,0.01,0,0.03,0,0.04c0.03,0.01,0.06,0.02,0.09,0.03c0.55,0.16,1.11,0.29,1.68,0.35c0.59,0.07,1.19,0.12,1.78,0.1
			c0.56-0.02,1.13-0.07,1.69-0.13c0.53-0.05,1.04-0.16,1.53-0.35c0.07-0.03,0.14-0.06,0.22-0.1c-0.28-0.15-0.57-0.22-0.85-0.28
			c-0.66-0.14-1.34-0.2-2.01-0.21c-1.05-0.02-2.08,0.04-3.11,0.27C200.13,108.02,199.79,108.12,199.45,108.21z"/>
		<path d="M198.64,113.55c-0.17,0.1-0.32,0.19-0.47,0.27c-0.02,0.01-0.06,0-0.09-0.01c-0.29-0.19-0.55-0.43-0.71-0.75
			c-0.22-0.46-0.18-0.9,0.12-1.31c0.24-0.33,0.55-0.55,0.9-0.75c0.37-0.22,0.77-0.38,1.18-0.51c0.57-0.18,1.15-0.32,1.74-0.38
			c0.6-0.06,1.2-0.11,1.81-0.13c0.69-0.02,1.38,0.04,2.06,0.13c0.49,0.07,0.96,0.17,1.42,0.37c0.11,0.05,0.21,0.11,0.3,0.18
			c0.22,0.19,0.2,0.51-0.05,0.7c-0.18,0.14-0.39,0.22-0.6,0.29c-0.48,0.17-0.98,0.24-1.48,0.32c-0.59,0.09-1.18,0.13-1.78,0.13
			c-0.85,0-1.69-0.07-2.53-0.23c-0.55-0.1-1.09-0.25-1.61-0.47c-0.07-0.03-0.12-0.03-0.18,0.01c-0.23,0.14-0.46,0.29-0.65,0.49
			c-0.15,0.16-0.26,0.33-0.27,0.55c-0.02,0.25,0.09,0.45,0.26,0.61c0.17,0.16,0.37,0.29,0.55,0.43
			C198.58,113.51,198.61,113.53,198.64,113.55z M199.48,111.05c0,0.01,0,0.02,0,0.03c0.03,0.01,0.07,0.03,0.1,0.03
			c0.33,0.08,0.66,0.18,0.99,0.24c0.97,0.2,1.96,0.23,2.95,0.19c0.82-0.03,1.63-0.13,2.43-0.35c0.18-0.05,0.35-0.11,0.51-0.23
			c-0.26-0.1-0.51-0.21-0.78-0.26c-0.7-0.14-1.4-0.21-2.11-0.23c-1.17-0.02-2.32,0.08-3.46,0.38
			C199.9,110.92,199.69,110.99,199.48,111.05z"/>
		<path d="M198.53,105.05c-0.17,0.1-0.32,0.19-0.48,0.28c-0.02,0.01-0.06,0-0.08-0.02c-0.31-0.21-0.58-0.45-0.73-0.8
			c-0.19-0.44-0.14-0.86,0.14-1.25c0.26-0.37,0.62-0.62,1.01-0.82c0.69-0.37,1.43-0.58,2.19-0.73c0.77-0.16,1.55-0.22,2.34-0.23
			c0.87-0.01,1.74,0.03,2.59,0.21c0.28,0.06,0.56,0.14,0.83,0.23c0.15,0.05,0.29,0.13,0.41,0.22c0.2,0.15,0.27,0.43,0.08,0.64
			c-0.08,0.09-0.19,0.16-0.3,0.22c-0.4,0.21-0.83,0.3-1.27,0.39c-1,0.19-2.01,0.24-3.03,0.21c-0.66-0.02-1.32-0.1-1.96-0.23
			c-0.53-0.1-1.05-0.25-1.56-0.46c-0.03-0.01-0.07-0.02-0.09,0c-0.29,0.16-0.57,0.34-0.78,0.6c-0.11,0.14-0.19,0.3-0.2,0.48
			c-0.01,0.22,0.09,0.4,0.22,0.56c0.16,0.19,0.36,0.33,0.57,0.46C198.47,105.01,198.5,105.03,198.53,105.05z M199.37,102.56
			c0,0.01,0,0.03,0,0.04c0.23,0.06,0.46,0.12,0.69,0.18c0.75,0.19,1.51,0.26,2.28,0.29c0.77,0.03,1.53-0.01,2.29-0.11
			c0.46-0.06,0.91-0.15,1.35-0.29c0.13-0.04,0.25-0.1,0.38-0.15c0-0.01,0-0.02,0-0.03c-0.07-0.03-0.15-0.07-0.22-0.09
			c-0.47-0.17-0.96-0.25-1.46-0.31c-0.79-0.09-1.58-0.11-2.38-0.06c-0.8,0.05-1.6,0.15-2.38,0.38
			C199.74,102.44,199.56,102.5,199.37,102.56z"/>
		<path d="M198.5,102.22c-0.17,0.1-0.32,0.19-0.48,0.27c-0.02,0.01-0.05,0.01-0.07-0.01c-0.38-0.28-0.74-0.58-0.83-1.09
			c-0.06-0.36,0.02-0.68,0.23-0.98c0.29-0.4,0.68-0.65,1.11-0.87c0.56-0.28,1.15-0.47,1.77-0.6c0.9-0.19,1.81-0.3,2.73-0.3
			c0.6,0,1.19,0.03,1.78,0.1c0.58,0.07,1.17,0.16,1.71,0.4c0.11,0.05,0.23,0.12,0.32,0.21c0.21,0.19,0.18,0.51-0.05,0.68
			c-0.31,0.23-0.67,0.33-1.03,0.42c-0.81,0.2-1.63,0.27-2.46,0.31c-0.74,0.03-1.47-0.01-2.2-0.1c-0.8-0.1-1.57-0.28-2.32-0.58
			c-0.04-0.02-0.1-0.01-0.14,0.01c-0.29,0.14-0.55,0.33-0.75,0.58c-0.21,0.28-0.26,0.53-0.11,0.83c0.13,0.26,0.35,0.43,0.59,0.59
			C198.35,102.13,198.42,102.17,198.5,102.22z M206.32,99.68c0-0.02,0-0.03,0-0.05c-0.17-0.06-0.35-0.14-0.52-0.18
			c-0.83-0.2-1.67-0.28-2.53-0.29c-1.12-0.01-2.23,0.09-3.32,0.38c-0.21,0.05-0.41,0.13-0.61,0.19c0.05,0.04,0.1,0.06,0.15,0.07
			c0.46,0.13,0.91,0.25,1.39,0.3c0.51,0.05,1.01,0.1,1.52,0.13c0.58,0.03,1.16,0,1.74-0.06c0.56-0.06,1.12-0.13,1.67-0.3
			C205.98,99.82,206.15,99.74,206.32,99.68z"/>
		<path d="M198.57,107.88c-0.16,0.09-0.32,0.18-0.48,0.27c-0.02,0.01-0.05,0.01-0.07,0c-0.35-0.23-0.65-0.5-0.79-0.91
			c-0.15-0.44-0.06-0.85,0.22-1.22c0.32-0.41,0.76-0.67,1.22-0.89c0.62-0.29,1.27-0.47,1.94-0.6c0.83-0.16,1.68-0.23,2.52-0.23
			c0.83,0,1.66,0.07,2.47,0.23c0.27,0.05,0.54,0.14,0.81,0.24c0.14,0.05,0.28,0.14,0.4,0.24c0.19,0.16,0.2,0.47,0,0.63
			c-0.13,0.11-0.28,0.2-0.43,0.26c-0.69,0.29-1.42,0.37-2.16,0.46c-0.64,0.07-1.29,0.1-1.94,0.06c-0.48-0.03-0.96-0.08-1.43-0.13
			c-0.54-0.06-1.07-0.2-1.58-0.36c-0.17-0.05-0.34-0.13-0.51-0.19c-0.04-0.01-0.11-0.02-0.15,0.01c-0.25,0.14-0.49,0.29-0.68,0.51
			c-0.08,0.1-0.16,0.21-0.21,0.33c-0.13,0.28-0.04,0.53,0.13,0.75c0.16,0.21,0.38,0.37,0.61,0.5
			C198.51,107.84,198.54,107.86,198.57,107.88z M206.39,105.34c0-0.02,0-0.03,0-0.05c-0.26-0.08-0.52-0.19-0.79-0.24
			c-0.83-0.16-1.67-0.24-2.52-0.23c-0.79,0.01-1.58,0.08-2.36,0.23c-0.45,0.08-0.88,0.2-1.32,0.36c0.04,0.02,0.07,0.03,0.1,0.04
			c0.4,0.1,0.79,0.21,1.19,0.28c0.51,0.08,1.03,0.14,1.55,0.17c0.88,0.05,1.76,0,2.63-0.14c0.37-0.06,0.74-0.15,1.11-0.25
			C206.11,105.47,206.25,105.39,206.39,105.34z"/>
		<path d="M197.78,115.32c-0.17,0-0.33,0-0.51,0.01c-0.01-0.17,0.02-0.34,0.1-0.49c0.18-0.38,0.47-0.65,0.82-0.88
			c0.6-0.4,1.27-0.63,1.97-0.8c1.16-0.29,2.33-0.39,3.52-0.36c0.71,0.02,1.42,0.09,2.12,0.23c0.34,0.07,0.68,0.16,0.99,0.34
			c0.12,0.07,0.23,0.16,0.27,0.3c0.06,0.17,0.01,0.36-0.13,0.47c-0.17,0.14-0.36,0.23-0.57,0.31c-0.66,0.24-1.36,0.33-2.05,0.4
			c-0.79,0.08-1.58,0.09-2.37,0.03c-0.84-0.06-1.67-0.19-2.47-0.44c-0.2-0.06-0.39-0.14-0.59-0.21c-0.04-0.01-0.11-0.01-0.14,0.01
			c-0.3,0.16-0.57,0.35-0.77,0.62C197.86,114.99,197.79,115.15,197.78,115.32z M199.51,113.88c0,0.01,0,0.02,0.01,0.03
			c0.01,0,0.02,0.01,0.02,0.01c0.45,0.1,0.89,0.23,1.34,0.31c0.47,0.08,0.95,0.13,1.42,0.15c0.71,0.04,1.42,0.02,2.12-0.07
			c0.52-0.06,1.05-0.13,1.56-0.29c0.17-0.06,0.34-0.13,0.51-0.19c0-0.02,0-0.03,0-0.05c-0.22-0.07-0.43-0.16-0.66-0.21
			c-0.65-0.15-1.32-0.23-1.99-0.25c-0.69-0.03-1.38-0.02-2.06,0.07c-0.47,0.06-0.94,0.15-1.41,0.24
			C200.09,113.7,199.8,113.8,199.51,113.88z"/>
		<path d="M198.53,96.51c-0.13,0.07-0.27,0.12-0.38,0.2c-0.12,0.08-0.2,0.07-0.31-0.01c-0.27-0.2-0.5-0.41-0.67-0.71
			c-0.09-0.15-0.13-0.32-0.14-0.5c0.17,0,0.34,0,0.51-0.01C197.67,96.02,198.1,96.25,198.53,96.51z"/>
		<path class="st8" d="M199.28,96.9c0.26-0.08,0.49-0.15,0.72-0.21c0.83-0.22,1.68-0.32,2.54-0.35c0.83-0.03,1.65,0.01,2.46,0.13
			c0.41,0.06,0.81,0.14,1.19,0.3c0.03,0.01,0.07,0.03,0.12,0.05c-0.07,0.03-0.12,0.06-0.17,0.09c-0.36,0.16-0.75,0.24-1.13,0.31
			c-0.92,0.17-1.85,0.21-2.78,0.19c-0.66-0.02-1.32-0.09-1.97-0.24c-0.29-0.06-0.58-0.15-0.86-0.22
			C199.36,96.94,199.33,96.92,199.28,96.9z"/>
		<path class="st8" d="M199.45,108.21c0.34-0.09,0.68-0.19,1.03-0.27c1.02-0.24,2.06-0.3,3.11-0.27c0.68,0.02,1.35,0.07,2.01,0.21
			c0.28,0.06,0.57,0.13,0.85,0.28c-0.08,0.04-0.15,0.07-0.22,0.1c-0.49,0.19-1.01,0.3-1.53,0.35c-0.56,0.05-1.13,0.11-1.69,0.13
			c-0.59,0.02-1.19-0.03-1.78-0.1c-0.57-0.07-1.13-0.19-1.68-0.35c-0.03-0.01-0.06-0.02-0.09-0.03
			C199.45,108.23,199.45,108.22,199.45,108.21z"/>
		<path class="st8" d="M199.48,111.05c0.21-0.06,0.42-0.13,0.63-0.19c1.13-0.3,2.29-0.4,3.46-0.38c0.71,0.01,1.42,0.09,2.11,0.23
			c0.27,0.05,0.52,0.16,0.78,0.26c-0.16,0.12-0.33,0.18-0.51,0.23c-0.8,0.22-1.61,0.32-2.43,0.35c-0.99,0.04-1.97,0-2.95-0.19
			c-0.33-0.07-0.66-0.16-0.99-0.24c-0.03-0.01-0.07-0.02-0.1-0.03C199.48,111.07,199.48,111.06,199.48,111.05z"/>
		<path class="st8" d="M199.37,102.56c0.18-0.06,0.37-0.11,0.55-0.16c0.78-0.22,1.57-0.33,2.38-0.38c0.79-0.05,1.59-0.03,2.38,0.06
			c0.5,0.06,0.99,0.14,1.46,0.31c0.07,0.03,0.15,0.06,0.22,0.09c0,0.01,0,0.02,0,0.03c-0.13,0.05-0.25,0.11-0.38,0.15
			c-0.44,0.15-0.89,0.23-1.35,0.29c-0.76,0.1-1.52,0.14-2.29,0.11c-0.77-0.03-1.53-0.1-2.28-0.29c-0.23-0.06-0.46-0.12-0.69-0.18
			C199.37,102.58,199.37,102.57,199.37,102.56z"/>
		<path class="st8" d="M206.32,99.68c-0.17,0.06-0.34,0.14-0.52,0.19c-0.54,0.17-1.1,0.24-1.67,0.3c-0.58,0.06-1.16,0.09-1.74,0.06
			c-0.51-0.03-1.02-0.08-1.52-0.13c-0.47-0.05-0.93-0.17-1.39-0.3c-0.05-0.01-0.1-0.03-0.15-0.07c0.2-0.06,0.41-0.13,0.61-0.19
			c1.09-0.29,2.2-0.39,3.32-0.38c0.85,0.01,1.7,0.09,2.53,0.29c0.18,0.04,0.35,0.12,0.52,0.18
			C206.32,99.65,206.32,99.67,206.32,99.68z"/>
		<path class="st8" d="M206.39,105.34c-0.14,0.06-0.28,0.13-0.43,0.17c-0.37,0.09-0.73,0.18-1.11,0.25
			c-0.87,0.15-1.75,0.19-2.63,0.14c-0.52-0.03-1.03-0.09-1.55-0.17c-0.4-0.06-0.79-0.18-1.19-0.28c-0.03-0.01-0.06-0.02-0.1-0.04
			c0.44-0.16,0.88-0.27,1.32-0.36c0.78-0.15,1.56-0.22,2.36-0.23c0.85-0.01,1.69,0.07,2.52,0.23c0.27,0.05,0.53,0.16,0.79,0.24
			C206.39,105.3,206.39,105.32,206.39,105.34z"/>
		<path class="st8" d="M199.51,113.88c0.29-0.08,0.57-0.18,0.86-0.24c0.47-0.1,0.94-0.18,1.41-0.24c0.68-0.09,1.37-0.1,2.06-0.07
			c0.67,0.03,1.33,0.1,1.99,0.25c0.22,0.05,0.44,0.14,0.66,0.21c0,0.02,0,0.03,0,0.05c-0.17,0.06-0.34,0.13-0.51,0.19
			c-0.51,0.16-1.03,0.23-1.56,0.29c-0.71,0.09-1.41,0.11-2.12,0.07c-0.48-0.03-0.95-0.08-1.42-0.15c-0.45-0.08-0.9-0.2-1.34-0.31
			c-0.01,0-0.02-0.01-0.02-0.01C199.52,113.9,199.52,113.89,199.51,113.88z"/>
	</g>
	<g>
		<path class="st8" d="M194.9,49.37c0.3,24.73,0.6,49.46,0.89,74.2c-4.82,0.06-9.64,0.12-14.46,0.17c-0.3-24.73-0.6-49.47-0.89-74.2
			C185.26,49.49,190.08,49.43,194.9,49.37z M183.95,67.83c-0.19-0.46-0.4-0.88-0.58-1.41c-0.4-1.2-0.41-2.38-0.1-3.6
			c0.2-0.75,0.45-1.26,0.72-1.72c0.03-0.04,0.07-0.05,0.1-0.01c0.62,0.81,1.25,1.32,1.91,1.67c0.75,0.41,1.51,0.6,2.27,0.62
			c0.6,0.01,1.2-0.09,1.8-0.35c0.51-0.22,1.02-0.43,1.5-0.99c0.22-0.25,0.44-0.48,0.61-1.02c0.2-0.63,0.16-1.58-0.07-2.13
			c-0.25-0.58-0.54-0.85-0.82-1.1c-0.81-0.69-1.64-0.91-2.46-1c-1.04-0.12-2.06,0.11-3.07,0.75c-0.67,0.43-1.31,1.01-1.92,1.97
			c-0.33,0.53-0.65,1.16-0.9,2.03c-0.29,1-0.45,2.16-0.36,3.57c0.1,1.61,0.46,2.62,0.87,3.49c0.02,0.04,0.05,0.04,0.07,0.01
			C183.66,68.36,183.81,68.08,183.95,67.83z M184.36,103.09c-0.2-0.52-0.41-1-0.61-1.55c-0.18-0.51-0.28-1.16-0.27-1.91
			c0.01-0.54,0.08-1.01,0.19-1.43c0.21-0.81,0.47-1.38,0.76-1.84c0.03-0.04,0.07-0.01,0.11,0.03c0.41,0.4,0.81,0.85,1.22,1.19
			c0.87,0.73,1.76,1,2.65,1.02c0.55,0.01,1.1-0.08,1.65-0.18c0.51-0.08,1.02-0.36,1.51-0.74c0.32-0.25,0.64-0.55,0.92-1.12
			c0.3-0.6,0.32-1.74,0.02-2.41c-0.12-0.28-0.27-0.49-0.41-0.68c-0.47-0.6-0.97-0.82-1.47-1.05c-0.83-0.39-1.67-0.49-2.51-0.35
			c-0.56,0.1-1.11,0.31-1.66,0.56c-0.63,0.29-1.24,0.81-1.83,1.57c-0.31,0.41-0.62,0.88-0.89,1.49c-0.32,0.71-0.59,1.52-0.73,2.69
			c-0.11,0.94-0.1,1.9,0.03,2.83c0.16,1.15,0.45,1.95,0.78,2.64c0.02,0.05,0.07,0.06,0.09,0.02
			C184.08,103.62,184.23,103.34,184.36,103.09z M184.5,111.86c-0.03-0.06-0.05-0.1-0.07-0.15c-0.19-0.45-0.39-0.86-0.56-1.36
			c-0.18-0.5-0.29-1.15-0.27-1.91c0.01-0.67,0.12-1.22,0.26-1.71c0.18-0.62,0.41-1.07,0.64-1.5c0.06-0.12,0.11-0.13,0.18-0.04
			c0.52,0.68,1.06,1.15,1.62,1.49c0.84,0.51,1.68,0.76,2.53,0.77c0.6,0.01,1.19-0.11,1.78-0.36c0.5-0.21,1-0.43,1.47-0.95
			c0.21-0.22,0.42-0.45,0.59-0.89c0.24-0.6,0.26-1.59,0.03-2.19c-0.09-0.24-0.2-0.43-0.3-0.58c-0.46-0.62-0.94-0.97-1.43-1.18
			c-0.69-0.31-1.38-0.52-2.07-0.46c-0.6,0.05-1.21,0.2-1.81,0.37c-0.59,0.17-1.17,0.6-1.73,1.15c-0.4,0.39-0.79,0.88-1.16,1.54
			c-0.34,0.61-0.65,1.31-0.88,2.33c-0.29,1.28-0.32,2.66-0.09,4.09c0.16,1,0.43,1.72,0.73,2.34c0.02,0.05,0.07,0.08,0.09,0.04
			C184.19,112.43,184.33,112.16,184.5,111.86z M184.18,85.42c-0.04-0.07-0.06-0.12-0.09-0.18c-0.21-0.41-0.42-0.85-0.58-1.44
			c-0.14-0.5-0.24-1.07-0.24-1.75c0-0.57,0.08-1.06,0.19-1.49c0.2-0.81,0.48-1.36,0.76-1.85c0.02-0.04,0.06-0.03,0.09,0.01
			c0.51,0.66,1.03,1.13,1.57,1.47c0.65,0.41,1.31,0.69,1.97,0.77c1.02,0.13,2.03-0.01,3.02-0.58c0.43-0.25,0.87-0.53,1.26-1.17
			c0.11-0.17,0.21-0.4,0.29-0.68c0.18-0.64,0.11-1.5-0.1-1.98c-0.13-0.29-0.27-0.54-0.42-0.69c-0.27-0.29-0.55-0.55-0.83-0.73
			c-0.86-0.57-1.73-0.73-2.6-0.71c-0.79,0.01-1.56,0.19-2.33,0.66c-0.76,0.46-1.5,1.09-2.18,2.22c-0.38,0.64-0.73,1.4-0.99,2.54
			c-0.27,1.22-0.31,2.53-0.1,3.9c0.16,1.08,0.44,1.85,0.75,2.5c0.02,0.04,0.06,0.08,0.08,0.05C183.86,86,184.02,85.72,184.18,85.42z
			 M184.08,76.61c-0.08-0.15-0.15-0.27-0.22-0.41c-0.24-0.49-0.46-1.03-0.6-1.85c-0.16-0.94-0.12-1.73,0.09-2.58
			c0.19-0.79,0.45-1.37,0.74-1.8c0.04-0.06,0.1-0.07,0.14-0.02c0.76,0.95,1.54,1.53,2.34,1.86c0.73,0.3,1.47,0.44,2.21,0.36
			c0.83-0.09,1.65-0.29,2.45-0.9c0.36-0.27,0.72-0.57,1.02-1.28c0.22-0.53,0.25-1.52,0.03-2.12c-0.09-0.27-0.21-0.49-0.32-0.65
			c-0.55-0.77-1.14-1.05-1.72-1.29c-0.59-0.24-1.19-0.35-1.78-0.35c-0.92-0.01-1.83,0.29-2.73,0.87c-0.61,0.39-1.2,0.97-1.75,1.84
			c-0.42,0.66-0.81,1.45-1.09,2.68c-0.21,0.92-0.28,1.93-0.21,3.05c0.1,1.58,0.47,2.53,0.86,3.41c0.02,0.04,0.05,0.05,0.07,0.02
			C183.76,77.18,183.91,76.9,184.08,76.61z M184.29,94.24c-0.03-0.07-0.06-0.12-0.09-0.17c-0.23-0.42-0.45-0.91-0.62-1.57
			c-0.18-0.7-0.27-1.48-0.15-2.33c0.05-0.36,0.12-0.7,0.2-1.01c0.18-0.68,0.42-1.14,0.66-1.57c0.04-0.07,0.1-0.06,0.15-0.01
			c0.17,0.19,0.34,0.43,0.52,0.6c0.52,0.51,1.05,0.95,1.59,1.14c0.48,0.17,0.96,0.36,1.44,0.45c0.65,0.13,1.29,0.07,1.94-0.14
			c0.73-0.24,1.46-0.49,2.15-1.37c0.15-0.2,0.3-0.48,0.42-0.81c0.19-0.49,0.18-1.46-0.02-1.96c-0.12-0.31-0.26-0.59-0.41-0.76
			c-0.27-0.31-0.54-0.58-0.81-0.75c-0.82-0.52-1.65-0.75-2.48-0.77c-0.85-0.02-1.69,0.19-2.52,0.66c-0.67,0.37-1.32,0.92-1.93,1.81
			c-0.46,0.67-0.89,1.46-1.2,2.75c-0.28,1.14-0.36,2.4-0.19,3.78c0.15,1.26,0.46,2.13,0.81,2.84c0.02,0.04,0.05,0.05,0.07,0.02
			C183.98,94.8,184.13,94.53,184.29,94.24z M183.69,117.37c0.01-0.55,0.07-1.02,0.16-1.43c0.2-0.84,0.47-1.43,0.76-1.91
			c0.04-0.06,0.1-0.07,0.14-0.02c0.2,0.21,0.4,0.47,0.6,0.67c0.81,0.8,1.64,1.23,2.48,1.44c0.79,0.2,1.58,0.2,2.37-0.03
			c0.69-0.21,1.39-0.47,2.04-1.19c0.2-0.22,0.39-0.5,0.56-0.94c0.13-0.36,0.18-0.94,0.12-1.47c-0.05-0.44-0.16-0.71-0.28-0.93
			c-0.31-0.57-0.65-0.87-0.99-1.09c-0.7-0.46-1.41-0.7-2.13-0.78c-1.19-0.13-2.36,0.16-3.51,1.02c-0.69,0.52-1.35,1.23-1.95,2.45
			c-0.34,0.69-0.63,1.53-0.8,2.71c-0.07,0.48-0.1,0.99-0.08,1.53C183.36,117.38,183.52,117.38,183.69,117.37z M183.96,58.86
			c-0.43-0.81-0.87-1.56-1.01-3.2c-0.17,0-0.34,0-0.51,0.01c0.02,0.56,0.06,1.08,0.15,1.56c0.17,0.91,0.41,1.59,0.69,2.21
			c0.11,0.26,0.2,0.3,0.31,0.05C183.69,59.24,183.82,59.08,183.96,58.86z"/>
		<path d="M183.95,67.83c-0.14,0.25-0.29,0.53-0.45,0.79c-0.02,0.03-0.05,0.03-0.07-0.01c-0.41-0.88-0.77-1.88-0.87-3.49
			c-0.09-1.42,0.07-2.57,0.36-3.57c0.25-0.87,0.57-1.5,0.9-2.03c0.6-0.96,1.25-1.55,1.92-1.97c1.01-0.65,2.04-0.87,3.07-0.75
			c0.83,0.09,1.65,0.31,2.46,1c0.29,0.25,0.58,0.52,0.82,1.1c0.23,0.55,0.27,1.5,0.07,2.13c-0.17,0.53-0.39,0.76-0.61,1.02
			c-0.48,0.56-0.99,0.77-1.5,0.99c-0.59,0.25-1.19,0.36-1.8,0.35c-0.76-0.02-1.52-0.21-2.27-0.62c-0.65-0.35-1.29-0.86-1.91-1.67
			c-0.03-0.04-0.07-0.03-0.1,0.01c-0.27,0.46-0.53,0.97-0.72,1.72c-0.32,1.21-0.3,2.4,0.1,3.6
			C183.55,66.95,183.76,67.37,183.95,67.83z M184.72,60.09c0.06,0.07,0.09,0.12,0.12,0.14c0.29,0.24,0.58,0.5,0.87,0.71
			c0.65,0.46,1.31,0.71,1.98,0.79c0.93,0.1,1.86,0,2.78-0.51c0.38-0.21,0.77-0.44,1.12-0.93c0.05-0.07,0.1-0.16,0.16-0.26
			c-0.06-0.07-0.09-0.12-0.12-0.16c-0.39-0.51-0.79-0.78-1.2-0.97c-0.82-0.39-1.64-0.55-2.47-0.47c-0.86,0.08-1.7,0.38-2.53,1.04
			C185.2,59.63,184.97,59.86,184.72,60.09z"/>
		<path d="M184.36,103.09c-0.13,0.25-0.28,0.53-0.42,0.79c-0.02,0.04-0.07,0.02-0.09-0.02c-0.33-0.69-0.62-1.49-0.78-2.64
			c-0.13-0.93-0.14-1.88-0.03-2.83c0.14-1.17,0.41-1.99,0.73-2.69c0.28-0.62,0.58-1.09,0.89-1.49c0.59-0.76,1.2-1.28,1.83-1.57
			c0.55-0.25,1.1-0.47,1.66-0.56c0.83-0.15,1.67-0.04,2.51,0.35c0.5,0.23,0.99,0.45,1.47,1.05c0.14,0.18,0.29,0.39,0.41,0.68
			c0.29,0.67,0.27,1.81-0.02,2.41c-0.28,0.57-0.6,0.87-0.92,1.12c-0.49,0.38-1,0.66-1.51,0.74c-0.55,0.09-1.1,0.19-1.65,0.18
			c-0.89-0.02-1.78-0.3-2.65-1.02c-0.41-0.34-0.82-0.8-1.22-1.19c-0.03-0.03-0.08-0.07-0.11-0.03c-0.29,0.47-0.56,1.04-0.76,1.84
			c-0.11,0.42-0.18,0.89-0.19,1.43c-0.01,0.75,0.09,1.41,0.27,1.91C183.94,102.08,184.15,102.57,184.36,103.09z M185.17,95.27
			c0,0.04,0,0.08,0,0.13c0.03,0.03,0.06,0.07,0.09,0.1c0.56,0.52,1.12,0.92,1.69,1.14c0.59,0.23,1.19,0.4,1.78,0.36
			c0.56-0.05,1.13-0.2,1.69-0.35c0.52-0.14,1.03-0.47,1.52-1.05c0.07-0.08,0.13-0.19,0.22-0.31c-0.29-0.48-0.57-0.7-0.86-0.89
			c-0.67-0.46-1.34-0.65-2.02-0.72c-1.05-0.1-2.08,0.07-3.1,0.77C185.85,94.69,185.51,95,185.17,95.27z"/>
		<path d="M184.5,111.86c-0.16,0.3-0.31,0.57-0.47,0.83c-0.02,0.03-0.06,0-0.09-0.04c-0.3-0.61-0.56-1.34-0.73-2.34
			c-0.23-1.42-0.2-2.81,0.09-4.09c0.23-1.01,0.54-1.71,0.88-2.33c0.37-0.66,0.76-1.15,1.16-1.54c0.56-0.55,1.14-0.98,1.73-1.15
			c0.6-0.17,1.2-0.31,1.81-0.37c0.69-0.06,1.38,0.15,2.07,0.46c0.49,0.22,0.97,0.57,1.43,1.18c0.11,0.14,0.21,0.34,0.3,0.58
			c0.23,0.6,0.21,1.59-0.03,2.19c-0.17,0.44-0.38,0.67-0.59,0.89c-0.48,0.52-0.98,0.73-1.47,0.95c-0.59,0.25-1.18,0.36-1.78,0.36
			c-0.85-0.01-1.69-0.26-2.53-0.77c-0.55-0.34-1.09-0.81-1.62-1.49c-0.07-0.09-0.12-0.08-0.18,0.04c-0.23,0.43-0.45,0.88-0.64,1.5
			c-0.14,0.48-0.25,1.03-0.26,1.71c-0.01,0.76,0.1,1.41,0.27,1.91c0.17,0.5,0.37,0.91,0.56,1.36
			C184.45,111.76,184.47,111.8,184.5,111.86z M185.28,104.12c0,0.03,0,0.06,0,0.09c0.03,0.04,0.07,0.08,0.1,0.11
			c0.33,0.26,0.66,0.56,1,0.78c0.98,0.64,1.96,0.77,2.95,0.68c0.82-0.08,1.63-0.37,2.42-1.03c0.18-0.15,0.35-0.34,0.5-0.7
			c-0.26-0.31-0.52-0.65-0.78-0.82c-0.7-0.44-1.41-0.7-2.12-0.75c-1.17-0.1-2.32,0.17-3.45,1.08
			C185.69,103.73,185.49,103.93,185.28,104.12z"/>
		<path d="M184.18,85.42c-0.16,0.3-0.32,0.58-0.47,0.85c-0.02,0.03-0.06-0.01-0.08-0.05c-0.31-0.65-0.6-1.42-0.75-2.5
			c-0.2-1.36-0.16-2.68,0.1-3.9c0.25-1.13,0.6-1.9,0.99-2.54c0.68-1.13,1.42-1.75,2.18-2.22c0.77-0.47,1.55-0.64,2.33-0.66
			c0.87-0.02,1.74,0.14,2.6,0.71c0.28,0.19,0.56,0.44,0.83,0.73c0.15,0.16,0.29,0.4,0.42,0.69c0.21,0.48,0.28,1.34,0.1,1.98
			c-0.08,0.28-0.18,0.5-0.29,0.68c-0.39,0.64-0.83,0.92-1.26,1.17c-1,0.58-2.01,0.71-3.02,0.58c-0.66-0.08-1.32-0.36-1.97-0.77
			c-0.54-0.34-1.06-0.81-1.57-1.47c-0.03-0.04-0.07-0.05-0.09-0.01c-0.29,0.48-0.56,1.04-0.76,1.85c-0.11,0.43-0.18,0.92-0.19,1.49
			c-0.01,0.68,0.1,1.24,0.24,1.75c0.16,0.59,0.37,1.03,0.58,1.44C184.12,85.3,184.14,85.35,184.18,85.42z M184.95,77.69
			c0,0.04,0,0.08,0,0.12c0.23,0.19,0.46,0.39,0.69,0.57c0.75,0.6,1.52,0.85,2.29,0.96c0.77,0.1,1.53-0.01,2.29-0.29
			c0.46-0.17,0.91-0.43,1.34-0.87c0.13-0.13,0.25-0.31,0.38-0.46c0-0.03,0-0.06,0-0.09c-0.07-0.1-0.15-0.21-0.22-0.29
			c-0.48-0.53-0.97-0.8-1.47-0.99c-0.79-0.3-1.59-0.4-2.38-0.26c-0.8,0.14-1.6,0.44-2.37,1.11
			C185.32,77.35,185.14,77.52,184.95,77.69z"/>
		<path d="M184.08,76.61c-0.16,0.29-0.32,0.57-0.47,0.84c-0.02,0.03-0.05,0.02-0.07-0.02c-0.39-0.88-0.76-1.84-0.86-3.41
			c-0.07-1.12,0-2.13,0.21-3.05c0.28-1.23,0.67-2.02,1.09-2.68c0.55-0.87,1.14-1.44,1.75-1.84c0.9-0.58,1.8-0.88,2.73-0.87
			c0.6,0,1.19,0.11,1.78,0.35c0.59,0.24,1.17,0.51,1.72,1.29c0.12,0.16,0.23,0.39,0.32,0.65c0.21,0.6,0.19,1.59-0.03,2.12
			c-0.3,0.71-0.66,1.01-1.02,1.28c-0.8,0.6-1.62,0.81-2.45,0.9c-0.74,0.08-1.47-0.06-2.21-0.36c-0.8-0.33-1.58-0.91-2.34-1.86
			c-0.04-0.05-0.1-0.04-0.14,0.02c-0.29,0.43-0.55,1.01-0.74,1.8c-0.21,0.85-0.25,1.65-0.09,2.58c0.14,0.82,0.36,1.36,0.6,1.85
			C183.92,76.34,183.99,76.45,184.08,76.61z M191.84,68.92c0-0.05,0-0.1,0-0.15c-0.18-0.2-0.35-0.44-0.53-0.58
			c-0.83-0.66-1.68-0.93-2.53-0.98c-1.12-0.06-2.23,0.23-3.31,1.1c-0.2,0.16-0.41,0.38-0.61,0.57c0.05,0.13,0.1,0.18,0.15,0.23
			c0.46,0.41,0.92,0.82,1.39,0.97c0.51,0.16,1.02,0.35,1.53,0.45c0.58,0.12,1.16,0.04,1.74-0.14c0.56-0.18,1.12-0.37,1.66-0.88
			C191.5,69.33,191.67,69.11,191.84,68.92z"/>
		<path d="M184.29,94.24c-0.16,0.29-0.31,0.57-0.47,0.83c-0.02,0.03-0.05,0.02-0.07-0.02c-0.35-0.72-0.66-1.58-0.81-2.84
			c-0.16-1.38-0.08-2.64,0.19-3.78c0.31-1.28,0.74-2.08,1.2-2.75c0.61-0.89,1.26-1.44,1.93-1.81c0.83-0.47,1.67-0.68,2.52-0.66
			c0.83,0.02,1.66,0.25,2.48,0.77c0.28,0.17,0.55,0.45,0.81,0.75c0.15,0.17,0.28,0.45,0.41,0.76c0.2,0.5,0.21,1.47,0.02,1.96
			c-0.13,0.33-0.27,0.61-0.42,0.81c-0.68,0.88-1.41,1.13-2.15,1.37c-0.64,0.21-1.29,0.27-1.94,0.14c-0.48-0.1-0.96-0.28-1.44-0.45
			c-0.54-0.19-1.07-0.63-1.59-1.14c-0.18-0.17-0.34-0.41-0.52-0.6c-0.04-0.05-0.11-0.05-0.15,0.01c-0.25,0.43-0.48,0.89-0.66,1.57
			c-0.08,0.3-0.15,0.65-0.2,1.01c-0.12,0.85-0.03,1.63,0.15,2.33c0.17,0.66,0.39,1.15,0.62,1.57
			C184.23,94.11,184.26,94.17,184.29,94.24z M192.05,86.52c0-0.05,0-0.1,0-0.15c-0.27-0.26-0.53-0.59-0.8-0.76
			c-0.84-0.52-1.68-0.79-2.53-0.78c-0.79,0-1.58,0.2-2.35,0.65c-0.44,0.25-0.88,0.59-1.31,1.08c0.04,0.05,0.07,0.09,0.1,0.12
			c0.4,0.31,0.79,0.69,1.2,0.9c0.51,0.27,1.03,0.48,1.55,0.58c0.88,0.17,1.76,0.06,2.63-0.38c0.37-0.19,0.74-0.46,1.1-0.74
			C191.77,86.92,191.91,86.69,192.05,86.52z"/>
		<path d="M183.69,117.37c-0.17,0-0.33,0-0.51,0.01c-0.01-0.54,0.02-1.05,0.08-1.53c0.17-1.18,0.46-2.02,0.8-2.71
			c0.59-1.22,1.26-1.93,1.95-2.45c1.15-0.86,2.32-1.15,3.51-1.02c0.71,0.08,1.42,0.33,2.13,0.78c0.34,0.22,0.68,0.52,0.99,1.09
			c0.12,0.22,0.23,0.49,0.28,0.93c0.06,0.53,0.02,1.11-0.12,1.47c-0.16,0.44-0.35,0.71-0.56,0.94c-0.66,0.72-1.35,0.98-2.04,1.19
			c-0.79,0.24-1.58,0.23-2.37,0.03c-0.84-0.21-1.67-0.63-2.48-1.44c-0.2-0.2-0.4-0.46-0.6-0.67c-0.04-0.05-0.11-0.04-0.14,0.02
			c-0.29,0.48-0.56,1.07-0.76,1.91C183.76,116.35,183.7,116.82,183.69,117.37z M185.38,112.92c0,0.04,0.01,0.07,0.01,0.11
			c0.01,0.01,0.02,0.03,0.02,0.04c0.45,0.34,0.9,0.74,1.35,0.99c0.47,0.26,0.95,0.42,1.42,0.51c0.71,0.15,1.42,0.09,2.12-0.16
			c0.52-0.18,1.05-0.37,1.55-0.87c0.17-0.17,0.34-0.38,0.5-0.58c0-0.05,0-0.1,0-0.15c-0.22-0.23-0.44-0.51-0.66-0.67
			c-0.66-0.48-1.32-0.73-2-0.84c-0.69-0.11-1.38-0.1-2.06,0.17c-0.47,0.18-0.94,0.43-1.4,0.72
			C185.95,112.38,185.67,112.68,185.38,112.92z"/>
		<path d="M183.96,58.86c-0.13,0.22-0.26,0.38-0.37,0.62c-0.11,0.25-0.2,0.21-0.31-0.05c-0.27-0.62-0.51-1.3-0.69-2.21
			c-0.09-0.48-0.13-1-0.15-1.56c0.17,0,0.34,0,0.51-0.01C183.08,57.29,183.52,58.05,183.96,58.86z"/>
		<path class="st8" d="M184.72,60.09c0.26-0.23,0.48-0.46,0.71-0.64c0.83-0.65,1.67-0.95,2.53-1.04c0.82-0.08,1.65,0.08,2.47,0.47
			c0.41,0.2,0.81,0.47,1.2,0.97c0.03,0.04,0.07,0.09,0.12,0.16c-0.07,0.11-0.11,0.19-0.16,0.26c-0.36,0.49-0.74,0.72-1.12,0.93
			c-0.92,0.51-1.84,0.62-2.78,0.51c-0.66-0.07-1.33-0.33-1.98-0.79c-0.29-0.21-0.58-0.47-0.87-0.71
			C184.8,60.21,184.77,60.16,184.72,60.09z"/>
		<path class="st8" d="M185.17,95.27c0.34-0.28,0.68-0.58,1.02-0.82c1.02-0.71,2.05-0.88,3.1-0.77c0.68,0.07,1.35,0.26,2.02,0.72
			c0.28,0.2,0.57,0.41,0.86,0.89c-0.08,0.12-0.15,0.23-0.22,0.31c-0.49,0.58-1,0.91-1.52,1.05c-0.56,0.15-1.12,0.3-1.69,0.35
			c-0.59,0.05-1.19-0.12-1.78-0.36c-0.57-0.22-1.14-0.62-1.69-1.14c-0.03-0.03-0.06-0.07-0.09-0.1
			C185.18,95.36,185.17,95.32,185.17,95.27z"/>
		<path class="st8" d="M185.28,104.12c0.21-0.19,0.41-0.4,0.62-0.56c1.13-0.91,2.28-1.18,3.45-1.08c0.71,0.06,1.42,0.31,2.12,0.75
			c0.27,0.17,0.52,0.51,0.78,0.82c-0.16,0.37-0.33,0.56-0.5,0.7c-0.79,0.66-1.6,0.95-2.42,1.03c-0.99,0.09-1.97-0.04-2.95-0.68
			c-0.33-0.22-0.66-0.52-1-0.78c-0.03-0.03-0.07-0.07-0.1-0.11C185.28,104.18,185.28,104.15,185.28,104.12z"/>
		<path class="st8" d="M184.95,77.69c0.18-0.17,0.36-0.34,0.55-0.5c0.77-0.67,1.56-0.98,2.37-1.11c0.79-0.13,1.59-0.04,2.38,0.26
			c0.5,0.19,0.99,0.46,1.47,0.99c0.08,0.08,0.15,0.19,0.22,0.29c0,0.03,0,0.06,0,0.09c-0.12,0.16-0.25,0.34-0.38,0.46
			c-0.43,0.44-0.88,0.7-1.34,0.87c-0.76,0.28-1.52,0.39-2.29,0.29c-0.77-0.1-1.53-0.36-2.29-0.96c-0.23-0.19-0.46-0.38-0.69-0.57
			C184.96,77.77,184.96,77.73,184.95,77.69z"/>
		<path class="st8" d="M191.84,68.92c-0.17,0.2-0.34,0.42-0.52,0.58c-0.54,0.51-1.1,0.71-1.66,0.88c-0.58,0.18-1.16,0.26-1.74,0.14
			c-0.51-0.1-1.02-0.28-1.53-0.45c-0.47-0.15-0.93-0.56-1.39-0.97c-0.05-0.04-0.1-0.1-0.15-0.23c0.2-0.19,0.4-0.41,0.61-0.57
			c1.08-0.86,2.19-1.16,3.31-1.1c0.85,0.05,1.7,0.32,2.53,0.98c0.18,0.14,0.35,0.38,0.53,0.58
			C191.83,68.82,191.84,68.87,191.84,68.92z"/>
		<path class="st8" d="M192.05,86.52c-0.14,0.17-0.28,0.4-0.42,0.51c-0.36,0.28-0.73,0.55-1.1,0.74c-0.87,0.43-1.74,0.55-2.63,0.38
			c-0.52-0.1-1.04-0.31-1.55-0.58c-0.4-0.21-0.8-0.59-1.2-0.9c-0.03-0.02-0.06-0.07-0.1-0.12c0.44-0.49,0.87-0.83,1.31-1.08
			c0.78-0.44,1.56-0.64,2.35-0.65c0.85,0,1.69,0.26,2.53,0.78c0.27,0.17,0.53,0.5,0.8,0.76C192.05,86.42,192.05,86.47,192.05,86.52z
			"/>
		<path class="st8" d="M185.38,112.92c0.29-0.24,0.57-0.54,0.86-0.72c0.46-0.28,0.93-0.54,1.4-0.72c0.68-0.26,1.37-0.28,2.06-0.17
			c0.67,0.11,1.34,0.36,2,0.84c0.22,0.16,0.44,0.44,0.66,0.67c0,0.05,0,0.1,0,0.15c-0.17,0.19-0.33,0.41-0.5,0.58
			c-0.5,0.49-1.03,0.68-1.55,0.87c-0.7,0.25-1.41,0.3-2.12,0.16c-0.48-0.1-0.95-0.26-1.42-0.51c-0.45-0.25-0.9-0.65-1.35-0.99
			c-0.01-0.01-0.02-0.03-0.02-0.04C185.39,112.99,185.39,112.96,185.38,112.92z"/>
	</g>
	<g>
		<path class="st8" d="M257.71,114.21c-4.51,6.54-9.02,13.09-13.54,19.63c-3.97-2.73-7.93-5.47-11.9-8.21
			c4.51-6.54,9.02-13.09,13.54-19.63C249.77,108.74,253.74,111.47,257.71,114.21z M245.17,112.72c-0.07-0.23-0.16-0.46-0.2-0.69
			c-0.1-0.54,0.12-0.85,0.61-0.98c0.3-0.08,0.62-0.07,0.93-0.03c0.03,0,0.07,0.03,0.08,0.05c0.35,0.56,0.78,1.06,1.24,1.52
			c0.54,0.54,1.12,1.02,1.74,1.45c0.49,0.35,1,0.66,1.54,0.94c0.46,0.23,0.92,0.47,1.42,0.6c0.23,0.06,0.45,0.13,0.69,0.08
			c0.28-0.05,0.44-0.31,0.35-0.59c-0.09-0.29-0.28-0.52-0.47-0.75c-0.53-0.64-1.17-1.17-1.83-1.66c-0.83-0.62-1.71-1.15-2.67-1.56
			c-0.63-0.27-1.27-0.49-1.95-0.59c-0.38-0.05-0.76-0.07-1.13,0.01c-0.43,0.09-0.79,0.3-0.99,0.71c-0.23,0.47-0.13,0.94,0.04,1.4
			c0.01,0.02,0.04,0.04,0.06,0.04C244.83,112.68,245,112.7,245.17,112.72z M238.72,122.03c-0.07-0.25-0.15-0.49-0.2-0.75
			c-0.05-0.23-0.01-0.46,0.15-0.65c0.11-0.13,0.26-0.21,0.43-0.26c0.32-0.09,0.65-0.09,0.98-0.04c0.03,0,0.06,0.04,0.08,0.07
			c0.26,0.34,0.5,0.68,0.78,1.01c0.58,0.68,1.25,1.26,1.98,1.78c0.45,0.32,0.92,0.61,1.39,0.9c0.44,0.27,0.9,0.49,1.38,0.67
			c0.31,0.12,0.63,0.22,0.98,0.24c0.36,0.01,0.59-0.27,0.48-0.61c-0.05-0.14-0.13-0.28-0.21-0.41c-0.27-0.42-0.64-0.77-1-1.11
			c-0.61-0.58-1.28-1.08-1.99-1.52c-0.47-0.29-0.97-0.55-1.47-0.8c-0.57-0.29-1.18-0.5-1.81-0.64c-0.34-0.07-0.67-0.13-1.02-0.12
			c-0.39,0-0.77,0.06-1.11,0.28c-0.27,0.18-0.44,0.44-0.52,0.75c-0.09,0.39,0,0.76,0.13,1.12c0.01,0.02,0.04,0.05,0.07,0.06
			C238.39,122.01,238.56,122.02,238.72,122.03z M237.15,124.38c-0.01-0.03-0.02-0.06-0.03-0.08c-0.07-0.22-0.15-0.44-0.2-0.67
			c-0.05-0.23-0.01-0.46,0.14-0.65c0.14-0.17,0.33-0.25,0.54-0.29c0.27-0.05,0.54-0.04,0.81-0.02c0.07,0.01,0.12,0.03,0.15,0.09
			c0.3,0.47,0.65,0.91,1.04,1.31c0.59,0.61,1.24,1.16,1.93,1.64c0.49,0.34,1,0.65,1.53,0.92c0.45,0.23,0.9,0.46,1.39,0.6
			c0.21,0.06,0.43,0.12,0.65,0.11c0.31-0.02,0.52-0.27,0.44-0.55c-0.03-0.11-0.08-0.22-0.14-0.32c-0.26-0.42-0.59-0.78-0.94-1.12
			c-0.5-0.47-1.03-0.92-1.61-1.3c-0.51-0.33-1.03-0.64-1.55-0.94c-0.52-0.29-1.07-0.51-1.64-0.69c-0.41-0.13-0.82-0.23-1.25-0.27
			c-0.4-0.04-0.79-0.03-1.17,0.1c-0.48,0.17-0.77,0.5-0.86,1c-0.06,0.35,0.02,0.69,0.15,1.02c0.01,0.03,0.04,0.06,0.06,0.06
			C236.78,124.34,236.96,124.36,237.15,124.38z M241.97,117.38c-0.02-0.04-0.03-0.07-0.04-0.1c-0.1-0.23-0.18-0.46-0.2-0.7
			c-0.02-0.21,0.01-0.41,0.14-0.59c0.11-0.14,0.27-0.23,0.44-0.28c0.32-0.09,0.65-0.08,0.98-0.04c0.03,0,0.06,0.03,0.07,0.05
			c0.29,0.46,0.63,0.88,1,1.27c0.46,0.48,0.94,0.92,1.47,1.32c0.81,0.61,1.66,1.16,2.59,1.57c0.41,0.18,0.81,0.36,1.26,0.42
			c0.12,0.02,0.25,0.02,0.37-0.01c0.27-0.06,0.38-0.32,0.3-0.57c-0.05-0.15-0.12-0.29-0.21-0.42c-0.17-0.23-0.35-0.46-0.54-0.67
			c-0.6-0.64-1.28-1.18-2-1.67c-0.65-0.44-1.32-0.84-2.04-1.16c-0.71-0.31-1.44-0.57-2.21-0.67c-0.44-0.05-0.87-0.06-1.3,0.09
			c-0.45,0.16-0.74,0.48-0.84,0.94c-0.08,0.37,0.01,0.73,0.14,1.08c0.01,0.02,0.03,0.06,0.06,0.06
			C241.6,117.35,241.78,117.36,241.97,117.38z M243.58,115.05c-0.04-0.09-0.07-0.16-0.1-0.23c-0.1-0.26-0.18-0.53-0.14-0.82
			c0.05-0.33,0.24-0.51,0.57-0.61c0.31-0.09,0.63-0.1,0.95-0.04c0.04,0.01,0.1,0.04,0.12,0.08c0.44,0.68,0.97,1.27,1.56,1.81
			c0.54,0.5,1.12,0.95,1.74,1.35c0.7,0.45,1.41,0.86,2.18,1.17c0.35,0.13,0.7,0.26,1.08,0.25c0.28-0.01,0.5-0.25,0.44-0.53
			c-0.03-0.12-0.08-0.24-0.14-0.35c-0.3-0.51-0.73-0.92-1.17-1.31c-0.44-0.4-0.91-0.77-1.4-1.11c-0.76-0.53-1.56-0.97-2.41-1.33
			c-0.58-0.25-1.17-0.44-1.79-0.53c-0.47-0.07-0.94-0.09-1.41,0.07c-0.35,0.12-0.6,0.34-0.76,0.67c-0.22,0.47-0.1,0.92,0.05,1.37
			c0.01,0.02,0.03,0.04,0.05,0.05C243.21,115.01,243.39,115.03,243.58,115.05z M240.37,119.71c-0.02-0.04-0.03-0.07-0.04-0.1
			c-0.11-0.24-0.2-0.49-0.21-0.76c-0.01-0.28,0.06-0.54,0.32-0.69c0.11-0.06,0.24-0.11,0.36-0.14c0.28-0.07,0.56-0.06,0.85-0.03
			c0.04,0,0.09,0.04,0.12,0.08c0.11,0.15,0.2,0.31,0.31,0.45c0.33,0.43,0.68,0.85,1.09,1.2c0.36,0.32,0.72,0.64,1.09,0.94
			c0.51,0.4,1.05,0.76,1.62,1.07c0.65,0.36,1.3,0.71,2.03,0.87c0.16,0.04,0.34,0.05,0.5,0.03c0.25-0.02,0.43-0.27,0.36-0.52
			c-0.04-0.15-0.1-0.3-0.19-0.43c-0.16-0.23-0.33-0.46-0.52-0.66c-0.57-0.6-1.21-1.13-1.89-1.61c-0.69-0.49-1.42-0.91-2.2-1.27
			c-0.62-0.28-1.26-0.51-1.93-0.63c-0.5-0.09-1.01-0.13-1.51,0.02c-0.44,0.13-0.75,0.41-0.88,0.86c-0.12,0.41-0.03,0.81,0.12,1.2
			c0.01,0.02,0.03,0.04,0.05,0.04C240,119.68,240.18,119.7,240.37,119.71z M235.42,125.33c0.11-0.14,0.25-0.23,0.41-0.28
			c0.32-0.1,0.66-0.1,0.99-0.06c0.04,0.01,0.1,0.04,0.12,0.08c0.12,0.17,0.23,0.35,0.36,0.51c0.51,0.67,1.11,1.25,1.76,1.79
			c0.61,0.5,1.26,0.96,1.95,1.34c0.61,0.34,1.23,0.67,1.91,0.86c0.21,0.06,0.42,0.1,0.64,0.08c0.18-0.02,0.33-0.14,0.38-0.31
			c0.04-0.14,0.01-0.27-0.05-0.4c-0.14-0.32-0.37-0.6-0.61-0.85c-0.49-0.52-1.02-0.99-1.6-1.42c-0.95-0.71-1.97-1.31-3.08-1.74
			c-0.67-0.26-1.35-0.46-2.07-0.48c-0.41-0.01-0.81,0.03-1.17,0.24c-0.15,0.08-0.27,0.2-0.36,0.35
			C235.15,125.15,235.28,125.24,235.42,125.33z M246.9,110.41c-0.2-0.46-0.41-0.9-0.22-1.4c-0.14-0.1-0.28-0.19-0.42-0.29
			c-0.09,0.16-0.15,0.32-0.17,0.49c-0.03,0.33,0.03,0.65,0.14,0.96c0.04,0.13,0.1,0.19,0.24,0.19
			C246.61,110.35,246.75,110.39,246.9,110.41z"/>
		<path d="M245.17,112.72c-0.16-0.01-0.34-0.03-0.52-0.05c-0.02,0-0.05-0.02-0.06-0.04c-0.17-0.46-0.27-0.92-0.04-1.4
			c0.2-0.42,0.55-0.62,0.99-0.71c0.38-0.08,0.75-0.06,1.13-0.01c0.68,0.1,1.33,0.32,1.95,0.59c0.95,0.41,1.84,0.94,2.67,1.56
			c0.66,0.5,1.3,1.02,1.83,1.66c0.19,0.23,0.37,0.46,0.47,0.75c0.09,0.27-0.07,0.54-0.35,0.59c-0.24,0.04-0.47-0.03-0.69-0.08
			c-0.5-0.13-0.96-0.37-1.42-0.6c-0.54-0.27-1.05-0.59-1.54-0.94c-0.62-0.44-1.2-0.92-1.74-1.45c-0.47-0.46-0.89-0.96-1.24-1.52
			c-0.02-0.03-0.05-0.05-0.08-0.05c-0.31-0.04-0.62-0.05-0.93,0.03c-0.49,0.13-0.71,0.44-0.61,0.98
			C245.01,112.26,245.1,112.49,245.17,112.72z M247.28,111.16c0.03,0.05,0.05,0.08,0.07,0.1c0.19,0.23,0.38,0.46,0.58,0.68
			c0.45,0.49,0.94,0.93,1.47,1.33c0.75,0.56,1.53,1.06,2.38,1.45c0.36,0.16,0.71,0.32,1.1,0.4c0.05,0.01,0.11,0.02,0.19,0.03
			c-0.03-0.05-0.05-0.08-0.07-0.11c-0.22-0.35-0.5-0.65-0.8-0.94c-0.6-0.57-1.24-1.08-1.93-1.53c-0.72-0.47-1.47-0.87-2.28-1.18
			C247.77,111.31,247.54,111.24,247.28,111.16z"/>
		<path d="M238.72,122.03c-0.16-0.01-0.33-0.02-0.5-0.04c-0.02,0-0.06-0.03-0.07-0.06c-0.13-0.36-0.22-0.74-0.13-1.12
			c0.07-0.31,0.24-0.57,0.52-0.75c0.34-0.22,0.72-0.28,1.11-0.28c0.35,0,0.68,0.05,1.02,0.12c0.63,0.14,1.23,0.35,1.81,0.64
			c0.5,0.25,0.99,0.51,1.47,0.8c0.71,0.44,1.38,0.94,1.99,1.52c0.36,0.34,0.73,0.68,1,1.11c0.08,0.13,0.16,0.26,0.21,0.41
			c0.11,0.34-0.12,0.62-0.48,0.61c-0.34-0.01-0.66-0.12-0.98-0.24c-0.48-0.18-0.95-0.4-1.38-0.67c-0.47-0.29-0.94-0.58-1.39-0.9
			c-0.73-0.51-1.4-1.09-1.98-1.78c-0.27-0.32-0.52-0.67-0.78-1.01c-0.02-0.03-0.05-0.06-0.08-0.07c-0.33-0.05-0.66-0.05-0.98,0.04
			c-0.17,0.05-0.32,0.13-0.43,0.26c-0.15,0.19-0.2,0.41-0.15,0.65C238.57,121.54,238.65,121.78,238.72,122.03z M240.89,120.49
			c-0.01,0.01-0.01,0.02-0.02,0.03c0.02,0.03,0.03,0.05,0.05,0.08c0.36,0.45,0.74,0.88,1.17,1.26c0.44,0.4,0.9,0.78,1.4,1.11
			c0.47,0.31,0.96,0.59,1.45,0.87c0.46,0.26,0.94,0.47,1.45,0.6c0.07,0.02,0.15,0.03,0.24,0.04c-0.14-0.29-0.34-0.51-0.53-0.72
			c-0.46-0.5-0.98-0.93-1.52-1.34c-0.84-0.62-1.72-1.17-2.69-1.57C241.56,120.72,241.22,120.61,240.89,120.49z"/>
		<path d="M237.15,124.38c-0.19-0.02-0.37-0.03-0.54-0.05c-0.02,0-0.05-0.04-0.06-0.06c-0.13-0.33-0.21-0.67-0.15-1.02
			c0.08-0.5,0.38-0.84,0.86-1c0.38-0.13,0.77-0.13,1.17-0.1c0.43,0.04,0.84,0.14,1.25,0.27c0.57,0.18,1.12,0.4,1.64,0.69
			c0.53,0.3,1.05,0.61,1.55,0.94c0.58,0.38,1.1,0.83,1.61,1.3c0.36,0.34,0.69,0.7,0.94,1.12c0.06,0.1,0.11,0.21,0.14,0.32
			c0.07,0.28-0.13,0.53-0.44,0.55c-0.23,0.01-0.44-0.05-0.65-0.11c-0.49-0.14-0.94-0.37-1.39-0.6c-0.53-0.27-1.04-0.58-1.53-0.92
			c-0.69-0.49-1.34-1.03-1.93-1.64c-0.39-0.4-0.74-0.83-1.04-1.31c-0.04-0.06-0.08-0.09-0.15-0.09c-0.27-0.02-0.54-0.03-0.81,0.02
			c-0.21,0.04-0.4,0.12-0.54,0.29c-0.16,0.19-0.19,0.42-0.14,0.65c0.05,0.23,0.13,0.45,0.2,0.67
			C237.12,124.32,237.13,124.34,237.15,124.38z M239.28,122.83c-0.01,0.01-0.01,0.02-0.02,0.02c0.02,0.03,0.04,0.06,0.06,0.09
			c0.22,0.26,0.43,0.52,0.67,0.77c0.68,0.72,1.46,1.32,2.29,1.86c0.69,0.45,1.41,0.84,2.19,1.12c0.17,0.06,0.35,0.11,0.55,0.11
			c-0.15-0.23-0.3-0.46-0.49-0.66c-0.49-0.51-1.02-0.98-1.59-1.4c-0.94-0.69-1.94-1.28-3.04-1.69
			C239.69,122.96,239.49,122.9,239.28,122.83z"/>
		<path d="M241.97,117.38c-0.19-0.02-0.37-0.03-0.55-0.05c-0.02,0-0.05-0.03-0.06-0.06c-0.13-0.35-0.21-0.71-0.14-1.08
			c0.1-0.47,0.38-0.78,0.84-0.94c0.42-0.15,0.86-0.15,1.3-0.09c0.78,0.1,1.5,0.36,2.21,0.67c0.72,0.32,1.39,0.72,2.04,1.16
			c0.72,0.49,1.4,1.03,2,1.67c0.2,0.21,0.38,0.43,0.54,0.67c0.09,0.12,0.16,0.27,0.21,0.42c0.08,0.24-0.03,0.5-0.3,0.57
			c-0.12,0.03-0.25,0.02-0.37,0.01c-0.45-0.06-0.85-0.23-1.26-0.42c-0.93-0.42-1.78-0.96-2.59-1.57c-0.53-0.4-1.01-0.84-1.47-1.32
			c-0.38-0.39-0.71-0.81-1-1.27c-0.02-0.02-0.05-0.05-0.07-0.05c-0.33-0.04-0.66-0.05-0.98,0.04c-0.17,0.05-0.33,0.13-0.44,0.28
			c-0.14,0.17-0.16,0.38-0.14,0.59c0.02,0.25,0.1,0.48,0.2,0.7C241.94,117.31,241.95,117.34,241.97,117.38z M244.09,115.83
			c-0.01,0.01-0.01,0.02-0.02,0.03c0.15,0.18,0.31,0.36,0.46,0.54c0.5,0.58,1.08,1.09,1.69,1.55c0.61,0.46,1.26,0.87,1.93,1.23
			c0.41,0.22,0.83,0.41,1.27,0.54c0.13,0.04,0.26,0.06,0.4,0.09c0.01-0.01,0.01-0.02,0.02-0.02c-0.04-0.07-0.08-0.14-0.13-0.2
			c-0.29-0.41-0.64-0.76-1.02-1.09c-0.59-0.53-1.23-1.01-1.9-1.43c-0.69-0.42-1.39-0.8-2.16-1.06
			C244.46,115.95,244.28,115.89,244.09,115.83z"/>
		<path d="M243.58,115.05c-0.19-0.02-0.37-0.03-0.55-0.05c-0.02,0-0.05-0.03-0.05-0.05c-0.15-0.45-0.27-0.91-0.05-1.37
			c0.16-0.33,0.41-0.55,0.76-0.67c0.46-0.16,0.94-0.14,1.41-0.07c0.62,0.09,1.22,0.28,1.79,0.53c0.85,0.36,1.65,0.8,2.41,1.33
			c0.49,0.34,0.96,0.71,1.4,1.11c0.43,0.4,0.86,0.8,1.17,1.31c0.06,0.11,0.11,0.23,0.14,0.35c0.06,0.28-0.15,0.52-0.44,0.53
			c-0.38,0.01-0.73-0.12-1.08-0.25c-0.77-0.3-1.49-0.72-2.18-1.17c-0.62-0.4-1.2-0.86-1.74-1.35c-0.59-0.54-1.12-1.14-1.56-1.81
			c-0.02-0.04-0.08-0.07-0.12-0.08c-0.32-0.05-0.64-0.05-0.95,0.04c-0.33,0.1-0.52,0.28-0.57,0.61c-0.04,0.29,0.04,0.56,0.14,0.82
			C243.51,114.89,243.54,114.96,243.58,115.05z M251.43,117.5c0.01-0.01,0.02-0.03,0.02-0.04c-0.11-0.15-0.2-0.31-0.32-0.45
			c-0.56-0.65-1.2-1.2-1.89-1.7c-0.91-0.66-1.88-1.21-2.93-1.61c-0.2-0.07-0.41-0.13-0.61-0.2c0.02,0.06,0.05,0.1,0.08,0.14
			c0.3,0.37,0.6,0.73,0.96,1.05c0.39,0.33,0.77,0.67,1.17,0.99c0.46,0.36,0.95,0.67,1.46,0.96c0.49,0.27,0.99,0.54,1.53,0.72
			C251.07,117.41,251.25,117.45,251.43,117.5z"/>
		<path d="M240.37,119.71c-0.19-0.02-0.37-0.03-0.54-0.05c-0.02,0-0.05-0.02-0.05-0.04c-0.15-0.39-0.24-0.79-0.12-1.2
			c0.13-0.45,0.44-0.73,0.88-0.86c0.5-0.15,1.01-0.11,1.51-0.02c0.67,0.12,1.31,0.35,1.93,0.63c0.77,0.35,1.5,0.78,2.2,1.27
			c0.68,0.48,1.32,1.01,1.89,1.61c0.19,0.2,0.36,0.43,0.52,0.66c0.09,0.13,0.14,0.28,0.19,0.43c0.07,0.24-0.11,0.5-0.36,0.52
			c-0.17,0.01-0.34,0-0.5-0.03c-0.73-0.16-1.38-0.52-2.03-0.87c-0.57-0.31-1.11-0.67-1.62-1.07c-0.37-0.3-0.73-0.62-1.09-0.94
			c-0.41-0.36-0.76-0.77-1.09-1.2c-0.11-0.14-0.2-0.3-0.31-0.45c-0.03-0.04-0.08-0.07-0.12-0.08c-0.28-0.03-0.57-0.05-0.85,0.03
			c-0.12,0.03-0.25,0.08-0.36,0.14c-0.26,0.15-0.34,0.41-0.32,0.69c0.01,0.27,0.1,0.52,0.21,0.76
			C240.34,119.65,240.35,119.68,240.37,119.71z M248.22,122.15c0.01-0.01,0.02-0.03,0.03-0.04c-0.17-0.22-0.32-0.46-0.51-0.65
			c-0.59-0.61-1.23-1.16-1.93-1.65c-0.65-0.45-1.33-0.85-2.06-1.18c-0.41-0.19-0.83-0.35-1.29-0.47c0.03,0.04,0.04,0.07,0.06,0.09
			c0.27,0.31,0.52,0.63,0.81,0.91c0.37,0.36,0.76,0.71,1.16,1.03c0.69,0.55,1.43,1.02,2.23,1.4c0.34,0.16,0.69,0.3,1.05,0.44
			C247.92,122.1,248.07,122.12,248.22,122.15z"/>
		<path d="M235.42,125.33c-0.14-0.1-0.27-0.19-0.42-0.29c0.09-0.15,0.22-0.26,0.36-0.35c0.36-0.21,0.76-0.26,1.17-0.24
			c0.72,0.02,1.4,0.22,2.07,0.48c1.11,0.43,2.13,1.03,3.08,1.74c0.57,0.43,1.11,0.9,1.6,1.42c0.24,0.25,0.46,0.53,0.61,0.85
			c0.06,0.13,0.09,0.26,0.05,0.4c-0.05,0.17-0.2,0.3-0.38,0.31c-0.22,0.02-0.43-0.02-0.64-0.08c-0.68-0.19-1.3-0.52-1.91-0.86
			c-0.69-0.39-1.34-0.84-1.95-1.34c-0.65-0.53-1.25-1.12-1.76-1.79c-0.13-0.17-0.24-0.34-0.36-0.51c-0.03-0.04-0.08-0.07-0.12-0.08
			c-0.33-0.04-0.67-0.04-0.99,0.06C235.68,125.11,235.54,125.2,235.42,125.33z M237.67,125.15c0,0.01-0.01,0.02-0.01,0.03
			c0,0.01,0.01,0.02,0.01,0.02c0.3,0.34,0.59,0.7,0.92,1.03c0.34,0.33,0.7,0.65,1.07,0.95c0.55,0.44,1.15,0.83,1.77,1.17
			c0.47,0.25,0.93,0.5,1.44,0.66c0.17,0.05,0.35,0.09,0.52,0.14c0.01-0.01,0.02-0.02,0.03-0.04c-0.14-0.18-0.26-0.38-0.42-0.55
			c-0.45-0.5-0.95-0.95-1.48-1.36c-0.55-0.42-1.12-0.81-1.73-1.13c-0.42-0.22-0.85-0.42-1.29-0.61
			C238.24,125.34,237.95,125.25,237.67,125.15z"/>
		<path d="M246.9,110.41c-0.15-0.02-0.29-0.05-0.43-0.05c-0.14,0-0.2-0.06-0.24-0.19c-0.1-0.31-0.17-0.63-0.14-0.96
			c0.02-0.17,0.08-0.33,0.17-0.49c0.14,0.1,0.28,0.19,0.42,0.29C246.48,109.51,246.7,109.95,246.9,110.41z"/>
		<path class="st8" d="M247.28,111.16c0.26,0.09,0.49,0.16,0.71,0.24c0.8,0.3,1.56,0.71,2.28,1.18c0.69,0.45,1.34,0.96,1.93,1.53
			c0.3,0.28,0.58,0.58,0.8,0.94c0.02,0.03,0.04,0.06,0.07,0.11c-0.07-0.01-0.13-0.02-0.19-0.03c-0.39-0.08-0.75-0.24-1.1-0.4
			c-0.85-0.39-1.63-0.89-2.38-1.45c-0.53-0.4-1.03-0.84-1.47-1.33c-0.2-0.22-0.39-0.45-0.58-0.68
			C247.33,111.24,247.32,111.21,247.28,111.16z"/>
		<path class="st8" d="M240.89,120.49c0.33,0.12,0.67,0.24,1,0.37c0.97,0.4,1.85,0.95,2.69,1.57c0.54,0.4,1.06,0.84,1.52,1.34
			c0.2,0.21,0.39,0.43,0.53,0.72c-0.09-0.02-0.17-0.03-0.24-0.04c-0.51-0.13-1-0.34-1.45-0.6c-0.49-0.28-0.98-0.56-1.45-0.87
			c-0.5-0.33-0.95-0.71-1.4-1.11c-0.43-0.39-0.81-0.81-1.17-1.26c-0.02-0.02-0.04-0.05-0.05-0.08
			C240.88,120.51,240.88,120.5,240.89,120.49z"/>
		<path class="st8" d="M239.28,122.83c0.21,0.07,0.41,0.13,0.62,0.21c1.1,0.41,2.1,1,3.04,1.69c0.57,0.42,1.1,0.89,1.59,1.4
			c0.19,0.2,0.33,0.43,0.49,0.66c-0.2,0.01-0.37-0.04-0.55-0.11c-0.77-0.28-1.5-0.67-2.19-1.12c-0.83-0.54-1.61-1.14-2.29-1.86
			c-0.23-0.25-0.45-0.51-0.67-0.77c-0.02-0.03-0.04-0.06-0.06-0.09C239.27,122.84,239.27,122.84,239.28,122.83z"/>
		<path class="st8" d="M244.09,115.83c0.18,0.06,0.36,0.12,0.54,0.18c0.76,0.27,1.47,0.64,2.16,1.06c0.68,0.42,1.31,0.9,1.9,1.43
			c0.37,0.33,0.73,0.68,1.02,1.09c0.05,0.06,0.08,0.13,0.13,0.2c-0.01,0.01-0.01,0.02-0.02,0.02c-0.13-0.03-0.27-0.05-0.4-0.09
			c-0.44-0.13-0.86-0.32-1.27-0.54c-0.68-0.36-1.32-0.77-1.93-1.23c-0.61-0.47-1.19-0.97-1.69-1.55c-0.15-0.18-0.31-0.36-0.46-0.54
			C244.08,115.85,244.09,115.84,244.09,115.83z"/>
		<path class="st8" d="M251.43,117.5c-0.18-0.05-0.36-0.09-0.53-0.14c-0.54-0.18-1.04-0.45-1.53-0.72c-0.51-0.28-1-0.59-1.46-0.96
			c-0.4-0.32-0.78-0.65-1.17-0.99c-0.36-0.31-0.66-0.68-0.96-1.05c-0.03-0.04-0.06-0.08-0.08-0.14c0.2,0.07,0.41,0.12,0.61,0.2
			c1.05,0.39,2.02,0.95,2.93,1.61c0.69,0.5,1.33,1.05,1.89,1.7c0.12,0.14,0.22,0.3,0.32,0.45
			C251.45,117.47,251.44,117.48,251.43,117.5z"/>
		<path class="st8" d="M248.22,122.15c-0.15-0.04-0.3-0.05-0.44-0.11c-0.35-0.14-0.71-0.27-1.05-0.44c-0.79-0.38-1.54-0.85-2.23-1.4
			c-0.41-0.32-0.79-0.67-1.16-1.03c-0.29-0.28-0.54-0.61-0.81-0.91c-0.02-0.02-0.04-0.05-0.06-0.09c0.45,0.12,0.87,0.28,1.29,0.47
			c0.72,0.33,1.4,0.72,2.06,1.18c0.7,0.48,1.34,1.03,1.93,1.65c0.19,0.2,0.34,0.43,0.51,0.65
			C248.24,122.13,248.23,122.14,248.22,122.15z"/>
		<path class="st8" d="M237.67,125.15c0.28,0.1,0.57,0.18,0.84,0.3c0.44,0.19,0.87,0.39,1.29,0.61c0.61,0.32,1.18,0.71,1.73,1.13
			c0.53,0.41,1.03,0.86,1.48,1.36c0.15,0.17,0.28,0.37,0.42,0.55c-0.01,0.01-0.02,0.02-0.03,0.04c-0.17-0.05-0.35-0.08-0.52-0.14
			c-0.51-0.16-0.97-0.41-1.44-0.66c-0.63-0.34-1.22-0.73-1.77-1.17c-0.37-0.3-0.73-0.61-1.07-0.95c-0.33-0.32-0.61-0.68-0.92-1.03
			c-0.01-0.01-0.01-0.02-0.01-0.02C237.66,125.18,237.67,125.16,237.67,125.15z"/>
	</g>
	<g>
		<path class="st8" d="M271.16,69.83c-14.04,20.36-28.08,40.72-42.12,61.09c-3.97-2.73-7.93-5.47-11.9-8.21
			c14.04-20.36,28.08-40.73,42.12-61.09C263.22,64.36,267.19,67.09,271.16,69.83z M251.56,78.57c0.11-0.49,0.18-0.95,0.34-1.49
			c0.37-1.21,1.04-2.18,2-2.99c0.59-0.5,1.1-0.77,1.59-0.99c0.05-0.02,0.09,0,0.09,0.05c0.04,1.02,0.26,1.8,0.59,2.47
			c0.38,0.77,0.89,1.36,1.5,1.81c0.48,0.36,1.03,0.62,1.67,0.75c0.54,0.12,1.08,0.24,1.8,0.06c0.32-0.08,0.64-0.14,1.08-0.48
			c0.53-0.4,1.04-1.2,1.17-1.78c0.13-0.62,0.05-1-0.04-1.37c-0.26-1.03-0.81-1.69-1.43-2.24c-0.78-0.7-1.75-1.11-2.94-1.16
			c-0.79-0.04-1.66,0.07-2.71,0.5c-0.58,0.24-1.2,0.57-1.91,1.14c-0.82,0.65-1.62,1.5-2.36,2.71c-0.85,1.37-1.14,2.4-1.31,3.36
			c-0.01,0.04,0.02,0.06,0.05,0.05C251.02,78.84,251.3,78.7,251.56,78.57z M231.53,107.59c0.13-0.54,0.24-1.06,0.4-1.61
			c0.14-0.52,0.44-1.11,0.89-1.72c0.32-0.43,0.65-0.78,0.98-1.06c0.63-0.54,1.18-0.85,1.69-1.06c0.05-0.02,0.07,0.04,0.07,0.08
			c0.1,0.56,0.17,1.16,0.31,1.68c0.29,1.1,0.86,1.83,1.57,2.37c0.44,0.33,0.95,0.57,1.45,0.81c0.47,0.23,1.03,0.3,1.66,0.27
			c0.41-0.02,0.84-0.08,1.4-0.38c0.59-0.32,1.26-1.24,1.41-1.96c0.06-0.3,0.07-0.56,0.05-0.79c-0.04-0.76-0.32-1.23-0.59-1.71
			c-0.46-0.8-1.08-1.37-1.85-1.73c-0.51-0.24-1.09-0.39-1.68-0.5c-0.68-0.13-1.48-0.05-2.4,0.23c-0.49,0.15-1.01,0.36-1.59,0.7
			c-0.67,0.39-1.36,0.9-2.15,1.78c-0.64,0.71-1.18,1.5-1.61,2.33c-0.53,1.03-0.76,1.85-0.89,2.6c-0.01,0.05,0.02,0.09,0.06,0.07
			C231,107.86,231.28,107.72,231.53,107.59z M226.58,114.84c0.01-0.07,0.02-0.11,0.03-0.16c0.11-0.48,0.18-0.93,0.33-1.44
			c0.15-0.51,0.43-1.11,0.88-1.72c0.4-0.54,0.8-0.93,1.2-1.24c0.51-0.4,0.95-0.64,1.38-0.86c0.12-0.06,0.16-0.04,0.17,0.07
			c0.04,0.86,0.2,1.56,0.46,2.15c0.39,0.9,0.94,1.59,1.62,2.09c0.48,0.35,1.03,0.6,1.66,0.74c0.53,0.11,1.06,0.23,1.75,0.08
			c0.3-0.06,0.6-0.13,0.99-0.39c0.54-0.35,1.13-1.15,1.29-1.77c0.06-0.24,0.09-0.47,0.09-0.65c-0.02-0.77-0.21-1.33-0.48-1.79
			c-0.38-0.65-0.83-1.22-1.42-1.57c-0.52-0.31-1.1-0.54-1.68-0.74c-0.58-0.21-1.3-0.18-2.07-0.06c-0.56,0.09-1.16,0.26-1.84,0.59
			c-0.63,0.3-1.29,0.69-2.06,1.39c-0.97,0.88-1.8,1.99-2.43,3.29c-0.44,0.91-0.65,1.66-0.76,2.33c-0.01,0.05,0.01,0.1,0.05,0.09
			C225.99,115.12,226.27,114.98,226.58,114.84z M241.59,93.07c0.01-0.08,0.02-0.14,0.03-0.2c0.06-0.46,0.15-0.93,0.36-1.51
			c0.18-0.49,0.42-1.01,0.82-1.56c0.33-0.46,0.68-0.82,1.02-1.11c0.63-0.54,1.18-0.84,1.69-1.07c0.04-0.02,0.07,0.02,0.07,0.06
			c0.04,0.83,0.19,1.52,0.43,2.11c0.29,0.71,0.67,1.32,1.16,1.77c0.76,0.69,1.66,1.17,2.8,1.27c0.5,0.05,1.01,0.07,1.71-0.23
			c0.19-0.08,0.4-0.2,0.63-0.38c0.52-0.42,0.96-1.16,1.07-1.68c0.06-0.31,0.09-0.6,0.06-0.81c-0.06-0.39-0.14-0.76-0.26-1.08
			c-0.37-0.96-0.99-1.59-1.71-2.08c-0.65-0.44-1.39-0.75-2.28-0.81c-0.88-0.06-1.85,0.02-3.06,0.55c-0.68,0.3-1.41,0.72-2.27,1.5
			c-0.92,0.84-1.71,1.89-2.34,3.12c-0.49,0.97-0.71,1.76-0.83,2.48c-0.01,0.05,0,0.1,0.04,0.09
			C240.99,93.36,241.28,93.22,241.59,93.07z M246.59,85.81c0.02-0.17,0.03-0.31,0.06-0.46c0.09-0.54,0.21-1.11,0.58-1.86
			c0.41-0.85,0.9-1.48,1.56-2.06c0.61-0.53,1.16-0.86,1.64-1.04c0.07-0.03,0.12,0,0.13,0.07c0.07,1.21,0.37,2.14,0.84,2.87
			c0.42,0.67,0.95,1.21,1.59,1.57c0.72,0.41,1.52,0.71,2.52,0.68c0.45-0.01,0.91-0.05,1.57-0.46c0.49-0.3,1.08-1.1,1.25-1.71
			c0.08-0.27,0.11-0.52,0.11-0.72c0-0.95-0.32-1.51-0.66-2.04c-0.34-0.54-0.77-0.97-1.25-1.32c-0.75-0.54-1.66-0.82-2.73-0.86
			c-0.72-0.03-1.54,0.1-2.49,0.49c-0.72,0.3-1.5,0.72-2.43,1.56c-0.7,0.63-1.34,1.41-1.93,2.37c-0.83,1.35-1.08,2.34-1.27,3.28
			c-0.01,0.04,0.02,0.07,0.05,0.06C246.01,86.09,246.29,85.96,246.59,85.81z M236.59,100.33c0.01-0.07,0.02-0.14,0.03-0.19
			c0.05-0.48,0.16-1.01,0.4-1.64c0.26-0.68,0.63-1.36,1.22-1.99c0.25-0.26,0.51-0.5,0.75-0.7c0.54-0.45,1-0.69,1.45-0.9
			c0.07-0.03,0.12,0.01,0.13,0.07c0.04,0.25,0.03,0.55,0.08,0.79c0.13,0.72,0.31,1.38,0.64,1.85c0.29,0.41,0.57,0.84,0.91,1.2
			c0.45,0.48,1.02,0.8,1.66,1.01c0.73,0.23,1.48,0.45,2.54,0.12c0.24-0.07,0.52-0.22,0.81-0.41c0.44-0.29,0.99-1.09,1.12-1.61
			c0.08-0.32,0.13-0.64,0.11-0.86c-0.04-0.4-0.11-0.78-0.23-1.08c-0.37-0.9-0.92-1.56-1.58-2.06c-0.68-0.51-1.49-0.82-2.44-0.92
			c-0.76-0.08-1.61-0.01-2.62,0.37c-0.76,0.28-1.57,0.68-2.57,1.55c-0.88,0.77-1.68,1.75-2.34,2.97c-0.61,1.12-0.85,2-0.98,2.79
			c-0.01,0.04,0.02,0.07,0.05,0.05C236,100.61,236.29,100.47,236.59,100.33z M222.73,118.87c0.32-0.45,0.65-0.8,0.96-1.07
			c0.65-0.57,1.2-0.9,1.72-1.12c0.07-0.03,0.12,0,0.13,0.06c0.04,0.29,0.05,0.61,0.1,0.89c0.2,1.12,0.63,1.95,1.2,2.61
			c0.53,0.62,1.18,1.08,1.95,1.34c0.69,0.23,1.4,0.42,2.36,0.21c0.29-0.06,0.61-0.18,1-0.44c0.31-0.21,0.69-0.67,0.94-1.13
			c0.21-0.39,0.28-0.67,0.31-0.92c0.08-0.64-0.03-1.09-0.18-1.47c-0.31-0.78-0.75-1.39-1.28-1.87c-0.9-0.79-2.02-1.24-3.46-1.2
			c-0.86,0.02-1.82,0.22-3.01,0.87c-0.68,0.37-1.4,0.88-2.21,1.75c-0.33,0.35-0.65,0.75-0.95,1.2
			C222.46,118.68,222.59,118.77,222.73,118.87z M256.75,71.25c0.11-0.91,0.19-1.78,1.02-3.2c-0.14-0.1-0.28-0.19-0.42-0.29
			c-0.31,0.47-0.57,0.92-0.77,1.36c-0.39,0.84-0.58,1.54-0.72,2.2c-0.06,0.27-0.01,0.35,0.23,0.22
			C256.31,71.41,256.51,71.35,256.75,71.25z"/>
		<path d="M251.56,78.57c-0.26,0.12-0.54,0.26-0.82,0.39c-0.03,0.01-0.06-0.01-0.05-0.05c0.17-0.95,0.46-1.98,1.31-3.36
			c0.75-1.21,1.54-2.06,2.36-2.71c0.71-0.56,1.33-0.89,1.91-1.14c1.05-0.44,1.92-0.54,2.71-0.5c1.2,0.06,2.17,0.47,2.94,1.16
			c0.62,0.56,1.17,1.21,1.43,2.24c0.09,0.37,0.17,0.75,0.04,1.37c-0.13,0.58-0.64,1.38-1.17,1.78c-0.44,0.34-0.76,0.4-1.08,0.48
			c-0.72,0.18-1.26,0.06-1.8-0.06c-0.63-0.13-1.18-0.4-1.67-0.75c-0.61-0.45-1.12-1.05-1.5-1.81c-0.33-0.67-0.56-1.45-0.59-2.47
			c0-0.05-0.04-0.07-0.09-0.05c-0.48,0.22-0.99,0.49-1.59,0.99c-0.96,0.81-1.63,1.78-2,2.99C251.74,77.62,251.67,78.09,251.56,78.57
			z M256.65,72.7c0.01,0.09,0,0.15,0.02,0.18c0.1,0.36,0.18,0.74,0.3,1.08c0.27,0.75,0.66,1.34,1.16,1.78
			c0.7,0.62,1.52,1.08,2.56,1.19c0.44,0.05,0.88,0.08,1.46-0.11c0.08-0.03,0.17-0.07,0.29-0.12c0-0.09,0-0.15-0.01-0.2
			c-0.02-0.64-0.2-1.09-0.42-1.49c-0.44-0.79-1.02-1.4-1.74-1.81c-0.75-0.43-1.61-0.67-2.66-0.61C257.31,72.6,257,72.65,256.65,72.7
			z"/>
		<path d="M231.53,107.59c-0.25,0.13-0.53,0.27-0.8,0.4c-0.04,0.02-0.07-0.02-0.06-0.07c0.13-0.75,0.35-1.57,0.89-2.6
			c0.43-0.83,0.97-1.62,1.61-2.33c0.79-0.88,1.48-1.39,2.15-1.78c0.58-0.34,1.1-0.55,1.59-0.7c0.92-0.28,1.72-0.36,2.4-0.23
			c0.59,0.11,1.17,0.26,1.68,0.5c0.77,0.36,1.39,0.93,1.85,1.73c0.27,0.48,0.55,0.94,0.59,1.71c0.01,0.23,0.01,0.49-0.05,0.79
			c-0.15,0.71-0.82,1.64-1.41,1.96c-0.56,0.3-0.99,0.36-1.4,0.38c-0.63,0.03-1.19-0.04-1.66-0.27c-0.5-0.24-1.01-0.48-1.45-0.81
			c-0.71-0.53-1.28-1.27-1.57-2.37c-0.14-0.52-0.21-1.12-0.31-1.68c-0.01-0.05-0.03-0.1-0.07-0.08c-0.51,0.21-1.05,0.52-1.69,1.06
			c-0.33,0.28-0.66,0.63-0.98,1.06c-0.44,0.61-0.74,1.2-0.89,1.72C231.77,106.53,231.66,107.05,231.53,107.59z M236.71,101.68
			c-0.02,0.03-0.05,0.07-0.07,0.1c0,0.05,0.01,0.09,0.01,0.14c0.16,0.74,0.38,1.4,0.72,1.91c0.35,0.53,0.74,1.02,1.25,1.32
			c0.49,0.29,1.03,0.49,1.58,0.69c0.51,0.19,1.12,0.22,1.85,0.02c0.1-0.03,0.22-0.08,0.36-0.13c0.04-0.56-0.07-0.9-0.19-1.22
			c-0.28-0.76-0.72-1.31-1.23-1.75c-0.8-0.69-1.74-1.15-2.98-1.16C237.6,101.6,237.15,101.66,236.71,101.68z"/>
		<path d="M226.58,114.84c-0.3,0.15-0.59,0.29-0.86,0.41c-0.04,0.02-0.05-0.03-0.05-0.09c0.11-0.67,0.31-1.42,0.76-2.33
			c0.63-1.3,1.46-2.41,2.43-3.29c0.77-0.7,1.43-1.09,2.06-1.39c0.68-0.33,1.28-0.5,1.84-0.59c0.77-0.12,1.49-0.14,2.07,0.06
			c0.59,0.21,1.16,0.44,1.68,0.74c0.6,0.35,1.04,0.92,1.42,1.57c0.27,0.46,0.46,1.02,0.48,1.79c0,0.18-0.02,0.4-0.09,0.65
			c-0.16,0.62-0.75,1.42-1.29,1.77c-0.39,0.26-0.7,0.32-0.99,0.39c-0.69,0.15-1.22,0.04-1.75-0.08c-0.62-0.14-1.17-0.39-1.66-0.74
			c-0.69-0.5-1.23-1.19-1.62-2.09c-0.26-0.59-0.42-1.29-0.46-2.15c0-0.11-0.05-0.13-0.17-0.07c-0.44,0.22-0.88,0.46-1.38,0.86
			c-0.4,0.31-0.8,0.7-1.2,1.24c-0.45,0.61-0.74,1.21-0.88,1.72c-0.15,0.51-0.22,0.96-0.33,1.44
			C226.59,114.72,226.59,114.77,226.58,114.84z M231.69,108.97c-0.02,0.02-0.03,0.05-0.05,0.07c0.01,0.05,0.01,0.11,0.02,0.15
			c0.12,0.41,0.21,0.84,0.36,1.21c0.43,1.09,1.16,1.76,2.02,2.26c0.72,0.41,1.55,0.64,2.57,0.56c0.23-0.02,0.48-0.07,0.82-0.28
			c-0.03-0.4-0.05-0.83-0.17-1.12c-0.32-0.77-0.75-1.38-1.29-1.84c-0.9-0.76-2-1.2-3.44-1.11
			C232.25,108.88,231.97,108.93,231.69,108.97z"/>
		<path d="M241.59,93.07c-0.31,0.15-0.59,0.29-0.87,0.42c-0.03,0.01-0.04-0.04-0.04-0.09c0.12-0.72,0.34-1.51,0.83-2.48
			c0.62-1.23,1.41-2.28,2.34-3.12c0.86-0.78,1.59-1.2,2.27-1.5c1.21-0.53,2.17-0.61,3.06-0.55c0.9,0.06,1.64,0.37,2.28,0.81
			c0.72,0.49,1.34,1.12,1.71,2.08c0.12,0.31,0.2,0.69,0.26,1.08c0.03,0.21,0.01,0.5-0.06,0.81c-0.11,0.51-0.55,1.25-1.07,1.68
			c-0.22,0.18-0.44,0.3-0.63,0.38c-0.69,0.3-1.2,0.27-1.71,0.23c-1.15-0.1-2.05-0.58-2.8-1.27c-0.49-0.45-0.87-1.05-1.16-1.77
			c-0.24-0.59-0.39-1.28-0.43-2.11c0-0.04-0.03-0.08-0.07-0.06c-0.51,0.23-1.06,0.52-1.69,1.07c-0.34,0.29-0.68,0.65-1.02,1.11
			c-0.4,0.55-0.64,1.07-0.82,1.56c-0.21,0.58-0.3,1.06-0.36,1.51C241.61,92.93,241.6,92.99,241.59,93.07z M246.69,87.2
			c-0.02,0.03-0.04,0.07-0.07,0.1c0.08,0.29,0.16,0.58,0.24,0.87c0.27,0.93,0.75,1.57,1.31,2.1c0.57,0.53,1.25,0.88,2.03,1.08
			c0.47,0.12,0.99,0.17,1.6,0.06c0.18-0.03,0.38-0.11,0.57-0.16c0.02-0.03,0.04-0.05,0.05-0.08c0-0.12,0-0.25-0.01-0.37
			c-0.08-0.71-0.33-1.21-0.63-1.66c-0.47-0.7-1.07-1.24-1.79-1.59c-0.73-0.35-1.56-0.56-2.57-0.46
			C247.18,87.14,246.93,87.17,246.69,87.2z"/>
		<path d="M246.59,85.81c-0.3,0.15-0.59,0.28-0.87,0.41c-0.03,0.01-0.06-0.01-0.05-0.06c0.19-0.95,0.44-1.94,1.27-3.28
			c0.59-0.96,1.23-1.74,1.93-2.37c0.93-0.84,1.71-1.26,2.43-1.56c0.95-0.39,1.76-0.52,2.49-0.49c1.07,0.04,1.98,0.32,2.73,0.86
			c0.48,0.35,0.91,0.78,1.25,1.32c0.34,0.53,0.66,1.1,0.66,2.04c0,0.2-0.04,0.45-0.11,0.72c-0.17,0.62-0.77,1.41-1.25,1.71
			c-0.66,0.41-1.12,0.44-1.57,0.46c-1,0.03-1.79-0.27-2.52-0.68c-0.64-0.36-1.17-0.9-1.59-1.57c-0.46-0.73-0.77-1.66-0.84-2.87
			c0-0.07-0.06-0.09-0.13-0.07c-0.48,0.18-1.03,0.51-1.64,1.04c-0.66,0.58-1.15,1.2-1.56,2.06c-0.36,0.75-0.49,1.32-0.58,1.86
			C246.63,85.5,246.62,85.64,246.59,85.81z M257.37,84.02c0.03-0.04,0.05-0.08,0.08-0.12c-0.03-0.26-0.03-0.56-0.1-0.78
			c-0.3-1.02-0.84-1.73-1.5-2.26c-0.88-0.7-1.95-1.1-3.34-1.02c-0.26,0.02-0.55,0.08-0.83,0.12c-0.03,0.13-0.02,0.21-0.01,0.27
			c0.14,0.6,0.28,1.2,0.58,1.6c0.32,0.43,0.63,0.87,0.99,1.25c0.41,0.43,0.93,0.7,1.51,0.89c0.56,0.18,1.13,0.34,1.87,0.24
			C256.85,84.16,257.12,84.08,257.37,84.02z"/>
		<path d="M236.59,100.33c-0.3,0.14-0.58,0.28-0.86,0.41c-0.03,0.01-0.05-0.01-0.05-0.05c0.13-0.79,0.37-1.67,0.98-2.79
			c0.66-1.22,1.46-2.21,2.34-2.97c1-0.87,1.81-1.27,2.57-1.55c1.01-0.37,1.86-0.45,2.62-0.37c0.95,0.1,1.76,0.41,2.44,0.92
			c0.67,0.5,1.21,1.16,1.58,2.06c0.12,0.3,0.19,0.68,0.23,1.08c0.02,0.22-0.03,0.53-0.11,0.86c-0.12,0.52-0.68,1.32-1.12,1.61
			c-0.29,0.19-0.58,0.34-0.81,0.41c-1.06,0.32-1.81,0.11-2.54-0.12c-0.64-0.2-1.21-0.52-1.66-1.01c-0.34-0.36-0.62-0.79-0.91-1.2
			c-0.33-0.47-0.51-1.14-0.64-1.85c-0.04-0.24-0.04-0.54-0.08-0.79c-0.01-0.06-0.06-0.1-0.13-0.07c-0.45,0.21-0.91,0.44-1.45,0.9
			c-0.24,0.2-0.5,0.44-0.75,0.7c-0.59,0.63-0.97,1.32-1.22,1.99c-0.24,0.64-0.35,1.17-0.4,1.64
			C236.61,100.19,236.6,100.25,236.59,100.33z M247.38,98.51c0.03-0.04,0.06-0.08,0.08-0.12c-0.07-0.37-0.09-0.79-0.21-1.09
			c-0.38-0.91-0.92-1.61-1.61-2.1c-0.65-0.45-1.41-0.74-2.29-0.83c-0.51-0.05-1.06-0.02-1.7,0.12c0.01,0.06,0.01,0.12,0.02,0.15
			c0.15,0.48,0.25,1.02,0.46,1.42c0.26,0.52,0.57,0.99,0.93,1.37c0.62,0.65,1.4,1.06,2.36,1.21c0.41,0.06,0.87,0.05,1.33,0.03
			C246.92,98.67,247.16,98.57,247.38,98.51z"/>
		<path d="M222.73,118.87c-0.14-0.1-0.27-0.19-0.42-0.29c0.3-0.45,0.62-0.85,0.95-1.2c0.82-0.87,1.54-1.38,2.21-1.75
			c1.19-0.65,2.14-0.85,3.01-0.87c1.44-0.04,2.56,0.4,3.46,1.2c0.54,0.48,0.97,1.09,1.28,1.87c0.15,0.38,0.26,0.82,0.18,1.47
			c-0.03,0.25-0.1,0.53-0.31,0.92c-0.25,0.46-0.63,0.92-0.94,1.13c-0.39,0.26-0.7,0.38-1,0.44c-0.95,0.21-1.67,0.02-2.36-0.21
			c-0.78-0.26-1.42-0.72-1.95-1.34c-0.57-0.66-1-1.48-1.2-2.61c-0.05-0.28-0.06-0.6-0.1-0.89c-0.01-0.06-0.06-0.09-0.13-0.06
			c-0.52,0.23-1.08,0.55-1.72,1.12C223.38,118.07,223.06,118.42,222.73,118.87z M226.69,116.21c-0.02,0.03-0.04,0.06-0.06,0.09
			c0,0.02-0.01,0.04,0,0.05c0.17,0.54,0.3,1.13,0.53,1.59c0.24,0.48,0.53,0.89,0.87,1.24c0.49,0.53,1.11,0.89,1.82,1.1
			c0.53,0.15,1.07,0.3,1.77,0.19c0.24-0.04,0.49-0.12,0.74-0.18c0.03-0.04,0.06-0.08,0.08-0.12c-0.05-0.31-0.06-0.67-0.15-0.93
			c-0.26-0.77-0.66-1.36-1.14-1.84c-0.5-0.49-1.07-0.88-1.78-1.06c-0.49-0.12-1.02-0.19-1.56-0.22
			C227.47,116.1,227.06,116.18,226.69,116.21z"/>
		<path d="M256.75,71.25c-0.23,0.1-0.43,0.16-0.66,0.29c-0.24,0.14-0.28,0.06-0.23-0.22c0.14-0.66,0.33-1.36,0.72-2.2
			c0.2-0.44,0.47-0.89,0.77-1.36c0.14,0.1,0.28,0.19,0.42,0.29C256.94,69.47,256.86,70.34,256.75,71.25z"/>
		<path class="st8" d="M256.65,72.7c0.34-0.04,0.66-0.1,0.95-0.11c1.05-0.06,1.92,0.19,2.66,0.61c0.72,0.41,1.3,1.02,1.74,1.81
			c0.22,0.4,0.39,0.85,0.42,1.49c0,0.05,0,0.11,0.01,0.2c-0.12,0.05-0.2,0.09-0.29,0.12c-0.58,0.2-1.02,0.16-1.46,0.11
			c-1.04-0.11-1.86-0.56-2.56-1.19c-0.5-0.44-0.89-1.03-1.16-1.78c-0.12-0.34-0.2-0.72-0.3-1.08
			C256.66,72.84,256.66,72.79,256.65,72.7z"/>
		<path class="st8" d="M236.71,101.68c0.44-0.03,0.89-0.08,1.31-0.08c1.24,0.01,2.18,0.47,2.98,1.16c0.51,0.45,0.95,0.99,1.23,1.75
			c0.12,0.32,0.23,0.66,0.19,1.22c-0.14,0.05-0.25,0.1-0.36,0.13c-0.74,0.19-1.34,0.17-1.85-0.02c-0.54-0.2-1.09-0.4-1.58-0.69
			c-0.51-0.3-0.9-0.79-1.25-1.32c-0.34-0.52-0.57-1.17-0.72-1.91c-0.01-0.04-0.01-0.09-0.01-0.14
			C236.66,101.75,236.69,101.72,236.71,101.68z"/>
		<path class="st8" d="M231.69,108.97c0.28-0.03,0.56-0.09,0.83-0.1c1.44-0.09,2.54,0.35,3.44,1.11c0.55,0.46,0.98,1.07,1.29,1.84
			c0.12,0.29,0.13,0.72,0.17,1.12c-0.34,0.21-0.59,0.27-0.82,0.28c-1.02,0.08-1.86-0.15-2.57-0.56c-0.86-0.5-1.59-1.17-2.02-2.26
			c-0.15-0.37-0.24-0.8-0.36-1.21c-0.01-0.04-0.01-0.1-0.02-0.15C231.65,109.02,231.67,108.99,231.69,108.97z"/>
		<path class="st8" d="M246.69,87.2c0.24-0.03,0.49-0.07,0.73-0.09c1.02-0.11,1.84,0.11,2.57,0.46c0.73,0.35,1.32,0.88,1.79,1.59
			c0.3,0.44,0.55,0.95,0.63,1.66c0.01,0.11,0.01,0.24,0.01,0.37c-0.02,0.03-0.04,0.05-0.05,0.08c-0.19,0.06-0.4,0.13-0.57,0.16
			c-0.61,0.11-1.13,0.06-1.6-0.06c-0.78-0.21-1.47-0.56-2.03-1.08c-0.57-0.53-1.05-1.18-1.31-2.1c-0.08-0.29-0.16-0.58-0.24-0.87
			C246.64,87.27,246.66,87.24,246.69,87.2z"/>
		<path class="st8" d="M257.37,84.02c-0.25,0.06-0.52,0.14-0.76,0.18c-0.74,0.11-1.3-0.06-1.87-0.24c-0.58-0.18-1.1-0.46-1.51-0.89
			c-0.36-0.38-0.67-0.82-0.99-1.25c-0.3-0.4-0.44-0.99-0.58-1.6c-0.01-0.06-0.02-0.14,0.01-0.27c0.28-0.04,0.56-0.1,0.83-0.12
			c1.38-0.08,2.46,0.32,3.34,1.02c0.67,0.53,1.2,1.24,1.5,2.26c0.07,0.22,0.07,0.52,0.1,0.78C257.42,83.93,257.4,83.98,257.37,84.02
			z"/>
		<path class="st8" d="M247.38,98.51c-0.21,0.06-0.46,0.17-0.64,0.17c-0.46,0.02-0.92,0.03-1.33-0.03
			c-0.96-0.15-1.74-0.56-2.36-1.21c-0.36-0.38-0.67-0.85-0.93-1.37c-0.21-0.41-0.31-0.94-0.46-1.42c-0.01-0.04-0.01-0.09-0.02-0.15
			c0.64-0.15,1.19-0.17,1.7-0.12c0.89,0.09,1.64,0.38,2.29,0.83c0.7,0.49,1.23,1.19,1.61,2.1c0.12,0.3,0.14,0.72,0.21,1.09
			C247.43,98.42,247.41,98.47,247.38,98.51z"/>
		<path class="st8" d="M226.69,116.21c0.37-0.03,0.78-0.11,1.12-0.09c0.54,0.04,1.07,0.1,1.56,0.22c0.71,0.18,1.28,0.57,1.78,1.06
			c0.49,0.47,0.88,1.07,1.14,1.84c0.09,0.26,0.1,0.62,0.15,0.93c-0.03,0.04-0.06,0.08-0.08,0.12c-0.25,0.06-0.51,0.14-0.74,0.18
			c-0.69,0.11-1.23-0.04-1.77-0.19c-0.72-0.2-1.33-0.57-1.82-1.1c-0.33-0.36-0.63-0.76-0.87-1.24c-0.23-0.46-0.36-1.05-0.53-1.59
			c0-0.01,0-0.03,0-0.05C226.65,116.27,226.67,116.24,226.69,116.21z"/>
	</g>
	<g>
		<path class="st8" d="M253.32,222.79c-7.66-2.13-15.32-4.26-22.98-6.39c1.29-4.64,2.58-9.28,3.87-13.93
			c7.66,2.13,15.32,4.26,22.98,6.39C255.9,213.51,254.61,218.15,253.32,222.79z M250.64,210.45c0.19-0.14,0.38-0.3,0.59-0.42
			c0.48-0.27,0.84-0.16,1.13,0.26c0.18,0.26,0.26,0.56,0.33,0.87c0.01,0.03,0,0.07-0.02,0.1c-0.42,0.51-0.74,1.08-1.03,1.67
			c-0.33,0.69-0.59,1.39-0.81,2.12c-0.17,0.58-0.3,1.17-0.38,1.76c-0.07,0.51-0.15,1.02-0.11,1.54c0.02,0.23,0.03,0.47,0.15,0.68
			c0.14,0.25,0.44,0.31,0.67,0.14c0.25-0.18,0.41-0.43,0.56-0.69c0.43-0.71,0.72-1.49,0.98-2.27c0.32-0.99,0.53-2,0.6-3.03
			c0.05-0.68,0.05-1.36-0.08-2.04c-0.07-0.37-0.18-0.74-0.38-1.07c-0.23-0.38-0.54-0.65-1-0.7c-0.52-0.06-0.93,0.19-1.31,0.5
			c-0.02,0.01-0.03,0.05-0.02,0.07C250.56,210.12,250.6,210.29,250.64,210.45z M239.73,207.4c0.21-0.15,0.42-0.3,0.64-0.43
			c0.2-0.12,0.43-0.16,0.66-0.07c0.16,0.06,0.29,0.18,0.39,0.32c0.19,0.28,0.29,0.59,0.36,0.92c0.01,0.03-0.02,0.07-0.04,0.1
			c-0.23,0.35-0.48,0.7-0.7,1.06c-0.46,0.77-0.78,1.59-1.03,2.45c-0.15,0.53-0.27,1.07-0.4,1.61c-0.11,0.5-0.17,1.01-0.18,1.53
			c-0.01,0.34-0.01,0.67,0.09,1c0.1,0.34,0.45,0.47,0.73,0.26c0.12-0.09,0.22-0.21,0.32-0.33c0.31-0.4,0.51-0.85,0.72-1.31
			c0.35-0.77,0.61-1.56,0.79-2.38c0.12-0.54,0.21-1.1,0.28-1.65c0.08-0.64,0.09-1.28,0.02-1.91c-0.04-0.34-0.1-0.68-0.22-1
			c-0.13-0.37-0.31-0.71-0.63-0.96c-0.26-0.2-0.56-0.28-0.87-0.25c-0.39,0.04-0.72,0.24-1.02,0.49c-0.02,0.02-0.04,0.06-0.03,0.08
			C239.64,207.08,239.69,207.25,239.73,207.4z M237,206.68c0.03-0.02,0.05-0.04,0.07-0.06c0.19-0.14,0.37-0.29,0.57-0.41
			c0.2-0.12,0.43-0.16,0.66-0.08c0.2,0.08,0.34,0.23,0.45,0.42c0.14,0.24,0.22,0.49,0.29,0.76c0.02,0.07,0.01,0.12-0.04,0.18
			c-0.35,0.44-0.64,0.91-0.9,1.41c-0.38,0.76-0.69,1.55-0.92,2.36c-0.16,0.57-0.29,1.15-0.37,1.74c-0.07,0.5-0.14,1-0.11,1.51
			c0.01,0.22,0.03,0.44,0.11,0.65c0.12,0.29,0.42,0.4,0.66,0.24c0.1-0.06,0.19-0.15,0.26-0.24c0.31-0.38,0.55-0.81,0.75-1.26
			c0.28-0.63,0.53-1.27,0.7-1.94c0.15-0.59,0.27-1.18,0.38-1.77c0.11-0.59,0.13-1.18,0.12-1.78c-0.01-0.43-0.05-0.85-0.16-1.27
			c-0.1-0.39-0.22-0.76-0.47-1.08c-0.31-0.4-0.73-0.57-1.23-0.48c-0.35,0.06-0.65,0.24-0.91,0.47c-0.02,0.02-0.04,0.06-0.04,0.08
			C236.91,206.32,236.95,206.49,237,206.68z M245.19,208.95c0.03-0.03,0.06-0.05,0.08-0.07c0.18-0.16,0.37-0.32,0.6-0.42
			c0.19-0.08,0.39-0.13,0.6-0.06c0.17,0.06,0.3,0.18,0.41,0.33c0.19,0.28,0.29,0.59,0.36,0.92c0.01,0.03-0.01,0.06-0.03,0.09
			c-0.34,0.43-0.63,0.88-0.88,1.37c-0.3,0.59-0.57,1.19-0.77,1.82c-0.32,0.97-0.55,1.95-0.64,2.96c-0.04,0.44-0.07,0.89,0.02,1.33
			c0.02,0.12,0.06,0.24,0.13,0.35c0.15,0.24,0.43,0.25,0.63,0.1c0.12-0.09,0.24-0.21,0.33-0.34c0.16-0.24,0.32-0.48,0.45-0.73
			c0.41-0.77,0.69-1.59,0.93-2.43c0.21-0.76,0.37-1.52,0.43-2.31c0.06-0.77,0.07-1.55-0.09-2.31c-0.09-0.43-0.23-0.84-0.51-1.2
			c-0.3-0.38-0.69-0.54-1.17-0.48c-0.37,0.05-0.69,0.24-0.97,0.48c-0.02,0.02-0.04,0.05-0.04,0.07
			C245.1,208.59,245.14,208.76,245.19,208.95z M247.92,209.72c0.07-0.06,0.12-0.12,0.18-0.17c0.22-0.18,0.44-0.35,0.73-0.4
			c0.33-0.06,0.56,0.06,0.77,0.34c0.19,0.26,0.3,0.57,0.35,0.89c0.01,0.04-0.01,0.1-0.03,0.14c-0.5,0.64-0.89,1.33-1.2,2.07
			c-0.29,0.68-0.53,1.37-0.71,2.09c-0.2,0.8-0.36,1.61-0.39,2.44c-0.01,0.37-0.02,0.74,0.12,1.1c0.1,0.27,0.4,0.39,0.64,0.24
			c0.11-0.06,0.21-0.15,0.29-0.25c0.39-0.45,0.63-0.99,0.86-1.53c0.24-0.55,0.43-1.11,0.59-1.68c0.25-0.89,0.41-1.79,0.47-2.71
			c0.04-0.62,0.03-1.25-0.09-1.86c-0.09-0.47-0.22-0.92-0.53-1.31c-0.22-0.29-0.51-0.46-0.88-0.5c-0.51-0.06-0.9,0.2-1.28,0.49
			c-0.02,0.01-0.03,0.05-0.02,0.07C247.83,209.35,247.87,209.53,247.92,209.72z M242.46,208.2c0.03-0.03,0.05-0.05,0.08-0.07
			c0.19-0.18,0.4-0.35,0.65-0.45c0.26-0.1,0.53-0.12,0.76,0.08c0.1,0.08,0.18,0.19,0.25,0.29c0.16,0.24,0.24,0.52,0.3,0.79
			c0.01,0.04-0.01,0.1-0.03,0.14c-0.1,0.15-0.22,0.29-0.33,0.44c-0.3,0.45-0.58,0.92-0.78,1.42c-0.18,0.44-0.37,0.89-0.53,1.34
			c-0.22,0.61-0.37,1.24-0.48,1.88c-0.13,0.73-0.25,1.46-0.16,2.2c0.02,0.17,0.07,0.33,0.13,0.49c0.1,0.23,0.4,0.32,0.61,0.17
			c0.13-0.09,0.25-0.19,0.34-0.32c0.17-0.23,0.32-0.46,0.45-0.71c0.38-0.74,0.68-1.51,0.91-2.31c0.24-0.81,0.4-1.64,0.48-2.49
			c0.07-0.68,0.07-1.36-0.03-2.03c-0.08-0.51-0.21-1-0.51-1.42c-0.27-0.38-0.64-0.58-1.1-0.55c-0.43,0.02-0.78,0.23-1.09,0.5
			c-0.02,0.01-0.03,0.05-0.02,0.07C242.37,207.84,242.41,208.01,242.46,208.2z M235.53,205.36c0.17,0.06,0.3,0.16,0.39,0.3
			c0.2,0.27,0.31,0.59,0.38,0.92c0.01,0.04-0.01,0.1-0.03,0.14c-0.12,0.17-0.25,0.33-0.37,0.51c-0.47,0.7-0.82,1.46-1.11,2.25
			c-0.28,0.74-0.49,1.5-0.63,2.28c-0.12,0.69-0.23,1.38-0.19,2.08c0.01,0.22,0.05,0.43,0.14,0.63c0.07,0.16,0.24,0.26,0.42,0.26
			c0.15,0,0.26-0.08,0.36-0.18c0.26-0.24,0.44-0.54,0.61-0.85c0.33-0.63,0.6-1.29,0.82-1.97c0.36-1.13,0.59-2.29,0.64-3.48
			c0.03-0.71-0.01-1.42-0.22-2.11c-0.12-0.39-0.3-0.75-0.61-1.03c-0.13-0.11-0.28-0.19-0.45-0.23
			C235.62,205.04,235.58,205.19,235.53,205.36z M253.39,211.33c0.37-0.34,0.72-0.69,1.26-0.66c0.05-0.16,0.09-0.32,0.14-0.49
			c-0.18-0.03-0.35-0.04-0.52,0c-0.33,0.08-0.6,0.24-0.86,0.44c-0.11,0.08-0.14,0.16-0.1,0.29
			C253.34,211.04,253.36,211.18,253.39,211.33z"/>
		<path d="M250.64,210.45c-0.04-0.16-0.08-0.33-0.12-0.51c0-0.02,0.01-0.05,0.02-0.07c0.38-0.31,0.79-0.56,1.31-0.5
			c0.46,0.05,0.77,0.32,1,0.7c0.2,0.33,0.3,0.69,0.38,1.07c0.13,0.68,0.13,1.36,0.08,2.04c-0.08,1.04-0.29,2.05-0.6,3.03
			c-0.25,0.79-0.54,1.56-0.98,2.27c-0.15,0.25-0.31,0.5-0.56,0.69c-0.23,0.17-0.53,0.11-0.67-0.14c-0.12-0.21-0.13-0.45-0.15-0.68
			c-0.04-0.52,0.03-1.03,0.11-1.54c0.08-0.6,0.21-1.18,0.38-1.76c0.21-0.73,0.48-1.44,0.81-2.12c0.29-0.59,0.62-1.16,1.03-1.67
			c0.02-0.02,0.03-0.07,0.02-0.1c-0.07-0.3-0.15-0.6-0.33-0.87c-0.29-0.42-0.65-0.53-1.13-0.26
			C251.02,210.15,250.83,210.31,250.64,210.45z M252.8,211.94c-0.04,0.05-0.06,0.07-0.08,0.1c-0.15,0.25-0.31,0.51-0.45,0.77
			c-0.32,0.58-0.58,1.19-0.78,1.83c-0.29,0.89-0.51,1.79-0.6,2.72c-0.04,0.39-0.07,0.78-0.02,1.17c0.01,0.06,0.02,0.11,0.04,0.18
			c0.04-0.05,0.06-0.07,0.08-0.1c0.26-0.32,0.45-0.68,0.62-1.06c0.34-0.75,0.62-1.53,0.81-2.33c0.21-0.83,0.34-1.68,0.37-2.53
			C252.81,212.45,252.8,212.21,252.8,211.94z"/>
		<path d="M239.73,207.4c-0.04-0.15-0.09-0.32-0.13-0.49c-0.01-0.02,0.01-0.06,0.03-0.08c0.3-0.25,0.62-0.45,1.02-0.49
			c0.32-0.03,0.62,0.05,0.87,0.25c0.32,0.25,0.5,0.59,0.63,0.96c0.11,0.33,0.18,0.66,0.22,1c0.07,0.64,0.07,1.28-0.02,1.91
			c-0.07,0.55-0.16,1.11-0.28,1.65c-0.18,0.82-0.44,1.61-0.79,2.38c-0.21,0.46-0.41,0.91-0.72,1.31c-0.09,0.12-0.2,0.24-0.32,0.33
			c-0.28,0.22-0.63,0.09-0.73-0.26c-0.1-0.33-0.1-0.66-0.09-1c0.02-0.51,0.07-1.02,0.18-1.53c0.12-0.54,0.24-1.08,0.4-1.61
			c0.25-0.86,0.57-1.68,1.03-2.45c0.22-0.36,0.47-0.71,0.7-1.06c0.02-0.03,0.04-0.07,0.04-0.1c-0.06-0.33-0.17-0.64-0.36-0.92
			c-0.1-0.14-0.22-0.26-0.39-0.32c-0.23-0.08-0.46-0.05-0.66,0.07C240.15,207.1,239.94,207.25,239.73,207.4z M241.9,208.95
			c-0.01,0-0.03-0.01-0.04-0.01c-0.02,0.03-0.04,0.05-0.06,0.08c-0.31,0.48-0.59,0.99-0.81,1.52c-0.23,0.55-0.45,1.1-0.59,1.68
			c-0.14,0.55-0.24,1.1-0.35,1.66c-0.1,0.52-0.14,1.04-0.09,1.57c0.01,0.07,0.02,0.15,0.04,0.24c0.23-0.23,0.37-0.48,0.51-0.74
			c0.32-0.6,0.56-1.23,0.77-1.87c0.32-1,0.55-2.01,0.6-3.06C241.89,209.66,241.89,209.3,241.9,208.95z"/>
		<path d="M237,206.68c-0.05-0.19-0.09-0.36-0.13-0.53c-0.01-0.02,0.02-0.06,0.04-0.08c0.27-0.23,0.56-0.41,0.91-0.47
			c0.5-0.09,0.91,0.08,1.23,0.48c0.25,0.32,0.38,0.69,0.47,1.08c0.1,0.42,0.15,0.84,0.16,1.27c0.01,0.59-0.01,1.19-0.12,1.78
			c-0.11,0.59-0.23,1.19-0.38,1.77c-0.17,0.67-0.42,1.31-0.7,1.94c-0.2,0.45-0.44,0.88-0.75,1.26c-0.07,0.09-0.16,0.17-0.26,0.24
			c-0.24,0.16-0.54,0.05-0.66-0.24c-0.09-0.21-0.1-0.43-0.11-0.65c-0.03-0.51,0.04-1.01,0.11-1.51c0.08-0.59,0.21-1.17,0.37-1.74
			c0.23-0.82,0.54-1.6,0.92-2.36c0.25-0.5,0.55-0.97,0.9-1.41c0.05-0.06,0.06-0.1,0.04-0.18c-0.07-0.26-0.15-0.52-0.29-0.76
			c-0.11-0.19-0.25-0.34-0.45-0.42c-0.23-0.09-0.46-0.04-0.66,0.08c-0.2,0.12-0.38,0.27-0.57,0.41
			C237.05,206.63,237.03,206.65,237,206.68z M239.16,208.19c-0.01,0-0.02-0.01-0.03-0.01c-0.02,0.03-0.04,0.06-0.06,0.09
			c-0.17,0.29-0.35,0.58-0.51,0.88c-0.46,0.88-0.77,1.81-1.01,2.78c-0.2,0.8-0.33,1.61-0.34,2.43c0,0.18,0.01,0.37,0.08,0.55
			c0.17-0.22,0.34-0.43,0.46-0.67c0.33-0.63,0.6-1.29,0.81-1.97c0.35-1.12,0.58-2.25,0.61-3.43
			C239.17,208.62,239.16,208.4,239.16,208.19z"/>
		<path d="M245.19,208.95c-0.05-0.19-0.09-0.36-0.13-0.54c0-0.02,0.02-0.06,0.04-0.07c0.29-0.24,0.6-0.43,0.97-0.48
			c0.47-0.06,0.87,0.1,1.17,0.48c0.28,0.35,0.42,0.76,0.51,1.2c0.16,0.76,0.15,1.54,0.09,2.31c-0.07,0.78-0.22,1.55-0.43,2.31
			c-0.23,0.84-0.52,1.66-0.93,2.43c-0.13,0.25-0.29,0.5-0.45,0.73c-0.09,0.13-0.2,0.24-0.33,0.34c-0.2,0.15-0.49,0.14-0.63-0.1
			c-0.06-0.1-0.1-0.23-0.13-0.35c-0.09-0.44-0.06-0.88-0.02-1.33c0.09-1.01,0.33-2,0.64-2.96c0.21-0.63,0.47-1.23,0.77-1.82
			c0.25-0.48,0.54-0.94,0.88-1.37c0.02-0.02,0.03-0.06,0.03-0.09c-0.07-0.32-0.17-0.64-0.36-0.92c-0.1-0.15-0.23-0.27-0.41-0.33
			c-0.21-0.07-0.41-0.03-0.6,0.06c-0.23,0.1-0.42,0.25-0.6,0.42C245.24,208.9,245.22,208.92,245.19,208.95z M247.35,210.45
			c-0.01,0-0.03-0.01-0.04-0.01c-0.12,0.2-0.24,0.41-0.36,0.61c-0.39,0.67-0.67,1.38-0.91,2.11c-0.24,0.73-0.41,1.47-0.53,2.23
			c-0.07,0.46-0.11,0.91-0.1,1.38c0,0.14,0.03,0.27,0.04,0.41c0.01,0,0.02,0.01,0.03,0.01c0.05-0.06,0.1-0.12,0.15-0.19
			c0.29-0.41,0.51-0.86,0.7-1.32c0.31-0.73,0.55-1.49,0.73-2.27c0.18-0.79,0.3-1.58,0.3-2.39
			C247.35,210.84,247.35,210.65,247.35,210.45z"/>
		<path d="M247.92,209.72c-0.05-0.19-0.09-0.36-0.13-0.53c0-0.02,0.01-0.05,0.02-0.07c0.38-0.29,0.77-0.55,1.28-0.49
			c0.36,0.04,0.65,0.21,0.88,0.5c0.3,0.39,0.44,0.84,0.53,1.31c0.12,0.62,0.13,1.24,0.09,1.86c-0.07,0.92-0.22,1.82-0.47,2.71
			c-0.16,0.57-0.36,1.13-0.59,1.68c-0.23,0.54-0.48,1.08-0.86,1.53c-0.08,0.1-0.18,0.18-0.29,0.25c-0.24,0.15-0.54,0.03-0.64-0.24
			c-0.14-0.36-0.13-0.73-0.12-1.1c0.03-0.83,0.19-1.64,0.39-2.44c0.18-0.72,0.42-1.41,0.71-2.09c0.32-0.74,0.71-1.43,1.2-2.07
			c0.03-0.03,0.04-0.09,0.03-0.14c-0.05-0.32-0.16-0.62-0.35-0.89c-0.2-0.28-0.44-0.4-0.77-0.34c-0.29,0.05-0.51,0.22-0.73,0.4
			C248.04,209.59,247.99,209.65,247.92,209.72z M248.16,217.93c0.02,0,0.03,0.01,0.05,0.01c0.11-0.15,0.23-0.29,0.32-0.45
			c0.43-0.74,0.74-1.53,0.99-2.34c0.32-1.07,0.54-2.17,0.56-3.29c0.01-0.21-0.01-0.43-0.01-0.64c-0.05,0.04-0.08,0.08-0.11,0.12
			c-0.25,0.4-0.5,0.8-0.68,1.25c-0.19,0.47-0.38,0.95-0.55,1.43c-0.19,0.55-0.33,1.12-0.43,1.69c-0.1,0.56-0.19,1.11-0.18,1.68
			C248.13,217.57,248.15,217.75,248.16,217.93z"/>
		<path d="M242.46,208.2c-0.04-0.18-0.09-0.36-0.13-0.53c0-0.02,0.01-0.05,0.02-0.07c0.32-0.27,0.66-0.48,1.09-0.5
			c0.47-0.02,0.83,0.18,1.1,0.55c0.31,0.43,0.44,0.92,0.51,1.42c0.11,0.67,0.1,1.35,0.03,2.03c-0.08,0.84-0.24,1.67-0.48,2.49
			c-0.23,0.8-0.53,1.57-0.91,2.31c-0.13,0.25-0.29,0.48-0.45,0.71c-0.09,0.12-0.22,0.23-0.34,0.32c-0.21,0.14-0.51,0.06-0.61-0.17
			c-0.07-0.15-0.11-0.32-0.13-0.49c-0.08-0.74,0.04-1.47,0.16-2.2c0.11-0.64,0.27-1.27,0.48-1.88c0.16-0.45,0.35-0.89,0.53-1.34
			c0.21-0.5,0.49-0.97,0.78-1.42c0.1-0.15,0.22-0.29,0.33-0.44c0.03-0.04,0.04-0.1,0.03-0.14c-0.06-0.28-0.14-0.55-0.3-0.79
			c-0.07-0.11-0.16-0.21-0.25-0.29c-0.23-0.2-0.49-0.19-0.76-0.08c-0.25,0.1-0.46,0.26-0.65,0.45
			C242.51,208.15,242.49,208.17,242.46,208.2z M242.71,216.42c0.02,0,0.03,0.01,0.05,0.01c0.15-0.23,0.33-0.45,0.45-0.7
			c0.39-0.75,0.7-1.54,0.93-2.36c0.21-0.76,0.37-1.54,0.44-2.33c0.04-0.45,0.06-0.9,0.03-1.37c-0.03,0.04-0.05,0.06-0.06,0.09
			c-0.2,0.35-0.43,0.7-0.6,1.06c-0.22,0.47-0.43,0.95-0.6,1.44c-0.29,0.83-0.5,1.69-0.6,2.56c-0.04,0.38-0.06,0.75-0.07,1.13
			C242.67,216.11,242.7,216.27,242.71,216.42z"/>
		<path d="M235.53,205.36c0.05-0.16,0.09-0.32,0.14-0.49c0.17,0.04,0.32,0.12,0.45,0.23c0.32,0.28,0.49,0.64,0.61,1.03
			c0.21,0.69,0.25,1.4,0.22,2.11c-0.05,1.19-0.28,2.35-0.64,3.48c-0.22,0.68-0.49,1.34-0.82,1.97c-0.16,0.31-0.35,0.61-0.61,0.85
			c-0.1,0.09-0.21,0.17-0.36,0.18c-0.18,0.01-0.34-0.09-0.42-0.26c-0.09-0.2-0.12-0.41-0.14-0.63c-0.04-0.7,0.07-1.39,0.19-2.08
			c0.14-0.78,0.36-1.54,0.63-2.28c0.29-0.79,0.65-1.55,1.11-2.25c0.12-0.17,0.25-0.34,0.37-0.51c0.03-0.04,0.04-0.1,0.03-0.14
			c-0.07-0.33-0.18-0.64-0.38-0.92C235.83,205.52,235.7,205.42,235.53,205.36z M236.44,207.42c-0.01,0-0.02,0-0.04,0
			c-0.01,0.01-0.01,0.01-0.02,0.02c-0.23,0.4-0.47,0.79-0.67,1.2c-0.21,0.43-0.39,0.87-0.54,1.32c-0.24,0.67-0.41,1.36-0.53,2.06
			c-0.09,0.52-0.17,1.04-0.16,1.58c0,0.18,0.03,0.36,0.04,0.54c0.01,0,0.03,0.01,0.04,0.01c0.13-0.19,0.27-0.37,0.39-0.57
			c0.33-0.59,0.58-1.2,0.8-1.84c0.22-0.65,0.4-1.32,0.51-2c0.07-0.47,0.12-0.94,0.16-1.42
			C236.45,208.02,236.43,207.72,236.44,207.42z"/>
		<path d="M253.39,211.33c-0.03-0.15-0.05-0.29-0.09-0.42c-0.05-0.13-0.01-0.21,0.1-0.29c0.26-0.2,0.54-0.37,0.86-0.44
			c0.17-0.04,0.34-0.03,0.52,0c-0.05,0.17-0.09,0.33-0.14,0.49C254.1,210.65,253.75,210.99,253.39,211.33z"/>
		<path class="st8" d="M252.8,211.94c0,0.27,0.01,0.51,0,0.75c-0.02,0.86-0.16,1.7-0.37,2.53c-0.2,0.8-0.47,1.58-0.81,2.33
			c-0.17,0.38-0.36,0.74-0.62,1.06c-0.02,0.03-0.04,0.06-0.08,0.1c-0.01-0.07-0.03-0.13-0.04-0.18c-0.05-0.39-0.02-0.78,0.02-1.17
			c0.09-0.93,0.31-1.84,0.6-2.72c0.2-0.63,0.46-1.24,0.78-1.83c0.14-0.26,0.3-0.51,0.45-0.77
			C252.74,212.02,252.77,211.99,252.8,211.94z"/>
		<path class="st8" d="M241.9,208.95c-0.01,0.35-0.01,0.71-0.03,1.06c-0.06,1.05-0.29,2.06-0.6,3.06c-0.2,0.65-0.45,1.28-0.77,1.87
			c-0.14,0.26-0.28,0.51-0.51,0.74c-0.01-0.09-0.03-0.17-0.04-0.24c-0.05-0.53-0.01-1.05,0.09-1.57c0.11-0.55,0.21-1.11,0.35-1.66
			c0.15-0.58,0.36-1.13,0.59-1.68c0.22-0.53,0.5-1.03,0.81-1.52c0.02-0.03,0.04-0.05,0.06-0.08
			C241.87,208.94,241.89,208.94,241.9,208.95z"/>
		<path class="st8" d="M239.16,208.19c0,0.22,0.01,0.44,0,0.65c-0.03,1.17-0.26,2.31-0.61,3.43c-0.21,0.68-0.48,1.33-0.81,1.97
			c-0.12,0.24-0.3,0.45-0.46,0.67c-0.07-0.19-0.08-0.37-0.08-0.55c0.01-0.82,0.14-1.63,0.34-2.43c0.24-0.96,0.55-1.9,1.01-2.78
			c0.16-0.3,0.34-0.59,0.51-0.88c0.02-0.03,0.04-0.06,0.06-0.09C239.14,208.18,239.15,208.18,239.16,208.19z"/>
		<path class="st8" d="M247.35,210.45c0,0.19,0.01,0.38,0,0.57c0,0.81-0.13,1.6-0.3,2.39c-0.17,0.78-0.42,1.53-0.73,2.27
			c-0.19,0.46-0.41,0.91-0.7,1.32c-0.05,0.06-0.1,0.12-0.15,0.19c-0.01,0-0.02-0.01-0.03-0.01c-0.01-0.14-0.04-0.27-0.04-0.41
			c-0.02-0.46,0.03-0.92,0.1-1.38c0.12-0.76,0.29-1.5,0.53-2.23c0.24-0.73,0.53-1.44,0.91-2.11c0.12-0.21,0.24-0.41,0.36-0.61
			C247.32,210.45,247.33,210.45,247.35,210.45z"/>
		<path class="st8" d="M248.16,217.93c-0.01-0.18-0.03-0.37-0.04-0.55c-0.01-0.57,0.08-1.13,0.18-1.68c0.1-0.57,0.23-1.14,0.43-1.69
			c0.17-0.48,0.36-0.95,0.55-1.43c0.18-0.44,0.42-0.85,0.68-1.25c0.03-0.04,0.06-0.08,0.11-0.12c0,0.21,0.02,0.43,0.01,0.64
			c-0.03,1.12-0.24,2.22-0.56,3.29c-0.25,0.82-0.56,1.6-0.99,2.34c-0.09,0.16-0.21,0.3-0.32,0.45
			C248.19,217.94,248.18,217.94,248.16,217.93z"/>
		<path class="st8" d="M242.71,216.42c-0.02-0.15-0.05-0.3-0.04-0.45c0.01-0.38,0.03-0.76,0.07-1.13c0.1-0.88,0.31-1.73,0.6-2.56
			c0.17-0.49,0.38-0.97,0.6-1.44c0.17-0.37,0.4-0.71,0.6-1.06c0.02-0.03,0.04-0.05,0.06-0.09c0.03,0.47,0.02,0.92-0.03,1.37
			c-0.08,0.79-0.23,1.56-0.44,2.33c-0.23,0.82-0.54,1.6-0.93,2.36c-0.13,0.24-0.3,0.46-0.45,0.7
			C242.74,216.43,242.73,216.42,242.71,216.42z"/>
		<path class="st8" d="M236.44,207.42c0,0.3,0.01,0.6-0.01,0.9c-0.04,0.47-0.09,0.95-0.16,1.42c-0.11,0.68-0.29,1.35-0.51,2
			c-0.21,0.64-0.47,1.25-0.8,1.84c-0.11,0.2-0.26,0.38-0.39,0.57c-0.01,0-0.03-0.01-0.04-0.01c-0.01-0.18-0.04-0.36-0.04-0.54
			c-0.01-0.53,0.07-1.05,0.16-1.58c0.12-0.7,0.29-1.39,0.53-2.06c0.16-0.45,0.34-0.89,0.54-1.32c0.2-0.41,0.45-0.8,0.67-1.2
			c0-0.01,0.01-0.01,0.02-0.02C236.41,207.42,236.42,207.42,236.44,207.42z"/>
	</g>
	<g>
		<path class="st8" d="M299.66,221.03c-23.83-6.63-47.66-13.26-71.49-19.89c1.29-4.64,2.58-9.28,3.87-13.93
			c23.83,6.63,47.66,13.26,71.49,19.89C302.24,211.74,300.95,216.39,299.66,221.03z M285,205.36c0.5-0.05,0.96-0.14,1.52-0.16
			c1.26-0.05,2.4,0.27,3.48,0.91c0.66,0.4,1.09,0.79,1.45,1.18c0.04,0.04,0.03,0.08-0.02,0.1c-0.95,0.36-1.62,0.84-2.14,1.36
			c-0.6,0.61-1,1.28-1.23,2.01c-0.18,0.57-0.25,1.18-0.17,1.82c0.07,0.55,0.13,1.1,0.53,1.72c0.18,0.28,0.34,0.56,0.81,0.87
			c0.55,0.37,1.47,0.6,2.06,0.53c0.63-0.08,0.96-0.28,1.28-0.49c0.89-0.58,1.33-1.32,1.65-2.08c0.4-0.96,0.48-2.01,0.14-3.16
			c-0.22-0.76-0.6-1.54-1.36-2.39c-0.42-0.47-0.93-0.95-1.7-1.43c-0.88-0.56-1.94-1.04-3.33-1.35c-1.57-0.35-2.64-0.29-3.6-0.14
			c-0.04,0.01-0.05,0.04-0.02,0.07C284.57,204.93,284.8,205.15,285,205.36z M251.03,195.89c0.55-0.05,1.08-0.12,1.65-0.15
			c0.54-0.03,1.2,0.06,1.91,0.28c0.51,0.16,0.95,0.36,1.32,0.58c0.72,0.42,1.19,0.84,1.56,1.25c0.03,0.04-0.01,0.07-0.05,0.1
			c-0.5,0.28-1.04,0.54-1.49,0.84c-0.94,0.63-1.45,1.41-1.72,2.26c-0.17,0.53-0.23,1.08-0.29,1.64c-0.06,0.52,0.06,1.07,0.29,1.66
			c0.15,0.38,0.35,0.77,0.82,1.2c0.49,0.45,1.59,0.79,2.31,0.7c0.31-0.04,0.55-0.12,0.76-0.21c0.71-0.29,1.06-0.7,1.42-1.11
			c0.61-0.69,0.94-1.47,1.03-2.31c0.06-0.56,0.01-1.15-0.08-1.75c-0.1-0.69-0.43-1.42-1-2.2c-0.3-0.41-0.67-0.84-1.19-1.27
			c-0.59-0.5-1.3-0.99-2.38-1.45c-0.88-0.37-1.8-0.62-2.72-0.76c-1.15-0.17-1.99-0.11-2.75,0.01c-0.05,0.01-0.08,0.05-0.05,0.08
			C250.6,195.48,250.83,195.69,251.03,195.89z M242.57,193.57c0.07-0.01,0.11-0.02,0.16-0.03c0.49-0.06,0.94-0.13,1.47-0.16
			c0.53-0.03,1.19,0.05,1.91,0.27c0.64,0.2,1.14,0.45,1.57,0.73c0.54,0.35,0.91,0.69,1.26,1.03c0.1,0.09,0.09,0.14-0.01,0.18
			c-0.8,0.31-1.41,0.7-1.88,1.14c-0.72,0.66-1.2,1.4-1.45,2.22c-0.17,0.57-0.23,1.17-0.16,1.8c0.06,0.54,0.13,1.08,0.5,1.68
			c0.16,0.26,0.32,0.53,0.69,0.81c0.51,0.4,1.46,0.69,2.1,0.64c0.25-0.02,0.47-0.07,0.64-0.13c0.72-0.27,1.19-0.63,1.54-1.04
			c0.49-0.57,0.88-1.18,1.02-1.86c0.12-0.59,0.15-1.21,0.15-1.84c0.01-0.61-0.25-1.29-0.62-1.98c-0.26-0.5-0.63-1.01-1.16-1.55
			c-0.49-0.5-1.08-0.99-1.99-1.5c-1.15-0.63-2.47-1.05-3.9-1.23c-1-0.12-1.78-0.07-2.45,0.05c-0.05,0.01-0.09,0.04-0.07,0.07
			C242.11,193.11,242.33,193.33,242.57,193.57z M268.05,200.66c0.08-0.02,0.14-0.03,0.2-0.04c0.45-0.09,0.93-0.16,1.55-0.16
			c0.52,0.01,1.09,0.07,1.75,0.26c0.55,0.16,0.99,0.37,1.38,0.6c0.72,0.42,1.18,0.84,1.56,1.25c0.03,0.03,0.01,0.07-0.03,0.09
			c-0.77,0.3-1.37,0.67-1.85,1.09c-0.58,0.51-1.03,1.07-1.29,1.68c-0.41,0.94-0.56,1.95-0.29,3.06c0.12,0.49,0.26,0.98,0.77,1.54
			c0.14,0.15,0.32,0.32,0.57,0.47c0.57,0.35,1.41,0.53,1.93,0.46c0.31-0.04,0.59-0.11,0.78-0.21c0.35-0.18,0.68-0.38,0.94-0.6
			c0.79-0.67,1.18-1.46,1.41-2.3c0.21-0.76,0.26-1.56,0.02-2.42c-0.23-0.86-0.62-1.74-1.52-2.71c-0.51-0.55-1.14-1.1-2.16-1.66
			c-1.09-0.6-2.34-1-3.71-1.19c-1.08-0.15-1.9-0.09-2.61,0.02c-0.05,0.01-0.1,0.04-0.07,0.06
			C267.58,200.19,267.8,200.42,268.05,200.66z M276.54,203.02c0.17-0.04,0.3-0.07,0.45-0.1c0.54-0.09,1.12-0.16,1.94-0.06
			c0.94,0.11,1.69,0.37,2.45,0.81c0.7,0.4,1.19,0.81,1.52,1.21c0.05,0.05,0.04,0.12-0.02,0.14c-1.12,0.46-1.9,1.05-2.44,1.73
			c-0.49,0.62-0.83,1.29-0.97,2.02c-0.15,0.82-0.18,1.66,0.18,2.6c0.16,0.42,0.35,0.85,0.94,1.33c0.44,0.36,1.39,0.66,2.03,0.63
			c0.28-0.02,0.53-0.06,0.72-0.13c0.9-0.31,1.32-0.8,1.72-1.29c0.4-0.5,0.67-1.04,0.84-1.61c0.26-0.88,0.23-1.84-0.07-2.86
			c-0.21-0.69-0.59-1.42-1.27-2.19c-0.52-0.59-1.17-1.18-2.27-1.79c-0.82-0.45-1.77-0.81-2.87-1.05c-1.54-0.34-2.56-0.26-3.52-0.13
			c-0.04,0.01-0.06,0.04-0.04,0.06C276.08,202.56,276.3,202.78,276.54,203.02z M259.55,198.3c0.07-0.01,0.14-0.02,0.19-0.04
			c0.47-0.11,1-0.18,1.69-0.16c0.72,0.02,1.5,0.15,2.28,0.51c0.33,0.15,0.64,0.32,0.91,0.48c0.6,0.36,0.98,0.72,1.32,1.08
			c0.05,0.05,0.03,0.11-0.03,0.14c-0.23,0.12-0.51,0.21-0.72,0.33c-0.64,0.36-1.21,0.74-1.54,1.21c-0.3,0.41-0.61,0.82-0.84,1.25
			c-0.31,0.59-0.43,1.22-0.41,1.9c0.02,0.77,0.06,1.54,0.71,2.44c0.15,0.2,0.38,0.42,0.66,0.63c0.42,0.32,1.35,0.58,1.89,0.53
			c0.33-0.03,0.64-0.08,0.84-0.18c0.37-0.17,0.71-0.35,0.95-0.57c0.73-0.64,1.18-1.37,1.43-2.17c0.26-0.81,0.29-1.68,0.07-2.6
			c-0.17-0.74-0.52-1.52-1.2-2.36c-0.51-0.63-1.16-1.26-2.3-1.92c-1.01-0.58-2.2-1.01-3.57-1.24c-1.25-0.21-2.17-0.15-2.96-0.02
			c-0.04,0.01-0.06,0.04-0.04,0.06C259.1,197.84,259.32,198.06,259.55,198.3z M237.5,191.25c0.53,0.16,0.96,0.35,1.33,0.56
			c0.75,0.42,1.24,0.85,1.62,1.26c0.05,0.06,0.04,0.12-0.02,0.15c-0.26,0.13-0.56,0.25-0.81,0.39c-1,0.56-1.64,1.23-2.07,1.98
			c-0.41,0.71-0.64,1.46-0.63,2.28c0.01,0.72,0.06,1.46,0.57,2.29c0.16,0.26,0.37,0.52,0.74,0.8c0.3,0.23,0.85,0.43,1.38,0.52
			c0.44,0.08,0.72,0.05,0.97-0.01c0.63-0.14,1.02-0.38,1.33-0.65c0.64-0.55,1.07-1.16,1.35-1.82c0.46-1.11,0.51-2.31,0-3.66
			c-0.3-0.81-0.8-1.65-1.81-2.56c-0.57-0.52-1.29-1.03-2.38-1.52c-0.44-0.2-0.92-0.37-1.44-0.51
			C237.59,190.93,237.55,191.09,237.5,191.25z M293.61,207.87c0.9-0.19,1.75-0.4,3.36-0.08c0.05-0.16,0.09-0.32,0.14-0.49
			c-0.55-0.14-1.06-0.24-1.54-0.29c-0.92-0.09-1.65-0.05-2.32,0.04c-0.28,0.04-0.34,0.11-0.13,0.28
			C293.32,207.51,293.44,207.68,293.61,207.87z"/>
		<path d="M285,205.36c-0.2-0.2-0.42-0.43-0.64-0.65c-0.02-0.03-0.01-0.06,0.02-0.07c0.96-0.15,2.02-0.21,3.6,0.14
			c1.38,0.31,2.45,0.79,3.33,1.35c0.76,0.49,1.28,0.96,1.7,1.43c0.76,0.85,1.14,1.63,1.36,2.39c0.34,1.15,0.27,2.2-0.14,3.16
			c-0.32,0.77-0.76,1.5-1.65,2.08c-0.32,0.21-0.66,0.41-1.28,0.49c-0.59,0.07-1.51-0.16-2.06-0.53c-0.47-0.31-0.63-0.59-0.81-0.87
			c-0.4-0.62-0.46-1.17-0.53-1.72c-0.08-0.64-0.01-1.25,0.17-1.82c0.23-0.72,0.62-1.4,1.23-2.01c0.52-0.53,1.19-1,2.14-1.36
			c0.04-0.02,0.05-0.06,0.02-0.1c-0.36-0.39-0.79-0.78-1.45-1.18c-1.08-0.64-2.22-0.96-3.48-0.91
			C285.96,205.22,285.49,205.3,285,205.36z M292.22,208.25c-0.08,0.04-0.14,0.05-0.17,0.07c-0.31,0.21-0.64,0.41-0.92,0.64
			c-0.62,0.5-1.05,1.06-1.31,1.68c-0.36,0.87-0.52,1.79-0.28,2.81c0.1,0.43,0.21,0.86,0.58,1.34c0.05,0.07,0.12,0.14,0.21,0.23
			c0.09-0.03,0.14-0.05,0.19-0.07c0.59-0.23,0.97-0.54,1.27-0.88c0.6-0.68,0.99-1.42,1.14-2.24c0.16-0.85,0.11-1.74-0.29-2.72
			C292.52,208.85,292.37,208.57,292.22,208.25z"/>
		<path d="M251.03,195.89c-0.2-0.2-0.43-0.41-0.64-0.63c-0.03-0.03,0-0.07,0.05-0.08c0.75-0.12,1.6-0.18,2.75-0.01
			c0.92,0.14,1.85,0.39,2.72,0.76c1.09,0.46,1.79,0.95,2.38,1.45c0.51,0.44,0.88,0.86,1.19,1.27c0.57,0.78,0.9,1.51,1,2.2
			c0.09,0.6,0.14,1.19,0.08,1.75c-0.09,0.84-0.43,1.62-1.03,2.31c-0.36,0.41-0.71,0.83-1.42,1.11c-0.21,0.09-0.46,0.17-0.76,0.21
			c-0.72,0.09-1.82-0.25-2.31-0.7c-0.47-0.43-0.67-0.82-0.82-1.2c-0.23-0.58-0.35-1.14-0.29-1.66c0.07-0.55,0.13-1.11,0.29-1.64
			c0.27-0.85,0.78-1.62,1.72-2.26c0.45-0.3,0.99-0.56,1.49-0.84c0.04-0.02,0.09-0.06,0.05-0.1c-0.37-0.41-0.84-0.83-1.56-1.25
			c-0.37-0.22-0.81-0.42-1.32-0.58c-0.72-0.22-1.38-0.31-1.91-0.28C252.11,195.77,251.59,195.84,251.03,195.89z M258.31,198.86
			c-0.04-0.01-0.08-0.02-0.12-0.03c-0.04,0.02-0.09,0.04-0.12,0.06c-0.65,0.39-1.19,0.82-1.57,1.31c-0.39,0.51-0.72,1.03-0.84,1.61
			c-0.11,0.55-0.12,1.14-0.14,1.72c-0.01,0.54,0.16,1.12,0.58,1.76c0.06,0.09,0.15,0.18,0.24,0.3c0.54-0.14,0.83-0.36,1.1-0.57
			c0.63-0.51,1-1.11,1.26-1.74c0.39-0.98,0.52-2.02,0.12-3.19C258.68,199.67,258.48,199.26,258.31,198.86z"/>
		<path d="M242.57,193.57c-0.24-0.24-0.46-0.46-0.67-0.68c-0.03-0.03,0.01-0.06,0.07-0.07c0.67-0.11,1.44-0.17,2.45-0.05
			c1.43,0.17,2.75,0.59,3.9,1.23c0.91,0.5,1.49,1,1.99,1.5c0.53,0.54,0.89,1.05,1.16,1.55c0.37,0.69,0.62,1.37,0.62,1.98
			c-0.01,0.62-0.03,1.24-0.15,1.84c-0.14,0.68-0.53,1.28-1.02,1.86c-0.35,0.41-0.82,0.77-1.54,1.04c-0.17,0.06-0.39,0.11-0.64,0.13
			c-0.64,0.05-1.58-0.24-2.1-0.64c-0.37-0.29-0.53-0.55-0.69-0.81c-0.36-0.6-0.43-1.14-0.5-1.68c-0.08-0.63-0.02-1.23,0.16-1.8
			c0.25-0.81,0.72-1.55,1.45-2.22c0.48-0.44,1.09-0.82,1.88-1.14c0.1-0.04,0.11-0.09,0.01-0.18c-0.35-0.34-0.72-0.68-1.26-1.03
			c-0.42-0.27-0.92-0.53-1.57-0.73c-0.73-0.23-1.38-0.3-1.91-0.27c-0.53,0.03-0.98,0.1-1.47,0.16
			C242.68,193.55,242.64,193.56,242.57,193.57z M249.78,196.49c-0.03-0.01-0.06-0.02-0.08-0.02c-0.05,0.02-0.1,0.04-0.14,0.07
			c-0.35,0.24-0.72,0.48-1.03,0.74c-0.89,0.76-1.29,1.67-1.48,2.65c-0.16,0.81-0.1,1.67,0.31,2.61c0.09,0.21,0.23,0.43,0.53,0.68
			c0.37-0.16,0.77-0.31,1.01-0.52c0.62-0.55,1.06-1.16,1.32-1.82c0.42-1.1,0.48-2.28-0.08-3.61
			C250.05,197,249.91,196.74,249.78,196.49z"/>
		<path d="M268.05,200.66c-0.24-0.24-0.47-0.47-0.68-0.69c-0.02-0.03,0.02-0.05,0.07-0.06c0.72-0.12,1.53-0.17,2.61-0.02
			c1.37,0.19,2.62,0.59,3.71,1.19c1.02,0.56,1.65,1.11,2.16,1.66c0.9,0.97,1.29,1.85,1.52,2.71c0.23,0.87,0.18,1.67-0.02,2.42
			c-0.23,0.84-0.63,1.63-1.41,2.3c-0.26,0.22-0.58,0.41-0.94,0.6c-0.19,0.1-0.47,0.17-0.78,0.21c-0.52,0.07-1.36-0.11-1.93-0.46
			c-0.25-0.15-0.43-0.32-0.57-0.47c-0.51-0.56-0.65-1.05-0.77-1.54c-0.28-1.12-0.12-2.12,0.29-3.06c0.27-0.61,0.71-1.17,1.29-1.68
			c0.48-0.42,1.08-0.79,1.85-1.09c0.04-0.02,0.07-0.05,0.03-0.09c-0.38-0.41-0.84-0.83-1.56-1.25c-0.38-0.22-0.83-0.43-1.38-0.6
			c-0.65-0.2-1.22-0.26-1.75-0.26c-0.62-0.01-1.1,0.07-1.55,0.16C268.18,200.63,268.12,200.64,268.05,200.66z M275.25,203.56
			c-0.04-0.01-0.08-0.02-0.12-0.03c-0.25,0.17-0.5,0.34-0.74,0.51c-0.79,0.56-1.24,1.22-1.56,1.93c-0.31,0.71-0.42,1.47-0.36,2.28
			c0.04,0.49,0.16,0.99,0.46,1.53c0.09,0.16,0.23,0.33,0.34,0.49c0.03,0.01,0.06,0.02,0.09,0.03c0.11-0.04,0.24-0.08,0.34-0.13
			c0.65-0.31,1.04-0.71,1.36-1.14c0.51-0.68,0.82-1.41,0.92-2.21c0.09-0.81,0.03-1.65-0.41-2.58
			C275.48,204.01,275.36,203.79,275.25,203.56z"/>
		<path d="M276.54,203.02c-0.24-0.24-0.46-0.46-0.67-0.69c-0.02-0.03,0-0.06,0.04-0.06c0.96-0.13,1.97-0.21,3.52,0.13
			c1.1,0.24,2.04,0.6,2.87,1.05c1.1,0.61,1.75,1.2,2.27,1.79c0.68,0.77,1.06,1.5,1.27,2.19c0.31,1.02,0.34,1.98,0.07,2.86
			c-0.17,0.57-0.44,1.11-0.84,1.61c-0.39,0.5-0.82,0.98-1.72,1.29c-0.19,0.07-0.44,0.11-0.72,0.13c-0.64,0.04-1.58-0.27-2.03-0.63
			c-0.6-0.49-0.78-0.91-0.94-1.33c-0.36-0.94-0.33-1.78-0.18-2.6c0.13-0.73,0.47-1.4,0.97-2.02c0.54-0.68,1.32-1.26,2.44-1.73
			c0.06-0.03,0.07-0.09,0.02-0.14c-0.33-0.4-0.82-0.81-1.52-1.21c-0.76-0.44-1.51-0.7-2.45-0.81c-0.83-0.1-1.4-0.03-1.94,0.06
			C276.84,202.95,276.71,202.99,276.54,203.02z M281.75,212.62c0.05,0.01,0.09,0.02,0.14,0.04c0.24-0.11,0.52-0.21,0.7-0.35
			c0.86-0.62,1.36-1.35,1.65-2.16c0.38-1.06,0.4-2.21-0.13-3.49c-0.1-0.24-0.25-0.5-0.38-0.74c-0.14,0.01-0.2,0.05-0.26,0.08
			c-0.53,0.32-1.04,0.65-1.32,1.07c-0.3,0.44-0.62,0.88-0.86,1.34c-0.28,0.53-0.36,1.11-0.35,1.71c0.01,0.59,0.04,1.18,0.38,1.84
			C281.45,212.18,281.61,212.4,281.75,212.62z"/>
		<path d="M259.55,198.3c-0.23-0.24-0.45-0.46-0.66-0.68c-0.02-0.03,0-0.06,0.04-0.06c0.79-0.14,1.7-0.19,2.96,0.02
			c1.37,0.23,2.56,0.66,3.57,1.24c1.14,0.66,1.79,1.3,2.3,1.92c0.68,0.83,1.03,1.61,1.2,2.36c0.22,0.93,0.19,1.79-0.07,2.6
			c-0.26,0.79-0.71,1.52-1.43,2.17c-0.24,0.22-0.58,0.4-0.95,0.57c-0.2,0.09-0.52,0.14-0.84,0.18c-0.53,0.05-1.47-0.21-1.89-0.53
			c-0.28-0.21-0.51-0.43-0.66-0.63c-0.65-0.9-0.69-1.67-0.71-2.44c-0.02-0.67,0.1-1.31,0.41-1.9c0.23-0.43,0.54-0.84,0.84-1.25
			c0.34-0.47,0.91-0.85,1.54-1.21c0.21-0.12,0.49-0.22,0.72-0.33c0.06-0.03,0.08-0.09,0.03-0.14c-0.34-0.35-0.72-0.71-1.32-1.08
			c-0.27-0.16-0.58-0.33-0.91-0.48c-0.79-0.36-1.56-0.48-2.28-0.51c-0.68-0.02-1.22,0.05-1.69,0.16
			C259.69,198.28,259.63,198.29,259.55,198.3z M264.79,207.91c0.05,0.01,0.1,0.03,0.14,0.04c0.32-0.18,0.72-0.34,0.96-0.56
			c0.74-0.66,1.23-1.39,1.46-2.21c0.22-0.76,0.24-1.57,0.04-2.44c-0.12-0.5-0.32-1.01-0.67-1.56c-0.06,0.03-0.11,0.04-0.14,0.07
			c-0.41,0.3-0.88,0.57-1.2,0.9c-0.4,0.42-0.75,0.86-0.99,1.33c-0.41,0.8-0.55,1.67-0.37,2.63c0.07,0.41,0.24,0.84,0.4,1.26
			C264.49,207.53,264.66,207.72,264.79,207.91z"/>
		<path d="M237.5,191.25c0.05-0.16,0.09-0.32,0.14-0.49c0.52,0.14,1,0.31,1.44,0.51c1.09,0.49,1.81,1,2.38,1.52
			c1,0.91,1.5,1.75,1.81,2.56c0.51,1.34,0.46,2.55,0,3.66c-0.28,0.66-0.71,1.28-1.35,1.82c-0.31,0.27-0.69,0.51-1.33,0.65
			c-0.25,0.05-0.54,0.08-0.97,0.01c-0.52-0.09-1.07-0.3-1.38-0.52c-0.38-0.28-0.59-0.54-0.74-0.8c-0.51-0.83-0.56-1.57-0.57-2.29
			c-0.01-0.82,0.22-1.58,0.63-2.28c0.44-0.75,1.08-1.43,2.07-1.98c0.25-0.14,0.55-0.25,0.81-0.39c0.06-0.03,0.07-0.09,0.02-0.15
			c-0.38-0.42-0.87-0.84-1.62-1.26C238.47,191.61,238.03,191.42,237.5,191.25z M241.31,194.13c-0.04-0.01-0.07-0.01-0.11-0.02
			c-0.02,0-0.04,0.01-0.05,0.01c-0.45,0.34-0.96,0.65-1.33,1.02c-0.38,0.38-0.66,0.79-0.89,1.22c-0.34,0.64-0.48,1.34-0.44,2.08
			c0.03,0.55,0.07,1.11,0.4,1.73c0.11,0.21,0.27,0.43,0.41,0.64c0.05,0.01,0.09,0.03,0.14,0.04c0.28-0.15,0.61-0.28,0.83-0.45
			c0.65-0.5,1.08-1.07,1.36-1.68c0.3-0.63,0.48-1.3,0.42-2.03c-0.04-0.5-0.15-1.02-0.3-1.55
			C241.67,194.82,241.46,194.47,241.31,194.13z"/>
		<path d="M293.61,207.87c-0.17-0.19-0.29-0.36-0.49-0.53c-0.21-0.18-0.15-0.25,0.13-0.28c0.67-0.09,1.39-0.13,2.32-0.04
			c0.49,0.05,0.99,0.15,1.54,0.29c-0.05,0.17-0.09,0.33-0.14,0.49C295.36,207.47,294.51,207.68,293.61,207.87z"/>
		<path class="st8" d="M292.22,208.25c0.15,0.31,0.31,0.59,0.42,0.87c0.4,0.98,0.45,1.87,0.29,2.72c-0.15,0.81-0.54,1.56-1.14,2.24
			c-0.3,0.34-0.68,0.65-1.27,0.88c-0.05,0.02-0.1,0.04-0.19,0.07c-0.08-0.09-0.15-0.16-0.21-0.23c-0.37-0.48-0.48-0.91-0.58-1.34
			c-0.24-1.02-0.08-1.94,0.28-2.81c0.26-0.62,0.68-1.18,1.31-1.68c0.28-0.22,0.61-0.43,0.92-0.64
			C292.08,208.31,292.13,208.29,292.22,208.25z"/>
		<path class="st8" d="M258.31,198.86c0.17,0.4,0.37,0.81,0.5,1.21c0.4,1.17,0.27,2.22-0.12,3.19c-0.25,0.63-0.63,1.23-1.26,1.74
			c-0.27,0.22-0.55,0.43-1.1,0.57c-0.09-0.11-0.18-0.21-0.24-0.3c-0.42-0.63-0.6-1.22-0.58-1.76c0.02-0.58,0.02-1.16,0.14-1.72
			c0.12-0.58,0.45-1.11,0.84-1.61c0.38-0.49,0.92-0.92,1.57-1.31c0.04-0.02,0.08-0.04,0.12-0.06
			C258.23,198.84,258.27,198.85,258.31,198.86z"/>
		<path class="st8" d="M249.78,196.49c0.12,0.25,0.26,0.51,0.37,0.75c0.56,1.34,0.5,2.52,0.08,3.61c-0.26,0.67-0.7,1.27-1.32,1.82
			c-0.24,0.21-0.64,0.36-1.01,0.52c-0.31-0.25-0.44-0.47-0.53-0.68c-0.41-0.94-0.47-1.8-0.31-2.61c0.19-0.98,0.59-1.88,1.48-2.65
			c0.3-0.26,0.68-0.49,1.03-0.74c0.04-0.03,0.09-0.04,0.14-0.07C249.73,196.47,249.75,196.48,249.78,196.49z"/>
		<path class="st8" d="M275.25,203.56c0.11,0.22,0.22,0.44,0.33,0.66c0.43,0.93,0.5,1.77,0.41,2.58c-0.09,0.8-0.41,1.53-0.92,2.21
			c-0.32,0.43-0.71,0.83-1.36,1.14c-0.1,0.05-0.23,0.09-0.34,0.13c-0.03-0.01-0.06-0.02-0.09-0.03c-0.12-0.16-0.25-0.33-0.34-0.49
			c-0.3-0.54-0.43-1.05-0.46-1.53c-0.06-0.81,0.05-1.57,0.36-2.28c0.31-0.71,0.77-1.37,1.56-1.93c0.24-0.17,0.49-0.34,0.74-0.51
			C275.17,203.54,275.21,203.55,275.25,203.56z"/>
		<path class="st8" d="M281.75,212.62c-0.14-0.22-0.3-0.44-0.41-0.66c-0.34-0.66-0.37-1.25-0.38-1.84
			c-0.02-0.61,0.07-1.19,0.35-1.71c0.24-0.46,0.56-0.9,0.86-1.34c0.28-0.41,0.79-0.74,1.32-1.07c0.06-0.03,0.12-0.07,0.26-0.08
			c0.13,0.25,0.28,0.5,0.38,0.74c0.53,1.28,0.5,2.42,0.13,3.49c-0.29,0.81-0.78,1.54-1.65,2.16c-0.19,0.13-0.47,0.23-0.7,0.35
			C281.84,212.65,281.8,212.64,281.75,212.62z"/>
		<path class="st8" d="M264.79,207.91c-0.13-0.18-0.31-0.38-0.37-0.55c-0.16-0.43-0.33-0.86-0.4-1.26
			c-0.17-0.95-0.04-1.83,0.37-2.63c0.24-0.47,0.59-0.91,0.99-1.33c0.32-0.33,0.79-0.6,1.2-0.9c0.03-0.02,0.08-0.04,0.14-0.07
			c0.35,0.56,0.55,1.07,0.67,1.56c0.21,0.87,0.18,1.68-0.04,2.44c-0.23,0.82-0.72,1.55-1.46,2.21c-0.24,0.21-0.63,0.37-0.96,0.56
			C264.89,207.93,264.84,207.92,264.79,207.91z"/>
		<path class="st8" d="M241.31,194.13c0.15,0.34,0.36,0.7,0.45,1.03c0.14,0.53,0.26,1.04,0.3,1.55c0.06,0.73-0.12,1.39-0.42,2.03
			c-0.29,0.61-0.72,1.18-1.36,1.68c-0.22,0.17-0.55,0.3-0.83,0.45c-0.05-0.01-0.09-0.03-0.14-0.04c-0.14-0.21-0.3-0.43-0.41-0.64
			c-0.33-0.62-0.37-1.18-0.4-1.73c-0.04-0.74,0.1-1.44,0.44-2.08c0.23-0.43,0.51-0.84,0.89-1.22c0.36-0.37,0.88-0.68,1.33-1.02
			c0.01-0.01,0.03-0.01,0.05-0.01C241.24,194.11,241.27,194.12,241.31,194.13z"/>
	</g>
</g>
</svg>
