<?xml version="1.0" encoding="utf-8"?>
<!-- Generator: Adobe Illustrator 23.1.1, SVG Export Plug-In . SVG Version: 6.00 Build 0)  -->
<svg version="1.1" id="Layer_1" xmlns="http://www.w3.org/2000/svg" xmlns:xlink="http://www.w3.org/1999/xlink" x="0px" y="0px"
	 viewBox="0 0 328.9 255.5" style="enable-background:new 0 0 328.9 255.5;" xml:space="preserve">
<style type="text/css">
	.st0{fill:#DC8843;stroke:#565656;stroke-width:3;stroke-linecap:round;stroke-linejoin:round;stroke-miterlimit:10;}
	.st1{fill:#DC8843;stroke:#8D191C;stroke-width:3;stroke-linecap:round;stroke-linejoin:round;stroke-miterlimit:10;}
	.st2{fill:none;stroke:#8D191C;stroke-width:2;stroke-linecap:round;stroke-linejoin:round;stroke-miterlimit:10;}
	.st3{fill:none;stroke:#53B949;stroke-width:3;stroke-linecap:round;stroke-linejoin:round;stroke-miterlimit:10;}
	.st4{fill:none;stroke:#53B949;stroke-width:2;stroke-linecap:round;stroke-linejoin:round;stroke-miterlimit:10;}
	.st5{fill:none;stroke:#345CAA;stroke-width:3;stroke-linecap:round;stroke-linejoin:round;stroke-miterlimit:10;}
	.st6{fill:none;stroke:#345CAA;stroke-width:2;stroke-linecap:round;stroke-linejoin:round;stroke-miterlimit:10;}
	.st7{fill:#010101;}
	.st8{fill:#FFFFFF;}
</style>
<g>
	<path class="st0" d="M328.9,78.6"/>
	<g>
		<polyline class="st1" points="2.2,91.8 103.1,120 259.5,163.8 		"/>
		<g>
			<line class="st2" x1="261.2" y1="164.2" x2="258.2" y2="161.3"/>
			<line class="st2" x1="261.2" y1="164.2" x2="257.2" y2="165.3"/>
		</g>
		<g>
			<line class="st2" x1="1" y1="91.2" x2="3.7" y2="94.3"/>
			<line class="st2" x1="1" y1="91.2" x2="5.1" y2="90.5"/>
		</g>
	</g>
	<g>
		<line class="st3" x1="210.7" y1="10.6" x2="58.9" y2="226.9"/>
		<g>
			<line class="st4" x1="211.4" y1="9.3" x2="206.3" y2="11.9"/>
			<line class="st4" x1="211.4" y1="9.3" x2="210.9" y2="15"/>
		</g>
		<g>
			<line class="st4" x1="57.3" y1="229.2" x2="62.6" y2="227"/>
			<line class="st4" x1="57.3" y1="229.2" x2="58.2" y2="223.5"/>
		</g>
	</g>
	<g>
		<line class="st5" x1="127.6" y1="253.1" x2="127.6" y2="2.9"/>
		<g>
			<line class="st6" x1="127.6" y1="1" x2="124.4" y2="4.9"/>
			<line class="st6" x1="127.6" y1="1" x2="130.8" y2="4.9"/>
		</g>
		<g>
			<line class="st6" x1="127.7" y1="254.5" x2="131.1" y2="250.7"/>
			<line class="st6" x1="127.7" y1="254.5" x2="124.7" y2="250.6"/>
		</g>
	</g>
	<g>
		<g>
			<g>
				<path class="st7" d="M256.3,151.1l-2.7-3.8h1.5l1.2,1.7c0.3,0.4,0.6,0.9,0.9,1.3h0.1c0.3-0.4,0.6-0.9,0.9-1.3l1.1-1.7h1.4
					l-2.8,3.9l3,3.9h-1.5l-1.3-1.8c-0.3-0.4-0.7-1-1-1.4h-0.1c-0.3,0.5-0.6,0.9-1,1.4l-1.3,1.8h-1.4L256.3,151.1z"/>
			</g>
		</g>
	</g>
	<g>
		<g>
			<g>
				<path class="st7" d="M135.1,251.3l5.3-6h-4.7v-1.1h6.6v0.7l-5.3,6h5.5v1.1h-7.4L135.1,251.3L135.1,251.3z"/>
			</g>
		</g>
	</g>
	<g>
		<g>
			<path class="st7" d="M69.1,233.5l0.3-1.1c0.2,0.1,0.5,0.1,0.7,0.1c1.1,0,1.8-0.7,2.1-1.6l0.2-0.6l-3.6-7.8h1.3l1.9,4.3
				c0.3,0.7,0.6,1.5,1,2.3h0.1c0.3-0.7,0.6-1.5,0.8-2.3l1.7-4.3h1.3l-3.4,8.4c-0.6,1.5-1.5,2.7-3.3,2.7
				C69.8,233.7,69.4,233.6,69.1,233.5z"/>
		</g>
	</g>
</g>
<g id="Layer_3">
	<g>
		<path class="st8" d="M158.8,51.5c0.1,7.9,0.2,15.9,0.3,23.8c-4.8,0.1-9.6,0.1-14.5,0.2c-0.1-7.9-0.2-15.9-0.3-23.8
			C149.1,51.7,153.9,51.6,158.8,51.5z M147.6,57.6c-0.2-0.2-0.4-0.3-0.6-0.4c-0.4-0.4-0.4-0.8-0.1-1.2c0.2-0.2,0.5-0.4,0.7-0.6
			c0,0,0.1,0,0.1,0c0.6,0.3,1.2,0.4,1.9,0.5c0.8,0.1,1.5,0.2,2.3,0.2c0.6,0,1.2,0,1.8-0.1c0.5-0.1,1-0.2,1.5-0.3
			c0.2-0.1,0.4-0.2,0.6-0.3c0.2-0.2,0.2-0.5-0.1-0.7c-0.2-0.2-0.5-0.3-0.8-0.3c-0.8-0.2-1.6-0.3-2.4-0.3c-1,0-2.1,0.1-3.1,0.3
			c-0.7,0.1-1.3,0.3-1.9,0.7c-0.3,0.2-0.7,0.4-0.9,0.7c-0.3,0.3-0.5,0.7-0.4,1.2c0.1,0.5,0.4,0.8,0.8,1.1c0,0,0.1,0,0.1,0
			C147.3,57.7,147.5,57.7,147.6,57.6z M147.8,68.9c-0.2-0.2-0.4-0.3-0.6-0.5c-0.2-0.2-0.3-0.4-0.2-0.6c0-0.2,0.1-0.3,0.2-0.5
			c0.2-0.3,0.5-0.4,0.8-0.6c0,0,0.1,0,0.1,0c0.4,0.1,0.8,0.3,1.2,0.4c0.9,0.2,1.8,0.3,2.6,0.3c0.6,0,1.1,0,1.6-0.1
			c0.5,0,1-0.1,1.5-0.2c0.3-0.1,0.6-0.2,0.9-0.4c0.3-0.2,0.3-0.6,0-0.8c-0.1-0.1-0.3-0.2-0.4-0.2c-0.5-0.2-1-0.3-1.5-0.3
			c-0.8-0.1-1.7-0.2-2.5-0.1c-0.6,0-1.1,0.1-1.7,0.2c-0.6,0.1-1.2,0.3-1.8,0.5c-0.3,0.1-0.6,0.3-0.9,0.5c-0.3,0.2-0.6,0.5-0.8,0.9
			c-0.1,0.3-0.1,0.6,0,0.9c0.1,0.4,0.4,0.6,0.8,0.8c0,0,0.1,0,0.1,0C147.5,69.1,147.6,69,147.8,68.9z M147.8,71.7
			C147.8,71.7,147.8,71.7,147.8,71.7c-0.3-0.2-0.5-0.3-0.6-0.5s-0.3-0.4-0.3-0.6c0-0.2,0.1-0.4,0.3-0.6c0.2-0.2,0.4-0.3,0.6-0.5
			c0.1,0,0.1,0,0.2,0c0.5,0.2,1.1,0.4,1.6,0.5c0.8,0.2,1.7,0.2,2.5,0.2c0.6,0,1.2,0,1.8-0.1c0.5-0.1,1-0.2,1.5-0.3
			c0.2-0.1,0.4-0.2,0.6-0.3c0.2-0.2,0.3-0.5,0.1-0.7c-0.1-0.1-0.2-0.1-0.3-0.2c-0.4-0.2-0.9-0.3-1.4-0.4c-0.7-0.1-1.4-0.2-2.1-0.1
			c-0.6,0-1.2,0.1-1.8,0.1c-0.6,0.1-1.2,0.2-1.7,0.4c-0.4,0.1-0.8,0.3-1.2,0.5c-0.4,0.2-0.7,0.4-0.9,0.8c-0.3,0.4-0.3,0.9-0.1,1.3
			c0.1,0.3,0.4,0.6,0.7,0.8c0,0,0.1,0,0.1,0C147.5,71.9,147.7,71.8,147.8,71.7z M147.7,63.2C147.7,63.2,147.7,63.2,147.7,63.2
			c-0.3-0.2-0.5-0.3-0.7-0.5c-0.1-0.2-0.2-0.3-0.2-0.6c0-0.2,0.1-0.3,0.2-0.5c0.2-0.3,0.5-0.4,0.8-0.6c0,0,0.1,0,0.1,0
			c0.5,0.2,1,0.3,1.6,0.5c0.6,0.1,1.3,0.2,2,0.2c1,0,2,0,3-0.2c0.4-0.1,0.9-0.2,1.3-0.4c0.1-0.1,0.2-0.1,0.3-0.2
			c0.2-0.2,0.1-0.5-0.1-0.6c-0.1-0.1-0.3-0.2-0.4-0.2c-0.3-0.1-0.6-0.2-0.8-0.2c-0.9-0.2-1.7-0.2-2.6-0.2c-0.8,0-1.6,0.1-2.3,0.2
			c-0.8,0.2-1.5,0.4-2.2,0.7c-0.4,0.2-0.8,0.5-1,0.8c-0.3,0.4-0.3,0.8-0.1,1.2c0.1,0.3,0.4,0.6,0.7,0.8c0,0,0.1,0,0.1,0
			C147.4,63.4,147.6,63.3,147.7,63.2z M147.7,60.4c-0.1-0.1-0.1-0.1-0.2-0.1c-0.2-0.2-0.5-0.3-0.6-0.6c-0.1-0.3-0.1-0.6,0.1-0.8
			c0.2-0.3,0.5-0.4,0.8-0.6c0,0,0.1,0,0.1,0c0.8,0.3,1.5,0.5,2.3,0.6c0.7,0.1,1.5,0.1,2.2,0.1c0.8,0,1.6-0.1,2.5-0.3
			c0.4-0.1,0.7-0.2,1-0.4c0.2-0.2,0.3-0.5,0.1-0.7c-0.1-0.1-0.2-0.2-0.3-0.2c-0.5-0.2-1.1-0.3-1.7-0.4c-0.6-0.1-1.2-0.1-1.8-0.1
			c-0.9,0-1.8,0.1-2.7,0.3c-0.6,0.1-1.2,0.3-1.8,0.6c-0.4,0.2-0.8,0.5-1.1,0.9c-0.2,0.3-0.3,0.6-0.2,1c0.1,0.5,0.4,0.8,0.8,1.1
			c0,0,0.1,0,0.1,0C147.4,60.6,147.5,60.5,147.7,60.4z M147.8,66C147.7,66,147.7,66,147.8,66c-0.3-0.2-0.5-0.3-0.7-0.6
			c-0.2-0.2-0.3-0.5-0.1-0.8c0.1-0.1,0.1-0.2,0.2-0.3c0.2-0.2,0.4-0.4,0.7-0.5c0,0,0.1,0,0.1,0c0.2,0.1,0.3,0.1,0.5,0.2
			c0.5,0.2,1,0.3,1.6,0.4c0.5,0.1,0.9,0.1,1.4,0.1c0.6,0,1.3,0,1.9-0.1c0.7-0.1,1.5-0.2,2.2-0.5c0.1-0.1,0.3-0.2,0.4-0.3
			c0.2-0.2,0.2-0.5,0-0.6c-0.1-0.1-0.3-0.2-0.4-0.2c-0.3-0.1-0.5-0.2-0.8-0.2c-0.8-0.2-1.6-0.2-2.5-0.2c-0.9,0-1.7,0.1-2.5,0.2
			c-0.7,0.1-1.3,0.3-1.9,0.6c-0.5,0.2-0.9,0.5-1.2,0.9c-0.3,0.4-0.4,0.8-0.2,1.2c0.1,0.4,0.4,0.7,0.8,0.9c0,0,0.1,0,0.1,0
			C147.4,66.2,147.6,66.2,147.8,66z M147,73.5c0-0.2,0.1-0.3,0.2-0.5c0.2-0.3,0.5-0.5,0.8-0.6c0,0,0.1,0,0.1,0
			c0.2,0.1,0.4,0.2,0.6,0.2c0.8,0.2,1.6,0.4,2.5,0.4c0.8,0.1,1.6,0.1,2.4,0c0.7-0.1,1.4-0.2,2.1-0.4c0.2-0.1,0.4-0.2,0.6-0.3
			c0.1-0.1,0.2-0.3,0.1-0.5c-0.1-0.1-0.1-0.2-0.3-0.3c-0.3-0.2-0.6-0.3-1-0.3c-0.7-0.1-1.4-0.2-2.1-0.2c-1.2,0-2.4,0.1-3.5,0.4
			c-0.7,0.2-1.4,0.4-2,0.8c-0.3,0.2-0.6,0.5-0.8,0.9c-0.1,0.2-0.1,0.3-0.1,0.5C146.6,73.5,146.8,73.5,147,73.5z M147.7,54.7
			c-0.4-0.3-0.9-0.5-1-1c-0.2,0-0.3,0-0.5,0c0,0.2,0.1,0.3,0.1,0.5c0.2,0.3,0.4,0.5,0.7,0.7c0.1,0.1,0.2,0.1,0.3,0
			C147.5,54.8,147.6,54.8,147.7,54.7z"/>
		<path d="M147.6,57.6c-0.1,0.1-0.3,0.2-0.4,0.3c0,0-0.1,0-0.1,0c-0.4-0.3-0.8-0.6-0.8-1.1c-0.1-0.4,0.1-0.8,0.4-1.2
			c0.3-0.3,0.6-0.5,0.9-0.7c0.6-0.3,1.3-0.5,1.9-0.7c1-0.2,2-0.3,3.1-0.3c0.8,0,1.6,0.1,2.4,0.3c0.3,0.1,0.6,0.2,0.8,0.3
			c0.2,0.2,0.3,0.5,0.1,0.7c-0.2,0.2-0.4,0.2-0.6,0.3c-0.5,0.2-1,0.3-1.5,0.3c-0.6,0.1-1.2,0.1-1.8,0.1c-0.8,0-1.5-0.1-2.3-0.2
			c-0.6-0.1-1.3-0.3-1.9-0.5c0,0-0.1,0-0.1,0c-0.3,0.2-0.5,0.3-0.7,0.6c-0.3,0.4-0.3,0.8,0.1,1.2C147.2,57.3,147.5,57.4,147.6,57.6z
			 M148.5,55.1c0.1,0,0.1,0,0.1,0c0.3,0.1,0.6,0.2,0.9,0.2c0.6,0.1,1.3,0.2,2,0.2c0.9,0,1.9,0,2.8-0.2c0.4-0.1,0.8-0.2,1.1-0.3
			c0.1,0,0.1-0.1,0.2-0.1c-0.1,0-0.1,0-0.1-0.1c-0.4-0.2-0.8-0.2-1.2-0.3c-0.8-0.1-1.6-0.2-2.5-0.1c-0.9,0-1.7,0.1-2.5,0.3
			C149,54.9,148.7,55,148.5,55.1z"/>
		<path d="M147.8,68.9c-0.1,0.1-0.3,0.2-0.4,0.3c0,0-0.1,0-0.1,0c-0.3-0.2-0.6-0.5-0.8-0.8c-0.1-0.3-0.1-0.6,0-0.9
			c0.1-0.4,0.4-0.6,0.8-0.9c0.3-0.2,0.6-0.3,0.9-0.5c0.6-0.2,1.2-0.4,1.8-0.5c0.6-0.1,1.1-0.2,1.7-0.2c0.8-0.1,1.7,0,2.5,0.1
			c0.5,0.1,1,0.1,1.5,0.3c0.1,0.1,0.3,0.1,0.4,0.2c0.3,0.2,0.3,0.6,0,0.8c-0.3,0.2-0.6,0.3-0.9,0.4c-0.5,0.1-1,0.2-1.5,0.2
			c-0.6,0-1.1,0.1-1.6,0.1c-0.9,0-1.8-0.1-2.6-0.3c-0.4-0.1-0.8-0.2-1.2-0.4c0,0-0.1,0-0.1,0c-0.3,0.2-0.6,0.3-0.8,0.6
			c-0.1,0.1-0.2,0.3-0.2,0.5c0,0.2,0.1,0.4,0.2,0.6C147.4,68.6,147.6,68.7,147.8,68.9z M148.6,66.4
			C148.6,66.4,148.6,66.4,148.6,66.4C148.7,66.4,148.7,66.4,148.6,66.4c0.6,0.2,1.2,0.4,1.8,0.4c0.6,0.1,1.2,0.1,1.8,0.1
			c0.6,0,1.1-0.1,1.7-0.1c0.5-0.1,1-0.2,1.5-0.3c0.1,0,0.1-0.1,0.2-0.1c-0.3-0.2-0.6-0.2-0.9-0.3c-0.7-0.1-1.3-0.2-2-0.2
			c-1.1,0-2.1,0-3.1,0.3C149.3,66.2,149,66.3,148.6,66.4z"/>
		<path d="M147.8,71.7c-0.2,0.1-0.3,0.2-0.5,0.3c0,0-0.1,0-0.1,0c-0.3-0.2-0.6-0.4-0.7-0.8c-0.2-0.5-0.2-0.9,0.1-1.3
			c0.2-0.3,0.6-0.6,0.9-0.8c0.4-0.2,0.8-0.4,1.2-0.5c0.6-0.2,1.1-0.3,1.7-0.4c0.6-0.1,1.2-0.1,1.8-0.1c0.7,0,1.4,0,2.1,0.1
			c0.5,0.1,1,0.2,1.4,0.4c0.1,0.1,0.2,0.1,0.3,0.2c0.2,0.2,0.2,0.5-0.1,0.7c-0.2,0.1-0.4,0.2-0.6,0.3c-0.5,0.2-1,0.2-1.5,0.3
			c-0.6,0.1-1.2,0.1-1.8,0.1c-0.9,0-1.7-0.1-2.5-0.2c-0.6-0.1-1.1-0.2-1.6-0.5c-0.1,0-0.1,0-0.2,0c-0.2,0.1-0.5,0.3-0.6,0.5
			c-0.1,0.2-0.3,0.3-0.3,0.6c0,0.2,0.1,0.4,0.3,0.6S147.6,71.5,147.8,71.7C147.8,71.7,147.8,71.7,147.8,71.7z M148.7,69.2
			C148.7,69.2,148.7,69.2,148.7,69.2c0,0,0.1,0.1,0.1,0.1c0.3,0.1,0.7,0.2,1,0.2c1,0.2,2,0.2,2.9,0.2c0.8,0,1.6-0.1,2.4-0.3
			c0.2-0.1,0.4-0.1,0.5-0.2c-0.3-0.1-0.5-0.2-0.8-0.3c-0.7-0.1-1.4-0.2-2.1-0.2c-1.2,0-2.3,0.1-3.5,0.4
			C149.1,69.1,148.9,69.2,148.7,69.2z"/>
		<path d="M147.7,63.2c-0.2,0.1-0.3,0.2-0.5,0.3c0,0-0.1,0-0.1,0c-0.3-0.2-0.6-0.4-0.7-0.8c-0.2-0.4-0.1-0.9,0.1-1.2
			c0.3-0.4,0.6-0.6,1-0.8c0.7-0.4,1.4-0.6,2.2-0.7c0.8-0.2,1.6-0.2,2.3-0.2c0.9,0,1.7,0,2.6,0.2c0.3,0.1,0.6,0.1,0.8,0.2
			c0.1,0.1,0.3,0.1,0.4,0.2c0.2,0.2,0.3,0.4,0.1,0.6c-0.1,0.1-0.2,0.2-0.3,0.2c-0.4,0.2-0.8,0.3-1.3,0.4c-1,0.2-2,0.2-3,0.2
			c-0.7,0-1.3-0.1-2-0.2c-0.5-0.1-1.1-0.2-1.6-0.5c0,0-0.1,0-0.1,0c-0.3,0.2-0.6,0.3-0.8,0.6c-0.1,0.1-0.2,0.3-0.2,0.5
			c0,0.2,0.1,0.4,0.2,0.6C147.2,62.9,147.4,63,147.7,63.2C147.7,63.2,147.7,63.2,147.7,63.2z M148.6,60.7
			C148.6,60.7,148.6,60.8,148.6,60.7c0.2,0.1,0.5,0.2,0.7,0.2c0.8,0.2,1.5,0.3,2.3,0.3s1.5,0,2.3-0.1c0.5-0.1,0.9-0.2,1.4-0.3
			c0.1,0,0.2-0.1,0.4-0.2c0,0,0,0,0,0c-0.1,0-0.1-0.1-0.2-0.1c-0.5-0.2-1-0.2-1.5-0.3c-0.8-0.1-1.6-0.1-2.4-0.1s-1.6,0.2-2.4,0.4
			C148.9,60.6,148.8,60.7,148.6,60.7z"/>
		<path d="M147.7,60.4c-0.2,0.1-0.3,0.2-0.5,0.3c0,0-0.1,0-0.1,0c-0.4-0.3-0.7-0.6-0.8-1.1c-0.1-0.4,0-0.7,0.2-1
			c0.3-0.4,0.7-0.7,1.1-0.9c0.6-0.3,1.1-0.5,1.8-0.6c0.9-0.2,1.8-0.3,2.7-0.3c0.6,0,1.2,0,1.8,0.1c0.6,0.1,1.2,0.2,1.7,0.4
			c0.1,0.1,0.2,0.1,0.3,0.2c0.2,0.2,0.2,0.5-0.1,0.7c-0.3,0.2-0.7,0.3-1,0.4c-0.8,0.2-1.6,0.3-2.5,0.3c-0.7,0-1.5,0-2.2-0.1
			c-0.8-0.1-1.6-0.3-2.3-0.6c0,0-0.1,0-0.1,0c-0.3,0.1-0.6,0.3-0.8,0.6c-0.2,0.3-0.3,0.5-0.1,0.8c0.1,0.3,0.4,0.4,0.6,0.6
			C147.6,60.3,147.6,60.3,147.7,60.4z M155.5,57.8C155.5,57.8,155.5,57.8,155.5,57.8c-0.2-0.1-0.4-0.2-0.5-0.2
			c-0.8-0.2-1.7-0.3-2.5-0.3c-1.1,0-2.2,0.1-3.3,0.4c-0.2,0.1-0.4,0.1-0.6,0.2c0.1,0,0.1,0.1,0.1,0.1c0.5,0.1,0.9,0.2,1.4,0.3
			c0.5,0.1,1,0.1,1.5,0.1c0.6,0,1.2,0,1.7-0.1c0.6-0.1,1.1-0.1,1.7-0.3C155.2,58,155.3,57.9,155.5,57.8z"/>
		<path d="M147.8,66c-0.2,0.1-0.3,0.2-0.5,0.3c0,0-0.1,0-0.1,0c-0.4-0.2-0.6-0.5-0.8-0.9c-0.1-0.4-0.1-0.8,0.2-1.2
			c0.3-0.4,0.8-0.7,1.2-0.9c0.6-0.3,1.3-0.5,1.9-0.6c0.8-0.2,1.7-0.2,2.5-0.2c0.8,0,1.7,0.1,2.5,0.2c0.3,0.1,0.5,0.1,0.8,0.2
			c0.1,0.1,0.3,0.1,0.4,0.2c0.2,0.2,0.2,0.5,0,0.6c-0.1,0.1-0.3,0.2-0.4,0.3c-0.7,0.3-1.4,0.4-2.2,0.5c-0.6,0.1-1.3,0.1-1.9,0.1
			c-0.5,0-1-0.1-1.4-0.1c-0.5-0.1-1.1-0.2-1.6-0.4c-0.2-0.1-0.3-0.1-0.5-0.2c0,0-0.1,0-0.1,0c-0.2,0.1-0.5,0.3-0.7,0.5
			c-0.1,0.1-0.2,0.2-0.2,0.3c-0.1,0.3,0,0.5,0.1,0.8c0.2,0.2,0.4,0.4,0.6,0.5C147.7,66,147.7,66,147.8,66z M155.6,63.5
			C155.6,63.5,155.6,63.5,155.6,63.5c-0.3-0.1-0.5-0.2-0.8-0.3c-0.8-0.2-1.7-0.2-2.5-0.2c-0.8,0-1.6,0.1-2.4,0.2
			c-0.4,0.1-0.9,0.2-1.3,0.4c0,0,0.1,0,0.1,0c0.4,0.1,0.8,0.2,1.2,0.3c0.5,0.1,1,0.1,1.6,0.2c0.9,0.1,1.8,0,2.6-0.1
			c0.4-0.1,0.7-0.2,1.1-0.2C155.3,63.6,155.4,63.6,155.6,63.5z"/>
		<path d="M147,73.5c-0.2,0-0.3,0-0.5,0c0-0.2,0-0.3,0.1-0.5c0.2-0.4,0.5-0.7,0.8-0.9c0.6-0.4,1.3-0.6,2-0.8
			c1.2-0.3,2.3-0.4,3.5-0.4c0.7,0,1.4,0.1,2.1,0.2c0.3,0.1,0.7,0.2,1,0.3c0.1,0.1,0.2,0.2,0.3,0.3c0.1,0.2,0,0.4-0.1,0.5
			c-0.2,0.1-0.4,0.2-0.6,0.3c-0.7,0.2-1.4,0.3-2.1,0.4c-0.8,0.1-1.6,0.1-2.4,0c-0.8-0.1-1.7-0.2-2.5-0.4c-0.2-0.1-0.4-0.1-0.6-0.2
			c0,0-0.1,0-0.1,0c-0.3,0.2-0.6,0.3-0.8,0.6C147.1,73.2,147,73.3,147,73.5z M148.7,72C148.7,72.1,148.7,72.1,148.7,72
			C148.7,72.1,148.7,72.1,148.7,72c0.5,0.1,0.9,0.3,1.4,0.3c0.5,0.1,0.9,0.1,1.4,0.2c0.7,0,1.4,0,2.1-0.1c0.5-0.1,1.1-0.1,1.6-0.3
			c0.2-0.1,0.3-0.1,0.5-0.2c0,0,0,0,0-0.1c-0.2-0.1-0.4-0.2-0.7-0.2c-0.6-0.2-1.3-0.2-2-0.2c-0.7,0-1.4,0-2.1,0.1
			c-0.5,0.1-0.9,0.2-1.4,0.2C149.3,71.9,149,72,148.7,72z"/>
		<path d="M147.7,54.7c-0.1,0.1-0.3,0.1-0.4,0.2c-0.1,0.1-0.2,0.1-0.3,0c-0.3-0.2-0.5-0.4-0.7-0.7c-0.1-0.2-0.1-0.3-0.1-0.5
			c0.2,0,0.3,0,0.5,0C146.9,54.2,147.3,54.4,147.7,54.7z"/>
		<path class="st8" d="M148.5,55.1c0.3-0.1,0.5-0.2,0.7-0.2c0.8-0.2,1.7-0.3,2.5-0.3c0.8,0,1.6,0,2.5,0.1c0.4,0.1,0.8,0.1,1.2,0.3
			c0,0,0.1,0,0.1,0.1c-0.1,0-0.1,0.1-0.2,0.1c-0.4,0.2-0.8,0.2-1.1,0.3c-0.9,0.2-1.9,0.2-2.8,0.2c-0.7,0-1.3-0.1-2-0.2
			c-0.3-0.1-0.6-0.2-0.9-0.2C148.6,55.1,148.5,55.1,148.5,55.1z"/>
		<path class="st8" d="M148.6,66.4c0.3-0.1,0.7-0.2,1-0.3c1-0.2,2.1-0.3,3.1-0.3c0.7,0,1.4,0.1,2,0.2c0.3,0.1,0.6,0.1,0.9,0.3
			c-0.1,0-0.1,0.1-0.2,0.1c-0.5,0.2-1,0.3-1.5,0.3c-0.6,0.1-1.1,0.1-1.7,0.1c-0.6,0-1.2,0-1.8-0.1c-0.6-0.1-1.1-0.2-1.7-0.3
			C148.7,66.4,148.7,66.4,148.6,66.4C148.6,66.4,148.6,66.4,148.6,66.4z"/>
		<path class="st8" d="M148.7,69.2c0.2-0.1,0.4-0.1,0.6-0.2c1.1-0.3,2.3-0.4,3.5-0.4c0.7,0,1.4,0.1,2.1,0.2c0.3,0.1,0.5,0.2,0.8,0.3
			c-0.2,0.1-0.3,0.2-0.5,0.2c-0.8,0.2-1.6,0.3-2.4,0.3c-1,0-2,0-2.9-0.2c-0.3-0.1-0.7-0.2-1-0.2C148.8,69.3,148.7,69.3,148.7,69.2
			C148.7,69.2,148.7,69.2,148.7,69.2z"/>
		<path class="st8" d="M148.6,60.7c0.2-0.1,0.4-0.1,0.6-0.2c0.8-0.2,1.6-0.3,2.4-0.4c0.8-0.1,1.6,0,2.4,0.1c0.5,0.1,1,0.1,1.5,0.3
			c0.1,0,0.1,0.1,0.2,0.1c0,0,0,0,0,0c-0.1,0.1-0.2,0.1-0.4,0.2c-0.4,0.2-0.9,0.2-1.4,0.3c-0.8,0.1-1.5,0.1-2.3,0.1
			c-0.8,0-1.5-0.1-2.3-0.3C149,60.9,148.8,60.8,148.6,60.7C148.6,60.8,148.6,60.7,148.6,60.7z"/>
		<path class="st8" d="M155.5,57.8c-0.2,0.1-0.3,0.1-0.5,0.2c-0.5,0.2-1.1,0.2-1.7,0.3c-0.6,0.1-1.2,0.1-1.7,0.1
			c-0.5,0-1-0.1-1.5-0.1c-0.5-0.1-0.9-0.2-1.4-0.3c-0.1,0-0.1,0-0.1-0.1c0.2-0.1,0.4-0.1,0.6-0.2c1.1-0.3,2.2-0.4,3.3-0.4
			c0.9,0,1.7,0.1,2.5,0.3C155.2,57.7,155.3,57.7,155.5,57.8C155.5,57.8,155.5,57.8,155.5,57.8z"/>
		<path class="st8" d="M155.6,63.5c-0.1,0.1-0.3,0.1-0.4,0.2c-0.4,0.1-0.7,0.2-1.1,0.2c-0.9,0.2-1.8,0.2-2.6,0.1
			c-0.5,0-1-0.1-1.6-0.2c-0.4-0.1-0.8-0.2-1.2-0.3c0,0-0.1,0-0.1,0c0.4-0.2,0.9-0.3,1.3-0.4c0.8-0.2,1.6-0.2,2.4-0.2
			c0.9,0,1.7,0.1,2.5,0.2C155.1,63.3,155.3,63.4,155.6,63.5C155.6,63.5,155.6,63.5,155.6,63.5z"/>
		<path class="st8" d="M148.7,72c0.3-0.1,0.6-0.2,0.9-0.2c0.5-0.1,0.9-0.2,1.4-0.2c0.7-0.1,1.4-0.1,2.1-0.1c0.7,0,1.3,0.1,2,0.2
			c0.2,0.1,0.4,0.1,0.7,0.2c0,0,0,0,0,0.1c-0.2,0.1-0.3,0.1-0.5,0.2c-0.5,0.2-1,0.2-1.6,0.3c-0.7,0.1-1.4,0.1-2.1,0.1
			c-0.5,0-0.9-0.1-1.4-0.2C149.6,72.3,149.2,72.2,148.7,72C148.7,72.1,148.7,72.1,148.7,72C148.7,72.1,148.7,72.1,148.7,72z"/>
	</g>
	<g>
		<path class="st8" d="M144.1,7.5c0.3,24.7,0.6,49.5,0.9,74.2c-4.8,0.1-9.6,0.1-14.5,0.2c-0.3-24.7-0.6-49.5-0.9-74.2
			C134.5,7.7,139.3,7.6,144.1,7.5z M133.1,26c-0.2-0.5-0.4-0.9-0.6-1.4c-0.4-1.2-0.4-2.4-0.1-3.6c0.2-0.8,0.4-1.3,0.7-1.7
			c0,0,0.1,0,0.1,0c0.6,0.8,1.2,1.3,1.9,1.7c0.8,0.4,1.5,0.6,2.3,0.6c0.6,0,1.2-0.1,1.8-0.3c0.5-0.2,1-0.4,1.5-1
			c0.2-0.2,0.4-0.5,0.6-1c0.2-0.6,0.2-1.6-0.1-2.1c-0.2-0.6-0.5-0.8-0.8-1.1c-0.8-0.7-1.6-0.9-2.5-1c-1-0.1-2.1,0.1-3.1,0.8
			c-0.7,0.4-1.3,1-1.9,2c-0.3,0.5-0.6,1.2-0.9,2c-0.3,1-0.4,2.2-0.4,3.6c0.1,1.6,0.5,2.6,0.9,3.5c0,0,0.1,0,0.1,0
			C132.9,26.5,133,26.2,133.1,26z M133.6,61.3c-0.2-0.5-0.4-1-0.6-1.6c-0.2-0.5-0.3-1.2-0.3-1.9c0-0.5,0.1-1,0.2-1.4
			c0.2-0.8,0.5-1.4,0.8-1.8c0,0,0.1,0,0.1,0c0.4,0.4,0.8,0.8,1.2,1.2c0.9,0.7,1.8,1,2.6,1c0.6,0,1.1-0.1,1.6-0.2
			c0.5-0.1,1-0.4,1.5-0.7c0.3-0.2,0.6-0.6,0.9-1.1c0.3-0.6,0.3-1.7,0-2.4c-0.1-0.3-0.3-0.5-0.4-0.7c-0.5-0.6-1-0.8-1.5-1.1
			c-0.8-0.4-1.7-0.5-2.5-0.3c-0.6,0.1-1.1,0.3-1.7,0.6c-0.6,0.3-1.2,0.8-1.8,1.6c-0.3,0.4-0.6,0.9-0.9,1.5c-0.3,0.7-0.6,1.5-0.7,2.7
			c-0.1,0.9-0.1,1.9,0,2.8c0.2,1.2,0.4,1.9,0.8,2.6c0,0.1,0.1,0.1,0.1,0C133.3,61.8,133.4,61.5,133.6,61.3z M133.7,70
			c0-0.1-0.1-0.1-0.1-0.2c-0.2-0.4-0.4-0.9-0.6-1.4c-0.2-0.5-0.3-1.2-0.3-1.9c0-0.7,0.1-1.2,0.3-1.7c0.2-0.6,0.4-1.1,0.6-1.5
			c0.1-0.1,0.1-0.1,0.2,0c0.5,0.7,1.1,1.2,1.6,1.5c0.8,0.5,1.7,0.8,2.5,0.8c0.6,0,1.2-0.1,1.8-0.4c0.5-0.2,1-0.4,1.5-0.9
			c0.2-0.2,0.4-0.4,0.6-0.9c0.2-0.6,0.3-1.6,0-2.2c-0.1-0.2-0.2-0.4-0.3-0.6c-0.5-0.6-0.9-1-1.4-1.2c-0.7-0.3-1.4-0.5-2.1-0.5
			c-0.6,0.1-1.2,0.2-1.8,0.4c-0.6,0.2-1.2,0.6-1.7,1.2c-0.4,0.4-0.8,0.9-1.2,1.5c-0.3,0.6-0.6,1.3-0.9,2.3c-0.3,1.3-0.3,2.7-0.1,4.1
			c0.2,1,0.4,1.7,0.7,2.3c0,0.1,0.1,0.1,0.1,0C133.4,70.6,133.5,70.3,133.7,70z M133.4,43.6c0-0.1-0.1-0.1-0.1-0.2
			c-0.2-0.4-0.4-0.8-0.6-1.4c-0.1-0.5-0.2-1.1-0.2-1.8c0-0.6,0.1-1.1,0.2-1.5c0.2-0.8,0.5-1.4,0.8-1.8c0,0,0.1,0,0.1,0
			c0.5,0.7,1,1.1,1.6,1.5c0.6,0.4,1.3,0.7,2,0.8c1,0.1,2,0,3-0.6c0.4-0.2,0.9-0.5,1.3-1.2c0.1-0.2,0.2-0.4,0.3-0.7
			c0.2-0.6,0.1-1.5-0.1-2c-0.1-0.3-0.3-0.5-0.4-0.7c-0.3-0.3-0.6-0.6-0.8-0.7c-0.9-0.6-1.7-0.7-2.6-0.7c-0.8,0-1.6,0.2-2.3,0.7
			c-0.8,0.5-1.5,1.1-2.2,2.2c-0.4,0.6-0.7,1.4-1,2.5c-0.3,1.2-0.3,2.5-0.1,3.9c0.2,1.1,0.4,1.8,0.8,2.5c0,0,0.1,0.1,0.1,0.1
			C133.1,44.2,133.2,43.9,133.4,43.6z M133.3,34.8c-0.1-0.2-0.1-0.3-0.2-0.4c-0.2-0.5-0.5-1-0.6-1.8c-0.2-0.9-0.1-1.7,0.1-2.6
			c0.2-0.8,0.4-1.4,0.7-1.8c0-0.1,0.1-0.1,0.1,0c0.8,0.9,1.5,1.5,2.3,1.9c0.7,0.3,1.5,0.4,2.2,0.4c0.8-0.1,1.6-0.3,2.4-0.9
			c0.4-0.3,0.7-0.6,1-1.3c0.2-0.5,0.2-1.5,0-2.1c-0.1-0.3-0.2-0.5-0.3-0.7c-0.6-0.8-1.1-1.1-1.7-1.3c-0.6-0.2-1.2-0.3-1.8-0.3
			c-0.9,0-1.8,0.3-2.7,0.9c-0.6,0.4-1.2,1-1.8,1.8c-0.4,0.7-0.8,1.4-1.1,2.7c-0.2,0.9-0.3,1.9-0.2,3.1c0.1,1.6,0.5,2.5,0.9,3.4
			c0,0,0.1,0.1,0.1,0C133,35.3,133.1,35.1,133.3,34.8z M133.5,52.4c0-0.1-0.1-0.1-0.1-0.2c-0.2-0.4-0.4-0.9-0.6-1.6
			c-0.2-0.7-0.3-1.5-0.1-2.3c0.1-0.4,0.1-0.7,0.2-1c0.2-0.7,0.4-1.1,0.7-1.6c0-0.1,0.1-0.1,0.1,0c0.2,0.2,0.3,0.4,0.5,0.6
			c0.5,0.5,1.1,0.9,1.6,1.1c0.5,0.2,1,0.4,1.4,0.4c0.6,0.1,1.3,0.1,1.9-0.1c0.7-0.2,1.5-0.5,2.1-1.4c0.1-0.2,0.3-0.5,0.4-0.8
			c0.2-0.5,0.2-1.5,0-2c-0.1-0.3-0.3-0.6-0.4-0.8c-0.3-0.3-0.5-0.6-0.8-0.8c-0.8-0.5-1.6-0.8-2.5-0.8c-0.9,0-1.7,0.2-2.5,0.7
			c-0.7,0.4-1.3,0.9-1.9,1.8c-0.5,0.7-0.9,1.5-1.2,2.8c-0.3,1.1-0.4,2.4-0.2,3.8c0.1,1.3,0.5,2.1,0.8,2.8c0,0,0.1,0.1,0.1,0
			C133.2,53,133.3,52.7,133.5,52.4z M132.9,75.5c0-0.6,0.1-1,0.2-1.4c0.2-0.8,0.5-1.4,0.8-1.9c0-0.1,0.1-0.1,0.1,0
			c0.2,0.2,0.4,0.5,0.6,0.7c0.8,0.8,1.6,1.2,2.5,1.4c0.8,0.2,1.6,0.2,2.4,0c0.7-0.2,1.4-0.5,2-1.2c0.2-0.2,0.4-0.5,0.6-0.9
			c0.1-0.4,0.2-0.9,0.1-1.5c-0.1-0.4-0.2-0.7-0.3-0.9c-0.3-0.6-0.6-0.9-1-1.1c-0.7-0.5-1.4-0.7-2.1-0.8c-1.2-0.1-2.4,0.2-3.5,1
			c-0.7,0.5-1.4,1.2-1.9,2.4c-0.3,0.7-0.6,1.5-0.8,2.7c-0.1,0.5-0.1,1-0.1,1.5C132.6,75.5,132.7,75.5,132.9,75.5z M133.2,17
			c-0.4-0.8-0.9-1.6-1-3.2c-0.2,0-0.3,0-0.5,0c0,0.6,0.1,1.1,0.1,1.6c0.2,0.9,0.4,1.6,0.7,2.2c0.1,0.3,0.2,0.3,0.3,0
			C132.9,17.4,133,17.2,133.2,17z"/>
		<path d="M133.1,26c-0.1,0.2-0.3,0.5-0.4,0.8c0,0-0.1,0-0.1,0c-0.4-0.9-0.8-1.9-0.9-3.5c-0.1-1.4,0.1-2.6,0.4-3.6
			c0.2-0.9,0.6-1.5,0.9-2c0.6-1,1.2-1.5,1.9-2c1-0.7,2-0.9,3.1-0.8c0.8,0.1,1.6,0.3,2.5,1c0.3,0.2,0.6,0.5,0.8,1.1
			c0.2,0.5,0.3,1.5,0.1,2.1c-0.2,0.5-0.4,0.8-0.6,1c-0.5,0.6-1,0.8-1.5,1c-0.6,0.2-1.2,0.4-1.8,0.3c-0.8,0-1.5-0.2-2.3-0.6
			c-0.6-0.3-1.3-0.9-1.9-1.7c0,0-0.1,0-0.1,0c-0.3,0.5-0.5,1-0.7,1.7c-0.3,1.2-0.3,2.4,0.1,3.6C132.8,25.1,133,25.5,133.1,26z
			 M133.9,18.3c0.1,0.1,0.1,0.1,0.1,0.1c0.3,0.2,0.6,0.5,0.9,0.7c0.6,0.5,1.3,0.7,2,0.8c0.9,0.1,1.9,0,2.8-0.5
			c0.4-0.2,0.8-0.4,1.1-0.9c0.1-0.1,0.1-0.2,0.2-0.3c-0.1-0.1-0.1-0.1-0.1-0.2c-0.4-0.5-0.8-0.8-1.2-1c-0.8-0.4-1.6-0.5-2.5-0.5
			c-0.9,0.1-1.7,0.4-2.5,1C134.4,17.8,134.2,18,133.9,18.3z"/>
		<path d="M133.6,61.3c-0.1,0.2-0.3,0.5-0.4,0.8c0,0-0.1,0-0.1,0c-0.3-0.7-0.6-1.5-0.8-2.6c-0.1-0.9-0.1-1.9,0-2.8
			c0.1-1.2,0.4-2,0.7-2.7c0.3-0.6,0.6-1.1,0.9-1.5c0.6-0.8,1.2-1.3,1.8-1.6c0.6-0.2,1.1-0.5,1.7-0.6c0.8-0.2,1.7,0,2.5,0.3
			c0.5,0.2,1,0.4,1.5,1.1c0.1,0.2,0.3,0.4,0.4,0.7c0.3,0.7,0.3,1.8,0,2.4c-0.3,0.6-0.6,0.9-0.9,1.1c-0.5,0.4-1,0.7-1.5,0.7
			c-0.6,0.1-1.1,0.2-1.6,0.2c-0.9,0-1.8-0.3-2.6-1c-0.4-0.3-0.8-0.8-1.2-1.2c0,0-0.1-0.1-0.1,0c-0.3,0.5-0.6,1-0.8,1.8
			c-0.1,0.4-0.2,0.9-0.2,1.4c0,0.8,0.1,1.4,0.3,1.9C133.1,60.2,133.3,60.7,133.6,61.3z M134.4,53.4c0,0,0,0.1,0,0.1
			c0,0,0.1,0.1,0.1,0.1c0.6,0.5,1.1,0.9,1.7,1.1c0.6,0.2,1.2,0.4,1.8,0.4c0.6-0.1,1.1-0.2,1.7-0.3c0.5-0.1,1-0.5,1.5-1.1
			c0.1-0.1,0.1-0.2,0.2-0.3c-0.3-0.5-0.6-0.7-0.9-0.9c-0.7-0.5-1.3-0.7-2-0.7c-1.1-0.1-2.1,0.1-3.1,0.8
			C135.1,52.9,134.7,53.2,134.4,53.4z"/>
		<path d="M133.7,70c-0.2,0.3-0.3,0.6-0.5,0.8c0,0-0.1,0-0.1,0c-0.3-0.6-0.6-1.3-0.7-2.3c-0.2-1.4-0.2-2.8,0.1-4.1
			c0.2-1,0.5-1.7,0.9-2.3c0.4-0.7,0.8-1.2,1.2-1.5c0.6-0.6,1.1-1,1.7-1.2c0.6-0.2,1.2-0.3,1.8-0.4c0.7-0.1,1.4,0.2,2.1,0.5
			c0.5,0.2,1,0.6,1.4,1.2c0.1,0.1,0.2,0.3,0.3,0.6c0.2,0.6,0.2,1.6,0,2.2c-0.2,0.4-0.4,0.7-0.6,0.9c-0.5,0.5-1,0.7-1.5,0.9
			c-0.6,0.2-1.2,0.4-1.8,0.4c-0.9,0-1.7-0.3-2.5-0.8c-0.6-0.3-1.1-0.8-1.6-1.5c-0.1-0.1-0.1-0.1-0.2,0c-0.2,0.4-0.4,0.9-0.6,1.5
			c-0.1,0.5-0.2,1-0.3,1.7c0,0.8,0.1,1.4,0.3,1.9s0.4,0.9,0.6,1.4C133.6,69.9,133.7,70,133.7,70z M134.5,62.3
			C134.5,62.3,134.5,62.3,134.5,62.3c0,0.1,0.1,0.2,0.1,0.2c0.3,0.3,0.7,0.6,1,0.8c1,0.6,2,0.8,2.9,0.7c0.8-0.1,1.6-0.4,2.4-1
			c0.2-0.2,0.4-0.3,0.5-0.7c-0.3-0.3-0.5-0.7-0.8-0.8c-0.7-0.4-1.4-0.7-2.1-0.8c-1.2-0.1-2.3,0.2-3.4,1.1
			C134.9,61.9,134.7,62.1,134.5,62.3z"/>
		<path d="M133.4,43.6c-0.2,0.3-0.3,0.6-0.5,0.8c0,0-0.1,0-0.1-0.1c-0.3-0.7-0.6-1.4-0.8-2.5c-0.2-1.4-0.2-2.7,0.1-3.9
			c0.2-1.1,0.6-1.9,1-2.5c0.7-1.1,1.4-1.8,2.2-2.2c0.8-0.5,1.6-0.6,2.3-0.7c0.9,0,1.7,0.1,2.6,0.7c0.3,0.2,0.6,0.4,0.8,0.7
			c0.1,0.2,0.3,0.4,0.4,0.7c0.2,0.5,0.3,1.3,0.1,2c-0.1,0.3-0.2,0.5-0.3,0.7c-0.4,0.6-0.8,0.9-1.3,1.2c-1,0.6-2,0.7-3,0.6
			c-0.7-0.1-1.3-0.4-2-0.8c-0.5-0.3-1.1-0.8-1.6-1.5c0,0-0.1-0.1-0.1,0c-0.3,0.5-0.6,1-0.8,1.8c-0.1,0.4-0.2,0.9-0.2,1.5
			c0,0.7,0.1,1.2,0.2,1.8c0.2,0.6,0.4,1,0.6,1.4C133.3,43.5,133.3,43.5,133.4,43.6z M134.1,35.9c0,0,0,0.1,0,0.1
			c0.2,0.2,0.5,0.4,0.7,0.6c0.8,0.6,1.5,0.8,2.3,1c0.8,0.1,1.5,0,2.3-0.3c0.5-0.2,0.9-0.4,1.3-0.9c0.1-0.1,0.2-0.3,0.4-0.5
			c0,0,0-0.1,0-0.1c-0.1-0.1-0.1-0.2-0.2-0.3c-0.5-0.5-1-0.8-1.5-1c-0.8-0.3-1.6-0.4-2.4-0.3c-0.8,0.1-1.6,0.4-2.4,1.1
			C134.5,35.5,134.3,35.7,134.1,35.9z"/>
		<path d="M133.3,34.8c-0.2,0.3-0.3,0.6-0.5,0.8c0,0-0.1,0-0.1,0c-0.4-0.9-0.8-1.8-0.9-3.4c-0.1-1.1,0-2.1,0.2-3.1
			c0.3-1.2,0.7-2,1.1-2.7c0.6-0.9,1.1-1.4,1.8-1.8c0.9-0.6,1.8-0.9,2.7-0.9c0.6,0,1.2,0.1,1.8,0.3s1.2,0.5,1.7,1.3
			c0.1,0.2,0.2,0.4,0.3,0.7c0.2,0.6,0.2,1.6,0,2.1c-0.3,0.7-0.7,1-1,1.3c-0.8,0.6-1.6,0.8-2.4,0.9c-0.7,0.1-1.5-0.1-2.2-0.4
			c-0.8-0.3-1.6-0.9-2.3-1.9c0-0.1-0.1,0-0.1,0c-0.3,0.4-0.6,1-0.7,1.8c-0.2,0.8-0.2,1.7-0.1,2.6c0.1,0.8,0.4,1.4,0.6,1.8
			C133.1,34.5,133.2,34.6,133.3,34.8z M141,27.1c0-0.1,0-0.1,0-0.2c-0.2-0.2-0.4-0.4-0.5-0.6c-0.8-0.7-1.7-0.9-2.5-1
			c-1.1-0.1-2.2,0.2-3.3,1.1c-0.2,0.2-0.4,0.4-0.6,0.6c0.1,0.1,0.1,0.2,0.1,0.2c0.5,0.4,0.9,0.8,1.4,1c0.5,0.2,1,0.3,1.5,0.4
			c0.6,0.1,1.2,0,1.7-0.1c0.6-0.2,1.1-0.4,1.7-0.9C140.7,27.5,140.9,27.3,141,27.1z"/>
		<path d="M133.5,52.4c-0.2,0.3-0.3,0.6-0.5,0.8c0,0-0.1,0-0.1,0c-0.4-0.7-0.7-1.6-0.8-2.8c-0.2-1.4-0.1-2.6,0.2-3.8
			c0.3-1.3,0.7-2.1,1.2-2.8c0.6-0.9,1.3-1.4,1.9-1.8c0.8-0.5,1.7-0.7,2.5-0.7c0.8,0,1.7,0.2,2.5,0.8c0.3,0.2,0.6,0.4,0.8,0.8
			c0.1,0.2,0.3,0.4,0.4,0.8c0.2,0.5,0.2,1.5,0,2c-0.1,0.3-0.3,0.6-0.4,0.8c-0.7,0.9-1.4,1.1-2.1,1.4c-0.6,0.2-1.3,0.3-1.9,0.1
			c-0.5-0.1-1-0.3-1.4-0.4c-0.5-0.2-1.1-0.6-1.6-1.1c-0.2-0.2-0.3-0.4-0.5-0.6c0-0.1-0.1-0.1-0.1,0c-0.2,0.4-0.5,0.9-0.7,1.6
			c-0.1,0.3-0.1,0.7-0.2,1c-0.1,0.8,0,1.6,0.1,2.3c0.2,0.7,0.4,1.2,0.6,1.6C133.4,52.3,133.5,52.3,133.5,52.4z M141.2,44.7
			c0-0.1,0-0.1,0-0.2c-0.3-0.3-0.5-0.6-0.8-0.8c-0.8-0.5-1.7-0.8-2.5-0.8c-0.8,0-1.6,0.2-2.4,0.7c-0.4,0.2-0.9,0.6-1.3,1.1
			c0,0.1,0.1,0.1,0.1,0.1c0.4,0.3,0.8,0.7,1.2,0.9c0.5,0.3,1,0.5,1.6,0.6c0.9,0.2,1.8,0.1,2.6-0.4c0.4-0.2,0.7-0.5,1.1-0.7
			C141,45.1,141.1,44.9,141.2,44.7z"/>
		<path d="M132.9,75.5c-0.2,0-0.3,0-0.5,0c0-0.5,0-1.1,0.1-1.5c0.2-1.2,0.5-2,0.8-2.7c0.6-1.2,1.3-1.9,1.9-2.4
			c1.1-0.9,2.3-1.2,3.5-1c0.7,0.1,1.4,0.3,2.1,0.8c0.3,0.2,0.7,0.5,1,1.1c0.1,0.2,0.2,0.5,0.3,0.9c0.1,0.5,0,1.1-0.1,1.5
			c-0.2,0.4-0.4,0.7-0.6,0.9c-0.7,0.7-1.4,1-2,1.2c-0.8,0.2-1.6,0.2-2.4,0c-0.8-0.2-1.7-0.6-2.5-1.4c-0.2-0.2-0.4-0.5-0.6-0.7
			c0-0.1-0.1,0-0.1,0c-0.3,0.5-0.6,1.1-0.8,1.9C133,74.5,132.9,75,132.9,75.5z M134.6,71.1c0,0,0,0.1,0,0.1c0,0,0,0,0,0
			c0.4,0.3,0.9,0.7,1.4,1c0.5,0.3,0.9,0.4,1.4,0.5c0.7,0.2,1.4,0.1,2.1-0.2c0.5-0.2,1.1-0.4,1.6-0.9c0.2-0.2,0.3-0.4,0.5-0.6
			c0-0.1,0-0.1,0-0.2c-0.2-0.2-0.4-0.5-0.7-0.7c-0.7-0.5-1.3-0.7-2-0.8c-0.7-0.1-1.4-0.1-2.1,0.2c-0.5,0.2-0.9,0.4-1.4,0.7
			C135.1,70.5,134.9,70.8,134.6,71.1z"/>
		<path d="M133.2,17c-0.1,0.2-0.3,0.4-0.4,0.6c-0.1,0.2-0.2,0.2-0.3,0c-0.3-0.6-0.5-1.3-0.7-2.2c-0.1-0.5-0.1-1-0.1-1.6
			c0.2,0,0.3,0,0.5,0C132.3,15.5,132.7,16.2,133.2,17z"/>
		<path class="st8" d="M133.9,18.3c0.3-0.2,0.5-0.5,0.7-0.6c0.8-0.7,1.7-1,2.5-1c0.8-0.1,1.6,0.1,2.5,0.5c0.4,0.2,0.8,0.5,1.2,1
			c0,0,0.1,0.1,0.1,0.2c-0.1,0.1-0.1,0.2-0.2,0.3c-0.4,0.5-0.7,0.7-1.1,0.9c-0.9,0.5-1.8,0.6-2.8,0.5c-0.7-0.1-1.3-0.3-2-0.8
			c-0.3-0.2-0.6-0.5-0.9-0.7C134,18.4,134,18.3,133.9,18.3z"/>
		<path class="st8" d="M134.4,53.4c0.3-0.3,0.7-0.6,1-0.8c1-0.7,2.1-0.9,3.1-0.8c0.7,0.1,1.4,0.3,2,0.7c0.3,0.2,0.6,0.4,0.9,0.9
			c-0.1,0.1-0.1,0.2-0.2,0.3c-0.5,0.6-1,0.9-1.5,1.1c-0.6,0.2-1.1,0.3-1.7,0.3c-0.6,0.1-1.2-0.1-1.8-0.4c-0.6-0.2-1.1-0.6-1.7-1.1
			c0,0-0.1-0.1-0.1-0.1C134.4,53.5,134.4,53.5,134.4,53.4z"/>
		<path class="st8" d="M134.5,62.3c0.2-0.2,0.4-0.4,0.6-0.6c1.1-0.9,2.3-1.2,3.4-1.1c0.7,0.1,1.4,0.3,2.1,0.8
			c0.3,0.2,0.5,0.5,0.8,0.8c-0.2,0.4-0.3,0.6-0.5,0.7c-0.8,0.7-1.6,0.9-2.4,1c-1,0.1-2,0-2.9-0.7c-0.3-0.2-0.7-0.5-1-0.8
			C134.5,62.5,134.5,62.4,134.5,62.3C134.5,62.3,134.5,62.3,134.5,62.3z"/>
		<path class="st8" d="M134.1,35.9c0.2-0.2,0.4-0.3,0.6-0.5c0.8-0.7,1.6-1,2.4-1.1c0.8-0.1,1.6,0,2.4,0.3c0.5,0.2,1,0.5,1.5,1
			c0.1,0.1,0.1,0.2,0.2,0.3c0,0,0,0.1,0,0.1c-0.1,0.2-0.2,0.3-0.4,0.5c-0.4,0.4-0.9,0.7-1.3,0.9c-0.8,0.3-1.5,0.4-2.3,0.3
			c-0.8-0.1-1.5-0.4-2.3-1c-0.2-0.2-0.5-0.4-0.7-0.6C134.2,35.9,134.2,35.9,134.1,35.9z"/>
		<path class="st8" d="M141,27.1c-0.2,0.2-0.3,0.4-0.5,0.6c-0.5,0.5-1.1,0.7-1.7,0.9c-0.6,0.2-1.2,0.3-1.7,0.1
			c-0.5-0.1-1-0.3-1.5-0.4c-0.5-0.2-0.9-0.6-1.4-1c-0.1,0-0.1-0.1-0.1-0.2c0.2-0.2,0.4-0.4,0.6-0.6c1.1-0.9,2.2-1.2,3.3-1.1
			c0.9,0.1,1.7,0.3,2.5,1c0.2,0.1,0.4,0.4,0.5,0.6C141,27,141,27,141,27.1z"/>
		<path class="st8" d="M141.2,44.7c-0.1,0.2-0.3,0.4-0.4,0.5c-0.4,0.3-0.7,0.6-1.1,0.7c-0.9,0.4-1.7,0.6-2.6,0.4
			c-0.5-0.1-1-0.3-1.6-0.6c-0.4-0.2-0.8-0.6-1.2-0.9c0,0-0.1-0.1-0.1-0.1c0.4-0.5,0.9-0.8,1.3-1.1c0.8-0.4,1.6-0.6,2.4-0.7
			c0.9,0,1.7,0.3,2.5,0.8c0.3,0.2,0.5,0.5,0.8,0.8C141.2,44.6,141.2,44.6,141.2,44.7z"/>
		<path class="st8" d="M134.6,71.1c0.3-0.2,0.6-0.5,0.9-0.7c0.5-0.3,0.9-0.5,1.4-0.7c0.7-0.3,1.4-0.3,2.1-0.2c0.7,0.1,1.3,0.4,2,0.8
			c0.2,0.2,0.4,0.4,0.7,0.7c0,0.1,0,0.1,0,0.2c-0.2,0.2-0.3,0.4-0.5,0.6c-0.5,0.5-1,0.7-1.6,0.9c-0.7,0.2-1.4,0.3-2.1,0.2
			c-0.5-0.1-0.9-0.3-1.4-0.5c-0.4-0.2-0.9-0.7-1.4-1c0,0,0,0,0,0C134.6,71.2,134.6,71.1,134.6,71.1z"/>
	</g>
	<g>
		<path class="st8" d="M206.9,72.4c-4.5,6.5-9,13.1-13.5,19.6c-4-2.7-7.9-5.5-11.9-8.2c4.5-6.5,9-13.1,13.5-19.6
			C199,66.9,202.9,69.6,206.9,72.4z M194.4,70.9c-0.1-0.2-0.2-0.5-0.2-0.7c-0.1-0.5,0.1-0.8,0.6-1c0.3-0.1,0.6-0.1,0.9,0
			c0,0,0.1,0,0.1,0.1c0.4,0.6,0.8,1.1,1.2,1.5c0.5,0.5,1.1,1,1.7,1.4c0.5,0.3,1,0.7,1.5,0.9c0.5,0.2,0.9,0.5,1.4,0.6
			c0.2,0.1,0.4,0.1,0.7,0.1c0.3-0.1,0.4-0.3,0.4-0.6c-0.1-0.3-0.3-0.5-0.5-0.8c-0.5-0.6-1.2-1.2-1.8-1.7c-0.8-0.6-1.7-1.2-2.7-1.6
			c-0.6-0.3-1.3-0.5-1.9-0.6c-0.4-0.1-0.8-0.1-1.1,0c-0.4,0.1-0.8,0.3-1,0.7c-0.2,0.5-0.1,0.9,0,1.4c0,0,0,0,0.1,0
			C194,70.8,194.2,70.9,194.4,70.9z M187.9,80.2c-0.1-0.2-0.1-0.5-0.2-0.8c-0.1-0.2,0-0.5,0.1-0.7c0.1-0.1,0.3-0.2,0.4-0.3
			c0.3-0.1,0.6-0.1,1,0c0,0,0.1,0,0.1,0.1c0.3,0.3,0.5,0.7,0.8,1c0.6,0.7,1.2,1.3,2,1.8c0.4,0.3,0.9,0.6,1.4,0.9
			c0.4,0.3,0.9,0.5,1.4,0.7c0.3,0.1,0.6,0.2,1,0.2c0.4,0,0.6-0.3,0.5-0.6c-0.1-0.1-0.1-0.3-0.2-0.4c-0.3-0.4-0.6-0.8-1-1.1
			c-0.6-0.6-1.3-1.1-2-1.5c-0.5-0.3-1-0.6-1.5-0.8c-0.6-0.3-1.2-0.5-1.8-0.6c-0.3-0.1-0.7-0.1-1-0.1c-0.4,0-0.8,0.1-1.1,0.3
			c-0.3,0.2-0.4,0.4-0.5,0.8c-0.1,0.4,0,0.8,0.1,1.1c0,0,0,0.1,0.1,0.1C187.6,80.2,187.8,80.2,187.9,80.2z M186.3,82.5
			C186.3,82.5,186.3,82.5,186.3,82.5c-0.1-0.3-0.2-0.5-0.2-0.8c-0.1-0.2,0-0.5,0.1-0.7c0.1-0.2,0.3-0.2,0.5-0.3c0.3-0.1,0.5,0,0.8,0
			c0.1,0,0.1,0,0.1,0.1c0.3,0.5,0.6,0.9,1,1.3c0.6,0.6,1.2,1.2,1.9,1.6c0.5,0.3,1,0.7,1.5,0.9c0.4,0.2,0.9,0.5,1.4,0.6
			c0.2,0.1,0.4,0.1,0.6,0.1c0.3,0,0.5-0.3,0.4-0.6c0-0.1-0.1-0.2-0.1-0.3c-0.3-0.4-0.6-0.8-0.9-1.1c-0.5-0.5-1-0.9-1.6-1.3
			c-0.5-0.3-1-0.6-1.6-0.9c-0.5-0.3-1.1-0.5-1.6-0.7c-0.4-0.1-0.8-0.2-1.2-0.3c-0.4,0-0.8,0-1.2,0.1c-0.5,0.2-0.8,0.5-0.9,1
			c-0.1,0.3,0,0.7,0.1,1c0,0,0,0.1,0.1,0.1C186,82.5,186.2,82.5,186.3,82.5z M191.2,75.5C191.1,75.5,191.1,75.5,191.2,75.5
			c-0.1-0.3-0.2-0.6-0.2-0.8c0-0.2,0-0.4,0.1-0.6c0.1-0.1,0.3-0.2,0.4-0.3c0.3-0.1,0.6-0.1,1,0c0,0,0.1,0,0.1,0.1
			c0.3,0.5,0.6,0.9,1,1.3c0.5,0.5,0.9,0.9,1.5,1.3c0.8,0.6,1.7,1.2,2.6,1.6c0.4,0.2,0.8,0.4,1.3,0.4c0.1,0,0.2,0,0.4,0
			c0.3-0.1,0.4-0.3,0.3-0.6c-0.1-0.2-0.1-0.3-0.2-0.4c-0.2-0.2-0.4-0.5-0.5-0.7c-0.6-0.6-1.3-1.2-2-1.7c-0.6-0.4-1.3-0.8-2-1.2
			c-0.7-0.3-1.4-0.6-2.2-0.7c-0.4-0.1-0.9-0.1-1.3,0.1c-0.4,0.2-0.7,0.5-0.8,0.9c-0.1,0.4,0,0.7,0.1,1.1c0,0,0,0.1,0.1,0.1
			C190.8,75.5,191,75.5,191.2,75.5z M192.8,73.2c0-0.1-0.1-0.2-0.1-0.2c-0.1-0.3-0.2-0.5-0.1-0.8c0.1-0.3,0.2-0.5,0.6-0.6
			c0.3-0.1,0.6-0.1,0.9,0c0,0,0.1,0,0.1,0.1c0.4,0.7,1,1.3,1.6,1.8c0.5,0.5,1.1,0.9,1.7,1.3c0.7,0.4,1.4,0.9,2.2,1.2
			c0.4,0.1,0.7,0.3,1.1,0.2c0.3,0,0.5-0.2,0.4-0.5c0-0.1-0.1-0.2-0.1-0.3c-0.3-0.5-0.7-0.9-1.2-1.3c-0.4-0.4-0.9-0.8-1.4-1.1
			c-0.8-0.5-1.6-1-2.4-1.3c-0.6-0.2-1.2-0.4-1.8-0.5c-0.5-0.1-0.9-0.1-1.4,0.1c-0.4,0.1-0.6,0.3-0.8,0.7c-0.2,0.5-0.1,0.9,0.1,1.4
			c0,0,0,0,0.1,0.1C192.4,73.2,192.6,73.2,192.8,73.2z M189.6,77.9C189.5,77.8,189.5,77.8,189.6,77.9c-0.1-0.3-0.2-0.6-0.2-0.9
			c0-0.3,0.1-0.5,0.3-0.7c0.1-0.1,0.2-0.1,0.4-0.1c0.3-0.1,0.6-0.1,0.9,0c0,0,0.1,0,0.1,0.1c0.1,0.2,0.2,0.3,0.3,0.4
			c0.3,0.4,0.7,0.8,1.1,1.2c0.4,0.3,0.7,0.6,1.1,0.9c0.5,0.4,1.1,0.8,1.6,1.1c0.6,0.4,1.3,0.7,2,0.9c0.2,0,0.3,0.1,0.5,0
			c0.2,0,0.4-0.3,0.4-0.5c0-0.2-0.1-0.3-0.2-0.4c-0.2-0.2-0.3-0.5-0.5-0.7c-0.6-0.6-1.2-1.1-1.9-1.6c-0.7-0.5-1.4-0.9-2.2-1.3
			c-0.6-0.3-1.3-0.5-1.9-0.6c-0.5-0.1-1-0.1-1.5,0c-0.4,0.1-0.8,0.4-0.9,0.9c-0.1,0.4,0,0.8,0.1,1.2c0,0,0,0,0.1,0
			C189.2,77.8,189.4,77.9,189.6,77.9z M184.6,83.5c0.1-0.1,0.2-0.2,0.4-0.3c0.3-0.1,0.7-0.1,1-0.1c0,0,0.1,0,0.1,0.1
			c0.1,0.2,0.2,0.3,0.4,0.5c0.5,0.7,1.1,1.2,1.8,1.8c0.6,0.5,1.3,1,1.9,1.3c0.6,0.3,1.2,0.7,1.9,0.9c0.2,0.1,0.4,0.1,0.6,0.1
			c0.2,0,0.3-0.1,0.4-0.3c0-0.1,0-0.3-0.1-0.4c-0.1-0.3-0.4-0.6-0.6-0.9c-0.5-0.5-1-1-1.6-1.4c-0.9-0.7-2-1.3-3.1-1.7
			c-0.7-0.3-1.4-0.5-2.1-0.5c-0.4,0-0.8,0-1.2,0.2c-0.1,0.1-0.3,0.2-0.4,0.3C184.3,83.3,184.5,83.4,184.6,83.5z M196.1,68.6
			c-0.2-0.5-0.4-0.9-0.2-1.4c-0.1-0.1-0.3-0.2-0.4-0.3c-0.1,0.2-0.1,0.3-0.2,0.5c0,0.3,0,0.7,0.1,1c0,0.1,0.1,0.2,0.2,0.2
			C195.8,68.5,195.9,68.6,196.1,68.6z"/>
		<path d="M194.4,70.9c-0.2,0-0.3,0-0.5-0.1c0,0-0.1,0-0.1,0c-0.2-0.5-0.3-0.9,0-1.4c0.2-0.4,0.6-0.6,1-0.7c0.4-0.1,0.8-0.1,1.1,0
			c0.7,0.1,1.3,0.3,1.9,0.6c0.9,0.4,1.8,0.9,2.7,1.6c0.7,0.5,1.3,1,1.8,1.7c0.2,0.2,0.4,0.5,0.5,0.8c0.1,0.3-0.1,0.5-0.4,0.6
			c-0.2,0-0.5,0-0.7-0.1c-0.5-0.1-1-0.4-1.4-0.6c-0.5-0.3-1.1-0.6-1.5-0.9c-0.6-0.4-1.2-0.9-1.7-1.4c-0.5-0.5-0.9-1-1.2-1.5
			c0,0-0.1-0.1-0.1-0.1c-0.3,0-0.6-0.1-0.9,0c-0.5,0.1-0.7,0.4-0.6,1C194.2,70.4,194.3,70.7,194.4,70.9z M196.5,69.3
			C196.5,69.4,196.5,69.4,196.5,69.3c0.3,0.3,0.5,0.6,0.7,0.8c0.4,0.5,0.9,0.9,1.5,1.3c0.8,0.6,1.5,1.1,2.4,1.4
			c0.4,0.2,0.7,0.3,1.1,0.4c0.1,0,0.1,0,0.2,0c0-0.1-0.1-0.1-0.1-0.1c-0.2-0.3-0.5-0.7-0.8-0.9c-0.6-0.6-1.2-1.1-1.9-1.5
			c-0.7-0.5-1.5-0.9-2.3-1.2C197,69.5,196.7,69.4,196.5,69.3z"/>
		<path d="M187.9,80.2c-0.2,0-0.3,0-0.5,0c0,0-0.1,0-0.1-0.1c-0.1-0.4-0.2-0.7-0.1-1.1c0.1-0.3,0.2-0.6,0.5-0.8
			c0.3-0.2,0.7-0.3,1.1-0.3c0.4,0,0.7,0.1,1,0.1c0.6,0.1,1.2,0.3,1.8,0.6c0.5,0.2,1,0.5,1.5,0.8c0.7,0.4,1.4,0.9,2,1.5
			c0.4,0.3,0.7,0.7,1,1.1c0.1,0.1,0.2,0.3,0.2,0.4c0.1,0.3-0.1,0.6-0.5,0.6c-0.3,0-0.7-0.1-1-0.2c-0.5-0.2-0.9-0.4-1.4-0.7
			c-0.5-0.3-0.9-0.6-1.4-0.9c-0.7-0.5-1.4-1.1-2-1.8c-0.3-0.3-0.5-0.7-0.8-1c0,0-0.1-0.1-0.1-0.1c-0.3-0.1-0.7-0.1-1,0
			c-0.2,0.1-0.3,0.1-0.4,0.3c-0.1,0.2-0.2,0.4-0.1,0.7C187.8,79.7,187.8,79.9,187.9,80.2z M190.1,78.7
			C190.1,78.7,190.1,78.7,190.1,78.7c0,0.1,0,0.1,0,0.1c0.4,0.4,0.7,0.9,1.2,1.3c0.4,0.4,0.9,0.8,1.4,1.1c0.5,0.3,1,0.6,1.4,0.9
			c0.5,0.3,0.9,0.5,1.4,0.6c0.1,0,0.1,0,0.2,0c-0.1-0.3-0.3-0.5-0.5-0.7c-0.5-0.5-1-0.9-1.5-1.3c-0.8-0.6-1.7-1.2-2.7-1.6
			C190.8,78.9,190.4,78.8,190.1,78.7z"/>
		<path d="M186.3,82.5c-0.2,0-0.4,0-0.5-0.1c0,0-0.1,0-0.1-0.1c-0.1-0.3-0.2-0.7-0.1-1c0.1-0.5,0.4-0.8,0.9-1
			c0.4-0.1,0.8-0.1,1.2-0.1c0.4,0,0.8,0.1,1.2,0.3c0.6,0.2,1.1,0.4,1.6,0.7c0.5,0.3,1.1,0.6,1.6,0.9c0.6,0.4,1.1,0.8,1.6,1.3
			c0.4,0.3,0.7,0.7,0.9,1.1c0.1,0.1,0.1,0.2,0.1,0.3c0.1,0.3-0.1,0.5-0.4,0.6c-0.2,0-0.4-0.1-0.6-0.1c-0.5-0.1-0.9-0.4-1.4-0.6
			c-0.5-0.3-1-0.6-1.5-0.9c-0.7-0.5-1.3-1-1.9-1.6c-0.4-0.4-0.7-0.8-1-1.3c0-0.1-0.1-0.1-0.1-0.1c-0.3,0-0.5,0-0.8,0
			c-0.2,0-0.4,0.1-0.5,0.3c-0.2,0.2-0.2,0.4-0.1,0.7S186.3,82.3,186.3,82.5C186.3,82.5,186.3,82.5,186.3,82.5z M188.5,81
			C188.5,81,188.5,81,188.5,81c0,0,0,0.1,0,0.1c0.2,0.3,0.4,0.5,0.7,0.8c0.7,0.7,1.5,1.3,2.3,1.9c0.7,0.4,1.4,0.8,2.2,1.1
			c0.2,0.1,0.4,0.1,0.6,0.1c-0.1-0.2-0.3-0.5-0.5-0.7c-0.5-0.5-1-1-1.6-1.4c-0.9-0.7-1.9-1.3-3-1.7C188.9,81.1,188.7,81.1,188.5,81z
			"/>
		<path d="M191.2,75.5c-0.2,0-0.4,0-0.6-0.1c0,0-0.1,0-0.1-0.1c-0.1-0.3-0.2-0.7-0.1-1.1c0.1-0.5,0.4-0.8,0.8-0.9
			c0.4-0.2,0.9-0.2,1.3-0.1c0.8,0.1,1.5,0.4,2.2,0.7c0.7,0.3,1.4,0.7,2,1.2c0.7,0.5,1.4,1,2,1.7c0.2,0.2,0.4,0.4,0.5,0.7
			c0.1,0.1,0.2,0.3,0.2,0.4c0.1,0.2,0,0.5-0.3,0.6c-0.1,0-0.2,0-0.4,0c-0.4-0.1-0.9-0.2-1.3-0.4c-0.9-0.4-1.8-1-2.6-1.6
			c-0.5-0.4-1-0.8-1.5-1.3c-0.4-0.4-0.7-0.8-1-1.3c0,0-0.1-0.1-0.1-0.1c-0.3,0-0.7-0.1-1,0c-0.2,0.1-0.3,0.1-0.4,0.3
			c-0.1,0.2-0.2,0.4-0.1,0.6C191,75,191,75.3,191.2,75.5C191.1,75.5,191.1,75.5,191.2,75.5z M193.3,74C193.3,74,193.3,74,193.3,74
			c0.1,0.2,0.3,0.4,0.4,0.6c0.5,0.6,1.1,1.1,1.7,1.6c0.6,0.5,1.3,0.9,1.9,1.2c0.4,0.2,0.8,0.4,1.3,0.5c0.1,0,0.3,0.1,0.4,0.1
			c0,0,0,0,0,0c0-0.1-0.1-0.1-0.1-0.2c-0.3-0.4-0.6-0.8-1-1.1c-0.6-0.5-1.2-1-1.9-1.4c-0.7-0.4-1.4-0.8-2.2-1.1
			C193.7,74.1,193.5,74.1,193.3,74z"/>
		<path d="M192.8,73.2c-0.2,0-0.4,0-0.6-0.1c0,0-0.1,0-0.1-0.1c-0.1-0.4-0.3-0.9-0.1-1.4c0.2-0.3,0.4-0.6,0.8-0.7
			c0.5-0.2,0.9-0.1,1.4-0.1c0.6,0.1,1.2,0.3,1.8,0.5c0.9,0.4,1.6,0.8,2.4,1.3c0.5,0.3,1,0.7,1.4,1.1c0.4,0.4,0.9,0.8,1.2,1.3
			c0.1,0.1,0.1,0.2,0.1,0.3c0.1,0.3-0.1,0.5-0.4,0.5c-0.4,0-0.7-0.1-1.1-0.2c-0.8-0.3-1.5-0.7-2.2-1.2c-0.6-0.4-1.2-0.9-1.7-1.3
			c-0.6-0.5-1.1-1.1-1.6-1.8c0,0-0.1-0.1-0.1-0.1c-0.3-0.1-0.6-0.1-0.9,0c-0.3,0.1-0.5,0.3-0.6,0.6c0,0.3,0,0.6,0.1,0.8
			C192.7,73.1,192.7,73.1,192.8,73.2z M200.6,75.7C200.6,75.7,200.6,75.6,200.6,75.7c-0.1-0.2-0.2-0.3-0.3-0.5
			c-0.6-0.7-1.2-1.2-1.9-1.7c-0.9-0.7-1.9-1.2-2.9-1.6c-0.2-0.1-0.4-0.1-0.6-0.2c0,0.1,0.1,0.1,0.1,0.1c0.3,0.4,0.6,0.7,1,1.1
			c0.4,0.3,0.8,0.7,1.2,1c0.5,0.4,0.9,0.7,1.5,1c0.5,0.3,1,0.5,1.5,0.7C200.3,75.6,200.4,75.6,200.6,75.7z"/>
		<path d="M189.6,77.9c-0.2,0-0.4,0-0.5-0.1c0,0-0.1,0-0.1,0c-0.1-0.4-0.2-0.8-0.1-1.2c0.1-0.4,0.4-0.7,0.9-0.9c0.5-0.2,1-0.1,1.5,0
			c0.7,0.1,1.3,0.3,1.9,0.6c0.8,0.3,1.5,0.8,2.2,1.3c0.7,0.5,1.3,1,1.9,1.6c0.2,0.2,0.4,0.4,0.5,0.7c0.1,0.1,0.1,0.3,0.2,0.4
			c0.1,0.2-0.1,0.5-0.4,0.5c-0.2,0-0.3,0-0.5,0c-0.7-0.2-1.4-0.5-2-0.9c-0.6-0.3-1.1-0.7-1.6-1.1c-0.4-0.3-0.7-0.6-1.1-0.9
			c-0.4-0.4-0.8-0.8-1.1-1.2c-0.1-0.1-0.2-0.3-0.3-0.4c0,0-0.1-0.1-0.1-0.1c-0.3,0-0.6-0.1-0.9,0c-0.1,0-0.2,0.1-0.4,0.1
			c-0.3,0.2-0.3,0.4-0.3,0.7C189.3,77.3,189.4,77.6,189.6,77.9C189.5,77.8,189.6,77.8,189.6,77.9z M197.4,80.3
			C197.4,80.3,197.4,80.3,197.4,80.3c-0.1-0.3-0.3-0.5-0.5-0.7c-0.6-0.6-1.2-1.2-1.9-1.7c-0.6-0.4-1.3-0.8-2.1-1.2
			c-0.4-0.2-0.8-0.3-1.3-0.5c0,0,0,0.1,0.1,0.1c0.3,0.3,0.5,0.6,0.8,0.9c0.4,0.4,0.8,0.7,1.2,1c0.7,0.6,1.4,1,2.2,1.4
			c0.3,0.2,0.7,0.3,1.1,0.4C197.1,80.3,197.3,80.3,197.4,80.3z"/>
		<path d="M184.6,83.5c-0.1-0.1-0.3-0.2-0.4-0.3c0.1-0.2,0.2-0.3,0.4-0.3c0.4-0.2,0.8-0.3,1.2-0.2c0.7,0,1.4,0.2,2.1,0.5
			c1.1,0.4,2.1,1,3.1,1.7c0.6,0.4,1.1,0.9,1.6,1.4c0.2,0.2,0.5,0.5,0.6,0.9c0.1,0.1,0.1,0.3,0.1,0.4c-0.1,0.2-0.2,0.3-0.4,0.3
			c-0.2,0-0.4,0-0.6-0.1c-0.7-0.2-1.3-0.5-1.9-0.9c-0.7-0.4-1.3-0.8-1.9-1.3c-0.6-0.5-1.2-1.1-1.8-1.8c-0.1-0.2-0.2-0.3-0.4-0.5
			c0,0-0.1-0.1-0.1-0.1c-0.3,0-0.7,0-1,0.1C184.9,83.3,184.7,83.4,184.6,83.5z M186.9,83.3C186.9,83.3,186.9,83.3,186.9,83.3
			C186.9,83.4,186.9,83.4,186.9,83.3c0.3,0.4,0.6,0.7,0.9,1.1c0.3,0.3,0.7,0.7,1.1,0.9c0.6,0.4,1.1,0.8,1.8,1.2
			c0.5,0.2,0.9,0.5,1.4,0.7c0.2,0.1,0.4,0.1,0.5,0.1c0,0,0,0,0,0c-0.1-0.2-0.3-0.4-0.4-0.6c-0.4-0.5-0.9-0.9-1.5-1.4
			c-0.6-0.4-1.1-0.8-1.7-1.1c-0.4-0.2-0.9-0.4-1.3-0.6C187.4,83.5,187.1,83.4,186.9,83.3z"/>
		<path d="M196.1,68.6c-0.1,0-0.3-0.1-0.4-0.1s-0.2-0.1-0.2-0.2c-0.1-0.3-0.2-0.6-0.1-1c0-0.2,0.1-0.3,0.2-0.5
			c0.1,0.1,0.3,0.2,0.4,0.3C195.7,67.7,195.9,68.1,196.1,68.6z"/>
		<path class="st8" d="M196.5,69.3c0.3,0.1,0.5,0.2,0.7,0.2c0.8,0.3,1.6,0.7,2.3,1.2c0.7,0.4,1.3,1,1.9,1.5c0.3,0.3,0.6,0.6,0.8,0.9
			c0,0,0,0.1,0.1,0.1c-0.1,0-0.1,0-0.2,0c-0.4-0.1-0.8-0.2-1.1-0.4c-0.9-0.4-1.6-0.9-2.4-1.4c-0.5-0.4-1-0.8-1.5-1.3
			c-0.2-0.2-0.4-0.4-0.6-0.7C196.5,69.4,196.5,69.4,196.5,69.3z"/>
		<path class="st8" d="M190.1,78.7c0.3,0.1,0.7,0.2,1,0.4c1,0.4,1.9,0.9,2.7,1.6c0.5,0.4,1.1,0.8,1.5,1.3c0.2,0.2,0.4,0.4,0.5,0.7
			c-0.1,0-0.2,0-0.2,0c-0.5-0.1-1-0.3-1.4-0.6c-0.5-0.3-1-0.6-1.4-0.9c-0.5-0.3-0.9-0.7-1.4-1.1c-0.4-0.4-0.8-0.8-1.2-1.3
			C190.1,78.8,190.1,78.7,190.1,78.7C190.1,78.7,190.1,78.7,190.1,78.7z"/>
		<path class="st8" d="M188.5,81c0.2,0.1,0.4,0.1,0.6,0.2c1.1,0.4,2.1,1,3,1.7c0.6,0.4,1.1,0.9,1.6,1.4c0.2,0.2,0.3,0.4,0.5,0.7
			c-0.2,0-0.4,0-0.6-0.1c-0.8-0.3-1.5-0.7-2.2-1.1c-0.8-0.5-1.6-1.1-2.3-1.9c-0.2-0.2-0.4-0.5-0.7-0.8C188.5,81.1,188.5,81,188.5,81
			C188.5,81,188.5,81,188.5,81z"/>
		<path class="st8" d="M193.3,74c0.2,0.1,0.4,0.1,0.5,0.2c0.8,0.3,1.5,0.6,2.2,1.1c0.7,0.4,1.3,0.9,1.9,1.4c0.4,0.3,0.7,0.7,1,1.1
			c0.1,0.1,0.1,0.1,0.1,0.2c0,0,0,0,0,0c-0.1,0-0.3-0.1-0.4-0.1c-0.4-0.1-0.9-0.3-1.3-0.5c-0.7-0.4-1.3-0.8-1.9-1.2
			c-0.6-0.5-1.2-1-1.7-1.6C193.6,74.4,193.4,74.2,193.3,74C193.3,74,193.3,74,193.3,74z"/>
		<path class="st8" d="M200.6,75.7c-0.2-0.1-0.4-0.1-0.5-0.1c-0.5-0.2-1-0.4-1.5-0.7c-0.5-0.3-1-0.6-1.5-1c-0.4-0.3-0.8-0.7-1.2-1
			c-0.4-0.3-0.7-0.7-1-1.1c0,0-0.1-0.1-0.1-0.1c0.2,0.1,0.4,0.1,0.6,0.2c1.1,0.4,2,0.9,2.9,1.6c0.7,0.5,1.3,1.1,1.9,1.7
			C200.4,75.3,200.5,75.5,200.6,75.7C200.6,75.6,200.6,75.7,200.6,75.7z"/>
		<path class="st8" d="M197.4,80.3c-0.1,0-0.3-0.1-0.4-0.1c-0.4-0.1-0.7-0.3-1.1-0.4c-0.8-0.4-1.5-0.8-2.2-1.4
			c-0.4-0.3-0.8-0.7-1.2-1c-0.3-0.3-0.5-0.6-0.8-0.9c0,0,0-0.1-0.1-0.1c0.4,0.1,0.9,0.3,1.3,0.5c0.7,0.3,1.4,0.7,2.1,1.2
			c0.7,0.5,1.3,1,1.9,1.7C197.1,79.8,197.3,80.1,197.4,80.3C197.4,80.3,197.4,80.3,197.4,80.3z"/>
		<path class="st8" d="M186.9,83.3c0.3,0.1,0.6,0.2,0.8,0.3c0.4,0.2,0.9,0.4,1.3,0.6c0.6,0.3,1.2,0.7,1.7,1.1c0.5,0.4,1,0.9,1.5,1.4
			c0.1,0.2,0.3,0.4,0.4,0.6c0,0,0,0,0,0c-0.2-0.1-0.4-0.1-0.5-0.1c-0.5-0.2-1-0.4-1.4-0.7c-0.6-0.3-1.2-0.7-1.8-1.2
			c-0.4-0.3-0.7-0.6-1.1-0.9C187.5,84.1,187.2,83.7,186.9,83.3C186.9,83.3,186.9,83.3,186.9,83.3C186.9,83.3,186.9,83.3,186.9,83.3z
			"/>
	</g>
	<g>
		<path class="st8" d="M220.4,28c-14,20.4-28.1,40.7-42.1,61.1c-4-2.7-7.9-5.5-11.9-8.2c14-20.4,28.1-40.7,42.1-61.1
			C212.4,22.5,216.4,25.3,220.4,28z M200.8,36.7c0.1-0.5,0.2-0.9,0.3-1.5c0.4-1.2,1-2.2,2-3c0.6-0.5,1.1-0.8,1.6-1
			c0.1,0,0.1,0,0.1,0.1c0,1,0.3,1.8,0.6,2.5c0.4,0.8,0.9,1.4,1.5,1.8c0.5,0.4,1,0.6,1.7,0.8c0.5,0.1,1.1,0.2,1.8,0.1
			c0.3-0.1,0.6-0.1,1.1-0.5c0.5-0.4,1-1.2,1.2-1.8c0.1-0.6,0-1,0-1.4c-0.3-1-0.8-1.7-1.4-2.2c-0.8-0.7-1.8-1.1-2.9-1.2
			c-0.8,0-1.7,0.1-2.7,0.5c-0.6,0.2-1.2,0.6-1.9,1.1c-0.8,0.7-1.6,1.5-2.4,2.7c-0.9,1.4-1.1,2.4-1.3,3.4c0,0,0,0.1,0.1,0.1
			C200.2,37,200.5,36.9,200.8,36.7z M180.7,65.8c0.1-0.5,0.2-1.1,0.4-1.6c0.1-0.5,0.4-1.1,0.9-1.7c0.3-0.4,0.6-0.8,1-1.1
			c0.6-0.5,1.2-0.8,1.7-1.1c0.1,0,0.1,0,0.1,0.1c0.1,0.6,0.2,1.2,0.3,1.7c0.3,1.1,0.9,1.8,1.6,2.4c0.4,0.3,0.9,0.6,1.4,0.8
			c0.5,0.2,1,0.3,1.7,0.3c0.4,0,0.8-0.1,1.4-0.4c0.6-0.3,1.3-1.2,1.4-2c0.1-0.3,0.1-0.6,0.1-0.8c0-0.8-0.3-1.2-0.6-1.7
			c-0.5-0.8-1.1-1.4-1.9-1.7c-0.5-0.2-1.1-0.4-1.7-0.5c-0.7-0.1-1.5-0.1-2.4,0.2c-0.5,0.2-1,0.4-1.6,0.7c-0.7,0.4-1.4,0.9-2.1,1.8
			c-0.6,0.7-1.2,1.5-1.6,2.3c-0.5,1-0.8,1.8-0.9,2.6c0,0.1,0,0.1,0.1,0.1C180.2,66,180.5,65.9,180.7,65.8z M175.8,73
			c0-0.1,0-0.1,0-0.2c0.1-0.5,0.2-0.9,0.3-1.4c0.1-0.5,0.4-1.1,0.9-1.7c0.4-0.5,0.8-0.9,1.2-1.2c0.5-0.4,0.9-0.6,1.4-0.9
			c0.1-0.1,0.2,0,0.2,0.1c0,0.9,0.2,1.6,0.5,2.2c0.4,0.9,0.9,1.6,1.6,2.1c0.5,0.3,1,0.6,1.7,0.7c0.5,0.1,1.1,0.2,1.8,0.1
			c0.3-0.1,0.6-0.1,1-0.4c0.5-0.3,1.1-1.2,1.3-1.8c0.1-0.2,0.1-0.5,0.1-0.7c0-0.8-0.2-1.3-0.5-1.8c-0.4-0.7-0.8-1.2-1.4-1.6
			c-0.5-0.3-1.1-0.5-1.7-0.7c-0.6-0.2-1.3-0.2-2.1-0.1c-0.6,0.1-1.2,0.3-1.8,0.6c-0.6,0.3-1.3,0.7-2.1,1.4c-1,0.9-1.8,2-2.4,3.3
			c-0.4,0.9-0.6,1.7-0.8,2.3c0,0.1,0,0.1,0.1,0.1C175.2,73.3,175.5,73.2,175.8,73z M190.8,51.2c0-0.1,0-0.1,0-0.2
			c0.1-0.5,0.1-0.9,0.4-1.5c0.2-0.5,0.4-1,0.8-1.6c0.3-0.5,0.7-0.8,1-1.1c0.6-0.5,1.2-0.8,1.7-1.1c0,0,0.1,0,0.1,0.1
			c0,0.8,0.2,1.5,0.4,2.1c0.3,0.7,0.7,1.3,1.2,1.8c0.8,0.7,1.7,1.2,2.8,1.3c0.5,0.1,1,0.1,1.7-0.2c0.2-0.1,0.4-0.2,0.6-0.4
			c0.5-0.4,1-1.2,1.1-1.7c0.1-0.3,0.1-0.6,0.1-0.8c-0.1-0.4-0.1-0.8-0.3-1.1c-0.4-1-1-1.6-1.7-2.1c-0.6-0.4-1.4-0.8-2.3-0.8
			c-0.9-0.1-1.9,0-3.1,0.6c-0.7,0.3-1.4,0.7-2.3,1.5c-0.9,0.8-1.7,1.9-2.3,3.1c-0.5,1-0.7,1.8-0.8,2.5c0,0.1,0,0.1,0,0.1
			C190.2,51.5,190.5,51.4,190.8,51.2z M195.8,44c0-0.2,0-0.3,0.1-0.5c0.1-0.5,0.2-1.1,0.6-1.9c0.4-0.8,0.9-1.5,1.6-2.1
			c0.6-0.5,1.2-0.9,1.6-1c0.1,0,0.1,0,0.1,0.1c0.1,1.2,0.4,2.1,0.8,2.9c0.4,0.7,0.9,1.2,1.6,1.6c0.7,0.4,1.5,0.7,2.5,0.7
			c0.4,0,0.9-0.1,1.6-0.5c0.5-0.3,1.1-1.1,1.2-1.7c0.1-0.3,0.1-0.5,0.1-0.7c0-0.9-0.3-1.5-0.7-2c-0.3-0.5-0.8-1-1.2-1.3
			c-0.8-0.5-1.7-0.8-2.7-0.9c-0.7,0-1.5,0.1-2.5,0.5c-0.7,0.3-1.5,0.7-2.4,1.6c-0.7,0.6-1.3,1.4-1.9,2.4c-0.8,1.3-1.1,2.3-1.3,3.3
			c0,0,0,0.1,0.1,0.1C195.2,44.3,195.5,44.1,195.8,44z M185.8,58.5c0-0.1,0-0.1,0-0.2c0.1-0.5,0.2-1,0.4-1.6c0.3-0.7,0.6-1.4,1.2-2
			c0.2-0.3,0.5-0.5,0.8-0.7c0.5-0.4,1-0.7,1.4-0.9c0.1,0,0.1,0,0.1,0.1c0,0.2,0,0.6,0.1,0.8c0.1,0.7,0.3,1.4,0.6,1.8
			c0.3,0.4,0.6,0.8,0.9,1.2c0.4,0.5,1,0.8,1.7,1c0.7,0.2,1.5,0.4,2.5,0.1c0.2-0.1,0.5-0.2,0.8-0.4c0.4-0.3,1-1.1,1.1-1.6
			c0.1-0.3,0.1-0.6,0.1-0.9c0-0.4-0.1-0.8-0.2-1.1c-0.4-0.9-0.9-1.6-1.6-2.1c-0.7-0.5-1.5-0.8-2.4-0.9c-0.8-0.1-1.6,0-2.6,0.4
			c-0.8,0.3-1.6,0.7-2.6,1.6c-0.9,0.8-1.7,1.8-2.3,3c-0.6,1.1-0.9,2-1,2.8c0,0,0,0.1,0.1,0.1C185.2,58.8,185.5,58.6,185.8,58.5z
			 M171.9,77c0.3-0.4,0.6-0.8,1-1.1c0.6-0.6,1.2-0.9,1.7-1.1c0.1,0,0.1,0,0.1,0.1c0,0.3,0.1,0.6,0.1,0.9c0.2,1.1,0.6,1.9,1.2,2.6
			c0.5,0.6,1.2,1.1,1.9,1.3c0.7,0.2,1.4,0.4,2.4,0.2c0.3-0.1,0.6-0.2,1-0.4c0.3-0.2,0.7-0.7,0.9-1.1c0.2-0.4,0.3-0.7,0.3-0.9
			c0.1-0.6,0-1.1-0.2-1.5c-0.3-0.8-0.8-1.4-1.3-1.9c-0.9-0.8-2-1.2-3.5-1.2c-0.9,0-1.8,0.2-3,0.9c-0.7,0.4-1.4,0.9-2.2,1.8
			c-0.3,0.3-0.6,0.8-0.9,1.2C171.7,76.8,171.8,76.9,171.9,77z M205.9,29.4c0.1-0.9,0.2-1.8,1-3.2c-0.1-0.1-0.3-0.2-0.4-0.3
			c-0.3,0.5-0.6,0.9-0.8,1.4c-0.4,0.8-0.6,1.5-0.7,2.2c-0.1,0.3,0,0.3,0.2,0.2C205.5,29.6,205.7,29.5,205.9,29.4z"/>
		<path d="M200.8,36.7c-0.3,0.1-0.5,0.3-0.8,0.4c0,0-0.1,0-0.1-0.1c0.2-0.9,0.5-2,1.3-3.4c0.8-1.2,1.5-2.1,2.4-2.7
			c0.7-0.6,1.3-0.9,1.9-1.1c1-0.4,1.9-0.5,2.7-0.5c1.2,0.1,2.2,0.5,2.9,1.2c0.6,0.6,1.2,1.2,1.4,2.2c0.1,0.4,0.2,0.8,0,1.4
			c-0.1,0.6-0.6,1.4-1.2,1.8c-0.4,0.3-0.8,0.4-1.1,0.5c-0.7,0.2-1.3,0.1-1.8-0.1c-0.6-0.1-1.2-0.4-1.7-0.8c-0.6-0.4-1.1-1.1-1.5-1.8
			c-0.3-0.7-0.6-1.4-0.6-2.5c0-0.1,0-0.1-0.1-0.1c-0.5,0.2-1,0.5-1.6,1c-1,0.8-1.6,1.8-2,3C200.9,35.8,200.9,36.3,200.8,36.7z
			 M205.8,30.9c0,0.1,0,0.2,0,0.2c0.1,0.4,0.2,0.7,0.3,1.1c0.3,0.8,0.7,1.3,1.2,1.8c0.7,0.6,1.5,1.1,2.6,1.2
			c0.4,0.1,0.9,0.1,1.5-0.1c0.1,0,0.2-0.1,0.3-0.1c0-0.1,0-0.2,0-0.2c0-0.6-0.2-1.1-0.4-1.5c-0.4-0.8-1-1.4-1.7-1.8
			c-0.8-0.4-1.6-0.7-2.7-0.6C206.5,30.8,206.2,30.8,205.8,30.9z"/>
		<path d="M180.7,65.8c-0.2,0.1-0.5,0.3-0.8,0.4c0,0-0.1,0-0.1-0.1c0.1-0.8,0.4-1.6,0.9-2.6c0.4-0.8,1-1.6,1.6-2.3
			c0.8-0.9,1.5-1.4,2.1-1.8c0.6-0.3,1.1-0.6,1.6-0.7c0.9-0.3,1.7-0.4,2.4-0.2c0.6,0.1,1.2,0.3,1.7,0.5c0.8,0.4,1.4,0.9,1.9,1.7
			c0.3,0.5,0.6,0.9,0.6,1.7c0,0.2,0,0.5-0.1,0.8c-0.1,0.7-0.8,1.6-1.4,2c-0.6,0.3-1,0.4-1.4,0.4c-0.6,0-1.2,0-1.7-0.3
			c-0.5-0.2-1-0.5-1.4-0.8c-0.7-0.5-1.3-1.3-1.6-2.4c-0.1-0.5-0.2-1.1-0.3-1.7c0-0.1,0-0.1-0.1-0.1c-0.5,0.2-1.1,0.5-1.7,1.1
			c-0.3,0.3-0.7,0.6-1,1.1c-0.4,0.6-0.7,1.2-0.9,1.7C181,64.7,180.9,65.2,180.7,65.8z M185.9,59.8C185.9,59.9,185.9,59.9,185.9,59.8
			c-0.1,0.2-0.1,0.2-0.1,0.2c0.2,0.7,0.4,1.4,0.7,1.9c0.4,0.5,0.7,1,1.2,1.3c0.5,0.3,1,0.5,1.6,0.7c0.5,0.2,1.1,0.2,1.9,0
			c0.1,0,0.2-0.1,0.4-0.1c0-0.6-0.1-0.9-0.2-1.2c-0.3-0.8-0.7-1.3-1.2-1.8c-0.8-0.7-1.7-1.2-3-1.2C186.8,59.8,186.3,59.8,185.9,59.8
			z"/>
		<path d="M175.8,73c-0.3,0.2-0.6,0.3-0.9,0.4c0,0-0.1,0-0.1-0.1c0.1-0.7,0.3-1.4,0.8-2.3c0.6-1.3,1.5-2.4,2.4-3.3
			c0.8-0.7,1.4-1.1,2.1-1.4c0.7-0.3,1.3-0.5,1.8-0.6c0.8-0.1,1.5-0.1,2.1,0.1c0.6,0.2,1.2,0.4,1.7,0.7c0.6,0.3,1,0.9,1.4,1.6
			c0.3,0.5,0.5,1,0.5,1.8c0,0.2,0,0.4-0.1,0.7c-0.2,0.6-0.8,1.4-1.3,1.8c-0.4,0.3-0.7,0.3-1,0.4c-0.7,0.2-1.2,0-1.8-0.1
			c-0.6-0.1-1.2-0.4-1.7-0.7c-0.7-0.5-1.2-1.2-1.6-2.1c-0.3-0.6-0.4-1.3-0.5-2.2c0-0.1-0.1-0.1-0.2-0.1c-0.4,0.2-0.9,0.5-1.4,0.9
			c-0.4,0.3-0.8,0.7-1.2,1.2c-0.4,0.6-0.7,1.2-0.9,1.7c-0.1,0.5-0.2,1-0.3,1.4C175.8,72.9,175.8,72.9,175.8,73z M180.9,67.1
			C180.9,67.2,180.9,67.2,180.9,67.1c0,0.1,0,0.2,0,0.2c0.1,0.4,0.2,0.8,0.4,1.2c0.4,1.1,1.2,1.8,2,2.3c0.7,0.4,1.6,0.6,2.6,0.6
			c0.2,0,0.5-0.1,0.8-0.3c0-0.4-0.1-0.8-0.2-1.1c-0.3-0.8-0.8-1.4-1.3-1.8c-0.9-0.8-2-1.2-3.4-1.1C181.4,67,181.2,67.1,180.9,67.1z"
			/>
		<path d="M190.8,51.2c-0.3,0.2-0.6,0.3-0.9,0.4c0,0,0,0,0-0.1c0.1-0.7,0.3-1.5,0.8-2.5c0.6-1.2,1.4-2.3,2.3-3.1
			c0.9-0.8,1.6-1.2,2.3-1.5c1.2-0.5,2.2-0.6,3.1-0.6c0.9,0.1,1.6,0.4,2.3,0.8c0.7,0.5,1.3,1.1,1.7,2.1c0.1,0.3,0.2,0.7,0.3,1.1
			c0,0.2,0,0.5-0.1,0.8c-0.1,0.5-0.6,1.2-1.1,1.7c-0.2,0.2-0.4,0.3-0.6,0.4c-0.7,0.3-1.2,0.3-1.7,0.2c-1.1-0.1-2.1-0.6-2.8-1.3
			c-0.5-0.4-0.9-1.1-1.2-1.8c-0.2-0.6-0.4-1.3-0.4-2.1c0,0,0-0.1-0.1-0.1c-0.5,0.2-1.1,0.5-1.7,1.1c-0.3,0.3-0.7,0.7-1,1.1
			c-0.4,0.6-0.6,1.1-0.8,1.6c-0.2,0.6-0.3,1.1-0.4,1.5C190.8,51.1,190.8,51.2,190.8,51.2z M195.9,45.4
			C195.9,45.4,195.9,45.4,195.9,45.4c0,0.4,0.1,0.7,0.2,1c0.3,0.9,0.8,1.6,1.3,2.1c0.6,0.5,1.2,0.9,2,1.1c0.5,0.1,1,0.2,1.6,0.1
			c0.2,0,0.4-0.1,0.6-0.2c0,0,0-0.1,0.1-0.1c0-0.1,0-0.2,0-0.4c-0.1-0.7-0.3-1.2-0.6-1.7c-0.5-0.7-1.1-1.2-1.8-1.6
			c-0.7-0.3-1.6-0.6-2.6-0.5C196.4,45.3,196.1,45.3,195.9,45.4z"/>
		<path d="M195.8,44c-0.3,0.2-0.6,0.3-0.9,0.4c0,0-0.1,0-0.1-0.1c0.2-0.9,0.4-1.9,1.3-3.3c0.6-1,1.2-1.7,1.9-2.4
			c0.9-0.8,1.7-1.3,2.4-1.6c0.9-0.4,1.8-0.5,2.5-0.5c1.1,0,2,0.3,2.7,0.9c0.5,0.3,0.9,0.8,1.2,1.3c0.3,0.5,0.7,1.1,0.7,2
			c0,0.2,0,0.4-0.1,0.7c-0.2,0.6-0.8,1.4-1.2,1.7c-0.7,0.4-1.1,0.4-1.6,0.5c-1,0-1.8-0.3-2.5-0.7c-0.6-0.4-1.2-0.9-1.6-1.6
			c-0.5-0.7-0.8-1.7-0.8-2.9c0-0.1-0.1-0.1-0.1-0.1c-0.5,0.2-1,0.5-1.6,1c-0.7,0.6-1.1,1.2-1.6,2.1c-0.4,0.8-0.5,1.3-0.6,1.9
			C195.8,43.7,195.8,43.8,195.8,44z M206.6,42.2c0,0,0-0.1,0.1-0.1c0-0.3,0-0.6-0.1-0.8c-0.3-1-0.8-1.7-1.5-2.3
			c-0.9-0.7-1.9-1.1-3.3-1c-0.3,0-0.6,0.1-0.8,0.1c0,0.1,0,0.2,0,0.3c0.1,0.6,0.3,1.2,0.6,1.6c0.3,0.4,0.6,0.9,1,1.2
			c0.4,0.4,0.9,0.7,1.5,0.9c0.6,0.2,1.1,0.3,1.9,0.2C206.1,42.3,206.3,42.2,206.6,42.2z"/>
		<path d="M185.8,58.5c-0.3,0.1-0.6,0.3-0.9,0.4c0,0-0.1,0-0.1-0.1c0.1-0.8,0.4-1.7,1-2.8c0.7-1.2,1.5-2.2,2.3-3
			c1-0.9,1.8-1.3,2.6-1.6c1-0.4,1.9-0.4,2.6-0.4c0.9,0.1,1.8,0.4,2.4,0.9c0.7,0.5,1.2,1.2,1.6,2.1c0.1,0.3,0.2,0.7,0.2,1.1
			c0,0.2,0,0.5-0.1,0.9c-0.1,0.5-0.7,1.3-1.1,1.6c-0.3,0.2-0.6,0.3-0.8,0.4c-1.1,0.3-1.8,0.1-2.5-0.1c-0.6-0.2-1.2-0.5-1.7-1
			c-0.3-0.4-0.6-0.8-0.9-1.2c-0.3-0.5-0.5-1.1-0.6-1.8c0-0.2,0-0.5-0.1-0.8c0-0.1-0.1-0.1-0.1-0.1c-0.4,0.2-0.9,0.4-1.4,0.9
			c-0.2,0.2-0.5,0.4-0.8,0.7c-0.6,0.6-1,1.3-1.2,2c-0.2,0.6-0.4,1.2-0.4,1.6C185.8,58.4,185.8,58.4,185.8,58.5z M196.6,56.7
			c0,0,0.1-0.1,0.1-0.1c-0.1-0.4-0.1-0.8-0.2-1.1c-0.4-0.9-0.9-1.6-1.6-2.1c-0.6-0.4-1.4-0.7-2.3-0.8c-0.5-0.1-1.1,0-1.7,0.1
			c0,0.1,0,0.1,0,0.2c0.1,0.5,0.2,1,0.5,1.4c0.3,0.5,0.6,1,0.9,1.4c0.6,0.7,1.4,1.1,2.4,1.2c0.4,0.1,0.9,0.1,1.3,0
			C196.1,56.8,196.4,56.7,196.6,56.7z"/>
		<path d="M171.9,77c-0.1-0.1-0.3-0.2-0.4-0.3c0.3-0.4,0.6-0.8,0.9-1.2c0.8-0.9,1.5-1.4,2.2-1.8c1.2-0.7,2.1-0.8,3-0.9
			c1.4,0,2.6,0.4,3.5,1.2c0.5,0.5,1,1.1,1.3,1.9c0.1,0.4,0.3,0.8,0.2,1.5c0,0.2-0.1,0.5-0.3,0.9c-0.2,0.5-0.6,0.9-0.9,1.1
			c-0.4,0.3-0.7,0.4-1,0.4c-0.9,0.2-1.7,0-2.4-0.2c-0.8-0.3-1.4-0.7-1.9-1.3c-0.6-0.7-1-1.5-1.2-2.6c-0.1-0.3-0.1-0.6-0.1-0.9
			c0-0.1-0.1-0.1-0.1-0.1c-0.5,0.2-1.1,0.6-1.7,1.1C172.6,76.2,172.3,76.6,171.9,77z M175.9,74.4C175.9,74.4,175.9,74.4,175.9,74.4
			c-0.1,0.1-0.1,0.1-0.1,0.1c0.2,0.5,0.3,1.1,0.5,1.6c0.2,0.5,0.5,0.9,0.9,1.2c0.5,0.5,1.1,0.9,1.8,1.1c0.5,0.2,1.1,0.3,1.8,0.2
			c0.2,0,0.5-0.1,0.7-0.2c0,0,0.1-0.1,0.1-0.1c-0.1-0.3-0.1-0.7-0.1-0.9c-0.3-0.8-0.7-1.4-1.1-1.8c-0.5-0.5-1.1-0.9-1.8-1.1
			c-0.5-0.1-1-0.2-1.6-0.2C176.7,74.3,176.3,74.3,175.9,74.4z"/>
		<path d="M205.9,29.4c-0.2,0.1-0.4,0.2-0.7,0.3c-0.2,0.1-0.3,0.1-0.2-0.2c0.1-0.7,0.3-1.4,0.7-2.2c0.2-0.4,0.5-0.9,0.8-1.4
			c0.1,0.1,0.3,0.2,0.4,0.3C206.1,27.6,206.1,28.5,205.9,29.4z"/>
		<path class="st8" d="M205.8,30.9c0.3,0,0.7-0.1,1-0.1c1-0.1,1.9,0.2,2.7,0.6c0.7,0.4,1.3,1,1.7,1.8c0.2,0.4,0.4,0.8,0.4,1.5
			c0,0.1,0,0.1,0,0.2c-0.1,0.1-0.2,0.1-0.3,0.1c-0.6,0.2-1,0.2-1.5,0.1c-1-0.1-1.9-0.6-2.6-1.2c-0.5-0.4-0.9-1-1.2-1.8
			c-0.1-0.3-0.2-0.7-0.3-1.1C205.9,31,205.9,31,205.8,30.9z"/>
		<path class="st8" d="M185.9,59.8c0.4,0,0.9-0.1,1.3-0.1c1.2,0,2.2,0.5,3,1.2c0.5,0.4,0.9,1,1.2,1.8c0.1,0.3,0.2,0.7,0.2,1.2
			c-0.1,0.1-0.2,0.1-0.4,0.1c-0.7,0.2-1.3,0.2-1.9,0c-0.5-0.2-1.1-0.4-1.6-0.7c-0.5-0.3-0.9-0.8-1.2-1.3c-0.3-0.5-0.6-1.2-0.7-1.9
			C185.8,60,185.8,60,185.9,59.8C185.9,59.9,185.9,59.9,185.9,59.8z"/>
		<path class="st8" d="M180.9,67.1c0.3,0,0.6-0.1,0.8-0.1c1.4-0.1,2.5,0.3,3.4,1.1c0.6,0.5,1,1.1,1.3,1.8c0.1,0.3,0.1,0.7,0.2,1.1
			c-0.3,0.2-0.6,0.3-0.8,0.3c-1,0.1-1.9-0.2-2.6-0.6c-0.9-0.5-1.6-1.2-2-2.3c-0.1-0.4-0.2-0.8-0.4-1.2
			C180.8,67.3,180.8,67.3,180.9,67.1C180.8,67.2,180.9,67.2,180.9,67.1z"/>
		<path class="st8" d="M195.9,45.4c0.2,0,0.5-0.1,0.7-0.1c1-0.1,1.8,0.1,2.6,0.5c0.7,0.3,1.3,0.9,1.8,1.6c0.3,0.4,0.6,0.9,0.6,1.7
			c0,0.1,0,0.2,0,0.4c0,0,0,0.1-0.1,0.1c-0.2,0.1-0.4,0.1-0.6,0.2c-0.6,0.1-1.1,0.1-1.6-0.1c-0.8-0.2-1.5-0.6-2-1.1
			c-0.6-0.5-1.1-1.2-1.3-2.1c-0.1-0.3-0.2-0.6-0.2-0.9C195.8,45.4,195.9,45.4,195.9,45.4z"/>
		<path class="st8" d="M206.6,42.2c-0.2,0.1-0.5,0.1-0.8,0.2c-0.7,0.1-1.3-0.1-1.9-0.2c-0.6-0.2-1.1-0.5-1.5-0.9
			c-0.4-0.4-0.7-0.8-1-1.2c-0.3-0.4-0.4-1-0.6-1.6c0-0.1,0-0.1,0-0.3c0.3,0,0.6-0.1,0.8-0.1c1.4-0.1,2.5,0.3,3.3,1
			c0.7,0.5,1.2,1.2,1.5,2.3c0.1,0.2,0.1,0.5,0.1,0.8C206.6,42.1,206.6,42.2,206.6,42.2z"/>
		<path class="st8" d="M196.6,56.7c-0.2,0.1-0.5,0.2-0.6,0.2c-0.5,0-0.9,0-1.3,0c-1-0.2-1.7-0.6-2.4-1.2c-0.4-0.4-0.7-0.8-0.9-1.4
			c-0.2-0.4-0.3-0.9-0.5-1.4c0,0,0-0.1,0-0.2c0.6-0.2,1.2-0.2,1.7-0.1c0.9,0.1,1.6,0.4,2.3,0.8c0.7,0.5,1.2,1.2,1.6,2.1
			c0.1,0.3,0.1,0.7,0.2,1.1C196.6,56.6,196.6,56.6,196.6,56.7z"/>
		<path class="st8" d="M175.9,74.4c0.4,0,0.8-0.1,1.1-0.1c0.5,0,1.1,0.1,1.6,0.2c0.7,0.2,1.3,0.6,1.8,1.1c0.5,0.5,0.9,1.1,1.1,1.8
			c0.1,0.3,0.1,0.6,0.1,0.9c0,0-0.1,0.1-0.1,0.1c-0.2,0.1-0.5,0.1-0.7,0.2c-0.7,0.1-1.2,0-1.8-0.2c-0.7-0.2-1.3-0.6-1.8-1.1
			c-0.3-0.4-0.6-0.8-0.9-1.2c-0.2-0.5-0.4-1.1-0.5-1.6C175.8,74.5,175.8,74.5,175.9,74.4C175.8,74.4,175.9,74.4,175.9,74.4z"/>
	</g>
	<g>
		<path class="st8" d="M202.5,181c-7.7-2.1-15.3-4.3-23-6.4c1.3-4.6,2.6-9.3,3.9-13.9c7.7,2.1,15.3,4.3,23,6.4
			C205.1,171.7,203.8,176.3,202.5,181z M199.8,168.6c0.2-0.1,0.4-0.3,0.6-0.4c0.5-0.3,0.8-0.2,1.1,0.3c0.2,0.3,0.3,0.6,0.3,0.9
			c0,0,0,0.1,0,0.1c-0.4,0.5-0.7,1.1-1,1.7c-0.3,0.7-0.6,1.4-0.8,2.1c-0.2,0.6-0.3,1.2-0.4,1.8c-0.1,0.5-0.1,1-0.1,1.5
			c0,0.2,0,0.5,0.1,0.7c0.1,0.2,0.4,0.3,0.7,0.1c0.2-0.2,0.4-0.4,0.6-0.7c0.4-0.7,0.7-1.5,1-2.3c0.3-1,0.5-2,0.6-3
			c0.1-0.7,0.1-1.4-0.1-2c-0.1-0.4-0.2-0.7-0.4-1.1c-0.2-0.4-0.5-0.6-1-0.7c-0.5-0.1-0.9,0.2-1.3,0.5c0,0,0,0.1,0,0.1
			C199.8,168.3,199.8,168.5,199.8,168.6z M188.9,165.6c0.2-0.1,0.4-0.3,0.6-0.4c0.2-0.1,0.4-0.2,0.7-0.1c0.2,0.1,0.3,0.2,0.4,0.3
			c0.2,0.3,0.3,0.6,0.4,0.9c0,0,0,0.1,0,0.1c-0.2,0.4-0.5,0.7-0.7,1.1c-0.5,0.8-0.8,1.6-1,2.4c-0.1,0.5-0.3,1.1-0.4,1.6
			c-0.1,0.5-0.2,1-0.2,1.5c0,0.3,0,0.7,0.1,1c0.1,0.3,0.4,0.5,0.7,0.3c0.1-0.1,0.2-0.2,0.3-0.3c0.3-0.4,0.5-0.9,0.7-1.3
			c0.4-0.8,0.6-1.6,0.8-2.4c0.1-0.5,0.2-1.1,0.3-1.6c0.1-0.6,0.1-1.3,0-1.9c0-0.3-0.1-0.7-0.2-1c-0.1-0.4-0.3-0.7-0.6-1
			c-0.3-0.2-0.6-0.3-0.9-0.2c-0.4,0-0.7,0.2-1,0.5c0,0,0,0.1,0,0.1C188.8,165.2,188.9,165.4,188.9,165.6z M186.2,164.8
			C186.2,164.8,186.2,164.8,186.2,164.8c0.3-0.2,0.4-0.3,0.6-0.5c0.2-0.1,0.4-0.2,0.7-0.1c0.2,0.1,0.3,0.2,0.4,0.4
			c0.1,0.2,0.2,0.5,0.3,0.8c0,0.1,0,0.1,0,0.2c-0.4,0.4-0.6,0.9-0.9,1.4c-0.4,0.8-0.7,1.6-0.9,2.4c-0.2,0.6-0.3,1.1-0.4,1.7
			c-0.1,0.5-0.1,1-0.1,1.5c0,0.2,0,0.4,0.1,0.6c0.1,0.3,0.4,0.4,0.7,0.2c0.1-0.1,0.2-0.1,0.3-0.2c0.3-0.4,0.6-0.8,0.8-1.3
			c0.3-0.6,0.5-1.3,0.7-1.9c0.1-0.6,0.3-1.2,0.4-1.8c0.1-0.6,0.1-1.2,0.1-1.8c0-0.4-0.1-0.9-0.2-1.3c-0.1-0.4-0.2-0.8-0.5-1.1
			c-0.3-0.4-0.7-0.6-1.2-0.5c-0.4,0.1-0.6,0.2-0.9,0.5c0,0,0,0.1,0,0.1C186.1,164.5,186.1,164.7,186.2,164.8z M194.4,167.1
			C194.4,167.1,194.4,167.1,194.4,167.1c0.3-0.2,0.4-0.4,0.7-0.5c0.2-0.1,0.4-0.1,0.6-0.1c0.2,0.1,0.3,0.2,0.4,0.3
			c0.2,0.3,0.3,0.6,0.4,0.9c0,0,0,0.1,0,0.1c-0.3,0.4-0.6,0.9-0.9,1.4c-0.3,0.6-0.6,1.2-0.8,1.8c-0.3,1-0.6,1.9-0.6,3
			c0,0.4-0.1,0.9,0,1.3c0,0.1,0.1,0.2,0.1,0.4c0.1,0.2,0.4,0.2,0.6,0.1c0.1-0.1,0.2-0.2,0.3-0.3c0.2-0.2,0.3-0.5,0.4-0.7
			c0.4-0.8,0.7-1.6,0.9-2.4c0.2-0.8,0.4-1.5,0.4-2.3c0.1-0.8,0.1-1.6-0.1-2.3c-0.1-0.4-0.2-0.8-0.5-1.2c-0.3-0.4-0.7-0.5-1.2-0.5
			c-0.4,0.1-0.7,0.2-1,0.5c0,0,0,0.1,0,0.1C194.3,166.8,194.3,166.9,194.4,167.1z M197.1,167.9c0.1-0.1,0.1-0.1,0.2-0.2
			c0.2-0.2,0.4-0.4,0.7-0.4c0.3-0.1,0.6,0.1,0.8,0.3c0.2,0.3,0.3,0.6,0.4,0.9c0,0,0,0.1,0,0.1c-0.5,0.6-0.9,1.3-1.2,2.1
			c-0.3,0.7-0.5,1.4-0.7,2.1c-0.2,0.8-0.4,1.6-0.4,2.4c0,0.4,0,0.7,0.1,1.1c0.1,0.3,0.4,0.4,0.6,0.2c0.1-0.1,0.2-0.1,0.3-0.2
			c0.4-0.4,0.6-1,0.9-1.5c0.2-0.6,0.4-1.1,0.6-1.7c0.2-0.9,0.4-1.8,0.5-2.7c0-0.6,0-1.2-0.1-1.9c-0.1-0.5-0.2-0.9-0.5-1.3
			c-0.2-0.3-0.5-0.5-0.9-0.5c-0.5-0.1-0.9,0.2-1.3,0.5c0,0,0,0.1,0,0.1C197,167.5,197.1,167.7,197.1,167.9z M191.7,166.4
			C191.7,166.3,191.7,166.3,191.7,166.4c0.3-0.2,0.5-0.4,0.7-0.5c0.3-0.1,0.5-0.1,0.8,0.1c0.1,0.1,0.2,0.2,0.2,0.3
			c0.2,0.2,0.2,0.5,0.3,0.8c0,0,0,0.1,0,0.1c-0.1,0.1-0.2,0.3-0.3,0.4c-0.3,0.4-0.6,0.9-0.8,1.4c-0.2,0.4-0.4,0.9-0.5,1.3
			c-0.2,0.6-0.4,1.2-0.5,1.9c-0.1,0.7-0.2,1.5-0.2,2.2c0,0.2,0.1,0.3,0.1,0.5c0.1,0.2,0.4,0.3,0.6,0.2c0.1-0.1,0.2-0.2,0.3-0.3
			c0.2-0.2,0.3-0.5,0.4-0.7c0.4-0.7,0.7-1.5,0.9-2.3c0.2-0.8,0.4-1.6,0.5-2.5c0.1-0.7,0.1-1.4,0-2c-0.1-0.5-0.2-1-0.5-1.4
			c-0.3-0.4-0.6-0.6-1.1-0.6c-0.4,0-0.8,0.2-1.1,0.5c0,0,0,0.1,0,0.1C191.6,166,191.6,166.2,191.7,166.4z M184.7,163.5
			c0.2,0.1,0.3,0.2,0.4,0.3c0.2,0.3,0.3,0.6,0.4,0.9c0,0,0,0.1,0,0.1c-0.1,0.2-0.2,0.3-0.4,0.5c-0.5,0.7-0.8,1.5-1.1,2.2
			c-0.3,0.7-0.5,1.5-0.6,2.3c-0.1,0.7-0.2,1.4-0.2,2.1c0,0.2,0.1,0.4,0.1,0.6c0.1,0.2,0.2,0.3,0.4,0.3c0.1,0,0.3-0.1,0.4-0.2
			c0.3-0.2,0.4-0.5,0.6-0.9c0.3-0.6,0.6-1.3,0.8-2c0.4-1.1,0.6-2.3,0.6-3.5c0-0.7,0-1.4-0.2-2.1c-0.1-0.4-0.3-0.8-0.6-1
			c-0.1-0.1-0.3-0.2-0.4-0.2C184.8,163.2,184.8,163.4,184.7,163.5z M202.6,169.5c0.4-0.3,0.7-0.7,1.3-0.7c0.1-0.2,0.1-0.3,0.1-0.5
			c-0.2,0-0.4,0-0.5,0c-0.3,0.1-0.6,0.2-0.9,0.4c-0.1,0.1-0.1,0.2-0.1,0.3C202.5,169.2,202.6,169.3,202.6,169.5z"/>
		<path d="M199.8,168.6c0-0.2-0.1-0.3-0.1-0.5c0,0,0-0.1,0-0.1c0.4-0.3,0.8-0.6,1.3-0.5c0.5,0.1,0.8,0.3,1,0.7
			c0.2,0.3,0.3,0.7,0.4,1.1c0.1,0.7,0.1,1.4,0.1,2c-0.1,1-0.3,2.1-0.6,3c-0.2,0.8-0.5,1.6-1,2.3c-0.1,0.2-0.3,0.5-0.6,0.7
			c-0.2,0.2-0.5,0.1-0.7-0.1c-0.1-0.2-0.1-0.4-0.1-0.7c0-0.5,0-1,0.1-1.5c0.1-0.6,0.2-1.2,0.4-1.8c0.2-0.7,0.5-1.4,0.8-2.1
			c0.3-0.6,0.6-1.2,1-1.7c0,0,0-0.1,0-0.1c-0.1-0.3-0.1-0.6-0.3-0.9c-0.3-0.4-0.6-0.5-1.1-0.3C200.2,168.3,200,168.5,199.8,168.6z
			 M202,170.1c0,0.1-0.1,0.1-0.1,0.1c-0.1,0.2-0.3,0.5-0.4,0.8c-0.3,0.6-0.6,1.2-0.8,1.8c-0.3,0.9-0.5,1.8-0.6,2.7
			c0,0.4-0.1,0.8,0,1.2c0,0.1,0,0.1,0,0.2c0-0.1,0.1-0.1,0.1-0.1c0.3-0.3,0.4-0.7,0.6-1.1c0.3-0.8,0.6-1.5,0.8-2.3
			c0.2-0.8,0.3-1.7,0.4-2.5C202,170.6,202,170.4,202,170.1z"/>
		<path d="M188.9,165.6c0-0.1-0.1-0.3-0.1-0.5c0,0,0-0.1,0-0.1c0.3-0.2,0.6-0.4,1-0.5c0.3,0,0.6,0.1,0.9,0.2c0.3,0.2,0.5,0.6,0.6,1
			c0.1,0.3,0.2,0.7,0.2,1c0.1,0.6,0.1,1.3,0,1.9c-0.1,0.6-0.2,1.1-0.3,1.6c-0.2,0.8-0.4,1.6-0.8,2.4c-0.2,0.5-0.4,0.9-0.7,1.3
			c-0.1,0.1-0.2,0.2-0.3,0.3c-0.3,0.2-0.6,0.1-0.7-0.3c-0.1-0.3-0.1-0.7-0.1-1c0-0.5,0.1-1,0.2-1.5c0.1-0.5,0.2-1.1,0.4-1.6
			c0.2-0.9,0.6-1.7,1-2.4c0.2-0.4,0.5-0.7,0.7-1.1c0,0,0-0.1,0-0.1c-0.1-0.3-0.2-0.6-0.4-0.9c-0.1-0.1-0.2-0.3-0.4-0.3
			c-0.2-0.1-0.5-0.1-0.7,0.1C189.3,165.3,189.1,165.4,188.9,165.6z M191.1,167.1C191.1,167.1,191.1,167.1,191.1,167.1
			C191,167.1,191,167.2,191.1,167.1c-0.4,0.6-0.7,1.1-0.9,1.6c-0.2,0.6-0.4,1.1-0.6,1.7c-0.1,0.6-0.2,1.1-0.4,1.7
			c-0.1,0.5-0.1,1-0.1,1.6c0,0.1,0,0.1,0,0.2c0.2-0.2,0.4-0.5,0.5-0.7c0.3-0.6,0.6-1.2,0.8-1.9c0.3-1,0.6-2,0.6-3.1
			C191.1,167.8,191.1,167.5,191.1,167.1z"/>
		<path d="M186.2,164.8c-0.1-0.2-0.1-0.4-0.1-0.5c0,0,0-0.1,0-0.1c0.3-0.2,0.6-0.4,0.9-0.5c0.5-0.1,0.9,0.1,1.2,0.5
			c0.2,0.3,0.4,0.7,0.5,1.1c0.1,0.4,0.1,0.8,0.2,1.3c0,0.6,0,1.2-0.1,1.8s-0.2,1.2-0.4,1.8c-0.2,0.7-0.4,1.3-0.7,1.9
			c-0.2,0.4-0.4,0.9-0.8,1.3c-0.1,0.1-0.2,0.2-0.3,0.2c-0.2,0.2-0.5,0.1-0.7-0.2c-0.1-0.2-0.1-0.4-0.1-0.6c0-0.5,0-1,0.1-1.5
			c0.1-0.6,0.2-1.2,0.4-1.7c0.2-0.8,0.5-1.6,0.9-2.4c0.2-0.5,0.6-1,0.9-1.4c0.1-0.1,0.1-0.1,0-0.2c-0.1-0.3-0.1-0.5-0.3-0.8
			c-0.1-0.2-0.2-0.3-0.4-0.4c-0.2-0.1-0.5,0-0.7,0.1S186.5,164.7,186.2,164.8C186.2,164.8,186.2,164.8,186.2,164.8z M188.4,166.4
			C188.4,166.4,188.3,166.4,188.4,166.4C188.3,166.4,188.3,166.4,188.4,166.4c-0.3,0.4-0.4,0.7-0.6,1c-0.5,0.9-0.8,1.8-1,2.8
			c-0.2,0.8-0.3,1.6-0.3,2.4c0,0.2,0,0.4,0.1,0.6c0.2-0.2,0.3-0.4,0.5-0.7c0.3-0.6,0.6-1.3,0.8-2c0.4-1.1,0.6-2.2,0.6-3.4
			C188.4,166.8,188.4,166.6,188.4,166.4z"/>
		<path d="M194.4,167.1c-0.1-0.2-0.1-0.4-0.1-0.5c0,0,0-0.1,0-0.1c0.3-0.2,0.6-0.4,1-0.5c0.5-0.1,0.9,0.1,1.2,0.5
			c0.3,0.4,0.4,0.8,0.5,1.2c0.2,0.8,0.1,1.5,0.1,2.3c-0.1,0.8-0.2,1.6-0.4,2.3c-0.2,0.8-0.5,1.7-0.9,2.4c-0.1,0.2-0.3,0.5-0.4,0.7
			c-0.1,0.1-0.2,0.2-0.3,0.3c-0.2,0.1-0.5,0.1-0.6-0.1c-0.1-0.1-0.1-0.2-0.1-0.4c-0.1-0.4-0.1-0.9,0-1.3c0.1-1,0.3-2,0.6-3
			c0.2-0.6,0.5-1.2,0.8-1.8c0.2-0.5,0.5-0.9,0.9-1.4c0,0,0-0.1,0-0.1c-0.1-0.3-0.2-0.6-0.4-0.9c-0.1-0.1-0.2-0.3-0.4-0.3
			c-0.2-0.1-0.4,0-0.6,0.1C194.8,166.7,194.6,166.9,194.4,167.1C194.4,167.1,194.4,167.1,194.4,167.1z M196.6,168.6
			C196.5,168.6,196.5,168.6,196.6,168.6c-0.2,0.2-0.3,0.4-0.4,0.6c-0.4,0.7-0.7,1.4-0.9,2.1s-0.4,1.5-0.5,2.2
			c-0.1,0.5-0.1,0.9-0.1,1.4c0,0.1,0,0.3,0,0.4c0,0,0,0,0,0c0.1-0.1,0.1-0.1,0.1-0.2c0.3-0.4,0.5-0.9,0.7-1.3
			c0.3-0.7,0.6-1.5,0.7-2.3c0.2-0.8,0.3-1.6,0.3-2.4C196.6,169,196.6,168.8,196.6,168.6z"/>
		<path d="M197.1,167.9c-0.1-0.2-0.1-0.4-0.1-0.5c0,0,0-0.1,0-0.1c0.4-0.3,0.8-0.6,1.3-0.5c0.4,0,0.6,0.2,0.9,0.5
			c0.3,0.4,0.4,0.8,0.5,1.3c0.1,0.6,0.1,1.2,0.1,1.9c-0.1,0.9-0.2,1.8-0.5,2.7c-0.2,0.6-0.4,1.1-0.6,1.7c-0.2,0.5-0.5,1.1-0.9,1.5
			c-0.1,0.1-0.2,0.2-0.3,0.2c-0.2,0.1-0.5,0-0.6-0.2c-0.1-0.4-0.1-0.7-0.1-1.1c0-0.8,0.2-1.6,0.4-2.4c0.2-0.7,0.4-1.4,0.7-2.1
			c0.3-0.7,0.7-1.4,1.2-2.1c0,0,0-0.1,0-0.1c-0.1-0.3-0.2-0.6-0.4-0.9c-0.2-0.3-0.4-0.4-0.8-0.3c-0.3,0.1-0.5,0.2-0.7,0.4
			C197.2,167.8,197.2,167.8,197.1,167.9z M197.4,176.1C197.4,176.1,197.4,176.1,197.4,176.1c0.2-0.1,0.3-0.3,0.4-0.4
			c0.4-0.7,0.7-1.5,1-2.3c0.3-1.1,0.5-2.2,0.6-3.3c0-0.2,0-0.4,0-0.6c-0.1,0-0.1,0.1-0.1,0.1c-0.2,0.4-0.5,0.8-0.7,1.2
			c-0.2,0.5-0.4,0.9-0.6,1.4c-0.2,0.6-0.3,1.1-0.4,1.7c-0.1,0.6-0.2,1.1-0.2,1.7C197.3,175.7,197.3,175.9,197.4,176.1z"/>
		<path d="M191.7,166.4c0-0.2-0.1-0.4-0.1-0.5c0,0,0-0.1,0-0.1c0.3-0.3,0.7-0.5,1.1-0.5c0.5,0,0.8,0.2,1.1,0.6
			c0.3,0.4,0.4,0.9,0.5,1.4c0.1,0.7,0.1,1.4,0,2c-0.1,0.8-0.2,1.7-0.5,2.5c-0.2,0.8-0.5,1.6-0.9,2.3c-0.1,0.2-0.3,0.5-0.4,0.7
			c-0.1,0.1-0.2,0.2-0.3,0.3c-0.2,0.1-0.5,0.1-0.6-0.2c-0.1-0.1-0.1-0.3-0.1-0.5c-0.1-0.7,0-1.5,0.2-2.2c0.1-0.6,0.3-1.3,0.5-1.9
			c0.2-0.4,0.4-0.9,0.5-1.3c0.2-0.5,0.5-1,0.8-1.4c0.1-0.1,0.2-0.3,0.3-0.4c0,0,0-0.1,0-0.1c-0.1-0.3-0.1-0.6-0.3-0.8
			c-0.1-0.1-0.2-0.2-0.2-0.3c-0.2-0.2-0.5-0.2-0.8-0.1C192.1,166,191.9,166.1,191.7,166.4C191.7,166.3,191.7,166.3,191.7,166.4z
			 M191.9,174.6C191.9,174.6,191.9,174.6,191.9,174.6c0.2-0.2,0.4-0.4,0.5-0.7c0.4-0.8,0.7-1.5,0.9-2.4c0.2-0.8,0.4-1.5,0.4-2.3
			c0-0.4,0.1-0.9,0-1.4c0,0-0.1,0.1-0.1,0.1c-0.2,0.4-0.4,0.7-0.6,1.1c-0.2,0.5-0.4,0.9-0.6,1.4c-0.3,0.8-0.5,1.7-0.6,2.6
			c0,0.4-0.1,0.8-0.1,1.1C191.9,174.3,191.9,174.4,191.9,174.6z"/>
		<path d="M184.7,163.5c0.1-0.2,0.1-0.3,0.1-0.5c0.2,0,0.3,0.1,0.4,0.2c0.3,0.3,0.5,0.6,0.6,1c0.2,0.7,0.2,1.4,0.2,2.1
			c-0.1,1.2-0.3,2.4-0.6,3.5c-0.2,0.7-0.5,1.3-0.8,2c-0.2,0.3-0.4,0.6-0.6,0.9c-0.1,0.1-0.2,0.2-0.4,0.2c-0.2,0-0.3-0.1-0.4-0.3
			c-0.1-0.2-0.1-0.4-0.1-0.6c0-0.7,0.1-1.4,0.2-2.1c0.1-0.8,0.4-1.5,0.6-2.3c0.3-0.8,0.6-1.6,1.1-2.2c0.1-0.2,0.2-0.3,0.4-0.5
			c0,0,0-0.1,0-0.1c-0.1-0.3-0.2-0.6-0.4-0.9C185,163.7,184.9,163.6,184.7,163.5z M185.6,165.6C185.6,165.6,185.6,165.6,185.6,165.6
			C185.6,165.6,185.6,165.6,185.6,165.6c-0.3,0.4-0.5,0.8-0.7,1.2c-0.2,0.4-0.4,0.9-0.5,1.3c-0.2,0.7-0.4,1.4-0.5,2.1
			c-0.1,0.5-0.2,1-0.2,1.6c0,0.2,0,0.4,0,0.5c0,0,0,0,0,0c0.1-0.2,0.3-0.4,0.4-0.6c0.3-0.6,0.6-1.2,0.8-1.8c0.2-0.6,0.4-1.3,0.5-2
			c0.1-0.5,0.1-0.9,0.2-1.4C185.6,166.2,185.6,165.9,185.6,165.6z"/>
		<path d="M202.6,169.5c0-0.1-0.1-0.3-0.1-0.4c-0.1-0.1,0-0.2,0.1-0.3c0.3-0.2,0.5-0.4,0.9-0.4c0.2,0,0.3,0,0.5,0
			c-0.1,0.2-0.1,0.3-0.1,0.5C203.3,168.8,202.9,169.2,202.6,169.5z"/>
		<path class="st8" d="M202,170.1c0,0.3,0,0.5,0,0.8c0,0.9-0.2,1.7-0.4,2.5c-0.2,0.8-0.5,1.6-0.8,2.3c-0.2,0.4-0.4,0.7-0.6,1.1
			c0,0,0,0.1-0.1,0.1c0-0.1,0-0.1,0-0.2c-0.1-0.4,0-0.8,0-1.2c0.1-0.9,0.3-1.8,0.6-2.7c0.2-0.6,0.5-1.2,0.8-1.8
			c0.1-0.3,0.3-0.5,0.4-0.8C201.9,170.2,202,170.2,202,170.1z"/>
		<path class="st8" d="M191.1,167.1c0,0.4,0,0.7,0,1.1c-0.1,1.1-0.3,2.1-0.6,3.1c-0.2,0.6-0.4,1.3-0.8,1.9c-0.1,0.3-0.3,0.5-0.5,0.7
			c0-0.1,0-0.2,0-0.2c-0.1-0.5,0-1.1,0.1-1.6c0.1-0.6,0.2-1.1,0.4-1.7c0.1-0.6,0.4-1.1,0.6-1.7c0.2-0.5,0.5-1,0.8-1.5
			C191,167.1,191,167.1,191.1,167.1C191.1,167.1,191.1,167.1,191.1,167.1z"/>
		<path class="st8" d="M188.4,166.4c0,0.2,0,0.4,0,0.6c0,1.2-0.3,2.3-0.6,3.4c-0.2,0.7-0.5,1.3-0.8,2c-0.1,0.2-0.3,0.4-0.5,0.7
			c-0.1-0.2-0.1-0.4-0.1-0.6c0-0.8,0.1-1.6,0.3-2.4c0.2-1,0.6-1.9,1-2.8c0.2-0.3,0.3-0.6,0.5-0.9
			C188.3,166.4,188.3,166.4,188.4,166.4C188.3,166.3,188.3,166.3,188.4,166.4z"/>
		<path class="st8" d="M196.6,168.6c0,0.2,0,0.4,0,0.6c0,0.8-0.1,1.6-0.3,2.4c-0.2,0.8-0.4,1.5-0.7,2.3c-0.2,0.5-0.4,0.9-0.7,1.3
			c-0.1,0.1-0.1,0.1-0.1,0.2c0,0,0,0,0,0c0-0.1,0-0.3,0-0.4c0-0.5,0-0.9,0.1-1.4c0.1-0.8,0.3-1.5,0.5-2.2s0.5-1.4,0.9-2.1
			C196.3,169,196.4,168.8,196.6,168.6C196.5,168.6,196.5,168.6,196.6,168.6z"/>
		<path class="st8" d="M197.4,176.1c0-0.2,0-0.4,0-0.6c0-0.6,0.1-1.1,0.2-1.7c0.1-0.6,0.2-1.1,0.4-1.7c0.2-0.5,0.4-0.9,0.6-1.4
			c0.2-0.4,0.4-0.9,0.7-1.2c0,0,0.1-0.1,0.1-0.1c0,0.2,0,0.4,0,0.6c0,1.1-0.2,2.2-0.6,3.3c-0.2,0.8-0.6,1.6-1,2.3
			C197.6,175.8,197.5,175.9,197.4,176.1C197.4,176.1,197.4,176.1,197.4,176.1z"/>
		<path class="st8" d="M191.9,174.6c0-0.1-0.1-0.3,0-0.4c0-0.4,0-0.8,0.1-1.1c0.1-0.9,0.3-1.7,0.6-2.6c0.2-0.5,0.4-1,0.6-1.4
			c0.2-0.4,0.4-0.7,0.6-1.1c0,0,0-0.1,0.1-0.1c0,0.5,0,0.9,0,1.4c-0.1,0.8-0.2,1.6-0.4,2.3c-0.2,0.8-0.5,1.6-0.9,2.4
			C192.3,174.2,192.1,174.4,191.9,174.6C191.9,174.6,191.9,174.6,191.9,174.6z"/>
		<path class="st8" d="M185.6,165.6c0,0.3,0,0.6,0,0.9c0,0.5-0.1,0.9-0.2,1.4c-0.1,0.7-0.3,1.4-0.5,2c-0.2,0.6-0.5,1.2-0.8,1.8
			c-0.1,0.2-0.3,0.4-0.4,0.6c0,0,0,0,0,0c0-0.2,0-0.4,0-0.5c0-0.5,0.1-1.1,0.2-1.6c0.1-0.7,0.3-1.4,0.5-2.1c0.2-0.4,0.3-0.9,0.5-1.3
			C185.1,166.4,185.4,166,185.6,165.6C185.6,165.6,185.6,165.6,185.6,165.6C185.6,165.6,185.6,165.6,185.6,165.6z"/>
	</g>
	<g>
		<path class="st8" d="M248.9,179.2c-23.8-6.6-47.7-13.3-71.5-19.9c1.3-4.6,2.6-9.3,3.9-13.9c23.8,6.6,47.7,13.3,71.5,19.9
			C251.4,169.9,250.2,174.6,248.9,179.2z M234.2,163.5c0.5-0.1,1-0.1,1.5-0.2c1.3-0.1,2.4,0.3,3.5,0.9c0.7,0.4,1.1,0.8,1.5,1.2
			c0,0,0,0.1,0,0.1c-1,0.4-1.6,0.8-2.1,1.4c-0.6,0.6-1,1.3-1.2,2c-0.2,0.6-0.2,1.2-0.2,1.8c0.1,0.6,0.1,1.1,0.5,1.7
			c0.2,0.3,0.3,0.6,0.8,0.9c0.5,0.4,1.5,0.6,2.1,0.5c0.6-0.1,1-0.3,1.3-0.5c0.9-0.6,1.3-1.3,1.6-2.1c0.4-1,0.5-2,0.1-3.2
			c-0.2-0.8-0.6-1.5-1.4-2.4c-0.4-0.5-0.9-0.9-1.7-1.4c-0.9-0.6-1.9-1-3.3-1.4c-1.6-0.4-2.6-0.3-3.6-0.1c0,0,0,0,0,0.1
			C233.8,163.1,234,163.3,234.2,163.5z M200.2,154.1c0.6-0.1,1.1-0.1,1.6-0.1c0.5,0,1.2,0.1,1.9,0.3c0.5,0.2,0.9,0.4,1.3,0.6
			c0.7,0.4,1.2,0.8,1.6,1.2c0,0,0,0.1,0,0.1c-0.5,0.3-1,0.5-1.5,0.8c-0.9,0.6-1.4,1.4-1.7,2.3c-0.2,0.5-0.2,1.1-0.3,1.6
			c-0.1,0.5,0.1,1.1,0.3,1.7c0.1,0.4,0.4,0.8,0.8,1.2c0.5,0.4,1.6,0.8,2.3,0.7c0.3,0,0.5-0.1,0.8-0.2c0.7-0.3,1.1-0.7,1.4-1.1
			c0.6-0.7,0.9-1.5,1-2.3c0.1-0.6,0-1.1-0.1-1.8c-0.1-0.7-0.4-1.4-1-2.2c-0.3-0.4-0.7-0.8-1.2-1.3c-0.6-0.5-1.3-1-2.4-1.4
			c-0.9-0.4-1.8-0.6-2.7-0.8c-1.1-0.2-2-0.1-2.8,0c-0.1,0-0.1,0.1-0.1,0.1C199.8,153.6,200,153.9,200.2,154.1z M191.8,151.7
			c0.1,0,0.1,0,0.2,0c0.5-0.1,0.9-0.1,1.5-0.2s1.2,0.1,1.9,0.3c0.6,0.2,1.1,0.4,1.6,0.7c0.5,0.4,0.9,0.7,1.3,1
			c0.1,0.1,0.1,0.1,0,0.2c-0.8,0.3-1.4,0.7-1.9,1.1c-0.7,0.7-1.2,1.4-1.4,2.2c-0.2,0.6-0.2,1.2-0.2,1.8c0.1,0.5,0.1,1.1,0.5,1.7
			c0.2,0.3,0.3,0.5,0.7,0.8c0.5,0.4,1.5,0.7,2.1,0.6c0.2,0,0.5-0.1,0.6-0.1c0.7-0.3,1.2-0.6,1.5-1c0.5-0.6,0.9-1.2,1-1.9
			c0.1-0.6,0.1-1.2,0.1-1.8c0-0.6-0.2-1.3-0.6-2c-0.3-0.5-0.6-1-1.2-1.6c-0.5-0.5-1.1-1-2-1.5c-1.1-0.6-2.5-1.1-3.9-1.2
			c-1-0.1-1.8-0.1-2.4,0.1c-0.1,0-0.1,0-0.1,0.1C191.3,151.3,191.5,151.5,191.8,151.7z M217.2,158.8c0.1,0,0.1,0,0.2,0
			c0.5-0.1,0.9-0.2,1.5-0.2c0.5,0,1.1,0.1,1.8,0.3c0.5,0.2,1,0.4,1.4,0.6c0.7,0.4,1.2,0.8,1.6,1.2c0,0,0,0.1,0,0.1
			c-0.8,0.3-1.4,0.7-1.9,1.1c-0.6,0.5-1,1.1-1.3,1.7c-0.4,0.9-0.6,1.9-0.3,3.1c0.1,0.5,0.3,1,0.8,1.5c0.1,0.1,0.3,0.3,0.6,0.5
			c0.6,0.4,1.4,0.5,1.9,0.5c0.3,0,0.6-0.1,0.8-0.2c0.4-0.2,0.7-0.4,0.9-0.6c0.8-0.7,1.2-1.5,1.4-2.3c0.2-0.8,0.3-1.6,0-2.4
			c-0.2-0.9-0.6-1.7-1.5-2.7c-0.5-0.6-1.1-1.1-2.2-1.7c-1.1-0.6-2.3-1-3.7-1.2c-1.1-0.1-1.9-0.1-2.6,0c0,0-0.1,0-0.1,0.1
			C216.8,158.4,217,158.6,217.2,158.8z M225.7,161.2c0.2,0,0.3-0.1,0.5-0.1c0.5-0.1,1.1-0.2,1.9-0.1c0.9,0.1,1.7,0.4,2.5,0.8
			c0.7,0.4,1.2,0.8,1.5,1.2c0,0.1,0,0.1,0,0.1c-1.1,0.5-1.9,1.1-2.4,1.7c-0.5,0.6-0.8,1.3-1,2c-0.1,0.8-0.2,1.7,0.2,2.6
			c0.2,0.4,0.4,0.9,0.9,1.3c0.4,0.4,1.4,0.7,2,0.6c0.3,0,0.5-0.1,0.7-0.1c0.9-0.3,1.3-0.8,1.7-1.3c0.4-0.5,0.7-1,0.8-1.6
			c0.3-0.9,0.2-1.8-0.1-2.9c-0.2-0.7-0.6-1.4-1.3-2.2c-0.5-0.6-1.2-1.2-2.3-1.8c-0.8-0.4-1.8-0.8-2.9-1.1c-1.5-0.3-2.6-0.3-3.5-0.1
			c0,0-0.1,0,0,0.1C225.3,160.7,225.5,160.9,225.7,161.2z M208.7,156.5c0.1,0,0.1,0,0.2,0c0.5-0.1,1-0.2,1.7-0.2
			c0.7,0,1.5,0.1,2.3,0.5c0.3,0.1,0.6,0.3,0.9,0.5c0.6,0.4,1,0.7,1.3,1.1c0,0.1,0,0.1,0,0.1c-0.2,0.1-0.5,0.2-0.7,0.3
			c-0.6,0.4-1.2,0.7-1.5,1.2c-0.3,0.4-0.6,0.8-0.8,1.2c-0.3,0.6-0.4,1.2-0.4,1.9c0,0.8,0.1,1.5,0.7,2.4c0.1,0.2,0.4,0.4,0.7,0.6
			c0.4,0.3,1.4,0.6,1.9,0.5c0.3,0,0.6-0.1,0.8-0.2c0.4-0.2,0.7-0.4,1-0.6c0.7-0.6,1.2-1.4,1.4-2.2c0.3-0.8,0.3-1.7,0.1-2.6
			c-0.2-0.7-0.5-1.5-1.2-2.4c-0.5-0.6-1.2-1.3-2.3-1.9c-1-0.6-2.2-1-3.6-1.2c-1.2-0.2-2.2-0.1-3,0c0,0-0.1,0,0,0.1
			C208.3,156,208.5,156.2,208.7,156.5z M186.7,149.4c0.5,0.2,1,0.4,1.3,0.6c0.8,0.4,1.2,0.9,1.6,1.3c0.1,0.1,0,0.1,0,0.1
			c-0.3,0.1-0.6,0.2-0.8,0.4c-1,0.6-1.6,1.2-2.1,2c-0.4,0.7-0.6,1.5-0.6,2.3c0,0.7,0.1,1.5,0.6,2.3c0.2,0.3,0.4,0.5,0.7,0.8
			c0.3,0.2,0.9,0.4,1.4,0.5c0.4,0.1,0.7,0.1,1,0c0.6-0.1,1-0.4,1.3-0.6c0.6-0.6,1.1-1.2,1.4-1.8c0.5-1.1,0.5-2.3,0-3.7
			c-0.3-0.8-0.8-1.6-1.8-2.6c-0.6-0.5-1.3-1-2.4-1.5c-0.4-0.2-0.9-0.4-1.4-0.5C186.8,149.1,186.8,149.3,186.7,149.4z M242.8,166
			c0.9-0.2,1.8-0.4,3.4-0.1c0-0.2,0.1-0.3,0.1-0.5c-0.5-0.1-1.1-0.2-1.5-0.3c-0.9-0.1-1.6-0.1-2.3,0c-0.3,0-0.3,0.1-0.1,0.3
			C242.5,165.7,242.6,165.8,242.8,166z"/>
		<path d="M234.2,163.5c-0.2-0.2-0.4-0.4-0.6-0.6c0,0,0-0.1,0-0.1c1-0.1,2-0.2,3.6,0.1c1.4,0.3,2.5,0.8,3.3,1.4
			c0.8,0.5,1.3,1,1.7,1.4c0.8,0.9,1.1,1.6,1.4,2.4c0.3,1.1,0.3,2.2-0.1,3.2c-0.3,0.8-0.8,1.5-1.6,2.1c-0.3,0.2-0.7,0.4-1.3,0.5
			c-0.6,0.1-1.5-0.2-2.1-0.5c-0.5-0.3-0.6-0.6-0.8-0.9c-0.4-0.6-0.5-1.2-0.5-1.7c-0.1-0.6,0-1.2,0.2-1.8c0.2-0.7,0.6-1.4,1.2-2
			c0.5-0.5,1.2-1,2.1-1.4c0,0,0-0.1,0-0.1c-0.4-0.4-0.8-0.8-1.5-1.2c-1.1-0.6-2.2-1-3.5-0.9C235.2,163.4,234.7,163.5,234.2,163.5z
			 M241.4,166.4c-0.1,0-0.1,0.1-0.2,0.1c-0.3,0.2-0.6,0.4-0.9,0.6c-0.6,0.5-1,1.1-1.3,1.7c-0.4,0.9-0.5,1.8-0.3,2.8
			c0.1,0.4,0.2,0.9,0.6,1.3c0,0.1,0.1,0.1,0.2,0.2c0.1,0,0.1-0.1,0.2-0.1c0.6-0.2,1-0.5,1.3-0.9c0.6-0.7,1-1.4,1.1-2.2
			c0.2-0.9,0.1-1.7-0.3-2.7C241.7,167,241.6,166.7,241.4,166.4z"/>
		<path d="M200.2,154.1c-0.2-0.2-0.4-0.4-0.6-0.6c0,0,0-0.1,0.1-0.1c0.8-0.1,1.6-0.2,2.8,0c0.9,0.1,1.9,0.4,2.7,0.8
			c1.1,0.5,1.8,0.9,2.4,1.4c0.5,0.4,0.9,0.9,1.2,1.3c0.6,0.8,0.9,1.5,1,2.2c0.1,0.6,0.1,1.2,0.1,1.8c-0.1,0.8-0.4,1.6-1,2.3
			c-0.4,0.4-0.7,0.8-1.4,1.1c-0.2,0.1-0.5,0.2-0.8,0.2c-0.7,0.1-1.8-0.2-2.3-0.7c-0.5-0.4-0.7-0.8-0.8-1.2c-0.2-0.6-0.4-1.1-0.3-1.7
			c0.1-0.6,0.1-1.1,0.3-1.6c0.3-0.9,0.8-1.6,1.7-2.3c0.5-0.3,1-0.6,1.5-0.8c0,0,0.1-0.1,0-0.1c-0.4-0.4-0.8-0.8-1.6-1.2
			c-0.4-0.2-0.8-0.4-1.3-0.6c-0.7-0.2-1.4-0.3-1.9-0.3C201.3,153.9,200.8,154,200.2,154.1z M207.5,157c0,0-0.1,0-0.1,0
			c0,0-0.1,0-0.1,0.1c-0.6,0.4-1.2,0.8-1.6,1.3c-0.4,0.5-0.7,1-0.8,1.6c-0.1,0.6-0.1,1.1-0.1,1.7c0,0.5,0.2,1.1,0.6,1.8
			c0.1,0.1,0.1,0.2,0.2,0.3c0.5-0.1,0.8-0.4,1.1-0.6c0.6-0.5,1-1.1,1.3-1.7c0.4-1,0.5-2,0.1-3.2C207.9,157.8,207.7,157.4,207.5,157z
			"/>
		<path d="M191.8,151.7c-0.2-0.2-0.5-0.5-0.7-0.7c0,0,0-0.1,0.1-0.1c0.7-0.1,1.4-0.2,2.4-0.1c1.4,0.2,2.8,0.6,3.9,1.2
			c0.9,0.5,1.5,1,2,1.5c0.5,0.5,0.9,1.1,1.2,1.6c0.4,0.7,0.6,1.4,0.6,2c0,0.6,0,1.2-0.1,1.8c-0.1,0.7-0.5,1.3-1,1.9
			c-0.4,0.4-0.8,0.8-1.5,1c-0.2,0.1-0.4,0.1-0.6,0.1c-0.6,0.1-1.6-0.2-2.1-0.6c-0.4-0.3-0.5-0.6-0.7-0.8c-0.4-0.6-0.4-1.1-0.5-1.7
			c-0.1-0.6,0-1.2,0.2-1.8c0.2-0.8,0.7-1.6,1.4-2.2c0.5-0.4,1.1-0.8,1.9-1.1c0.1,0,0.1-0.1,0-0.2c-0.4-0.3-0.7-0.7-1.3-1
			c-0.4-0.3-0.9-0.5-1.6-0.7c-0.7-0.2-1.4-0.3-1.9-0.3s-1,0.1-1.5,0.2C191.9,151.7,191.8,151.7,191.8,151.7z M199,154.7
			C198.9,154.7,198.9,154.6,199,154.7c-0.1,0-0.2,0-0.2,0.1c-0.4,0.2-0.7,0.5-1,0.7c-0.9,0.8-1.3,1.7-1.5,2.6
			c-0.2,0.8-0.1,1.7,0.3,2.6c0.1,0.2,0.2,0.4,0.5,0.7c0.4-0.2,0.8-0.3,1-0.5c0.6-0.6,1.1-1.2,1.3-1.8c0.4-1.1,0.5-2.3-0.1-3.6
			C199.2,155.2,199.1,154.9,199,154.7z"/>
		<path d="M217.2,158.8c-0.2-0.2-0.5-0.5-0.7-0.7c0,0,0-0.1,0.1-0.1c0.7-0.1,1.5-0.2,2.6,0c1.4,0.2,2.6,0.6,3.7,1.2
			c1,0.6,1.6,1.1,2.2,1.7c0.9,1,1.3,1.9,1.5,2.7c0.2,0.9,0.2,1.7,0,2.4c-0.2,0.8-0.6,1.6-1.4,2.3c-0.3,0.2-0.6,0.4-0.9,0.6
			c-0.2,0.1-0.5,0.2-0.8,0.2c-0.5,0.1-1.4-0.1-1.9-0.5c-0.2-0.1-0.4-0.3-0.6-0.5c-0.5-0.6-0.6-1.1-0.8-1.5c-0.3-1.1-0.1-2.1,0.3-3.1
			c0.3-0.6,0.7-1.2,1.3-1.7c0.5-0.4,1.1-0.8,1.9-1.1c0,0,0.1-0.1,0-0.1c-0.4-0.4-0.8-0.8-1.6-1.2c-0.4-0.2-0.8-0.4-1.4-0.6
			c-0.6-0.2-1.2-0.3-1.8-0.3c-0.6,0-1.1,0.1-1.5,0.2C217.4,158.8,217.3,158.8,217.2,158.8z M224.4,161.7c0,0-0.1,0-0.1,0
			c-0.2,0.2-0.5,0.3-0.7,0.5c-0.8,0.6-1.2,1.2-1.6,1.9c-0.3,0.7-0.4,1.5-0.4,2.3c0,0.5,0.2,1,0.5,1.5c0.1,0.2,0.2,0.3,0.3,0.5
			c0,0,0.1,0,0.1,0c0.1,0,0.2-0.1,0.3-0.1c0.6-0.3,1-0.7,1.4-1.1c0.5-0.7,0.8-1.4,0.9-2.2c0.1-0.8,0-1.6-0.4-2.6
			C224.7,162.2,224.6,162,224.4,161.7z"/>
		<path d="M225.7,161.2c-0.2-0.2-0.5-0.5-0.7-0.7c0,0,0-0.1,0-0.1c1-0.1,2-0.2,3.5,0.1c1.1,0.2,2,0.6,2.9,1.1
			c1.1,0.6,1.8,1.2,2.3,1.8c0.7,0.8,1.1,1.5,1.3,2.2c0.3,1,0.3,2,0.1,2.9c-0.2,0.6-0.4,1.1-0.8,1.6c-0.4,0.5-0.8,1-1.7,1.3
			c-0.2,0.1-0.4,0.1-0.7,0.1c-0.6,0-1.6-0.3-2-0.6c-0.6-0.5-0.8-0.9-0.9-1.3c-0.4-0.9-0.3-1.8-0.2-2.6c0.1-0.7,0.5-1.4,1-2
			c0.5-0.7,1.3-1.3,2.4-1.7c0.1,0,0.1-0.1,0-0.1c-0.3-0.4-0.8-0.8-1.5-1.2c-0.8-0.4-1.5-0.7-2.5-0.8c-0.8-0.1-1.4,0-1.9,0.1
			C226,161.1,225.9,161.2,225.7,161.2z M230.9,170.8c0,0,0.1,0,0.1,0c0.2-0.1,0.5-0.2,0.7-0.4c0.9-0.6,1.4-1.4,1.6-2.2
			c0.4-1.1,0.4-2.2-0.1-3.5c-0.1-0.2-0.2-0.5-0.4-0.7c-0.1,0-0.2,0.1-0.3,0.1c-0.5,0.3-1,0.6-1.3,1.1c-0.3,0.4-0.6,0.9-0.9,1.3
			c-0.3,0.5-0.4,1.1-0.4,1.7c0,0.6,0,1.2,0.4,1.8C230.7,170.3,230.8,170.6,230.9,170.8z"/>
		<path d="M208.7,156.5c-0.2-0.2-0.5-0.5-0.7-0.7c0,0,0-0.1,0-0.1c0.8-0.1,1.7-0.2,3,0c1.4,0.2,2.6,0.7,3.6,1.2
			c1.1,0.7,1.8,1.3,2.3,1.9c0.7,0.8,1,1.6,1.2,2.4c0.2,0.9,0.2,1.8-0.1,2.6c-0.3,0.8-0.7,1.5-1.4,2.2c-0.2,0.2-0.6,0.4-1,0.6
			c-0.2,0.1-0.5,0.1-0.8,0.2c-0.5,0.1-1.5-0.2-1.9-0.5c-0.3-0.2-0.5-0.4-0.7-0.6c-0.6-0.9-0.7-1.7-0.7-2.4c0-0.7,0.1-1.3,0.4-1.9
			c0.2-0.4,0.5-0.8,0.8-1.2c0.3-0.5,0.9-0.9,1.5-1.2c0.2-0.1,0.5-0.2,0.7-0.3c0.1,0,0.1-0.1,0-0.1c-0.3-0.4-0.7-0.7-1.3-1.1
			c-0.3-0.2-0.6-0.3-0.9-0.5c-0.8-0.4-1.6-0.5-2.3-0.5c-0.7,0-1.2,0.1-1.7,0.2C208.9,156.4,208.8,156.5,208.7,156.5z M214,166.1
			c0,0,0.1,0,0.1,0c0.3-0.2,0.7-0.3,1-0.6c0.7-0.7,1.2-1.4,1.5-2.2c0.2-0.8,0.2-1.6,0-2.4c-0.1-0.5-0.3-1-0.7-1.6
			c-0.1,0-0.1,0-0.1,0.1c-0.4,0.3-0.9,0.6-1.2,0.9c-0.4,0.4-0.8,0.9-1,1.3c-0.4,0.8-0.5,1.7-0.4,2.6c0.1,0.4,0.2,0.8,0.4,1.3
			C213.7,165.7,213.9,165.9,214,166.1z"/>
		<path d="M186.7,149.4c0.1-0.2,0.1-0.3,0.1-0.5c0.5,0.1,1,0.3,1.4,0.5c1.1,0.5,1.8,1,2.4,1.5c1,0.9,1.5,1.8,1.8,2.6
			c0.5,1.3,0.5,2.6,0,3.7c-0.3,0.7-0.7,1.3-1.4,1.8c-0.3,0.3-0.7,0.5-1.3,0.6c-0.2,0.1-0.5,0.1-1,0c-0.5-0.1-1.1-0.3-1.4-0.5
			c-0.4-0.3-0.6-0.5-0.7-0.8c-0.5-0.8-0.6-1.6-0.6-2.3c0-0.8,0.2-1.6,0.6-2.3c0.4-0.8,1.1-1.4,2.1-2c0.2-0.1,0.6-0.2,0.8-0.4
			c0.1,0,0.1-0.1,0-0.1c-0.4-0.4-0.9-0.8-1.6-1.3C187.7,149.8,187.2,149.6,186.7,149.4z M190.5,152.3c0,0-0.1,0-0.1,0c0,0,0,0-0.1,0
			c-0.4,0.3-1,0.6-1.3,1c-0.4,0.4-0.7,0.8-0.9,1.2c-0.3,0.6-0.5,1.3-0.4,2.1c0,0.6,0.1,1.1,0.4,1.7c0.1,0.2,0.3,0.4,0.4,0.6
			c0.1,0,0.1,0,0.1,0c0.3-0.1,0.6-0.3,0.8-0.4c0.6-0.5,1.1-1.1,1.4-1.7c0.3-0.6,0.5-1.3,0.4-2c0-0.5-0.1-1-0.3-1.6
			C190.9,153,190.7,152.6,190.5,152.3z"/>
		<path d="M242.8,166c-0.2-0.2-0.3-0.4-0.5-0.5c-0.2-0.2-0.1-0.2,0.1-0.3c0.7-0.1,1.4-0.1,2.3,0c0.5,0.1,1,0.1,1.5,0.3
			c0,0.2-0.1,0.3-0.1,0.5C244.6,165.6,243.7,165.8,242.8,166z"/>
		<path class="st8" d="M241.4,166.4c0.1,0.3,0.3,0.6,0.4,0.9c0.4,1,0.5,1.9,0.3,2.7c-0.1,0.8-0.5,1.6-1.1,2.2
			c-0.3,0.3-0.7,0.6-1.3,0.9c0,0-0.1,0-0.2,0.1c-0.1-0.1-0.1-0.2-0.2-0.2c-0.4-0.5-0.5-0.9-0.6-1.3c-0.2-1-0.1-1.9,0.3-2.8
			c0.3-0.6,0.7-1.2,1.3-1.7c0.3-0.2,0.6-0.4,0.9-0.6C241.3,166.5,241.3,166.5,241.4,166.4z"/>
		<path class="st8" d="M207.5,157c0.2,0.4,0.4,0.8,0.5,1.2c0.4,1.2,0.3,2.2-0.1,3.2c-0.2,0.6-0.6,1.2-1.3,1.7
			c-0.3,0.2-0.5,0.4-1.1,0.6c-0.1-0.1-0.2-0.2-0.2-0.3c-0.4-0.6-0.6-1.2-0.6-1.8c0-0.6,0-1.2,0.1-1.7c0.1-0.6,0.5-1.1,0.8-1.6
			c0.4-0.5,0.9-0.9,1.6-1.3c0,0,0.1,0,0.1-0.1C207.4,157,207.5,157,207.5,157z"/>
		<path class="st8" d="M199,154.7c0.1,0.2,0.3,0.5,0.4,0.8c0.6,1.3,0.5,2.5,0.1,3.6c-0.3,0.7-0.7,1.3-1.3,1.8
			c-0.2,0.2-0.6,0.4-1,0.5c-0.3-0.2-0.4-0.5-0.5-0.7c-0.4-0.9-0.5-1.8-0.3-2.6c0.2-1,0.6-1.9,1.5-2.6c0.3-0.3,0.7-0.5,1-0.7
			C198.8,154.7,198.9,154.6,199,154.7C198.9,154.6,198.9,154.6,199,154.7z"/>
		<path class="st8" d="M224.4,161.7c0.1,0.2,0.2,0.4,0.3,0.7c0.4,0.9,0.5,1.8,0.4,2.6c-0.1,0.8-0.4,1.5-0.9,2.2
			c-0.3,0.4-0.7,0.8-1.4,1.1c-0.1,0.1-0.2,0.1-0.3,0.1c0,0-0.1,0-0.1,0c-0.1-0.2-0.2-0.3-0.3-0.5c-0.3-0.5-0.4-1.1-0.5-1.5
			c-0.1-0.8,0-1.6,0.4-2.3c0.3-0.7,0.8-1.4,1.6-1.9c0.2-0.2,0.5-0.3,0.7-0.5C224.4,161.7,224.4,161.7,224.4,161.7z"/>
		<path class="st8" d="M230.9,170.8c-0.1-0.2-0.3-0.4-0.4-0.7c-0.3-0.7-0.4-1.2-0.4-1.8c0-0.6,0.1-1.2,0.4-1.7
			c0.2-0.5,0.6-0.9,0.9-1.3c0.3-0.4,0.8-0.7,1.3-1.1c0.1,0,0.1-0.1,0.3-0.1c0.1,0.2,0.3,0.5,0.4,0.7c0.5,1.3,0.5,2.4,0.1,3.5
			c-0.3,0.8-0.8,1.5-1.6,2.2c-0.2,0.1-0.5,0.2-0.7,0.4C231,170.8,231,170.8,230.9,170.8z"/>
		<path class="st8" d="M214,166.1c-0.1-0.2-0.3-0.4-0.4-0.6c-0.2-0.4-0.3-0.9-0.4-1.3c-0.2-0.9,0-1.8,0.4-2.6c0.2-0.5,0.6-0.9,1-1.3
			c0.3-0.3,0.8-0.6,1.2-0.9c0,0,0.1,0,0.1-0.1c0.4,0.6,0.5,1.1,0.7,1.6c0.2,0.9,0.2,1.7,0,2.4c-0.2,0.8-0.7,1.6-1.5,2.2
			c-0.2,0.2-0.6,0.4-1,0.6C214.1,166.1,214,166.1,214,166.1z"/>
		<path class="st8" d="M190.5,152.3c0.1,0.3,0.4,0.7,0.4,1c0.1,0.5,0.3,1,0.3,1.6c0.1,0.7-0.1,1.4-0.4,2c-0.3,0.6-0.7,1.2-1.4,1.7
			c-0.2,0.2-0.6,0.3-0.8,0.4c-0.1,0-0.1,0-0.1,0c-0.1-0.2-0.3-0.4-0.4-0.6c-0.3-0.6-0.4-1.2-0.4-1.7c0-0.7,0.1-1.4,0.4-2.1
			c0.2-0.4,0.5-0.8,0.9-1.2c0.4-0.4,0.9-0.7,1.3-1C190.4,152.3,190.4,152.3,190.5,152.3C190.4,152.3,190.5,152.3,190.5,152.3z"/>
	</g>
</g>
</svg>
