<?xml version="1.0" encoding="utf-8"?>
<!-- Generator: Adobe Illustrator 23.1.1, SVG Export Plug-In . SVG Version: 6.00 Build 0)  -->
<svg version="1.1" xmlns="http://www.w3.org/2000/svg" xmlns:xlink="http://www.w3.org/1999/xlink" x="0px" y="0px"
	 viewBox="0 0 267.3 162.4" style="enable-background:new 0 0 267.3 162.4;" xml:space="preserve">
<style type="text/css">
	.st0{fill:#676868;}
	.st1{fill:#E93A27;}
	.st2{fill:#CCCCCB;}
	.st3{fill:#7A6451;}
	.st4{fill:#595A5A;}
	.st5{fill:#DC8843;}
	.st6{fill:#917259;}
	.st7{fill:#BD7F4D;}
	.st8{fill:#151515;}
	.st9{fill:#CC7329;}
	.st10{fill:#585756;}
	.st11{fill:#F7EC13;stroke:#5D5B5C;stroke-width:2;stroke-linecap:round;stroke-linejoin:round;stroke-miterlimit:10;}
	.st12{fill:#282826;stroke:#5D5B5C;stroke-width:2;stroke-linecap:round;stroke-linejoin:round;stroke-miterlimit:10;}
	.st13{display:none;opacity:0.48;}
	.st14{fill:none;}
	.st15{fill:#FFFFFF;}
	.st16{font-family:'Helvetica';}
	.st17{font-size:13.5225px;}
</style>
<g id="Layer_1">
	<g>
		<g>
			<g>
				<g>
					<g>
						<path class="st0" d="M105.1,106.2c0-0.3,0-0.7,0-1c0-17.7,0-35.4,0-53.1c0-4.4,3.1-8.4,7.5-9.3c0.6-0.1,1.2-0.1,1.7-0.1
							c48,0,95.9,0,143.8,0c4.7,0,8.9,4,9.1,8.2c0.1,1.1,0.1,2.2,0.1,3.2c0,20,0,40.1,0,60.1c0,3.4-1,6.3-3.9,8.4
							c-1.6,1.1-3.4,1.8-5.3,1.8c-6.3,0.1-12.7,0-19,0c0-0.1,0-0.1,0-0.2c0.2-0.2,0.3-0.5,0.2-0.8c0-0.1,0-0.1,0-0.2
							c6.1,0,12.1,0,18.1,0c0.7,0,1.4-0.1,2.2-0.2c3.9-0.9,6.3-3.8,6.4-7.1c0.2-7.8,0.1-15.7,0-23.6c0-0.1,0-0.1,0-0.2
							c0.4-0.3,0.6-0.7,0.6-1.2c0-4.9,0-9.9,0-14.8c0-0.5-0.1-1-0.8-1.1c0.2-0.4,0.2-0.8,0.2-1.2c0-7.1,0-14.2,0-21.3
							c0-0.9-0.1-1.9-0.4-2.8c-1-3.6-4.1-5.8-8.1-5.8c-35.2,0-70.5,0-105.7,0c-0.2-0.6-0.7-0.7-1.2-0.7c-3.8,0-7.5,0-11.2,0
							c-0.4,0-0.9,0-1.1,0.5c0,0.2-0.1,0.2-0.1,0.3c-7.8,0-15.6,0-23.4,0c-0.7,0-1.4,0-2,0.1c-3.9,0.8-6.4,4-6.4,8.2
							c0,14.4,0,28.7,0,43.1c0,3.6,0,7.1,0,10.6C105.9,105.9,105.5,106,105.1,106.2z"/>
						<path class="st0" d="M225.8,124.4c-0.4,0-0.7,0-1.1,0c-36.7,0-73.3,0-110,0c-4.8,0-8.5-3-9.5-7.6c-0.1-0.7-0.1-1.3-0.1-1.9
							c0.4,0.3,0.8,0.3,1.3,0.2c-0.1,4.2,3.4,8,8.3,8c37,0,73.9,0,110.9,0c-0.1,0.4,0,0.8,0.2,1.1
							C225.8,124.3,225.8,124.4,225.8,124.4z"/>
						<path class="st1" d="M225.8,124.2c-0.2-0.4-0.3-0.7-0.2-1.1c0.3-0.3,0.7-0.4,1.2-0.4c3.8,0,7.5,0,11.3,0c0.4,0,0.8,0,1,0.4
							c0.1,0.1,0.1,0.2,0.1,0.2c0.1,0.3,0,0.6-0.2,0.8c-0.1,0.1-0.2,0.1-0.3,0.2c-4.2,0-8.5,0-12.7,0
							C226,124.4,225.9,124.3,225.8,124.2z"/>
						<path class="st1" d="M106.4,115.1c-0.4,0-0.9,0.1-1.3-0.2c0-0.1,0-0.2-0.1-0.2c0-0.1,0-0.1-0.1-0.2c0-1.1,0-2.2,0-3.2v-0.1
							v-0.1c0-0.1,0.1-0.2,0.1-0.3c0.4-0.2,0.9,0.2,1.2-0.2C107,112.1,107.1,113.6,106.4,115.1z"/>
						<path class="st2" d="M106.4,110.6c-0.4,0.3-0.9,0-1.2,0.2c-0.3-1.5-0.3-3,0-4.5c0.4-0.2,0.8-0.3,1.2-0.2
							C106.9,107.5,106.8,109.1,106.4,110.6z"/>
						<path class="st3" d="M105,114.4c0,0.1,0,0.1,0.1,0.2C105.1,114.6,105,114.5,105,114.4z"/>
						<path class="st3" d="M105.1,111L105.1,111v0.2C105,111.1,105,111.1,105.1,111z"/>
						<path class="st4" d="M225.8,124.2c0.1,0.1,0.2,0.1,0.2,0.2c-0.1,0-0.2,0-0.3,0C225.8,124.4,225.8,124.3,225.8,124.2z"/>
						<path class="st4" d="M238.8,124.4c0.1-0.1,0.2-0.1,0.3-0.2c0,0.1,0,0.1,0,0.2C239,124.4,238.9,124.4,238.8,124.4z"/>
						<path class="st5" d="M106.4,110.6c0.4-1.5,0.5-3-0.1-4.5c0-3.6,0-7.1,0-10.6c0-14.4,0-28.7,0-43.1c0-4.2,2.4-7.3,6.4-8.2
							c0.7-0.1,1.4-0.1,2-0.1c7.8,0,15.6,0,23.4,0c0.1,0,0.1,0.1,0.2,0.1c-0.1,0.9,0.5,1,1.2,1c3.7,0,7.4,0,11.2,0
							c0.7,0,1.2-0.3,1.2-1c35.2,0,70.5,0,105.7,0c4,0,7.1,2.2,8.1,5.8c0.2,0.9,0.4,1.8,0.4,2.8c0,7.1,0,14.2,0,21.3
							c0,0.4,0.1,0.8-0.2,1.2c-0.7,0.1-0.9,0.5-0.9,1.1c0,4.9,0,9.8,0,14.8c0,0.6,0.2,1.1,0.9,1.2c0.1,0.1,0.1,0.1,0.2,0.2
							c0,7.8,0.2,15.7,0,23.6c-0.1,3.2-2.4,6.2-6.4,7.1c-0.7,0.2-1.4,0.2-2.2,0.2c-6.1,0-12.1,0-18.1,0c-0.1,0-0.1,0-0.2,0
							c-0.2-0.4-0.6-0.4-1-0.4c-3.8,0-7.5,0-11.3,0c-0.5,0-0.8,0.1-1.2,0.4c-37,0-73.9,0-110.9,0c-4.9,0-8.4-3.8-8.3-8
							C107.1,113.6,107,112.1,106.4,110.6z M250.2,57.7c0.1,0,0.3,0,0.3,0c0.1-0.2-0.1-0.3-0.3-0.3c-0.7-0.5-1.5-0.7-2.4-0.7
							c-8.2,0-16.4,0-24.7,0c-1,0-1.9,0.3-2.7,1c-1.5,1.1-1.7,2.7-1.7,4.3c0,14.3,0,28.5,0,42.8c0,0.5,0.1,1.1,0.1,1.6
							c0.3,2.2,2.1,3.7,4.3,3.7c8.3,0,16.5,0,24.8,0c0.9,0,1.8-0.2,2.7-1.1c-0.6,0-1,0-1.4,0c-8.1,0-16.3-0.1-24.5,0
							c-2.7,0-5-1.6-5-4.9c0-13.8,0-27.5,0-41.3c0-0.9,0-1.8,0.4-2.6c0.8-1.6,2.1-2.5,4-2.5C232.9,57.7,241.5,57.7,250.2,57.7z
							 M160,104.2c13.3,0,26.7,0,40,0c1,0,1.2-0.3,1.2-1.2c0-12.9,0-25.8,0-38.7c0-0.9-0.2-1.2-1.2-1.2c-26.6,0-53.3,0-79.9,0
							c-1,0-1.2,0.2-1.2,1.2c0,12.9,0,25.8,0,38.7c0,0.9,0.2,1.3,1.2,1.3C133.5,104.2,146.8,104.2,160,104.2z M238.2,87.3
							c0-0.1,0-0.2,0.1-0.2c0.4,0,0.7,0,1,0c3.3,0,6.5,0,9.8,0c0.9,0,1.1-0.3,1.1-1.1c-0.1-0.9,0-1.9,0-2.8c0-0.6-0.2-0.9-0.8-0.9
							c-5.7,0-11.4,0-17.1,0c-0.7,0-0.9,0.3-0.8,0.9c0,1.2,0.1,2.3,0,3.5c-0.1,0.8,0.2,1.3,1,1.7c2.4,1,4.8,2.1,7.1,3.2
							c0.3,0.1,0.8,0.1,0.8,0.5s-0.5,0.4-0.8,0.6c-2.4,1.1-4.8,2.2-7.2,3.2c-0.5,0.2-0.9,0.4-0.9,1.1c0,1.4,0,2.8,0,4.1
							c0,0.5,0.2,0.8,0.8,0.8c5.7,0,11.5,0,17.2,0c0.6,0,0.8-0.2,0.8-0.8c0-0.9-0.1-1.9,0-2.8c0-0.8-0.3-1-1-1c-3.3,0-6.6,0-9.9,0
							c-0.3,0-0.7,0-1,0c2.1-1.1,4.2-2,6.4-2.9c0.5-0.2,1.1-0.3,1.2-1c0.4-2.2,0-2.9-2-3.7h-0.1C241.9,88.9,240.1,88.1,238.2,87.3z
							 M231.5,70.7c0,1.8,0.1,3.6,0,5.4c0,0.9,0.2,1.3,1.2,1.2c2.8-0.1,5.5-0.1,8.3,0c1,0,1.3-0.2,1-1.2c-0.5-1.8-0.6-3.7-0.2-5.6
							c0.3-1.2,1.1-2,2.2-2.1c1.1-0.1,2.1,0.5,2.5,1.7c0.4,1,0.6,2.1,0.4,3.2c-0.2,1.3-0.6,2.6-1.3,3.8c-0.4,0.8-0.2,1.1,0.7,1.1
							c0.8,0,1.5,0,2.3,0c0.6,0,0.9-0.2,1.1-0.8c0.5-1.4,0.7-2.8,0.8-4.2c0.2-2.6,0-5.1-1.7-7.2c-1.6-2.1-3.8-2.7-6.2-2.3
							c-2.2,0.3-3.5,1.8-4.1,3.8c-0.4,1.4-0.6,2.8-0.5,4.3c0,0.7-0.2,1-0.9,1c-0.2,0-0.5,0-0.8,0c-0.9,0.1-1.2-0.2-1.2-1.1
							c0.1-1.6,0-3.3,0-4.9c0-2.8,0-2.8-2.8-2.7c-0.7,0-0.9,0.3-0.9,1C231.5,66.9,231.5,68.8,231.5,70.7z"/>
						<path class="st2" d="M265.9,92.1c-0.6-0.1-0.9-0.6-0.9-1.2c0-4.9,0-9.8,0-14.8c0-0.6,0.2-1.1,0.9-1.1c0.7,0,0.8,0.5,0.8,1.1
							c0,4.9,0,9.9,0,14.8c0,0.5-0.2,0.9-0.6,1.2C266,92.1,265.9,92.1,265.9,92.1z"/>
						<path class="st2" d="M151.9,44c0,0.8-0.5,1-1.2,1c-3.7,0-7.4,0-11.2,0c-0.7,0-1.3-0.1-1.2-1c0-0.1,0-0.1,0-0.2
							c0.2-0.5,0.7-0.5,1.1-0.5c3.8,0,7.5,0,11.2,0C151.3,43.3,151.7,43.4,151.9,44z"/>
						<path class="st6" d="M138.4,43.8c0,0.1,0,0.1,0,0.2c-0.1,0-0.1,0-0.2-0.1C138.2,43.9,138.3,43.9,138.4,43.8z"/>
						<path class="st7" d="M239.1,123.1c0.1,0,0.1,0,0.2,0c0,0.1,0,0.1,0,0.2C239.2,123.3,239.2,123.2,239.1,123.1z"/>
						<path class="st7" d="M265.9,92.1c0.1,0,0.1,0,0.2,0c0,0.1,0,0.1,0,0.2C266,92.2,265.9,92.2,265.9,92.1z"/>
						<path class="st8" d="M160,104.2c-13.3,0-26.5,0-39.8,0c-1,0-1.2-0.3-1.2-1.3c0-12.9,0-25.8,0-38.7c0-0.9,0.2-1.2,1.2-1.2
							c26.6,0,53.3,0,79.9,0c1,0,1.2,0.3,1.2,1.2c0,12.9,0,25.8,0,38.7c0,1-0.2,1.2-1.2,1.2C186.7,104.2,173.4,104.2,160,104.2z"/>
						<path class="st9" d="M238.2,87.3c1.8,0.8,3.7,1.6,5.5,2.4h0.1c2,0.8,2.4,1.6,2,3.7c-0.1,0.7-0.7,0.8-1.2,1
							c-2.1,0.9-4.2,1.8-6.4,2.9c0.3,0,0.7,0,1,0c3.3,0,6.6,0,9.9,0c0.7,0,1.1,0.2,1,1c-0.1,0.9,0,1.9,0,2.8c0,0.6-0.2,0.8-0.8,0.8
							c-5.7,0-11.5,0-17.2,0c-0.6,0-0.8-0.2-0.8-0.8c0-1.4,0-2.8,0-4.1c0-0.7,0.4-0.9,0.9-1.1c2.4-1.1,4.8-2.1,7.2-3.2
							c0.3-0.1,0.8-0.2,0.8-0.6s-0.5-0.4-0.8-0.5c-2.4-1.1-4.7-2.2-7.1-3.2c-0.8-0.3-1.1-0.8-1-1.7c0.1-1.2,0-2.3,0-3.5
							c0-0.6,0.1-0.9,0.8-0.9c5.7,0,11.4,0,17.1,0c0.6,0,0.8,0.3,0.8,0.9c0,0.9-0.1,1.9,0,2.8c0.1,0.8-0.2,1.1-1.1,1.1
							c-3.3-0.1-6.5,0-9.8,0c-0.4,0-0.7,0-1,0C238.3,87.2,238.3,87.2,238.2,87.3z"/>
						<path class="st9" d="M231.5,70.7c0-1.9,0-3.8,0-5.7c0-0.7,0.2-0.9,0.9-1c2.8-0.1,2.8-0.1,2.8,2.7c0,1.6,0.1,3.3,0,4.9
							c0,0.9,0.3,1.2,1.2,1.1c0.2,0,0.5,0,0.8,0c0.7,0.1,0.9-0.3,0.9-1c0-1.4,0.1-2.9,0.5-4.3c0.6-2.1,1.9-3.5,4.1-3.8
							c2.4-0.3,4.6,0.2,6.2,2.3c1.7,2.2,1.9,4.7,1.7,7.2c-0.1,1.4-0.3,2.9-0.8,4.2c-0.2,0.6-0.5,0.8-1.1,0.8c-0.8-0.1-1.5,0-2.3,0
							c-0.9,0-1.2-0.3-0.7-1.1c0.7-1.2,1-2.5,1.3-3.8c0.2-1.1,0-2.2-0.4-3.2c-0.5-1.2-1.5-1.8-2.5-1.7s-1.9,0.9-2.2,2.1
							c-0.4,1.9-0.4,3.7,0.2,5.6c0.3,1,0,1.2-1,1.2c-2.8-0.1-5.5-0.1-8.3,0c-1,0-1.2-0.3-1.2-1.2C231.5,74.3,231.5,72.5,231.5,70.7z
							"/>
						<path class="st10" d="M250.2,57.7c-8.7,0-17.3,0-26,0c-1.9,0-3.2,0.8-4,2.5c-0.4,0.8-0.4,1.8-0.4,2.6c0,13.8,0,27.5,0,41.3
							c0,3.4,2.3,5,5,4.9c8.1-0.1,16.3,0,24.5,0c0.4,0,0.8,0,1.4,0c-0.9,0.8-1.8,1.1-2.7,1.1c-8.3,0-16.5,0-24.8,0
							c-2.2,0-3.9-1.6-4.3-3.7c-0.1-0.5-0.1-1.1-0.1-1.6c0-14.3,0-28.5,0-42.8c0-1.7,0.3-3.3,1.7-4.3c0.8-0.6,1.7-1,2.7-1
							c8.2,0,16.4,0,24.7,0c0.9,0,1.6,0.2,2.4,0.7C250.2,57.4,250.2,57.6,250.2,57.7z"/>
						<path class="st3" d="M250.2,57.7c0-0.1,0-0.2,0-0.4c0.2,0.1,0.3,0.1,0.3,0.3C250.5,57.7,250.3,57.7,250.2,57.7z"/>
					</g>
					<rect x="119.3" y="62.9" class="st11" width="82" height="41.9"/>
				</g>
				<g>
					<g>
						<path class="st0" d="M18.2,0.2c0.3,0,0.7,0,1,0c17.7,0,35.4,0,53.1,0c4.4,0,8.4,3.1,9.3,7.5c0.1,0.6,0.1,1.1,0.1,1.7
							c0,47.9,0,95.9,0,143.8c0,4.7-4,8.9-8.2,9.1c-1.1,0.1-2.2,0.1-3.2,0.1c-20,0-40.1,0-60.1,0c-3.4,0-6.3-1-8.4-3.9
							c-1.1-1.6-1.8-3.4-1.8-5.3c-0.1-6.3,0-12.7,0-19c0.1,0,0.1,0,0.2,0c0.2,0.2,0.5,0.3,0.8,0.2c0.1,0,0.2,0,0.2,0
							c0,6,0,12.1,0,18.1c0,0.7,0.1,1.5,0.2,2.2c0.9,3.9,3.8,6.3,7.1,6.4c7.8,0.2,15.7,0,23.6,0c0.1,0,0.1,0,0.2,0
							c0.3,0.5,0.7,0.6,1.2,0.6c4.9,0,9.9,0,14.8,0c0.5,0,1-0.1,1.1-0.8c0.4,0.2,0.8,0.2,1.2,0.2c7.1,0,14.2,0,21.3,0
							c0.9,0,1.9-0.1,2.8-0.4c3.6-1,5.8-4.1,5.8-8.1c0-35.2,0-70.5,0-105.7c0.6-0.2,0.7-0.7,0.7-1.2c0-3.8,0-7.5,0-11.2
							c0-0.4,0-0.9-0.5-1.1c-0.1-0.1-0.1-0.1-0.1-0.2c0-7.8,0-15.6,0-23.4c0-0.7,0-1.4-0.1-2.1c-0.8-3.9-3.9-6.4-8.2-6.4
							c-14.4,0-28.7,0-43.1,0c-3.6,0-7.1,0-10.6,0C18.5,1,18.4,0.6,18.2,0.2z"/>
						<path class="st0" d="M0,120.9c0-0.4,0-0.7,0-1.1c0-36.7,0-73.3,0-110C0,5,3,1.3,7.6,0.3c0.7-0.1,1.3-0.1,1.9-0.1
							C9.2,0.6,9.2,1,9.3,1.5c-4.2-0.1-8,3.4-8,8.3c0,37,0,73.9,0,110.9c-0.4-0.1-0.8,0-1.1,0.2C0.1,120.9,0.1,120.9,0,120.9z"/>
						<path class="st1" d="M0.2,120.9c0.3-0.2,0.7-0.3,1.1-0.2c0.3,0.3,0.4,0.7,0.4,1.2c0,3.8,0,7.5,0,11.3c0,0.4,0,0.8-0.4,1
							c-0.1,0-0.2,0.1-0.2,0.1c-0.3,0.1-0.6,0-0.8-0.2c-0.1-0.1-0.1-0.2-0.2-0.3c0-4.2,0-8.5,0-12.7C0.1,121.1,0.1,121,0.2,120.9z"
							/>
						<path class="st1" d="M9.3,1.5c0-0.4-0.1-0.9,0.2-1.3c0.1,0,0.2,0,0.2-0.1c0.1,0,0.1,0,0.2-0.1c1.1,0,2.2,0,3.2,0l0.1,0.1h0.1
							c0.1,0,0.2,0.1,0.3,0.1c0.2,0.4-0.2,0.9,0.2,1.2C12.3,2,10.8,2.1,9.3,1.5z"/>
						<path class="st2" d="M13.9,1.5c-0.3-0.4,0-0.9-0.2-1.2c1.5-0.3,3-0.3,4.5-0.1c0.2,0.4,0.3,0.8,0.2,1.2
							C16.9,2,15.4,1.9,13.9,1.5z"/>
						<path class="st3" d="M10,0.1c-0.1,0-0.1,0-0.2,0.1C9.8,0.1,9.9,0.1,10,0.1z"/>
						<path class="st3" d="M13.4,0.1L13.4,0.1L13.2,0C13.3,0,13.3,0,13.4,0.1z"/>
						<path class="st4" d="M0.2,120.9c-0.1,0.1-0.1,0.2-0.2,0.2c0-0.1,0-0.2,0-0.3C0.1,120.9,0.1,120.9,0.2,120.9z"/>
						<path class="st4" d="M0,133.9c0.1,0.1,0.1,0.2,0.2,0.3c-0.1,0-0.1,0-0.2,0C0,134.1,0,134,0,133.9z"/>
						<path class="st5" d="M13.9,1.5c1.5,0.4,3,0.5,4.5-0.1c3.6,0,7.1,0,10.6,0c14.4,0,28.7,0,43.1,0c4.2,0,7.3,2.4,8.2,6.4
							c0.1,0.7,0.1,1.4,0.1,2.1c0,7.8,0,15.6,0,23.4c0,0.1-0.1,0.1-0.1,0.2c-0.9-0.1-1,0.5-1,1.2c0,3.7,0,7.4,0,11.1
							c0,0.7,0.3,1.2,1.1,1.2c0,35.2,0,70.5,0,105.7c0,4-2.2,7.1-5.8,8.1c-0.9,0.2-1.9,0.4-2.8,0.4c-7.1,0-14.2,0-21.3,0
							c-0.4,0-0.8,0.1-1.2-0.2c-0.1-0.7-0.5-0.9-1.1-0.9c-4.9,0-9.8,0-14.8,0c-0.6,0-1.1,0.2-1.2,0.9c-0.1,0-0.1,0.1-0.2,0.2
							c-7.8,0-15.7,0.2-23.6,0c-3.2-0.1-6.2-2.4-7.1-6.4c-0.2-0.7-0.2-1.4-0.2-2.2c0-6,0-12.1,0-18.1c0-0.1,0-0.1,0-0.2
							c0.4-0.2,0.4-0.6,0.4-1c0-3.8,0-7.5,0-11.3c0-0.5-0.1-0.8-0.4-1.2c0-37,0-73.9,0-110.9c0-4.9,3.8-8.4,8-8.3
							C10.8,2.1,12.3,2,13.9,1.5z M66.7,145.2c0,0.1,0,0.3,0,0.3c0.2,0.1,0.3-0.1,0.3-0.3c0.5-0.7,0.7-1.5,0.7-2.4
							c0-8.2,0-16.5,0-24.7c0-1-0.4-1.9-0.9-2.7c-1.1-1.5-2.7-1.7-4.4-1.7c-14.3,0-28.5,0-42.8,0c-0.5,0-1.1,0.1-1.6,0.1
							c-2.2,0.3-3.7,2.1-3.7,4.3c0,8.3,0,16.5,0,24.8c0,1,0.2,1.8,1.1,2.7c0-0.6,0-1,0-1.4c0-8.1,0.1-16.3,0-24.5c0-2.7,1.6-5,4.9-5
							c13.8,0,27.5,0,41.3,0c0.9,0,1.8,0,2.6,0.4c1.6,0.8,2.5,2.1,2.5,4C66.7,127.9,66.7,136.6,66.7,145.2z M20.2,55.1
							c0,13.3,0,26.7,0,40c0,1,0.3,1.2,1.2,1.2c12.9,0,25.8,0,38.7,0c0.9,0,1.2-0.2,1.2-1.2c0-26.6,0-53.3,0-79.9
							c0-1-0.2-1.2-1.2-1.2c-12.9,0-25.8,0-38.7,0c-0.9,0-1.3,0.2-1.3,1.2C20.2,28.6,20.2,41.8,20.2,55.1z M37.1,133.3
							c0.1,0,0.2,0,0.2,0.1c0,0.4,0,0.7,0,1c0,3.3,0,6.5,0,9.8c0,0.9,0.3,1.1,1.1,1.1c0.9-0.1,1.9,0,2.8,0c0.6,0,0.9-0.2,0.9-0.8
							c0-5.7,0-11.4,0-17.1c0-0.7-0.3-0.9-0.9-0.8c-1.2,0-2.3,0.1-3.5,0c-0.8,0-1.3,0.2-1.7,1c-1,2.4-2.1,4.8-3.2,7.1
							c-0.1,0.3-0.1,0.8-0.5,0.8c-0.4,0-0.4-0.5-0.6-0.8c-1.1-2.4-2.2-4.8-3.2-7.2c-0.2-0.5-0.4-0.9-1.1-0.9c-1.4,0-2.8,0-4.1,0
							c-0.5,0-0.8,0.2-0.8,0.8c0,5.7,0,11.5,0,17.2c0,0.6,0.2,0.8,0.8,0.8c0.9,0,1.9,0,2.8,0c0.8,0,1-0.3,1-1c0-3.3,0-6.6,0-9.9
							c0-0.3,0-0.7,0-1c1.1,2.1,2,4.2,2.9,6.4c0.2,0.5,0.3,1,1,1.2c2.2,0.4,2.9,0,3.7-2V139C35.5,137,36.3,135.1,37.1,133.3z
							 M53.8,126.6c-1.8,0-3.6,0-5.4,0c-0.9,0-1.3,0.2-1.2,1.2c0.1,2.8,0.1,5.5,0,8.3c0,1,0.2,1.3,1.2,1c1.8-0.5,3.7-0.6,5.6-0.2
							c1.2,0.3,2,1.1,2.1,2.2c0.1,1.1-0.5,2.1-1.7,2.5c-1,0.4-2.1,0.6-3.2,0.4c-1.3-0.2-2.6-0.6-3.8-1.3c-0.8-0.4-1.1-0.2-1.1,0.7
							c0,0.8,0,1.5,0,2.3c0,0.6,0.2,0.9,0.8,1.1c1.4,0.5,2.8,0.7,4.2,0.8c2.6,0.2,5.1,0,7.2-1.7c2.1-1.6,2.6-3.8,2.3-6.2
							c-0.3-2.2-1.8-3.5-3.9-4.1c-1.4-0.4-2.8-0.6-4.3-0.5c-0.7,0-1-0.2-1-0.9c0-0.2,0-0.5,0-0.8c-0.1-0.9,0.2-1.2,1.1-1.2
							c1.6,0.1,3.3,0,4.9,0c2.8,0,2.8,0,2.7-2.8c0-0.7-0.3-0.9-1-0.9C57.6,126.6,55.7,126.6,53.8,126.6z"/>
						<path class="st2" d="M32.3,160.9c0.1-0.6,0.6-0.9,1.2-0.9c4.9,0,9.8,0,14.8,0c0.6,0,1.1,0.2,1.1,0.9s-0.5,0.8-1.1,0.8
							c-4.9,0-9.9,0-14.8,0c-0.5,0-0.9-0.2-1.2-0.6C32.3,161.1,32.3,161,32.3,160.9z"/>
						<path class="st2" d="M80.4,47c-0.8,0-1.1-0.5-1.1-1.2c0-3.7,0-7.4,0-11.1c0-0.7,0.1-1.3,1-1.2c0.1,0,0.1,0,0.2,0
							c0.5,0.2,0.5,0.7,0.5,1.1c0,3.8,0,7.5,0,11.2C81.1,46.3,81,46.8,80.4,47z"/>
						<path class="st6" d="M80.6,33.4c-0.1,0-0.1,0-0.2,0c0-0.1,0-0.1,0.1-0.2C80.5,33.3,80.6,33.3,80.6,33.4z"/>
						<path class="st7" d="M1.3,134.2c0,0.1,0,0.1,0,0.2c-0.1,0-0.2,0-0.2,0C1.1,134.3,1.2,134.2,1.3,134.2z"/>
						<path class="st7" d="M32.3,160.9c0,0.1,0,0.1,0,0.2c-0.1,0-0.1,0-0.2,0C32.2,161,32.3,161,32.3,160.9z"/>
						<path class="st8" d="M20.2,55.1c0-13.3,0-26.5,0-39.8c0-1,0.3-1.2,1.3-1.2c12.9,0,25.8,0,38.7,0c0.9,0,1.2,0.2,1.2,1.2
							c0,26.6,0,53.3,0,79.9c0,1-0.3,1.2-1.2,1.2c-12.9,0-25.8,0-38.7,0c-1,0-1.2-0.2-1.2-1.2C20.2,81.8,20.2,68.4,20.2,55.1z"/>
						<path class="st9" d="M37.1,133.3c-0.8,1.8-1.6,3.7-2.4,5.5v0.1c-0.8,2-1.6,2.4-3.7,2c-0.7-0.1-0.8-0.7-1-1.2
							c-0.9-2.1-1.8-4.2-2.9-6.4c0,0.3,0,0.7,0,1c0,3.3,0,6.6,0,9.9c0,0.7-0.2,1.1-1,1c-0.9,0-1.9,0-2.8,0c-0.6,0-0.8-0.2-0.8-0.8
							c0-5.7,0-11.5,0-17.2c0-0.6,0.2-0.8,0.8-0.8c1.4,0,2.8,0,4.1,0c0.7,0,0.9,0.4,1.1,0.9c1.1,2.4,2.1,4.8,3.2,7.2
							c0.1,0.3,0.2,0.8,0.6,0.8c0.4,0,0.4-0.5,0.5-0.8c1.1-2.4,2.2-4.7,3.2-7.1c0.3-0.8,0.8-1.1,1.7-1c1.2,0.1,2.3,0,3.5,0
							c0.6,0,0.9,0.1,0.9,0.8c0,5.7,0,11.4,0,17.1c0,0.6-0.3,0.8-0.9,0.8c-0.9,0-1.9,0-2.8,0c-0.8,0-1.1-0.2-1.1-1.1
							c0.1-3.3,0-6.5,0-9.8c0-0.4,0-0.7,0-1C37.3,133.3,37.2,133.3,37.1,133.3z"/>
						<path class="st9" d="M53.8,126.6c1.9,0,3.8,0,5.6,0c0.7,0,0.9,0.2,1,0.9c0.1,2.8,0.1,2.8-2.7,2.8c-1.6,0-3.3,0-4.9,0
							c-0.9,0-1.2,0.3-1.1,1.2c0,0.2,0,0.5,0,0.8c-0.1,0.7,0.3,0.9,1,0.9c1.4,0,2.9,0.1,4.3,0.5c2.1,0.6,3.5,1.9,3.9,4.1
							c0.4,2.4-0.2,4.6-2.3,6.2c-2.1,1.7-4.7,1.9-7.2,1.7c-1.4-0.1-2.9-0.3-4.2-0.8c-0.6-0.2-0.8-0.5-0.8-1.1c0.1-0.8,0-1.5,0-2.3
							c0-0.9,0.3-1.2,1.1-0.7c1.2,0.7,2.5,1,3.8,1.3c1.1,0.2,2.2,0,3.2-0.4c1.1-0.5,1.8-1.5,1.7-2.5s-0.9-1.9-2.1-2.2
							c-1.9-0.5-3.7-0.4-5.6,0.2c-1,0.3-1.2,0-1.2-1c0.1-2.8,0.1-5.5,0-8.3c0-1,0.3-1.2,1.2-1.2C50.2,126.6,52,126.6,53.8,126.6z"/>
						<path class="st10" d="M66.7,145.2c0-8.7,0-17.3,0-26c0-1.9-0.9-3.2-2.5-4c-0.8-0.4-1.8-0.4-2.6-0.4c-13.8,0-27.5,0-41.3,0
							c-3.4,0-5,2.3-4.9,5c0.1,8.1,0,16.3,0,24.5c0,0.4,0,0.8,0,1.4c-0.8-0.9-1.1-1.8-1.1-2.7c0-8.3,0-16.5,0-24.8
							c0-2.2,1.6-3.9,3.7-4.3c0.5-0.1,1.1-0.1,1.6-0.1c14.3,0,28.5,0,42.8,0c1.7,0,3.3,0.3,4.4,1.7c0.6,0.8,0.9,1.7,0.9,2.7
							c0,8.2,0,16.5,0,24.7c0,0.9-0.2,1.6-0.7,2.4C67,145.2,66.9,145.2,66.7,145.2z"/>
						<path class="st3" d="M66.7,145.2c0.1,0,0.2,0,0.4,0c-0.1,0.2-0.1,0.3-0.3,0.3C66.7,145.5,66.8,145.3,66.7,145.2z"/>
					</g>
					<rect x="19.7" y="14.4" class="st12" width="41.9" height="82"/>
				</g>
			</g>
			<g class="st13">
			</g>
			<g id="Layer_4">
				<g>
					<rect x="19.7" y="14.4" class="st12" width="41.9" height="82"/>
				</g>
				<g>
					<rect x="119.3" y="62.9" class="st12" width="82" height="41.9"/>
				</g>
			</g>
			<g id="Layer_3">
			</g>
		</g>
	</g>
	<g id="Layer_4_1_">
		<rect x="24.9" y="20.7" class="st14" width="23.3" height="13.1"/>
		<rect x="124.5" y="69.5" class="st14" width="23.3" height="13.1"/>
	</g>
	<g id="Layer_3_1_">
	</g>
</g>
<g id="Layer_2">
	<text transform="matrix(1.0655 0 0 1 121.5834 76.7382)" class="st15 st16 st17">Hello!</text>
</g>
<g id="Layer_3_2_">
	<text transform="matrix(1.0655 0 0 1 21.9834 27.9382)" class="st15 st16 st17">Hello!</text>
</g>
</svg>
