<?xml version="1.0" encoding="utf-8"?>
<!-- Generator: Adobe Illustrator 23.1.1, SVG Export Plug-In . SVG Version: 6.00 Build 0)  -->
<svg version="1.1" id="Layer_1" xmlns="http://www.w3.org/2000/svg" xmlns:xlink="http://www.w3.org/1999/xlink" x="0px" y="0px"
	 viewBox="0 0 841.89 595.28" style="enable-background:new 0 0 841.89 595.28;" xml:space="preserve">
<style type="text/css">
	.st0{fill:none;stroke:#345CAA;stroke-width:2;stroke-linecap:round;stroke-linejoin:round;stroke-miterlimit:10;}
	.st1{fill:none;stroke:#305DAA;stroke-width:2;stroke-linecap:round;stroke-linejoin:round;stroke-miterlimit:10;}
	.st2{fill:none;stroke:#8D191C;stroke-width:3;stroke-linecap:round;stroke-linejoin:round;stroke-miterlimit:10;}
	.st3{fill:#DC8843;stroke:#565656;stroke-width:3;stroke-linecap:round;stroke-linejoin:round;stroke-miterlimit:10;}
	.st4{fill:#DC8843;stroke:#8D191C;stroke-width:3;stroke-linecap:round;stroke-linejoin:round;stroke-miterlimit:10;}
	.st5{fill:none;stroke:#53B949;stroke-width:3;stroke-linecap:round;stroke-linejoin:round;stroke-miterlimit:10;}
	.st6{fill:none;stroke:#345CAA;stroke-width:3;stroke-linecap:round;stroke-linejoin:round;stroke-miterlimit:10;}
	.st7{fill:#010101;}
</style>
<g>
	<path class="st0" d="M142.56,82.84c0,0-13.45-0.17-13.45,5.86c0,11.86,41.69,11.07,41.69,0c0,0,0-6.03-13.18-6.02"/>
	<g>
		<line class="st1" x1="156.16" y1="82.41" x2="161.57" y2="85.87"/>
		<line class="st1" x1="156.16" y1="82.41" x2="161.91" y2="79.49"/>
	</g>
</g>
<g>
	<path class="st2" d="M217.48,218.97c0,0-4.19,12.78,1.56,14.59c11.32,3.55,23.05-36.46,12.49-39.78c0,0-5.75-1.81-9.69,10.77"/>
	<g>
		<line class="st2" x1="221.14" y1="205.85" x2="226.07" y2="201.73"/>
		<line class="st2" x1="221.14" y1="205.85" x2="220.08" y2="199.49"/>
	</g>
</g>
<path class="st3" d="M150.36,46.16"/>
<g>
	<polyline class="st4" points="59.45,167.21 214.96,211.02 253.43,221.86 	"/>
</g>
<g>
	<g>
		<path class="st5" d="M196.31,110.17c0,0-10.67-8.19-14.28-3.37c-7.11,9.5,26.74,33.85,33.37,24.98c0,0,3.61-4.82-6.94-12.72"/>
		<g>
			<line class="st5" x1="207.46" y1="117.98" x2="209.72" y2="124"/>
			<line class="st5" x1="207.46" y1="117.98" x2="213.82" y2="119.1"/>
		</g>
	</g>
	<g>
		<line class="st5" x1="210.34" y1="101.84" x2="96.87" y2="271.64"/>
	</g>
</g>
<g>
	<line class="st6" x1="149.96" y1="296.98" x2="149.96" y2="50.15"/>
</g>
<g>
	<g>
		<g>
			<path class="st7" d="M63.57,159.26l-2.72-3.75h1.46l1.23,1.7c0.27,0.43,0.59,0.9,0.91,1.31h0.06c0.29-0.42,0.61-0.9,0.88-1.33
				l1.15-1.68h1.41l-2.75,3.86l2.98,3.92h-1.47l-1.34-1.79c-0.34-0.43-0.69-0.96-1.02-1.41h-0.06c-0.32,0.46-0.64,0.93-0.96,1.42
				l-1.28,1.78h-1.41L63.57,159.26z"/>
		</g>
	</g>
</g>
<g>
	<g>
		<g>
			<path class="st7" d="M136.96,294.67l5.31-6h-4.72v-1.07h6.63v0.7l-5.31,5.99h5.46v1.09h-7.36v-0.71H136.96z"/>
		</g>
	</g>
</g>
<g>
	<g>
		<path class="st7" d="M93.15,260.78l0.27-1.06c0.21,0.06,0.46,0.11,0.7,0.11c1.09,0,1.75-0.69,2.13-1.65l0.22-0.58l-3.62-7.8h1.34
			l1.89,4.29c0.3,0.69,0.64,1.5,0.96,2.26h0.06c0.27-0.74,0.58-1.55,0.83-2.26l1.68-4.29h1.28l-3.44,8.42
			c-0.58,1.54-1.52,2.71-3.3,2.71C93.81,260.94,93.42,260.87,93.15,260.78z"/>
	</g>
</g>
</svg>
