<?xml version="1.0" encoding="utf-8"?>
<!-- Generator: Adobe Illustrator 23.1.1, SVG Export Plug-In . SVG Version: 6.00 Build 0)  -->
<svg version="1.1" id="Layer_1" xmlns="http://www.w3.org/2000/svg" xmlns:xlink="http://www.w3.org/1999/xlink" x="0px" y="0px"
	 viewBox="0 0 197 252.3" style="enable-background:new 0 0 197 252.3;" xml:space="preserve">
<style type="text/css">
	.st0{fill:none;stroke:#345CAA;stroke-width:2;stroke-linecap:round;stroke-linejoin:round;stroke-miterlimit:10;}
	.st1{fill:none;stroke:#305DAA;stroke-width:2;stroke-linecap:round;stroke-linejoin:round;stroke-miterlimit:10;}
	.st2{fill:none;stroke:#8D191C;stroke-width:3;stroke-linecap:round;stroke-linejoin:round;stroke-miterlimit:10;}
	.st3{fill:#DC8843;stroke:#565656;stroke-width:3;stroke-linecap:round;stroke-linejoin:round;stroke-miterlimit:10;}
	.st4{fill:#DC8843;stroke:#8D191C;stroke-width:3;stroke-linecap:round;stroke-linejoin:round;stroke-miterlimit:10;}
	.st5{fill:none;stroke:#53B949;stroke-width:3;stroke-linecap:round;stroke-linejoin:round;stroke-miterlimit:10;}
	.st6{fill:none;stroke:#345CAA;stroke-width:3;stroke-linecap:round;stroke-linejoin:round;stroke-miterlimit:10;}
	.st7{fill:none;}
	.st8{font-family:'ArialMT';}
	.st9{font-size:12px;}
</style>
<g>
	<path class="st0" d="M84.6,36.7c0,0-13.4-0.2-13.4,5.9c0,11.9,41.7,11.1,41.7,0c0,0,0-6-13.2-6"/>
	<g>
		<line class="st1" x1="98.2" y1="36.3" x2="103.6" y2="39.7"/>
		<line class="st1" x1="98.2" y1="36.3" x2="104" y2="33.3"/>
	</g>
</g>
<g>
	<path class="st2" d="M159.5,172.8c0,0-4.2,12.8,1.6,14.6c11.3,3.6,23.1-36.5,12.5-39.8c0,0-5.8-1.8-9.7,10.8"/>
	<g>
		<line class="st2" x1="163.2" y1="159.7" x2="168.1" y2="155.6"/>
		<line class="st2" x1="163.2" y1="159.7" x2="162.1" y2="153.3"/>
	</g>
</g>
<path class="st3" d="M92.4,0"/>
<g>
	<polyline class="st4" points="1.5,121.1 157,164.9 195.5,175.7 	"/>
</g>
<g>
	<g>
		<path class="st5" d="M138.4,64c0,0-10.7-8.2-14.3-3.4c-7.1,9.5,26.7,33.8,33.4,25c0,0,3.6-4.8-6.9-12.7"/>
		<g>
			<line class="st5" x1="149.5" y1="71.8" x2="151.8" y2="77.8"/>
			<line class="st5" x1="149.5" y1="71.8" x2="155.9" y2="72.9"/>
		</g>
	</g>
	<g>
		<line class="st5" x1="152.4" y1="55.7" x2="38.9" y2="225.5"/>
	</g>
</g>
<g>
	<line class="st6" x1="92" y1="250.8" x2="92" y2="4"/>
</g>
<rect x="32.2" y="209.1" class="st7" width="24.3" height="21.6"/>
<text transform="matrix(1 0 0 1 32.2477 217.6527)" class="st8 st9">y</text>
<rect x="81.4" y="240" class="st7" width="21.2" height="21.6"/>
<text transform="matrix(1 0 0 1 81.4086 248.6034)" class="st8 st9">z</text>
<rect x="4.6" y="108.2" class="st7" width="21.2" height="21.6"/>
<text transform="matrix(1 0 0 1 4.5666 116.8207)" class="st8 st9">x</text>
</svg>
