<?xml version="1.0" encoding="utf-8"?>
<!-- Generator: Adobe Illustrator 23.1.1, SVG Export Plug-In . SVG Version: 6.00 Build 0)  -->
<svg version="1.1" id="Layer_1" xmlns="http://www.w3.org/2000/svg" xmlns:xlink="http://www.w3.org/1999/xlink" x="0px" y="0px"
	 viewBox="0 0 197 252.3" style="enable-background:new 0 0 197 252.3;" xml:space="preserve">
<style type="text/css">
	.st0{fill:none;stroke:#345CAA;stroke-width:2;stroke-linecap:round;stroke-linejoin:round;stroke-miterlimit:10;}
	.st1{fill:none;stroke:#305DAA;stroke-width:2;stroke-linecap:round;stroke-linejoin:round;stroke-miterlimit:10;}
	.st2{fill:none;stroke:#8D191C;stroke-width:3;stroke-linecap:round;stroke-linejoin:round;stroke-miterlimit:10;}
	.st3{fill:#DC8843;stroke:#565656;stroke-width:3;stroke-linecap:round;stroke-linejoin:round;stroke-miterlimit:10;}
	.st4{fill:#DC8843;stroke:#8D191C;stroke-width:3;stroke-linecap:round;stroke-linejoin:round;stroke-miterlimit:10;}
	.st5{fill:none;stroke:#53B949;stroke-width:3;stroke-linecap:round;stroke-linejoin:round;stroke-miterlimit:10;}
	.st6{fill:none;stroke:#345CAA;stroke-width:3;stroke-linecap:round;stroke-linejoin:round;stroke-miterlimit:10;}
	.st7{fill:#010101;}
</style>
<g>
	<path class="st0" d="M84.6,36.7c0,0-13.4-0.2-13.4,5.9c0,11.9,41.7,11.1,41.7,0c0,0,0-6-13.2-6"/>
	<g>
		<line class="st1" x1="98.2" y1="36.3" x2="103.6" y2="39.7"/>
		<line class="st1" x1="98.2" y1="36.3" x2="104" y2="33.3"/>
	</g>
</g>
<g>
	<path class="st2" d="M159.5,172.8c0,0-4.2,12.8,1.6,14.6c11.3,3.6,23.1-36.5,12.5-39.8c0,0-5.8-1.8-9.7,10.8"/>
	<g>
		<line class="st2" x1="163.2" y1="159.7" x2="168.1" y2="155.6"/>
		<line class="st2" x1="163.2" y1="159.7" x2="162.1" y2="153.3"/>
	</g>
</g>
<path class="st3" d="M92.4,0"/>
<g>
	<polyline class="st4" points="1.5,121.1 157,164.9 195.5,175.7 	"/>
</g>
<g>
	<g>
		<path class="st5" d="M138.4,64c0,0-10.7-8.2-14.3-3.4c-7.1,9.5,26.7,33.8,33.4,25c0,0,3.6-4.8-6.9-12.7"/>
		<g>
			<line class="st5" x1="149.5" y1="71.8" x2="151.8" y2="77.8"/>
			<line class="st5" x1="149.5" y1="71.8" x2="155.9" y2="72.9"/>
		</g>
	</g>
	<g>
		<line class="st5" x1="152.4" y1="55.7" x2="38.9" y2="225.5"/>
	</g>
</g>
<g>
	<line class="st6" x1="92" y1="250.8" x2="92" y2="4"/>
</g>
<g>
	<g>
		<g>
			<path class="st7" d="M5.6,113.1l-2.7-3.8h1.5l1.2,1.7c0.3,0.4,0.6,0.9,0.9,1.3h0.1c0.3-0.4,0.6-0.9,0.9-1.3l1.2-1.7H10l-2.8,3.9
				l3,3.9H8.8l-1.3-1.8c-0.3-0.4-0.7-1-1-1.4H6.3c-0.3,0.5-0.6,0.9-1,1.4l-1.3,1.8H2.7L5.6,113.1z"/>
		</g>
	</g>
</g>
<g>
	<g>
		<g>
			<path class="st7" d="M79,248.5l5.3-6h-4.7v-1.1h6.6v0.7l-5.3,6h5.5v1.1H79L79,248.5L79,248.5z"/>
		</g>
	</g>
</g>
<g>
	<g>
		<path class="st7" d="M35.2,214.6l0.3-1.1c0.2,0.1,0.5,0.1,0.7,0.1c1.1,0,1.8-0.7,2.1-1.6l0.2-0.6l-3.6-7.8h1.3l1.9,4.3
			c0.3,0.7,0.6,1.5,1,2.3h0.1c0.3-0.7,0.6-1.6,0.8-2.3l1.7-4.3h1.3l-3.4,8.4c-0.6,1.5-1.5,2.7-3.3,2.7
			C35.9,214.8,35.5,214.7,35.2,214.6z"/>
	</g>
</g>
</svg>
