<?xml version="1.0" encoding="utf-8"?>
<!-- Generator: Adobe Illustrator 23.1.1, SVG Export Plug-In . SVG Version: 6.00 Build 0)  -->
<svg version="1.1" id="Layer_1" xmlns="http://www.w3.org/2000/svg" xmlns:xlink="http://www.w3.org/1999/xlink" x="0px" y="0px"
	 viewBox="0 0 360.4 229.9" style="enable-background:new 0 0 360.4 229.9;" xml:space="preserve">
<style type="text/css">
	.st0{fill:#FFFFFF;}
	.st1{fill:#676767;}
	.st2{fill:#E93725;}
	.st3{fill:#CCCCCB;}
	.st4{fill:#796350;}
	.st5{fill:#595959;}
	.st6{fill:#DC8844;}
	.st7{fill:#907259;}
	.st8{fill:#BD7F4C;}
	.st9{fill:#131313;}
	.st10{fill:#CC732A;}
	.st11{fill:#575655;}
	.st12{fill:#E5F4F7;stroke:#5C5A5C;stroke-width:2;stroke-linecap:round;stroke-linejoin:round;stroke-miterlimit:10;}
	.st13{fill:none;stroke:#0D0D0D;stroke-width:2;stroke-linecap:round;stroke-linejoin:round;stroke-miterlimit:10;}
	.st14{fill:none;stroke:#000000;stroke-width:0.5;stroke-linecap:round;stroke-miterlimit:10;}
</style>
<g id="Layer_4">
</g>
<g id="Layer_3">
</g>
<g id="Layer_5">
	<g>
		<g>
			<path class="st0" d="M359.9,229.9c0-75.6,0-151.2,0.1-226.8c0-2.2-0.5-2.7-2.7-2.7C238.1,0.5,119.1,0.5,0,0.5
				C0.1,0.3-0.2,0,0.2,0c0.6,0,1.2,0,1.8,0c118.8,0,237.5,0,356.3,0c1.7,0,2,0.4,2,2c0,75.3,0,150.6-0.1,225.9
				C360.3,228.6,360.8,229.4,359.9,229.9z"/>
			<path class="st1" d="M18.2,165.7c0-0.7-0.1-1.3-0.1-2c0-36.1,0.1-72.2-0.1-108.3c0-9,6.4-17.1,15.2-18.9c1.2-0.2,2.3-0.3,3.5-0.3
				c97.7,0,195.4,0,293.1-0.1c9.6,0,18.1,8.2,18.6,16.8c0.1,2.2,0.3,4.4,0.3,6.6c0,40.8,0,81.6,0,122.4c0,6.9-2.1,12.9-8,17.1
				c-3.2,2.3-6.9,3.6-10.8,3.6c-12.9,0.1-25.8,0-38.8,0c0-0.1,0-0.3,0-0.4c0.4-0.5,0.6-1.1,0.4-1.7c0-0.1,0-0.3,0-0.5
				c12.3,0,24.6,0,37,0c1.5,0,3-0.1,4.4-0.4c8-1.8,12.8-7.8,13-14.4c0.5-16,0.1-32,0.1-48c0.1-0.1,0.1-0.3,0.1-0.4
				c0.9-0.5,1.3-1.4,1.3-2.4c0-10.1,0-20.1,0-30.2c0-1.1-0.3-2.1-1.7-2.1c0.5-0.7,0.4-1.6,0.4-2.4c0-14.5,0-28.9,0-43.4
				c0-1.9-0.2-3.8-0.7-5.7c-2.1-7.3-8.3-11.8-16.5-11.8c-71.8,0-143.6,0-215.4,0c-0.4-1.2-1.4-1.4-2.5-1.4c-7.6,0-15.3,0-22.9,0
				c-0.9,0-1.8,0-2.2,1c-0.1,0.1-0.2,0.2-0.4,0.3c-15.9,0-31.7,0-47.6,0.1c-1.4,0-2.8,0-4.2,0.3c-8,1.7-13,8-13,16.6
				c0,29.3,0,58.5,0,87.8c0,7.2,0,14.4-0.1,21.7C19.8,165.1,19,165.3,18.2,165.7z"/>
			<path class="st1" d="M264.1,202.8c-0.7,0-1.5,0.1-2.2,0.1c-74.7,0-149.4,0-224.1,0c-9.7,0-17.3-6.1-19.4-15.5
				c-0.3-1.3-0.2-2.6-0.2-4c0.8,0.6,1.7,0.6,2.6,0.5c-0.1,8.6,7,16.3,17,16.3c75.3,0,150.7,0,226,0c-0.2,0.8-0.1,1.5,0.4,2.3
				C264.1,202.6,264.1,202.7,264.1,202.8z"/>
			<path class="st2" d="M264.1,202.4c-0.4-0.7-0.5-1.5-0.4-2.3c0.7-0.6,1.5-0.9,2.4-0.8c7.6,0,15.3,0,22.9,0c0.8,0,1.6,0,2.1,0.9
				c0.1,0.2,0.2,0.3,0.3,0.5c0.2,0.6,0,1.2-0.4,1.7c-0.2,0.1-0.4,0.3-0.6,0.4c-8.6,0-17.3,0-25.9,0
				C264.5,202.7,264.3,202.6,264.1,202.4z"/>
			<path class="st2" d="M20.8,183.9c-0.9,0.1-1.8,0.1-2.6-0.5c0-0.2-0.1-0.3-0.1-0.5c0-0.1-0.1-0.3-0.1-0.4c0-2.2,0-4.4,0-6.6
				l0.1-0.1l0-0.2c0.1-0.2,0.2-0.4,0.3-0.6c0.8-0.5,1.8,0.3,2.6-0.4C22,177.7,22.2,180.8,20.8,183.9z"/>
			<path class="st3" d="M20.9,174.6c-0.8,0.7-1.8-0.1-2.6,0.4c-0.7-3.1-0.6-6.1-0.1-9.2c0.8-0.5,1.6-0.6,2.5-0.4
				C21.9,168.4,21.6,171.5,20.9,174.6z"/>
			<path class="st4" d="M18,182.5c0,0.1,0.1,0.3,0.1,0.4C18.1,182.8,18,182.6,18,182.5z"/>
			<path class="st4" d="M18.1,175.6l0,0.2l-0.1,0.1C17.9,175.7,17.9,175.6,18.1,175.6z"/>
			<path class="st5" d="M264.1,202.4c0.2,0.1,0.3,0.2,0.5,0.4c-0.2,0-0.4,0-0.5,0C264.1,202.7,264.1,202.6,264.1,202.4z"/>
			<path class="st5" d="M290.6,202.8c0.2-0.1,0.4-0.3,0.6-0.4c0,0.1,0,0.3,0,0.4C291,202.8,290.8,202.8,290.6,202.8z"/>
			<path class="st6" d="M20.9,174.6c0.8-3.1,1-6.2-0.2-9.2c0-7.2,0.1-14.5,0.1-21.7c0-29.3,0-58.5,0-87.8c0-8.6,5-14.9,13-16.6
				c1.3-0.3,2.8-0.3,4.2-0.3c15.9,0,31.7-0.1,47.6-0.1c0.1,0.1,0.3,0.1,0.4,0.1c-0.2,1.8,1.1,2,2.4,2c7.6,0,15.1,0.1,22.7,0.1
				c1.4,0,2.4-0.5,2.5-2.1c71.8,0,143.6,0,215.4,0c8.2,0,14.4,4.5,16.5,11.8c0.5,1.8,0.7,3.8,0.7,5.7c0,14.5,0,28.9,0,43.4
				c0,0.8,0.1,1.6-0.4,2.4c-1.4,0.1-1.8,1-1.8,2.3c0,10,0,20.1,0,30.1c0,1.3,0.5,2.1,1.8,2.4c0.1,0.1,0.2,0.2,0.3,0.4
				c0,16,0.4,32-0.1,48c-0.2,6.6-5,12.6-13,14.4c-1.4,0.3-2.9,0.4-4.4,0.4c-12.3,0-24.6,0-37,0c-0.1,0-0.2,0-0.4,0
				c-0.5-0.8-1.3-0.9-2.1-0.9c-7.6,0-15.3,0-22.9,0c-1,0-1.7,0.2-2.4,0.8c-75.3,0-150.7,0-226,0c-10,0-17.1-7.8-17-16.3
				C22.2,180.8,22,177.7,20.9,174.6z M313.7,66.8c0.2,0,0.6,0,0.6-0.1c0.1-0.4-0.2-0.6-0.6-0.7c-1.5-1-3-1.4-4.8-1.4
				c-16.8,0-33.5,0-50.3,0c-2.1,0-3.9,0.7-5.5,1.9c-3,2.2-3.5,5.4-3.5,8.9c0,29.1,0,58.2,0,87.2c0,1.1,0.1,2.2,0.3,3.3
				c0.7,4.4,4.2,7.6,8.7,7.6c16.8,0,33.7,0,50.5,0c1.9,0,3.7-0.5,5.6-2.1c-1.3,0-2.1,0-2.9,0c-16.6,0-33.2-0.1-49.9,0.1
				c-5.5,0.1-10.2-3.2-10.2-10.1c0-28,0-56.1,0-84.1c0-1.8,0.1-3.7,0.9-5.4c1.6-3.3,4.4-5.1,8.1-5.1
				C278.4,66.9,296.1,66.8,313.7,66.8z M130.1,161.7c27.2,0,54.3,0,81.5,0c2,0,2.5-0.5,2.5-2.5c-0.1-26.3-0.1-52.5,0-78.8
				c0-1.9-0.3-2.5-2.4-2.5c-54.3,0.1-108.6,0.1-162.8,0c-2,0-2.4,0.5-2.4,2.4c0.1,26.3,0.1,52.5,0,78.8c0,1.9,0.4,2.6,2.5,2.6
				C76,161.7,103,161.7,130.1,161.7z M289.4,127.2c0-0.1,0.1-0.3,0.1-0.4c0.7,0,1.4,0,2.1,0c6.6,0,13.3-0.1,19.9,0
				c1.8,0,2.4-0.6,2.2-2.3c-0.1-1.9-0.1-3.8,0-5.8c0-1.2-0.4-1.8-1.6-1.8c-11.6,0-23.2,0-34.8,0c-1.4,0-1.7,0.6-1.7,1.9
				c0,2.4,0.1,4.7,0,7.1c-0.1,1.7,0.4,2.7,2.1,3.4c4.9,2.1,9.7,4.3,14.5,6.5c0.6,0.3,1.7,0.3,1.7,1.1c0,0.8-1.1,0.9-1.7,1.2
				c-4.9,2.2-9.8,4.4-14.8,6.6c-1,0.4-1.9,0.8-1.8,2.2c0.1,2.8,0,5.6,0,8.4c0,1.1,0.4,1.6,1.5,1.6c11.7,0,23.3,0,35,0
				c1.1,0,1.6-0.4,1.6-1.6c0-1.9-0.1-3.8,0-5.8c0.1-1.6-0.6-2-2.1-2c-6.7,0.1-13.4,0-20.2,0c-0.7,0-1.4,0-2,0
				c4.3-2.2,8.6-4.1,13-5.9c1-0.4,2.1-0.6,2.4-2c0.8-4.4,0-5.9-4-7.5c-0.1,0-0.1,0-0.2-0.1C296.9,130.4,293.1,128.8,289.4,127.2z
				 M275.7,93.2c0,3.7,0.1,7.4,0,11.1c-0.1,1.9,0.5,2.6,2.5,2.5c5.6-0.1,11.2-0.1,16.8,0c2,0.1,2.6-0.5,2-2.5
				c-1.1-3.7-1.3-7.5-0.4-11.4c0.6-2.5,2.3-4.1,4.4-4.4c2.1-0.2,4.2,1.1,5.2,3.4c0.8,2.1,1.2,4.2,0.8,6.5c-0.5,2.7-1.2,5.3-2.6,7.7
				c-0.9,1.6-0.4,2.2,1.5,2.3c1.5,0,3.1-0.1,4.6,0c1.2,0.1,1.8-0.4,2.3-1.6c1-2.8,1.5-5.7,1.7-8.6c0.4-5.2,0-10.3-3.4-14.7
				c-3.2-4.2-7.6-5.4-12.6-4.7c-4.5,0.6-7.1,3.6-8.4,7.8c-0.9,2.8-1.2,5.8-1.1,8.7c0,1.4-0.4,2.1-1.9,2c-0.5-0.1-1-0.1-1.5,0
				c-1.8,0.2-2.5-0.4-2.4-2.3c0.1-3.3,0-6.6,0-10c0-5.7,0-5.6-5.7-5.5c-1.5,0-1.9,0.6-1.9,2C275.7,85.6,275.7,89.4,275.7,93.2z"/>
			<path class="st3" d="M345.7,137c-1.3-0.2-1.8-1.1-1.8-2.4c0-10,0-20.1,0-30.1c0-1.3,0.4-2.2,1.8-2.3c1.4,0.1,1.7,1.1,1.7,2.1
				c0,10.1,0,20.1,0,30.2c0,1-0.4,1.9-1.3,2.4C346,136.9,345.8,136.9,345.7,137z"/>
			<path class="st3" d="M113.5,38.9c-0.1,1.6-1,2.2-2.5,2.1c-7.6,0-15.1-0.1-22.7-0.1c-1.3,0-2.6-0.1-2.4-2c0-0.2,0-0.3,0-0.4
				c0.4-1,1.4-1,2.2-1c7.6,0,15.3,0,22.9,0C112.2,37.6,113.1,37.8,113.5,38.9z"/>
			<path class="st7" d="M85.9,38.6c0,0.2,0,0.3,0,0.4c-0.1,0-0.3-0.1-0.4-0.1C85.6,38.8,85.8,38.7,85.9,38.6z"/>
			<path class="st8" d="M291.2,200.2c0.1,0,0.2,0,0.4,0c0,0.1,0,0.3,0,0.5C291.4,200.5,291.3,200.4,291.2,200.2z"/>
			<path class="st8" d="M345.7,137c0.1,0,0.3-0.1,0.4,0c0,0.1,0,0.3-0.1,0.4C345.9,137.2,345.8,137.1,345.7,137z"/>
			<path class="st9" d="M130.1,161.7c-27,0-54.1,0-81.1,0c-2.1,0-2.5-0.6-2.5-2.6c0.1-26.3,0.1-52.5,0-78.8c0-1.9,0.4-2.4,2.4-2.4
				c54.3,0.1,108.6,0.1,162.8,0c2,0,2.4,0.6,2.4,2.5c-0.1,26.3-0.1,52.5,0,78.8c0,2-0.5,2.5-2.5,2.5
				C184.4,161.7,157.2,161.7,130.1,161.7z"/>
			<path class="st10" d="M289.4,127.2c3.8,1.6,7.5,3.2,11.2,4.8c0.1,0,0.1,0,0.2,0.1c4.1,1.6,4.9,3.1,4,7.5c-0.3,1.4-1.5,1.6-2.4,2
				c-4.3,1.9-8.6,3.7-13,5.9c0.7,0,1.4,0,2,0c6.7,0,13.4,0,20.2,0c1.5,0,2.2,0.4,2.1,2c-0.1,1.9-0.1,3.8,0,5.8
				c0,1.1-0.4,1.6-1.6,1.6c-11.7,0-23.3,0-35,0c-1.2,0-1.6-0.5-1.5-1.6c0-2.8,0.1-5.6,0-8.4c0-1.4,0.9-1.8,1.8-2.2
				c4.9-2.2,9.8-4.4,14.8-6.6c0.6-0.3,1.7-0.4,1.7-1.2c0-0.8-1.1-0.8-1.7-1.1c-4.8-2.2-9.6-4.4-14.5-6.5c-1.6-0.7-2.2-1.7-2.1-3.4
				c0.1-2.4,0.1-4.7,0-7.1c0-1.2,0.3-1.9,1.7-1.9c11.6,0,23.2,0,34.8,0c1.3,0,1.7,0.6,1.6,1.8c0,1.9-0.1,3.8,0,5.8
				c0.1,1.7-0.5,2.3-2.2,2.3c-6.6-0.1-13.3,0-19.9,0c-0.7,0-1.4,0-2.1,0C289.5,126.9,289.4,127,289.4,127.2z"/>
			<path class="st10" d="M275.7,93.2c0-3.8,0-7.7,0-11.5c0-1.4,0.4-1.9,1.9-2c5.7-0.1,5.7-0.2,5.7,5.5c0,3.3,0.1,6.6,0,10
				c-0.1,1.9,0.6,2.6,2.4,2.3c0.5-0.1,1-0.1,1.5,0c1.5,0.1,1.9-0.6,1.9-2c-0.1-2.9,0.2-5.9,1.1-8.7c1.3-4.2,3.9-7.2,8.4-7.8
				c5-0.7,9.4,0.5,12.6,4.7c3.4,4.4,3.8,9.5,3.4,14.7c-0.2,2.9-0.7,5.8-1.7,8.6c-0.4,1.1-1,1.6-2.3,1.6c-1.5-0.1-3.1,0-4.6,0
				c-1.9,0-2.4-0.7-1.5-2.3c1.4-2.4,2.1-5,2.6-7.7c0.4-2.2,0-4.4-0.8-6.5c-1-2.4-3-3.6-5.2-3.4c-2.1,0.2-3.8,1.9-4.4,4.4
				c-0.9,3.8-0.7,7.6,0.4,11.4c0.6,2,0,2.5-2,2.5c-5.6-0.1-11.2-0.1-16.8,0c-2,0.1-2.5-0.6-2.5-2.5
				C275.8,100.6,275.7,96.9,275.7,93.2z"/>
			<path class="st11" d="M313.7,66.8c-17.6,0-35.3,0-53,0.1c-3.8,0-6.5,1.7-8.1,5.1c-0.8,1.6-0.9,3.6-0.9,5.4c0,28,0,56.1,0,84.1
				c0,6.8,4.6,10.1,10.2,10.1c16.6-0.2,33.2-0.1,49.9-0.1c0.8,0,1.6,0,2.9,0c-1.9,1.6-3.6,2.1-5.6,2.1c-16.8,0-33.7,0-50.5,0
				c-4.5,0-8-3.2-8.7-7.6c-0.2-1.1-0.3-2.2-0.3-3.3c0-29.1,0-58.2,0-87.2c0-3.4,0.5-6.6,3.5-8.9c1.6-1.2,3.4-1.9,5.5-1.9
				c16.8,0,33.5,0,50.3,0c1.8,0,3.4,0.4,4.8,1.4C313.7,66.3,313.7,66.6,313.7,66.8z"/>
			<path class="st4" d="M313.7,66.8c0-0.2,0-0.5,0-0.7c0.3,0.1,0.7,0.2,0.6,0.7C314.3,66.8,313.9,66.8,313.7,66.8z"/>
		</g>
		<rect x="47.1" y="77.5" class="st12" width="167.1" height="85.3"/>
		<line class="st13" x1="47.1" y1="77.5" x2="225.8" y2="77.5"/>
		<g>
			<line class="st13" x1="225.8" y1="77.4" x2="220.2" y2="74.3"/>
			<line class="st13" x1="225.8" y1="77.4" x2="220.2" y2="80.6"/>
		</g>
		<line class="st13" x1="47.1" y1="77.5" x2="47.1" y2="175.5"/>
		<g>
			<line class="st13" x1="47.1" y1="176.8" x2="50.2" y2="171.2"/>
			<line class="st13" x1="47.1" y1="176.8" x2="43.9" y2="171.2"/>
		</g>
		<g>
			<g>
				<path d="M45.2,185.8l0.1-0.5c0.1,0,0.2,0.1,0.4,0.1c0.6,0,0.9-0.4,1.1-0.8l0.1-0.3l-1.8-3.9h0.7l0.9,2.2
					c0.2,0.4,0.3,0.8,0.5,1.1h0c0.1-0.4,0.3-0.8,0.4-1.1l0.9-2.2h0.6l-1.7,4.2c-0.3,0.8-0.8,1.4-1.7,1.4
					C45.5,185.9,45.3,185.9,45.2,185.8z"/>
			</g>
		</g>
		<g>
			<g>
				<path d="M231.1,76.7l-1.4-1.9h0.7l0.6,0.9c0.1,0.2,0.3,0.4,0.5,0.7h0c0.1-0.2,0.3-0.4,0.4-0.7l0.6-0.9h0.7l-1.4,1.9l1.5,2h-0.7
					l-0.7-0.9c-0.2-0.2-0.4-0.5-0.5-0.7h0c-0.2,0.2-0.3,0.5-0.5,0.7l-0.6,0.9h-0.7L231.1,76.7z"/>
			</g>
		</g>
		<g>
			<g>
				<path d="M26.8,70.2c0-1.6,0.7-2.8,1.8-3.7l0.4,0.3c-1.1,0.9-1.6,2-1.6,3.3s0.5,2.4,1.6,3.3l-0.4,0.3
					C27.5,73,26.8,71.8,26.8,70.2z"/>
				<path d="M30.6,69.8c0-1.7,0.7-2.7,1.8-2.7c1.2,0,1.8,0.9,1.8,2.7c0,1.7-0.7,2.7-1.8,2.7C31.3,72.5,30.6,71.6,30.6,69.8z
					 M33.7,69.8c0-1.5-0.5-2.1-1.2-2.1c-0.7,0-1.2,0.6-1.2,2.1s0.5,2.1,1.2,2.1C33.1,72,33.7,71.3,33.7,69.8z M31.9,69.8
					c0-0.3,0.2-0.5,0.5-0.5s0.5,0.2,0.5,0.5c0,0.3-0.2,0.5-0.5,0.5S31.9,70.1,31.9,69.8z"/>
				<path d="M36.4,73.7c0.7-0.3,1-0.7,1-1.4l-0.2-0.7l0.4,0.6c-0.1,0.1-0.3,0.2-0.4,0.2c-0.3,0-0.6-0.2-0.6-0.6
					c0-0.4,0.3-0.6,0.7-0.6c0.5,0,0.7,0.4,0.7,1c0,0.9-0.5,1.6-1.4,1.9L36.4,73.7z"/>
				<path d="M40.3,69.8c0-1.7,0.7-2.7,1.8-2.7s1.8,0.9,1.8,2.7c0,1.7-0.7,2.7-1.8,2.7S40.3,71.6,40.3,69.8z M43.4,69.8
					c0-1.5-0.5-2.1-1.2-2.1s-1.2,0.6-1.2,2.1s0.5,2.1,1.2,2.1S43.4,71.3,43.4,69.8z M41.6,69.8c0-0.3,0.2-0.5,0.5-0.5
					s0.5,0.2,0.5,0.5c0,0.3-0.2,0.5-0.5,0.5C41.9,70.3,41.6,70.1,41.6,69.8z"/>
				<path d="M45.5,73.5c1.1-0.9,1.6-2,1.6-3.3s-0.5-2.4-1.6-3.3l0.4-0.3c1.1,0.9,1.8,2.1,1.8,3.7S47,73,45.9,73.9L45.5,73.5z"/>
			</g>
		</g>
		<circle cx="47.1" cy="77.4" r="1.6"/>
		<g>
			<g>
				<path d="M49.5,158.2l0.4-0.5c0.4,0.4,0.9,0.6,1.6,0.6c0.7,0,1.1-0.4,1.1-0.8c0-0.6-0.4-0.7-0.9-1l-0.8-0.3
					c-0.5-0.2-1.1-0.6-1.1-1.4c0-0.8,0.7-1.4,1.7-1.4c0.7,0,1.2,0.3,1.6,0.7l-0.4,0.4c-0.4-0.3-0.8-0.5-1.3-0.5c-0.6,0-1,0.3-1,0.8
					c0,0.5,0.5,0.7,0.9,0.9l0.7,0.3c0.6,0.3,1.2,0.6,1.2,1.4c0,0.8-0.7,1.5-1.9,1.5C50.7,159,50,158.7,49.5,158.2z"/>
				<path d="M54.7,153.2h0.7v3.9h0l2.1-2.1h0.8l-2.9,2.9v1.1h-0.7V153.2z M56.2,156.8l0.4-0.4l1.9,2.5h-0.7L56.2,156.8z"/>
				<path d="M58.8,158c0-0.8,0.6-1.3,2.2-1.5v0.4c-1.2,0.1-1.6,0.5-1.6,1c0,0.4,0.2,0.6,0.6,0.6c0.3,0,0.7-0.2,1-0.7l0.2,0.3
					c-0.4,0.5-0.9,0.9-1.4,0.9C59.3,159,58.8,158.6,58.8,158z M60.8,157v-0.4c0-0.8-0.3-1.1-0.7-1.1c-0.3,0-0.7,0.1-0.9,0.3
					l-0.2-0.4c0.3-0.2,0.8-0.4,1.2-0.4c0.5,0,0.9,0.3,1.1,1.1h-0.2c0.2-0.8,0.7-1.1,1.2-1.1c0.8,0,1.2,0.8,1.2,1.8
					c0,0.1,0,0.3,0,0.4h-2.3v-0.5h1.9l-0.1,0.2c0-0.9-0.2-1.4-0.7-1.4c-0.4,0-0.9,0.4-0.9,1.5c0,0.9,0.4,1.5,1,1.5
					c0.3,0,0.6-0.1,0.8-0.3l0.2,0.5c-0.3,0.2-0.6,0.4-1,0.4C61.4,159,60.8,158.2,60.8,157z"/>
				<path d="M64.7,155h0.6l0.1,0.9h0c0.4-0.6,1-1,1.8-1c0.3,0,0.5,0,0.8,0.2l-0.1,0.6c-0.3-0.1-0.4-0.1-0.7-0.1
					c-0.6,0-1.1,0.3-1.6,1.1v2.3h-0.7L64.7,155L64.7,155z"/>
				<path d="M68.9,155h0.5l0.1,0.5h0c0.2-0.4,0.4-0.6,0.9-0.6c0.4,0,0.6,0.2,0.7,0.7c0.2-0.4,0.5-0.7,0.9-0.7c0.6,0,0.9,0.4,0.9,1.2
					v2.8h-0.7v-2.8c0-0.4-0.1-0.7-0.4-0.7c-0.3,0-0.4,0.2-0.6,0.6v2.9h-0.6v-2.8c0-0.4-0.1-0.7-0.4-0.7c-0.3,0-0.4,0.2-0.6,0.6v2.9
					h-0.7L68.9,155L68.9,155z"/>
			</g>
		</g>
		<g>
			<g>
				<path d="M213.5,169.6c0-1.6,0.7-2.8,1.8-3.7l0.4,0.3c-1.1,0.9-1.6,2-1.6,3.3c0,1.4,0.5,2.4,1.6,3.3l-0.4,0.3
					C214.2,172.4,213.5,171.1,213.5,169.6z"/>
				<path d="M217.5,171.2h1.5v-3.8h-1.2V167c0.6-0.1,1-0.2,1.3-0.4h0.5v4.6h1.3v0.6h-3.5L217.5,171.2L217.5,171.2z"/>
				<path d="M222.2,169.4c0-2.1,1-2.9,2.2-2.9c0.6,0,1.1,0.2,1.4,0.5l-0.4,0.4c-0.3-0.2-0.6-0.4-1-0.4c-0.8,0-1.6,0.6-1.6,2.3
					c0,1.3,0.5,2,1.3,2c0.6,0,1.1-0.4,1.1-1.1c0-0.7-0.4-1.1-1.1-1.1c-0.4,0-0.9,0.2-1.4,0.7l0-0.5c0.4-0.4,1-0.7,1.5-0.7
					c1,0,1.6,0.5,1.6,1.6c0,1-0.8,1.7-1.7,1.7C223,171.9,222.2,171.1,222.2,169.4z"/>
				<path d="M227,169.2c0-1.7,0.7-2.7,1.9-2.7s1.9,0.9,1.9,2.7c0,1.7-0.7,2.7-1.9,2.7S227,170.9,227,169.2z M230.1,169.2
					c0-1.5-0.5-2.1-1.2-2.1s-1.2,0.6-1.2,2.1c0,1.5,0.5,2.1,1.2,2.1S230.1,170.7,230.1,169.2z M228.3,169.1c0-0.3,0.2-0.5,0.5-0.5
					s0.5,0.2,0.5,0.5c0,0.3-0.2,0.5-0.5,0.5C228.6,169.7,228.3,169.5,228.3,169.1z"/>
				<path d="M232.9,173.1c0.7-0.3,1-0.7,1-1.4l-0.1-0.7l0.5,0.6c-0.1,0.1-0.3,0.2-0.5,0.2c-0.4,0-0.6-0.2-0.6-0.6
					c0-0.4,0.3-0.6,0.6-0.6c0.5,0,0.7,0.4,0.7,1c0,0.9-0.5,1.6-1.4,1.9L232.9,173.1z"/>
				<path d="M236.7,170.5c0-0.7,0.5-1.1,1.1-1.4v0c-0.4-0.3-0.8-0.7-0.8-1.2c0-0.8,0.7-1.3,1.6-1.3c1,0,1.6,0.6,1.6,1.4
					c0,0.5-0.4,0.9-0.8,1.2v0c0.6,0.3,1,0.6,1,1.3c0,0.8-0.7,1.4-1.9,1.4C237.4,171.9,236.7,171.3,236.7,170.5z M239.8,170.5
					c0-0.7-0.7-0.9-1.6-1.2c-0.5,0.3-0.9,0.6-0.9,1.1c0,0.6,0.5,1,1.3,1C239.3,171.4,239.8,171,239.8,170.5z M239.6,168
					c0-0.5-0.4-0.9-1-0.9c-0.6,0-1,0.3-1,0.8c0,0.6,0.6,0.9,1.4,1.1C239.4,168.7,239.6,168.3,239.6,168z"/>
				<path d="M241.5,169.2c0-1.7,0.7-2.7,1.9-2.7s1.9,0.9,1.9,2.7c0,1.7-0.7,2.7-1.9,2.7S241.5,170.9,241.5,169.2z M244.6,169.2
					c0-1.5-0.5-2.1-1.2-2.1s-1.2,0.6-1.2,2.1c0,1.5,0.5,2.1,1.2,2.1S244.6,170.7,244.6,169.2z M242.9,169.1c0-0.3,0.2-0.5,0.5-0.5
					s0.5,0.2,0.5,0.5c0,0.3-0.2,0.5-0.5,0.5S242.9,169.5,242.9,169.1z"/>
				<path d="M246.8,172.9c1.1-0.9,1.6-2,1.6-3.3c0-1.4-0.5-2.4-1.6-3.3l0.4-0.3c1.1,0.9,1.8,2.1,1.8,3.7s-0.7,2.8-1.8,3.7
					L246.8,172.9z"/>
			</g>
		</g>
		<circle cx="214.1" cy="162.8" r="1.6"/>
		<g>
			<g>
				<path d="M228.8,110.5v0.4h-1l-0.6,0v0c0.3,0.3,0.5,0.6,0.5,1c0,0.6-0.4,0.9-1.1,0.9H225v-0.4h1.6c0.5,0,0.7-0.2,0.7-0.6
					c0-0.3-0.2-0.5-0.5-0.8H225v-0.4L228.8,110.5L228.8,110.5z"/>
				<path d="M225,113.6l2.7,2.3l-0.2,0.2l-2.7-2.3L225,113.6z M226.3,113.5c0.9,0,1.4,0.6,1.4,1.3s-0.5,1.3-1.4,1.3
					c-0.9,0-1.4-0.6-1.4-1.3S225.4,113.5,226.3,113.5z M226.3,115.7c0.6,0,1-0.3,1-0.8s-0.4-0.8-1-0.8c-0.6,0-1,0.3-1,0.8
					S225.7,115.7,226.3,115.7z"/>
				<path d="M224,116.7l0.3,0.1c-0.1,0.2-0.1,0.4-0.1,0.6c0,0.5,0.3,0.7,0.7,0.7h2.4v-1.2h0.4v1.7h-2.7c-0.6,0-1.1-0.2-1.1-1.1
					C223.8,117.2,223.9,117,224,116.7z M228.5,118c0.2,0,0.3,0.1,0.3,0.4s-0.1,0.4-0.3,0.4c-0.2,0-0.3-0.1-0.3-0.4
					S228.3,118,228.5,118z"/>
				<path d="M226.3,120c0.9,0,1.4,0.6,1.4,1.2c0,0.3-0.1,0.6-0.3,0.8v0l0.5,0h1v0.4H225V122l0.3,0v0c-0.2-0.2-0.4-0.5-0.4-0.9
					C224.9,120.5,225.4,120,226.3,120z M225.7,122h1.3c0.2-0.2,0.3-0.5,0.3-0.7c0-0.4-0.4-0.8-1-0.8c-0.6,0-1,0.3-1,0.8
					C225.3,121.5,225.4,121.7,225.7,122z"/>
				<path d="M226.3,123.3c0.9,0,1.4,0.6,1.4,1.3c0,0.8-0.5,1.2-1.2,1.2c-0.1,0-0.2,0-0.3,0v-2.2h0.3v1.9l-0.1-0.1
					c0.6,0,0.9-0.3,0.9-0.8s-0.4-0.9-1-0.9c-0.7,0-1,0.4-1,1c0,0.3,0.1,0.6,0.2,0.8l-0.3,0.2c-0.2-0.3-0.3-0.6-0.3-1
					C224.9,123.9,225.4,123.3,226.3,123.3z"/>
				<path d="M224.1,127.2c0.2,0.5,0.5,0.7,0.9,0.7l0.5-0.1l-0.4,0.3c-0.1-0.1-0.1-0.2-0.1-0.3c0-0.2,0.1-0.4,0.4-0.4
					c0.3,0,0.4,0.2,0.4,0.4c0,0.3-0.3,0.5-0.7,0.5c-0.6,0-1.1-0.4-1.3-1L224.1,127.2z"/>
				<path d="M228.8,133.1v0.5h-1l-0.6,0v0c0.3,0.3,0.5,0.6,0.5,1c0,0.6-0.4,0.9-1.1,0.9H225V135h1.6c0.5,0,0.7-0.2,0.7-0.6
					c0-0.3-0.2-0.5-0.5-0.8H225v-0.4H228.8L228.8,133.1z"/>
			</g>
		</g>
		<g>
			<path class="st14" d="M215.5,162.8c9.1,0,0.4-37.5,6.9-41.9"/>
			<path class="st14" d="M215.5,79c9.1,0,0.4,37.5,6.9,41.9"/>
		</g>
		<g>
			<g>
				<path d="M118.5,178.2L118.5,178.2l-0.1,0.3h-0.4v-3.8h0.4v1l0,0.5h0c0.2-0.2,0.6-0.4,0.9-0.4c0.7,0,1.1,0.5,1.1,1.3
					c0,0.9-0.6,1.4-1.2,1.4C119.1,178.5,118.8,178.4,118.5,178.2z M120.1,177.1c0-0.6-0.2-1-0.7-1c-0.2,0-0.5,0.1-0.8,0.4v1.3
					c0.2,0.2,0.5,0.3,0.7,0.3C119.7,178.1,120.1,177.8,120.1,177.1z"/>
				<path d="M121.6,175.8h0.4l0,0.6h0c0.3-0.4,0.7-0.7,1.2-0.7c0.2,0,0.4,0,0.5,0.1l-0.1,0.4c-0.2-0.1-0.3-0.1-0.5-0.1
					c-0.4,0-0.8,0.2-1.1,0.8v1.5h-0.4L121.6,175.8L121.6,175.8z"/>
				<path d="M124.4,177.1c0-0.9,0.6-1.4,1.3-1.4c0.8,0,1.2,0.5,1.2,1.2c0,0.1,0,0.2,0,0.3h-2.2v-0.3h1.9l-0.1,0.1
					c0-0.6-0.3-0.9-0.8-0.9s-0.9,0.4-0.9,1c0,0.7,0.4,1,1,1c0.3,0,0.6-0.1,0.8-0.2l0.2,0.3c-0.3,0.2-0.6,0.3-1,0.3
					C125.1,178.5,124.4,178,124.4,177.1z"/>
				<path d="M127.6,177.1c0-0.9,0.6-1.4,1.2-1.4c0.3,0,0.6,0.1,0.8,0.3h0l0-0.5v-1h0.4v3.8h-0.4l0-0.3h0c-0.2,0.2-0.5,0.4-0.9,0.4
					C128.1,178.5,127.6,178,127.6,177.1z M129.6,177.8v-1.3c-0.2-0.2-0.5-0.3-0.7-0.3c-0.4,0-0.8,0.4-0.8,1c0,0.6,0.3,1,0.8,1
					C129.1,178.1,129.4,178,129.6,177.8z"/>
				<path d="M130.9,177.1c0-0.9,0.6-1.4,1.2-1.4c0.3,0,0.6,0.1,0.8,0.3h0l0-0.5v-1h0.4v3.8h-0.4l0-0.3h0c-0.2,0.2-0.5,0.4-0.9,0.4
					C131.3,178.5,130.9,178,130.9,177.1z M132.8,177.8v-1.3c-0.2-0.2-0.5-0.3-0.7-0.3c-0.4,0-0.8,0.4-0.8,1c0,0.6,0.3,1,0.8,1
					C132.4,178.1,132.6,178,132.8,177.8z"/>
				<path d="M134.1,177.1c0-0.9,0.6-1.4,1.3-1.4c0.8,0,1.2,0.5,1.2,1.2c0,0.1,0,0.2,0,0.3h-2.2v-0.3h1.9l-0.1,0.1
					c0-0.6-0.3-0.9-0.8-0.9s-0.9,0.4-0.9,1c0,0.7,0.4,1,1,1c0.3,0,0.6-0.1,0.8-0.2l0.2,0.3c-0.3,0.2-0.6,0.3-1,0.3
					C134.8,178.5,134.1,178,134.1,177.1z"/>
				<path d="M138.1,179.3c0.5-0.2,0.7-0.5,0.7-0.9l-0.1-0.5l0.3,0.4c-0.1,0.1-0.2,0.1-0.3,0.1c-0.2,0-0.4-0.1-0.4-0.4
					c0-0.3,0.2-0.4,0.4-0.4c0.3,0,0.5,0.3,0.5,0.7c0,0.6-0.4,1.1-0.9,1.3L138.1,179.3z"/>
				<path d="M143.5,175.8h0.4l0.3,1.5c0.1,0.2,0.1,0.5,0.1,0.7h0c0-0.2,0.1-0.5,0.1-0.7l0.3-1.4h0.4l0.3,1.4
					c0.1,0.2,0.1,0.5,0.2,0.7h0c0-0.2,0.1-0.5,0.1-0.7l0.3-1.5h0.4l-0.6,2.6h-0.6l-0.3-1.2c0-0.2-0.1-0.4-0.1-0.8h0
					c0,0.3-0.1,0.6-0.1,0.8l-0.3,1.2h-0.6L143.5,175.8z"/>
			</g>
		</g>
		<g>
			<path class="st14" d="M48.4,163.9c0,12.5,74.2,0.6,82.9,9.4"/>
			<path class="st14" d="M214.1,163.9c0,12.5-74.2,0.6-82.9,9.4"/>
		</g>
	</g>
</g>
</svg>
