<?xml version="1.0" encoding="utf-8"?>
<!-- Generator: Adobe Illustrator 23.1.1, SVG Export Plug-In . SVG Version: 6.00 Build 0)  -->
<svg version="1.1" id="Layer_1" xmlns="http://www.w3.org/2000/svg" xmlns:xlink="http://www.w3.org/1999/xlink" x="0px" y="0px"
	 viewBox="0 0 330.9 166.8" style="enable-background:new 0 0 330.9 166.8;" xml:space="preserve">
<style type="text/css">
	.st0{fill:#676767;}
	.st1{fill:#E93725;}
	.st2{fill:#CCCCCB;}
	.st3{fill:#796350;}
	.st4{fill:#595959;}
	.st5{fill:#DC8844;}
	.st6{fill:#907259;}
	.st7{fill:#BD7F4C;}
	.st8{fill:#131313;}
	.st9{fill:#CC732A;}
	.st10{fill:#575655;}
	.st11{fill:#E5F4F7;stroke:#5C5A5C;stroke-width:2;stroke-linecap:round;stroke-linejoin:round;stroke-miterlimit:10;}
	.st12{fill:none;stroke:#0D0D0D;stroke-width:2;stroke-linecap:round;stroke-linejoin:round;stroke-miterlimit:10;}
	.st13{fill:none;stroke:#000000;stroke-width:0.5;stroke-linecap:round;stroke-miterlimit:10;}
</style>
<g id="Layer_4">
</g>
<g id="Layer_3">
</g>
<g id="Layer_5">
	<g>
		<g>
			<path class="st0" d="M0.4,129.6c0-0.7-0.1-1.3-0.1-2c0-36.1,0.1-72.2-0.1-108.3c0-9,6.4-17.1,15.2-18.9c1.2-0.2,2.3-0.3,3.5-0.3
				c97.7,0,195.4,0,293.1-0.1c9.6,0,18.1,8.2,18.6,16.8c0.1,2.2,0.3,4.4,0.3,6.6c0,40.8,0,81.6,0,122.4c0,6.9-2.1,12.9-8,17.1
				c-3.2,2.3-6.9,3.6-10.8,3.6c-12.9,0.1-25.8,0-38.8,0c0-0.1,0-0.3,0-0.4c0.4-0.5,0.6-1.1,0.4-1.7c0-0.1,0-0.3,0-0.5
				c12.3,0,24.6,0,37,0c1.5,0,3-0.1,4.4-0.4c8-1.8,12.8-7.8,13-14.4c0.5-16,0.1-32,0.1-48c0.1-0.1,0.1-0.3,0.1-0.4
				c0.9-0.5,1.3-1.4,1.3-2.4c0-10.1,0-20.1,0-30.2c0-1.1-0.3-2.1-1.7-2.1c0.5-0.7,0.4-1.6,0.4-2.4c0-14.5,0-28.9,0-43.4
				c0-1.9-0.2-3.8-0.7-5.7c-2.1-7.3-8.3-11.8-16.5-11.8c-71.8,0-143.6,0-215.4,0c-0.4-1.2-1.4-1.4-2.5-1.4c-7.6,0-15.3,0-22.9,0
				c-0.9,0-1.8,0-2.2,1c-0.1,0.1-0.2,0.2-0.4,0.3c-15.9,0-31.7,0-47.6,0.1c-1.4,0-2.8,0-4.2,0.3c-8,1.7-13,8-13,16.6
				c0,29.3,0,58.5,0,87.8c0,7.2,0,14.4-0.1,21.7C2,129,1.2,129.2,0.4,129.6z"/>
			<path class="st0" d="M246.3,166.7c-0.7,0-1.5,0.1-2.2,0.1c-74.7,0-149.4,0-224.1,0c-9.7,0-17.3-6.1-19.4-15.5
				c-0.3-1.3-0.2-2.6-0.2-4c0.8,0.6,1.7,0.6,2.6,0.5c-0.1,8.6,7,16.3,17,16.3c75.3,0,150.7,0,226,0c-0.2,0.8-0.1,1.5,0.4,2.3
				C246.3,166.5,246.3,166.6,246.3,166.7z"/>
			<path class="st1" d="M246.3,166.3c-0.4-0.7-0.5-1.5-0.4-2.3c0.7-0.6,1.5-0.9,2.4-0.8c7.6,0,15.3,0,22.9,0c0.8,0,1.6,0,2.1,0.9
				c0.1,0.2,0.2,0.3,0.3,0.5c0.2,0.6,0,1.2-0.4,1.7c-0.2,0.1-0.4,0.3-0.6,0.4c-8.6,0-17.3,0-25.9,0
				C246.7,166.6,246.5,166.5,246.3,166.3z"/>
			<path class="st1" d="M3,147.8c-0.9,0.1-1.8,0.1-2.6-0.5c0-0.2-0.1-0.3-0.1-0.5c0-0.1-0.1-0.3-0.1-0.4c0-2.2,0-4.4,0-6.6l0.1-0.1
				v-0.2c0.1-0.2,0.2-0.4,0.3-0.6c0.8-0.5,1.8,0.3,2.6-0.4C4.2,141.6,4.4,144.7,3,147.8z"/>
			<path class="st2" d="M3.1,138.5c-0.8,0.7-1.8-0.1-2.6,0.4c-0.7-3.1-0.6-6.1-0.1-9.2c0.8-0.5,1.6-0.6,2.5-0.4
				C4.1,132.3,3.8,135.4,3.1,138.5z"/>
			<path class="st3" d="M0.2,146.4c0,0.1,0.1,0.3,0.1,0.4C0.3,146.7,0.2,146.5,0.2,146.4z"/>
			<path class="st3" d="M0.3,139.5v0.2l-0.1,0.1C0.1,139.6,0.1,139.5,0.3,139.5z"/>
			<path class="st4" d="M246.3,166.3c0.2,0.1,0.3,0.2,0.5,0.4c-0.2,0-0.4,0-0.5,0C246.3,166.6,246.3,166.5,246.3,166.3z"/>
			<path class="st4" d="M272.8,166.7c0.2-0.1,0.4-0.3,0.6-0.4c0,0.1,0,0.3,0,0.4C273.2,166.7,273,166.7,272.8,166.7z"/>
			<path class="st5" d="M3.1,138.5c0.8-3.1,1-6.2-0.2-9.2c0-7.2,0.1-14.5,0.1-21.7c0-29.3,0-58.5,0-87.8C3,11.2,8,4.9,16,3.2
				c1.3-0.3,2.8-0.3,4.2-0.3c15.9,0,31.7-0.1,47.6-0.1c0.1,0.1,0.3,0.1,0.4,0.1c-0.2,1.8,1.1,2,2.4,2C78.2,4.9,85.7,5,93.3,5
				c1.4,0,2.4-0.5,2.5-2.1c71.8,0,143.6,0,215.4,0c8.2,0,14.4,4.5,16.5,11.8c0.5,1.8,0.7,3.8,0.7,5.7c0,14.5,0,28.9,0,43.4
				c0,0.8,0.1,1.6-0.4,2.4c-1.4,0.1-1.8,1-1.8,2.3c0,10,0,20.1,0,30.1c0,1.3,0.5,2.1,1.8,2.4c0.1,0.1,0.2,0.2,0.3,0.4
				c0,16,0.4,32-0.1,48c-0.2,6.6-5,12.6-13,14.4c-1.4,0.3-2.9,0.4-4.4,0.4c-12.3,0-24.6,0-37,0c-0.1,0-0.2,0-0.4,0
				c-0.5-0.8-1.3-0.9-2.1-0.9c-7.6,0-15.3,0-22.9,0c-1,0-1.7,0.2-2.4,0.8c-75.3,0-150.7,0-226,0c-10,0-17.1-7.8-17-16.3
				C4.4,144.7,4.2,141.6,3.1,138.5z M295.9,30.7c0.2,0,0.6,0,0.6-0.1c0.1-0.4-0.2-0.6-0.6-0.7c-1.5-1-3-1.4-4.8-1.4
				c-16.8,0-33.5,0-50.3,0c-2.1,0-3.9,0.7-5.5,1.9c-3,2.2-3.5,5.4-3.5,8.9c0,29.1,0,58.2,0,87.2c0,1.1,0.1,2.2,0.3,3.3
				c0.7,4.4,4.2,7.6,8.7,7.6c16.8,0,33.7,0,50.5,0c1.9,0,3.7-0.5,5.6-2.1c-1.3,0-2.1,0-2.9,0c-16.6,0-33.2-0.1-49.9,0.1
				c-5.5,0.1-10.2-3.2-10.2-10.1c0-28,0-56.1,0-84.1c0-1.8,0.1-3.7,0.9-5.4c1.6-3.3,4.4-5.1,8.1-5.1
				C260.6,30.8,278.3,30.7,295.9,30.7z M112.3,125.6c27.2,0,54.3,0,81.5,0c2,0,2.5-0.5,2.5-2.5c-0.1-26.3-0.1-52.5,0-78.8
				c0-1.9-0.3-2.5-2.4-2.5c-54.3,0.1-108.6,0.1-162.8,0c-2,0-2.4,0.5-2.4,2.4c0.1,26.3,0.1,52.5,0,78.8c0,1.9,0.4,2.6,2.5,2.6
				C58.2,125.6,85.2,125.6,112.3,125.6z M271.6,91.1c0-0.1,0.1-0.3,0.1-0.4c0.7,0,1.4,0,2.1,0c6.6,0,13.3-0.1,19.9,0
				c1.8,0,2.4-0.6,2.2-2.3c-0.1-1.9-0.1-3.8,0-5.8c0-1.2-0.4-1.8-1.6-1.8c-11.6,0-23.2,0-34.8,0c-1.4,0-1.7,0.6-1.7,1.9
				c0,2.4,0.1,4.7,0,7.1c-0.1,1.7,0.4,2.7,2.1,3.4c4.9,2.1,9.7,4.3,14.5,6.5c0.6,0.3,1.7,0.3,1.7,1.1s-1.1,0.9-1.7,1.2
				c-4.9,2.2-9.8,4.4-14.8,6.6c-1,0.4-1.9,0.8-1.8,2.2c0.1,2.8,0,5.6,0,8.4c0,1.1,0.4,1.6,1.5,1.6c11.7,0,23.3,0,35,0
				c1.1,0,1.6-0.4,1.6-1.6c0-1.9-0.1-3.8,0-5.8c0.1-1.6-0.6-2-2.1-2c-6.7,0.1-13.4,0-20.2,0c-0.7,0-1.4,0-2,0
				c4.3-2.2,8.6-4.1,13-5.9c1-0.4,2.1-0.6,2.4-2c0.8-4.4,0-5.9-4-7.5c-0.1,0-0.1,0-0.2-0.1C279.1,94.3,275.3,92.7,271.6,91.1z
				 M257.9,57.1c0,3.7,0.1,7.4,0,11.1c-0.1,1.9,0.5,2.6,2.5,2.5c5.6-0.1,11.2-0.1,16.8,0c2,0.1,2.6-0.5,2-2.5
				c-1.1-3.7-1.3-7.5-0.4-11.4c0.6-2.5,2.3-4.1,4.4-4.4c2.1-0.2,4.2,1.1,5.2,3.4c0.8,2.1,1.2,4.2,0.8,6.5c-0.5,2.7-1.2,5.3-2.6,7.7
				c-0.9,1.6-0.4,2.2,1.5,2.3c1.5,0,3.1-0.1,4.6,0c1.2,0.1,1.8-0.4,2.3-1.6c1-2.8,1.5-5.7,1.7-8.6c0.4-5.2,0-10.3-3.4-14.7
				c-3.2-4.2-7.6-5.4-12.6-4.7c-4.5,0.6-7.1,3.6-8.4,7.8c-0.9,2.8-1.2,5.8-1.1,8.7c0,1.4-0.4,2.1-1.9,2c-0.5-0.1-1-0.1-1.5,0
				c-1.8,0.2-2.5-0.4-2.4-2.3c0.1-3.3,0-6.6,0-10c0-5.7,0-5.6-5.7-5.5c-1.5,0-1.9,0.6-1.9,2C257.9,49.5,257.9,53.3,257.9,57.1z"/>
			<path class="st2" d="M327.9,100.9c-1.3-0.2-1.8-1.1-1.8-2.4c0-10,0-20.1,0-30.1c0-1.3,0.4-2.2,1.8-2.3c1.4,0.1,1.7,1.1,1.7,2.1
				c0,10.1,0,20.1,0,30.2c0,1-0.4,1.9-1.3,2.4C328.2,100.8,328,100.8,327.9,100.9z"/>
			<path class="st2" d="M95.7,2.8c-0.1,1.6-1,2.2-2.5,2.1c-7.6,0-15.1-0.1-22.7-0.1c-1.3,0-2.6-0.1-2.4-2c0-0.2,0-0.3,0-0.4
				c0.4-1,1.4-1,2.2-1c7.6,0,15.3,0,22.9,0C94.4,1.5,95.3,1.7,95.7,2.8z"/>
			<path class="st6" d="M68.1,2.5c0,0.2,0,0.3,0,0.4c-0.1,0-0.3-0.1-0.4-0.1C67.8,2.7,68,2.6,68.1,2.5z"/>
			<path class="st7" d="M273.4,164.1c0.1,0,0.2,0,0.4,0c0,0.1,0,0.3,0,0.5C273.6,164.4,273.5,164.3,273.4,164.1z"/>
			<path class="st7" d="M327.9,100.9c0.1,0,0.3-0.1,0.4,0c0,0.1,0,0.3-0.1,0.4C328.1,101.1,328,101,327.9,100.9z"/>
			<path class="st8" d="M112.3,125.6c-27,0-54.1,0-81.1,0c-2.1,0-2.5-0.6-2.5-2.6c0.1-26.3,0.1-52.5,0-78.8c0-1.9,0.4-2.4,2.4-2.4
				c54.3,0.1,108.6,0.1,162.8,0c2,0,2.4,0.6,2.4,2.5c-0.1,26.3-0.1,52.5,0,78.8c0,2-0.5,2.5-2.5,2.5
				C166.6,125.6,139.4,125.6,112.3,125.6z"/>
			<path class="st9" d="M271.6,91.1c3.8,1.6,7.5,3.2,11.2,4.8c0.1,0,0.1,0,0.2,0.1c4.1,1.6,4.9,3.1,4,7.5c-0.3,1.4-1.5,1.6-2.4,2
				c-4.3,1.9-8.6,3.7-13,5.9c0.7,0,1.4,0,2,0c6.7,0,13.4,0,20.2,0c1.5,0,2.2,0.4,2.1,2c-0.1,1.9-0.1,3.8,0,5.8
				c0,1.1-0.4,1.6-1.6,1.6c-11.7,0-23.3,0-35,0c-1.2,0-1.6-0.5-1.5-1.6c0-2.8,0.1-5.6,0-8.4c0-1.4,0.9-1.8,1.8-2.2
				c4.9-2.2,9.8-4.4,14.8-6.6c0.6-0.3,1.7-0.4,1.7-1.2s-1.1-0.8-1.7-1.1c-4.8-2.2-9.6-4.4-14.5-6.5c-1.6-0.7-2.2-1.7-2.1-3.4
				c0.1-2.4,0.1-4.7,0-7.1c0-1.2,0.3-1.9,1.7-1.9c11.6,0,23.2,0,34.8,0c1.3,0,1.7,0.6,1.6,1.8c0,1.9-0.1,3.8,0,5.8
				c0.1,1.7-0.5,2.3-2.2,2.3c-6.6-0.1-13.3,0-19.9,0c-0.7,0-1.4,0-2.1,0C271.7,90.8,271.6,90.9,271.6,91.1z"/>
			<path class="st9" d="M257.9,57.1c0-3.8,0-7.7,0-11.5c0-1.4,0.4-1.9,1.9-2c5.7-0.1,5.7-0.2,5.7,5.5c0,3.3,0.1,6.6,0,10
				c-0.1,1.9,0.6,2.6,2.4,2.3c0.5-0.1,1-0.1,1.5,0c1.5,0.1,1.9-0.6,1.9-2c-0.1-2.9,0.2-5.9,1.1-8.7c1.3-4.2,3.9-7.2,8.4-7.8
				c5-0.7,9.4,0.5,12.6,4.7c3.4,4.4,3.8,9.5,3.4,14.7c-0.2,2.9-0.7,5.8-1.7,8.6c-0.4,1.1-1,1.6-2.3,1.6c-1.5-0.1-3.1,0-4.6,0
				c-1.9,0-2.4-0.7-1.5-2.3c1.4-2.4,2.1-5,2.6-7.7c0.4-2.2,0-4.4-0.8-6.5c-1-2.4-3-3.6-5.2-3.4c-2.1,0.2-3.8,1.9-4.4,4.4
				c-0.9,3.8-0.7,7.6,0.4,11.4c0.6,2,0,2.5-2,2.5c-5.6-0.1-11.2-0.1-16.8,0c-2,0.1-2.5-0.6-2.5-2.5C258,64.5,257.9,60.8,257.9,57.1z
				"/>
			<path class="st10" d="M295.9,30.7c-17.6,0-35.3,0-53,0.1c-3.8,0-6.5,1.7-8.1,5.1c-0.8,1.6-0.9,3.6-0.9,5.4c0,28,0,56.1,0,84.1
				c0,6.8,4.6,10.1,10.2,10.1c16.6-0.2,33.2-0.1,49.9-0.1c0.8,0,1.6,0,2.9,0c-1.9,1.6-3.6,2.1-5.6,2.1c-16.8,0-33.7,0-50.5,0
				c-4.5,0-8-3.2-8.7-7.6c-0.2-1.1-0.3-2.2-0.3-3.3c0-29.1,0-58.2,0-87.2c0-3.4,0.5-6.6,3.5-8.9c1.6-1.2,3.4-1.9,5.5-1.9
				c16.8,0,33.5,0,50.3,0c1.8,0,3.4,0.4,4.8,1.4C295.9,30.2,295.9,30.5,295.9,30.7z"/>
			<path class="st3" d="M295.9,30.7c0-0.2,0-0.5,0-0.7c0.3,0.1,0.7,0.2,0.6,0.7C296.5,30.7,296.1,30.7,295.9,30.7z"/>
		</g>
		<rect x="29.3" y="41.4" class="st11" width="167.1" height="85.3"/>
		<line class="st12" x1="29.3" y1="41.4" x2="208" y2="41.4"/>
		<g>
			<line class="st12" x1="208" y1="41.3" x2="202.4" y2="38.2"/>
			<line class="st12" x1="208" y1="41.3" x2="202.4" y2="44.5"/>
		</g>
		<line class="st12" x1="29.3" y1="41.4" x2="29.3" y2="139.4"/>
		<g>
			<line class="st12" x1="29.3" y1="140.7" x2="32.4" y2="135.1"/>
			<line class="st12" x1="29.3" y1="140.7" x2="26.1" y2="135.1"/>
		</g>
		<g>
			<g>
				<path d="M27.4,149.7l0.1-0.5c0.1,0,0.2,0.1,0.4,0.1c0.6,0,0.9-0.4,1.1-0.8l0.1-0.3l-1.8-3.9H28l0.9,2.2c0.2,0.4,0.3,0.8,0.5,1.1
					l0,0c0.1-0.4,0.3-0.8,0.4-1.1l0.9-2.2h0.6l-1.7,4.2c-0.3,0.8-0.8,1.4-1.7,1.4C27.7,149.8,27.5,149.8,27.4,149.7z"/>
			</g>
		</g>
		<g>
			<g>
				<path d="M213.3,40.6l-1.4-1.9h0.7l0.6,0.9c0.1,0.2,0.3,0.4,0.5,0.7l0,0c0.1-0.2,0.3-0.4,0.4-0.7l0.6-0.9h0.7l-1.4,1.9l1.5,2
					h-0.7l-0.7-0.9c-0.2-0.2-0.4-0.5-0.5-0.7l0,0c-0.2,0.2-0.3,0.5-0.5,0.7l-0.6,0.9h-0.7L213.3,40.6z"/>
			</g>
		</g>
		<g>
			<g>
				<path d="M9,34.1c0-1.6,0.7-2.8,1.8-3.7l0.4,0.3c-1.1,0.9-1.6,2-1.6,3.3s0.5,2.4,1.6,3.3l-0.4,0.3C9.7,36.9,9,35.7,9,34.1z"/>
				<path d="M12.8,33.7c0-1.7,0.7-2.7,1.8-2.7c1.2,0,1.8,0.9,1.8,2.7c0,1.7-0.7,2.7-1.8,2.7C13.5,36.4,12.8,35.5,12.8,33.7z
					 M15.9,33.7c0-1.5-0.5-2.1-1.2-2.1s-1.2,0.6-1.2,2.1s0.5,2.1,1.2,2.1C15.3,35.9,15.9,35.2,15.9,33.7z M14.1,33.7
					c0-0.3,0.2-0.5,0.5-0.5s0.5,0.2,0.5,0.5s-0.2,0.5-0.5,0.5S14.1,34,14.1,33.7z"/>
				<path d="M18.6,37.6c0.7-0.3,1-0.7,1-1.4l-0.2-0.7l0.4,0.6c-0.1,0.1-0.3,0.2-0.4,0.2c-0.3,0-0.6-0.2-0.6-0.6s0.3-0.6,0.7-0.6
					c0.5,0,0.7,0.4,0.7,1c0,0.9-0.5,1.6-1.4,1.9L18.6,37.6z"/>
				<path d="M22.5,33.7c0-1.7,0.7-2.7,1.8-2.7s1.8,0.9,1.8,2.7c0,1.7-0.7,2.7-1.8,2.7S22.5,35.5,22.5,33.7z M25.6,33.7
					c0-1.5-0.5-2.1-1.2-2.1s-1.2,0.6-1.2,2.1s0.5,2.1,1.2,2.1S25.6,35.2,25.6,33.7z M23.8,33.7c0-0.3,0.2-0.5,0.5-0.5
					s0.5,0.2,0.5,0.5s-0.2,0.5-0.5,0.5C24.1,34.2,23.8,34,23.8,33.7z"/>
				<path d="M27.7,37.4c1.1-0.9,1.6-2,1.6-3.3s-0.5-2.4-1.6-3.3l0.4-0.3c1.1,0.9,1.8,2.1,1.8,3.7s-0.7,2.7-1.8,3.6L27.7,37.4z"/>
			</g>
		</g>
		<circle cx="29.3" cy="41.3" r="1.6"/>
		<g>
			<g>
				<path d="M31.7,122.1l0.4-0.5c0.4,0.4,0.9,0.6,1.6,0.6c0.7,0,1.1-0.4,1.1-0.8c0-0.6-0.4-0.7-0.9-1l-0.8-0.3
					c-0.5-0.2-1.1-0.6-1.1-1.4c0-0.8,0.7-1.4,1.7-1.4c0.7,0,1.2,0.3,1.6,0.7l-0.4,0.4c-0.4-0.3-0.8-0.5-1.3-0.5c-0.6,0-1,0.3-1,0.8
					s0.5,0.7,0.9,0.9l0.7,0.3c0.6,0.3,1.2,0.6,1.2,1.4c0,0.8-0.7,1.5-1.9,1.5C32.9,122.9,32.2,122.6,31.7,122.1z"/>
				<path d="M36.9,117.1h0.7v3.9l0,0l2.1-2.1h0.8l-2.9,2.9v1.1h-0.7C36.9,122.9,36.9,117.1,36.9,117.1z M38.4,120.7l0.4-0.4l1.9,2.5
					H40L38.4,120.7z"/>
				<path d="M41,121.9c0-0.8,0.6-1.3,2.2-1.5v0.4c-1.2,0.1-1.6,0.5-1.6,1c0,0.4,0.2,0.6,0.6,0.6c0.3,0,0.7-0.2,1-0.7l0.2,0.3
					c-0.4,0.5-0.9,0.9-1.4,0.9S41,122.5,41,121.9z M43,120.9v-0.4c0-0.8-0.3-1.1-0.7-1.1c-0.3,0-0.7,0.1-0.9,0.3l-0.2-0.4
					c0.3-0.2,0.8-0.4,1.2-0.4c0.5,0,0.9,0.3,1.1,1.1h-0.2c0.2-0.8,0.7-1.1,1.2-1.1c0.8,0,1.2,0.8,1.2,1.8c0,0.1,0,0.3,0,0.4h-2.3
					v-0.5h1.9l-0.1,0.2c0-0.9-0.2-1.4-0.7-1.4c-0.4,0-0.9,0.4-0.9,1.5c0,0.9,0.4,1.5,1,1.5c0.3,0,0.6-0.1,0.8-0.3l0.2,0.5
					c-0.3,0.2-0.6,0.4-1,0.4C43.6,122.9,43,122.1,43,120.9z"/>
				<path d="M46.9,118.9h0.6l0.1,0.9l0,0c0.4-0.6,1-1,1.8-1c0.3,0,0.5,0,0.8,0.2l-0.1,0.6c-0.3-0.1-0.4-0.1-0.7-0.1
					c-0.6,0-1.1,0.3-1.6,1.1v2.3h-0.7L46.9,118.9L46.9,118.9z"/>
				<path d="M51.1,118.9h0.5l0.1,0.5l0,0c0.2-0.4,0.4-0.6,0.9-0.6c0.4,0,0.6,0.2,0.7,0.7c0.2-0.4,0.5-0.7,0.9-0.7
					c0.6,0,0.9,0.4,0.9,1.2v2.8h-0.7V120c0-0.4-0.1-0.7-0.4-0.7s-0.4,0.2-0.6,0.6v2.9h-0.6V120c0-0.4-0.1-0.7-0.4-0.7
					s-0.4,0.2-0.6,0.6v2.9h-0.7L51.1,118.9L51.1,118.9z"/>
			</g>
		</g>
		<g>
			<g>
				<path d="M195.7,133.5c0-1.6,0.7-2.8,1.8-3.7l0.4,0.3c-1.1,0.9-1.6,2-1.6,3.3c0,1.4,0.5,2.4,1.6,3.3l-0.4,0.3
					C196.4,136.3,195.7,135,195.7,133.5z"/>
				<path d="M199.7,135.1h1.5v-3.8H200v-0.4c0.6-0.1,1-0.2,1.3-0.4h0.5v4.6h1.3v0.6h-3.5L199.7,135.1L199.7,135.1z"/>
				<path d="M204.4,133.3c0-2.1,1-2.9,2.2-2.9c0.6,0,1.1,0.2,1.4,0.5l-0.4,0.4c-0.3-0.2-0.6-0.4-1-0.4c-0.8,0-1.6,0.6-1.6,2.3
					c0,1.3,0.5,2,1.3,2c0.6,0,1.1-0.4,1.1-1.1c0-0.7-0.4-1.1-1.1-1.1c-0.4,0-0.9,0.2-1.4,0.7v-0.5c0.4-0.4,1-0.7,1.5-0.7
					c1,0,1.6,0.5,1.6,1.6c0,1-0.8,1.7-1.7,1.7C205.2,135.8,204.4,135,204.4,133.3z"/>
				<path d="M209.2,133.1c0-1.7,0.7-2.7,1.9-2.7s1.9,0.9,1.9,2.7c0,1.7-0.7,2.7-1.9,2.7S209.2,134.8,209.2,133.1z M212.3,133.1
					c0-1.5-0.5-2.1-1.2-2.1s-1.2,0.6-1.2,2.1s0.5,2.1,1.2,2.1S212.3,134.6,212.3,133.1z M210.5,133c0-0.3,0.2-0.5,0.5-0.5
					s0.5,0.2,0.5,0.5s-0.2,0.5-0.5,0.5C210.8,133.6,210.5,133.4,210.5,133z"/>
				<path d="M215.1,137c0.7-0.3,1-0.7,1-1.4l-0.1-0.7l0.5,0.6c-0.1,0.1-0.3,0.2-0.5,0.2c-0.4,0-0.6-0.2-0.6-0.6
					c0-0.4,0.3-0.6,0.6-0.6c0.5,0,0.7,0.4,0.7,1c0,0.9-0.5,1.6-1.4,1.9L215.1,137z"/>
				<path d="M218.9,134.4c0-0.7,0.5-1.1,1.1-1.4l0,0c-0.4-0.3-0.8-0.7-0.8-1.2c0-0.8,0.7-1.3,1.6-1.3c1,0,1.6,0.6,1.6,1.4
					c0,0.5-0.4,0.9-0.8,1.2l0,0c0.6,0.3,1,0.6,1,1.3c0,0.8-0.7,1.4-1.9,1.4C219.6,135.8,218.9,135.2,218.9,134.4z M222,134.4
					c0-0.7-0.7-0.9-1.6-1.2c-0.5,0.3-0.9,0.6-0.9,1.1c0,0.6,0.5,1,1.3,1C221.5,135.3,222,134.9,222,134.4z M221.8,131.9
					c0-0.5-0.4-0.9-1-0.9s-1,0.3-1,0.8c0,0.6,0.6,0.9,1.4,1.1C221.6,132.6,221.8,132.2,221.8,131.9z"/>
				<path d="M223.7,133.1c0-1.7,0.7-2.7,1.9-2.7s1.9,0.9,1.9,2.7c0,1.7-0.7,2.7-1.9,2.7S223.7,134.8,223.7,133.1z M226.8,133.1
					c0-1.5-0.5-2.1-1.2-2.1s-1.2,0.6-1.2,2.1s0.5,2.1,1.2,2.1S226.8,134.6,226.8,133.1z M225.1,133c0-0.3,0.2-0.5,0.5-0.5
					s0.5,0.2,0.5,0.5s-0.2,0.5-0.5,0.5S225.1,133.4,225.1,133z"/>
				<path d="M229,136.8c1.1-0.9,1.6-2,1.6-3.3c0-1.4-0.5-2.4-1.6-3.3l0.4-0.3c1.1,0.9,1.8,2.1,1.8,3.7s-0.7,2.8-1.8,3.7L229,136.8z"
					/>
			</g>
		</g>
		<circle cx="196.3" cy="126.7" r="1.6"/>
		<g>
			<g>
				<path d="M211,74.4v0.4h-1h-0.6l0,0c0.3,0.3,0.5,0.6,0.5,1c0,0.6-0.4,0.9-1.1,0.9h-1.6v-0.4h1.6c0.5,0,0.7-0.2,0.7-0.6
					c0-0.3-0.2-0.5-0.5-0.8h-1.8v-0.4L211,74.4L211,74.4z"/>
				<path d="M207.2,77.5l2.7,2.3l-0.2,0.2l-2.7-2.3L207.2,77.5z M208.5,77.4c0.9,0,1.4,0.6,1.4,1.3c0,0.7-0.5,1.3-1.4,1.3
					s-1.4-0.6-1.4-1.3C207.1,78,207.6,77.4,208.5,77.4z M208.5,79.6c0.6,0,1-0.3,1-0.8s-0.4-0.8-1-0.8s-1,0.3-1,0.8
					S207.9,79.6,208.5,79.6z"/>
				<path d="M206.2,80.6l0.3,0.1c-0.1,0.2-0.1,0.4-0.1,0.6c0,0.5,0.3,0.7,0.7,0.7h2.4v-1.2h0.4v1.7h-2.7c-0.6,0-1.1-0.2-1.1-1.1
					C206,81.1,206.1,80.9,206.2,80.6z M210.7,81.9c0.2,0,0.3,0.1,0.3,0.4s-0.1,0.4-0.3,0.4s-0.3-0.1-0.3-0.4S210.5,81.9,210.7,81.9z
					"/>
				<path d="M208.5,83.9c0.9,0,1.4,0.6,1.4,1.2c0,0.3-0.1,0.6-0.3,0.8l0,0h0.5h1v0.4h-3.9v-0.4h0.3l0,0c-0.2-0.2-0.4-0.5-0.4-0.9
					C207.1,84.4,207.6,83.9,208.5,83.9z M207.9,85.9h1.3c0.2-0.2,0.3-0.5,0.3-0.7c0-0.4-0.4-0.8-1-0.8s-1,0.3-1,0.8
					C207.5,85.4,207.6,85.6,207.9,85.9z"/>
				<path d="M208.5,87.2c0.9,0,1.4,0.6,1.4,1.3c0,0.8-0.5,1.2-1.2,1.2c-0.1,0-0.2,0-0.3,0v-2.2h0.3v1.9l-0.1-0.1
					c0.6,0,0.9-0.3,0.9-0.8s-0.4-0.9-1-0.9c-0.7,0-1,0.4-1,1c0,0.3,0.1,0.6,0.2,0.8l-0.3,0.2c-0.2-0.3-0.3-0.6-0.3-1
					C207.1,87.8,207.6,87.2,208.5,87.2z"/>
				<path d="M206.3,91.1c0.2,0.5,0.5,0.7,0.9,0.7l0.5-0.1l-0.4,0.3c-0.1-0.1-0.1-0.2-0.1-0.3c0-0.2,0.1-0.4,0.4-0.4
					c0.3,0,0.4,0.2,0.4,0.4c0,0.3-0.3,0.5-0.7,0.5c-0.6,0-1.1-0.4-1.3-1L206.3,91.1z"/>
				<path d="M211,97v0.5h-1h-0.6l0,0c0.3,0.3,0.5,0.6,0.5,1c0,0.6-0.4,0.9-1.1,0.9h-1.6v-0.5h1.6c0.5,0,0.7-0.2,0.7-0.6
					c0-0.3-0.2-0.5-0.5-0.8h-1.8v-0.4L211,97L211,97z"/>
			</g>
		</g>
		<g>
			<path class="st13" d="M197.7,126.7c9.1,0,0.4-37.5,6.9-41.9"/>
			<path class="st13" d="M197.7,42.9c9.1,0,0.4,37.5,6.9,41.9"/>
		</g>
		<g>
			<g>
				<path d="M100.7,142.1L100.7,142.1l-0.1,0.3h-0.4v-3.8h0.4v1v0.5l0,0c0.2-0.2,0.6-0.4,0.9-0.4c0.7,0,1.1,0.5,1.1,1.3
					c0,0.9-0.6,1.4-1.2,1.4C101.3,142.4,101,142.3,100.7,142.1z M102.3,141c0-0.6-0.2-1-0.7-1c-0.2,0-0.5,0.1-0.8,0.4v1.3
					c0.2,0.2,0.5,0.3,0.7,0.3C101.9,142,102.3,141.7,102.3,141z"/>
				<path d="M103.8,139.7h0.4v0.6l0,0c0.3-0.4,0.7-0.7,1.2-0.7c0.2,0,0.4,0,0.5,0.1l-0.1,0.4c-0.2-0.1-0.3-0.1-0.5-0.1
					c-0.4,0-0.8,0.2-1.1,0.8v1.5h-0.4V139.7L103.8,139.7z"/>
				<path d="M106.6,141c0-0.9,0.6-1.4,1.3-1.4c0.8,0,1.2,0.5,1.2,1.2c0,0.1,0,0.2,0,0.3h-2.2v-0.3h1.9l-0.1,0.1
					c0-0.6-0.3-0.9-0.8-0.9s-0.9,0.4-0.9,1c0,0.7,0.4,1,1,1c0.3,0,0.6-0.1,0.8-0.2l0.2,0.3c-0.3,0.2-0.6,0.3-1,0.3
					C107.3,142.4,106.6,141.9,106.6,141z"/>
				<path d="M109.8,141c0-0.9,0.6-1.4,1.2-1.4c0.3,0,0.6,0.1,0.8,0.3l0,0v-0.5v-1h0.4v3.8h-0.4v-0.3l0,0c-0.2,0.2-0.5,0.4-0.9,0.4
					C110.3,142.4,109.8,141.9,109.8,141z M111.8,141.7v-1.3c-0.2-0.2-0.5-0.3-0.7-0.3c-0.4,0-0.8,0.4-0.8,1s0.3,1,0.8,1
					C111.3,142,111.6,141.9,111.8,141.7z"/>
				<path d="M113.1,141c0-0.9,0.6-1.4,1.2-1.4c0.3,0,0.6,0.1,0.8,0.3l0,0v-0.5v-1h0.4v3.8h-0.4v-0.3l0,0c-0.2,0.2-0.5,0.4-0.9,0.4
					C113.5,142.4,113.1,141.9,113.1,141z M115,141.7v-1.3c-0.2-0.2-0.5-0.3-0.7-0.3c-0.4,0-0.8,0.4-0.8,1s0.3,1,0.8,1
					C114.6,142,114.8,141.9,115,141.7z"/>
				<path d="M116.3,141c0-0.9,0.6-1.4,1.3-1.4c0.8,0,1.2,0.5,1.2,1.2c0,0.1,0,0.2,0,0.3h-2.2v-0.3h1.9l-0.1,0.1
					c0-0.6-0.3-0.9-0.8-0.9s-0.9,0.4-0.9,1c0,0.7,0.4,1,1,1c0.3,0,0.6-0.1,0.8-0.2l0.2,0.3c-0.3,0.2-0.6,0.3-1,0.3
					C117,142.4,116.3,141.9,116.3,141z"/>
				<path d="M120.3,143.2c0.5-0.2,0.7-0.5,0.7-0.9l-0.1-0.5l0.3,0.4c-0.1,0.1-0.2,0.1-0.3,0.1c-0.2,0-0.4-0.1-0.4-0.4
					c0-0.3,0.2-0.4,0.4-0.4c0.3,0,0.5,0.3,0.5,0.7c0,0.6-0.4,1.1-0.9,1.3L120.3,143.2z"/>
				<path d="M125.7,139.7h0.4l0.3,1.5c0.1,0.2,0.1,0.5,0.1,0.7l0,0c0-0.2,0.1-0.5,0.1-0.7l0.3-1.4h0.4l0.3,1.4
					c0.1,0.2,0.1,0.5,0.2,0.7l0,0c0-0.2,0.1-0.5,0.1-0.7l0.3-1.5h0.4l-0.6,2.6h-0.6l-0.3-1.2c0-0.2-0.1-0.4-0.1-0.8l0,0
					c0,0.3-0.1,0.6-0.1,0.8l-0.3,1.2H126L125.7,139.7z"/>
			</g>
		</g>
		<g>
			<path class="st13" d="M30.6,127.8c0,12.5,74.2,0.6,82.9,9.4"/>
			<path class="st13" d="M196.3,127.8c0,12.5-74.2,0.6-82.9,9.4"/>
		</g>
	</g>
</g>
</svg>
