<?xml version="1.0" encoding="utf-8"?>
<!-- Generator: Adobe Illustrator 23.1.1, SVG Export Plug-In . SVG Version: 6.00 Build 0)  -->
<svg version="1.1" xmlns="http://www.w3.org/2000/svg" xmlns:xlink="http://www.w3.org/1999/xlink" x="0px" y="0px"
	 viewBox="0 0 267.3 162.4" style="enable-background:new 0 0 267.3 162.4;" xml:space="preserve">
<style type="text/css">
	.st0{display:none;opacity:0.55;}
	.st1{display:inline;}
	.st2{fill:#676767;}
	.st3{fill:#E93725;}
	.st4{fill:#CCCCCB;}
	.st5{fill:#796350;}
	.st6{fill:#595959;}
	.st7{fill:#DC8844;}
	.st8{fill:#907259;}
	.st9{fill:#BD7F4C;}
	.st10{fill:#131313;}
	.st11{fill:#CC732A;}
	.st12{fill:#575655;}
	
		.st13{display:inline;fill:#E5F4F7;stroke:#5C5A5C;stroke-width:2;stroke-linecap:round;stroke-linejoin:round;stroke-miterlimit:10;}
	.st14{opacity:0.56;}
	.st15{fill:#676868;}
	.st16{fill:#E93A27;}
	.st17{fill:#7A6451;}
	.st18{fill:#595A5A;}
	.st19{fill:#DC8843;}
	.st20{fill:#917259;}
	.st21{fill:#BD7F4D;}
	.st22{fill:#151515;}
	.st23{fill:#CC7329;}
	.st24{fill:#585756;}
	.st25{fill:#F7EC13;stroke:#5D5B5C;stroke-width:2;stroke-linecap:round;stroke-linejoin:round;stroke-miterlimit:10;}
	.st26{fill:#282826;stroke:#5D5B5C;stroke-width:2;stroke-linecap:round;stroke-linejoin:round;stroke-miterlimit:10;}
	.st27{display:none;opacity:0.48;}
	.st28{fill:none;stroke:#FFFFFF;stroke-miterlimit:10;}
	.st29{display:none;}
	.st30{fill:none;}
	.st31{font-family:'ArialMT';}
	.st32{font-size:8px;}
	.st33{display:inline;fill:none;stroke:#0D0D0D;stroke-width:2;stroke-linecap:round;stroke-linejoin:round;stroke-miterlimit:10;}
	.st34{fill:none;stroke:#000000;stroke-width:0.5;stroke-linecap:round;stroke-miterlimit:10;}
	.st35{fill:none;stroke:#0D0D0D;stroke-width:2;stroke-linecap:round;stroke-linejoin:round;stroke-miterlimit:10;}
	.st36{font-size:3.9959px;}
	.st37{fill:none;stroke:#0D0D0D;stroke-width:0.999;stroke-linecap:round;stroke-linejoin:round;stroke-miterlimit:10;}
	.st38{fill:none;stroke:#000000;stroke-width:0.2497;stroke-linecap:round;stroke-miterlimit:10;}
	.st39{fill:none;stroke:#0D0D0D;stroke-linecap:round;stroke-linejoin:round;stroke-miterlimit:10;}
	.st40{fill:none;stroke:#000000;stroke-width:0.2491;stroke-miterlimit:10;}
	.st41{fill:none;stroke:#000000;stroke-width:0.25;stroke-linecap:round;stroke-miterlimit:10;}
	.st42{fill:none;stroke:#FFFFFF;stroke-width:0.2678;stroke-miterlimit:10;stroke-dasharray:2.1421;}
	.st43{fill:#FFFFFF;}
	.st44{font-family:'MyriadPro-Regular';}
	.st45{font-size:5px;}
	.st46{fill:none;stroke:#FFFFFF;stroke-width:0.25;stroke-linecap:round;stroke-miterlimit:10;}
	.st47{fill:none;stroke:#FFFFFF;stroke-width:0.1989;stroke-linecap:round;stroke-miterlimit:10;}
</style>
<g id="Layer_2" class="st0">
	<g class="st1">
		<path class="st2" d="M-31.4,127.4c0-0.7-0.1-1.3-0.1-2c0-36.1,0.1-72.2-0.1-108.3c0-9,6.4-17.1,15.2-18.9c1.2-0.2,2.3-0.3,3.5-0.3
			c97.7,0,195.4,0,293.1-0.1c9.6,0,18.1,8.2,18.6,16.8c0.1,2.2,0.3,4.4,0.3,6.6c0,40.8,0,81.6,0,122.4c0,6.9-2.1,12.9-8,17.1
			c-3.2,2.3-6.9,3.6-10.8,3.6c-12.9,0.1-25.8,0-38.8,0c0-0.1,0-0.3,0-0.4c0.4-0.5,0.6-1.1,0.4-1.7c0-0.1,0-0.3,0-0.5
			c12.3,0,24.6,0,37,0c1.5,0,3-0.1,4.4-0.4c8-1.8,12.8-7.8,13-14.4c0.5-16,0.1-32,0.1-48c0.1-0.1,0.1-0.3,0.1-0.4
			c0.9-0.5,1.3-1.4,1.3-2.4c0-10.1,0-20.1,0-30.2c0-1.1-0.3-2.1-1.7-2.1c0.5-0.7,0.4-1.6,0.4-2.4c0-14.5,0-28.9,0-43.4
			c0-1.9-0.2-3.8-0.7-5.7c-2.1-7.3-8.3-11.8-16.5-11.8c-71.8,0-143.6,0-215.4,0c-0.4-1.2-1.4-1.4-2.5-1.4c-7.6,0-15.3,0-22.9,0
			c-0.9,0-1.8,0-2.2,1c-0.1,0.1-0.2,0.2-0.4,0.3c-15.9,0-31.7,0-47.6,0.1c-1.4,0-2.8,0-4.2,0.3c-8,1.7-13,8-13,16.6
			c0,29.3,0,58.5,0,87.8c0,7.2,0,14.4-0.1,21.7C-29.8,126.8-30.6,127-31.4,127.4z"/>
		<path class="st2" d="M214.5,164.5c-0.7,0-1.5,0.1-2.2,0.1c-74.7,0-149.4,0-224.1,0c-9.7,0-17.3-6.1-19.4-15.5
			c-0.3-1.3-0.2-2.6-0.2-4c0.8,0.6,1.7,0.6,2.6,0.5c-0.1,8.6,7,16.3,17,16.3c75.3,0,150.7,0,226,0c-0.2,0.8-0.1,1.5,0.4,2.3
			C214.5,164.3,214.5,164.4,214.5,164.5z"/>
		<path class="st3" d="M214.5,164.1c-0.4-0.7-0.5-1.5-0.4-2.3c0.7-0.6,1.5-0.9,2.4-0.8c7.6,0,15.3,0,22.9,0c0.8,0,1.6,0,2.1,0.9
			c0.1,0.2,0.2,0.3,0.3,0.5c0.2,0.6,0,1.2-0.4,1.7c-0.2,0.1-0.4,0.3-0.6,0.4c-8.6,0-17.3,0-25.9,0
			C214.9,164.4,214.7,164.3,214.5,164.1z"/>
		<path class="st3" d="M-28.8,145.6c-0.9,0.1-1.8,0.1-2.6-0.5c0-0.2-0.1-0.3-0.1-0.5c0-0.1-0.1-0.3-0.1-0.4c0-2.2,0-4.4,0-6.6
			l0.1-0.1v-0.2c0.1-0.2,0.2-0.4,0.3-0.6c0.8-0.5,1.8,0.3,2.6-0.4C-27.6,139.4-27.4,142.5-28.8,145.6z"/>
		<path class="st4" d="M-28.7,136.3c-0.8,0.7-1.8-0.1-2.6,0.4c-0.7-3.1-0.6-6.1-0.1-9.2c0.8-0.5,1.6-0.6,2.5-0.4
			C-27.7,130.1-28,133.2-28.7,136.3z"/>
		<path class="st5" d="M-31.6,144.2c0,0.1,0.1,0.3,0.1,0.4C-31.5,144.5-31.6,144.3-31.6,144.2z"/>
		<path class="st5" d="M-31.5,137.3v0.2l-0.1,0.1C-31.7,137.4-31.7,137.3-31.5,137.3z"/>
		<path class="st6" d="M214.5,164.1c0.2,0.1,0.3,0.2,0.5,0.4c-0.2,0-0.4,0-0.5,0C214.5,164.4,214.5,164.3,214.5,164.1z"/>
		<path class="st6" d="M241,164.5c0.2-0.1,0.4-0.3,0.6-0.4c0,0.1,0,0.3,0,0.4C241.4,164.5,241.2,164.5,241,164.5z"/>
		<path class="st7" d="M-28.7,136.3c0.8-3.1,1-6.2-0.2-9.2c0-7.2,0.1-14.5,0.1-21.7c0-29.3,0-58.5,0-87.8c0-8.6,5-14.9,13-16.6
			c1.3-0.3,2.8-0.3,4.2-0.3C4.3,0.7,20.1,0.6,36,0.6c0.1,0.1,0.3,0.1,0.4,0.1c-0.2,1.8,1.1,2,2.4,2c7.6,0,15.1,0.1,22.7,0.1
			c1.4,0,2.4-0.5,2.5-2.1c71.8,0,143.6,0,215.4,0c8.2,0,14.4,4.5,16.5,11.8c0.5,1.8,0.7,3.8,0.7,5.7c0,14.5,0,28.9,0,43.4
			c0,0.8,0.1,1.6-0.4,2.4c-1.4,0.1-1.8,1-1.8,2.3c0,10,0,20.1,0,30.1c0,1.3,0.5,2.1,1.8,2.4c0.1,0.1,0.2,0.2,0.3,0.4
			c0,16,0.4,32-0.1,48c-0.2,6.6-5,12.6-13,14.4c-1.4,0.3-2.9,0.4-4.4,0.4c-12.3,0-24.6,0-37,0c-0.1,0-0.2,0-0.4,0
			c-0.5-0.8-1.3-0.9-2.1-0.9c-7.6,0-15.3,0-22.9,0c-1,0-1.7,0.2-2.4,0.8c-75.3,0-150.7,0-226,0c-10,0-17.1-7.8-17-16.3
			C-27.4,142.5-27.6,139.4-28.7,136.3z M264.1,28.5c0.2,0,0.6,0,0.6-0.1c0.1-0.4-0.2-0.6-0.6-0.7c-1.5-1-3-1.4-4.8-1.4
			c-16.8,0-33.5,0-50.3,0c-2.1,0-3.9,0.7-5.5,1.9c-3,2.2-3.5,5.4-3.5,8.9c0,29.1,0,58.2,0,87.2c0,1.1,0.1,2.2,0.3,3.3
			c0.7,4.4,4.2,7.6,8.7,7.6c16.8,0,33.7,0,50.5,0c1.9,0,3.7-0.5,5.6-2.1c-1.3,0-2.1,0-2.9,0c-16.6,0-33.2-0.1-49.9,0.1
			c-5.5,0.1-10.2-3.2-10.2-10.1c0-28,0-56.1,0-84.1c0-1.8,0.1-3.7,0.9-5.4c1.6-3.3,4.4-5.1,8.1-5.1
			C228.8,28.6,246.5,28.5,264.1,28.5z M80.5,123.4c27.2,0,54.3,0,81.5,0c2,0,2.5-0.5,2.5-2.5c-0.1-26.3-0.1-52.5,0-78.8
			c0-1.9-0.3-2.5-2.4-2.5c-54.3,0.1-108.6,0.1-162.8,0c-2,0-2.4,0.5-2.4,2.4c0.1,26.3,0.1,52.5,0,78.8c0,1.9,0.4,2.6,2.5,2.6
			C26.4,123.4,53.4,123.4,80.5,123.4z M239.8,88.9c0-0.1,0.1-0.3,0.1-0.4c0.7,0,1.4,0,2.1,0c6.6,0,13.3-0.1,19.9,0
			c1.8,0,2.4-0.6,2.2-2.3c-0.1-1.9-0.1-3.8,0-5.8c0-1.2-0.4-1.8-1.6-1.8c-11.6,0-23.2,0-34.8,0c-1.4,0-1.7,0.6-1.7,1.9
			c0,2.4,0.1,4.7,0,7.1c-0.1,1.7,0.4,2.7,2.1,3.4c4.9,2.1,9.7,4.3,14.5,6.5c0.6,0.3,1.7,0.3,1.7,1.1s-1.1,0.9-1.7,1.2
			c-4.9,2.2-9.8,4.4-14.8,6.6c-1,0.4-1.9,0.8-1.8,2.2c0.1,2.8,0,5.6,0,8.4c0,1.1,0.4,1.6,1.5,1.6c11.7,0,23.3,0,35,0
			c1.1,0,1.6-0.4,1.6-1.6c0-1.9-0.1-3.8,0-5.8c0.1-1.6-0.6-2-2.1-2c-6.7,0.1-13.4,0-20.2,0c-0.7,0-1.4,0-2,0c4.3-2.2,8.6-4.1,13-5.9
			c1-0.4,2.1-0.6,2.4-2c0.8-4.4,0-5.9-4-7.5c-0.1,0-0.1,0-0.2-0.1C247.3,92.1,243.5,90.5,239.8,88.9z M226.1,54.9
			c0,3.7,0.1,7.4,0,11.1c-0.1,1.9,0.5,2.6,2.5,2.5c5.6-0.1,11.2-0.1,16.8,0c2,0.1,2.6-0.5,2-2.5c-1.1-3.7-1.3-7.5-0.4-11.4
			c0.6-2.5,2.3-4.1,4.4-4.4c2.1-0.2,4.2,1.1,5.2,3.4c0.8,2.1,1.2,4.2,0.8,6.5c-0.5,2.7-1.2,5.3-2.6,7.7c-0.9,1.6-0.4,2.2,1.5,2.3
			c1.5,0,3.1-0.1,4.6,0c1.2,0.1,1.8-0.4,2.3-1.6c1-2.8,1.5-5.7,1.7-8.6c0.4-5.2,0-10.3-3.4-14.7c-3.2-4.2-7.6-5.4-12.6-4.7
			c-4.5,0.6-7.1,3.6-8.4,7.8c-0.9,2.8-1.2,5.8-1.1,8.7c0,1.4-0.4,2.1-1.9,2c-0.5-0.1-1-0.1-1.5,0c-1.8,0.2-2.5-0.4-2.4-2.3
			c0.1-3.3,0-6.6,0-10c0-5.7,0-5.6-5.7-5.5c-1.5,0-1.9,0.6-1.9,2C226.1,47.3,226.1,51.1,226.1,54.9z"/>
		<path class="st4" d="M296.1,98.7c-1.3-0.2-1.8-1.1-1.8-2.4c0-10,0-20.1,0-30.1c0-1.3,0.4-2.2,1.8-2.3c1.4,0.1,1.7,1.1,1.7,2.1
			c0,10.1,0,20.1,0,30.2c0,1-0.4,1.9-1.3,2.4C296.4,98.6,296.2,98.6,296.1,98.7z"/>
		<path class="st4" d="M63.9,0.6c-0.1,1.6-1,2.2-2.5,2.1c-7.6,0-15.1-0.1-22.7-0.1c-1.3,0-2.6-0.1-2.4-2c0-0.2,0-0.3,0-0.4
			c0.4-1,1.4-1,2.2-1c7.6,0,15.3,0,22.9,0C62.6-0.7,63.5-0.5,63.9,0.6z"/>
		<path class="st8" d="M36.3,0.3c0,0.2,0,0.3,0,0.4c-0.1,0-0.3-0.1-0.4-0.1C36,0.5,36.2,0.4,36.3,0.3z"/>
		<path class="st9" d="M241.6,161.9c0.1,0,0.2,0,0.4,0c0,0.1,0,0.3,0,0.5C241.8,162.2,241.7,162.1,241.6,161.9z"/>
		<path class="st9" d="M296.1,98.7c0.1,0,0.3-0.1,0.4,0c0,0.1,0,0.3-0.1,0.4C296.3,98.9,296.2,98.8,296.1,98.7z"/>
		<path class="st10" d="M80.5,123.4c-27,0-54.1,0-81.1,0c-2.1,0-2.5-0.6-2.5-2.6C-3,94.5-3,68.3-3.1,42c0-1.9,0.4-2.4,2.4-2.4
			c54.3,0.1,108.6,0.1,162.8,0c2,0,2.4,0.6,2.4,2.5c-0.1,26.3-0.1,52.5,0,78.8c0,2-0.5,2.5-2.5,2.5
			C134.8,123.4,107.6,123.4,80.5,123.4z"/>
		<path class="st11" d="M239.8,88.9c3.8,1.6,7.5,3.2,11.2,4.8c0.1,0,0.1,0,0.2,0.1c4.1,1.6,4.9,3.1,4,7.5c-0.3,1.4-1.5,1.6-2.4,2
			c-4.3,1.9-8.6,3.7-13,5.9c0.7,0,1.4,0,2,0c6.7,0,13.4,0,20.2,0c1.5,0,2.2,0.4,2.1,2c-0.1,1.9-0.1,3.8,0,5.8c0,1.1-0.4,1.6-1.6,1.6
			c-11.7,0-23.3,0-35,0c-1.2,0-1.6-0.5-1.5-1.6c0-2.8,0.1-5.6,0-8.4c0-1.4,0.9-1.8,1.8-2.2c4.9-2.2,9.8-4.4,14.8-6.6
			c0.6-0.3,1.7-0.4,1.7-1.2s-1.1-0.8-1.7-1.1c-4.8-2.2-9.6-4.4-14.5-6.5c-1.6-0.7-2.2-1.7-2.1-3.4c0.1-2.4,0.1-4.7,0-7.1
			c0-1.2,0.3-1.9,1.7-1.9c11.6,0,23.2,0,34.8,0c1.3,0,1.7,0.6,1.6,1.8c0,1.9-0.1,3.8,0,5.8c0.1,1.7-0.5,2.3-2.2,2.3
			c-6.6-0.1-13.3,0-19.9,0c-0.7,0-1.4,0-2.1,0C239.9,88.6,239.8,88.7,239.8,88.9z"/>
		<path class="st11" d="M226.1,54.9c0-3.8,0-7.7,0-11.5c0-1.4,0.4-1.9,1.9-2c5.7-0.1,5.7-0.2,5.7,5.5c0,3.3,0.1,6.6,0,10
			c-0.1,1.9,0.6,2.6,2.4,2.3c0.5-0.1,1-0.1,1.5,0c1.5,0.1,1.9-0.6,1.9-2c-0.1-2.9,0.2-5.9,1.1-8.7c1.3-4.2,3.9-7.2,8.4-7.8
			c5-0.7,9.4,0.5,12.6,4.7c3.4,4.4,3.8,9.5,3.4,14.7c-0.2,2.9-0.7,5.8-1.7,8.6c-0.4,1.1-1,1.6-2.3,1.6c-1.5-0.1-3.1,0-4.6,0
			c-1.9,0-2.4-0.7-1.5-2.3c1.4-2.4,2.1-5,2.6-7.7c0.4-2.2,0-4.4-0.8-6.5c-1-2.4-3-3.6-5.2-3.4c-2.1,0.2-3.8,1.9-4.4,4.4
			c-0.9,3.8-0.7,7.6,0.4,11.4c0.6,2,0,2.5-2,2.5c-5.6-0.1-11.2-0.1-16.8,0c-2,0.1-2.5-0.6-2.5-2.5C226.2,62.3,226.1,58.6,226.1,54.9
			z"/>
		<path class="st12" d="M264.1,28.5c-17.6,0-35.3,0-53,0.1c-3.8,0-6.5,1.7-8.1,5.1c-0.8,1.6-0.9,3.6-0.9,5.4c0,28,0,56.1,0,84.1
			c0,6.8,4.6,10.1,10.2,10.1c16.6-0.2,33.2-0.1,49.9-0.1c0.8,0,1.6,0,2.9,0c-1.9,1.6-3.6,2.1-5.6,2.1c-16.8,0-33.7,0-50.5,0
			c-4.5,0-8-3.2-8.7-7.6c-0.2-1.1-0.3-2.2-0.3-3.3c0-29.1,0-58.2,0-87.2c0-3.4,0.5-6.6,3.5-8.9c1.6-1.2,3.4-1.9,5.5-1.9
			c16.8,0,33.5,0,50.3,0c1.8,0,3.4,0.4,4.8,1.4C264.1,28,264.1,28.3,264.1,28.5z"/>
		<path class="st5" d="M264.1,28.5c0-0.2,0-0.5,0-0.7c0.3,0.1,0.7,0.2,0.6,0.7C264.7,28.5,264.3,28.5,264.1,28.5z"/>
	</g>
	<rect x="-2.5" y="39.2" class="st13" width="167.1" height="85.3"/>
</g>
<g id="Layer_3_1_" class="st14">
	<g>
		<g>
			<g>
				<g>
					<g>
						<path class="st15" d="M105.1,106.2c0-0.3,0-0.7,0-1c0-17.7,0-35.4,0-53.1c0-4.4,3.1-8.4,7.5-9.3c0.6-0.1,1.2-0.1,1.7-0.1
							c48,0,95.9,0,143.8,0c4.7,0,8.9,4,9.1,8.2c0.1,1.1,0.1,2.2,0.1,3.2c0,20,0,40.1,0,60.1c0,3.4-1,6.3-3.9,8.4
							c-1.6,1.1-3.4,1.8-5.3,1.8c-6.3,0.1-12.7,0-19,0c0-0.1,0-0.1,0-0.2c0.2-0.2,0.3-0.5,0.2-0.8c0-0.1,0-0.1,0-0.2
							c6.1,0,12.1,0,18.1,0c0.7,0,1.4-0.1,2.2-0.2c3.9-0.9,6.3-3.8,6.4-7.1c0.2-7.8,0.1-15.7,0-23.6c0-0.1,0-0.1,0-0.2
							c0.4-0.3,0.6-0.7,0.6-1.2c0-4.9,0-9.9,0-14.8c0-0.5-0.1-1-0.8-1.1c0.2-0.4,0.2-0.8,0.2-1.2c0-7.1,0-14.2,0-21.3
							c0-0.9-0.1-1.9-0.4-2.8c-1-3.6-4.1-5.8-8.1-5.8c-35.2,0-70.5,0-105.7,0c-0.2-0.6-0.7-0.7-1.2-0.7c-3.8,0-7.5,0-11.2,0
							c-0.4,0-0.9,0-1.1,0.5c0,0.2-0.1,0.2-0.1,0.3c-7.8,0-15.6,0-23.4,0c-0.7,0-1.4,0-2,0.1c-3.9,0.8-6.4,4-6.4,8.2
							c0,14.4,0,28.7,0,43.1c0,3.6,0,7.1,0,10.6C105.9,105.9,105.5,106,105.1,106.2z"/>
						<path class="st15" d="M225.8,124.4c-0.4,0-0.7,0-1.1,0c-36.7,0-73.3,0-110,0c-4.8,0-8.5-3-9.5-7.6c-0.1-0.7-0.1-1.3-0.1-1.9
							c0.4,0.3,0.8,0.3,1.3,0.2c-0.1,4.2,3.4,8,8.3,8c37,0,73.9,0,110.9,0c-0.1,0.4,0,0.8,0.2,1.1
							C225.8,124.3,225.8,124.4,225.8,124.4z"/>
						<path class="st16" d="M225.8,124.2c-0.2-0.4-0.3-0.7-0.2-1.1c0.3-0.3,0.7-0.4,1.2-0.4c3.8,0,7.5,0,11.3,0c0.4,0,0.8,0,1,0.4
							c0.1,0.1,0.1,0.2,0.1,0.2c0.1,0.3,0,0.6-0.2,0.8c-0.1,0.1-0.2,0.1-0.3,0.2c-4.2,0-8.5,0-12.7,0
							C226,124.4,225.9,124.3,225.8,124.2z"/>
						<path class="st16" d="M106.4,115.1c-0.4,0-0.9,0.1-1.3-0.2c0-0.1,0-0.2-0.1-0.2c0-0.1,0-0.1-0.1-0.2c0-1.1,0-2.2,0-3.2v-0.1
							v-0.1c0-0.1,0.1-0.2,0.1-0.3c0.4-0.2,0.9,0.2,1.2-0.2C107,112.1,107.1,113.6,106.4,115.1z"/>
						<path class="st4" d="M106.4,110.6c-0.4,0.3-0.9,0-1.2,0.2c-0.3-1.5-0.3-3,0-4.5c0.4-0.2,0.8-0.3,1.2-0.2
							C106.9,107.5,106.8,109.1,106.4,110.6z"/>
						<path class="st17" d="M105,114.4c0,0.1,0,0.1,0.1,0.2C105.1,114.6,105,114.5,105,114.4z"/>
						<path class="st17" d="M105.1,111L105.1,111v0.2C105,111.1,105,111.1,105.1,111z"/>
						<path class="st18" d="M225.8,124.2c0.1,0.1,0.2,0.1,0.2,0.2c-0.1,0-0.2,0-0.3,0C225.8,124.4,225.8,124.3,225.8,124.2z"/>
						<path class="st18" d="M238.8,124.4c0.1-0.1,0.2-0.1,0.3-0.2c0,0.1,0,0.1,0,0.2C239,124.4,238.9,124.4,238.8,124.4z"/>
						<path class="st19" d="M106.4,110.6c0.4-1.5,0.5-3-0.1-4.5c0-3.6,0-7.1,0-10.6c0-14.4,0-28.7,0-43.1c0-4.2,2.4-7.3,6.4-8.2
							c0.7-0.1,1.4-0.1,2-0.1c7.8,0,15.6,0,23.4,0c0.1,0,0.1,0.1,0.2,0.1c-0.1,0.9,0.5,1,1.2,1c3.7,0,7.4,0,11.2,0
							c0.7,0,1.2-0.3,1.2-1c35.2,0,70.5,0,105.7,0c4,0,7.1,2.2,8.1,5.8c0.2,0.9,0.4,1.8,0.4,2.8c0,7.1,0,14.2,0,21.3
							c0,0.4,0.1,0.8-0.2,1.2c-0.7,0.1-0.9,0.5-0.9,1.1c0,4.9,0,9.8,0,14.8c0,0.6,0.2,1.1,0.9,1.2c0.1,0.1,0.1,0.1,0.2,0.2
							c0,7.8,0.2,15.7,0,23.6c-0.1,3.2-2.4,6.2-6.4,7.1c-0.7,0.2-1.4,0.2-2.2,0.2c-6.1,0-12.1,0-18.1,0c-0.1,0-0.1,0-0.2,0
							c-0.2-0.4-0.6-0.4-1-0.4c-3.8,0-7.5,0-11.3,0c-0.5,0-0.8,0.1-1.2,0.4c-37,0-73.9,0-110.9,0c-4.9,0-8.4-3.8-8.3-8
							C107.1,113.6,107,112.1,106.4,110.6z M250.2,57.7c0.1,0,0.3,0,0.3,0c0.1-0.2-0.1-0.3-0.3-0.3c-0.7-0.5-1.5-0.7-2.4-0.7
							c-8.2,0-16.4,0-24.7,0c-1,0-1.9,0.3-2.7,1c-1.5,1.1-1.7,2.7-1.7,4.3c0,14.3,0,28.5,0,42.8c0,0.5,0.1,1.1,0.1,1.6
							c0.3,2.2,2.1,3.7,4.3,3.7c8.3,0,16.5,0,24.8,0c0.9,0,1.8-0.2,2.7-1.1c-0.6,0-1,0-1.4,0c-8.1,0-16.3-0.1-24.5,0
							c-2.7,0-5-1.6-5-4.9c0-13.8,0-27.5,0-41.3c0-0.9,0-1.8,0.4-2.6c0.8-1.6,2.1-2.5,4-2.5C232.9,57.7,241.5,57.7,250.2,57.7z
							 M160,104.2c13.3,0,26.7,0,40,0c1,0,1.2-0.3,1.2-1.2c0-12.9,0-25.8,0-38.7c0-0.9-0.2-1.2-1.2-1.2c-26.6,0-53.3,0-79.9,0
							c-1,0-1.2,0.2-1.2,1.2c0,12.9,0,25.8,0,38.7c0,0.9,0.2,1.3,1.2,1.3C133.5,104.2,146.8,104.2,160,104.2z M238.2,87.3
							c0-0.1,0-0.2,0.1-0.2c0.4,0,0.7,0,1,0c3.3,0,6.5,0,9.8,0c0.9,0,1.1-0.3,1.1-1.1c-0.1-0.9,0-1.9,0-2.8c0-0.6-0.2-0.9-0.8-0.9
							c-5.7,0-11.4,0-17.1,0c-0.7,0-0.9,0.3-0.8,0.9c0,1.2,0.1,2.3,0,3.5c-0.1,0.8,0.2,1.3,1,1.7c2.4,1,4.8,2.1,7.1,3.2
							c0.3,0.1,0.8,0.1,0.8,0.5s-0.5,0.4-0.8,0.6c-2.4,1.1-4.8,2.2-7.2,3.2c-0.5,0.2-0.9,0.4-0.9,1.1c0,1.4,0,2.8,0,4.1
							c0,0.5,0.2,0.8,0.8,0.8c5.7,0,11.5,0,17.2,0c0.6,0,0.8-0.2,0.8-0.8c0-0.9-0.1-1.9,0-2.8c0-0.8-0.3-1-1-1c-3.3,0-6.6,0-9.9,0
							c-0.3,0-0.7,0-1,0c2.1-1.1,4.2-2,6.4-2.9c0.5-0.2,1.1-0.3,1.2-1c0.4-2.2,0-2.9-2-3.7h-0.1C241.9,88.9,240.1,88.1,238.2,87.3z
							 M231.5,70.7c0,1.8,0.1,3.6,0,5.4c0,0.9,0.2,1.3,1.2,1.2c2.8-0.1,5.5-0.1,8.3,0c1,0,1.3-0.2,1-1.2c-0.5-1.8-0.6-3.7-0.2-5.6
							c0.3-1.2,1.1-2,2.2-2.1c1.1-0.1,2.1,0.5,2.5,1.7c0.4,1,0.6,2.1,0.4,3.2c-0.2,1.3-0.6,2.6-1.3,3.8c-0.4,0.8-0.2,1.1,0.7,1.1
							c0.8,0,1.5,0,2.3,0c0.6,0,0.9-0.2,1.1-0.8c0.5-1.4,0.7-2.8,0.8-4.2c0.2-2.6,0-5.1-1.7-7.2c-1.6-2.1-3.8-2.7-6.2-2.3
							c-2.2,0.3-3.5,1.8-4.1,3.8c-0.4,1.4-0.6,2.8-0.5,4.3c0,0.7-0.2,1-0.9,1c-0.2,0-0.5,0-0.8,0c-0.9,0.1-1.2-0.2-1.2-1.1
							c0.1-1.6,0-3.3,0-4.9c0-2.8,0-2.8-2.8-2.7c-0.7,0-0.9,0.3-0.9,1C231.5,66.9,231.5,68.8,231.5,70.7z"/>
						<path class="st4" d="M265.9,92.1c-0.6-0.1-0.9-0.6-0.9-1.2c0-4.9,0-9.8,0-14.8c0-0.6,0.2-1.1,0.9-1.1c0.7,0,0.8,0.5,0.8,1.1
							c0,4.9,0,9.9,0,14.8c0,0.5-0.2,0.9-0.6,1.2C266,92.1,265.9,92.1,265.9,92.1z"/>
						<path class="st4" d="M151.9,44c0,0.8-0.5,1-1.2,1c-3.7,0-7.4,0-11.2,0c-0.7,0-1.3-0.1-1.2-1c0-0.1,0-0.1,0-0.2
							c0.2-0.5,0.7-0.5,1.1-0.5c3.8,0,7.5,0,11.2,0C151.3,43.3,151.7,43.4,151.9,44z"/>
						<path class="st20" d="M138.4,43.8c0,0.1,0,0.1,0,0.2c-0.1,0-0.1,0-0.2-0.1C138.2,43.9,138.3,43.9,138.4,43.8z"/>
						<path class="st21" d="M239.1,123.1c0.1,0,0.1,0,0.2,0c0,0.1,0,0.1,0,0.2C239.2,123.3,239.2,123.2,239.1,123.1z"/>
						<path class="st21" d="M265.9,92.1c0.1,0,0.1,0,0.2,0c0,0.1,0,0.1,0,0.2C266,92.2,265.9,92.2,265.9,92.1z"/>
						<path class="st22" d="M160,104.2c-13.3,0-26.5,0-39.8,0c-1,0-1.2-0.3-1.2-1.3c0-12.9,0-25.8,0-38.7c0-0.9,0.2-1.2,1.2-1.2
							c26.6,0,53.3,0,79.9,0c1,0,1.2,0.3,1.2,1.2c0,12.9,0,25.8,0,38.7c0,1-0.2,1.2-1.2,1.2C186.7,104.2,173.4,104.2,160,104.2z"/>
						<path class="st23" d="M238.2,87.3c1.8,0.8,3.7,1.6,5.5,2.4h0.1c2,0.8,2.4,1.6,2,3.7c-0.1,0.7-0.7,0.8-1.2,1
							c-2.1,0.9-4.2,1.8-6.4,2.9c0.3,0,0.7,0,1,0c3.3,0,6.6,0,9.9,0c0.7,0,1.1,0.2,1,1c-0.1,0.9,0,1.9,0,2.8c0,0.6-0.2,0.8-0.8,0.8
							c-5.7,0-11.5,0-17.2,0c-0.6,0-0.8-0.2-0.8-0.8c0-1.4,0-2.8,0-4.1c0-0.7,0.4-0.9,0.9-1.1c2.4-1.1,4.8-2.1,7.2-3.2
							c0.3-0.1,0.8-0.2,0.8-0.6s-0.5-0.4-0.8-0.5c-2.4-1.1-4.7-2.2-7.1-3.2c-0.8-0.3-1.1-0.8-1-1.7c0.1-1.2,0-2.3,0-3.5
							c0-0.6,0.1-0.9,0.8-0.9c5.7,0,11.4,0,17.1,0c0.6,0,0.8,0.3,0.8,0.9c0,0.9-0.1,1.9,0,2.8c0.1,0.8-0.2,1.1-1.1,1.1
							c-3.3-0.1-6.5,0-9.8,0c-0.4,0-0.7,0-1,0C238.3,87.2,238.3,87.2,238.2,87.3z"/>
						<path class="st23" d="M231.5,70.7c0-1.9,0-3.8,0-5.7c0-0.7,0.2-0.9,0.9-1c2.8-0.1,2.8-0.1,2.8,2.7c0,1.6,0.1,3.3,0,4.9
							c0,0.9,0.3,1.2,1.2,1.1c0.2,0,0.5,0,0.8,0c0.7,0.1,0.9-0.3,0.9-1c0-1.4,0.1-2.9,0.5-4.3c0.6-2.1,1.9-3.5,4.1-3.8
							c2.4-0.3,4.6,0.2,6.2,2.3c1.7,2.2,1.9,4.7,1.7,7.2c-0.1,1.4-0.3,2.9-0.8,4.2c-0.2,0.6-0.5,0.8-1.1,0.8c-0.8-0.1-1.5,0-2.3,0
							c-0.9,0-1.2-0.3-0.7-1.1c0.7-1.2,1-2.5,1.3-3.8c0.2-1.1,0-2.2-0.4-3.2c-0.5-1.2-1.5-1.8-2.5-1.7s-1.9,0.9-2.2,2.1
							c-0.4,1.9-0.4,3.7,0.2,5.6c0.3,1,0,1.2-1,1.2c-2.8-0.1-5.5-0.1-8.3,0c-1,0-1.2-0.3-1.2-1.2C231.5,74.3,231.5,72.5,231.5,70.7z
							"/>
						<path class="st24" d="M250.2,57.7c-8.7,0-17.3,0-26,0c-1.9,0-3.2,0.8-4,2.5c-0.4,0.8-0.4,1.8-0.4,2.6c0,13.8,0,27.5,0,41.3
							c0,3.4,2.3,5,5,4.9c8.1-0.1,16.3,0,24.5,0c0.4,0,0.8,0,1.4,0c-0.9,0.8-1.8,1.1-2.7,1.1c-8.3,0-16.5,0-24.8,0
							c-2.2,0-3.9-1.6-4.3-3.7c-0.1-0.5-0.1-1.1-0.1-1.6c0-14.3,0-28.5,0-42.8c0-1.7,0.3-3.3,1.7-4.3c0.8-0.6,1.7-1,2.7-1
							c8.2,0,16.4,0,24.7,0c0.9,0,1.6,0.2,2.4,0.7C250.2,57.4,250.2,57.6,250.2,57.7z"/>
						<path class="st17" d="M250.2,57.7c0-0.1,0-0.2,0-0.4c0.2,0.1,0.3,0.1,0.3,0.3C250.5,57.7,250.3,57.7,250.2,57.7z"/>
					</g>
					<rect x="119.3" y="62.9" class="st25" width="82" height="41.9"/>
				</g>
				<g>
					<g>
						<path class="st15" d="M18.2,0.2c0.3,0,0.7,0,1,0c17.7,0,35.4,0,53.1,0c4.4,0,8.4,3.1,9.3,7.5c0.1,0.6,0.1,1.1,0.1,1.7
							c0,47.9,0,95.9,0,143.8c0,4.7-4,8.9-8.2,9.1c-1.1,0.1-2.2,0.1-3.2,0.1c-20,0-40.1,0-60.1,0c-3.4,0-6.3-1-8.4-3.9
							c-1.1-1.6-1.8-3.4-1.8-5.3c-0.1-6.3,0-12.7,0-19c0.1,0,0.1,0,0.2,0c0.2,0.2,0.5,0.3,0.8,0.2c0.1,0,0.2,0,0.2,0
							c0,6,0,12.1,0,18.1c0,0.7,0.1,1.5,0.2,2.2c0.9,3.9,3.8,6.3,7.1,6.4c7.8,0.2,15.7,0,23.6,0c0.1,0,0.1,0,0.2,0
							c0.3,0.5,0.7,0.6,1.2,0.6c4.9,0,9.9,0,14.8,0c0.5,0,1-0.1,1.1-0.8c0.4,0.2,0.8,0.2,1.2,0.2c7.1,0,14.2,0,21.3,0
							c0.9,0,1.9-0.1,2.8-0.4c3.6-1,5.8-4.1,5.8-8.1c0-35.2,0-70.5,0-105.7c0.6-0.2,0.7-0.7,0.7-1.2c0-3.8,0-7.5,0-11.2
							c0-0.4,0-0.9-0.5-1.1c-0.1-0.1-0.1-0.1-0.1-0.2c0-7.8,0-15.6,0-23.4c0-0.7,0-1.4-0.1-2.1c-0.8-3.9-3.9-6.4-8.2-6.4
							c-14.4,0-28.7,0-43.1,0c-3.6,0-7.1,0-10.6,0C18.5,1,18.4,0.6,18.2,0.2z"/>
						<path class="st15" d="M0,120.9c0-0.4,0-0.7,0-1.1c0-36.7,0-73.3,0-110C0,5,3,1.3,7.6,0.3c0.7-0.1,1.3-0.1,1.9-0.1
							C9.2,0.6,9.2,1,9.3,1.5c-4.2-0.1-8,3.4-8,8.3c0,37,0,73.9,0,110.9c-0.4-0.1-0.8,0-1.1,0.2C0.1,120.9,0.1,120.9,0,120.9z"/>
						<path class="st16" d="M0.2,120.9c0.3-0.2,0.7-0.3,1.1-0.2c0.3,0.3,0.4,0.7,0.4,1.2c0,3.8,0,7.5,0,11.3c0,0.4,0,0.8-0.4,1
							c-0.1,0-0.2,0.1-0.2,0.1c-0.3,0.1-0.6,0-0.8-0.2c-0.1-0.1-0.1-0.2-0.2-0.3c0-4.2,0-8.5,0-12.7C0.1,121.1,0.1,121,0.2,120.9z"
							/>
						<path class="st16" d="M9.3,1.5c0-0.4-0.1-0.9,0.2-1.3c0.1,0,0.2,0,0.2-0.1c0.1,0,0.1,0,0.2-0.1c1.1,0,2.2,0,3.2,0l0.1,0.1h0.1
							c0.1,0,0.2,0.1,0.3,0.1c0.2,0.4-0.2,0.9,0.2,1.2C12.3,2,10.8,2.1,9.3,1.5z"/>
						<path class="st4" d="M13.9,1.5c-0.3-0.4,0-0.9-0.2-1.2c1.5-0.3,3-0.3,4.5-0.1c0.2,0.4,0.3,0.8,0.2,1.2
							C16.9,2,15.4,1.9,13.9,1.5z"/>
						<path class="st17" d="M10,0.1c-0.1,0-0.1,0-0.2,0.1C9.8,0.1,9.9,0.1,10,0.1z"/>
						<path class="st17" d="M13.4,0.1L13.4,0.1L13.2,0C13.3,0,13.3,0,13.4,0.1z"/>
						<path class="st18" d="M0.2,120.9c-0.1,0.1-0.1,0.2-0.2,0.2c0-0.1,0-0.2,0-0.3C0.1,120.9,0.1,120.9,0.2,120.9z"/>
						<path class="st18" d="M0,133.9c0.1,0.1,0.1,0.2,0.2,0.3c-0.1,0-0.1,0-0.2,0C0,134.1,0,134,0,133.9z"/>
						<path class="st19" d="M13.9,1.5c1.5,0.4,3,0.5,4.5-0.1c3.6,0,7.1,0,10.6,0c14.4,0,28.7,0,43.1,0c4.2,0,7.3,2.4,8.2,6.4
							c0.1,0.7,0.1,1.4,0.1,2.1c0,7.8,0,15.6,0,23.4c0,0.1-0.1,0.1-0.1,0.2c-0.9-0.1-1,0.5-1,1.2c0,3.7,0,7.4,0,11.1
							c0,0.7,0.3,1.2,1.1,1.2c0,35.2,0,70.5,0,105.7c0,4-2.2,7.1-5.8,8.1c-0.9,0.2-1.9,0.4-2.8,0.4c-7.1,0-14.2,0-21.3,0
							c-0.4,0-0.8,0.1-1.2-0.2c-0.1-0.7-0.5-0.9-1.1-0.9c-4.9,0-9.8,0-14.8,0c-0.6,0-1.1,0.2-1.2,0.9c-0.1,0-0.1,0.1-0.2,0.2
							c-7.8,0-15.7,0.2-23.6,0c-3.2-0.1-6.2-2.4-7.1-6.4c-0.2-0.7-0.2-1.4-0.2-2.2c0-6,0-12.1,0-18.1c0-0.1,0-0.1,0-0.2
							c0.4-0.2,0.4-0.6,0.4-1c0-3.8,0-7.5,0-11.3c0-0.5-0.1-0.8-0.4-1.2c0-37,0-73.9,0-110.9c0-4.9,3.8-8.4,8-8.3
							C10.8,2.1,12.3,2,13.9,1.5z M66.7,145.2c0,0.1,0,0.3,0,0.3c0.2,0.1,0.3-0.1,0.3-0.3c0.5-0.7,0.7-1.5,0.7-2.4
							c0-8.2,0-16.5,0-24.7c0-1-0.4-1.9-0.9-2.7c-1.1-1.5-2.7-1.7-4.4-1.7c-14.3,0-28.5,0-42.8,0c-0.5,0-1.1,0.1-1.6,0.1
							c-2.2,0.3-3.7,2.1-3.7,4.3c0,8.3,0,16.5,0,24.8c0,1,0.2,1.8,1.1,2.7c0-0.6,0-1,0-1.4c0-8.1,0.1-16.3,0-24.5c0-2.7,1.6-5,4.9-5
							c13.8,0,27.5,0,41.3,0c0.9,0,1.8,0,2.6,0.4c1.6,0.8,2.5,2.1,2.5,4C66.7,127.9,66.7,136.6,66.7,145.2z M20.2,55.1
							c0,13.3,0,26.7,0,40c0,1,0.3,1.2,1.2,1.2c12.9,0,25.8,0,38.7,0c0.9,0,1.2-0.2,1.2-1.2c0-26.6,0-53.3,0-79.9
							c0-1-0.2-1.2-1.2-1.2c-12.9,0-25.8,0-38.7,0c-0.9,0-1.3,0.2-1.3,1.2C20.2,28.6,20.2,41.8,20.2,55.1z M37.1,133.3
							c0.1,0,0.2,0,0.2,0.1c0,0.4,0,0.7,0,1c0,3.3,0,6.5,0,9.8c0,0.9,0.3,1.1,1.1,1.1c0.9-0.1,1.9,0,2.8,0c0.6,0,0.9-0.2,0.9-0.8
							c0-5.7,0-11.4,0-17.1c0-0.7-0.3-0.9-0.9-0.8c-1.2,0-2.3,0.1-3.5,0c-0.8,0-1.3,0.2-1.7,1c-1,2.4-2.1,4.8-3.2,7.1
							c-0.1,0.3-0.1,0.8-0.5,0.8s-0.4-0.5-0.6-0.8c-1.1-2.4-2.2-4.8-3.2-7.2c-0.2-0.5-0.4-0.9-1.1-0.9c-1.4,0-2.8,0-4.1,0
							c-0.5,0-0.8,0.2-0.8,0.8c0,5.7,0,11.5,0,17.2c0,0.6,0.2,0.8,0.8,0.8c0.9,0,1.9,0,2.8,0c0.8,0,1-0.3,1-1c0-3.3,0-6.6,0-9.9
							c0-0.3,0-0.7,0-1c1.1,2.1,2,4.2,2.9,6.4c0.2,0.5,0.3,1,1,1.2c2.2,0.4,2.9,0,3.7-2V139C35.5,137,36.3,135.1,37.1,133.3z
							 M53.8,126.6c-1.8,0-3.6,0-5.4,0c-0.9,0-1.3,0.2-1.2,1.2c0.1,2.8,0.1,5.5,0,8.3c0,1,0.2,1.3,1.2,1c1.8-0.5,3.7-0.6,5.6-0.2
							c1.2,0.3,2,1.1,2.1,2.2c0.1,1.1-0.5,2.1-1.7,2.5c-1,0.4-2.1,0.6-3.2,0.4c-1.3-0.2-2.6-0.6-3.8-1.3c-0.8-0.4-1.1-0.2-1.1,0.7
							c0,0.8,0,1.5,0,2.3c0,0.6,0.2,0.9,0.8,1.1c1.4,0.5,2.8,0.7,4.2,0.8c2.6,0.2,5.1,0,7.2-1.7c2.1-1.6,2.6-3.8,2.3-6.2
							c-0.3-2.2-1.8-3.5-3.9-4.1c-1.4-0.4-2.8-0.6-4.3-0.5c-0.7,0-1-0.2-1-0.9c0-0.2,0-0.5,0-0.8c-0.1-0.9,0.2-1.2,1.1-1.2
							c1.6,0.1,3.3,0,4.9,0c2.8,0,2.8,0,2.7-2.8c0-0.7-0.3-0.9-1-0.9C57.6,126.6,55.7,126.6,53.8,126.6z"/>
						<path class="st4" d="M32.3,160.9c0.1-0.6,0.6-0.9,1.2-0.9c4.9,0,9.8,0,14.8,0c0.6,0,1.1,0.2,1.1,0.9s-0.5,0.8-1.1,0.8
							c-4.9,0-9.9,0-14.8,0c-0.5,0-0.9-0.2-1.2-0.6C32.3,161.1,32.3,161,32.3,160.9z"/>
						<path class="st4" d="M80.4,47c-0.8,0-1.1-0.5-1.1-1.2c0-3.7,0-7.4,0-11.1c0-0.7,0.1-1.3,1-1.2c0.1,0,0.1,0,0.2,0
							c0.5,0.2,0.5,0.7,0.5,1.1c0,3.8,0,7.5,0,11.2C81.1,46.3,81,46.8,80.4,47z"/>
						<path class="st20" d="M80.6,33.4c-0.1,0-0.1,0-0.2,0c0-0.1,0-0.1,0.1-0.2C80.5,33.3,80.6,33.3,80.6,33.4z"/>
						<path class="st21" d="M1.3,134.2c0,0.1,0,0.1,0,0.2c-0.1,0-0.2,0-0.2,0C1.1,134.3,1.2,134.2,1.3,134.2z"/>
						<path class="st21" d="M32.3,160.9c0,0.1,0,0.1,0,0.2c-0.1,0-0.1,0-0.2,0C32.2,161,32.3,161,32.3,160.9z"/>
						<path class="st22" d="M20.2,55.1c0-13.3,0-26.5,0-39.8c0-1,0.3-1.2,1.3-1.2c12.9,0,25.8,0,38.7,0c0.9,0,1.2,0.2,1.2,1.2
							c0,26.6,0,53.3,0,79.9c0,1-0.3,1.2-1.2,1.2c-12.9,0-25.8,0-38.7,0c-1,0-1.2-0.2-1.2-1.2C20.2,81.8,20.2,68.4,20.2,55.1z"/>
						<path class="st23" d="M37.1,133.3c-0.8,1.8-1.6,3.7-2.4,5.5v0.1c-0.8,2-1.6,2.4-3.7,2c-0.7-0.1-0.8-0.7-1-1.2
							c-0.9-2.1-1.8-4.2-2.9-6.4c0,0.3,0,0.7,0,1c0,3.3,0,6.6,0,9.9c0,0.7-0.2,1.1-1,1c-0.9,0-1.9,0-2.8,0c-0.6,0-0.8-0.2-0.8-0.8
							c0-5.7,0-11.5,0-17.2c0-0.6,0.2-0.8,0.8-0.8c1.4,0,2.8,0,4.1,0c0.7,0,0.9,0.4,1.1,0.9c1.1,2.4,2.1,4.8,3.2,7.2
							c0.1,0.3,0.2,0.8,0.6,0.8s0.4-0.5,0.5-0.8c1.1-2.4,2.2-4.7,3.2-7.1c0.3-0.8,0.8-1.1,1.7-1c1.2,0.1,2.3,0,3.5,0
							c0.6,0,0.9,0.1,0.9,0.8c0,5.7,0,11.4,0,17.1c0,0.6-0.3,0.8-0.9,0.8c-0.9,0-1.9,0-2.8,0c-0.8,0-1.1-0.2-1.1-1.1
							c0.1-3.3,0-6.5,0-9.8c0-0.4,0-0.7,0-1C37.3,133.3,37.2,133.3,37.1,133.3z"/>
						<path class="st23" d="M53.8,126.6c1.9,0,3.8,0,5.6,0c0.7,0,0.9,0.2,1,0.9c0.1,2.8,0.1,2.8-2.7,2.8c-1.6,0-3.3,0-4.9,0
							c-0.9,0-1.2,0.3-1.1,1.2c0,0.2,0,0.5,0,0.8c-0.1,0.7,0.3,0.9,1,0.9c1.4,0,2.9,0.1,4.3,0.5c2.1,0.6,3.5,1.9,3.9,4.1
							c0.4,2.4-0.2,4.6-2.3,6.2c-2.1,1.7-4.7,1.9-7.2,1.7c-1.4-0.1-2.9-0.3-4.2-0.8c-0.6-0.2-0.8-0.5-0.8-1.1c0.1-0.8,0-1.5,0-2.3
							c0-0.9,0.3-1.2,1.1-0.7c1.2,0.7,2.5,1,3.8,1.3c1.1,0.2,2.2,0,3.2-0.4c1.1-0.5,1.8-1.5,1.7-2.5s-0.9-1.9-2.1-2.2
							c-1.9-0.5-3.7-0.4-5.6,0.2c-1,0.3-1.2,0-1.2-1c0.1-2.8,0.1-5.5,0-8.3c0-1,0.3-1.2,1.2-1.2C50.2,126.6,52,126.6,53.8,126.6z"/>
						<path class="st24" d="M66.7,145.2c0-8.7,0-17.3,0-26c0-1.9-0.9-3.2-2.5-4c-0.8-0.4-1.8-0.4-2.6-0.4c-13.8,0-27.5,0-41.3,0
							c-3.4,0-5,2.3-4.9,5c0.1,8.1,0,16.3,0,24.5c0,0.4,0,0.8,0,1.4c-0.8-0.9-1.1-1.8-1.1-2.7c0-8.3,0-16.5,0-24.8
							c0-2.2,1.6-3.9,3.7-4.3c0.5-0.1,1.1-0.1,1.6-0.1c14.3,0,28.5,0,42.8,0c1.7,0,3.3,0.3,4.4,1.7c0.6,0.8,0.9,1.7,0.9,2.7
							c0,8.2,0,16.5,0,24.7c0,0.9-0.2,1.6-0.7,2.4C67,145.2,66.9,145.2,66.7,145.2z"/>
						<path class="st17" d="M66.7,145.2c0.1,0,0.2,0,0.4,0c-0.1,0.2-0.1,0.3-0.3,0.3C66.7,145.5,66.8,145.3,66.7,145.2z"/>
					</g>
					<rect x="19.7" y="14.4" class="st26" width="41.9" height="82"/>
				</g>
			</g>
			<g class="st27">
			</g>
			<g id="Layer_4_1_">
				<g>
					<rect x="19.7" y="14.4" class="st26" width="41.9" height="82"/>
				</g>
				<g>
					<rect x="119.3" y="62.9" class="st26" width="82" height="41.9"/>
				</g>
			</g>
			<g id="Layer_3_2_">
			</g>
		</g>
	</g>
</g>
<g id="Layer_5">
	<g id="Layer_4_5_">
		<g>
			<rect x="19.9" y="15.3" class="st26" width="41.9" height="82"/>
			<rect x="25.9" y="21" class="st28" width="20.2" height="15.4"/>
		</g>
		<g>
			<rect x="119.5" y="63.9" class="st26" width="82" height="41.9"/>
			<rect x="125.2" y="69.8" class="st28" width="20.2" height="15.4"/>
		</g>
	</g>
</g>
<g id="Layer_1" class="st29">
	<g id="Layer_4" class="st1">
	</g>
	<g id="Layer_3" class="st1">
	</g>
	<g class="st1">
		<rect x="64.5" y="137.7" class="st30" width="54.2" height="13"/>
		<text transform="matrix(1 0 0 1 64.5377 143.416)" class="st31 st32">bredde, w</text>
		<rect x="172.8" y="67.6" class="st30" width="9.1" height="36"/>
		<text transform="matrix(-1.346898e-10 1 -1 -1.346898e-10 176.2125 67.574)" class="st31 st32">højde, h</text>
		<rect x="0.4" y="116.4" class="st30" width="54.2" height="13"/>
		<text transform="matrix(1 0 0 1 0.4482 122.0785)" class="st31 st32">Skærm</text>
		<rect x="-19.9" y="29.5" class="st30" width="54.2" height="13"/>
		<text transform="matrix(1 0 0 1 -19.8543 35.216)" class="st31 st32">(0,0)</text>
		<rect x="164.6" y="129.1" class="st30" width="54.2" height="13"/>
		<text transform="matrix(1 0 0 1 164.6087 134.7904)" class="st31 st32">(160,80)</text>
		<rect x="-11.8" y="134.6" class="st30" width="54.2" height="13"/>
		<text transform="matrix(1 0 0 1 -11.7781 140.3426)" class="st31 st32">y</text>
		<rect x="174.9" y="28.7" class="st30" width="54.2" height="13"/>
		<text transform="matrix(1 0 0 1 174.8805 34.3925)" class="st31 st32">x</text>
	</g>
	<line class="st33" x1="-2.5" y1="39.2" x2="176.2" y2="39.2"/>
	<g class="st1">
		<path class="st34" d="M165.9,124.5c9.1,0,0.4-37.5,6.9-41.9"/>
		<path class="st34" d="M165.9,40.7c9.1,0,0.4,37.5,6.9,41.9"/>
	</g>
	<g class="st1">
		<path class="st34" d="M-1.2,125.6c0,12.5,74.2,0.6,82.9,9.4"/>
		<path class="st34" d="M164.5,125.6c0,12.5-74.2,0.6-82.9,9.4"/>
	</g>
	<g class="st1">
		<line class="st35" x1="176.2" y1="39.1" x2="170.6" y2="36"/>
		<line class="st35" x1="176.2" y1="39.1" x2="170.6" y2="42.3"/>
	</g>
	<g class="st1">
		<line class="st35" x1="-2.5" y1="138.5" x2="0.6" y2="132.9"/>
		<line class="st35" x1="-2.5" y1="138.5" x2="-5.7" y2="132.9"/>
	</g>
	<line class="st33" x1="-2.5" y1="39.2" x2="-2.5" y2="137.2"/>
	<circle class="st1" cx="-2.5" cy="39.1" r="1.6"/>
	<circle class="st1" cx="164.5" cy="124.5" r="1.6"/>
</g>
<g id="Layer_4_2_">
	<g id="Layer_4_3_">
	</g>
	<g id="Layer_3_3_">
	</g>
	<g>
		<rect x="151.5" y="111.7" class="st30" width="27.1" height="6.5"/>
		<text transform="matrix(1 0 0 1 151.4879 114.5492)" class="st31 st36">bredde, w</text>
		<rect x="205.6" y="76.7" class="st30" width="4.5" height="18"/>
		<text transform="matrix(-1.346898e-10 1 -1 -1.346898e-10 207.2672 76.6664)" class="st31 st36">højde, h</text>
		<rect x="119.5" y="101.1" class="st30" width="27.1" height="6.5"/>
		<text transform="matrix(1 0 0 1 119.4747 103.891)" class="st31 st36">Skærm</text>
		<rect x="109.3" y="57.6" class="st30" width="27.1" height="6.5"/>
		<text transform="matrix(1 0 0 1 109.334 60.5043)" class="st31 st36">(0,0)</text>
		<rect x="201.5" y="107.4" class="st30" width="27.1" height="6.5"/>
		<text transform="matrix(1 0 0 1 201.4713 110.2406)" class="st31 st36">(160,80)</text>
		<rect x="113.4" y="110.1" class="st30" width="27.1" height="6.5"/>
		<text transform="matrix(1 0 0 1 113.3682 113.0141)" class="st31 st36">y</text>
		<rect x="206.6" y="57.2" class="st30" width="27.1" height="6.5"/>
		<text transform="matrix(1 0 0 1 206.6021 60.0922)" class="st31 st36">x</text>
	</g>
	<line class="st37" x1="118" y1="62.5" x2="207.3" y2="62.5"/>
	<g>
		<path class="st38" d="M202.1,105.1c4.5,0,0.2-18.7,3.4-20.9"/>
		<path class="st38" d="M202.1,63.2c4.5,0,0.2,18.7,3.4,20.9"/>
	</g>
	<g>
		<path class="st38" d="M118.7,105.6c0,6.2,37.1,0.3,41.4,4.7"/>
		<path class="st38" d="M201.4,105.6c0,6.2-37.1,0.3-41.4,4.7"/>
	</g>
	<g>
		<line class="st37" x1="207.3" y1="62.4" x2="204.5" y2="60.9"/>
		<line class="st37" x1="207.3" y1="62.4" x2="204.5" y2="64"/>
	</g>
	<g>
		<line class="st37" x1="118" y1="112.1" x2="119.6" y2="109.3"/>
		<line class="st37" x1="118" y1="112.1" x2="116.4" y2="109.3"/>
	</g>
	<line class="st37" x1="118" y1="62.5" x2="118" y2="111.4"/>
	<circle cx="118" cy="62.4" r="0.8"/>
	<circle cx="201.4" cy="105.1" r="0.8"/>
	<g id="Layer_4_4_">
	</g>
	<g id="Layer_3_4_">
	</g>
	<rect x="53.7" y="64.2" class="st30" width="27.1" height="6.5"/>
	<text transform="matrix(1 0 0 1 33.4656 107.5477)" class="st31 st36">bredde, w</text>
	<rect x="107.8" y="29.2" class="st30" width="4.5" height="18"/>
	<text transform="matrix(-1.346898e-10 1 -1 -1.346898e-10 73.8107 50.6815)" class="st31 st36">højde, h</text>
	<rect x="21.7" y="53.6" class="st30" width="27.1" height="6.5"/>
	<text transform="matrix(1 0 0 1 21.7391 56.4177)" class="st31 st36">Skærm</text>
	<rect x="11.6" y="10.2" class="st30" width="27.1" height="6.5"/>
	<text transform="matrix(1 0 0 1 11.5986 11.7287)" class="st31 st36">(0,0)</text>
	<rect x="103.7" y="59.9" class="st30" width="27.1" height="6.5"/>
	<text transform="matrix(1 0 0 1 63.0837 102.4955)" class="st31 st36">(80,160)</text>
	<rect x="15.6" y="62.7" class="st30" width="27.1" height="6.5"/>
	<text transform="matrix(1 0 0 1 15.6326 65.5408)" class="st31 st36">y</text>
	<rect x="108.9" y="9.8" class="st30" width="27.1" height="6.5"/>
	<text transform="matrix(1 0 0 1 73.8109 14.4499)" class="st31 st36">x</text>
	<line class="st39" x1="20.3" y1="14" x2="70.1" y2="14"/>
	<g>
		<path class="st40" d="M63.4,96.3c8.9,0,0.4-36.4,6.7-40.7"/>
		<path class="st40" d="M63.4,15c8.9,0,0.4,36.4,6.7,40.7"/>
	</g>
	<g>
		<path class="st41" d="M20.2,98.7c0,3.1,18.5,0.1,20.7,2.3"/>
		<path class="st41" d="M61.6,98.7c0,3.1-18.5,0.1-20.7,2.3"/>
	</g>
	<g>
		<line class="st37" x1="71.4" y1="14.1" x2="68.6" y2="12.5"/>
		<line class="st37" x1="71.4" y1="14.1" x2="68.6" y2="15.7"/>
	</g>
	<g>
		<line class="st37" x1="19.3" y1="106" x2="20.9" y2="103.2"/>
		<line class="st37" x1="19.3" y1="106" x2="17.7" y2="103.2"/>
	</g>
	<line class="st39" x1="19.3" y1="15" x2="19.3" y2="105.3"/>
	<circle cx="19.3" cy="14" r="0.8"/>
	<circle cx="103.7" cy="57.6" r="0.8"/>
	<circle cx="62.3" cy="97.2" r="0.8"/>
</g>
<g id="Layer_6">
	<line class="st42" x1="25.9" y1="21" x2="25.9" y2="7.3"/>
	<line class="st42" x1="25.4" y1="21" x2="11.6" y2="21"/>
	<rect x="21.2" y="2.3" class="st30" width="29.7" height="3.9"/>
	<text transform="matrix(1 0 0 1 21.2448 5.8713)" class="st43 st44 st45">x = 10</text>
	<rect x="2.4" y="16.3" class="st30" width="16.1" height="4.7"/>
	<text transform="matrix(1 0 0 1 2.427 19.8684)" class="st43 st44 st45">y = 10</text>
	<line class="st42" x1="124.7" y1="69.5" x2="124.7" y2="55.7"/>
	<line class="st42" x1="124.6" y1="69.3" x2="110.9" y2="69.3"/>
	<rect x="120.1" y="50.7" class="st30" width="16.1" height="4.4"/>
	<text transform="matrix(1 0 0 1 120.0826 54.2641)" class="st43 st44 st45">x = 10</text>
	<rect x="106.3" y="64.8" class="st30" width="16.1" height="5.3"/>
	<text transform="matrix(1 0 0 1 106.3441 68.364)" class="st43 st44 st45">y = 10</text>
	<g>
		<path class="st46" d="M46.5,17.8c0-1.6-9.3-0.1-10.4-1.2"/>
		<path class="st46" d="M25.8,17.8c0-1.6,9.3-0.1,10.4-1.2"/>
	</g>
	<rect x="29.3" y="9.8" class="st30" width="29.7" height="4.4"/>
	<text transform="matrix(1 0 0 1 29.3366 13.3259)" class="st43 st44 st45">w = 40</text>
	<rect x="4.1" y="27.4" class="st30" width="15.5" height="5"/>
	<text transform="matrix(1 0 0 1 4.1488 30.9613)" class="st43 st44 st45">b = 30</text>
	<g>
		<path class="st47" d="M22.2,20.5c-1.2,0-0.1,7.4-0.9,8.2"/>
		<path class="st47" d="M22.2,37c-1.2,0-0.1-7.4-0.9-8.2"/>
	</g>
	<g>
		<path class="st46" d="M145.6,66.7c0-1.6-9.3-0.1-10.4-1.2"/>
		<path class="st46" d="M125,66.7c0-1.6,9.3-0.1,10.4-1.2"/>
	</g>
	<rect x="129" y="58.7" class="st30" width="29.7" height="4.4"/>
	<text transform="matrix(1 0 0 1 129.047 62.2277)" class="st43 st44 st45">w = 40</text>
	<rect x="106.3" y="76" class="st30" width="15.5" height="5"/>
	<text transform="matrix(1 0 0 1 106.3441 79.5677)" class="st43 st44 st45">b = 30</text>
	<g>
		<path class="st47" d="M121.8,69.3c-1.2,0-0.1,7.4-0.9,8.2"/>
		<path class="st47" d="M121.8,85.7c-1.2,0-0.1-7.4-0.9-8.2"/>
	</g>
</g>
</svg>
