<?xml version="1.0" encoding="utf-8"?>
<!-- Generator: Adobe Illustrator 23.1.1, SVG Export Plug-In . SVG Version: 6.00 Build 0)  -->
<svg version="1.1" xmlns="http://www.w3.org/2000/svg" xmlns:xlink="http://www.w3.org/1999/xlink" x="0px" y="0px"
	 viewBox="0 0 841.89 595.28" style="enable-background:new 0 0 841.89 595.28;" xml:space="preserve">
<style type="text/css">
	.st0{fill:#FFFFFF;}
	.st1{fill:#676767;}
	.st2{fill:#E93725;}
	.st3{fill:#CCCCCB;}
	.st4{fill:#796350;}
	.st5{fill:#595959;}
	.st6{fill:#DC8844;}
	.st7{fill:#907259;}
	.st8{fill:#BD7F4C;}
	.st9{fill:#131313;}
	.st10{fill:#CC732A;}
	.st11{fill:#575655;}
	.st12{fill:#E5F4F7;stroke:#5C5A5C;stroke-width:2;stroke-linecap:round;stroke-linejoin:round;stroke-miterlimit:10;}
	.st13{fill:#E5F4F7;stroke:#0D0D0D;stroke-width:2;stroke-linecap:round;stroke-linejoin:round;stroke-miterlimit:10;}
	.st14{fill:none;stroke:#0D0D0D;stroke-width:2;stroke-linecap:round;stroke-linejoin:round;stroke-miterlimit:10;}
	.st15{fill:none;stroke:#000000;stroke-width:0.5;stroke-linecap:round;stroke-miterlimit:10;}
</style>
<g id="Layer_4">
</g>
<g id="Layer_1">
</g>
<g id="Layer_2">
</g>
<g id="Layer_3">
</g>
<g id="Layer_5">
	<g>
		<g>
			<path class="st0" d="M440.78,297.96c0-75.58-0.01-151.17,0.06-226.75c0-2.22-0.51-2.72-2.73-2.72
				c-119.06,0.06-238.12,0.05-357.18,0.05c0.1-0.14-0.22-0.46,0.22-0.45c0.59,0.02,1.18,0,1.77,0c118.77,0,237.54,0,356.31-0.04
				c1.66,0,2.04,0.37,2.04,2.03c-0.05,75.29-0.04,150.58-0.07,225.88C441.19,296.61,441.7,297.46,440.78,297.96z"/>
			<path class="st1" d="M99.13,233.79c-0.03-0.66-0.08-1.33-0.08-1.99c0-36.09,0.08-72.18-0.06-108.26
				c-0.04-9.04,6.37-17.14,15.21-18.88c1.15-0.23,2.34-0.27,3.52-0.27c97.7-0.01,195.39,0.02,293.09-0.05
				c9.57-0.01,18.09,8.23,18.56,16.79c0.12,2.2,0.29,4.4,0.29,6.61c0.01,40.81,0.02,81.62-0.01,122.43c0,6.9-2.11,12.9-8.02,17.08
				c-3.22,2.29-6.86,3.58-10.75,3.61c-12.92,0.1-25.84,0.01-38.77,0c-0.02-0.14-0.03-0.29-0.05-0.43c0.41-0.5,0.56-1.06,0.39-1.69
				c0.02-0.15,0.04-0.3,0.05-0.45c12.32-0.02,24.65-0.04,36.97-0.04c1.49,0,2.96-0.11,4.39-0.43c8-1.8,12.78-7.82,12.97-14.4
				c0.45-15.99,0.11-32,0.09-48.01c0.06-0.13,0.09-0.26,0.09-0.4c0.92-0.53,1.29-1.35,1.29-2.38c-0.01-10.07,0-20.14-0.02-30.21
				c0-1.09-0.29-2.08-1.68-2.14c0.5-0.73,0.37-1.56,0.37-2.36c0-14.47,0.01-28.94,0-43.4c0-1.92-0.2-3.84-0.72-5.68
				c-2.06-7.35-8.27-11.82-16.45-11.82c-71.79-0.01-143.58-0.01-215.38-0.01c-0.42-1.19-1.36-1.37-2.48-1.37
				c-7.64,0.02-15.29,0.01-22.93,0.01c-0.89,0-1.8-0.01-2.24,1c-0.12,0.1-0.25,0.2-0.37,0.3c-15.86,0.02-31.72,0.03-47.58,0.06
				c-1.4,0-2.83,0-4.18,0.29c-8.01,1.72-12.97,8.04-12.98,16.62c-0.03,29.27-0.01,58.54-0.02,87.81c0,7.23-0.04,14.45-0.06,21.68
				C100.72,233.14,99.9,233.31,99.13,233.79z"/>
			<path class="st1" d="M345.02,270.84c-0.74,0.02-1.47,0.06-2.21,0.06c-74.7,0-149.39,0.01-224.09,0
				c-9.75,0-17.34-6.09-19.42-15.51c-0.29-1.32-0.24-2.64-0.16-3.96c0.77,0.62,1.66,0.58,2.56,0.49
				c-0.14,8.55,6.96,16.34,16.97,16.33c75.34-0.05,150.68-0.03,226.02-0.03c-0.17,0.8-0.06,1.55,0.36,2.26
				C345.04,270.6,345.03,270.72,345.02,270.84z"/>
			<path class="st2" d="M345.05,270.48c-0.42-0.71-0.53-1.46-0.36-2.26c0.69-0.6,1.47-0.85,2.41-0.84
				c7.65,0.03,15.3,0.02,22.94,0.01c0.84,0,1.63,0.04,2.12,0.86c0.1,0.16,0.2,0.32,0.3,0.48c0.16,0.63,0.02,1.19-0.39,1.69
				c-0.2,0.13-0.39,0.27-0.59,0.4c-8.65,0.01-17.29,0.01-25.94,0.02C345.38,270.72,345.21,270.6,345.05,270.48z"/>
			<path class="st2" d="M101.69,251.92c-0.9,0.09-1.8,0.13-2.56-0.49c-0.04-0.16-0.08-0.33-0.12-0.49
				c-0.04-0.14-0.08-0.27-0.12-0.41c-0.01-2.2-0.01-4.41-0.02-6.61c0,0,0.11-0.14,0.11-0.14l-0.01-0.18c0.09-0.2,0.17-0.4,0.26-0.6
				c0.8-0.46,1.79,0.32,2.55-0.38C102.87,245.73,103.09,248.83,101.69,251.92z"/>
			<path class="st3" d="M101.77,242.62c-0.76,0.71-1.75-0.07-2.55,0.38c-0.65-3.07-0.62-6.14-0.09-9.22
				c0.77-0.48,1.59-0.65,2.47-0.39C102.77,236.45,102.55,239.53,101.77,242.62z"/>
			<path class="st4" d="M98.89,250.53c0.04,0.14,0.08,0.27,0.12,0.41C98.97,250.8,98.93,250.67,98.89,250.53z"/>
			<path class="st4" d="M98.97,243.61l0.01,0.18c0,0-0.11,0.14-0.11,0.14C98.79,243.78,98.83,243.68,98.97,243.61z"/>
			<path class="st5" d="M345.05,270.48c0.17,0.12,0.33,0.24,0.5,0.36c-0.18,0-0.35,0-0.53,0
				C345.03,270.72,345.04,270.6,345.05,270.48z"/>
			<path class="st5" d="M371.48,270.82c0.2-0.13,0.39-0.26,0.59-0.4c0.01,0.14,0.03,0.29,0.05,0.43
				C371.91,270.84,371.7,270.83,371.48,270.82z"/>
			<path class="st6" d="M101.77,242.62c0.77-3.09,1-6.17-0.17-9.22c0.02-7.22,0.05-14.45,0.06-21.68
				c0.01-29.27-0.01-58.54,0.02-87.81c0.01-8.58,4.97-14.91,12.98-16.62c1.35-0.29,2.78-0.28,4.18-0.29
				c15.86-0.04,31.72-0.05,47.58-0.06c0.12,0.08,0.26,0.12,0.4,0.13c-0.16,1.85,1.1,1.98,2.43,1.99c7.57,0.03,15.15,0.05,22.72,0.07
				c1.45,0,2.42-0.54,2.48-2.14c71.79,0,143.58,0,215.38,0.01c8.17,0,14.39,4.47,16.45,11.82c0.52,1.85,0.72,3.76,0.72,5.68
				c0.01,14.47,0.01,28.94,0,43.4c0,0.8,0.14,1.63-0.37,2.36c-1.42,0.1-1.82,1-1.82,2.26c0.01,10.04,0.01,20.07,0,30.11
				c0,1.26,0.48,2.14,1.8,2.38c0.11,0.13,0.22,0.25,0.33,0.38c0.02,16,0.36,32.02-0.09,48.01c-0.19,6.58-4.97,12.61-12.97,14.4
				c-1.44,0.32-2.9,0.43-4.39,0.43c-12.32-0.01-24.65,0.02-36.97,0.04c-0.12-0.01-0.24-0.02-0.35-0.03
				c-0.49-0.82-1.29-0.86-2.12-0.86c-7.65,0.01-15.3,0.02-22.94-0.01c-0.95,0-1.72,0.25-2.41,0.84c-75.34,0-150.68-0.02-226.02,0.03
				c-10.02,0.01-17.11-7.78-16.97-16.33C103.09,248.83,102.87,245.73,101.77,242.62z M394.65,134.87c0.2-0.02,0.56,0,0.57-0.07
				c0.11-0.44-0.23-0.56-0.56-0.67c-1.46-0.97-3.05-1.39-4.81-1.38c-16.76,0.02-33.53,0.02-50.29,0c-2.1,0-3.89,0.71-5.53,1.93
				c-3,2.23-3.54,5.43-3.54,8.86c0.01,29.08,0,58.15,0.02,87.23c0,1.1,0.1,2.21,0.26,3.3c0.67,4.4,4.21,7.55,8.72,7.56
				c16.84,0.04,33.67,0.02,50.51,0.01c1.93,0,3.69-0.51,5.57-2.15c-1.3,0-2.09,0-2.89,0c-16.62,0-33.23-0.13-49.85,0.07
				c-5.54,0.07-10.2-3.23-10.2-10.08c0.02-28.04,0-56.09,0.04-84.13c0-1.81,0.08-3.72,0.88-5.37c1.63-3.33,4.37-5.06,8.15-5.07
				C359.36,134.92,377.01,134.89,394.65,134.87z M210.98,229.75c27.17,0,54.35-0.02,81.52,0.05c2.04,0.01,2.53-0.53,2.52-2.54
				c-0.07-26.27-0.07-52.54,0-78.81c0-1.87-0.34-2.46-2.38-2.46c-54.27,0.07-108.55,0.06-162.82,0c-1.96,0-2.42,0.49-2.41,2.42
				c0.07,26.27,0.07,52.54,0.01,78.81c0,1.94,0.39,2.58,2.49,2.57C156.93,229.72,183.95,229.75,210.98,229.75z M370.31,195.22
				c0.04-0.15,0.07-0.3,0.11-0.45c0.7,0,1.41,0,2.11,0c6.65,0,13.3-0.06,19.94,0.04c1.79,0.03,2.35-0.58,2.24-2.29
				c-0.12-1.91-0.07-3.84-0.02-5.76c0.03-1.19-0.35-1.75-1.63-1.75c-11.6,0.03-23.19,0.03-34.79-0.01c-1.43,0-1.74,0.65-1.71,1.9
				c0.05,2.36,0.13,4.73-0.02,7.08c-0.11,1.72,0.44,2.69,2.06,3.39c4.88,2.09,9.7,4.33,14.53,6.52c0.64,0.29,1.72,0.26,1.71,1.09
				c-0.01,0.77-1.07,0.87-1.71,1.16c-4.91,2.2-9.84,4.37-14.76,6.56c-0.95,0.42-1.86,0.8-1.82,2.17c0.08,2.8,0.05,5.61,0.01,8.41
				c-0.01,1.1,0.39,1.61,1.55,1.6c11.67-0.02,23.34-0.02,35.01,0c1.14,0,1.59-0.45,1.57-1.58c-0.04-1.92-0.09-3.84,0.02-5.76
				c0.09-1.6-0.58-2.01-2.08-2c-6.72,0.06-13.44,0.02-20.16,0.02c-0.68,0-1.35,0-2.03,0c4.3-2.24,8.64-4.05,12.96-5.93
				c0.96-0.42,2.14-0.6,2.41-2c0.84-4.37,0.04-5.92-4.04-7.52c-0.07-0.03-0.14-0.04-0.21-0.07
				C377.81,198.45,374.06,196.83,370.31,195.22z M356.58,161.28c0,3.69,0.1,7.38-0.04,11.07c-0.07,1.91,0.45,2.59,2.46,2.54
				c5.61-0.13,11.23-0.13,16.84,0c2.05,0.05,2.59-0.47,2.01-2.49c-1.07-3.73-1.26-7.54-0.35-11.35c0.59-2.47,2.31-4.15,4.42-4.35
				c2.15-0.2,4.21,1.06,5.17,3.41c0.84,2.06,1.22,4.24,0.8,6.48c-0.5,2.68-1.17,5.3-2.56,7.71c-0.9,1.57-0.43,2.23,1.47,2.27
				c1.55,0.03,3.11-0.06,4.65,0.03c1.24,0.08,1.83-0.41,2.26-1.57c1.05-2.79,1.51-5.71,1.72-8.63c0.38-5.21-0.05-10.32-3.43-14.69
				c-3.23-4.18-7.65-5.4-12.61-4.69c-4.48,0.65-7.09,3.63-8.4,7.84c-0.89,2.84-1.16,5.76-1.08,8.72c0.04,1.39-0.37,2.12-1.87,1.97
				c-0.51-0.05-1.04-0.06-1.55,0c-1.79,0.23-2.5-0.42-2.43-2.32c0.14-3.32,0.04-6.64,0.04-9.96c0-5.69,0-5.64-5.66-5.49
				c-1.48,0.04-1.9,0.58-1.88,1.98C356.62,153.6,356.58,157.44,356.58,161.28z"/>
			<path class="st3" d="M426.61,205.02c-1.33-0.24-1.81-1.13-1.8-2.38c0-10.04,0.01-20.07,0-30.11c0-1.27,0.4-2.16,1.82-2.26
				c1.39,0.06,1.68,1.05,1.68,2.14c0.02,10.07,0.01,20.14,0.02,30.21c0,1.04-0.37,1.86-1.29,2.38
				C426.89,204.96,426.75,204.97,426.61,205.02z"/>
			<path class="st3" d="M194.45,106.98c-0.05,1.6-1.02,2.15-2.48,2.14c-7.57-0.03-15.15-0.05-22.72-0.07
				c-1.34,0-2.59-0.14-2.43-1.99c-0.01-0.15-0.02-0.29-0.02-0.44c0.45-1.01,1.35-1,2.24-1c7.64,0,15.29,0.01,22.93-0.01
				C193.09,105.61,194.03,105.8,194.45,106.98z"/>
			<path class="st7" d="M166.8,106.63c0.01,0.15,0.02,0.29,0.02,0.44c-0.14-0.01-0.28-0.05-0.4-0.13
				C166.55,106.83,166.67,106.73,166.8,106.63z"/>
			<path class="st8" d="M372.16,268.25c0.12,0.01,0.24,0.01,0.35,0.03c-0.02,0.15-0.04,0.3-0.05,0.45
				C372.36,268.57,372.26,268.41,372.16,268.25z"/>
			<path class="st8" d="M426.61,205.02c0.14-0.05,0.28-0.06,0.42-0.02c0,0.14-0.03,0.28-0.09,0.4
				C426.83,205.28,426.72,205.15,426.61,205.02z"/>
			<path class="st9" d="M210.98,229.75c-27.03,0-54.05-0.03-81.08,0.05c-2.1,0.01-2.49-0.63-2.49-2.57
				c0.06-26.27,0.06-52.54-0.01-78.81c-0.01-1.94,0.45-2.43,2.41-2.42c54.27,0.06,108.55,0.06,162.82,0c2.03,0,2.38,0.59,2.38,2.46
				c-0.06,26.27-0.06,52.54,0,78.81c0.01,2-0.48,2.54-2.52,2.54C265.33,229.72,238.15,229.75,210.98,229.75z"/>
			<path class="st10" d="M370.31,195.22c3.75,1.61,7.5,3.23,11.25,4.84c0.07,0.03,0.14,0.04,0.21,0.07c4.07,1.6,4.88,3.15,4.04,7.52
				c-0.27,1.4-1.45,1.58-2.41,2c-4.31,1.88-8.65,3.7-12.96,5.93c0.68,0,1.35,0,2.03,0c6.72,0,13.44,0.03,20.16-0.02
				c1.5-0.01,2.17,0.4,2.08,2c-0.11,1.91-0.06,3.84-0.02,5.76c0.02,1.13-0.43,1.58-1.57,1.58c-11.67-0.02-23.34-0.02-35.01,0
				c-1.16,0-1.56-0.5-1.55-1.6c0.03-2.8,0.07-5.61-0.01-8.41c-0.04-1.37,0.87-1.75,1.82-2.17c4.92-2.19,9.84-4.36,14.76-6.56
				c0.64-0.29,1.7-0.39,1.71-1.16c0.01-0.83-1.07-0.8-1.71-1.09c-4.84-2.19-9.65-4.43-14.53-6.52c-1.62-0.7-2.17-1.66-2.06-3.39
				c0.15-2.35,0.08-4.72,0.02-7.08c-0.03-1.25,0.28-1.9,1.71-1.9c11.6,0.04,23.19,0.03,34.79,0.01c1.29,0,1.67,0.56,1.63,1.75
				c-0.05,1.92-0.11,3.84,0.02,5.76c0.11,1.72-0.45,2.32-2.24,2.29c-6.65-0.1-13.29-0.04-19.94-0.04c-0.7,0-1.41,0-2.11,0
				C370.38,194.91,370.35,195.06,370.31,195.22z"/>
			<path class="st10" d="M356.58,161.28c0-3.84,0.04-7.68-0.02-11.51c-0.02-1.4,0.4-1.94,1.88-1.98c5.66-0.15,5.66-0.2,5.66,5.49
				c0,3.32,0.1,6.65-0.04,9.96c-0.08,1.9,0.64,2.55,2.43,2.32c0.51-0.06,1.04-0.06,1.55,0c1.5,0.15,1.91-0.58,1.87-1.97
				c-0.08-2.95,0.19-5.88,1.08-8.72c1.31-4.21,3.93-7.19,8.4-7.84c4.96-0.72,9.38,0.51,12.61,4.69c3.38,4.37,3.81,9.48,3.43,14.69
				c-0.21,2.92-0.67,5.84-1.72,8.63c-0.43,1.15-1.02,1.64-2.26,1.57c-1.55-0.09-3.1,0-4.65-0.03c-1.9-0.04-2.37-0.7-1.47-2.27
				c1.39-2.41,2.06-5.03,2.56-7.71c0.42-2.24,0.03-4.42-0.8-6.48c-0.95-2.35-3.01-3.61-5.17-3.41c-2.11,0.2-3.83,1.88-4.42,4.35
				c-0.91,3.81-0.72,7.62,0.35,11.35c0.58,2.02,0.04,2.53-2.01,2.49c-5.61-0.13-11.23-0.13-16.84,0c-2.01,0.05-2.53-0.63-2.46-2.54
				C356.67,168.66,356.58,164.97,356.58,161.28z"/>
			<path class="st11" d="M394.65,134.87c-17.65,0.02-35.3,0.04-52.95,0.05c-3.78,0-6.52,1.74-8.15,5.07
				c-0.8,1.64-0.88,3.56-0.88,5.37c-0.04,28.04-0.02,56.09-0.04,84.13c-0.01,6.84,4.65,10.14,10.2,10.08
				c16.61-0.2,33.23-0.07,49.85-0.07c0.79,0,1.58,0,2.89,0c-1.87,1.64-3.63,2.15-5.57,2.15c-16.84,0.01-33.67,0.03-50.51-0.01
				c-4.51-0.01-8.05-3.16-8.72-7.56c-0.17-1.09-0.26-2.2-0.26-3.3c-0.01-29.08-0.01-58.15-0.02-87.23c0-3.44,0.54-6.63,3.54-8.86
				c1.64-1.22,3.44-1.93,5.53-1.93c16.76,0.02,33.53,0.02,50.29,0c1.76,0,3.35,0.42,4.81,1.38
				C394.66,134.38,394.66,134.63,394.65,134.87z"/>
			<path class="st4" d="M394.65,134.87c0-0.25,0.01-0.49,0.01-0.74c0.33,0.11,0.68,0.23,0.56,0.67
				C395.21,134.87,394.85,134.85,394.65,134.87z"/>
		</g>
		<rect x="127.97" y="145.51" class="st12" width="167.05" height="85.3"/>
		<line class="st13" x1="127.97" y1="145.51" x2="306.67" y2="145.51"/>
		<g>
			<line class="st14" x1="306.67" y1="145.47" x2="301.08" y2="142.3"/>
			<line class="st14" x1="306.67" y1="145.47" x2="301.08" y2="148.69"/>
		</g>
		<line class="st13" x1="127.97" y1="145.51" x2="127.97" y2="243.59"/>
		<g>
			<line class="st14" x1="127.99" y1="244.88" x2="131.16" y2="239.29"/>
			<line class="st14" x1="127.99" y1="244.88" x2="124.77" y2="239.29"/>
		</g>
		<g>
			<g>
				<path d="M126.09,253.87l0.14-0.53c0.11,0.03,0.23,0.06,0.36,0.06c0.55,0,0.88-0.35,1.08-0.83l0.11-0.29l-1.83-3.94h0.68
					l0.95,2.17c0.15,0.35,0.32,0.76,0.49,1.14h0.03c0.14-0.37,0.29-0.78,0.42-1.14l0.85-2.17h0.65l-1.74,4.25
					c-0.29,0.78-0.77,1.37-1.67,1.37C126.42,253.95,126.23,253.92,126.09,253.87z"/>
			</g>
		</g>
		<g>
			<g>
				<path d="M312.01,144.7l-1.37-1.89h0.74l0.62,0.86c0.14,0.22,0.3,0.45,0.46,0.66h0.03c0.15-0.21,0.31-0.45,0.44-0.67l0.58-0.85
					h0.71l-1.39,1.95l1.5,1.98h-0.74l-0.68-0.91c-0.17-0.22-0.35-0.49-0.52-0.71h-0.03c-0.16,0.23-0.32,0.47-0.48,0.72l-0.65,0.9
					h-0.71L312.01,144.7z"/>
			</g>
		</g>
		<g>
			<g>
				<path d="M107.74,138.24c0-1.56,0.69-2.8,1.81-3.67l0.37,0.34c-1.08,0.91-1.58,1.97-1.58,3.33c0,1.36,0.5,2.42,1.58,3.33
					l-0.37,0.34C108.43,141.03,107.74,139.8,107.74,138.24z"/>
				<path d="M111.48,137.89c0-1.73,0.7-2.66,1.85-2.66s1.85,0.93,1.85,2.66c0,1.71-0.7,2.69-1.85,2.69S111.48,139.6,111.48,137.89z
					 M114.57,137.89c0-1.48-0.51-2.12-1.23-2.12s-1.23,0.64-1.23,2.12s0.51,2.15,1.23,2.15S114.57,139.37,114.57,137.89z
					 M112.84,137.83c0-0.33,0.23-0.53,0.5-0.53c0.27,0,0.5,0.2,0.5,0.53c0,0.34-0.23,0.54-0.5,0.54
					C113.07,138.37,112.84,138.17,112.84,137.83z"/>
				<path d="M117.35,141.79c0.69-0.31,1.03-0.74,1.02-1.42l-0.15-0.74l0.45,0.64c-0.13,0.15-0.29,0.19-0.45,0.19
					c-0.35,0-0.63-0.2-0.63-0.61c0-0.4,0.3-0.61,0.65-0.61c0.48,0,0.73,0.4,0.73,1.04c0,0.95-0.53,1.61-1.42,1.94L117.35,141.79z"/>
				<path d="M121.19,137.89c0-1.73,0.7-2.66,1.85-2.66s1.85,0.93,1.85,2.66c0,1.71-0.7,2.69-1.85,2.69S121.19,139.6,121.19,137.89z
					 M124.27,137.89c0-1.48-0.51-2.12-1.23-2.12s-1.23,0.64-1.23,2.12s0.51,2.15,1.23,2.15S124.27,139.37,124.27,137.89z
					 M122.54,137.83c0-0.33,0.23-0.53,0.5-0.53c0.27,0,0.5,0.2,0.5,0.53c0,0.34-0.23,0.54-0.5,0.54
					C122.77,138.37,122.54,138.17,122.54,137.83z"/>
				<path d="M126.45,141.57c1.08-0.91,1.58-1.97,1.58-3.33c0-1.36-0.5-2.42-1.58-3.33l0.37-0.34c1.12,0.87,1.81,2.11,1.81,3.67
					c0,1.56-0.69,2.8-1.81,3.67L126.45,141.57z"/>
			</g>
		</g>
		<circle cx="127.98" cy="145.49" r="1.6"/>
		<g>
			<g>
				<path d="M130.45,226.29l0.4-0.47c0.4,0.4,0.95,0.65,1.55,0.65c0.73,0,1.15-0.35,1.15-0.83c0-0.57-0.41-0.73-0.95-0.95
					l-0.77-0.34c-0.53-0.21-1.14-0.58-1.14-1.37c0-0.81,0.73-1.41,1.74-1.41c0.66,0,1.25,0.27,1.63,0.66l-0.36,0.44
					c-0.35-0.31-0.75-0.49-1.3-0.49c-0.61,0-1.03,0.29-1.03,0.77c0,0.51,0.49,0.7,0.95,0.87l0.74,0.33
					c0.65,0.26,1.17,0.63,1.17,1.42c0,0.84-0.71,1.51-1.88,1.51C131.6,227.07,130.92,226.76,130.45,226.29z"/>
				<path d="M135.6,221.22h0.67v3.89h0.03l2.11-2.06h0.77l-2.91,2.86v1.07h-0.67V221.22z M137.12,224.89l0.4-0.44l1.88,2.52h-0.74
					L137.12,224.89z"/>
				<path d="M139.74,226c0-0.82,0.63-1.33,2.17-1.49v0.43c-1.22,0.15-1.55,0.49-1.55,0.99c0,0.38,0.24,0.6,0.6,0.6
					c0.33,0,0.74-0.24,1.03-0.69l0.23,0.34c-0.42,0.55-0.9,0.88-1.43,0.88C140.18,227.07,139.74,226.67,139.74,226z M141.76,225.02
					v-0.4c0-0.84-0.28-1.12-0.71-1.12c-0.32,0-0.67,0.15-0.92,0.32l-0.25-0.45c0.32-0.21,0.77-0.42,1.23-0.42
					c0.53,0,0.9,0.31,1.07,1.07H142c0.24-0.76,0.73-1.07,1.23-1.07c0.82,0,1.21,0.83,1.21,1.8c0,0.15-0.02,0.32-0.03,0.45h-2.31
					v-0.52h1.92l-0.12,0.16c0-0.91-0.22-1.37-0.7-1.37c-0.45,0-0.91,0.41-0.91,1.53c0,0.94,0.36,1.53,1.02,1.53
					c0.3,0,0.56-0.11,0.77-0.26l0.24,0.45c-0.27,0.19-0.63,0.35-1.04,0.35C142.3,227.07,141.76,226.23,141.76,225.02z"/>
				<path d="M145.63,223.04h0.56l0.06,0.93h0.02c0.41-0.64,1.03-1.03,1.75-1.03c0.29,0,0.53,0.04,0.78,0.16l-0.15,0.57
					c-0.27-0.09-0.42-0.13-0.73-0.13c-0.59,0-1.15,0.3-1.62,1.12v2.3h-0.67V223.04z"/>
				<path d="M149.78,223.04h0.53l0.06,0.52h0.02c0.2-0.36,0.44-0.61,0.9-0.61c0.39,0,0.63,0.23,0.74,0.68
					c0.23-0.42,0.47-0.68,0.92-0.68c0.55,0,0.87,0.43,0.87,1.21v2.81h-0.66v-2.77c0-0.45-0.13-0.69-0.42-0.69
					c-0.28,0-0.42,0.2-0.63,0.61v2.85h-0.61v-2.77c0-0.45-0.11-0.69-0.4-0.69c-0.27,0-0.45,0.2-0.65,0.61v2.85h-0.66V223.04z"/>
			</g>
		</g>
		<g>
			<g>
				<path d="M294.46,237.61c0-1.56,0.69-2.8,1.81-3.67l0.37,0.34c-1.08,0.91-1.58,1.97-1.58,3.33c0,1.36,0.5,2.42,1.58,3.33
					l-0.37,0.34C295.15,240.41,294.46,239.17,294.46,237.61z"/>
				<path d="M298.42,239.3h1.49v-3.78h-1.16v-0.44c0.61-0.08,0.99-0.2,1.33-0.38h0.5v4.6h1.34v0.56h-3.5V239.3z"/>
				<path d="M303.11,237.47c0-2.07,1.04-2.87,2.16-2.87c0.63,0,1.1,0.23,1.44,0.55l-0.37,0.42c-0.27-0.25-0.64-0.41-1.03-0.41
					c-0.84,0-1.57,0.59-1.57,2.31c0,1.27,0.49,1.96,1.34,1.96c0.61,0,1.08-0.45,1.08-1.13c0-0.7-0.38-1.09-1.09-1.09
					c-0.41,0-0.91,0.2-1.35,0.73l-0.02-0.53c0.43-0.43,0.96-0.7,1.5-0.7c0.95,0,1.61,0.53,1.61,1.59c0,0.99-0.8,1.66-1.72,1.66
					C303.95,239.95,303.11,239.13,303.11,237.47z"/>
				<path d="M307.91,237.26c0-1.73,0.7-2.66,1.85-2.66s1.85,0.93,1.85,2.66c0,1.71-0.7,2.69-1.85,2.69S307.91,238.97,307.91,237.26z
					 M310.99,237.26c0-1.48-0.51-2.12-1.23-2.12s-1.23,0.64-1.23,2.12s0.51,2.15,1.23,2.15S310.99,238.74,310.99,237.26z
					 M309.26,237.2c0-0.33,0.23-0.53,0.5-0.53c0.27,0,0.5,0.2,0.5,0.53c0,0.34-0.23,0.54-0.5,0.54
					C309.49,237.74,309.26,237.54,309.26,237.2z"/>
				<path d="M313.77,241.16c0.69-0.31,1.03-0.74,1.02-1.42l-0.15-0.74l0.45,0.64c-0.13,0.15-0.29,0.19-0.45,0.19
					c-0.35,0-0.63-0.2-0.63-0.61c0-0.4,0.3-0.61,0.65-0.61c0.48,0,0.73,0.4,0.73,1.04c0,0.95-0.53,1.61-1.42,1.94L313.77,241.16z"/>
				<path d="M317.58,238.54c0-0.71,0.55-1.12,1.11-1.37v-0.03c-0.43-0.27-0.78-0.66-0.78-1.2c0-0.79,0.67-1.33,1.59-1.33
					c1.01,0,1.6,0.57,1.6,1.38c0,0.49-0.36,0.93-0.78,1.23v0.03c0.57,0.28,1.01,0.61,1.01,1.34c0,0.77-0.67,1.38-1.85,1.38
					C318.31,239.95,317.58,239.35,317.58,238.54z M320.69,238.55c0-0.71-0.72-0.9-1.62-1.2c-0.5,0.27-0.88,0.6-0.88,1.12
					c0,0.57,0.51,0.98,1.3,0.98C320.25,239.45,320.69,239.09,320.69,238.55z M320.52,236.01c0-0.5-0.36-0.91-1.04-0.91
					c-0.57,0-0.96,0.32-0.96,0.83c0,0.61,0.59,0.87,1.36,1.12C320.3,236.73,320.52,236.39,320.52,236.01z"/>
				<path d="M322.46,237.26c0-1.73,0.7-2.66,1.85-2.66s1.85,0.93,1.85,2.66c0,1.71-0.7,2.69-1.85,2.69S322.46,238.97,322.46,237.26z
					 M325.54,237.26c0-1.48-0.51-2.12-1.23-2.12s-1.23,0.64-1.23,2.12s0.51,2.15,1.23,2.15S325.54,238.74,325.54,237.26z
					 M323.81,237.2c0-0.33,0.23-0.53,0.5-0.53c0.27,0,0.5,0.2,0.5,0.53c0,0.34-0.23,0.54-0.5,0.54
					C324.04,237.74,323.81,237.54,323.81,237.2z"/>
				<path d="M327.72,240.94c1.08-0.91,1.58-1.97,1.58-3.33c0-1.36-0.5-2.42-1.58-3.33l0.37-0.34c1.12,0.87,1.81,2.11,1.81,3.67
					c0,1.56-0.69,2.8-1.81,3.67L327.72,240.94z"/>
			</g>
		</g>
		<circle cx="295.02" cy="230.81" r="1.6"/>
		<g>
			<g>
				<path d="M309.72,178.53v0.45h-1.04l-0.62-0.03v0.02c0.29,0.26,0.51,0.57,0.51,0.98c0,0.62-0.37,0.9-1.06,0.9h-1.63v-0.45h1.57
					c0.5,0,0.73-0.17,0.73-0.6c0-0.31-0.16-0.52-0.47-0.82h-1.83v-0.45H309.72z"/>
				<path d="M305.95,181.6l2.71,2.32l-0.23,0.25l-2.71-2.32L305.95,181.6z M307.19,181.59c0.88,0,1.38,0.6,1.38,1.29
					s-0.5,1.29-1.38,1.29c-0.87,0-1.37-0.6-1.37-1.29S306.32,181.59,307.19,181.59z M307.19,183.71c0.6,0,1.02-0.33,1.02-0.83
					s-0.42-0.83-1.02-0.83c-0.6,0-1.01,0.33-1.01,0.83S306.59,183.71,307.19,183.71z"/>
				<path d="M304.89,184.79l0.33,0.15c-0.09,0.19-0.15,0.4-0.15,0.6c0,0.52,0.26,0.66,0.71,0.66h2.35v-1.21h0.36v1.66h-2.68
					c-0.64,0-1.1-0.25-1.1-1.1C304.71,185.27,304.79,185,304.89,184.79z M309.4,186.02c0.21,0,0.34,0.15,0.34,0.36
					s-0.14,0.36-0.34,0.36c-0.21,0-0.34-0.15-0.34-0.36S309.19,186.02,309.4,186.02z"/>
				<path d="M307.19,188.05c0.85,0,1.38,0.57,1.38,1.19c0,0.31-0.12,0.55-0.33,0.79v0.01l0.48-0.02h1.01v0.45h-3.83v-0.37l0.34-0.04
					v-0.02c-0.22-0.22-0.41-0.53-0.41-0.86C305.82,188.51,306.31,188.05,307.19,188.05z M306.58,190.01h1.3
					c0.22-0.24,0.3-0.46,0.3-0.68c0-0.45-0.4-0.82-1-0.82c-0.62,0-1,0.29-1,0.77C306.2,189.54,306.33,189.78,306.58,190.01z"/>
				<path d="M307.2,191.33c0.85,0,1.37,0.64,1.37,1.34c0,0.75-0.49,1.2-1.23,1.2c-0.1,0-0.2-0.01-0.27-0.02v-2.21h0.34v1.95
					l-0.12-0.11c0.62,0,0.93-0.31,0.93-0.79c0-0.48-0.37-0.9-1.02-0.9c-0.68,0-1.02,0.44-1.02,1.02c0,0.31,0.1,0.56,0.25,0.8
					l-0.29,0.16c-0.17-0.26-0.31-0.59-0.31-1.01C305.82,191.96,306.33,191.33,307.2,191.33z"/>
				<path d="M305.02,195.25c0.2,0.46,0.5,0.68,0.94,0.68l0.5-0.1l-0.43,0.3c-0.1-0.09-0.12-0.19-0.12-0.3c0-0.23,0.13-0.42,0.4-0.42
					c0.26,0,0.41,0.2,0.41,0.43c0,0.32-0.26,0.48-0.69,0.48c-0.63,0-1.07-0.36-1.29-0.95L305.02,195.25z"/>
				<path d="M309.72,201.17v0.45h-1.04l-0.62-0.03v0.02c0.29,0.26,0.51,0.57,0.51,0.98c0,0.62-0.37,0.9-1.06,0.9h-1.63v-0.45h1.57
					c0.5,0,0.73-0.17,0.73-0.6c0-0.31-0.16-0.52-0.47-0.82h-1.83v-0.45H309.72z"/>
			</g>
		</g>
		<g>
			<path class="st15" d="M296.45,230.81c9.13,0,0.43-37.5,6.89-41.86"/>
			<path class="st15" d="M296.45,147.09c9.13,0,0.43,37.5,6.89,41.86"/>
		</g>
		<g>
			<g>
				<path d="M199.44,246.21h-0.02l-0.04,0.29h-0.36v-3.83h0.45v1.04l-0.02,0.51h0.02c0.24-0.24,0.57-0.4,0.88-0.4
					c0.71,0,1.09,0.52,1.09,1.33c0,0.89-0.56,1.42-1.18,1.42C200,246.57,199.68,246.43,199.44,246.21z M200.98,245.16
					c0-0.58-0.22-0.96-0.74-0.96c-0.23,0-0.5,0.12-0.77,0.39v1.3c0.24,0.22,0.52,0.3,0.71,0.3
					C200.63,246.19,200.98,245.8,200.98,245.16z"/>
				<path d="M202.54,243.88h0.37l0.04,0.62h0.01c0.27-0.43,0.68-0.68,1.17-0.68c0.19,0,0.36,0.03,0.52,0.11l-0.1,0.38
					c-0.18-0.06-0.28-0.09-0.48-0.09c-0.39,0-0.76,0.2-1.08,0.75v1.53h-0.45V243.88z"/>
				<path d="M205.36,245.19c0-0.85,0.64-1.37,1.34-1.37c0.75,0,1.2,0.49,1.2,1.23c0,0.1-0.01,0.2-0.02,0.27h-2.21v-0.34h1.95
					l-0.11,0.12c0-0.62-0.31-0.93-0.79-0.93c-0.48,0-0.9,0.37-0.9,1.02c0,0.68,0.44,1.02,1.02,1.02c0.31,0,0.56-0.1,0.8-0.25
					l0.16,0.29c-0.26,0.17-0.59,0.31-1.01,0.31C205.98,246.57,205.36,246.06,205.36,245.19z"/>
				<path d="M208.55,245.2c0-0.85,0.57-1.38,1.19-1.38c0.31,0,0.55,0.12,0.79,0.33h0.01l-0.02-0.48v-1.01h0.45v3.83h-0.37
					l-0.04-0.34h-0.02c-0.22,0.22-0.53,0.41-0.86,0.41C209,246.57,208.55,246.07,208.55,245.2z M210.51,245.8v-1.3
					c-0.24-0.22-0.46-0.3-0.68-0.3c-0.45,0-0.82,0.4-0.82,1c0,0.62,0.29,1,0.77,1C210.04,246.19,210.28,246.06,210.51,245.8z"/>
				<path d="M211.78,245.2c0-0.85,0.57-1.38,1.19-1.38c0.31,0,0.55,0.12,0.79,0.33h0.01l-0.02-0.48v-1.01h0.45v3.83h-0.37
					l-0.04-0.34h-0.02c-0.22,0.22-0.53,0.41-0.86,0.41C212.24,246.57,211.78,246.07,211.78,245.2z M213.74,245.8v-1.3
					c-0.24-0.22-0.46-0.3-0.68-0.3c-0.45,0-0.82,0.4-0.82,1c0,0.62,0.29,1,0.77,1C213.27,246.19,213.51,246.06,213.74,245.8z"/>
				<path d="M215.06,245.19c0-0.85,0.64-1.37,1.34-1.37c0.75,0,1.2,0.49,1.2,1.23c0,0.1-0.01,0.2-0.02,0.27h-2.21v-0.34h1.95
					l-0.11,0.12c0-0.62-0.31-0.93-0.79-0.93c-0.48,0-0.9,0.37-0.9,1.02c0,0.68,0.44,1.02,1.02,1.02c0.31,0,0.56-0.1,0.8-0.25
					l0.16,0.29c-0.26,0.17-0.59,0.31-1.01,0.31C215.69,246.57,215.06,246.06,215.06,245.19z"/>
				<path d="M218.98,247.37c0.46-0.2,0.68-0.5,0.68-0.94l-0.1-0.5l0.3,0.43c-0.09,0.1-0.19,0.12-0.3,0.12
					c-0.23,0-0.42-0.13-0.42-0.4c0-0.26,0.2-0.41,0.43-0.41c0.32,0,0.48,0.26,0.48,0.69c0,0.63-0.36,1.07-0.95,1.29L218.98,247.37z"
					/>
				<path d="M224.44,243.88h0.44l0.31,1.52c0.05,0.25,0.09,0.47,0.12,0.72h0.02c0.03-0.25,0.09-0.48,0.15-0.72l0.32-1.36h0.44
					l0.31,1.36c0.06,0.25,0.13,0.47,0.16,0.72h0.02c0.04-0.25,0.07-0.47,0.12-0.72l0.31-1.52h0.41l-0.56,2.62h-0.57l-0.3-1.25
					c-0.04-0.18-0.09-0.44-0.13-0.78H226c-0.04,0.33-0.09,0.59-0.13,0.78l-0.29,1.25h-0.57L224.44,243.88z"/>
			</g>
		</g>
		<g>
			<path class="st15" d="M129.32,231.97c0,12.51,74.23,0.59,82.85,9.44"/>
			<path class="st15" d="M295.02,231.97c0,12.51-74.23,0.59-82.85,9.44"/>
		</g>
	</g>
</g>
</svg>
