<?xml version="1.0" encoding="utf-8"?>
<!-- Generator: Adobe Illustrator 25.2.0, SVG Export Plug-In . SVG Version: 6.00 Build 0)  -->
<svg version="1.1" xmlns="http://www.w3.org/2000/svg" xmlns:xlink="http://www.w3.org/1999/xlink" x="0px" y="0px"
	 viewBox="0 0 81.7 162.4" style="enable-background:new 0 0 81.7 162.4;" xml:space="preserve">
<style type="text/css">
	.st0{fill:#676868;}
	.st1{fill:#E93A27;}
	.st2{fill:#CCCCCB;}
	.st3{fill:#7A6451;}
	.st4{fill:#595A5A;}
	.st5{fill:#DC8843;}
	.st6{fill:#917259;}
	.st7{fill:#BD7F4D;}
	.st8{fill:#151515;}
	.st9{fill:#CC7329;}
	.st10{fill:#585756;}
	.st11{fill:#282826;stroke:#5D5B5C;stroke-width:2;stroke-linecap:round;stroke-linejoin:round;stroke-miterlimit:10;}
	.st12{fill:#F6CE47;}
	.st13{fill:#F1A23D;}
	.st14{fill:#F1A643;}
	.st15{fill:#FDFCFB;}
	.st16{fill:#060606;}
	.st17{fill:#F8D350;}
	.st18{fill:none;stroke:#AB3C1B;stroke-miterlimit:10;}
	.st19{fill:#F0E5B7;}
</style>
<g id="Layer_1">
	<g id="Layer_1_1_">
		<g>
			<path class="st0" d="M18.2,0.2c0.3,0,0.7,0,1,0c17.7,0,35.4,0,53.1,0c4.4,0,8.4,3.1,9.3,7.5c0.1,0.6,0.1,1.1,0.1,1.7
				c0,47.9,0,95.9,0,143.8c0,4.7-4,8.9-8.2,9.1c-1.1,0.1-2.2,0.1-3.2,0.1c-20,0-40.1,0-60.1,0c-3.4,0-6.3-1-8.4-3.9
				c-1.1-1.6-1.8-3.4-1.8-5.3c-0.1-6.3,0-12.7,0-19c0.1,0,0.1,0,0.2,0c0.2,0.2,0.5,0.3,0.8,0.2c0.1,0,0.2,0,0.2,0c0,6,0,12.1,0,18.1
				c0,0.7,0.1,1.5,0.2,2.2c0.9,3.9,3.8,6.3,7.1,6.4c7.8,0.2,15.7,0,23.6,0c0.1,0,0.1,0,0.2,0c0.3,0.5,0.7,0.6,1.2,0.6
				c4.9,0,9.9,0,14.8,0c0.5,0,1-0.1,1.1-0.8c0.4,0.2,0.8,0.2,1.2,0.2c7.1,0,14.2,0,21.3,0c0.9,0,1.9-0.1,2.8-0.4
				c3.6-1,5.8-4.1,5.8-8.1c0-35.2,0-70.5,0-105.7c0.6-0.2,0.7-0.7,0.7-1.2c0-3.8,0-7.5,0-11.2c0-0.4,0-0.9-0.5-1.1
				c-0.1-0.1-0.1-0.1-0.1-0.2c0-7.8,0-15.6,0-23.4c0-0.7,0-1.4-0.1-2.1c-0.8-3.9-3.9-6.4-8.2-6.4c-14.4,0-28.7,0-43.1,0
				c-3.6,0-7.1,0-10.6,0C18.5,1,18.4,0.6,18.2,0.2z"/>
			<path class="st0" d="M0,120.9c0-0.4,0-0.7,0-1.1c0-36.7,0-73.3,0-110C0,5,3,1.3,7.6,0.3c0.7-0.1,1.3-0.1,1.9-0.1
				C9.2,0.6,9.2,1,9.3,1.5c-4.2-0.1-8,3.4-8,8.3c0,37,0,73.9,0,110.9c-0.4-0.1-0.8,0-1.1,0.2C0.1,120.9,0.1,120.9,0,120.9z"/>
			<path class="st1" d="M0.2,120.9c0.3-0.2,0.7-0.3,1.1-0.2c0.3,0.3,0.4,0.7,0.4,1.2c0,3.8,0,7.5,0,11.3c0,0.4,0,0.8-0.4,1
				c-0.1,0-0.2,0.1-0.2,0.1c-0.3,0.1-0.6,0-0.8-0.2c-0.1-0.1-0.1-0.2-0.2-0.3c0-4.2,0-8.5,0-12.7C0.1,121.1,0.1,121,0.2,120.9z"/>
			<path class="st1" d="M9.3,1.5c0-0.4-0.1-0.9,0.2-1.3c0.1,0,0.2,0,0.2-0.1c0.1,0,0.1,0,0.2-0.1c1.1,0,2.2,0,3.2,0l0.1,0.1h0.1
				c0.1,0,0.2,0.1,0.3,0.1c0.2,0.4-0.2,0.9,0.2,1.2C12.3,2,10.8,2.1,9.3,1.5z"/>
			<path class="st2" d="M13.9,1.5c-0.3-0.4,0-0.9-0.2-1.2c1.5-0.3,3-0.3,4.5-0.1c0.2,0.4,0.3,0.8,0.2,1.2C16.9,2,15.4,1.9,13.9,1.5z
				"/>
			<path class="st3" d="M10,0.1c-0.1,0-0.1,0-0.2,0.1C9.8,0.1,9.9,0.1,10,0.1z"/>
			<path class="st3" d="M13.4,0.1L13.4,0.1L13.2,0C13.3,0,13.3,0,13.4,0.1z"/>
			<path class="st4" d="M0.2,120.9c-0.1,0.1-0.1,0.2-0.2,0.2c0-0.1,0-0.2,0-0.3C0.1,120.9,0.1,120.9,0.2,120.9z"/>
			<path class="st4" d="M0,133.9c0.1,0.1,0.1,0.2,0.2,0.3c-0.1,0-0.1,0-0.2,0C0,134.1,0,134,0,133.9z"/>
			<path class="st5" d="M13.9,1.5c1.5,0.4,3,0.5,4.5-0.1c3.6,0,7.1,0,10.6,0c14.4,0,28.7,0,43.1,0c4.2,0,7.3,2.4,8.2,6.4
				c0.1,0.7,0.1,1.4,0.1,2.1c0,7.8,0,15.6,0,23.4c0,0.1-0.1,0.1-0.1,0.2c-0.9-0.1-1,0.5-1,1.2c0,3.7,0,7.4,0,11.1
				c0,0.7,0.3,1.2,1.1,1.2c0,35.2,0,70.5,0,105.7c0,4-2.2,7.1-5.8,8.1c-0.9,0.2-1.9,0.4-2.8,0.4c-7.1,0-14.2,0-21.3,0
				c-0.4,0-0.8,0.1-1.2-0.2c-0.1-0.7-0.5-0.9-1.1-0.9c-4.9,0-9.8,0-14.8,0c-0.6,0-1.1,0.2-1.2,0.9c-0.1,0-0.1,0.1-0.2,0.2
				c-7.8,0-15.7,0.2-23.6,0c-3.2-0.1-6.2-2.4-7.1-6.4c-0.2-0.7-0.2-1.4-0.2-2.2c0-6,0-12.1,0-18.1c0-0.1,0-0.1,0-0.2
				c0.4-0.2,0.4-0.6,0.4-1c0-3.8,0-7.5,0-11.3c0-0.5-0.1-0.8-0.4-1.2c0-37,0-73.9,0-110.9c0-4.9,3.8-8.4,8-8.3
				C10.8,2.1,12.3,2,13.9,1.5z M66.7,145.2c0,0.1,0,0.3,0,0.3c0.2,0.1,0.3-0.1,0.3-0.3c0.5-0.7,0.7-1.5,0.7-2.4c0-8.2,0-16.5,0-24.7
				c0-1-0.4-1.9-0.9-2.7c-1.1-1.5-2.7-1.7-4.4-1.7c-14.3,0-28.5,0-42.8,0c-0.5,0-1.1,0.1-1.6,0.1c-2.2,0.3-3.7,2.1-3.7,4.3
				c0,8.3,0,16.5,0,24.8c0,1,0.2,1.8,1.1,2.7c0-0.6,0-1,0-1.4c0-8.1,0.1-16.3,0-24.5c0-2.7,1.6-5,4.9-5c13.8,0,27.5,0,41.3,0
				c0.9,0,1.8,0,2.6,0.4c1.6,0.8,2.5,2.1,2.5,4C66.7,127.9,66.7,136.6,66.7,145.2z M20.2,55.1c0,13.3,0,26.7,0,40
				c0,1,0.3,1.2,1.2,1.2c12.9,0,25.8,0,38.7,0c0.9,0,1.2-0.2,1.2-1.2c0-26.6,0-53.3,0-79.9c0-1-0.2-1.2-1.2-1.2
				c-12.9,0-25.8,0-38.7,0c-0.9,0-1.3,0.2-1.3,1.2C20.2,28.6,20.2,41.8,20.2,55.1z M37.1,133.3c0.1,0,0.2,0,0.2,0.1c0,0.4,0,0.7,0,1
				c0,3.3,0,6.5,0,9.8c0,0.9,0.3,1.1,1.1,1.1c0.9-0.1,1.9,0,2.8,0c0.6,0,0.9-0.2,0.9-0.8c0-5.7,0-11.4,0-17.1c0-0.7-0.3-0.9-0.9-0.8
				c-1.2,0-2.3,0.1-3.5,0c-0.8,0-1.3,0.2-1.7,1c-1,2.4-2.1,4.8-3.2,7.1c-0.1,0.3-0.1,0.8-0.5,0.8c-0.4,0-0.4-0.5-0.6-0.8
				c-1.1-2.4-2.2-4.8-3.2-7.2c-0.2-0.5-0.4-0.9-1.1-0.9c-1.4,0-2.8,0-4.1,0c-0.5,0-0.8,0.2-0.8,0.8c0,5.7,0,11.5,0,17.2
				c0,0.6,0.2,0.8,0.8,0.8c0.9,0,1.9,0,2.8,0c0.8,0,1-0.3,1-1c0-3.3,0-6.6,0-9.9c0-0.3,0-0.7,0-1c1.1,2.1,2,4.2,2.9,6.4
				c0.2,0.5,0.3,1,1,1.2c2.2,0.4,2.9,0,3.7-2V139C35.5,137,36.3,135.1,37.1,133.3z M53.8,126.6c-1.8,0-3.6,0-5.4,0
				c-0.9,0-1.3,0.2-1.2,1.2c0.1,2.8,0.1,5.5,0,8.3c0,1,0.2,1.3,1.2,1c1.8-0.5,3.7-0.6,5.6-0.2c1.2,0.3,2,1.1,2.1,2.2
				c0.1,1.1-0.5,2.1-1.7,2.5c-1,0.4-2.1,0.6-3.2,0.4c-1.3-0.2-2.6-0.6-3.8-1.3c-0.8-0.4-1.1-0.2-1.1,0.7c0,0.8,0,1.5,0,2.3
				c0,0.6,0.2,0.9,0.8,1.1c1.4,0.5,2.8,0.7,4.2,0.8c2.6,0.2,5.1,0,7.2-1.7c2.1-1.6,2.6-3.8,2.3-6.2c-0.3-2.2-1.8-3.5-3.9-4.1
				c-1.4-0.4-2.8-0.6-4.3-0.5c-0.7,0-1-0.2-1-0.9c0-0.2,0-0.5,0-0.8c-0.1-0.9,0.2-1.2,1.1-1.2c1.6,0.1,3.3,0,4.9,0
				c2.8,0,2.8,0,2.7-2.8c0-0.7-0.3-0.9-1-0.9C57.6,126.6,55.7,126.6,53.8,126.6z"/>
			<path class="st2" d="M32.3,160.9c0.1-0.6,0.6-0.9,1.2-0.9c4.9,0,9.8,0,14.8,0c0.6,0,1.1,0.2,1.1,0.9s-0.5,0.8-1.1,0.8
				c-4.9,0-9.9,0-14.8,0c-0.5,0-0.9-0.2-1.2-0.6C32.3,161.1,32.3,161,32.3,160.9z"/>
			<path class="st2" d="M80.4,47c-0.8,0-1.1-0.5-1.1-1.2c0-3.7,0-7.4,0-11.1c0-0.7,0.1-1.3,1-1.2c0.1,0,0.1,0,0.2,0
				c0.5,0.2,0.5,0.7,0.5,1.1c0,3.8,0,7.5,0,11.2C81.1,46.3,81,46.8,80.4,47z"/>
			<path class="st6" d="M80.6,33.4c-0.1,0-0.1,0-0.2,0c0-0.1,0-0.1,0.1-0.2C80.5,33.3,80.6,33.3,80.6,33.4z"/>
			<path class="st7" d="M1.3,134.2c0,0.1,0,0.1,0,0.2c-0.1,0-0.2,0-0.2,0C1.1,134.3,1.2,134.2,1.3,134.2z"/>
			<path class="st7" d="M32.3,160.9c0,0.1,0,0.1,0,0.2c-0.1,0-0.1,0-0.2,0C32.2,161,32.3,161,32.3,160.9z"/>
			<path class="st8" d="M20.2,55.1c0-13.3,0-26.5,0-39.8c0-1,0.3-1.2,1.3-1.2c12.9,0,25.8,0,38.7,0c0.9,0,1.2,0.2,1.2,1.2
				c0,26.6,0,53.3,0,79.9c0,1-0.3,1.2-1.2,1.2c-12.9,0-25.8,0-38.7,0c-1,0-1.2-0.2-1.2-1.2C20.2,81.8,20.2,68.4,20.2,55.1z"/>
			<path class="st9" d="M37.1,133.3c-0.8,1.8-1.6,3.7-2.4,5.5v0.1c-0.8,2-1.6,2.4-3.7,2c-0.7-0.1-0.8-0.7-1-1.2
				c-0.9-2.1-1.8-4.2-2.9-6.4c0,0.3,0,0.7,0,1c0,3.3,0,6.6,0,9.9c0,0.7-0.2,1.1-1,1c-0.9,0-1.9,0-2.8,0c-0.6,0-0.8-0.2-0.8-0.8
				c0-5.7,0-11.5,0-17.2c0-0.6,0.2-0.8,0.8-0.8c1.4,0,2.8,0,4.1,0c0.7,0,0.9,0.4,1.1,0.9c1.1,2.4,2.1,4.8,3.2,7.2
				c0.1,0.3,0.2,0.8,0.6,0.8c0.4,0,0.4-0.5,0.5-0.8c1.1-2.4,2.2-4.7,3.2-7.1c0.3-0.8,0.8-1.1,1.7-1c1.2,0.1,2.3,0,3.5,0
				c0.6,0,0.9,0.1,0.9,0.8c0,5.7,0,11.4,0,17.1c0,0.6-0.3,0.8-0.9,0.8c-0.9,0-1.9,0-2.8,0c-0.8,0-1.1-0.2-1.1-1.1
				c0.1-3.3,0-6.5,0-9.8c0-0.4,0-0.7,0-1C37.3,133.3,37.2,133.3,37.1,133.3z"/>
			<path class="st9" d="M53.8,126.6c1.9,0,3.8,0,5.6,0c0.7,0,0.9,0.2,1,0.9c0.1,2.8,0.1,2.8-2.7,2.8c-1.6,0-3.3,0-4.9,0
				c-0.9,0-1.2,0.3-1.1,1.2c0,0.2,0,0.5,0,0.8c-0.1,0.7,0.3,0.9,1,0.9c1.4,0,2.9,0.1,4.3,0.5c2.1,0.6,3.5,1.9,3.9,4.1
				c0.4,2.4-0.2,4.6-2.3,6.2c-2.1,1.7-4.7,1.9-7.2,1.7c-1.4-0.1-2.9-0.3-4.2-0.8c-0.6-0.2-0.8-0.5-0.8-1.1c0.1-0.8,0-1.5,0-2.3
				c0-0.9,0.3-1.2,1.1-0.7c1.2,0.7,2.5,1,3.8,1.3c1.1,0.2,2.2,0,3.2-0.4c1.1-0.5,1.8-1.5,1.7-2.5s-0.9-1.9-2.1-2.2
				c-1.9-0.5-3.7-0.4-5.6,0.2c-1,0.3-1.2,0-1.2-1c0.1-2.8,0.1-5.5,0-8.3c0-1,0.3-1.2,1.2-1.2C50.2,126.6,52,126.6,53.8,126.6z"/>
			<path class="st10" d="M66.7,145.2c0-8.7,0-17.3,0-26c0-1.9-0.9-3.2-2.5-4c-0.8-0.4-1.8-0.4-2.6-0.4c-13.8,0-27.5,0-41.3,0
				c-3.4,0-5,2.3-4.9,5c0.1,8.1,0,16.3,0,24.5c0,0.4,0,0.8,0,1.4c-0.8-0.9-1.1-1.8-1.1-2.7c0-8.3,0-16.5,0-24.8
				c0-2.2,1.6-3.9,3.7-4.3c0.5-0.1,1.1-0.1,1.6-0.1c14.3,0,28.5,0,42.8,0c1.7,0,3.3,0.3,4.4,1.7c0.6,0.8,0.9,1.7,0.9,2.7
				c0,8.2,0,16.5,0,24.7c0,0.9-0.2,1.6-0.7,2.4C67,145.2,66.9,145.2,66.7,145.2z"/>
			<path class="st3" d="M66.7,145.2c0.1,0,0.2,0,0.4,0c-0.1,0.2-0.1,0.3-0.3,0.3C66.7,145.5,66.8,145.3,66.7,145.2z"/>
		</g>
		<rect x="19.7" y="14.4" class="st11" width="41.9" height="82"/>
		<g id="Layer_3">
		</g>
	</g>
	<g id="Layer_2_1_">
	</g>
	<rect x="31.2" y="38" class="st12" width="17" height="14.5"/>
	<path class="st12" d="M50.5,29.1c7.7,7,6.6,20.3-3.7,25.4c-10.3,5-22.2-2.7-22-14.2c0.1-4.5,1.8-8.2,5-11.2
		C36.7,29.1,43.6,29.1,50.5,29.1z M45,40.8c0.1,0,0.3,0,0.4,0c2.2-0.1,3.8-1.2,4.6-3.1c0.9-2,0.6-4-0.9-5.7
		c-1.4-1.5-3.2-2.1-5.3-1.5c-1.8,0.5-2.9,1.8-3.7,3.4c-0.2-0.4-0.3-0.7-0.5-1c-1.1-1.9-3.4-3-5.5-2.6c-2.3,0.5-3.9,2.2-4.2,4.5
		c-0.4,3.3,1.8,5.8,5.4,6c-0.1,0.1-0.2,0.3-0.3,0.4c-1.8,2.2-2.2,4.6-1.1,7.1c1.1,2.7,3.3,4.1,6.2,4.2c2.7,0,4.8-1.2,6.1-3.7
		C47.6,45.9,47.1,43.2,45,40.8z"/>
	<path class="st13" d="M35.7,70.8c0.8-0.1,1.2,0.2,1.4,1c0.3,1.1,0.7,2.1,1.1,3.4c0.7-1.2,0.9-2.4,1.3-3.5c0.2-0.4,0.1-1,0.8-0.9
		c0.8,0.1,0.5,0.7,0.5,1.1c0,1.3,0,2.5,0,3.8c0,0.3,0.1,0.7-0.3,0.7c-0.5,0-0.4-0.4-0.4-0.7c0-1.1,0-2.2-0.2-3.3
		c-0.4,1.1-0.7,2.1-1.1,3.2c-0.1,0.3-0.1,0.8-0.6,0.9c-0.6,0-0.6-0.5-0.7-0.8c-0.4-1.1-0.7-2.1-1.3-3.2c0,1,0,2.1,0,3.1
		c0,0.3,0.2,0.8-0.3,0.9c-0.5,0-0.4-0.5-0.4-0.8C35.7,73.9,35.7,72.3,35.7,70.8L35.7,70.8z"/>
	<path class="st14" d="M44.8,71c0.4,0,0.4,0.3,0.5,0.6c-0.5,0-1.1,0.1-1.6,0.1s-0.8,0.2-0.8,0.7c0,0.7,0.5,0.5,0.8,0.5
		c0.9,0,1.5,0.3,1.8,1.2c0.2,0.8,0,1.6-0.7,2.1c-0.8,0.5-1.6,0.5-2.4-0.1c-0.3-0.2-0.7-0.6-0.4-1c0.4-0.4,0.5,0.1,0.8,0.3
		c0.4,0.5,1,0.6,1.5,0.2c0.5-0.4,0.7-0.9,0.4-1.5c-0.3-0.6-0.9-0.7-1.5-0.5C42,74,42,74,42.2,72.9C42.4,71.1,42.4,71.1,44.8,71z"/>
	<path class="st15" d="M35.3,40.8c-3.6-0.2-5.8-2.7-5.4-6c0.3-2.3,2-4.1,4.2-4.5c2.1-0.4,4.3,0.6,5.5,2.6c0.2,0.3,0.3,0.6,0.5,1
		c0.8-1.7,1.9-2.9,3.7-3.4c2.1-0.5,3.8,0,5.3,1.5c1.5,1.7,1.8,3.6,0.9,5.7c-0.8,2-2.4,3-4.6,3.1c-0.1,0-0.3,0-0.4,0
		c-0.2,0-0.5,0-0.7,0c-1-0.2-1.8-0.8-2.7-1.3c-0.2-0.2-0.3-0.4-0.5-0.6c-0.3-0.6-0.6-1.1-1-1.7c-0.3,0.6-0.6,1.1-1,1.7
		c-0.2,0.2-0.3,0.4-0.5,0.6c-0.8,0.5-1.6,1-2.6,1.3C35.8,40.8,35.5,40.8,35.3,40.8z M43,37.1c0,1.2,1.1,2.2,2.3,2.2s2.1-1.1,2.1-2.2
		c0-1.2-1.1-2.3-2.2-2.2C44,34.8,43,35.9,43,37.1z M37.3,37c0-1.2-1.1-2.3-2.3-2.2c-1.1,0-2.1,1.1-2.2,2.2c0,1.2,1,2.3,2.2,2.3
		C36.3,39.3,37.3,38.2,37.3,37z"/>
	<path class="st16" d="M43,37.1c0-1.2,1-2.3,2.2-2.3s2.2,1,2.2,2.2s-1,2.2-2.1,2.2C44.1,39.3,43,38.3,43,37.1z"/>
	<path class="st16" d="M37.3,37c0,1.2-1,2.3-2.2,2.3s-2.2-1-2.2-2.3c0-1.2,1-2.2,2.2-2.2C36.2,34.7,37.3,35.8,37.3,37z"/>
	<path class="st17" d="M39.2,38.9c0.3-0.6,0.6-1.1,1-1.7c0.3,0.6,0.6,1.1,1,1.7C40.5,38.9,39.8,38.9,39.2,38.9z"/>
	<path class="st18" d="M33.6,45.3c0,8.8,12.8,9.8,13.2,0"/>
</g>
<g id="Layer_2">
	<polygon class="st19" points="29.8,29.1 40.2,15.5 50.5,29.1 	"/>
</g>
</svg>
