<?xml version="1.0" encoding="utf-8"?>
<!-- Generator: Adobe Illustrator 23.1.1, SVG Export Plug-In . SVG Version: 6.00 Build 0)  -->
<svg version="1.1" id="Layer_1" xmlns="http://www.w3.org/2000/svg" xmlns:xlink="http://www.w3.org/1999/xlink" x="0px" y="0px"
	 viewBox="0 0 526 260" style="enable-background:new 0 0 526 260;" xml:space="preserve">
<style type="text/css">
	.st0{fill:#FFFFFF;}
	.st1{fill:none;}
	.st2{font-family:'MyriadPro-Regular';}
	.st3{font-size:12px;}
</style>
<g>
	<g>
		<path d="M275.6,47.1c42.3,0,84.1,0,125.8,0c0,0.2,0,0.5,0,0.7c-42.1,0-84.3,0-126.8,0c0.4,2.1,0.7,3.7,1.1,5.2
			c0.9,3.5-1.2,6.8-4.8,6.9c-2,0.1-4.3-0.4-6.1-1.3c-1.9-0.9-2.3-3.2-1.5-5c0.5-1.1,2-2.2,3.3-2.6c1.6-0.5,3.2,0.2,3.7,2.1
			c0.4,1.9-0.2,3.5-2.4,3.9c-0.3,0.1-0.5,0.3-1,0.6c1.5,2,3.4,1.7,5,1c1.8-0.8,3.4-2.1,3.1-4.6c0-0.2-0.1-0.3-0.2-0.5
			c-1.7-5.5-1.7-5.5-7.5-5.7c-4.7-0.1-9.5,0-14.2,0c0-0.2,0-0.5,0-0.7c3.8,0,7.5,0,11.4,0c-1.8-2.4-3.3-4.6-5-6.5
			c-0.4-0.5-1.4-0.7-2.2-0.8c-1.4-0.1-2.8,0-4.2,0c0-0.2,0-0.5,0-0.7c0.8,0,1.6,0,2.5,0c0.8,0,1.9,0.2,2.4-0.2
			c0.6-0.5,1.1-2,0.8-2.4c-1.1-1.5,2-4.4-1.6-4.8c-1.3-0.1-2.7,0-4.2-0.5c6.3,1.5,7.9-2.8,10-7.5c-3.4,0-6.6,0-9.8,0
			c0-0.3,0-0.5,0-0.8c3,0,6,0.1,9,0c3.5-0.1,5.2-2.8,3.5-5.8c-0.4-0.7-1.6-1.4-2.4-1.5c-3.4-0.2-6.7-0.1-10.1-0.1c0-0.2,0-0.5,0-0.7
			c3.1,0,6.2-0.1,9.3,0c2,0.1,2.9-0.4,2.6-2.6c-0.5-4.1,0.5-7.9,3.1-11.2c1.3-1.6,2.4-1.6,3.6,0c2.5,3.4,3.6,7.1,3.1,11.2
			c-0.2,1.8,0.3,2.7,2.2,2.6c2.7-0.1,5.5,0,8.2,0c37.8,0,75.7,0,113.5,0c1,0,1.9,0,2.9,0c0,0.2,0,0.5,0,0.7c-0.9,0-1.9,0-2.8,0
			c-40.1,0-80.2,0-120.2-0.1c-2.8,0-4.8,0.3-5.7,3.4c-0.4,1.2-1.2,2.3-2.2,3.9c44,0,87.4,0,130.9,0c0,0.3,0,0.5,0,0.8
			c-0.9,0-1.9,0-2.8,0c-41.6,0-83.2,0-124.7,0c-0.5,0-1-0.1-1.5,0c-1.3,0.3-3.3-0.8-3.4,1.7c-0.1,3,1.1,4.1,3.6,4.4
			c20.9,2.6,41.9,0.8,62.8,1.1c21,0.3,42,0.1,63,0.1c1,0,2,0,3,0c0,0.2,0,0.4,0,0.6c-21.1,0-42.2,0-63.3,0c2,2.3,2.6,4.4,0.2,7.2
			c21.5,0,42.3,0,63.1,0c0,0.3,0,0.5,0,0.8c-0.9,0-1.9,0-2.8,0c-38.3,0-76.7,0-115,0c-2.3,0-4,0.1-4.8,2.8
			C278.5,44.1,277.1,45.2,275.6,47.1z M328.6,32.1c-17.1,0-33.4,0-49.8,0c0.5,1.6,1.3,3,1.2,4.3c-0.1,2.5,1.1,2.8,3.2,2.8
			c13.7-0.1,27.3,0,41,0c0.9,0,1.7-0.1,3-0.2C325.7,36.4,325.7,34.3,328.6,32.1z M265.7,12.2c0.6,1,1,2.6,1.9,2.8
			c1.9,0.6,3.7,0.3,4.7-2c1.2-2.6,0.7-5-0.4-7.5c-0.6-1.4-1.6-1.9-2.9-0.5C267.3,6.9,266,9.1,265.7,12.2z M269.1,43.4
			c-2.8-0.3-3.1-5.3-6.7-3.1c0.5,2.9,3.5,5.7,6.5,5.7c1.1,0,2.2-0.3,3.3-0.5c-0.3-1.7-0.3-3.5-1.1-4.9c-0.4-0.7-2.3-0.5-3.5-0.7
			c-0.1,0.2-0.1,0.5-0.2,0.7C267.9,41.5,268.4,42.4,269.1,43.4z M330,34.7c-0.1,2.3,1.6,4.5,3.3,4.1c1-0.2,2.3-1.3,2.6-2.3
			c0.4-1.6-1.7-3.6-3.3-3.7C331.1,32.9,330.1,33.5,330,34.7z M265.7,32.2c-3.1-0.9-4.8,1-4.5,5c0.1,1.4,0.7,1.9,2,1.9
			c1.3,0,2-0.4,2-1.8C265.3,35.6,265.5,33.9,265.7,32.2z M275.3,39.6c0.9-0.6,2.4-1,2.6-1.7c0.4-1.5-2.7-3.9-4.8-3.7
			c-0.6,0.1-1.6,0.9-1.7,1.4C271.2,37.9,272.6,39.1,275.3,39.6z M272.2,40.1c1,2,1.6,3.4,2.3,4.7c1.1-1.3,2.2-2.7,3.3-4
			c0.1-0.1-0.1-0.3-0.1-0.7C276.1,40.1,274.6,40.1,272.2,40.1z M263.7,30.3c0.1,0.3,0.3,0.7,0.4,1c1.4-0.3,3.2-0.1,3.9-0.9
			c0.7-0.7,0.1-2.5,0.1-3.8c-0.3-0.1-0.6-0.2-0.9-0.3C266.1,27.6,264.9,28.9,263.7,30.3z M269.8,34.9c-2,0.6-3.2,1.7-2.6,3.3
			c0.3,0.7,2.2,0.8,3.3,1.1c0.1-0.3,0.3-0.5,0.4-0.8C270.6,37.4,270.3,36.2,269.8,34.9z"/>
		<path class="st0" d="M328.6,32.1c-2.9,2.2-3,4.3-1.5,6.9c-1.2,0.1-2.1,0.2-3,0.2c-13.7,0-27.3,0-41,0c-2.1,0-3.3-0.3-3.2-2.8
			c0.1-1.3-0.7-2.7-1.2-4.3C295.3,32.1,311.5,32.1,328.6,32.1z"/>
		<path class="st0" d="M265.7,12.2c0.3-3.1,1.5-5.3,3.4-7.2c1.3-1.4,2.2-0.9,2.9,0.5c1.1,2.4,1.5,4.8,0.4,7.5c-1,2.3-2.8,2.6-4.7,2
			C266.8,14.7,266.3,13.1,265.7,12.2z"/>
		<path class="st0" d="M269.1,43.4c-0.6-1-1.2-1.9-1.7-2.8c0.1-0.2,0.1-0.5,0.2-0.7c1.2,0.2,3.1,0,3.5,0.7c0.8,1.4,0.8,3.2,1.1,4.9
			c-1.1,0.2-2.2,0.5-3.3,0.5c-3,0-6.1-2.7-6.5-5.7C266,38.1,266.3,43.1,269.1,43.4z"/>
		<path class="st0" d="M330,34.7c0-1.2,1-1.8,2.6-1.8c1.6,0,3.7,2.1,3.3,3.7c-0.3,1-1.6,2-2.6,2.3C331.7,39.2,330,37,330,34.7z"/>
		<path class="st0" d="M265.7,32.2c-0.2,1.7-0.4,3.4-0.4,5.1c0,1.5-0.7,1.8-2,1.8c-1.3,0-1.9-0.5-2-1.9
			C260.9,33.2,262.6,31.4,265.7,32.2z"/>
		<path class="st0" d="M275.3,39.6c-2.7-0.5-4.1-1.7-3.9-4c0-0.6,1.1-1.4,1.7-1.4c2.1-0.2,5.2,2.2,4.8,3.7
			C277.7,38.6,276.2,39,275.3,39.6z"/>
		<path class="st0" d="M272.2,40.1c2.4,0,4,0,5.5,0c0.1,0.4,0.2,0.6,0.1,0.7c-1.1,1.4-2.2,2.7-3.3,4
			C273.8,43.4,273.1,42.1,272.2,40.1z"/>
		<path class="st0" d="M263.7,30.3c1.2-1.3,2.4-2.7,3.6-4c0.3,0.1,0.6,0.2,0.9,0.3c0,1.3,0.5,3.1-0.1,3.8c-0.8,0.8-2.6,0.7-3.9,0.9
			C263.9,30.9,263.8,30.6,263.7,30.3z"/>
		<path class="st0" d="M269.8,34.9c0.4,1.4,0.8,2.5,1.1,3.6c-0.1,0.3-0.3,0.5-0.4,0.8c-1.1-0.3-3-0.4-3.3-1.1
			C266.7,36.6,267.9,35.5,269.8,34.9z"/>
	</g>
	<rect x="252.7" y="65.3" class="st1" width="273.3" height="22.9"/>
	<text transform="matrix(1 0 0 1 252.7363 73.774)" class="st2 st3">halvnode A, frekvens = 440, nodeværdi = 1/2</text>
</g>
<g>
	<g>
		<path d="M275.6,131c42.3,0,84.1,0,125.8,0c0,0.2,0,0.5,0,0.7c-42.1,0-84.3,0-126.8,0c0.4,2.1,0.7,3.7,1.1,5.2
			c0.9,3.5-1.2,6.8-4.8,6.9c-2,0.1-4.3-0.4-6.1-1.3c-1.9-0.9-2.3-3.2-1.5-5c0.5-1.1,2-2.2,3.3-2.6c1.6-0.5,3.2,0.2,3.7,2.1
			c0.4,1.9-0.2,3.5-2.4,3.9c-0.3,0.1-0.5,0.3-1,0.6c1.5,2,3.4,1.7,5,1c1.8-0.8,3.4-2.1,3.1-4.6c0-0.2-0.1-0.3-0.2-0.5
			c-1.7-5.5-1.7-5.5-7.5-5.7c-4.7-0.1-9.5,0-14.2,0c0-0.2,0-0.5,0-0.7c3.8,0,7.5,0,11.4,0c-1.8-2.4-3.3-4.6-5-6.5
			c-0.4-0.5-1.4-0.7-2.2-0.8c-1.4-0.1-2.8,0-4.2,0c0-0.2,0-0.5,0-0.7c0.8,0,1.6,0,2.5,0c0.8,0,1.9,0.2,2.4-0.2
			c0.6-0.5,1.1-2,0.8-2.4c-1.1-1.5,2-4.4-1.6-4.8c-1.3-0.1-2.7,0-4.2-0.5c6.3,1.5,7.9-2.8,10-7.5c-3.4,0-6.6,0-9.8,0
			c0-0.3,0-0.5,0-0.8c3,0,6,0.1,9,0c3.5-0.1,5.2-2.8,3.5-5.8c-0.4-0.7-1.6-1.4-2.4-1.5c-3.4-0.2-6.7-0.1-10.1-0.1c0-0.2,0-0.5,0-0.7
			c3.1,0,6.2-0.1,9.3,0c2,0.1,2.9-0.4,2.6-2.6c-0.5-4.1,0.5-7.9,3.1-11.2c1.3-1.6,2.4-1.6,3.6,0c2.5,3.4,3.6,7.1,3.1,11.2
			c-0.2,1.8,0.3,2.7,2.2,2.6c2.7-0.1,5.5,0,8.2,0c37.8,0,75.7,0,113.5,0c1,0,1.9,0,2.9,0c0,0.2,0,0.5,0,0.7c-0.9,0-1.9,0-2.8,0
			c-40.1,0-80.2,0-120.2-0.1c-2.8,0-4.8,0.3-5.7,3.4c-0.4,1.2-1.2,2.3-2.2,3.9c44,0,87.4,0,130.9,0c0,0.3,0,0.5,0,0.8
			c-0.9,0-1.9,0-2.8,0c-41.6,0-83.2,0-124.7,0c-0.5,0-1-0.1-1.5,0c-1.3,0.3-3.3-0.8-3.4,1.7c-0.1,3,1.1,4.1,3.6,4.4
			c20.9,2.6,41.9,0.8,62.8,1.1c21,0.3,42,0.1,63,0.1c1,0,2,0,3,0c0,0.2,0,0.4,0,0.6c-21.1,0-42.2,0-63.3,0c2,2.3,2.6,4.4,0.2,7.2
			c21.5,0,42.3,0,63.1,0c0,0.3,0,0.5,0,0.8c-0.9,0-1.9,0-2.8,0c-38.3,0-76.7,0-115,0c-2.3,0-4,0.1-4.8,2.8
			C278.5,127.9,277.1,129.1,275.6,131z M328.6,115.9c-17.1,0-33.4,0-49.8,0c0.5,1.6,1.3,3,1.2,4.3c-0.1,2.5,1.1,2.8,3.2,2.8
			c13.7-0.1,27.3,0,41,0c0.9,0,1.7-0.1,3-0.2C325.7,120.2,325.7,118.1,328.6,115.9z M265.7,96c0.6,1,1,2.6,1.9,2.8
			c1.9,0.6,3.7,0.3,4.7-2c1.2-2.6,0.7-5-0.4-7.5c-0.6-1.4-1.6-1.9-2.9-0.5C267.3,90.7,266,92.9,265.7,96z M269.1,127.2
			c-2.8-0.3-3.1-5.3-6.7-3.1c0.5,2.9,3.5,5.7,6.5,5.7c1.1,0,2.2-0.3,3.3-0.5c-0.3-1.7-0.3-3.5-1.1-4.9c-0.4-0.7-2.3-0.5-3.5-0.7
			c-0.1,0.2-0.1,0.5-0.2,0.7C267.9,125.3,268.4,126.2,269.1,127.2z M330,118.6c-0.1,2.3,1.6,4.5,3.3,4.1c1-0.2,2.3-1.3,2.6-2.3
			c0.4-1.6-1.7-3.6-3.3-3.7C331.1,116.7,330.1,117.3,330,118.6z M265.7,116.1c-3.1-0.9-4.8,1-4.5,5c0.1,1.4,0.7,1.9,2,1.9
			c1.3,0,2-0.4,2-1.8C265.3,119.5,265.5,117.8,265.7,116.1z M275.3,123.4c0.9-0.6,2.4-1,2.6-1.7c0.4-1.5-2.7-3.9-4.8-3.7
			c-0.6,0.1-1.6,0.9-1.7,1.4C271.2,121.7,272.6,123,275.3,123.4z M272.2,123.9c1,2,1.6,3.4,2.3,4.7c1.1-1.3,2.2-2.7,3.3-4
			c0.1-0.1-0.1-0.3-0.1-0.7C276.1,123.9,274.6,123.9,272.2,123.9z M263.7,114.1c0.1,0.3,0.3,0.7,0.4,1c1.4-0.3,3.2-0.1,3.9-0.9
			c0.7-0.7,0.1-2.5,0.1-3.8c-0.3-0.1-0.6-0.2-0.9-0.3C266.1,111.4,264.9,112.8,263.7,114.1z M269.8,118.7c-2,0.6-3.2,1.7-2.6,3.3
			c0.3,0.7,2.2,0.8,3.3,1.1c0.1-0.3,0.3-0.5,0.4-0.8C270.6,121.2,270.3,120.1,269.8,118.7z"/>
		<path class="st0" d="M328.6,115.9c-2.9,2.2-3,4.3-1.5,6.9c-1.2,0.1-2.1,0.2-3,0.2c-13.7,0-27.3,0-41,0c-2.1,0-3.3-0.3-3.2-2.8
			c0.1-1.3-0.7-2.7-1.2-4.3C295.3,115.9,311.5,115.9,328.6,115.9z"/>
		<path class="st0" d="M265.7,96c0.3-3.1,1.5-5.3,3.4-7.2c1.3-1.4,2.2-0.9,2.9,0.5c1.1,2.4,1.5,4.8,0.4,7.5c-1,2.3-2.8,2.6-4.7,2
			C266.8,98.6,266.3,97,265.7,96z"/>
		<path class="st0" d="M269.1,127.2c-0.6-1-1.2-1.9-1.7-2.8c0.1-0.2,0.1-0.5,0.2-0.7c1.2,0.2,3.1,0,3.5,0.7c0.8,1.4,0.8,3.2,1.1,4.9
			c-1.1,0.2-2.2,0.5-3.3,0.5c-3,0-6.1-2.7-6.5-5.7C266,122,266.3,127,269.1,127.2z"/>
		<path class="st0" d="M330,118.6c0-1.2,1-1.8,2.6-1.8c1.6,0,3.7,2.1,3.3,3.7c-0.3,1-1.6,2-2.6,2.3C331.7,123,330,120.9,330,118.6z"
			/>
		<path class="st0" d="M265.7,116.1c-0.2,1.7-0.4,3.4-0.4,5.1c0,1.5-0.7,1.8-2,1.8c-1.3,0-1.9-0.5-2-1.9
			C260.9,117.1,262.6,115.2,265.7,116.1z"/>
		<path class="st0" d="M275.3,123.4c-2.7-0.5-4.1-1.7-3.9-4c0-0.6,1.1-1.4,1.7-1.4c2.1-0.2,5.2,2.2,4.8,3.7
			C277.7,122.5,276.2,122.9,275.3,123.4z"/>
		<path class="st0" d="M272.2,123.9c2.4,0,4,0,5.5,0c0.1,0.4,0.2,0.6,0.1,0.7c-1.1,1.4-2.2,2.7-3.3,4
			C273.8,127.3,273.1,125.9,272.2,123.9z"/>
		<path class="st0" d="M263.7,114.1c1.2-1.3,2.4-2.7,3.6-4c0.3,0.1,0.6,0.2,0.9,0.3c0,1.3,0.5,3.1-0.1,3.8c-0.8,0.8-2.6,0.7-3.9,0.9
			C263.9,114.8,263.8,114.4,263.7,114.1z"/>
		<path class="st0" d="M269.8,118.7c0.4,1.4,0.8,2.5,1.1,3.6c-0.1,0.3-0.3,0.5-0.4,0.8c-1.1-0.3-3-0.4-3.3-1.1
			C266.7,120.4,267.9,119.3,269.8,118.7z"/>
	</g>
	<rect x="252.7" y="149.1" class="st1" width="262.7" height="22.8"/>
	<text transform="matrix(1 0 0 1 252.7363 157.6176)" class="st2 st3">8.delsnode A, frekvens = 440, nodeværdi = 1/8</text>
</g>
<g>
	<g>
		<path d="M275.6,219c42.3,0,84.1,0,125.8,0c0,0.2,0,0.5,0,0.7c-42.1,0-84.3,0-126.8,0c0.4,2.1,0.7,3.7,1.1,5.2
			c0.9,3.5-1.2,6.8-4.8,6.9c-2,0.1-4.3-0.4-6.1-1.3c-1.9-0.9-2.3-3.2-1.5-5c0.5-1.1,2-2.2,3.3-2.6c1.6-0.5,3.2,0.2,3.7,2.1
			c0.4,1.9-0.2,3.5-2.4,3.9c-0.3,0.1-0.5,0.3-1,0.6c1.5,2,3.4,1.7,5,1c1.8-0.8,3.4-2.1,3.1-4.6c0-0.2-0.1-0.3-0.2-0.5
			c-1.7-5.5-1.7-5.5-7.5-5.7c-4.7-0.1-9.5,0-14.2,0c0-0.2,0-0.5,0-0.7c3.8,0,7.5,0,11.4,0c-1.8-2.4-3.3-4.6-5-6.5
			c-0.4-0.5-1.4-0.7-2.2-0.8c-1.4-0.1-2.8,0-4.2,0c0-0.2,0-0.5,0-0.7c0.8,0,1.6,0,2.5,0c0.8,0,1.9,0.2,2.4-0.2
			c0.6-0.5,1.1-2,0.8-2.4c-1.1-1.5,2-4.4-1.6-4.8c-1.3-0.1-2.7,0-4.2-0.5c6.3,1.5,7.9-2.8,10-7.5c-3.4,0-6.6,0-9.8,0
			c0-0.3,0-0.5,0-0.8c3,0,6,0.1,9,0c3.5-0.1,5.2-2.8,3.5-5.8c-0.4-0.7-1.6-1.4-2.4-1.5c-3.4-0.2-6.7-0.1-10.1-0.1c0-0.2,0-0.5,0-0.7
			c3.1,0,6.2-0.1,9.3,0c2,0.1,2.9-0.4,2.6-2.6c-0.5-4.1,0.5-7.9,3.1-11.2c1.3-1.6,2.4-1.6,3.6,0c2.5,3.4,3.6,7.1,3.1,11.2
			c-0.2,1.8,0.3,2.7,2.2,2.6c2.7-0.1,5.5,0,8.2,0c37.8,0,75.7,0,113.5,0c1,0,1.9,0,2.9,0c0,0.2,0,0.5,0,0.7c-0.9,0-1.9,0-2.8,0
			c-40.1,0-80.2,0-120.2-0.1c-2.8,0-4.8,0.3-5.7,3.4c-0.4,1.2-1.2,2.3-2.2,3.9c44,0,87.4,0,130.9,0c0,0.3,0,0.5,0,0.8
			c-0.9,0-1.9,0-2.8,0c-41.6,0-83.2,0-124.7,0c-0.5,0-1-0.1-1.5,0c-1.3,0.3-3.3-0.8-3.4,1.7c-0.1,3,1.1,4.1,3.6,4.4
			c20.9,2.6,41.9,0.8,62.8,1.1c21,0.3,42,0.1,63,0.1c1,0,2,0,3,0c0,0.2,0,0.4,0,0.6c-21.1,0-42.2,0-63.3,0c2,2.3,2.6,4.4,0.2,7.2
			c21.5,0,42.3,0,63.1,0c0,0.3,0,0.5,0,0.8c-0.9,0-1.9,0-2.8,0c-38.3,0-76.7,0-115,0c-2.3,0-4,0.1-4.8,2.8
			C278.5,216,277.1,217.1,275.6,219z M328.6,204c-17.1,0-33.4,0-49.8,0c0.5,1.6,1.3,3,1.2,4.3c-0.1,2.5,1.1,2.8,3.2,2.8
			c13.7-0.1,27.3,0,41,0c0.9,0,1.7-0.1,3-0.2C325.7,208.3,325.7,206.2,328.6,204z M265.7,184.1c0.6,1,1,2.6,1.9,2.8
			c1.9,0.6,3.7,0.3,4.7-2c1.2-2.6,0.7-5-0.4-7.5c-0.6-1.4-1.6-1.9-2.9-0.5C267.3,178.8,266,181,265.7,184.1z M269.1,215.3
			c-2.8-0.3-3.1-5.3-6.7-3.1c0.5,2.9,3.5,5.7,6.5,5.7c1.1,0,2.2-0.3,3.3-0.5c-0.3-1.7-0.3-3.5-1.1-4.9c-0.4-0.7-2.3-0.5-3.5-0.7
			c-0.1,0.2-0.1,0.5-0.2,0.7C267.9,213.4,268.4,214.3,269.1,215.3z M330,206.6c-0.1,2.3,1.6,4.5,3.3,4.1c1-0.2,2.3-1.3,2.6-2.3
			c0.4-1.6-1.7-3.6-3.3-3.7C331.1,204.8,330.1,205.4,330,206.6z M265.7,204.1c-3.1-0.9-4.8,1-4.5,5c0.1,1.4,0.7,1.9,2,1.9
			c1.3,0,2-0.4,2-1.8C265.3,207.5,265.5,205.8,265.7,204.1z M275.3,211.5c0.9-0.6,2.4-1,2.6-1.7c0.4-1.5-2.7-3.9-4.8-3.7
			c-0.6,0.1-1.6,0.9-1.7,1.4C271.2,209.8,272.6,211,275.3,211.5z M272.2,212c1,2,1.6,3.4,2.3,4.7c1.1-1.3,2.2-2.7,3.3-4
			c0.1-0.1-0.1-0.3-0.1-0.7C276.1,212,274.6,212,272.2,212z M263.7,202.2c0.1,0.3,0.3,0.7,0.4,1c1.4-0.3,3.2-0.1,3.9-0.9
			c0.7-0.7,0.1-2.5,0.1-3.8c-0.3-0.1-0.6-0.2-0.9-0.3C266.1,199.5,264.9,200.8,263.7,202.2z M269.8,206.8c-2,0.6-3.2,1.7-2.6,3.3
			c0.3,0.7,2.2,0.8,3.3,1.1c0.1-0.3,0.3-0.5,0.4-0.8C270.6,209.3,270.3,208.1,269.8,206.8z"/>
		<path class="st0" d="M328.6,204c-2.9,2.2-3,4.3-1.5,6.9c-1.2,0.1-2.1,0.2-3,0.2c-13.7,0-27.3,0-41,0c-2.1,0-3.3-0.3-3.2-2.8
			c0.1-1.3-0.7-2.7-1.2-4.3C295.3,204,311.5,204,328.6,204z"/>
		<path class="st0" d="M265.7,184.1c0.3-3.1,1.5-5.3,3.4-7.2c1.3-1.4,2.2-0.9,2.9,0.5c1.1,2.4,1.5,4.8,0.4,7.5c-1,2.3-2.8,2.6-4.7,2
			C266.8,186.6,266.3,185,265.7,184.1z"/>
		<path class="st0" d="M269.1,215.3c-0.6-1-1.2-1.9-1.7-2.8c0.1-0.2,0.1-0.5,0.2-0.7c1.2,0.2,3.1,0,3.5,0.7c0.8,1.4,0.8,3.2,1.1,4.9
			c-1.1,0.2-2.2,0.5-3.3,0.5c-3,0-6.1-2.7-6.5-5.7C266,210,266.3,215,269.1,215.3z"/>
		<path class="st0" d="M330,206.6c0-1.2,1-1.8,2.6-1.8c1.6,0,3.7,2.1,3.3,3.7c-0.3,1-1.6,2-2.6,2.3C331.7,211.1,330,208.9,330,206.6
			z"/>
		<path class="st0" d="M265.7,204.1c-0.2,1.7-0.4,3.4-0.4,5.1c0,1.5-0.7,1.8-2,1.8c-1.3,0-1.9-0.5-2-1.9
			C260.9,205.1,262.6,203.3,265.7,204.1z"/>
		<path class="st0" d="M275.3,211.5c-2.7-0.5-4.1-1.7-3.9-4c0-0.6,1.1-1.4,1.7-1.4c2.1-0.2,5.2,2.2,4.8,3.7
			C277.7,210.5,276.2,210.9,275.3,211.5z"/>
		<path class="st0" d="M272.2,212c2.4,0,4,0,5.5,0c0.1,0.4,0.2,0.6,0.1,0.7c-1.1,1.4-2.2,2.7-3.3,4C273.8,215.3,273.1,214,272.2,212
			z"/>
		<path class="st0" d="M263.7,202.2c1.2-1.3,2.4-2.7,3.6-4c0.3,0.1,0.6,0.2,0.9,0.3c0,1.3,0.5,3.1-0.1,3.8c-0.8,0.8-2.6,0.7-3.9,0.9
			C263.9,202.8,263.8,202.5,263.7,202.2z"/>
		<path class="st0" d="M269.8,206.8c0.4,1.4,0.8,2.5,1.1,3.6c-0.1,0.3-0.3,0.5-0.4,0.8c-1.1-0.3-3-0.4-3.3-1.1
			C266.7,208.5,267.9,207.4,269.8,206.8z"/>
	</g>
	<rect x="252.7" y="237.2" class="st1" width="258.8" height="22.8"/>
	<text transform="matrix(1 0 0 1 252.7363 245.6801)" class="st2 st3">32.delsnode A, frekvens = 440, nodeværdi = 1/32</text>
</g>
<g>
	<g>
		<path d="M22.9,47c42.3,0,84.1,0,125.8,0c0,0.2,0,0.5,0,0.7c-42.1,0-84.3,0-126.8,0c0.4,2.1,0.7,3.7,1.1,5.2
			c0.9,3.5-1.2,6.8-4.8,6.9c-2,0.1-4.3-0.4-6.1-1.3c-1.9-0.9-2.3-3.2-1.5-5c0.5-1.1,2-2.2,3.3-2.6c1.6-0.5,3.2,0.2,3.7,2.1
			c0.4,1.9-0.2,3.5-2.4,3.9c-0.3,0.1-0.5,0.3-1,0.6c1.5,2,3.4,1.7,5,1c1.8-0.8,3.4-2.1,3.1-4.6c0-0.2-0.1-0.3-0.2-0.5
			c-1.7-5.5-1.7-5.5-7.5-5.7c-4.7-0.1-9.5,0-14.2,0c0-0.2,0-0.5,0-0.7c3.8,0,7.5,0,11.4,0c-1.8-2.4-3.3-4.6-5-6.5
			c-0.4-0.5-1.4-0.7-2.2-0.8c-1.4-0.1-2.8,0-4.2,0c0-0.2,0-0.5,0-0.7c0.8,0,1.6,0,2.5,0c0.8,0,1.9,0.2,2.4-0.2
			c0.6-0.5,1.1-2,0.8-2.4c-1.1-1.5,2-4.4-1.6-4.8c-1.3-0.1-2.7,0-4.2-0.5c6.3,1.5,7.9-2.8,10-7.5c-3.4,0-6.6,0-9.8,0
			c0-0.3,0-0.5,0-0.8c3,0,6,0.1,9,0c3.5-0.1,5.2-2.8,3.5-5.8c-0.4-0.7-1.6-1.4-2.4-1.5c-3.4-0.2-6.7-0.1-10.1-0.1c0-0.2,0-0.5,0-0.7
			c3.1,0,6.2-0.1,9.3,0c2,0.1,2.9-0.4,2.6-2.6c-0.5-4.1,0.5-7.9,3.1-11.2c1.3-1.6,2.4-1.6,3.6,0c2.5,3.4,3.6,7.1,3.1,11.2
			c-0.2,1.8,0.3,2.7,2.2,2.6c2.7-0.1,5.5,0,8.2,0c37.8,0,75.7,0,113.5,0c1,0,1.9,0,2.9,0c0,0.2,0,0.5,0,0.7c-0.9,0-1.9,0-2.8,0
			c-40.1,0-80.2,0-120.2-0.1c-2.8,0-4.8,0.3-5.7,3.4c-0.4,1.2-1.2,2.3-2.2,3.9c44,0,87.4,0,130.9,0c0,0.3,0,0.5,0,0.8
			c-0.9,0-1.9,0-2.8,0c-41.6,0-83.2,0-124.7,0c-0.5,0-1-0.1-1.5,0c-1.3,0.3-3.3-0.8-3.4,1.7c-0.1,3,1.1,4.1,3.6,4.4
			c20.9,2.6,41.9,0.8,62.8,1.1c21,0.3,42,0.1,63,0.1c1,0,2,0,3,0c0,0.2,0,0.4,0,0.6c-21.1,0-42.2,0-63.3,0c2,2.3,2.6,4.4,0.2,7.2
			c21.5,0,42.3,0,63.1,0c0,0.3,0,0.5,0,0.8c-0.9,0-1.9,0-2.8,0c-38.3,0-76.7,0-115,0c-2.3,0-4,0.1-4.8,2.8
			C25.8,44,24.3,45.2,22.9,47z M75.9,32c-17.1,0-33.4,0-49.8,0c0.5,1.6,1.3,3,1.2,4.3c-0.1,2.5,1.1,2.8,3.2,2.8
			c13.7-0.1,27.3,0,41,0c0.9,0,1.7-0.1,3-0.2C72.9,36.3,73,34.2,75.9,32z M13,12.1c0.6,1,1,2.6,1.9,2.8c1.9,0.6,3.7,0.3,4.7-2
			c1.2-2.6,0.7-5-0.4-7.5c-0.6-1.4-1.6-1.9-2.9-0.5C14.5,6.8,13.2,9,13,12.1z M16.3,43.3c-2.8-0.3-3.1-5.3-6.7-3.1
			c0.5,2.9,3.5,5.7,6.5,5.7c1.1,0,2.2-0.3,3.3-0.5c-0.3-1.7-0.3-3.5-1.1-4.9c-0.4-0.7-2.3-0.5-3.5-0.7c-0.1,0.2-0.1,0.5-0.2,0.7
			C15.1,41.4,15.7,42.3,16.3,43.3z M77.3,34.6c-0.1,2.3,1.6,4.5,3.3,4.1c1-0.2,2.3-1.3,2.6-2.3c0.4-1.6-1.7-3.6-3.3-3.7
			C78.3,32.8,77.3,33.4,77.3,34.6z M12.9,32.1c-3.1-0.9-4.8,1-4.5,5c0.1,1.4,0.7,1.9,2,1.9c1.3,0,2-0.4,2-1.8
			C12.5,35.6,12.8,33.9,12.9,32.1z M22.6,39.5c0.9-0.6,2.4-1,2.6-1.7c0.4-1.5-2.7-3.9-4.8-3.7c-0.6,0.1-1.6,0.9-1.7,1.4
			C18.5,37.8,19.9,39.1,22.6,39.5z M19.4,40c1,2,1.6,3.4,2.3,4.7c1.1-1.3,2.2-2.7,3.3-4c0.1-0.1-0.1-0.3-0.1-0.7
			C23.4,40,21.8,40,19.4,40z M10.9,30.2c0.1,0.3,0.3,0.7,0.4,1c1.4-0.3,3.2-0.1,3.9-0.9c0.7-0.7,0.1-2.5,0.1-3.8
			c-0.3-0.1-0.6-0.2-0.9-0.3C13.3,27.5,12.1,28.8,10.9,30.2z M17.1,34.8c-2,0.6-3.2,1.7-2.6,3.3c0.3,0.7,2.2,0.8,3.3,1.1
			c0.1-0.3,0.3-0.5,0.4-0.8C17.9,37.3,17.5,36.2,17.1,34.8z"/>
		<path class="st0" d="M75.9,32c-2.9,2.2-3,4.3-1.5,6.9c-1.2,0.1-2.1,0.2-3,0.2c-13.7,0-27.3,0-41,0c-2.1,0-3.3-0.3-3.2-2.8
			c0.1-1.3-0.7-2.7-1.2-4.3C42.5,32,58.8,32,75.9,32z"/>
		<path class="st0" d="M13,12.1c0.3-3.1,1.5-5.3,3.4-7.2c1.3-1.4,2.2-0.9,2.9,0.5c1.1,2.4,1.5,4.8,0.4,7.5c-1,2.3-2.8,2.6-4.7,2
			C14,14.7,13.6,13.1,13,12.1z"/>
		<path class="st0" d="M16.3,43.3c-0.6-1-1.2-1.9-1.7-2.8c0.1-0.2,0.1-0.5,0.2-0.7c1.2,0.2,3.1,0,3.5,0.7c0.8,1.4,0.8,3.2,1.1,4.9
			c-1.1,0.2-2.2,0.5-3.3,0.5c-3,0-6.1-2.7-6.5-5.7C13.2,38.1,13.5,43.1,16.3,43.3z"/>
		<path class="st0" d="M77.3,34.6c0-1.2,1-1.8,2.6-1.8c1.6,0,3.7,2.1,3.3,3.7c-0.3,1-1.6,2-2.6,2.3C78.9,39.1,77.3,37,77.3,34.6z"/>
		<path class="st0" d="M12.9,32.1c-0.2,1.7-0.4,3.4-0.4,5.1c0,1.5-0.7,1.8-2,1.8c-1.3,0-1.9-0.5-2-1.9C8.2,33.2,9.8,31.3,12.9,32.1z
			"/>
		<path class="st0" d="M22.6,39.5c-2.7-0.5-4.1-1.7-3.9-4c0-0.6,1.1-1.4,1.7-1.4c2.1-0.2,5.2,2.2,4.8,3.7
			C25,38.5,23.5,38.9,22.6,39.5z"/>
		<path class="st0" d="M19.4,40c2.4,0,4,0,5.5,0c0.1,0.4,0.2,0.6,0.1,0.7c-1.1,1.4-2.2,2.7-3.3,4C21.1,43.4,20.4,42,19.4,40z"/>
		<path class="st0" d="M10.9,30.2c1.2-1.3,2.4-2.7,3.6-4c0.3,0.1,0.6,0.2,0.9,0.3c0,1.3,0.5,3.1-0.1,3.8c-0.8,0.8-2.6,0.7-3.9,0.9
			C11.2,30.8,11.1,30.5,10.9,30.2z"/>
		<path class="st0" d="M17.1,34.8c0.4,1.4,0.8,2.5,1.1,3.6c-0.1,0.3-0.3,0.5-0.4,0.8c-1.1-0.3-3-0.4-3.3-1.1
			C13.9,36.5,15.1,35.4,17.1,34.8z"/>
	</g>
	<rect y="65.2" class="st1" width="248.6" height="20"/>
	<text transform="matrix(1 0 0 1 -9.990760e-06 73.6987)" class="st2 st3">helnode A, frekvens = 440, nodeværdi = 1/1</text>
</g>
<g>
	<g>
		<path d="M22.9,130.9c42.3,0,84.1,0,125.8,0c0,0.2,0,0.5,0,0.7c-42.1,0-84.3,0-126.8,0c0.4,2.1,0.7,3.7,1.1,5.2
			c0.9,3.5-1.2,6.8-4.8,6.9c-2,0.1-4.3-0.4-6.1-1.3c-1.9-0.9-2.3-3.2-1.5-5c0.5-1.1,2-2.2,3.3-2.6c1.6-0.5,3.2,0.2,3.7,2.1
			c0.4,1.9-0.2,3.5-2.4,3.9c-0.3,0.1-0.5,0.3-1,0.6c1.5,2,3.4,1.7,5,1c1.8-0.8,3.4-2.1,3.1-4.6c0-0.2-0.1-0.3-0.2-0.5
			c-1.7-5.5-1.7-5.5-7.5-5.7c-4.7-0.1-9.5,0-14.2,0c0-0.2,0-0.5,0-0.7c3.8,0,7.5,0,11.4,0c-1.8-2.4-3.3-4.6-5-6.5
			c-0.4-0.5-1.4-0.7-2.2-0.8c-1.4-0.1-2.8,0-4.2,0c0-0.2,0-0.5,0-0.7c0.8,0,1.6,0,2.5,0c0.8,0,1.9,0.2,2.4-0.2
			c0.6-0.5,1.1-2,0.8-2.4c-1.1-1.5,2-4.4-1.6-4.8c-1.3-0.1-2.7,0-4.2-0.5c6.3,1.5,7.9-2.8,10-7.5c-3.4,0-6.6,0-9.8,0
			c0-0.3,0-0.5,0-0.8c3,0,6,0.1,9,0c3.5-0.1,5.2-2.8,3.5-5.8c-0.4-0.7-1.6-1.4-2.4-1.5c-3.4-0.2-6.7-0.1-10.1-0.1c0-0.2,0-0.5,0-0.7
			c3.1,0,6.2-0.1,9.3,0c2,0.1,2.9-0.4,2.6-2.6c-0.5-4.1,0.5-7.9,3.1-11.2c1.3-1.6,2.4-1.6,3.6,0c2.5,3.4,3.6,7.1,3.1,11.2
			c-0.2,1.8,0.3,2.7,2.2,2.6c2.7-0.1,5.5,0,8.2,0c37.8,0,75.7,0,113.5,0c1,0,1.9,0,2.9,0c0,0.2,0,0.5,0,0.7c-0.9,0-1.9,0-2.8,0
			c-40.1,0-80.2,0-120.2-0.1c-2.8,0-4.8,0.3-5.7,3.4c-0.4,1.2-1.2,2.3-2.2,3.9c44,0,87.4,0,130.9,0c0,0.3,0,0.5,0,0.8
			c-0.9,0-1.9,0-2.8,0c-41.6,0-83.2,0-124.7,0c-0.5,0-1-0.1-1.5,0c-1.3,0.3-3.3-0.8-3.4,1.7c-0.1,3,1.1,4.1,3.6,4.4
			c20.9,2.6,41.9,0.8,62.8,1.1c21,0.3,42,0.1,63,0.1c1,0,2,0,3,0c0,0.2,0,0.4,0,0.6c-21.1,0-42.2,0-63.3,0c2,2.3,2.6,4.4,0.2,7.2
			c21.5,0,42.3,0,63.1,0c0,0.3,0,0.5,0,0.8c-0.9,0-1.9,0-2.8,0c-38.3,0-76.7,0-115,0c-2.3,0-4,0.1-4.8,2.8
			C25.8,127.8,24.3,129,22.9,130.9z M75.9,115.9c-17.1,0-33.4,0-49.8,0c0.5,1.6,1.3,3,1.2,4.3c-0.1,2.5,1.1,2.8,3.2,2.8
			c13.7-0.1,27.3,0,41,0c0.9,0,1.7-0.1,3-0.2C72.9,120.2,73,118,75.9,115.9z M13,95.9c0.6,1,1,2.6,1.9,2.8c1.9,0.6,3.7,0.3,4.7-2
			c1.2-2.6,0.7-5-0.4-7.5c-0.6-1.4-1.6-1.9-2.9-0.5C14.5,90.7,13.2,92.8,13,95.9z M16.3,127.2c-2.8-0.3-3.1-5.3-6.7-3.1
			c0.5,2.9,3.5,5.7,6.5,5.7c1.1,0,2.2-0.3,3.3-0.5c-0.3-1.7-0.3-3.5-1.1-4.9c-0.4-0.7-2.3-0.5-3.5-0.7c-0.1,0.2-0.1,0.5-0.2,0.7
			C15.1,125.2,15.7,126.1,16.3,127.2z M77.3,118.5c-0.1,2.3,1.6,4.5,3.3,4.1c1-0.2,2.3-1.3,2.6-2.3c0.4-1.6-1.7-3.6-3.3-3.7
			C78.3,116.6,77.3,117.2,77.3,118.5z M12.9,116c-3.1-0.9-4.8,1-4.5,5c0.1,1.4,0.7,1.9,2,1.9c1.3,0,2-0.4,2-1.8
			C12.5,119.4,12.8,117.7,12.9,116z M22.6,123.4c0.9-0.6,2.4-1,2.6-1.7c0.4-1.5-2.7-3.9-4.8-3.7c-0.6,0.1-1.6,0.9-1.7,1.4
			C18.5,121.7,19.9,122.9,22.6,123.4z M19.4,123.8c1,2,1.6,3.4,2.3,4.7c1.1-1.3,2.2-2.7,3.3-4c0.1-0.1-0.1-0.3-0.1-0.7
			C23.4,123.8,21.8,123.8,19.4,123.8z M10.9,114c0.1,0.3,0.3,0.7,0.4,1c1.4-0.3,3.2-0.1,3.9-0.9c0.7-0.7,0.1-2.5,0.1-3.8
			c-0.3-0.1-0.6-0.2-0.9-0.3C13.3,111.3,12.1,112.7,10.9,114z M17.1,118.6c-2,0.6-3.2,1.7-2.6,3.3c0.3,0.7,2.2,0.8,3.3,1.1
			c0.1-0.3,0.3-0.5,0.4-0.8C17.9,121.1,17.5,120,17.1,118.6z"/>
		<path class="st0" d="M75.9,115.9c-2.9,2.2-3,4.3-1.5,6.9c-1.2,0.1-2.1,0.2-3,0.2c-13.7,0-27.3,0-41,0c-2.1,0-3.3-0.3-3.2-2.8
			c0.1-1.3-0.7-2.7-1.2-4.3C42.5,115.9,58.8,115.9,75.9,115.9z"/>
		<path class="st0" d="M13,95.9c0.3-3.1,1.5-5.3,3.4-7.2c1.3-1.4,2.2-0.9,2.9,0.5c1.1,2.4,1.5,4.8,0.4,7.5c-1,2.3-2.8,2.6-4.7,2
			C14,98.5,13.6,96.9,13,95.9z"/>
		<path class="st0" d="M16.3,127.2c-0.6-1-1.2-1.9-1.7-2.8c0.1-0.2,0.1-0.5,0.2-0.7c1.2,0.2,3.1,0,3.5,0.7c0.8,1.4,0.8,3.2,1.1,4.9
			c-1.1,0.2-2.2,0.5-3.3,0.5c-3,0-6.1-2.7-6.5-5.7C13.2,121.9,13.5,126.9,16.3,127.2z"/>
		<path class="st0" d="M77.3,118.5c0-1.2,1-1.8,2.6-1.8c1.6,0,3.7,2.1,3.3,3.7c-0.3,1-1.6,2-2.6,2.3
			C78.9,122.9,77.3,120.8,77.3,118.5z"/>
		<path class="st0" d="M12.9,116c-0.2,1.7-0.4,3.4-0.4,5.1c0,1.5-0.7,1.8-2,1.8c-1.3,0-1.9-0.5-2-1.9C8.2,117,9.8,115.1,12.9,116z"
			/>
		<path class="st0" d="M22.6,123.4c-2.7-0.5-4.1-1.7-3.9-4c0-0.6,1.1-1.4,1.7-1.4c2.1-0.2,5.2,2.2,4.8,3.7
			C25,122.4,23.5,122.8,22.6,123.4z"/>
		<path class="st0" d="M19.4,123.8c2.4,0,4,0,5.5,0c0.1,0.4,0.2,0.6,0.1,0.7c-1.1,1.4-2.2,2.7-3.3,4
			C21.1,127.2,20.4,125.8,19.4,123.8z"/>
		<path class="st0" d="M10.9,114c1.2-1.3,2.4-2.7,3.6-4c0.3,0.1,0.6,0.2,0.9,0.3c0,1.3,0.5,3.1-0.1,3.8c-0.8,0.8-2.6,0.7-3.9,0.9
			C11.2,114.7,11.1,114.4,10.9,114z"/>
		<path class="st0" d="M17.1,118.6c0.4,1.4,0.8,2.5,1.1,3.6c-0.1,0.3-0.3,0.5-0.4,0.8c-1.1-0.3-3-0.4-3.3-1.1
			C13.9,120.3,15.1,119.3,17.1,118.6z"/>
	</g>
	<rect y="149" class="st1" width="241.9" height="22.9"/>
	<text transform="matrix(1 0 0 1 -9.990760e-06 157.5424)" class="st2 st3">4.delsnode A, frekvens = 440, nodeværdi = 1/4</text>
</g>
<g>
	<g>
		<path d="M22.9,219c42.3,0,84.1,0,125.8,0c0,0.2,0,0.5,0,0.7c-42.1,0-84.3,0-126.8,0c0.4,2.1,0.7,3.7,1.1,5.2
			c0.9,3.5-1.2,6.8-4.8,6.9c-2,0.1-4.3-0.4-6.1-1.3c-1.9-0.9-2.3-3.2-1.5-5c0.5-1.1,2-2.2,3.3-2.6c1.6-0.5,3.2,0.2,3.7,2.1
			c0.4,1.9-0.2,3.5-2.4,3.9c-0.3,0.1-0.5,0.3-1,0.6c1.5,2,3.4,1.7,5,1c1.8-0.8,3.4-2.1,3.1-4.6c0-0.2-0.1-0.3-0.2-0.5
			c-1.7-5.5-1.7-5.5-7.5-5.7c-4.7-0.1-9.5,0-14.2,0c0-0.2,0-0.5,0-0.7c3.8,0,7.5,0,11.4,0c-1.8-2.4-3.3-4.6-5-6.5
			c-0.4-0.5-1.4-0.7-2.2-0.8c-1.4-0.1-2.8,0-4.2,0c0-0.2,0-0.5,0-0.7c0.8,0,1.6,0,2.5,0c0.8,0,1.9,0.2,2.4-0.2
			c0.6-0.5,1.1-2,0.8-2.4c-1.1-1.5,2-4.4-1.6-4.8c-1.3-0.1-2.7,0-4.2-0.5c6.3,1.5,7.9-2.8,10-7.5c-3.4,0-6.6,0-9.8,0
			c0-0.3,0-0.5,0-0.8c3,0,6,0.1,9,0c3.5-0.1,5.2-2.8,3.5-5.8c-0.4-0.7-1.6-1.4-2.4-1.5c-3.4-0.2-6.7-0.1-10.1-0.1c0-0.2,0-0.5,0-0.7
			c3.1,0,6.2-0.1,9.3,0c2,0.1,2.9-0.4,2.6-2.6c-0.5-4.1,0.5-7.9,3.1-11.2c1.3-1.6,2.4-1.6,3.6,0c2.5,3.4,3.6,7.1,3.1,11.2
			c-0.2,1.8,0.3,2.7,2.2,2.6c2.7-0.1,5.5,0,8.2,0c37.8,0,75.7,0,113.5,0c1,0,1.9,0,2.9,0c0,0.2,0,0.5,0,0.7c-0.9,0-1.9,0-2.8,0
			c-40.1,0-80.2,0-120.2-0.1c-2.8,0-4.8,0.3-5.7,3.4c-0.4,1.2-1.2,2.3-2.2,3.9c44,0,87.4,0,130.9,0c0,0.3,0,0.5,0,0.8
			c-0.9,0-1.9,0-2.8,0c-41.6,0-83.2,0-124.7,0c-0.5,0-1-0.1-1.5,0c-1.3,0.3-3.3-0.8-3.4,1.7c-0.1,3,1.1,4.1,3.6,4.4
			c20.9,2.6,41.9,0.8,62.8,1.1c21,0.3,42,0.1,63,0.1c1,0,2,0,3,0c0,0.2,0,0.4,0,0.6c-21.1,0-42.2,0-63.3,0c2,2.3,2.6,4.4,0.2,7.2
			c21.5,0,42.3,0,63.1,0c0,0.3,0,0.5,0,0.8c-0.9,0-1.9,0-2.8,0c-38.3,0-76.7,0-115,0c-2.3,0-4,0.1-4.8,2.8
			C25.8,215.9,24.3,217.1,22.9,219z M75.9,203.9c-17.1,0-33.4,0-49.8,0c0.5,1.6,1.3,3,1.2,4.3c-0.1,2.5,1.1,2.8,3.2,2.8
			c13.7-0.1,27.3,0,41,0c0.9,0,1.7-0.1,3-0.2C72.9,208.2,73,206.1,75.9,203.9z M13,184c0.6,1,1,2.6,1.9,2.8c1.9,0.6,3.7,0.3,4.7-2
			c1.2-2.6,0.7-5-0.4-7.5c-0.6-1.4-1.6-1.9-2.9-0.5C14.5,178.7,13.2,180.9,13,184z M16.3,215.2c-2.8-0.3-3.1-5.3-6.7-3.1
			c0.5,2.9,3.5,5.7,6.5,5.7c1.1,0,2.2-0.3,3.3-0.5c-0.3-1.7-0.3-3.5-1.1-4.9c-0.4-0.7-2.3-0.5-3.5-0.7c-0.1,0.2-0.1,0.5-0.2,0.7
			C15.1,213.3,15.7,214.2,16.3,215.2z M77.3,206.5c-0.1,2.3,1.6,4.5,3.3,4.1c1-0.2,2.3-1.3,2.6-2.3c0.4-1.6-1.7-3.6-3.3-3.7
			C78.3,204.7,77.3,205.3,77.3,206.5z M12.9,204c-3.1-0.9-4.8,1-4.5,5c0.1,1.4,0.7,1.9,2,1.9c1.3,0,2-0.4,2-1.8
			C12.5,207.5,12.8,205.8,12.9,204z M22.6,211.4c0.9-0.6,2.4-1,2.6-1.7c0.4-1.5-2.7-3.9-4.8-3.7c-0.6,0.1-1.6,0.9-1.7,1.4
			C18.5,209.7,19.9,211,22.6,211.4z M19.4,211.9c1,2,1.6,3.4,2.3,4.7c1.1-1.3,2.2-2.7,3.3-4c0.1-0.1-0.1-0.3-0.1-0.7
			C23.4,211.9,21.8,211.9,19.4,211.9z M10.9,202.1c0.1,0.3,0.3,0.7,0.4,1c1.4-0.3,3.2-0.1,3.9-0.9c0.7-0.7,0.1-2.5,0.1-3.8
			c-0.3-0.1-0.6-0.2-0.9-0.3C13.3,199.4,12.1,200.7,10.9,202.1z M17.1,206.7c-2,0.6-3.2,1.7-2.6,3.3c0.3,0.7,2.2,0.8,3.3,1.1
			c0.1-0.3,0.3-0.5,0.4-0.8C17.9,209.2,17.5,208.1,17.1,206.7z"/>
		<path class="st0" d="M75.9,203.9c-2.9,2.2-3,4.3-1.5,6.9c-1.2,0.1-2.1,0.2-3,0.2c-13.7,0-27.3,0-41,0c-2.1,0-3.3-0.3-3.2-2.8
			c0.1-1.3-0.7-2.7-1.2-4.3C42.5,203.9,58.8,203.9,75.9,203.9z"/>
		<path class="st0" d="M13,184c0.3-3.1,1.5-5.3,3.4-7.2c1.3-1.4,2.2-0.9,2.9,0.5c1.1,2.4,1.5,4.8,0.4,7.5c-1,2.3-2.8,2.6-4.7,2
			C14,186.6,13.6,185,13,184z"/>
		<path class="st0" d="M16.3,215.2c-0.6-1-1.2-1.9-1.7-2.8c0.1-0.2,0.1-0.5,0.2-0.7c1.2,0.2,3.1,0,3.5,0.7c0.8,1.4,0.8,3.2,1.1,4.9
			c-1.1,0.2-2.2,0.5-3.3,0.5c-3,0-6.1-2.7-6.5-5.7C13.2,210,13.5,215,16.3,215.2z"/>
		<path class="st0" d="M77.3,206.5c0-1.2,1-1.8,2.6-1.8c1.6,0,3.7,2.1,3.3,3.7c-0.3,1-1.6,2-2.6,2.3C78.9,211,77.3,208.9,77.3,206.5
			z"/>
		<path class="st0" d="M12.9,204c-0.2,1.7-0.4,3.4-0.4,5.1c0,1.5-0.7,1.8-2,1.8c-1.3,0-1.9-0.5-2-1.9C8.2,205.1,9.8,203.2,12.9,204z
			"/>
		<path class="st0" d="M22.6,211.4c-2.7-0.5-4.1-1.7-3.9-4c0-0.6,1.1-1.4,1.7-1.4c2.1-0.2,5.2,2.2,4.8,3.7
			C25,210.5,23.5,210.9,22.6,211.4z"/>
		<path class="st0" d="M19.4,211.9c2.4,0,4,0,5.5,0c0.1,0.4,0.2,0.6,0.1,0.7c-1.1,1.4-2.2,2.7-3.3,4
			C21.1,215.3,20.4,213.9,19.4,211.9z"/>
		<path class="st0" d="M10.9,202.1c1.2-1.3,2.4-2.7,3.6-4c0.3,0.1,0.6,0.2,0.9,0.3c0,1.3,0.5,3.1-0.1,3.8c-0.8,0.8-2.6,0.7-3.9,0.9
			C11.2,202.8,11.1,202.4,10.9,202.1z"/>
		<path class="st0" d="M17.1,206.7c0.4,1.4,0.8,2.5,1.1,3.6c-0.1,0.3-0.3,0.5-0.4,0.8c-1.1-0.3-3-0.4-3.3-1.1
			C13.9,208.4,15.1,207.3,17.1,206.7z"/>
	</g>
	<rect y="237.1" class="st1" width="245.3" height="22.9"/>
	<text transform="matrix(1 0 0 1 -9.990760e-06 245.6049)" class="st2 st3">16.delsnode A, frekvens = 440, nodeværdi = 1/16</text>
</g>
<path d="M338.6,31.4c0-7.7,0-15.2,0-22.6c0.3,0,0.5,0,0.8,0c0.1,0.7,0.2,1.4,0.2,2.1c0.1,7.6-0.1,15.2,0.4,22.8
	c0.2,3.5-5.9,7.2-11,6.3c-2.8-0.5-3.6-3.6-1.4-5.7C330.2,31.7,333.9,30.7,338.6,31.4z M337.8,33.7c-0.4-0.2-1.4-0.9-1.7-0.7
	c-2.6,1.2-5,2.5-7.4,3.9c-0.1,0.1,0.3,1,0.7,1.2C331.1,38.8,337.8,35.7,337.8,33.7z"/>
<path d="M86.1,115.5c0-7.8,0-15.2,0-22.6c0.2,0,0.4,0,0.5,0c0,0.7,0.1,1.3,0.1,2c0,6.9,0.1,13.8,0,20.7c0,3.1-0.6,5.9-4,7.2
	c-2.7,1.1-5.5,0.4-6.2-1.7c-0.8-2.3,0.9-5.2,3.6-5.8c0.9-0.2,1.8-0.3,2.7-0.3C83.8,115,84.7,115.3,86.1,115.5z"/>
<path d="M338.2,92.3c2.3,4,4.3,7.7,6.5,11.4c1.9,3.1,2.9,6.4,1.8,10.1c-0.4-5.1-2.5-9.1-7.3-12.1c-0.1,1.3-0.3,2.2-0.3,3.2
	c-0.2,4.8-0.1,9.6-0.5,14.4c-0.3,3.2-4,5.2-7.1,4.5c-1.7-0.4-2.6-1.4-2.7-3.1c-0.1-2.1,1.4-4.2,3.6-4.8c0.9-0.3,2-0.4,3-0.4
	c0.9,0,1.8,0.3,3,0.5C338.2,107.9,338.2,100.1,338.2,92.3z"/>
<path d="M92.3,204.8c-1-5.6-2.8-8.3-6.3-9.5c-0.1,1-0.2,1.9-0.2,2.8c-0.2,2.7-0.1,5.5-0.5,8.2c-0.5,3.1-3.9,5.1-7.1,4.5
	c-1.7-0.3-2.6-1.3-2.7-3c-0.1-2.1,1.4-4.1,3.5-4.7c0.9-0.3,2-0.4,3-0.4c0.9,0,1.8,0.2,3.1,0.4c0-7.8,0-15.3,0-23.1
	c2.7,4.6,5.4,8.9,7.7,13.3C94.5,197,94.2,200.8,92.3,204.8z M91.8,197.8c-0.3-3.7-1.5-5.5-4.4-6.6C89.1,193.7,90.5,195.7,91.8,197.8
	z"/>
<path d="M338.6,177.1c1.9,3.1,3.7,6.2,5.6,9.3c3.5,5.7,4.1,14.1,1.2,21c-0.1-4.7-2.2-7.8-5.6-9.9c-0.3,0.1-0.6,0.1-0.8,0.2
	c0,2.1,0.1,4.2,0,6.3c-0.1,3-0.7,5.7-4,7.1c-2.7,1.1-5.5,0.5-6.2-1.7c-0.8-2.4,0.9-5.4,3.6-5.9c1.7-0.3,3.6-0.1,5.7-0.1
	c0-8.8,0-17.7,0-26.5C338.3,177.1,338.5,177.1,338.6,177.1z M342.1,193.1c-0.4,0.2-0.7,0.5-1.1,0.7c1.3,2,2.6,4,3.9,6
	c0.3-0.2,0.6-0.4,0.9-0.6C344.6,197.2,343.4,195.1,342.1,193.1z M345.2,193.9c0.3-0.2,0.5-0.3,0.8-0.5c-1.2-1.9-2.5-3.8-3.7-5.8
	c-0.3,0.2-0.5,0.3-0.8,0.5C342.8,190.1,344,192,345.2,193.9z"/>
</svg>
