<?xml version="1.0" encoding="utf-8"?>
<!-- Generator: Adobe Illustrator 23.1.1, SVG Export Plug-In . SVG Version: 6.00 Build 0)  -->
<svg version="1.1" id="Layer_1" xmlns="http://www.w3.org/2000/svg" xmlns:xlink="http://www.w3.org/1999/xlink" x="0px" y="0px"
	 viewBox="0 0 357.4 280" style="enable-background:new 0 0 357.4 280;" xml:space="preserve">
<style type="text/css">
	.st0{fill:#FFFFFF;}
	.st1{fill:#676767;}
	.st2{fill:#E93725;}
	.st3{fill:#CCCCCB;}
	.st4{fill:#796350;}
	.st5{fill:#595959;}
	.st6{fill:#DC8844;}
	.st7{fill:#907259;}
	.st8{fill:#BD7F4C;}
	.st9{fill:#131313;}
	.st10{fill:#CC732A;}
	.st11{fill:#575655;}
	.st12{fill:#E5F4F7;stroke:#5C5A5C;stroke-width:2;stroke-linecap:round;stroke-linejoin:round;stroke-miterlimit:10;}
</style>
<g>
	<g>
		<g>
			<g>
				<path class="st0" d="M176.6,112.8c0-37.1,0-74.2,0-111.3c0-1.1-0.2-1.3-1.3-1.3c-58.4,0-116.9,0-175.3,0C0.1,0.2-0.1,0,0.1,0
					C0.4,0,0.7,0,1,0c58.3,0,116.6,0,174.9,0c0.8,0,1,0.2,1,1c0,37,0,73.9,0,110.9C176.8,112.2,177.1,112.6,176.6,112.8z"/>
				<path class="st1" d="M8.9,81.3c0-0.3,0-0.7,0-1c0-17.7,0-35.4,0-53.1c0-4.4,3.1-8.4,7.5-9.3c0.6-0.1,1.2-0.1,1.7-0.1
					c48,0,95.9,0,143.8,0c4.7,0,8.9,4,9.1,8.2c0.1,1.1,0.1,2.2,0.1,3.2c0,20,0,40.1,0,60.1c0,3.4-1,6.3-3.9,8.4
					c-1.6,1.1-3.4,1.8-5.3,1.8c-6.3,0.1-12.7,0-19,0c0-0.1,0-0.1,0-0.2c0.2-0.2,0.3-0.5,0.2-0.8c0-0.1,0-0.1,0-0.2
					c6.1,0,12.1,0,18.1,0c0.7,0,1.4-0.1,2.2-0.2c3.9-0.9,6.3-3.8,6.4-7.1c0.2-7.8,0.1-15.7,0-23.6c0-0.1,0-0.1,0-0.2
					c0.4-0.3,0.6-0.7,0.6-1.2c0-4.9,0-9.9,0-14.8c0-0.5-0.1-1-0.8-1.1c0.2-0.4,0.2-0.8,0.2-1.2c0-7.1,0-14.2,0-21.3
					c0-0.9-0.1-1.9-0.4-2.8c-1-3.6-4.1-5.8-8.1-5.8c-35.2,0-70.5,0-105.7,0c-0.2-0.6-0.7-0.7-1.2-0.7c-3.8,0-7.5,0-11.2,0
					c-0.4,0-0.9,0-1.1,0.5C42.1,19,42,19,42,19.1c-7.8,0-15.6,0-23.4,0c-0.7,0-1.4,0-2,0.1c-3.9,0.8-6.4,4-6.4,8.2
					c0,14.4,0,28.7,0,43.1c0,3.6,0,7.1,0,10.6C9.7,81,9.3,81.1,8.9,81.3z"/>
				<path class="st1" d="M129.6,99.5c-0.4,0-0.7,0-1.1,0c-36.7,0-73.3,0-110,0c-4.8,0-8.5-3-9.5-7.6c-0.1-0.7-0.1-1.3-0.1-1.9
					c0.4,0.3,0.8,0.3,1.3,0.2c-0.1,4.2,3.4,8,8.3,8c37,0,73.9,0,110.9,0c-0.1,0.4,0,0.8,0.2,1.1C129.6,99.4,129.6,99.5,129.6,99.5z"
					/>
				<path class="st2" d="M129.6,99.3c-0.2-0.4-0.3-0.7-0.2-1.1c0.3-0.3,0.7-0.4,1.2-0.4c3.8,0,7.5,0,11.3,0c0.4,0,0.8,0,1,0.4
					c0.1,0.1,0.1,0.2,0.1,0.2c0.1,0.3,0,0.6-0.2,0.8c-0.1,0.1-0.2,0.1-0.3,0.2c-4.2,0-8.5,0-12.7,0
					C129.8,99.5,129.7,99.4,129.6,99.3z"/>
				<path class="st2" d="M10.2,90.2c-0.4,0-0.9,0.1-1.3-0.2c0-0.1,0-0.2-0.1-0.2c0-0.1,0-0.1-0.1-0.2c0-1.1,0-2.2,0-3.2l0-0.1v-0.1
					c0-0.1,0.1-0.2,0.1-0.3c0.4-0.2,0.9,0.2,1.2-0.2C10.8,87.2,10.9,88.7,10.2,90.2z"/>
				<path class="st3" d="M10.2,85.7c-0.4,0.3-0.9,0-1.2,0.2c-0.3-1.5-0.3-3,0-4.5c0.4-0.2,0.8-0.3,1.2-0.2
					C10.7,82.6,10.6,84.2,10.2,85.7z"/>
				<path class="st4" d="M8.8,89.5c0,0.1,0,0.1,0.1,0.2C8.9,89.7,8.8,89.6,8.8,89.5z"/>
				<path class="st4" d="M8.9,86.1L8.9,86.1l0,0.2C8.8,86.2,8.8,86.2,8.9,86.1z"/>
				<path class="st5" d="M129.6,99.3c0.1,0.1,0.2,0.1,0.2,0.2c-0.1,0-0.2,0-0.3,0C129.6,99.5,129.6,99.4,129.6,99.3z"/>
				<path class="st5" d="M142.6,99.5c0.1-0.1,0.2-0.1,0.3-0.2c0,0.1,0,0.1,0,0.2C142.8,99.5,142.7,99.5,142.6,99.5z"/>
				<path class="st6" d="M10.2,85.7c0.4-1.5,0.5-3-0.1-4.5c0-3.6,0-7.1,0-10.6c0-14.4,0-28.7,0-43.1c0-4.2,2.4-7.3,6.4-8.2
					c0.7-0.1,1.4-0.1,2-0.1c7.8,0,15.6,0,23.4,0c0.1,0,0.1,0.1,0.2,0.1c-0.1,0.9,0.5,1,1.2,1c3.7,0,7.4,0,11.2,0
					c0.7,0,1.2-0.3,1.2-1c35.2,0,70.5,0,105.7,0c4,0,7.1,2.2,8.1,5.8c0.2,0.9,0.4,1.8,0.4,2.8c0,7.1,0,14.2,0,21.3
					c0,0.4,0.1,0.8-0.2,1.2c-0.7,0.1-0.9,0.5-0.9,1.1c0,4.9,0,9.8,0,14.8c0,0.6,0.2,1.1,0.9,1.2c0.1,0.1,0.1,0.1,0.2,0.2
					c0,7.8,0.2,15.7,0,23.6c-0.1,3.2-2.4,6.2-6.4,7.1c-0.7,0.2-1.4,0.2-2.2,0.2c-6.1,0-12.1,0-18.1,0c-0.1,0-0.1,0-0.2,0
					c-0.2-0.4-0.6-0.4-1-0.4c-3.8,0-7.5,0-11.3,0c-0.5,0-0.8,0.1-1.2,0.4c-37,0-73.9,0-110.9,0c-4.9,0-8.4-3.8-8.3-8
					C10.9,88.7,10.8,87.2,10.2,85.7z M154,32.8c0.1,0,0.3,0,0.3,0c0.1-0.2-0.1-0.3-0.3-0.3c-0.7-0.5-1.5-0.7-2.4-0.7
					c-8.2,0-16.4,0-24.7,0c-1,0-1.9,0.3-2.7,1c-1.5,1.1-1.7,2.7-1.7,4.3c0,14.3,0,28.5,0,42.8c0,0.5,0.1,1.1,0.1,1.6
					c0.3,2.2,2.1,3.7,4.3,3.7c8.3,0,16.5,0,24.8,0c0.9,0,1.8-0.2,2.7-1.1c-0.6,0-1,0-1.4,0c-8.1,0-16.3-0.1-24.5,0
					c-2.7,0-5-1.6-5-4.9c0-13.8,0-27.5,0-41.3c0-0.9,0-1.8,0.4-2.6c0.8-1.6,2.1-2.5,4-2.5C136.7,32.8,145.3,32.8,154,32.8z
					 M63.8,79.3c13.3,0,26.7,0,40,0c1,0,1.2-0.3,1.2-1.2c0-12.9,0-25.8,0-38.7c0-0.9-0.2-1.2-1.2-1.2c-26.6,0-53.3,0-79.9,0
					c-1,0-1.2,0.2-1.2,1.2c0,12.9,0,25.8,0,38.7c0,0.9,0.2,1.3,1.2,1.3C37.3,79.3,50.6,79.3,63.8,79.3z M142,62.4
					c0-0.1,0-0.2,0.1-0.2c0.4,0,0.7,0,1,0c3.3,0,6.5,0,9.8,0c0.9,0,1.1-0.3,1.1-1.1c-0.1-0.9,0-1.9,0-2.8c0-0.6-0.2-0.9-0.8-0.9
					c-5.7,0-11.4,0-17.1,0c-0.7,0-0.9,0.3-0.8,0.9c0,1.2,0.1,2.3,0,3.5c-0.1,0.8,0.2,1.3,1,1.7c2.4,1,4.8,2.1,7.1,3.2
					c0.3,0.1,0.8,0.1,0.8,0.5c0,0.4-0.5,0.4-0.8,0.6c-2.4,1.1-4.8,2.2-7.2,3.2c-0.5,0.2-0.9,0.4-0.9,1.1c0,1.4,0,2.8,0,4.1
					c0,0.5,0.2,0.8,0.8,0.8c5.7,0,11.5,0,17.2,0c0.6,0,0.8-0.2,0.8-0.8c0-0.9-0.1-1.9,0-2.8c0-0.8-0.3-1-1-1c-3.3,0-6.6,0-9.9,0
					c-0.3,0-0.7,0-1,0c2.1-1.1,4.2-2,6.4-2.9c0.5-0.2,1.1-0.3,1.2-1c0.4-2.2,0-2.9-2-3.7c0,0-0.1,0-0.1,0
					C145.7,64,143.9,63.2,142,62.4z M135.3,45.8c0,1.8,0.1,3.6,0,5.4c0,0.9,0.2,1.3,1.2,1.2c2.8-0.1,5.5-0.1,8.3,0
					c1,0,1.3-0.2,1-1.2c-0.5-1.8-0.6-3.7-0.2-5.6c0.3-1.2,1.1-2,2.2-2.1c1.1-0.1,2.1,0.5,2.5,1.7c0.4,1,0.6,2.1,0.4,3.2
					c-0.2,1.3-0.6,2.6-1.3,3.8c-0.4,0.8-0.2,1.1,0.7,1.1c0.8,0,1.5,0,2.3,0c0.6,0,0.9-0.2,1.1-0.8c0.5-1.4,0.7-2.8,0.8-4.2
					c0.2-2.6,0-5.1-1.7-7.2c-1.6-2.1-3.8-2.7-6.2-2.3c-2.2,0.3-3.5,1.8-4.1,3.8c-0.4,1.4-0.6,2.8-0.5,4.3c0,0.7-0.2,1-0.9,1
					c-0.2,0-0.5,0-0.8,0c-0.9,0.1-1.2-0.2-1.2-1.1c0.1-1.6,0-3.3,0-4.9c0-2.8,0-2.8-2.8-2.7c-0.7,0-0.9,0.3-0.9,1
					C135.3,42,135.3,43.9,135.3,45.8z"/>
				<path class="st3" d="M169.7,67.2c-0.6-0.1-0.9-0.6-0.9-1.2c0-4.9,0-9.8,0-14.8c0-0.6,0.2-1.1,0.9-1.1c0.7,0,0.8,0.5,0.8,1.1
					c0,4.9,0,9.9,0,14.8c0,0.5-0.2,0.9-0.6,1.2C169.8,67.2,169.7,67.2,169.7,67.2z"/>
				<path class="st3" d="M55.7,19.1c0,0.8-0.5,1-1.2,1c-3.7,0-7.4,0-11.2,0c-0.7,0-1.3-0.1-1.2-1c0-0.1,0-0.1,0-0.2
					c0.2-0.5,0.7-0.5,1.1-0.5c3.8,0,7.5,0,11.2,0C55.1,18.4,55.5,18.5,55.7,19.1z"/>
				<path class="st7" d="M42.2,18.9c0,0.1,0,0.1,0,0.2c-0.1,0-0.1,0-0.2-0.1C42,19,42.1,19,42.2,18.9z"/>
				<path class="st8" d="M142.9,98.2c0.1,0,0.1,0,0.2,0c0,0.1,0,0.1,0,0.2C143,98.4,143,98.3,142.9,98.2z"/>
				<path class="st8" d="M169.7,67.2c0.1,0,0.1,0,0.2,0c0,0.1,0,0.1,0,0.2C169.8,67.3,169.7,67.3,169.7,67.2z"/>
				<path class="st9" d="M63.8,79.3c-13.3,0-26.5,0-39.8,0c-1,0-1.2-0.3-1.2-1.3c0-12.9,0-25.8,0-38.7c0-0.9,0.2-1.2,1.2-1.2
					c26.6,0,53.3,0,79.9,0c1,0,1.2,0.3,1.2,1.2c0,12.9,0,25.8,0,38.7c0,1-0.2,1.2-1.2,1.2C90.5,79.3,77.2,79.3,63.8,79.3z"/>
				<path class="st10" d="M142,62.4c1.8,0.8,3.7,1.6,5.5,2.4c0,0,0.1,0,0.1,0c2,0.8,2.4,1.6,2,3.7c-0.1,0.7-0.7,0.8-1.2,1
					c-2.1,0.9-4.2,1.8-6.4,2.9c0.3,0,0.7,0,1,0c3.3,0,6.6,0,9.9,0c0.7,0,1.1,0.2,1,1c-0.1,0.9,0,1.9,0,2.8c0,0.6-0.2,0.8-0.8,0.8
					c-5.7,0-11.5,0-17.2,0c-0.6,0-0.8-0.2-0.8-0.8c0-1.4,0-2.8,0-4.1c0-0.7,0.4-0.9,0.9-1.1c2.4-1.1,4.8-2.1,7.2-3.2
					c0.3-0.1,0.8-0.2,0.8-0.6c0-0.4-0.5-0.4-0.8-0.5c-2.4-1.1-4.7-2.2-7.1-3.2c-0.8-0.3-1.1-0.8-1-1.7c0.1-1.2,0-2.3,0-3.5
					c0-0.6,0.1-0.9,0.8-0.9c5.7,0,11.4,0,17.1,0c0.6,0,0.8,0.3,0.8,0.9c0,0.9-0.1,1.9,0,2.8c0.1,0.8-0.2,1.1-1.1,1.1
					c-3.3-0.1-6.5,0-9.8,0c-0.4,0-0.7,0-1,0C142.1,62.3,142.1,62.3,142,62.4z"/>
				<path class="st10" d="M135.3,45.8c0-1.9,0-3.8,0-5.7c0-0.7,0.2-0.9,0.9-1C139,39,139,39,139,41.8c0,1.6,0.1,3.3,0,4.9
					c0,0.9,0.3,1.2,1.2,1.1c0.2,0,0.5,0,0.8,0c0.7,0.1,0.9-0.3,0.9-1c0-1.4,0.1-2.9,0.5-4.3c0.6-2.1,1.9-3.5,4.1-3.8
					c2.4-0.3,4.6,0.2,6.2,2.3c1.7,2.2,1.9,4.7,1.7,7.2c-0.1,1.4-0.3,2.9-0.8,4.2c-0.2,0.6-0.5,0.8-1.1,0.8c-0.8-0.1-1.5,0-2.3,0
					c-0.9,0-1.2-0.3-0.7-1.1c0.7-1.2,1-2.5,1.3-3.8c0.2-1.1,0-2.2-0.4-3.2c-0.5-1.2-1.5-1.8-2.5-1.7c-1,0.1-1.9,0.9-2.2,2.1
					c-0.4,1.9-0.4,3.7,0.2,5.6c0.3,1,0,1.2-1,1.2c-2.8-0.1-5.5-0.1-8.3,0c-1,0-1.2-0.3-1.2-1.2C135.3,49.4,135.3,47.6,135.3,45.8z"
					/>
				<path class="st11" d="M154,32.8c-8.7,0-17.3,0-26,0c-1.9,0-3.2,0.8-4,2.5c-0.4,0.8-0.4,1.8-0.4,2.6c0,13.8,0,27.5,0,41.3
					c0,3.4,2.3,5,5,4.9c8.1-0.1,16.3,0,24.5,0c0.4,0,0.8,0,1.4,0c-0.9,0.8-1.8,1.1-2.7,1.1c-8.3,0-16.5,0-24.8,0
					c-2.2,0-3.9-1.6-4.3-3.7c-0.1-0.5-0.1-1.1-0.1-1.6c0-14.3,0-28.5,0-42.8c0-1.7,0.3-3.3,1.7-4.3c0.8-0.6,1.7-1,2.7-1
					c8.2,0,16.4,0,24.7,0c0.9,0,1.6,0.2,2.4,0.7C154,32.5,154,32.7,154,32.8z"/>
				<path class="st4" d="M154,32.8c0-0.1,0-0.2,0-0.4c0.2,0.1,0.3,0.1,0.3,0.3C154.3,32.8,154.1,32.8,154,32.8z"/>
			</g>
			<rect x="23.1" y="38" class="st12" width="82" height="41.9"/>
		</g>
		<g>
			<g>
				<path class="st0" d="M180.8,4.7c0,37.1,0,74.2,0,111.3c0,1.1,0.2,1.3,1.3,1.3c58.4,0,116.9,0,175.3,0c0,0.1,0.1,0.2-0.1,0.2
					c-0.3,0-0.6,0-0.9,0c-58.3,0-116.6,0-174.9,0c-0.8,0-1-0.2-1-1c0-36.9,0-73.9,0-110.9C180.6,5.3,180.3,4.9,180.8,4.7z"/>
				<path class="st1" d="M348.5,36.2c0,0.3,0,0.7,0,1c0,17.7,0,35.4,0,53.1c0,4.4-3.1,8.4-7.5,9.3c-0.6,0.1-1.1,0.1-1.7,0.1
					c-48,0-95.9,0-143.9,0c-4.7,0-8.9-4-9.1-8.2c-0.1-1.1-0.1-2.2-0.1-3.2c0-20,0-40.1,0-60.1c0-3.4,1-6.3,3.9-8.4
					c1.6-1.1,3.4-1.8,5.3-1.8c6.3,0,12.7,0,19,0c0,0.1,0,0.1,0,0.2c-0.2,0.2-0.3,0.5-0.2,0.8c0,0.1,0,0.2,0,0.2
					c-6.1,0-12.1,0-18.1,0c-0.7,0-1.4,0-2.2,0.2c-3.9,0.9-6.3,3.8-6.4,7.1c-0.2,7.9-0.1,15.7,0,23.6c0,0.1,0,0.1,0,0.2
					c-0.4,0.3-0.6,0.7-0.6,1.2c0,4.9,0,9.9,0,14.8c0,0.5,0.1,1,0.8,1.1c-0.2,0.4-0.2,0.8-0.2,1.2c0,7.1,0,14.2,0,21.3
					c0,0.9,0.1,1.9,0.4,2.8c1,3.6,4.1,5.8,8.1,5.8c35.2,0,70.5,0,105.7,0c0.2,0.6,0.7,0.7,1.2,0.7c3.8,0,7.5,0,11.2,0
					c0.4,0,0.9,0,1.1-0.5c0.1-0.1,0.1-0.1,0.2-0.1c7.8,0,15.6,0,23.4,0c0.7,0,1.4,0,2-0.1c3.9-0.8,6.4-3.9,6.4-8.2
					c0-14.4,0-28.7,0-43.1c0-3.6,0-7.1,0-10.6C347.7,36.5,348.1,36.4,348.5,36.2z"/>
				<path class="st1" d="M227.8,18c0.4,0,0.7,0,1.1,0c36.7,0,73.3,0,110,0c4.8,0,8.5,3,9.5,7.6c0.1,0.7,0.1,1.3,0.1,1.9
					c-0.4-0.3-0.8-0.3-1.3-0.2c0.1-4.2-3.4-8-8.3-8c-37,0-74,0-110.9,0c0.1-0.4,0-0.8-0.2-1.1C227.8,18.1,227.8,18,227.8,18z"/>
				<path class="st2" d="M227.8,18.2c0.2,0.3,0.3,0.7,0.2,1.1c-0.3,0.3-0.7,0.4-1.2,0.4c-3.8,0-7.5,0-11.3,0c-0.4,0-0.8,0-1-0.4
					c-0.1-0.1-0.1-0.2-0.1-0.2c-0.1-0.3,0-0.6,0.2-0.8c0.1-0.1,0.2-0.1,0.3-0.2c4.2,0,8.5,0,12.7,0C227.6,18,227.7,18.1,227.8,18.2z
					"/>
				<path class="st2" d="M347.2,27.3c0.4,0,0.9-0.1,1.3,0.2c0,0.1,0,0.2,0.1,0.2c0,0.1,0,0.1,0.1,0.2c0,1.1,0,2.2,0,3.2l0,0.1v0.1
					c0,0.1-0.1,0.2-0.1,0.3c-0.4,0.2-0.9-0.2-1.2,0.2C346.6,30.3,346.5,28.8,347.2,27.3z"/>
				<path class="st3" d="M347.2,31.8c0.4-0.3,0.9,0,1.2-0.2c0.3,1.5,0.3,3,0,4.5c-0.4,0.2-0.8,0.3-1.2,0.2
					C346.7,34.9,346.8,33.3,347.2,31.8z"/>
				<path class="st4" d="M348.6,27.9c0-0.1,0-0.1-0.1-0.2C348.5,27.8,348.6,27.9,348.6,27.9z"/>
				<path class="st4" d="M348.5,31.3L348.5,31.3l0-0.2C348.6,31.3,348.6,31.3,348.5,31.3z"/>
				<path class="st5" d="M227.8,18.2c-0.1-0.1-0.2-0.1-0.2-0.2c0.1,0,0.2,0,0.3,0C227.8,18,227.8,18.1,227.8,18.2z"/>
				<path class="st5" d="M214.8,18c-0.1,0.1-0.2,0.1-0.3,0.2c0-0.1,0-0.1,0-0.2C214.6,18,214.7,18,214.8,18z"/>
				<path class="st6" d="M347.2,31.8c-0.4,1.5-0.5,3,0.1,4.5c0,3.6,0,7.1,0,10.6c0,14.4,0,28.7,0,43.1c0,4.2-2.4,7.3-6.4,8.2
					c-0.7,0.1-1.4,0.1-2,0.1c-7.8,0-15.6,0-23.4,0c-0.1,0-0.1-0.1-0.2-0.1c0.1-0.9-0.5-1-1.2-1c-3.7,0-7.4,0-11.1,0
					c-0.7,0-1.2,0.3-1.2,1.1c-35.2,0-70.5,0-105.7,0c-4,0-7.1-2.2-8.1-5.8c-0.2-0.9-0.4-1.8-0.4-2.8c0-7.1,0-14.2,0-21.3
					c0-0.4-0.1-0.8,0.2-1.2c0.7-0.1,0.9-0.5,0.9-1.1c0-4.9,0-9.8,0-14.8c0-0.6-0.2-1.1-0.9-1.2c-0.1-0.1-0.1-0.1-0.2-0.2
					c0-7.8-0.2-15.7,0-23.6c0.1-3.2,2.4-6.2,6.4-7.1c0.7-0.2,1.4-0.2,2.2-0.2c6.1,0,12.1,0,18.1,0c0.1,0,0.1,0,0.2,0
					c0.2,0.4,0.6,0.4,1,0.4c3.8,0,7.5,0,11.3,0c0.5,0,0.8-0.1,1.2-0.4c37,0,74,0,110.9,0c4.9,0,8.4,3.8,8.3,8
					C346.5,28.8,346.6,30.3,347.2,31.8z M203.4,84.7c-0.1,0-0.3,0-0.3,0c-0.1,0.2,0.1,0.3,0.3,0.3c0.7,0.5,1.5,0.7,2.4,0.7
					c8.2,0,16.4,0,24.7,0c1,0,1.9-0.3,2.7-0.9c1.5-1.1,1.7-2.7,1.7-4.3c0-14.3,0-28.5,0-42.8c0-0.5,0-1.1-0.1-1.6
					c-0.3-2.2-2.1-3.7-4.3-3.7c-8.3,0-16.5,0-24.8,0c-0.9,0-1.8,0.2-2.7,1.1c0.6,0,1,0,1.4,0c8.1,0,16.3,0.1,24.5,0
					c2.7,0,5,1.6,5,4.9c0,13.8,0,27.5,0,41.3c0,0.9,0,1.8-0.4,2.6c-0.8,1.6-2.1,2.5-4,2.5C220.7,84.7,212.1,84.7,203.4,84.7z
					 M293.6,38.1c-13.3,0-26.7,0-40,0c-1,0-1.2,0.3-1.2,1.2c0,12.9,0,25.8,0,38.7c0,0.9,0.2,1.2,1.2,1.2c26.6,0,53.3,0,79.9,0
					c1,0,1.2-0.2,1.2-1.2c0-12.9,0-25.8,0-38.7c0-0.9-0.2-1.3-1.2-1.3C320.1,38.2,306.8,38.1,293.6,38.1z M215.4,55.1
					c0,0.1,0,0.2-0.1,0.2c-0.4,0-0.7,0-1,0c-3.3,0-6.5,0-9.8,0c-0.9,0-1.1,0.3-1.1,1.1c0.1,0.9,0,1.9,0,2.8c0,0.6,0.2,0.9,0.8,0.9
					c5.7,0,11.4,0,17.1,0c0.7,0,0.9-0.3,0.8-0.9c0-1.2-0.1-2.3,0-3.5c0.1-0.8-0.2-1.3-1-1.7c-2.4-1-4.8-2.1-7.1-3.2
					c-0.3-0.1-0.8-0.1-0.8-0.5c0-0.4,0.5-0.4,0.8-0.6c2.4-1.1,4.8-2.2,7.2-3.2c0.5-0.2,0.9-0.4,0.9-1.1c0-1.4,0-2.8,0-4.1
					c0-0.5-0.2-0.8-0.8-0.8c-5.7,0-11.5,0-17.2,0c-0.6,0-0.8,0.2-0.8,0.8c0,0.9,0.1,1.9,0,2.8c0,0.8,0.3,1,1,1c3.3,0,6.6,0,9.9,0
					c0.3,0,0.7,0,1,0c-2.1,1.1-4.2,2-6.4,2.9c-0.5,0.2-1.1,0.3-1.2,1c-0.4,2.2,0,2.9,2,3.7c0,0,0.1,0,0.1,0
					C211.7,53.5,213.5,54.3,215.4,55.1z M222.1,71.8c0-1.8-0.1-3.6,0-5.4c0-0.9-0.2-1.3-1.2-1.2c-2.8,0.1-5.5,0.1-8.3,0
					c-1,0-1.3,0.2-1,1.2c0.5,1.8,0.6,3.7,0.2,5.6c-0.3,1.2-1.1,2-2.2,2.1c-1.1,0.1-2.1-0.5-2.5-1.7c-0.4-1-0.6-2.1-0.4-3.2
					c0.2-1.3,0.6-2.6,1.3-3.8c0.4-0.8,0.2-1.1-0.7-1.1c-0.8,0-1.5,0-2.3,0c-0.6,0-0.9,0.2-1.1,0.8c-0.5,1.4-0.7,2.8-0.8,4.2
					c-0.2,2.6,0,5.1,1.7,7.2c1.6,2.1,3.8,2.7,6.2,2.3c2.2-0.3,3.5-1.8,4.1-3.8c0.4-1.4,0.6-2.8,0.5-4.3c0-0.7,0.2-1,0.9-1
					c0.2,0,0.5,0,0.8,0c0.9-0.1,1.2,0.2,1.2,1.1c-0.1,1.6,0,3.3,0,4.9c0,2.8,0,2.8,2.8,2.7c0.7,0,0.9-0.3,0.9-1
					C222.1,75.5,222.1,73.6,222.1,71.8z"/>
				<path class="st3" d="M187.7,50.3c0.6,0.1,0.9,0.6,0.9,1.2c0,4.9,0,9.8,0,14.8c0,0.6-0.2,1.1-0.9,1.1c-0.7,0-0.8-0.5-0.8-1.1
					c0-4.9,0-9.9,0-14.8c0-0.5,0.2-0.9,0.6-1.2C187.6,50.3,187.7,50.3,187.7,50.3z"/>
				<path class="st3" d="M301.7,98.4c0-0.8,0.5-1.1,1.2-1.1c3.7,0,7.4,0,11.1,0c0.7,0,1.3,0.1,1.2,1c0,0.1,0,0.1,0,0.2
					c-0.2,0.5-0.7,0.5-1.1,0.5c-3.8,0-7.5,0-11.2,0C302.3,99.1,301.9,99,301.7,98.4z"/>
				<path class="st7" d="M315.2,98.6c0-0.1,0-0.1,0-0.2c0.1,0,0.1,0,0.2,0.1C315.4,98.5,315.3,98.5,315.2,98.6z"/>
				<path class="st8" d="M214.5,19.3c-0.1,0-0.1,0-0.2,0c0-0.1,0-0.2,0-0.2C214.4,19.1,214.4,19.2,214.5,19.3z"/>
				<path class="st8" d="M187.7,50.3c-0.1,0-0.1,0-0.2,0c0-0.1,0-0.1,0-0.2C187.6,50.2,187.7,50.2,187.7,50.3z"/>
				<path class="st9" d="M293.6,38.1c13.3,0,26.5,0,39.8,0c1,0,1.2,0.3,1.2,1.3c0,12.9,0,25.8,0,38.7c0,0.9-0.2,1.2-1.2,1.2
					c-26.6,0-53.3,0-79.9,0c-1,0-1.2-0.3-1.2-1.2c0-12.9,0-25.8,0-38.7c0-1,0.2-1.2,1.2-1.2C266.9,38.2,280.2,38.1,293.6,38.1z"/>
				<path class="st10" d="M215.4,55.1c-1.8-0.8-3.7-1.6-5.5-2.4c0,0-0.1,0-0.1,0c-2-0.8-2.4-1.6-2-3.7c0.1-0.7,0.7-0.8,1.2-1
					c2.1-0.9,4.2-1.8,6.4-2.9c-0.3,0-0.7,0-1,0c-3.3,0-6.6,0-9.9,0c-0.7,0-1.1-0.2-1-1c0.1-0.9,0-1.9,0-2.8c0-0.6,0.2-0.8,0.8-0.8
					c5.7,0,11.5,0,17.2,0c0.6,0,0.8,0.2,0.8,0.8c0,1.4,0,2.8,0,4.1c0,0.7-0.4,0.9-0.9,1.1c-2.4,1.1-4.8,2.1-7.2,3.2
					c-0.3,0.1-0.8,0.2-0.8,0.6c0,0.4,0.5,0.4,0.8,0.5c2.4,1.1,4.7,2.2,7.1,3.2c0.8,0.3,1.1,0.8,1,1.7c-0.1,1.2,0,2.3,0,3.5
					c0,0.6-0.1,0.9-0.8,0.9c-5.7,0-11.4,0-17.1,0c-0.6,0-0.8-0.3-0.8-0.9c0-0.9,0.1-1.9,0-2.8c-0.1-0.8,0.2-1.1,1.1-1.1
					c3.3,0.1,6.5,0,9.8,0c0.4,0,0.7,0,1,0C215.3,55.2,215.3,55.2,215.4,55.1z"/>
				<path class="st10" d="M222.1,71.8c0,1.9,0,3.8,0,5.7c0,0.7-0.2,0.9-0.9,1c-2.8,0.1-2.8,0.1-2.8-2.7c0-1.6-0.1-3.3,0-4.9
					c0-0.9-0.3-1.2-1.2-1.1c-0.2,0-0.5,0-0.8,0c-0.7-0.1-0.9,0.3-0.9,1c0,1.4-0.1,2.9-0.5,4.3c-0.6,2.1-1.9,3.5-4.1,3.8
					c-2.4,0.3-4.6-0.2-6.2-2.3c-1.7-2.2-1.9-4.7-1.7-7.2c0.1-1.4,0.3-2.9,0.8-4.2c0.2-0.6,0.5-0.8,1.1-0.8c0.8,0.1,1.5,0,2.3,0
					c0.9,0,1.2,0.3,0.7,1.1c-0.7,1.2-1,2.5-1.3,3.8c-0.2,1.1,0,2.2,0.4,3.2c0.5,1.2,1.5,1.8,2.5,1.7c1-0.1,1.9-0.9,2.2-2.1
					c0.4-1.9,0.4-3.7-0.2-5.6c-0.3-1,0-1.2,1-1.2c2.8,0.1,5.5,0.1,8.3,0c1,0,1.2,0.3,1.2,1.2C222.1,68.1,222.1,69.9,222.1,71.8z"/>
				<path class="st11" d="M203.4,84.7c8.7,0,17.3,0,26,0c1.9,0,3.2-0.8,4-2.5c0.4-0.8,0.4-1.8,0.4-2.6c0-13.8,0-27.5,0-41.3
					c0-3.4-2.3-5-5-4.9c-8.1,0.1-16.3,0-24.5,0c-0.4,0-0.8,0-1.4,0c0.9-0.8,1.8-1.1,2.7-1.1c8.3,0,16.5,0,24.8,0
					c2.2,0,4,1.6,4.3,3.7c0.1,0.5,0.1,1.1,0.1,1.6c0,14.3,0,28.5,0,42.8c0,1.7-0.3,3.3-1.7,4.3c-0.8,0.6-1.7,0.9-2.7,0.9
					c-8.2,0-16.4,0-24.7,0c-0.9,0-1.6-0.2-2.4-0.7C203.4,85,203.4,84.8,203.4,84.7z"/>
				<path class="st4" d="M203.4,84.7c0,0.1,0,0.2,0,0.4c-0.2-0.1-0.3-0.1-0.3-0.3C203.1,84.7,203.3,84.7,203.4,84.7z"/>
			</g>
			<rect x="252.3" y="37.6" class="st12" width="82" height="41.9"/>
		</g>
		<g>
			<g>
				<path class="st0" d="M33.6,276.2c37.1,0,74.2,0,111.3,0c1.1,0,1.3-0.2,1.3-1.3c0-58.4,0-116.9,0-175.3c0.1,0.1,0.2-0.1,0.2,0.1
					c0,0.3,0,0.6,0,0.9c0,58.3,0,116.6,0,174.9c0,0.8-0.2,1-1,1c-36.9,0-73.9,0-110.9,0C34.3,276.4,33.8,276.6,33.6,276.2z"/>
				<path class="st1" d="M65.1,108.5c0.3,0,0.7,0,1,0c17.7,0,35.4,0,53.1,0c4.4,0,8.4,3.1,9.3,7.5c0.1,0.6,0.1,1.1,0.1,1.7
					c0,47.9,0,95.9,0,143.8c0,4.7-4,8.9-8.2,9.1c-1.1,0.1-2.2,0.1-3.2,0.1c-20,0-40.1,0-60.1,0c-3.4,0-6.3-1-8.4-3.9
					c-1.1-1.6-1.8-3.4-1.8-5.3c-0.1-6.3,0-12.7,0-19c0.1,0,0.1,0,0.2,0c0.2,0.2,0.5,0.3,0.8,0.2c0.1,0,0.2,0,0.2,0
					c0,6,0,12.1,0,18.1c0,0.7,0.1,1.5,0.2,2.2c0.9,3.9,3.8,6.3,7.1,6.4c7.8,0.2,15.7,0,23.6,0c0.1,0,0.1,0,0.2,0
					c0.3,0.5,0.7,0.6,1.2,0.6c4.9,0,9.9,0,14.8,0c0.5,0,1-0.1,1.1-0.8c0.4,0.2,0.8,0.2,1.2,0.2c7.1,0,14.2,0,21.3,0
					c0.9,0,1.9-0.1,2.8-0.4c3.6-1,5.8-4.1,5.8-8.1c0-35.2,0-70.5,0-105.7c0.6-0.2,0.7-0.7,0.7-1.2c0-3.8,0-7.5,0-11.2
					c0-0.4,0-0.9-0.5-1.1c-0.1-0.1-0.1-0.1-0.1-0.2c0-7.8,0-15.6,0-23.4c0-0.7,0-1.4-0.1-2.1c-0.8-3.9-3.9-6.4-8.2-6.4
					c-14.4,0-28.7,0-43.1,0c-3.6,0-7.1,0-10.6,0C65.4,109.3,65.3,108.9,65.1,108.5z"/>
				<path class="st1" d="M46.9,229.2c0-0.4,0-0.7,0-1.1c0-36.7,0-73.3,0-110c0-4.8,3-8.5,7.6-9.5c0.7-0.1,1.3-0.1,1.9-0.1
					c-0.3,0.4-0.3,0.8-0.2,1.3c-4.2-0.1-8,3.4-8,8.3c0,37,0,73.9,0,110.9c-0.4-0.1-0.8,0-1.1,0.2C47,229.2,47,229.2,46.9,229.2z"/>
				<path class="st2" d="M47.1,229.2c0.3-0.2,0.7-0.3,1.1-0.2c0.3,0.3,0.4,0.7,0.4,1.2c0,3.8,0,7.5,0,11.3c0,0.4,0,0.8-0.4,1
					c-0.1,0-0.2,0.1-0.2,0.1c-0.3,0.1-0.6,0-0.8-0.2c-0.1-0.1-0.1-0.2-0.2-0.3c0-4.2,0-8.5,0-12.7C47,229.4,47,229.3,47.1,229.2z"/>
				<path class="st2" d="M56.2,109.8c0-0.4-0.1-0.9,0.2-1.3c0.1,0,0.2,0,0.2-0.1c0.1,0,0.1,0,0.2-0.1c1.1,0,2.2,0,3.2,0l0.1,0.1h0.1
					c0.1,0,0.2,0.1,0.3,0.1c0.2,0.4-0.2,0.9,0.2,1.2C59.2,110.3,57.7,110.4,56.2,109.8z"/>
				<path class="st3" d="M60.8,109.8c-0.3-0.4,0-0.9-0.2-1.2c1.5-0.3,3-0.3,4.5-0.1c0.2,0.4,0.3,0.8,0.2,1.2
					C63.8,110.3,62.3,110.2,60.8,109.8z"/>
				<path class="st4" d="M56.9,108.4c-0.1,0-0.1,0-0.2,0.1C56.7,108.4,56.8,108.4,56.9,108.4z"/>
				<path class="st4" d="M60.3,108.4L60.3,108.4l-0.2-0.1C60.2,108.3,60.2,108.3,60.3,108.4z"/>
				<path class="st5" d="M47.1,229.2c-0.1,0.1-0.1,0.2-0.2,0.2c0-0.1,0-0.2,0-0.3C47,229.2,47,229.2,47.1,229.2z"/>
				<path class="st5" d="M46.9,242.2c0.1,0.1,0.1,0.2,0.2,0.3c-0.1,0-0.1,0-0.2,0C46.9,242.4,46.9,242.3,46.9,242.2z"/>
				<path class="st6" d="M60.8,109.8c1.5,0.4,3,0.5,4.5-0.1c3.6,0,7.1,0,10.6,0c14.4,0,28.7,0,43.1,0c4.2,0,7.3,2.4,8.2,6.4
					c0.1,0.7,0.1,1.4,0.1,2.1c0,7.8,0,15.6,0,23.4c0,0.1-0.1,0.1-0.1,0.2c-0.9-0.1-1,0.5-1,1.2c0,3.7,0,7.4,0,11.1
					c0,0.7,0.3,1.2,1.1,1.2c0,35.2,0,70.5,0,105.7c0,4-2.2,7.1-5.8,8.1c-0.9,0.2-1.9,0.4-2.8,0.4c-7.1,0-14.2,0-21.3,0
					c-0.4,0-0.8,0.1-1.2-0.2c-0.1-0.7-0.5-0.9-1.1-0.9c-4.9,0-9.8,0-14.8,0c-0.6,0-1.1,0.2-1.2,0.9c-0.1,0-0.1,0.1-0.2,0.2
					c-7.8,0-15.7,0.2-23.6,0c-3.2-0.1-6.2-2.4-7.1-6.4c-0.2-0.7-0.2-1.4-0.2-2.2c0-6,0-12.1,0-18.1c0-0.1,0-0.1,0-0.2
					c0.4-0.2,0.4-0.6,0.4-1c0-3.8,0-7.5,0-11.3c0-0.5-0.1-0.8-0.4-1.2c0-37,0-73.9,0-110.9c0-4.9,3.8-8.4,8-8.3
					C57.7,110.4,59.2,110.3,60.8,109.8z M113.6,253.5c0,0.1,0,0.3,0,0.3c0.2,0.1,0.3-0.1,0.3-0.3c0.5-0.7,0.7-1.5,0.7-2.4
					c0-8.2,0-16.5,0-24.7c0-1-0.4-1.9-0.9-2.7c-1.1-1.5-2.7-1.7-4.4-1.7c-14.3,0-28.5,0-42.8,0c-0.5,0-1.1,0.1-1.6,0.1
					c-2.2,0.3-3.7,2.1-3.7,4.3c0,8.3,0,16.5,0,24.8c0,1,0.2,1.8,1.1,2.7c0-0.6,0-1,0-1.4c0-8.1,0.1-16.3,0-24.5c0-2.7,1.6-5,4.9-5
					c13.8,0,27.5,0,41.3,0c0.9,0,1.8,0,2.6,0.4c1.6,0.8,2.5,2.1,2.5,4C113.6,236.2,113.6,244.9,113.6,253.5z M67.1,163.4
					c0,13.3,0,26.7,0,40c0,1,0.3,1.2,1.2,1.2c12.9,0,25.8,0,38.7,0c0.9,0,1.2-0.2,1.2-1.2c0-26.6,0-53.3,0-79.9c0-1-0.2-1.2-1.2-1.2
					c-12.9,0-25.8,0-38.7,0c-0.9,0-1.3,0.2-1.3,1.2C67.1,136.9,67.1,150.1,67.1,163.4z M84,241.6c0.1,0,0.2,0,0.2,0.1
					c0,0.4,0,0.7,0,1c0,3.3,0,6.5,0,9.8c0,0.9,0.3,1.1,1.1,1.1c0.9-0.1,1.9,0,2.8,0c0.6,0,0.9-0.2,0.9-0.8c0-5.7,0-11.4,0-17.1
					c0-0.7-0.3-0.9-0.9-0.8c-1.2,0-2.3,0.1-3.5,0c-0.8,0-1.3,0.2-1.7,1c-1,2.4-2.1,4.8-3.2,7.1c-0.1,0.3-0.1,0.8-0.5,0.8
					c-0.4,0-0.4-0.5-0.6-0.8c-1.1-2.4-2.2-4.8-3.2-7.2c-0.2-0.5-0.4-0.9-1.1-0.9c-1.4,0-2.8,0-4.1,0c-0.5,0-0.8,0.2-0.8,0.8
					c0,5.7,0,11.5,0,17.2c0,0.6,0.2,0.8,0.8,0.8c0.9,0,1.9,0,2.8,0c0.8,0,1-0.3,1-1c0-3.3,0-6.6,0-9.9c0-0.3,0-0.7,0-1
					c1.1,2.1,2,4.2,2.9,6.4c0.2,0.5,0.3,1,1,1.2c2.2,0.4,2.9,0,3.7-2c0,0,0-0.1,0-0.1C82.4,245.3,83.2,243.4,84,241.6z M100.7,234.9
					c-1.8,0-3.6,0-5.4,0c-0.9,0-1.3,0.2-1.2,1.2c0.1,2.8,0.1,5.5,0,8.3c0,1,0.2,1.3,1.2,1c1.8-0.5,3.7-0.6,5.6-0.2
					c1.2,0.3,2,1.1,2.1,2.2c0.1,1.1-0.5,2.1-1.7,2.5c-1,0.4-2.1,0.6-3.2,0.4c-1.3-0.2-2.6-0.6-3.8-1.3c-0.8-0.4-1.1-0.2-1.1,0.7
					c0,0.8,0,1.5,0,2.3c0,0.6,0.2,0.9,0.8,1.1c1.4,0.5,2.8,0.7,4.2,0.8c2.6,0.2,5.1,0,7.2-1.7c2.1-1.6,2.6-3.8,2.3-6.2
					c-0.3-2.2-1.8-3.5-3.9-4.1c-1.4-0.4-2.8-0.6-4.3-0.5c-0.7,0-1-0.2-1-0.9c0-0.2,0-0.5,0-0.8c-0.1-0.9,0.2-1.2,1.1-1.2
					c1.6,0.1,3.3,0,4.9,0c2.8,0,2.8,0,2.7-2.8c0-0.7-0.3-0.9-1-0.9C104.5,234.9,102.6,234.9,100.7,234.9z"/>
				<path class="st3" d="M79.2,269.2c0.1-0.6,0.6-0.9,1.2-0.9c4.9,0,9.8,0,14.8,0c0.6,0,1.1,0.2,1.1,0.9c0,0.7-0.5,0.8-1.1,0.8
					c-4.9,0-9.9,0-14.8,0c-0.5,0-0.9-0.2-1.2-0.6C79.2,269.4,79.2,269.3,79.2,269.2z"/>
				<path class="st3" d="M127.3,155.3c-0.8,0-1.1-0.5-1.1-1.2c0-3.7,0-7.4,0-11.1c0-0.7,0.1-1.3,1-1.2c0.1,0,0.1,0,0.2,0
					c0.5,0.2,0.5,0.7,0.5,1.1c0,3.8,0,7.5,0,11.2C128,154.6,127.9,155.1,127.3,155.3z"/>
				<path class="st7" d="M127.5,141.7c-0.1,0-0.1,0-0.2,0c0-0.1,0-0.1,0.1-0.2C127.4,141.6,127.5,141.6,127.5,141.7z"/>
				<path class="st8" d="M48.2,242.5c0,0.1,0,0.1,0,0.2c-0.1,0-0.2,0-0.2,0C48,242.6,48.1,242.5,48.2,242.5z"/>
				<path class="st8" d="M79.2,269.2c0,0.1,0,0.1,0,0.2c-0.1,0-0.1,0-0.2,0C79.1,269.3,79.2,269.3,79.2,269.2z"/>
				<path class="st9" d="M67.1,163.4c0-13.3,0-26.5,0-39.8c0-1,0.3-1.2,1.3-1.2c12.9,0,25.8,0,38.7,0c0.9,0,1.2,0.2,1.2,1.2
					c0,26.6,0,53.3,0,79.9c0,1-0.3,1.2-1.2,1.2c-12.9,0-25.8,0-38.7,0c-1,0-1.2-0.2-1.2-1.2C67.1,190.1,67.1,176.7,67.1,163.4z"/>
				<path class="st10" d="M84,241.6c-0.8,1.8-1.6,3.7-2.4,5.5c0,0,0,0.1,0,0.1c-0.8,2-1.6,2.4-3.7,2c-0.7-0.1-0.8-0.7-1-1.2
					c-0.9-2.1-1.8-4.2-2.9-6.4c0,0.3,0,0.7,0,1c0,3.3,0,6.6,0,9.9c0,0.7-0.2,1.1-1,1c-0.9,0-1.9,0-2.8,0c-0.6,0-0.8-0.2-0.8-0.8
					c0-5.7,0-11.5,0-17.2c0-0.6,0.2-0.8,0.8-0.8c1.4,0,2.8,0,4.1,0c0.7,0,0.9,0.4,1.1,0.9c1.1,2.4,2.1,4.8,3.2,7.2
					c0.1,0.3,0.2,0.8,0.6,0.8c0.4,0,0.4-0.5,0.5-0.8c1.1-2.4,2.2-4.7,3.2-7.1c0.3-0.8,0.8-1.1,1.7-1c1.2,0.1,2.3,0,3.5,0
					c0.6,0,0.9,0.1,0.9,0.8c0,5.7,0,11.4,0,17.1c0,0.6-0.3,0.8-0.9,0.8c-0.9,0-1.9,0-2.8,0c-0.8,0-1.1-0.2-1.1-1.1
					c0.1-3.3,0-6.5,0-9.8c0-0.4,0-0.7,0-1C84.2,241.6,84.1,241.6,84,241.6z"/>
				<path class="st10" d="M100.7,234.9c1.9,0,3.8,0,5.6,0c0.7,0,0.9,0.2,1,0.9c0.1,2.8,0.1,2.8-2.7,2.8c-1.6,0-3.3,0-4.9,0
					c-0.9,0-1.2,0.3-1.1,1.2c0,0.2,0,0.5,0,0.8c-0.1,0.7,0.3,0.9,1,0.9c1.4,0,2.9,0.1,4.3,0.5c2.1,0.6,3.5,1.9,3.9,4.1
					c0.4,2.4-0.2,4.6-2.3,6.2c-2.1,1.7-4.7,1.9-7.2,1.7c-1.4-0.1-2.9-0.3-4.2-0.8c-0.6-0.2-0.8-0.5-0.8-1.1c0.1-0.8,0-1.5,0-2.3
					c0-0.9,0.3-1.2,1.1-0.7c1.2,0.7,2.5,1,3.8,1.3c1.1,0.2,2.2,0,3.2-0.4c1.1-0.5,1.8-1.5,1.7-2.5c-0.1-1-0.9-1.9-2.1-2.2
					c-1.9-0.5-3.7-0.4-5.6,0.2c-1,0.3-1.2,0-1.2-1c0.1-2.8,0.1-5.5,0-8.3c0-1,0.3-1.2,1.2-1.2C97.1,234.9,98.9,234.9,100.7,234.9z"
					/>
				<path class="st11" d="M113.6,253.5c0-8.7,0-17.3,0-26c0-1.9-0.9-3.2-2.5-4c-0.8-0.4-1.8-0.4-2.6-0.4c-13.8,0-27.5,0-41.3,0
					c-3.4,0-5,2.3-4.9,5c0.1,8.1,0,16.3,0,24.5c0,0.4,0,0.8,0,1.4c-0.8-0.9-1.1-1.8-1.1-2.7c0-8.3,0-16.5,0-24.8
					c0-2.2,1.6-3.9,3.7-4.3c0.5-0.1,1.1-0.1,1.6-0.1c14.3,0,28.5,0,42.8,0c1.7,0,3.3,0.3,4.4,1.7c0.6,0.8,0.9,1.7,0.9,2.7
					c0,8.2,0,16.5,0,24.7c0,0.9-0.2,1.6-0.7,2.4C113.9,253.5,113.8,253.5,113.6,253.5z"/>
				<path class="st4" d="M113.6,253.5c0.1,0,0.2,0,0.4,0c-0.1,0.2-0.1,0.3-0.3,0.3C113.6,253.8,113.7,253.6,113.6,253.5z"/>
			</g>
			<rect x="66.6" y="122.7" class="st12" width="41.9" height="82"/>
		</g>
		<g>
			<g>
				<path class="st0" d="M327.6,103.4c-37.1,0-74.2,0-111.3,0c-1.1,0-1.3,0.2-1.3,1.3c0,58.4,0,116.9,0,175.3
					c-0.1,0-0.2,0.1-0.2-0.1c0-0.3,0-0.6,0-0.9c0-58.3,0-116.6,0-174.9c0-0.8,0.2-1,1-1c37,0,73.9,0,110.9,0
					C327,103.2,327.4,102.9,327.6,103.4z"/>
				<path class="st1" d="M296.1,271.1c-0.3,0-0.6,0-1,0c-17.7,0-35.4,0-53.1,0c-4.4,0-8.4-3.1-9.3-7.5c-0.1-0.6-0.1-1.1-0.1-1.7
					c0-47.9,0-95.9,0-143.9c0-4.7,4-8.9,8.2-9.1c1.1-0.1,2.2-0.1,3.2-0.1c20,0,40.1,0,60.1,0c3.4,0,6.3,1,8.4,3.9
					c1.1,1.6,1.8,3.4,1.8,5.3c0,6.3,0,12.7,0,19c-0.1,0-0.1,0-0.2,0c-0.2-0.2-0.5-0.3-0.8-0.2c-0.1,0-0.1,0-0.2,0
					c0-6.1,0-12.1,0-18.1c0-0.7,0-1.4-0.2-2.2c-0.9-3.9-3.8-6.3-7.1-6.4c-7.9-0.2-15.7-0.1-23.6,0c-0.1,0-0.1,0-0.2,0
					c-0.3-0.4-0.7-0.6-1.2-0.6c-4.9,0-9.9,0-14.8,0c-0.5,0-1,0.1-1,0.8c-0.4-0.2-0.8-0.2-1.2-0.2c-7.1,0-14.2,0-21.3,0
					c-0.9,0-1.9,0.1-2.8,0.4c-3.6,1-5.8,4.1-5.8,8.1c0,35.2,0,70.5,0,105.7c-0.6,0.2-0.7,0.7-0.7,1.2c0,3.8,0,7.5,0,11.2
					c0,0.4,0,0.9,0.5,1.1c0,0.1,0.1,0.1,0.1,0.2c0,7.8,0,15.6,0,23.4c0,0.7,0,1.4,0.1,2c0.8,3.9,4,6.4,8.2,6.4c14.4,0,28.7,0,43.1,0
					c3.5,0,7.1,0,10.6,0C295.8,270.3,295.9,270.7,296.1,271.1z"/>
				<path class="st1" d="M314.3,150.4c0,0.4,0,0.7,0,1.1c0,36.7,0,73.3,0,110c0,4.8-3,8.5-7.6,9.5c-0.6,0.1-1.3,0.1-1.9,0.1
					c0.3-0.4,0.3-0.8,0.2-1.3c4.2,0.1,8-3.4,8-8.3c0-37,0-73.9,0-110.9c0.4,0.1,0.8,0,1.1-0.2C314.2,150.4,314.3,150.4,314.3,150.4z
					"/>
				<path class="st2" d="M314.1,150.4c-0.4,0.2-0.7,0.3-1.1,0.2c-0.3-0.3-0.4-0.7-0.4-1.2c0-3.8,0-7.5,0-11.3c0-0.4,0-0.8,0.4-1
					c0.1-0.1,0.2-0.1,0.2-0.1c0.3-0.1,0.6,0,0.8,0.2c0.1,0.1,0.1,0.2,0.2,0.3c0,4.2,0,8.5,0,12.7
					C314.3,150.2,314.2,150.3,314.1,150.4z"/>
				<path class="st2" d="M305,269.8c0,0.4,0.1,0.9-0.2,1.3c-0.1,0-0.2,0-0.2,0.1c-0.1,0-0.1,0-0.2,0.1c-1.1,0-2.2,0-3.2,0l-0.1,0
					h-0.1c-0.1,0-0.2-0.1-0.3-0.1c-0.2-0.4,0.2-0.9-0.2-1.2C302,269.2,303.5,269.1,305,269.8z"/>
				<path class="st3" d="M300.5,269.8c0.4,0.4,0,0.9,0.2,1.2c-1.5,0.3-3,0.3-4.5,0c-0.2-0.4-0.3-0.8-0.2-1.2
					C297.4,269.3,298.9,269.4,300.5,269.8z"/>
				<path class="st4" d="M304.3,271.2c0.1,0,0.1,0,0.2-0.1C304.5,271.2,304.4,271.2,304.3,271.2z"/>
				<path class="st4" d="M300.9,271.2L300.9,271.2l0.2,0C301,271.2,301,271.2,300.9,271.2z"/>
				<path class="st5" d="M314.1,150.4c0.1-0.1,0.1-0.2,0.2-0.2c0,0.1,0,0.2,0,0.3C314.3,150.4,314.2,150.4,314.1,150.4z"/>
				<path class="st5" d="M314.3,137.4c-0.1-0.1-0.1-0.2-0.2-0.3c0.1,0,0.1,0,0.2,0C314.3,137.2,314.3,137.3,314.3,137.4z"/>
				<path class="st6" d="M300.5,269.8c-1.5-0.4-3-0.5-4.5,0.1c-3.5,0-7.1,0-10.6,0c-14.4,0-28.7,0-43.1,0c-4.2,0-7.3-2.4-8.2-6.4
					c-0.1-0.7-0.1-1.4-0.1-2c0-7.8,0-15.6,0-23.4c0-0.1,0.1-0.1,0.1-0.2c0.9,0.1,1-0.5,1-1.2c0-3.7,0-7.4,0-11.1
					c0-0.7-0.3-1.2-1-1.2c0-35.2,0-70.5,0-105.7c0-4,2.2-7.1,5.8-8.1c0.9-0.2,1.9-0.4,2.8-0.4c7.1,0,14.2,0,21.3,0
					c0.4,0,0.8-0.1,1.2,0.2c0,0.7,0.5,0.9,1.1,0.9c4.9,0,9.9,0,14.8,0c0.6,0,1-0.2,1.2-0.9c0.1-0.1,0.1-0.1,0.2-0.2
					c7.9,0,15.7-0.2,23.6,0c3.2,0.1,6.2,2.4,7.1,6.4c0.2,0.7,0.2,1.4,0.2,2.2c0,6.1,0,12.1,0,18.1c0,0.1,0,0.1,0,0.2
					c-0.4,0.2-0.4,0.6-0.4,1c0,3.8,0,7.5,0,11.3c0,0.5,0.1,0.8,0.4,1.2c0,37,0,73.9,0,110.9c0,4.9-3.8,8.4-8,8.3
					C303.5,269.1,302,269.2,300.5,269.8z M247.6,126.1c0-0.1,0-0.3,0-0.3c-0.2-0.1-0.3,0.1-0.3,0.3c-0.5,0.7-0.7,1.5-0.7,2.4
					c0,8.2,0,16.4,0,24.7c0,1,0.4,1.9,1,2.7c1.1,1.5,2.7,1.7,4.4,1.7c14.3,0,28.5,0,42.8,0c0.5,0,1.1-0.1,1.6-0.1
					c2.2-0.3,3.7-2.1,3.7-4.3c0-8.3,0-16.5,0-24.8c0-0.9-0.2-1.8-1.1-2.7c0,0.6,0,1,0,1.4c0,8.1-0.1,16.3,0,24.5c0,2.7-1.6,5-5,5
					c-13.8,0-27.5,0-41.3,0c-0.9,0-1.8,0-2.6-0.4c-1.6-0.8-2.5-2.1-2.5-4C247.6,143.4,247.6,134.7,247.6,126.1z M294.1,216.2
					c0-13.3,0-26.7,0-40c0-1-0.3-1.2-1.2-1.2c-12.9,0-25.8,0-38.7,0c-0.9,0-1.2,0.2-1.2,1.2c0,26.6,0,53.3,0,79.9
					c0,1,0.2,1.2,1.2,1.2c12.9,0,25.8,0,38.7,0c1,0,1.3-0.2,1.3-1.2C294.1,242.7,294.1,229.5,294.1,216.2z M277.2,138
					c-0.1,0-0.1,0-0.2-0.1c0-0.4,0-0.7,0-1c0-3.3,0-6.5,0-9.8c0-0.9-0.3-1.1-1.1-1.1c-0.9,0.1-1.9,0-2.8,0c-0.6,0-0.9,0.2-0.9,0.8
					c0,5.7,0,11.4,0,17.1c0,0.7,0.3,0.9,0.9,0.8c1.2,0,2.3-0.1,3.5,0c0.9,0.1,1.3-0.2,1.7-1c1-2.4,2.1-4.8,3.2-7.1
					c0.1-0.3,0.1-0.8,0.5-0.8c0.4,0,0.4,0.5,0.6,0.8c1.1,2.4,2.1,4.8,3.2,7.2c0.2,0.5,0.4,0.9,1.1,0.9c1.4,0,2.8,0,4.1,0
					c0.5,0,0.8-0.2,0.8-0.8c0-5.7,0-11.5,0-17.2c0-0.6-0.2-0.8-0.8-0.8c-0.9,0-1.9,0.1-2.8,0c-0.8,0-1,0.3-1,1c0,3.3,0,6.6,0,9.9
					c0,0.3,0,0.7,0,1c-1.1-2.1-2-4.2-2.9-6.4c-0.2-0.5-0.3-1.1-1-1.2c-2.1-0.4-2.9,0-3.7,2c0,0,0,0.1,0,0.1
					C278.8,134.3,278,136.1,277.2,138z M260.5,144.7c1.8,0,3.6-0.1,5.4,0c0.9,0,1.3-0.2,1.2-1.2c-0.1-2.8-0.1-5.5,0-8.3
					c0-1-0.2-1.3-1.2-1c-1.8,0.5-3.7,0.6-5.6,0.2c-1.2-0.3-2-1.1-2.1-2.2c-0.1-1.1,0.5-2.1,1.7-2.5c1-0.4,2.1-0.6,3.2-0.4
					c1.3,0.2,2.6,0.6,3.8,1.3c0.8,0.4,1.1,0.2,1.1-0.7c0-0.8,0-1.5,0-2.3c0-0.6-0.2-0.9-0.8-1.1c-1.4-0.5-2.8-0.7-4.2-0.8
					c-2.6-0.2-5.1,0-7.2,1.7c-2,1.6-2.6,3.8-2.3,6.2c0.3,2.2,1.8,3.5,3.9,4.1c1.4,0.4,2.8,0.6,4.3,0.5c0.7,0,1,0.2,1,0.9
					c0,0.2,0,0.5,0,0.8c0.1,0.9-0.2,1.2-1.1,1.2c-1.6-0.1-3.3,0-4.9,0c-2.8,0-2.8,0-2.7,2.8c0,0.7,0.3,0.9,1,0.9
					C256.8,144.7,258.7,144.7,260.5,144.7z"/>
				<path class="st3" d="M282,110.4c-0.1,0.6-0.5,0.9-1.2,0.9c-4.9,0-9.9,0-14.8,0c-0.6,0-1.1-0.2-1.1-0.9c0-0.7,0.5-0.8,1-0.8
					c4.9,0,9.9,0,14.8,0c0.5,0,0.9,0.2,1.2,0.6C282,110.2,282,110.3,282,110.4z"/>
				<path class="st3" d="M233.9,224.3c0.8,0,1,0.5,1,1.2c0,3.7,0,7.4,0,11.1c0,0.7-0.1,1.3-1,1.2c-0.1,0-0.1,0-0.2,0
					c-0.5-0.2-0.5-0.7-0.5-1.1c0-3.8,0-7.5,0-11.2C233.2,225,233.3,224.5,233.9,224.3z"/>
				<path class="st7" d="M233.7,237.9c0.1,0,0.1,0,0.2,0c0,0.1,0,0.1-0.1,0.2C233.8,238,233.8,237.9,233.7,237.9z"/>
				<path class="st8" d="M313,137.1c0-0.1,0-0.1,0-0.2c0.1,0,0.1,0,0.2,0C313.2,137,313.1,137,313,137.1z"/>
				<path class="st8" d="M282,110.4c0-0.1,0-0.1,0-0.2c0.1,0,0.1,0,0.2,0C282.1,110.2,282.1,110.3,282,110.4z"/>
				<path class="st9" d="M294.1,216.2c0,13.3,0,26.5,0,39.8c0,1-0.3,1.2-1.3,1.2c-12.9,0-25.8,0-38.7,0c-1,0-1.2-0.2-1.2-1.2
					c0-26.6,0-53.3,0-79.9c0-1,0.3-1.2,1.2-1.2c12.9,0,25.8,0,38.7,0c1,0,1.2,0.2,1.2,1.2C294.1,189.5,294.1,202.9,294.1,216.2z"/>
				<path class="st10" d="M277.2,138c0.8-1.8,1.6-3.7,2.4-5.5c0,0,0-0.1,0-0.1c0.8-2,1.5-2.4,3.7-2c0.7,0.1,0.8,0.7,1,1.2
					c0.9,2.1,1.8,4.2,2.9,6.4c0-0.3,0-0.7,0-1c0-3.3,0-6.6,0-9.9c0-0.7,0.2-1.1,1-1c0.9,0.1,1.9,0,2.8,0c0.5,0,0.8,0.2,0.8,0.8
					c0,5.7,0,11.5,0,17.2c0,0.6-0.2,0.8-0.8,0.8c-1.4,0-2.8,0-4.1,0c-0.7,0-0.9-0.4-1.1-0.9c-1.1-2.4-2.1-4.8-3.2-7.2
					c-0.1-0.3-0.2-0.8-0.6-0.8c-0.4,0-0.4,0.5-0.5,0.8c-1.1,2.4-2.2,4.7-3.2,7.1c-0.3,0.8-0.8,1.1-1.7,1c-1.1-0.1-2.3,0-3.5,0
					c-0.6,0-0.9-0.1-0.9-0.8c0-5.7,0-11.4,0-17.1c0-0.6,0.3-0.8,0.9-0.8c0.9,0,1.9,0.1,2.8,0c0.8-0.1,1.1,0.2,1.1,1.1
					c0,3.3,0,6.5,0,9.8c0,0.4,0,0.7,0,1C277,138,277.1,138,277.2,138z"/>
				<path class="st10" d="M260.5,144.7c-1.9,0-3.8,0-5.7,0c-0.7,0-1-0.2-1-0.9c-0.1-2.8-0.1-2.8,2.7-2.8c1.6,0,3.3-0.1,4.9,0
					c0.9,0,1.2-0.3,1.1-1.2c0-0.2,0-0.5,0-0.8c0.1-0.7-0.3-0.9-1-0.9c-1.5,0-2.9-0.1-4.3-0.5c-2.1-0.6-3.5-1.9-3.9-4.1
					c-0.4-2.4,0.2-4.6,2.3-6.2c2.2-1.7,4.7-1.9,7.2-1.7c1.4,0.1,2.9,0.3,4.2,0.8c0.6,0.2,0.8,0.5,0.8,1.1c0,0.8,0,1.5,0,2.3
					c0,0.9-0.3,1.2-1.1,0.7c-1.2-0.7-2.5-1-3.8-1.3c-1.1-0.2-2.2,0-3.2,0.4c-1.1,0.5-1.8,1.5-1.7,2.5c0.1,1,0.9,1.9,2.1,2.2
					c1.9,0.4,3.7,0.4,5.6-0.2c1-0.3,1.2,0,1.2,1c-0.1,2.8-0.1,5.5,0,8.3c0,1-0.3,1.2-1.2,1.2C264.2,144.7,262.4,144.7,260.5,144.7z"
					/>
				<path class="st11" d="M247.6,126.1c0,8.7,0,17.3,0,26c0,1.9,0.9,3.2,2.5,4c0.8,0.4,1.8,0.4,2.6,0.4c13.8,0,27.5,0,41.3,0
					c3.4,0,5-2.3,5-5c-0.1-8.1,0-16.3,0-24.5c0-0.4,0-0.8,0-1.4c0.8,0.9,1.1,1.8,1.1,2.7c0,8.3,0,16.5,0,24.8c0,2.2-1.5,3.9-3.7,4.3
					c-0.5,0.1-1.1,0.1-1.6,0.1c-14.3,0-28.5,0-42.8,0c-1.7,0-3.3-0.3-4.4-1.7c-0.6-0.8-1-1.7-1-2.7c0-8.2,0-16.4,0-24.7
					c0-0.9,0.2-1.6,0.7-2.4C247.3,126,247.5,126,247.6,126.1z"/>
				<path class="st4" d="M247.6,126.1c-0.1,0-0.2,0-0.4,0c0-0.2,0.1-0.3,0.3-0.3C247.6,125.8,247.6,125.9,247.6,126.1z"/>
			</g>
			<rect x="252.8" y="174.9" class="st12" width="41.9" height="82"/>
		</g>
		<g>
			<g>
				<g>
					<path d="M27.8,62.2h0.6v4h2.2v0.5h-2.8V62.2z"/>
					<path d="M31.6,65.9c0-0.8,0.7-1.1,2.4-1.2c0-0.4-0.2-0.8-0.9-0.8c-0.4,0-0.9,0.2-1.2,0.4l-0.2-0.4c0.3-0.2,0.9-0.5,1.5-0.5
						c0.9,0,1.4,0.5,1.4,1.4v2.1h-0.5l0-0.4h0c-0.4,0.3-0.8,0.5-1.3,0.5C32.1,66.8,31.6,66.5,31.6,65.9z M34,65.9V65
						c-1.4,0.1-1.9,0.4-1.9,0.8c0,0.4,0.3,0.5,0.7,0.5C33.2,66.4,33.6,66.2,34,65.9z"/>
					<path d="M35.8,63.4h0.5l0,0.6h0c0.3-0.4,0.7-0.7,1.3-0.7c0.8,0,1.2,0.5,1.2,1.3v2.1h-0.6v-2c0-0.6-0.2-0.9-0.8-0.9
						c-0.4,0-0.7,0.2-1,0.6v2.3h-0.6L35.8,63.4L35.8,63.4z"/>
					<path d="M39.7,65.1c0-1.1,0.7-1.8,1.5-1.8c0.4,0,0.7,0.2,1,0.4h0l0-0.6v-1.3h0.6v4.9h-0.5l-0.1-0.4h0c-0.3,0.3-0.7,0.5-1.1,0.5
						C40.3,66.8,39.7,66.2,39.7,65.1z M42.2,65.9v-1.7c-0.3-0.3-0.6-0.4-0.9-0.4c-0.6,0-1,0.5-1,1.3c0,0.8,0.4,1.3,1,1.3
						C41.6,66.3,41.9,66.2,42.2,65.9z"/>
					<path d="M43.9,66.3l0.3-0.4c0.4,0.3,0.8,0.4,1.4,0.4c0.6,0,0.8-0.2,0.8-0.5c0-0.2-0.1-0.4-1-0.6c-0.9-0.2-1.3-0.5-1.3-1
						c0-0.5,0.5-0.9,1.4-0.9c0.5,0,1,0.2,1.3,0.4l-0.3,0.4c-0.3-0.2-0.7-0.3-1.1-0.3c-0.6,0-0.8,0.2-0.8,0.5c0,0.3,0.3,0.4,1,0.6
						c1.1,0.2,1.4,0.5,1.4,1c0,0.5-0.5,1-1.5,1C44.9,66.8,44.3,66.6,43.9,66.3z"/>
					<path d="M48.2,61.9h0.6v3.3h0l1.8-1.8h0.7l-2.5,2.4v0.9h-0.6V61.9z M49.5,65l0.3-0.4l1.6,2.1h-0.6L49.5,65z"/>
					<path d="M52.2,65.9c0-0.8,0.7-1.1,2.4-1.2c0-0.4-0.2-0.8-0.9-0.8c-0.4,0-0.9,0.2-1.2,0.4l-0.2-0.4c0.3-0.2,0.9-0.5,1.5-0.5
						c0.9,0,1.4,0.5,1.4,1.4v2.1h-0.5l-0.1-0.4h0c-0.4,0.3-0.8,0.5-1.3,0.5C52.7,66.8,52.2,66.5,52.2,65.9z M54.6,65.9V65
						c-1.4,0.1-1.9,0.4-1.9,0.8c0,0.4,0.3,0.5,0.7,0.5C53.9,66.4,54.2,66.2,54.6,65.9z"/>
					<path d="M56.9,66.4L56.9,66.4l-0.1,0.4h-0.4v-4.9H57v1.3l0,0.7h0c0.3-0.3,0.7-0.5,1.1-0.5c0.9,0,1.4,0.7,1.4,1.7
						c0,1.1-0.7,1.8-1.5,1.8C57.6,66.8,57.2,66.7,56.9,66.4z M58.9,65c0-0.7-0.3-1.2-0.9-1.2c-0.3,0-0.6,0.2-1,0.5V66
						c0.3,0.3,0.7,0.4,0.9,0.4C58.4,66.3,58.9,65.9,58.9,65z"/>
					<path d="M27.9,70.9V69h-0.7v-0.3h1v2.2c0,0.3,0.2,0.4,0.4,0.4c0.1,0,0.2,0,0.4-0.1l0.1,0.2c-0.2,0.1-0.3,0.1-0.5,0.1
						C28.1,71.6,27.9,71.4,27.9,70.9z"/>
					<path d="M29.6,70.6c0-0.7,0.5-1,1.1-1c0.3,0,0.5,0.1,0.7,0.3L31.3,70c-0.2-0.1-0.3-0.2-0.5-0.2c-0.5,0-0.8,0.3-0.8,0.8
						c0,0.4,0.3,0.7,0.8,0.7c0.2,0,0.4-0.1,0.6-0.2l0.2,0.2c-0.2,0.2-0.5,0.3-0.8,0.3C30.1,71.6,29.6,71.2,29.6,70.6z"/>
					<path d="M31.9,70.6c0-0.6,0.4-1,0.9-1c0.2,0,0.4,0.1,0.6,0.2h0l0-0.4v-0.8h0.3v2.8h-0.3l0-0.3h0c-0.2,0.2-0.4,0.3-0.6,0.3
						C32.3,71.6,31.9,71.2,31.9,70.6z M33.4,71v-1c-0.2-0.2-0.3-0.2-0.5-0.2c-0.3,0-0.6,0.3-0.6,0.7c0,0.5,0.2,0.7,0.6,0.7
						C33,71.3,33.2,71.2,33.4,71z"/>
					<path d="M35,71.3c0-0.2,0.1-0.3,0.3-0.3s0.3,0.1,0.3,0.3s-0.1,0.3-0.3,0.3C35.1,71.6,35,71.5,35,71.3z"/>
					<path d="M37,68.9h0.3v2.3h1.3v0.3H37V68.9z"/>
					<path d="M39.9,68.9h0.4l0.9,2.6h-0.4l-0.4-1.5c-0.1-0.3-0.2-0.6-0.3-0.9h0c-0.1,0.3-0.2,0.6-0.3,0.9l-0.5,1.5H39L39.9,68.9z
						 M39.5,70.5h1.2v0.3h-1.2V70.5z"/>
					<path d="M41.6,68.9H42l0.8,1.7l0.2,0.5h0c0-0.3,0-0.6,0-0.8v-1.4h0.3v2.6H43l-0.8-1.7l-0.2-0.5h0c0,0.3,0,0.6,0,0.8v1.4h-0.3
						V68.9z"/>
					<path d="M44.1,68.9h0.7c0.8,0,1.2,0.5,1.2,1.3c0,0.8-0.4,1.3-1.2,1.3h-0.7L44.1,68.9L44.1,68.9z M44.7,71.3
						c0.6,0,0.9-0.4,0.9-1.1c0-0.7-0.3-1-0.9-1h-0.3v2.1H44.7z"/>
					<path d="M46.4,71.2l0.2-0.2c0.2,0.2,0.5,0.3,0.8,0.3c0.4,0,0.6-0.2,0.6-0.4c0-0.3-0.2-0.4-0.5-0.5l-0.4-0.2
						c-0.3-0.1-0.6-0.3-0.6-0.7c0-0.4,0.4-0.7,0.9-0.7c0.3,0,0.6,0.1,0.8,0.3L48,69.4c-0.2-0.2-0.4-0.2-0.6-0.2
						c-0.3,0-0.5,0.1-0.5,0.4c0,0.2,0.2,0.3,0.5,0.4l0.4,0.2c0.3,0.1,0.6,0.3,0.6,0.7c0,0.4-0.3,0.8-0.9,0.8
						C46.9,71.6,46.6,71.4,46.4,71.2z"/>
					<path d="M48.8,70.2c0-0.8,0.5-1.4,1.2-1.4c0.3,0,0.6,0.2,0.7,0.3l-0.2,0.2c-0.1-0.1-0.3-0.2-0.5-0.2c-0.5,0-0.8,0.4-0.8,1.1
						c0,0.7,0.3,1.1,0.8,1.1c0.2,0,0.4-0.1,0.6-0.3l0.2,0.2c-0.2,0.2-0.5,0.4-0.8,0.4C49.3,71.6,48.8,71.1,48.8,70.2z"/>
					<path d="M51.9,68.9h0.4l0.9,2.6h-0.4l-0.4-1.5c-0.1-0.3-0.2-0.6-0.3-0.9h0c-0.1,0.3-0.2,0.6-0.3,0.9l-0.5,1.5H51L51.9,68.9z
						 M51.5,70.5h1.2v0.3h-1.2V70.5z"/>
					<path d="M53.7,68.9h0.8c0.6,0,1,0.2,1,0.8c0,0.6-0.4,0.8-1,0.8H54v1h-0.3L53.7,68.9L53.7,68.9z M54.5,70.2
						c0.5,0,0.7-0.2,0.7-0.5c0-0.4-0.2-0.5-0.7-0.5H54v1H54.5z"/>
					<path d="M56.2,68.9h1.6v0.3h-1.3V70h1.1v0.3h-1.1v0.9h1.3v0.3h-1.7V68.9z"/>
				</g>
			</g>
			<g>
				<g>
					<path d="M256.8,64.5c0-1.5,0.7-2.3,1.7-2.3c1,0,1.7,0.9,1.7,2.3c0,1.5-0.7,2.4-1.7,2.4C257.5,66.8,256.8,65.9,256.8,64.5z
						 M259.7,64.5c0-1.1-0.5-1.8-1.1-1.8s-1.1,0.7-1.1,1.8c0,1.2,0.5,1.8,1.1,1.8S259.7,65.6,259.7,64.5z"/>
					<path d="M261,63.4h0.5l0,0.4h0c0.2-0.3,0.4-0.5,0.8-0.5c0.3,0,0.5,0.2,0.6,0.6c0.2-0.4,0.4-0.6,0.8-0.6c0.5,0,0.7,0.4,0.7,1
						v2.4h-0.6v-2.3c0-0.4-0.1-0.6-0.4-0.6c-0.2,0-0.4,0.2-0.5,0.5v2.4h-0.5v-2.3c0-0.4-0.1-0.6-0.3-0.6c-0.2,0-0.4,0.2-0.5,0.5v2.4
						H261L261,63.4L261,63.4z"/>
					<path d="M265.1,63.4h0.6l0.8,1.9c0.1,0.3,0.2,0.7,0.4,1h0c0.1-0.3,0.2-0.7,0.4-1l0.8-1.9h0.5l-1.4,3.3h-0.6L265.1,63.4z"/>
					<path d="M269.3,65.1c0-1.1,0.8-1.7,1.7-1.7c1,0,1.5,0.6,1.5,1.6c0,0.1,0,0.2,0,0.3h-2.8v-0.4h2.5L272,65c0-0.8-0.4-1.2-1-1.2
						c-0.6,0-1.1,0.5-1.1,1.3c0,0.9,0.6,1.3,1.3,1.3c0.4,0,0.7-0.1,1-0.3l0.2,0.4c-0.3,0.2-0.8,0.4-1.3,0.4
						C270.1,66.8,269.3,66.2,269.3,65.1z"/>
					<path d="M273.6,63.4h0.5l0,0.6h0c0.4-0.4,0.7-0.7,1.3-0.7c0.8,0,1.1,0.5,1.1,1.3v2.1H276v-2c0-0.6-0.2-0.9-0.8-0.9
						c-0.4,0-0.7,0.2-1,0.6v2.3h-0.6V63.4z"/>
					<path d="M277.5,65.1c0-1.1,0.7-1.8,1.5-1.8c0.4,0,0.7,0.2,1,0.4h0l0-0.6v-1.3h0.6v4.9h-0.5l0-0.4h0c-0.3,0.3-0.7,0.5-1.1,0.5
						C278.1,66.8,277.5,66.2,277.5,65.1z M280,65.9v-1.7c-0.3-0.3-0.6-0.4-0.9-0.4c-0.6,0-1,0.5-1,1.3c0,0.8,0.4,1.3,1,1.3
						C279.4,66.3,279.7,66.2,280,65.9z"/>
					<path d="M282.6,65.4v-1.6h-1v-0.4l1,0l0.1-1.1h0.5v1.1h1.6v0.5h-1.6v1.6c0,0.6,0.2,0.9,0.8,0.9c0.3,0,0.6-0.1,0.8-0.2l0.1,0.4
						c-0.3,0.1-0.6,0.2-1,0.2C282.9,66.8,282.6,66.3,282.6,65.4z"/>
					<path d="M290.4,62.2h0.6v4h2.2v0.5h-2.8V62.2z"/>
					<path d="M294.1,65.9c0-0.8,0.7-1.1,2.4-1.2c0-0.4-0.2-0.8-0.9-0.8c-0.4,0-0.9,0.2-1.2,0.4l-0.2-0.4c0.3-0.2,0.9-0.5,1.5-0.5
						c0.9,0,1.4,0.5,1.4,1.4v2.1h-0.5l0-0.4h0c-0.4,0.3-0.8,0.5-1.3,0.5C294.6,66.8,294.1,66.5,294.1,65.9z M296.5,65.9V65
						c-1.4,0.1-1.9,0.4-1.9,0.8c0,0.4,0.3,0.5,0.7,0.5C295.8,66.4,296.2,66.2,296.5,65.9z"/>
					<path d="M298.3,63.4h0.5l0,0.6h0c0.4-0.4,0.7-0.7,1.3-0.7c0.8,0,1.1,0.5,1.1,1.3v2.1h-0.6v-2c0-0.6-0.2-0.9-0.8-0.9
						c-0.4,0-0.7,0.2-1,0.6v2.3h-0.6L298.3,63.4L298.3,63.4z"/>
					<path d="M302.2,65.1c0-1.1,0.7-1.8,1.5-1.8c0.4,0,0.7,0.2,1,0.4h0l0-0.6v-1.3h0.6v4.9h-0.5l0-0.4h0c-0.3,0.3-0.7,0.5-1.1,0.5
						C302.8,66.8,302.2,66.2,302.2,65.1z M304.7,65.9v-1.7c-0.3-0.3-0.6-0.4-0.9-0.4c-0.6,0-1,0.5-1,1.3c0,0.8,0.4,1.3,1,1.3
						C304.1,66.3,304.4,66.2,304.7,65.9z"/>
					<path d="M306.4,66.3l0.3-0.4c0.4,0.3,0.8,0.4,1.5,0.4c0.6,0,0.8-0.2,0.8-0.5c0-0.2-0.1-0.4-1-0.6c-0.9-0.2-1.3-0.5-1.3-1
						c0-0.5,0.5-0.9,1.4-0.9c0.5,0,1,0.2,1.4,0.4l-0.3,0.4c-0.3-0.2-0.7-0.3-1.1-0.3c-0.6,0-0.8,0.2-0.8,0.5c0,0.3,0.3,0.4,1,0.6
						c1.1,0.2,1.4,0.5,1.4,1c0,0.5-0.5,1-1.5,1C307.4,66.8,306.8,66.6,306.4,66.3z"/>
					<path d="M310.8,61.9h0.6v3.3h0l1.8-1.8h0.6l-2.5,2.4v0.9h-0.6V61.9z M312.1,65l0.3-0.4l1.6,2.1h-0.6L312.1,65z"/>
					<path d="M314.7,65.9c0-0.8,0.7-1.1,2.4-1.2c0-0.4-0.2-0.8-0.9-0.8c-0.4,0-0.9,0.2-1.2,0.4l-0.2-0.4c0.3-0.2,0.9-0.5,1.5-0.5
						c0.9,0,1.4,0.5,1.4,1.4v2.1h-0.5l0-0.4h0c-0.4,0.3-0.8,0.5-1.3,0.5C315.2,66.8,314.7,66.5,314.7,65.9z M317.2,65.9V65
						c-1.4,0.1-1.9,0.4-1.9,0.8c0,0.4,0.3,0.5,0.7,0.5C316.4,66.4,316.8,66.2,317.2,65.9z"/>
					<path d="M319.5,66.4L319.5,66.4l-0.1,0.4h-0.5v-4.9h0.6v1.3l0,0.7h0c0.3-0.3,0.7-0.5,1.1-0.5c0.9,0,1.4,0.7,1.4,1.7
						c0,1.1-0.7,1.8-1.5,1.8C320.2,66.8,319.8,66.7,319.5,66.4z M321.4,65c0-0.7-0.3-1.2-0.9-1.2c-0.3,0-0.6,0.2-1,0.5V66
						c0.3,0.3,0.7,0.4,0.9,0.4C321,66.3,321.4,65.9,321.4,65z"/>
					<path d="M257.4,70.9V69h-0.7v-0.3h1v2.2c0,0.3,0.1,0.4,0.4,0.4c0.1,0,0.2,0,0.4-0.1l0.1,0.2c-0.2,0.1-0.3,0.1-0.5,0.1
						C257.7,71.6,257.4,71.4,257.4,70.9z"/>
					<path d="M259.2,70.6c0-0.7,0.5-1,1.1-1c0.3,0,0.5,0.1,0.7,0.3l-0.2,0.2c-0.2-0.1-0.3-0.2-0.5-0.2c-0.5,0-0.8,0.3-0.8,0.8
						c0,0.4,0.3,0.7,0.8,0.7c0.2,0,0.4-0.1,0.6-0.2l0.1,0.2c-0.2,0.2-0.5,0.3-0.8,0.3C259.6,71.6,259.2,71.2,259.2,70.6z"/>
					<path d="M261.5,70.6c0-0.6,0.4-1,0.9-1c0.2,0,0.4,0.1,0.6,0.2h0l0-0.4v-0.8h0.3v2.8H263l0-0.3h0c-0.2,0.2-0.4,0.3-0.6,0.3
						C261.8,71.6,261.5,71.2,261.5,70.6z M263,71v-1c-0.2-0.2-0.3-0.2-0.5-0.2c-0.3,0-0.6,0.3-0.6,0.7c0,0.5,0.2,0.7,0.6,0.7
						C262.6,71.3,262.8,71.2,263,71z"/>
					<path d="M264.5,71.3c0-0.2,0.1-0.3,0.3-0.3s0.3,0.1,0.3,0.3s-0.1,0.3-0.3,0.3C264.7,71.6,264.5,71.5,264.5,71.3z"/>
					<path d="M266.6,68.9h0.3v2.3h1.3v0.3h-1.6L266.6,68.9L266.6,68.9z"/>
					<path d="M269.5,68.9h0.4l0.9,2.6h-0.4l-0.5-1.5c-0.1-0.3-0.2-0.6-0.3-0.9h0c-0.1,0.3-0.2,0.6-0.3,0.9l-0.5,1.5h-0.3L269.5,68.9
						z M269.1,70.5h1.2v0.3h-1.2V70.5z"/>
					<path d="M271.2,68.9h0.4l0.8,1.7l0.2,0.5h0c0-0.3,0-0.6,0-0.8v-1.4h0.3v2.6h-0.4l-0.8-1.7l-0.2-0.5h0c0,0.3,0,0.6,0,0.8v1.4
						h-0.3V68.9z"/>
					<path d="M273.6,68.9h0.6c0.8,0,1.2,0.5,1.2,1.3c0,0.8-0.4,1.3-1.2,1.3h-0.7L273.6,68.9L273.6,68.9z M274.2,71.3
						c0.6,0,0.9-0.4,0.9-1.1c0-0.7-0.3-1-0.9-1h-0.3v2.1H274.2z"/>
					<path d="M275.9,71.2l0.2-0.2c0.2,0.2,0.5,0.3,0.8,0.3c0.4,0,0.6-0.2,0.6-0.4c0-0.3-0.2-0.4-0.5-0.5l-0.4-0.2
						c-0.3-0.1-0.6-0.3-0.6-0.7c0-0.4,0.4-0.7,0.9-0.7c0.3,0,0.6,0.1,0.8,0.3l-0.2,0.2c-0.2-0.2-0.4-0.2-0.6-0.2
						c-0.3,0-0.5,0.1-0.5,0.4c0,0.2,0.2,0.3,0.5,0.4l0.4,0.2c0.3,0.1,0.6,0.3,0.6,0.7c0,0.4-0.4,0.8-0.9,0.8
						C276.5,71.6,276.2,71.4,275.9,71.2z"/>
					<path d="M278.3,70.2c0-0.8,0.5-1.4,1.2-1.4c0.3,0,0.6,0.2,0.7,0.3l-0.2,0.2c-0.1-0.1-0.3-0.2-0.5-0.2c-0.5,0-0.8,0.4-0.8,1.1
						c0,0.7,0.3,1.1,0.8,1.1c0.2,0,0.4-0.1,0.6-0.3l0.2,0.2c-0.2,0.2-0.5,0.4-0.8,0.4C278.8,71.6,278.3,71.1,278.3,70.2z"/>
					<path d="M281.5,68.9h0.4l0.9,2.6h-0.4l-0.5-1.5c-0.1-0.3-0.2-0.6-0.3-0.9h0c-0.1,0.3-0.2,0.6-0.3,0.9l-0.5,1.5h-0.3L281.5,68.9
						z M281.1,70.5h1.2v0.3h-1.2V70.5z"/>
					<path d="M283.3,68.9h0.8c0.6,0,1,0.2,1,0.8c0,0.6-0.4,0.8-1,0.8h-0.5v1h-0.3L283.3,68.9L283.3,68.9z M284,70.2
						c0.5,0,0.7-0.2,0.7-0.5c0-0.4-0.2-0.5-0.7-0.5h-0.4v1H284z"/>
					<path d="M285.7,68.9h1.6v0.3H286V70h1.1v0.3H286v0.9h1.3v0.3h-1.7V68.9z"/>
					<path d="M287.9,71.8h1.9v0.3h-1.9V71.8z"/>
					<path d="M290.6,68.9h1.6v0.3h-1.3v0.9h1.1v0.3h-1.1v1.2h-0.3L290.6,68.9L290.6,68.9z"/>
					<path d="M293,68.9h0.3v2.3h1.3v0.3H293L293,68.9L293,68.9z"/>
					<path d="M295.2,71.3h0.6v-2.1h-0.6v-0.3h1.6v0.3h-0.6v2.1h0.6v0.3h-1.6V71.3z"/>
					<path d="M297.7,68.9h0.8c0.6,0,1,0.2,1,0.8c0,0.6-0.4,0.8-1,0.8H298v1h-0.3L297.7,68.9L297.7,68.9z M298.4,70.2
						c0.5,0,0.7-0.2,0.7-0.5c0-0.4-0.2-0.5-0.7-0.5H298v1H298.4z"/>
				</g>
			</g>
			<g>
				<g>
					<path d="M69.6,126H71c1,0,1.7,0.3,1.7,1.3c0,0.9-0.7,1.4-1.7,1.4h-0.8v1.8h-0.6V126z M70.9,128.2c0.8,0,1.2-0.3,1.2-0.9
						c0-0.6-0.4-0.9-1.2-0.9h-0.7v1.8H70.9z"/>
					<path d="M73.5,128.8c0-1.1,0.8-1.8,1.7-1.8s1.7,0.6,1.7,1.8c0,1.1-0.8,1.7-1.7,1.7S73.5,129.9,73.5,128.8z M76.2,128.8
						c0-0.8-0.4-1.3-1.1-1.3s-1.1,0.5-1.1,1.3s0.4,1.3,1.1,1.3S76.2,129.6,76.2,128.8z"/>
					<path d="M78.2,127.1h0.5l0.1,0.8h0c0.3-0.5,0.9-0.9,1.5-0.9c0.2,0,0.4,0,0.7,0.1l-0.1,0.5c-0.2-0.1-0.4-0.1-0.6-0.1
						c-0.5,0-1,0.2-1.4,0.9v1.9h-0.6V127.1z"/>
					<path d="M82.7,129.2v-1.6h-0.9v-0.4l1,0l0.1-1.1h0.5v1.1h1.6v0.5h-1.6v1.6c0,0.6,0.2,0.9,0.8,0.9c0.3,0,0.6-0.1,0.8-0.1
						l0.1,0.4c-0.3,0.1-0.6,0.2-1,0.2C83,130.6,82.7,130,82.7,129.2z"/>
					<path d="M86.4,127.1h0.5l0.1,0.8h0c0.3-0.5,0.9-0.9,1.5-0.9c0.2,0,0.4,0,0.7,0.1l-0.1,0.5c-0.2-0.1-0.4-0.1-0.6-0.1
						c-0.5,0-1,0.2-1.4,0.9v1.9h-0.6V127.1z"/>
					<path d="M89.7,129.7c0-0.7,0.5-1.1,1.8-1.3v0.4c-1,0.1-1.3,0.4-1.3,0.8c0,0.3,0.2,0.5,0.5,0.5c0.3,0,0.6-0.2,0.9-0.6l0.2,0.3
						c-0.4,0.5-0.8,0.8-1.2,0.8C90,130.6,89.7,130.2,89.7,129.7z M91.4,128.8v-0.3c0-0.7-0.2-0.9-0.6-0.9c-0.3,0-0.6,0.1-0.8,0.3
						l-0.2-0.4c0.3-0.2,0.7-0.4,1-0.4c0.4,0,0.8,0.3,0.9,0.9h-0.1c0.2-0.6,0.6-0.9,1-0.9c0.7,0,1,0.7,1,1.5c0,0.1,0,0.3,0,0.4h-2
						v-0.4h1.6l-0.1,0.1c0-0.8-0.2-1.2-0.6-1.2c-0.4,0-0.8,0.4-0.8,1.3c0,0.8,0.3,1.3,0.9,1.3c0.2,0,0.5-0.1,0.7-0.2l0.2,0.4
						c-0.2,0.2-0.5,0.3-0.9,0.3C91.8,130.6,91.4,129.9,91.4,128.8z"/>
					<path d="M95.1,129.2v-1.6h-0.9v-0.4l1,0l0.1-1.1h0.5v1.1h1.6v0.5h-1.6v1.6c0,0.6,0.2,0.9,0.8,0.9c0.3,0,0.6-0.1,0.8-0.1
						l0.1,0.4c-0.3,0.1-0.6,0.2-1,0.2C95.4,130.6,95.1,130,95.1,129.2z"/>
					<path d="M69.9,134.6v-1.9h-0.7v-0.3h1v2.2c0,0.3,0.2,0.4,0.4,0.4c0.1,0,0.2,0,0.4-0.1l0.1,0.2c-0.2,0.1-0.3,0.1-0.5,0.1
						C70.1,135.3,69.9,135.1,69.9,134.6z"/>
					<path d="M71.6,134.3c0-0.6,0.5-1,1.1-1c0.3,0,0.6,0.1,0.7,0.3l-0.2,0.2c-0.2-0.1-0.3-0.2-0.5-0.2c-0.4,0-0.8,0.3-0.8,0.8
						c0,0.4,0.3,0.7,0.8,0.7c0.2,0,0.4-0.1,0.6-0.2l0.2,0.2c-0.2,0.2-0.5,0.3-0.8,0.3C72.1,135.3,71.6,135,71.6,134.3z"/>
					<path d="M74,134.3c0-0.6,0.4-1,0.9-1c0.2,0,0.4,0.1,0.6,0.2h0l0-0.4v-0.8h0.3v2.9h-0.3l0-0.3h0c-0.2,0.2-0.4,0.3-0.6,0.3
						C74.3,135.3,74,135,74,134.3z M75.4,134.8v-1c-0.2-0.2-0.3-0.2-0.5-0.2c-0.3,0-0.6,0.3-0.6,0.7c0,0.5,0.2,0.7,0.6,0.7
						C75.1,135.1,75.2,135,75.4,134.8z"/>
					<path d="M77,135c0-0.2,0.1-0.3,0.3-0.3s0.3,0.1,0.3,0.3s-0.1,0.3-0.3,0.3S77,135.2,77,135z"/>
					<path d="M78.9,132.7h0.8c0.6,0,1,0.2,1,0.8c0,0.6-0.4,0.8-1,0.8h-0.5v1h-0.3L78.9,132.7L78.9,132.7z M79.7,134
						c0.5,0,0.7-0.2,0.7-0.5c0-0.4-0.2-0.5-0.7-0.5h-0.4v1H79.7z"/>
					<path d="M81.1,134c0-0.9,0.4-1.4,1-1.4s1,0.5,1,1.4c0,0.9-0.4,1.4-1,1.4S81.1,134.8,81.1,134z M82.8,134c0-0.7-0.3-1.1-0.7-1.1
						s-0.7,0.4-0.7,1.1c0,0.7,0.3,1.1,0.7,1.1C82.5,135,82.8,134.6,82.8,134z"/>
					<path d="M83.7,132.7h0.8c0.5,0,0.9,0.2,0.9,0.7c0,0.5-0.4,0.8-0.9,0.8h-0.5v1.1h-0.3V132.7z M84.5,133.9c0.4,0,0.6-0.2,0.6-0.5
						c0-0.3-0.2-0.5-0.6-0.5h-0.4v1H84.5z M84.7,133.9l0.8,1.4h-0.4l-0.7-1.2L84.7,133.9z"/>
					<path d="M86.8,132.9h-0.9v-0.3H88v0.3h-0.9v2.3h-0.3L86.8,132.9L86.8,132.9z"/>
					<path d="M88.5,132.7h0.8c0.5,0,0.9,0.2,0.9,0.7c0,0.5-0.4,0.8-0.9,0.8h-0.5v1.1h-0.3V132.7z M89.3,133.9c0.4,0,0.6-0.2,0.6-0.5
						c0-0.3-0.2-0.5-0.6-0.5h-0.4v1H89.3z M89.5,133.9l0.8,1.4H90l-0.7-1.2L89.5,133.9z"/>
					<path d="M91.5,132.7h0.4l0.9,2.6h-0.4l-0.4-1.5c-0.1-0.3-0.2-0.6-0.3-0.9h0c-0.1,0.3-0.2,0.6-0.3,0.9l-0.5,1.5h-0.3L91.5,132.7
						z M91.1,134.2h1.2v0.3h-1.2V134.2z"/>
					<path d="M93.3,135H94v-2.1h-0.7v-0.3h1.6v0.3h-0.7v2.1h0.7v0.3h-1.6V135z"/>
					<path d="M96.4,132.9h-0.9v-0.3h2.1v0.3h-0.9v2.3h-0.3L96.4,132.9L96.4,132.9z"/>
				</g>
			</g>
			<g>
				<g>
					<path d="M255.7,182.7c0-1.5,0.7-2.3,1.7-2.3c1,0,1.7,0.9,1.7,2.3c0,1.5-0.7,2.4-1.7,2.4C256.4,185,255.7,184.1,255.7,182.7z
						 M258.6,182.7c0-1.1-0.5-1.8-1.1-1.8s-1.1,0.7-1.1,1.8c0,1.1,0.5,1.9,1.1,1.9S258.6,183.8,258.6,182.7z"/>
					<path d="M259.9,181.6h0.5l0,0.4h0c0.2-0.3,0.4-0.5,0.8-0.5c0.3,0,0.5,0.2,0.6,0.6c0.2-0.4,0.4-0.6,0.8-0.6c0.5,0,0.7,0.4,0.7,1
						v2.4h-0.6v-2.4c0-0.4-0.1-0.6-0.4-0.6c-0.2,0-0.4,0.2-0.5,0.5v2.4h-0.5v-2.4c0-0.4-0.1-0.6-0.3-0.6c-0.2,0-0.4,0.2-0.5,0.5v2.4
						h-0.6L259.9,181.6L259.9,181.6z"/>
					<path d="M264,181.6h0.6l0.8,1.9c0.1,0.3,0.2,0.7,0.4,1h0c0.1-0.3,0.2-0.6,0.4-1l0.8-1.9h0.5l-1.4,3.3h-0.6L264,181.6z"/>
					<path d="M268.2,183.2c0-1.1,0.8-1.7,1.7-1.7c1,0,1.5,0.6,1.5,1.6c0,0.1,0,0.2,0,0.3h-2.8V183h2.5l-0.1,0.2c0-0.8-0.4-1.2-1-1.2
						c-0.6,0-1.1,0.5-1.1,1.3c0,0.9,0.6,1.3,1.3,1.3c0.4,0,0.7-0.1,1-0.3l0.2,0.4c-0.3,0.2-0.8,0.4-1.3,0.4
						C269,185,268.2,184.4,268.2,183.2z"/>
					<path d="M272.5,181.6h0.5l0,0.6h0c0.4-0.4,0.7-0.6,1.3-0.6c0.8,0,1.1,0.5,1.1,1.4v2.1h-0.6v-2c0-0.6-0.2-0.9-0.8-0.9
						c-0.4,0-0.7,0.2-1,0.6v2.3h-0.6L272.5,181.6L272.5,181.6z"/>
					<path d="M276.4,183.3c0-1.1,0.7-1.8,1.5-1.8c0.4,0,0.7,0.2,1,0.4h0l0-0.6V180h0.6v4.9H279l0-0.4h0c-0.3,0.3-0.7,0.5-1.1,0.5
						C277,185,276.4,184.4,276.4,183.3z M278.9,184v-1.7c-0.3-0.3-0.6-0.4-0.9-0.4c-0.6,0-1,0.5-1,1.3c0,0.8,0.4,1.3,1,1.3
						C278.3,184.5,278.6,184.4,278.9,184z"/>
					<path d="M281.5,183.6V182h-1v-0.4l1,0l0.1-1.1h0.5v1.1h1.6v0.5h-1.6v1.6c0,0.6,0.2,0.9,0.8,0.9c0.3,0,0.6-0.1,0.8-0.1l0.1,0.4
						c-0.3,0.1-0.6,0.2-1,0.2C281.8,185,281.5,184.4,281.5,183.6z"/>
					<path d="M256.1,188.7h1.4c1,0,1.7,0.3,1.7,1.3c0,0.9-0.7,1.4-1.7,1.4h-0.8v1.8h-0.6V188.7z M257.4,190.9c0.8,0,1.2-0.3,1.2-0.9
						c0-0.6-0.4-0.9-1.2-0.9h-0.7v1.8H257.4z"/>
					<path d="M259.9,191.5c0-1.1,0.8-1.8,1.6-1.8s1.6,0.6,1.6,1.8c0,1.1-0.8,1.7-1.6,1.7S259.9,192.6,259.9,191.5z M262.6,191.5
						c0-0.8-0.4-1.3-1.1-1.3s-1.1,0.5-1.1,1.3s0.4,1.3,1.1,1.3S262.6,192.3,262.6,191.5z"/>
					<path d="M264.6,189.8h0.5l0.1,0.8h0c0.4-0.5,0.9-0.9,1.5-0.9c0.2,0,0.5,0,0.7,0.1l-0.1,0.5c-0.2-0.1-0.4-0.1-0.6-0.1
						c-0.5,0-1,0.2-1.4,0.9v1.9h-0.6V189.8z"/>
					<path d="M269.2,191.9v-1.6h-1v-0.4l1,0l0.1-1.1h0.5v1.1h1.6v0.5h-1.6v1.6c0,0.6,0.2,0.9,0.8,0.9c0.3,0,0.6-0.1,0.8-0.1l0.1,0.4
						c-0.3,0.1-0.6,0.2-1,0.2C269.5,193.3,269.2,192.7,269.2,191.9z"/>
					<path d="M272.9,189.8h0.5l0.1,0.8h0c0.4-0.5,0.9-0.9,1.5-0.9c0.2,0,0.5,0,0.7,0.1l-0.1,0.5c-0.2-0.1-0.4-0.1-0.6-0.1
						c-0.5,0-1,0.2-1.4,0.9v1.9h-0.6V189.8z"/>
					<path d="M276.1,192.3c0-0.7,0.5-1.1,1.8-1.3v0.4c-1,0.1-1.3,0.4-1.3,0.8c0,0.3,0.2,0.5,0.5,0.5c0.3,0,0.6-0.2,0.9-0.6l0.2,0.3
						c-0.4,0.5-0.8,0.8-1.2,0.8C276.5,193.3,276.1,192.9,276.1,192.3z M277.8,191.5v-0.3c0-0.7-0.2-0.9-0.6-0.9
						c-0.3,0-0.6,0.1-0.8,0.3l-0.2-0.4c0.3-0.2,0.6-0.4,1-0.4c0.5,0,0.8,0.3,0.9,0.9H278c0.2-0.6,0.6-0.9,1-0.9c0.7,0,1,0.7,1,1.5
						c0,0.1,0,0.3,0,0.4h-2v-0.4h1.6l-0.1,0.1c0-0.8-0.2-1.2-0.6-1.2c-0.4,0-0.8,0.4-0.8,1.3c0,0.8,0.3,1.3,0.9,1.3
						c0.2,0,0.5-0.1,0.6-0.2l0.2,0.4c-0.2,0.2-0.5,0.3-0.9,0.3C278.3,193.3,277.8,192.5,277.8,191.5z"/>
					<path d="M281.5,191.9v-1.6h-1v-0.4l1,0l0.1-1.1h0.5v1.1h1.6v0.5h-1.6v1.6c0,0.6,0.2,0.9,0.8,0.9c0.3,0,0.6-0.1,0.8-0.1l0.1,0.4
						c-0.3,0.1-0.6,0.2-1,0.2C281.8,193.3,281.5,192.7,281.5,191.9z"/>
					<path d="M256.3,197v-1.8h-0.6V195h0.9v2.1c0,0.3,0.1,0.4,0.4,0.4c0.1,0,0.2,0,0.3-0.1l0.1,0.2c-0.2,0.1-0.3,0.1-0.5,0.1
						C256.5,197.7,256.3,197.4,256.3,197z"/>
					<path d="M257.9,196.7c0-0.6,0.5-0.9,1-0.9c0.3,0,0.5,0.1,0.6,0.3l-0.1,0.2c-0.1-0.1-0.3-0.2-0.5-0.2c-0.4,0-0.7,0.3-0.7,0.7
						s0.3,0.7,0.7,0.7c0.2,0,0.4-0.1,0.5-0.2l0.1,0.2c-0.2,0.2-0.5,0.3-0.7,0.3C258.3,197.7,257.9,197.3,257.9,196.7z"/>
					<path d="M260,196.7c0-0.6,0.4-0.9,0.8-0.9c0.2,0,0.4,0.1,0.5,0.2h0l0-0.3V195h0.3v2.6h-0.2l0-0.2h0c-0.1,0.1-0.4,0.3-0.6,0.3
						C260.3,197.7,260,197.3,260,196.7z M261.4,197.1v-0.9c-0.2-0.1-0.3-0.2-0.5-0.2c-0.3,0-0.6,0.3-0.6,0.7c0,0.4,0.2,0.7,0.5,0.7
						C261.1,197.4,261.2,197.3,261.4,197.1z"/>
					<path d="M262.8,197.3c0-0.2,0.1-0.3,0.3-0.3c0.2,0,0.3,0.1,0.3,0.3c0,0.2-0.1,0.3-0.3,0.3C263,197.7,262.8,197.5,262.8,197.3z"
						/>
					<path d="M264.6,195.2h0.7c0.5,0,0.9,0.2,0.9,0.7c0,0.5-0.4,0.8-0.9,0.8h-0.4v1h-0.3V195.2z M265.3,196.4c0.4,0,0.6-0.1,0.6-0.5
						s-0.2-0.5-0.6-0.5h-0.4v1H265.3z"/>
					<path d="M266.6,196.4c0-0.8,0.4-1.2,0.9-1.2s0.9,0.5,0.9,1.2c0,0.8-0.4,1.3-0.9,1.3C267,197.7,266.6,197.2,266.6,196.4z
						 M268.2,196.4c0-0.6-0.2-1-0.6-1s-0.6,0.4-0.6,1c0,0.6,0.2,1,0.6,1C267.9,197.4,268.2,197,268.2,196.4z"/>
					<path d="M269.1,195.2h0.8c0.5,0,0.9,0.2,0.9,0.7c0,0.5-0.4,0.7-0.9,0.7h-0.4v1h-0.3L269.1,195.2L269.1,195.2z M269.8,196.3
						c0.4,0,0.6-0.2,0.6-0.5c0-0.3-0.2-0.4-0.6-0.4h-0.4v0.9H269.8z M270,196.3l0.7,1.3h-0.4l-0.6-1.1L270,196.3z"/>
					<path d="M271.9,195.4h-0.8v-0.3h1.9v0.3h-0.8v2.2h-0.3L271.9,195.4L271.9,195.4z"/>
					<path d="M273.5,195.2h0.8c0.5,0,0.9,0.2,0.9,0.7c0,0.5-0.4,0.7-0.9,0.7h-0.4v1h-0.3L273.5,195.2L273.5,195.2z M274.2,196.3
						c0.4,0,0.6-0.2,0.6-0.5c0-0.3-0.2-0.4-0.6-0.4h-0.4v0.9H274.2z M274.4,196.3l0.7,1.3h-0.4l-0.6-1.1L274.4,196.3z"/>
					<path d="M276.3,195.2h0.4l0.8,2.4h-0.3l-0.4-1.4c-0.1-0.3-0.2-0.5-0.2-0.8h0c-0.1,0.3-0.2,0.6-0.2,0.8l-0.4,1.4h-0.3
						L276.3,195.2z M275.9,196.6h1.1v0.2h-1.1V196.6z"/>
					<path d="M277.9,197.3h0.6v-1.9h-0.6v-0.3h1.5v0.3h-0.6v1.9h0.6v0.3h-1.5V197.3z"/>
					<path d="M280.7,195.4h-0.8v-0.3h1.9v0.3h-0.8v2.2h-0.3L280.7,195.4L280.7,195.4z"/>
					<path d="M282.2,197.9h1.8v0.3h-1.8V197.9z"/>
					<path d="M284.7,195.2h1.5v0.3H285v0.8h1v0.3h-1v1.1h-0.3V195.2z"/>
					<path d="M286.9,195.2h0.3v2.2h1.2v0.3H287L286.9,195.2L286.9,195.2z"/>
					<path d="M289,197.3h0.6v-1.9H289v-0.3h1.5v0.3h-0.6v1.9h0.6v0.3H289V197.3z"/>
					<path d="M291.3,195.2h0.7c0.5,0,0.9,0.2,0.9,0.7c0,0.5-0.4,0.8-0.9,0.8h-0.4v1h-0.3V195.2z M292,196.4c0.4,0,0.6-0.1,0.6-0.5
						s-0.2-0.5-0.6-0.5h-0.4v1H292z"/>
				</g>
			</g>
			<g>
				<g>
					<path d="M14.8,34.9c0-0.8,0.3-1.4,0.9-1.8l0.2,0.2c-0.5,0.5-0.8,1-0.8,1.6s0.2,1.2,0.8,1.6l-0.2,0.2
						C15.1,36.2,14.8,35.6,14.8,34.9z"/>
					<path d="M16.6,34.7c0-0.8,0.3-1.3,0.9-1.3s0.9,0.5,0.9,1.3c0,0.8-0.3,1.3-0.9,1.3C17,36,16.6,35.5,16.6,34.7z M18.2,34.7
						c0-0.7-0.2-1-0.6-1S17,34,17,34.7s0.2,1.1,0.6,1.1C17.9,35.8,18.2,35.4,18.2,34.7z M17.3,34.7c0-0.2,0.1-0.3,0.2-0.3
						c0.1,0,0.2,0.1,0.2,0.3c0,0.2-0.1,0.3-0.2,0.3S17.3,34.8,17.3,34.7z"/>
					<path d="M19.5,36.6c0.3-0.2,0.5-0.4,0.5-0.7L20,35.5l0.2,0.3c-0.1,0.1-0.1,0.1-0.2,0.1c-0.2,0-0.3-0.1-0.3-0.3
						c0-0.2,0.2-0.3,0.3-0.3c0.2,0,0.4,0.2,0.4,0.5c0,0.5-0.3,0.8-0.7,0.9L19.5,36.6z"/>
					<path d="M21.4,34.7c0-0.8,0.3-1.3,0.9-1.3s0.9,0.5,0.9,1.3c0,0.8-0.3,1.3-0.9,1.3S21.4,35.5,21.4,34.7z M22.9,34.7
						c0-0.7-0.2-1-0.6-1s-0.6,0.3-0.6,1s0.2,1.1,0.6,1.1C22.7,35.8,22.9,35.4,22.9,34.7z M22.1,34.7c0-0.2,0.1-0.3,0.2-0.3
						c0.1,0,0.2,0.1,0.2,0.3c0,0.2-0.1,0.3-0.2,0.3S22.1,34.8,22.1,34.7z"/>
					<path d="M24,36.5c0.5-0.4,0.8-1,0.8-1.6s-0.2-1.2-0.8-1.6l0.2-0.2c0.5,0.4,0.9,1,0.9,1.8s-0.3,1.4-0.9,1.8L24,36.5z"/>
				</g>
			</g>
			<g>
				<g>
					<path d="M103.2,84.4c0-0.8,0.3-1.4,0.9-1.8l0.2,0.2c-0.5,0.4-0.8,1-0.8,1.6s0.2,1.2,0.8,1.6l-0.2,0.2
						C103.5,85.8,103.2,85.1,103.2,84.4z"/>
					<path d="M105.1,85.2h0.7v-1.9h-0.6v-0.2c0.3,0,0.5-0.1,0.6-0.2h0.2v2.3h0.7v0.3h-1.7L105.1,85.2L105.1,85.2z"/>
					<path d="M107.4,84.3c0-1,0.5-1.4,1.1-1.4c0.3,0,0.5,0.1,0.7,0.3l-0.2,0.2c-0.1-0.1-0.3-0.2-0.5-0.2c-0.4,0-0.8,0.3-0.8,1.1
						c0,0.6,0.2,1,0.7,1c0.3,0,0.5-0.2,0.5-0.6c0-0.3-0.2-0.5-0.5-0.5c-0.2,0-0.4,0.1-0.7,0.4l0-0.3c0.2-0.2,0.5-0.3,0.7-0.3
						c0.5,0,0.8,0.3,0.8,0.8c0,0.5-0.4,0.8-0.9,0.8C107.8,85.5,107.4,85.1,107.4,84.3z"/>
					<path d="M109.8,84.2c0-0.8,0.4-1.3,0.9-1.3s0.9,0.5,0.9,1.3c0,0.8-0.4,1.3-0.9,1.3C110.1,85.5,109.8,85,109.8,84.2z
						 M111.3,84.2c0-0.7-0.2-1-0.6-1s-0.6,0.3-0.6,1s0.2,1.1,0.6,1.1S111.3,84.9,111.3,84.2z M110.4,84.2c0-0.2,0.1-0.3,0.2-0.3
						c0.1,0,0.2,0.1,0.2,0.3c0,0.2-0.1,0.3-0.2,0.3C110.6,84.4,110.4,84.3,110.4,84.2z"/>
					<path d="M112.7,86.1c0.3-0.2,0.5-0.4,0.5-0.7l-0.1-0.4l0.2,0.3c-0.1,0.1-0.1,0.1-0.2,0.1c-0.2,0-0.3-0.1-0.3-0.3
						c0-0.2,0.1-0.3,0.3-0.3c0.2,0,0.4,0.2,0.4,0.5c0,0.5-0.3,0.8-0.7,0.9L112.7,86.1z"/>
					<path d="M114.5,84.8c0-0.3,0.3-0.6,0.5-0.7v0c-0.2-0.1-0.4-0.3-0.4-0.6c0-0.4,0.3-0.7,0.8-0.7c0.5,0,0.8,0.3,0.8,0.7
						c0,0.2-0.2,0.5-0.4,0.6v0c0.3,0.1,0.5,0.3,0.5,0.7c0,0.4-0.3,0.7-0.9,0.7C114.9,85.5,114.5,85.2,114.5,84.8z M116.1,84.8
						c0-0.3-0.4-0.4-0.8-0.6c-0.2,0.1-0.4,0.3-0.4,0.6c0,0.3,0.2,0.5,0.6,0.5C115.8,85.3,116.1,85.1,116.1,84.8z M116,83.6
						c0-0.2-0.2-0.4-0.5-0.4c-0.3,0-0.5,0.2-0.5,0.4c0,0.3,0.3,0.4,0.7,0.6C115.9,84,116,83.8,116,83.6z"/>
					<path d="M116.9,84.2c0-0.8,0.4-1.3,0.9-1.3s0.9,0.5,0.9,1.3c0,0.8-0.4,1.3-0.9,1.3C117.3,85.5,116.9,85,116.9,84.2z
						 M118.4,84.2c0-0.7-0.2-1-0.6-1s-0.6,0.3-0.6,1s0.2,1.1,0.6,1.1S118.4,84.9,118.4,84.2z M117.6,84.2c0-0.2,0.1-0.3,0.2-0.3
						c0.1,0,0.2,0.1,0.2,0.3c0,0.2-0.1,0.3-0.2,0.3C117.7,84.4,117.6,84.3,117.6,84.2z"/>
					<path d="M119.5,86c0.5-0.4,0.8-1,0.8-1.6s-0.2-1.2-0.8-1.6l0.2-0.2c0.6,0.4,0.9,1,0.9,1.8s-0.3,1.4-0.9,1.8L119.5,86z"/>
				</g>
			</g>
			<g>
				<g>
					<path d="M103.2,35.3c0-0.8,0.3-1.4,0.9-1.8l0.2,0.2c-0.5,0.4-0.8,1-0.8,1.6s0.2,1.2,0.8,1.6l-0.2,0.2
						C103.5,36.7,103.2,36.1,103.2,35.3z"/>
					<path d="M105.1,36.1h0.7v-1.9h-0.6V34c0.3,0,0.5-0.1,0.6-0.2h0.2v2.3h0.7v0.3h-1.7L105.1,36.1L105.1,36.1z"/>
					<path d="M107.4,35.2c0-1,0.5-1.4,1.1-1.4c0.3,0,0.5,0.1,0.7,0.3l-0.2,0.2c-0.1-0.1-0.3-0.2-0.5-0.2c-0.4,0-0.8,0.3-0.8,1.1
						c0,0.6,0.2,1,0.7,1c0.3,0,0.5-0.2,0.5-0.6c0-0.3-0.2-0.5-0.5-0.5c-0.2,0-0.4,0.1-0.7,0.4l0-0.3c0.2-0.2,0.5-0.3,0.7-0.3
						c0.5,0,0.8,0.3,0.8,0.8c0,0.5-0.4,0.8-0.9,0.8C107.8,36.4,107.4,36,107.4,35.2z"/>
					<path d="M109.8,35.1c0-0.8,0.4-1.3,0.9-1.3s0.9,0.5,0.9,1.3c0,0.8-0.4,1.3-0.9,1.3C110.1,36.4,109.8,36,109.8,35.1z
						 M111.3,35.1c0-0.7-0.2-1-0.6-1s-0.6,0.3-0.6,1s0.2,1.1,0.6,1.1S111.3,35.8,111.3,35.1z M110.4,35.1c0-0.2,0.1-0.3,0.2-0.3
						c0.1,0,0.2,0.1,0.2,0.3c0,0.2-0.1,0.3-0.2,0.3C110.6,35.4,110.4,35.3,110.4,35.1z"/>
					<path d="M112.7,37c0.3-0.2,0.5-0.4,0.5-0.7l-0.1-0.4l0.2,0.3c-0.1,0.1-0.1,0.1-0.2,0.1c-0.2,0-0.3-0.1-0.3-0.3
						c0-0.2,0.1-0.3,0.3-0.3c0.2,0,0.4,0.2,0.4,0.5c0,0.5-0.3,0.8-0.7,0.9L112.7,37z"/>
					<path d="M114.5,35.1c0-0.8,0.4-1.3,0.9-1.3s0.9,0.5,0.9,1.3c0,0.8-0.4,1.3-0.9,1.3C114.9,36.4,114.5,36,114.5,35.1z
						 M116.1,35.1c0-0.7-0.2-1-0.6-1s-0.6,0.3-0.6,1s0.2,1.1,0.6,1.1S116.1,35.8,116.1,35.1z M115.2,35.1c0-0.2,0.1-0.3,0.2-0.3
						c0.1,0,0.2,0.1,0.2,0.3c0,0.2-0.1,0.3-0.2,0.3C115.3,35.4,115.2,35.3,115.2,35.1z"/>
					<path d="M117.1,36.9c0.5-0.4,0.8-1,0.8-1.6s-0.2-1.2-0.8-1.6l0.2-0.2c0.6,0.4,0.9,1,0.9,1.8s-0.3,1.4-0.9,1.8L117.1,36.9z"/>
				</g>
			</g>
			<g>
				<g>
					<path d="M12.6,84.5c0-0.8,0.3-1.4,0.9-1.8l0.2,0.2c-0.5,0.4-0.8,1-0.8,1.6s0.2,1.2,0.8,1.6l-0.2,0.2
						C12.9,85.8,12.6,85.2,12.6,84.5z"/>
					<path d="M14.4,84.3c0-0.8,0.3-1.3,0.9-1.3s0.9,0.5,0.9,1.3c0,0.8-0.3,1.3-0.9,1.3C14.8,85.6,14.4,85.1,14.4,84.3z M15.9,84.3
						c0-0.7-0.2-1-0.6-1s-0.6,0.3-0.6,1s0.2,1.1,0.6,1.1C15.7,85.3,15.9,85,15.9,84.3z M15.1,84.3c0-0.2,0.1-0.3,0.2-0.3
						c0.1,0,0.2,0.1,0.2,0.3c0,0.2-0.1,0.3-0.2,0.3C15.2,84.5,15.1,84.4,15.1,84.3z"/>
					<path d="M17.3,86.2c0.3-0.2,0.5-0.4,0.5-0.7l-0.1-0.4l0.2,0.3c-0.1,0.1-0.1,0.1-0.2,0.1c-0.2,0-0.3-0.1-0.3-0.3
						c0-0.2,0.2-0.3,0.3-0.3c0.2,0,0.4,0.2,0.4,0.5c0,0.5-0.3,0.8-0.7,0.9L17.3,86.2z"/>
					<path d="M19.2,84.9c0-0.3,0.3-0.6,0.5-0.7v0c-0.2-0.1-0.4-0.3-0.4-0.6c0-0.4,0.3-0.7,0.8-0.7c0.5,0,0.8,0.3,0.8,0.7
						c0,0.2-0.2,0.5-0.4,0.6v0c0.3,0.1,0.5,0.3,0.5,0.7c0,0.4-0.3,0.7-0.9,0.7C19.5,85.6,19.2,85.3,19.2,84.9z M20.7,84.9
						c0-0.3-0.3-0.4-0.8-0.6c-0.2,0.1-0.4,0.3-0.4,0.6c0,0.3,0.2,0.5,0.6,0.5C20.5,85.4,20.7,85.2,20.7,84.9z M20.6,83.7
						c0-0.2-0.2-0.4-0.5-0.4c-0.3,0-0.5,0.2-0.5,0.4c0,0.3,0.3,0.4,0.7,0.6C20.5,84,20.6,83.9,20.6,83.7z"/>
					<path d="M21.6,84.3c0-0.8,0.3-1.3,0.9-1.3s0.9,0.5,0.9,1.3c0,0.8-0.3,1.3-0.9,1.3C21.9,85.6,21.6,85.1,21.6,84.3z M23.1,84.3
						c0-0.7-0.2-1-0.6-1s-0.6,0.3-0.6,1s0.2,1.1,0.6,1.1C22.8,85.3,23.1,85,23.1,84.3z M22.2,84.3c0-0.2,0.1-0.3,0.2-0.3
						c0.1,0,0.2,0.1,0.2,0.3c0,0.2-0.1,0.3-0.2,0.3C22.3,84.5,22.2,84.4,22.2,84.3z"/>
					<path d="M24.1,86.1c0.5-0.4,0.8-1,0.8-1.6s-0.2-1.2-0.8-1.6l0.2-0.2c0.5,0.4,0.9,1,0.9,1.8s-0.3,1.4-0.9,1.8L24.1,86.1z"/>
				</g>
			</g>
			<circle cx="105.1" cy="79.9" r="0.8"/>
			<circle cx="105.1" cy="38" r="0.8"/>
			<circle cx="23.1" cy="79.9" r="0.8"/>
			<circle cx="23.1" cy="38" r="0.8"/>
			<g>
				<g>
					<path d="M244.3,34.4c0-0.8,0.3-1.4,0.9-1.8l0.2,0.2c-0.5,0.5-0.8,1-0.8,1.6s0.2,1.2,0.8,1.6l-0.2,0.2
						C244.6,35.8,244.3,35.2,244.3,34.4z"/>
					<path d="M246.1,34.3c0-0.8,0.4-1.3,0.9-1.3s0.9,0.5,0.9,1.3c0,0.8-0.4,1.3-0.9,1.3C246.5,35.6,246.1,35.1,246.1,34.3z
						 M247.6,34.3c0-0.7-0.2-1-0.6-1s-0.6,0.3-0.6,1s0.2,1.1,0.6,1.1C247.4,35.3,247.6,35,247.6,34.3z M246.8,34.2
						c0-0.2,0.1-0.3,0.2-0.3c0.1,0,0.2,0.1,0.2,0.3c0,0.2-0.1,0.3-0.2,0.3C246.9,34.5,246.8,34.4,246.8,34.2z"/>
					<path d="M249,36.2c0.3-0.2,0.5-0.4,0.5-0.7l-0.1-0.4l0.2,0.3c-0.1,0.1-0.1,0.1-0.2,0.1c-0.2,0-0.3-0.1-0.3-0.3
						c0-0.2,0.1-0.3,0.3-0.3c0.2,0,0.4,0.2,0.4,0.5c0,0.5-0.3,0.8-0.7,0.9L249,36.2z"/>
					<path d="M250.9,34.3c0-0.8,0.4-1.3,0.9-1.3s0.9,0.5,0.9,1.3c0,0.8-0.4,1.3-0.9,1.3S250.9,35.1,250.9,34.3z M252.4,34.3
						c0-0.7-0.2-1-0.6-1s-0.6,0.3-0.6,1s0.2,1.1,0.6,1.1C252.1,35.3,252.4,35,252.4,34.3z M251.5,34.2c0-0.2,0.1-0.3,0.2-0.3
						c0.1,0,0.2,0.1,0.2,0.3c0,0.2-0.1,0.3-0.2,0.3C251.7,34.5,251.5,34.4,251.5,34.2z"/>
					<path d="M253.5,36.1c0.5-0.4,0.8-1,0.8-1.6s-0.2-1.2-0.8-1.6l0.2-0.2c0.5,0.4,0.9,1,0.9,1.8s-0.3,1.4-0.9,1.8L253.5,36.1z"/>
				</g>
			</g>
			<g>
				<g>
					<path d="M328.7,84c0-0.8,0.3-1.4,0.9-1.8l0.2,0.2c-0.5,0.4-0.8,1-0.8,1.6s0.2,1.2,0.8,1.6l-0.2,0.2
						C329.1,85.3,328.7,84.7,328.7,84z"/>
					<path d="M330.7,84.8h0.7v-1.9h-0.6v-0.2c0.3,0,0.5-0.1,0.6-0.2h0.2v2.3h0.7v0.3h-1.7V84.8z"/>
					<path d="M333,83.9c0-1,0.5-1.4,1.1-1.4c0.3,0,0.5,0.1,0.7,0.3l-0.2,0.2c-0.1-0.1-0.3-0.2-0.5-0.2c-0.4,0-0.8,0.3-0.8,1.1
						c0,0.6,0.2,1,0.7,1c0.3,0,0.5-0.2,0.5-0.6c0-0.3-0.2-0.5-0.5-0.5c-0.2,0-0.4,0.1-0.7,0.4l0-0.3c0.2-0.2,0.5-0.3,0.7-0.3
						c0.5,0,0.8,0.3,0.8,0.8c0,0.5-0.4,0.8-0.9,0.8C333.4,85.1,333,84.7,333,83.9z"/>
					<path d="M335.3,83.8c0-0.8,0.4-1.3,0.9-1.3s0.9,0.5,0.9,1.3c0,0.8-0.4,1.3-0.9,1.3C335.7,85.1,335.3,84.6,335.3,83.8z
						 M336.8,83.8c0-0.7-0.2-1-0.6-1s-0.6,0.3-0.6,1s0.2,1.1,0.6,1.1S336.8,84.5,336.8,83.8z M336,83.8c0-0.2,0.1-0.3,0.2-0.3
						c0.1,0,0.2,0.1,0.2,0.3c0,0.2-0.1,0.3-0.2,0.3S336,83.9,336,83.8z"/>
					<path d="M338.2,85.7c0.3-0.2,0.5-0.4,0.5-0.7l-0.1-0.4l0.2,0.3c-0.1,0.1-0.1,0.1-0.2,0.1c-0.2,0-0.3-0.1-0.3-0.3
						c0-0.2,0.1-0.3,0.3-0.3c0.2,0,0.4,0.2,0.4,0.5c0,0.5-0.3,0.8-0.7,0.9L338.2,85.7z"/>
					<path d="M340.1,84.4c0-0.3,0.3-0.6,0.5-0.7v0c-0.2-0.1-0.4-0.3-0.4-0.6c0-0.4,0.3-0.7,0.8-0.7c0.5,0,0.8,0.3,0.8,0.7
						c0,0.2-0.2,0.5-0.4,0.6v0c0.3,0.1,0.5,0.3,0.5,0.7c0,0.4-0.3,0.7-0.9,0.7C340.4,85.1,340.1,84.8,340.1,84.4z M341.6,84.4
						c0-0.3-0.4-0.4-0.8-0.6c-0.2,0.1-0.4,0.3-0.4,0.6c0,0.3,0.2,0.5,0.6,0.5C341.4,84.9,341.6,84.7,341.6,84.4z M341.5,83.2
						c0-0.2-0.2-0.4-0.5-0.4c-0.3,0-0.5,0.2-0.5,0.4c0,0.3,0.3,0.4,0.7,0.6C341.4,83.5,341.5,83.4,341.5,83.2z"/>
					<path d="M342.5,83.8c0-0.8,0.4-1.3,0.9-1.3s0.9,0.5,0.9,1.3c0,0.8-0.4,1.3-0.9,1.3C342.8,85.1,342.5,84.6,342.5,83.8z
						 M344,83.8c0-0.7-0.2-1-0.6-1s-0.6,0.3-0.6,1s0.2,1.1,0.6,1.1S344,84.5,344,83.8z M343.1,83.8c0-0.2,0.1-0.3,0.2-0.3
						c0.1,0,0.2,0.1,0.2,0.3c0,0.2-0.1,0.3-0.2,0.3C343.2,84,343.1,83.9,343.1,83.8z"/>
					<path d="M345,85.6c0.5-0.4,0.8-1,0.8-1.6s-0.2-1.2-0.8-1.6l0.2-0.2c0.5,0.4,0.9,1,0.9,1.8s-0.3,1.4-0.9,1.8L345,85.6z"/>
				</g>
			</g>
			<g>
				<g>
					<path d="M328.7,34.9c0-0.8,0.3-1.4,0.9-1.8l0.2,0.2c-0.5,0.5-0.8,1-0.8,1.6s0.2,1.2,0.8,1.6l-0.2,0.2
						C329.1,36.2,328.7,35.6,328.7,34.9z"/>
					<path d="M330.7,35.7h0.7v-1.9h-0.6v-0.2c0.3,0,0.5-0.1,0.6-0.2h0.2v2.3h0.7V36h-1.7V35.7z"/>
					<path d="M333,34.8c0-1,0.5-1.4,1.1-1.4c0.3,0,0.5,0.1,0.7,0.3l-0.2,0.2c-0.1-0.1-0.3-0.2-0.5-0.2c-0.4,0-0.8,0.3-0.8,1.1
						c0,0.6,0.2,1,0.7,1c0.3,0,0.5-0.2,0.5-0.6c0-0.3-0.2-0.5-0.5-0.5c-0.2,0-0.4,0.1-0.7,0.4l0-0.3c0.2-0.2,0.5-0.3,0.7-0.3
						c0.5,0,0.8,0.3,0.8,0.8c0,0.5-0.4,0.8-0.9,0.8C333.4,36,333,35.6,333,34.8z"/>
					<path d="M335.3,34.7c0-0.8,0.4-1.3,0.9-1.3s0.9,0.5,0.9,1.3c0,0.8-0.4,1.3-0.9,1.3C335.7,36,335.3,35.5,335.3,34.7z
						 M336.8,34.7c0-0.7-0.2-1-0.6-1s-0.6,0.3-0.6,1s0.2,1.1,0.6,1.1S336.8,35.4,336.8,34.7z M336,34.7c0-0.2,0.1-0.3,0.2-0.3
						c0.1,0,0.2,0.1,0.2,0.3c0,0.2-0.1,0.3-0.2,0.3C336.1,34.9,336,34.8,336,34.7z"/>
					<path d="M338.2,36.6c0.3-0.2,0.5-0.4,0.5-0.7l-0.1-0.4l0.2,0.3c-0.1,0.1-0.1,0.1-0.2,0.1c-0.2,0-0.3-0.1-0.3-0.3
						c0-0.2,0.1-0.3,0.3-0.3c0.2,0,0.4,0.2,0.4,0.5c0,0.5-0.3,0.8-0.7,0.9L338.2,36.6z"/>
					<path d="M340.1,34.7c0-0.8,0.4-1.3,0.9-1.3s0.9,0.5,0.9,1.3c0,0.8-0.4,1.3-0.9,1.3C340.4,36,340.1,35.5,340.1,34.7z
						 M341.6,34.7c0-0.7-0.2-1-0.6-1s-0.6,0.3-0.6,1s0.2,1.1,0.6,1.1S341.6,35.4,341.6,34.7z M340.7,34.7c0-0.2,0.1-0.3,0.2-0.3
						c0.1,0,0.2,0.1,0.2,0.3c0,0.2-0.1,0.3-0.2,0.3C340.9,34.9,340.7,34.8,340.7,34.7z"/>
					<path d="M342.7,36.5c0.5-0.4,0.8-1,0.8-1.6s-0.2-1.2-0.8-1.6l0.2-0.2c0.5,0.4,0.9,1,0.9,1.8s-0.3,1.4-0.9,1.8L342.7,36.5z"/>
				</g>
			</g>
			<g>
				<g>
					<path d="M242.1,84c0-0.8,0.3-1.4,0.9-1.8l0.2,0.2c-0.5,0.4-0.8,1-0.8,1.6s0.2,1.2,0.8,1.6l-0.2,0.2
						C242.4,85.4,242.1,84.8,242.1,84z"/>
					<path d="M243.9,83.9c0-0.8,0.4-1.3,0.9-1.3s0.9,0.5,0.9,1.3c0,0.8-0.4,1.3-0.9,1.3S243.9,84.7,243.9,83.9z M245.4,83.9
						c0-0.7-0.2-1-0.6-1s-0.6,0.3-0.6,1s0.2,1.1,0.6,1.1C245.1,84.9,245.4,84.6,245.4,83.9z M244.6,83.8c0-0.2,0.1-0.3,0.2-0.3
						c0.1,0,0.2,0.1,0.2,0.3c0,0.2-0.1,0.3-0.2,0.3C244.7,84.1,244.6,84,244.6,83.8z"/>
					<path d="M246.8,85.8c0.3-0.2,0.5-0.4,0.5-0.7l-0.1-0.4l0.2,0.3c-0.1,0.1-0.1,0.1-0.2,0.1c-0.2,0-0.3-0.1-0.3-0.3
						c0-0.2,0.1-0.3,0.3-0.3c0.2,0,0.4,0.2,0.4,0.5c0,0.5-0.3,0.8-0.7,0.9L246.8,85.8z"/>
					<path d="M248.6,84.5c0-0.3,0.3-0.6,0.5-0.7v0c-0.2-0.1-0.4-0.3-0.4-0.6c0-0.4,0.3-0.7,0.8-0.7c0.5,0,0.8,0.3,0.8,0.7
						c0,0.2-0.2,0.5-0.4,0.6v0c0.3,0.1,0.5,0.3,0.5,0.7c0,0.4-0.3,0.7-0.9,0.7C249,85.2,248.6,84.9,248.6,84.5z M250.2,84.5
						c0-0.3-0.4-0.4-0.8-0.6c-0.2,0.1-0.4,0.3-0.4,0.6c0,0.3,0.2,0.5,0.6,0.5C249.9,84.9,250.2,84.8,250.2,84.5z M250.1,83.3
						c0-0.2-0.2-0.4-0.5-0.4c-0.3,0-0.5,0.2-0.5,0.4c0,0.3,0.3,0.4,0.7,0.6C250,83.6,250.1,83.4,250.1,83.3z"/>
					<path d="M251,83.9c0-0.8,0.4-1.3,0.9-1.3s0.9,0.5,0.9,1.3c0,0.8-0.4,1.3-0.9,1.3C251.4,85.2,251,84.7,251,83.9z M252.5,83.9
						c0-0.7-0.2-1-0.6-1s-0.6,0.3-0.6,1s0.2,1.1,0.6,1.1C252.3,84.9,252.5,84.6,252.5,83.9z M251.7,83.8c0-0.2,0.1-0.3,0.2-0.3
						c0.1,0,0.2,0.1,0.2,0.3c0,0.2-0.1,0.3-0.2,0.3C251.8,84.1,251.7,84,251.7,83.8z"/>
					<path d="M253.6,85.7c0.5-0.4,0.8-1,0.8-1.6s-0.2-1.2-0.8-1.6l0.2-0.2c0.5,0.4,0.9,1,0.9,1.8s-0.3,1.4-0.9,1.8L253.6,85.7z"/>
				</g>
			</g>
			<circle cx="334.6" cy="79.5" r="0.8"/>
			<circle cx="334.6" cy="37.6" r="0.8"/>
			<circle cx="252.6" cy="79.5" r="0.8"/>
			<circle cx="252.6" cy="37.6" r="0.8"/>
			<circle cx="66.2" cy="204.6" r="0.8"/>
			<circle cx="108.1" cy="204.6" r="0.8"/>
			<circle cx="66.2" cy="122.6" r="0.8"/>
			<circle cx="108.1" cy="122.6" r="0.8"/>
			<g>
				<g>
					<path d="M57.3,119.2c0-0.8,0.3-1.4,0.9-1.8l0.2,0.2c-0.5,0.4-0.8,1-0.8,1.6s0.2,1.2,0.8,1.6l-0.2,0.2
						C57.7,120.6,57.3,120,57.3,119.2z"/>
					<path d="M59.2,119.1c0-0.9,0.3-1.3,0.9-1.3c0.6,0,0.9,0.5,0.9,1.3c0,0.8-0.3,1.3-0.9,1.3C59.5,120.4,59.2,119.9,59.2,119.1z
						 M60.7,119.1c0-0.7-0.2-1-0.6-1s-0.6,0.3-0.6,1s0.2,1.1,0.6,1.1S60.7,119.8,60.7,119.1z M59.8,119c0-0.2,0.1-0.3,0.2-0.3
						c0.1,0,0.2,0.1,0.2,0.3c0,0.2-0.1,0.3-0.2,0.3C59.9,119.3,59.8,119.2,59.8,119z"/>
					<path d="M62,121c0.3-0.1,0.5-0.4,0.5-0.7l-0.1-0.4l0.2,0.3c-0.1,0.1-0.1,0.1-0.2,0.1c-0.2,0-0.3-0.1-0.3-0.3
						c0-0.2,0.2-0.3,0.3-0.3c0.2,0,0.4,0.2,0.4,0.5c0,0.5-0.3,0.8-0.7,0.9L62,121z"/>
					<path d="M63.9,119.1c0-0.9,0.3-1.3,0.9-1.3c0.6,0,0.9,0.5,0.9,1.3c0,0.8-0.3,1.3-0.9,1.3C64.3,120.4,63.9,119.9,63.9,119.1z
						 M65.4,119.1c0-0.7-0.2-1-0.6-1s-0.6,0.3-0.6,1s0.2,1.1,0.6,1.1S65.4,119.8,65.4,119.1z M64.6,119c0-0.2,0.1-0.3,0.2-0.3
						c0.1,0,0.2,0.1,0.2,0.3c0,0.2-0.1,0.3-0.2,0.3C64.7,119.3,64.6,119.2,64.6,119z"/>
					<path d="M66.5,120.9c0.5-0.4,0.8-1,0.8-1.6s-0.2-1.2-0.8-1.6l0.2-0.2c0.6,0.4,0.9,1,0.9,1.8s-0.3,1.4-0.9,1.8L66.5,120.9z"/>
				</g>
			</g>
			<g>
				<g>
					<path d="M109.3,119.6c0-0.8,0.3-1.4,0.9-1.8l0.2,0.2c-0.5,0.4-0.8,1-0.8,1.6s0.2,1.2,0.8,1.6l-0.2,0.2
						C109.6,120.9,109.3,120.3,109.3,119.6z"/>
					<path d="M111.1,120c0-0.4,0.3-0.6,0.5-0.7v0c-0.2-0.1-0.4-0.3-0.4-0.6c0-0.4,0.3-0.6,0.8-0.6c0.5,0,0.8,0.3,0.8,0.7
						c0,0.2-0.2,0.5-0.4,0.6v0c0.3,0.1,0.5,0.3,0.5,0.7c0,0.4-0.3,0.7-0.9,0.7C111.4,120.7,111.1,120.4,111.1,120z M112.6,120
						c0-0.4-0.4-0.4-0.8-0.6c-0.2,0.1-0.4,0.3-0.4,0.6c0,0.3,0.2,0.5,0.6,0.5C112.4,120.4,112.6,120.3,112.6,120z M112.5,118.8
						c0-0.2-0.2-0.4-0.5-0.4c-0.3,0-0.5,0.2-0.5,0.4c0,0.3,0.3,0.4,0.7,0.6C112.4,119.1,112.5,118.9,112.5,118.8z"/>
					<path d="M113.5,119.4c0-0.9,0.4-1.3,0.9-1.3s0.9,0.5,0.9,1.3c0,0.8-0.4,1.3-0.9,1.3C113.8,120.7,113.5,120.2,113.5,119.4z
						 M115,119.4c0-0.7-0.2-1-0.6-1s-0.6,0.3-0.6,1s0.2,1.1,0.6,1.1C114.7,120.4,115,120.1,115,119.4z M114.1,119.3
						c0-0.2,0.1-0.3,0.2-0.3c0.1,0,0.2,0.1,0.2,0.3c0,0.2-0.1,0.3-0.2,0.3S114.1,119.5,114.1,119.3z"/>
					<path d="M116.3,121.3c0.3-0.1,0.5-0.4,0.5-0.7l-0.1-0.4l0.2,0.3c-0.1,0.1-0.1,0.1-0.2,0.1c-0.2,0-0.3-0.1-0.3-0.3
						c0-0.2,0.1-0.3,0.3-0.3c0.2,0,0.4,0.2,0.4,0.5c0,0.5-0.3,0.8-0.7,0.9L116.3,121.3z"/>
					<path d="M118.2,119.4c0-0.9,0.4-1.3,0.9-1.3s0.9,0.5,0.9,1.3c0,0.8-0.4,1.3-0.9,1.3C118.6,120.7,118.2,120.2,118.2,119.4z
						 M119.7,119.4c0-0.7-0.2-1-0.6-1s-0.6,0.3-0.6,1s0.2,1.1,0.6,1.1C119.5,120.4,119.7,120.1,119.7,119.4z M118.9,119.3
						c0-0.2,0.1-0.3,0.2-0.3c0.1,0,0.2,0.1,0.2,0.3c0,0.2-0.1,0.3-0.2,0.3S118.9,119.5,118.9,119.3z"/>
					<path d="M120.8,121.2c0.5-0.4,0.8-1,0.8-1.6s-0.2-1.2-0.8-1.6l0.2-0.2c0.6,0.4,0.9,1,0.9,1.8s-0.3,1.4-0.9,1.8L120.8,121.2z"/>
				</g>
			</g>
			<g>
				<g>
					<path d="M57.7,207.8c0-0.8,0.3-1.4,0.9-1.8l0.2,0.2c-0.5,0.4-0.8,1-0.8,1.6s0.2,1.2,0.8,1.6l-0.2,0.2
						C58,209.1,57.7,208.5,57.7,207.8z"/>
					<path d="M59.5,207.6c0-0.9,0.3-1.3,0.9-1.3c0.6,0,0.9,0.5,0.9,1.3c0,0.8-0.3,1.3-0.9,1.3C59.9,208.9,59.5,208.4,59.5,207.6z
						 M61.1,207.6c0-0.7-0.2-1-0.6-1s-0.6,0.3-0.6,1s0.2,1.1,0.6,1.1C60.8,208.6,61.1,208.3,61.1,207.6z M60.2,207.6
						c0-0.2,0.1-0.3,0.2-0.3c0.1,0,0.2,0.1,0.2,0.3c0,0.2-0.1,0.3-0.2,0.3C60.3,207.8,60.2,207.7,60.2,207.6z"/>
					<path d="M62.4,209.5c0.3-0.1,0.5-0.4,0.5-0.7l-0.1-0.4l0.2,0.3c-0.1,0.1-0.1,0.1-0.2,0.1c-0.2,0-0.3-0.1-0.3-0.3
						c0-0.2,0.2-0.3,0.3-0.3c0.2,0,0.4,0.2,0.4,0.5c0,0.5-0.3,0.8-0.7,0.9L62.4,209.5z"/>
					<path d="M64.4,208.6h0.7v-1.9h-0.6v-0.2c0.3,0,0.5-0.1,0.7-0.2h0.2v2.3h0.7v0.3h-1.7C64.4,208.9,64.4,208.6,64.4,208.6z"/>
					<path d="M66.7,207.7c0-1,0.5-1.4,1.1-1.4c0.3,0,0.5,0.1,0.7,0.3l-0.2,0.2c-0.1-0.1-0.3-0.2-0.5-0.2c-0.4,0-0.8,0.3-0.8,1.1
						c0,0.6,0.2,1,0.7,1c0.3,0,0.5-0.2,0.5-0.6c0-0.4-0.2-0.5-0.5-0.5c-0.2,0-0.4,0.1-0.7,0.4l0-0.3c0.2-0.2,0.5-0.4,0.7-0.4
						c0.5,0,0.8,0.3,0.8,0.8c0,0.5-0.4,0.8-0.8,0.8C67.1,208.9,66.7,208.5,66.7,207.7z"/>
					<path d="M69.1,207.6c0-0.9,0.3-1.3,0.9-1.3c0.6,0,0.9,0.5,0.9,1.3c0,0.8-0.3,1.3-0.9,1.3S69.1,208.4,69.1,207.6z M70.6,207.6
						c0-0.7-0.2-1-0.6-1s-0.6,0.3-0.6,1s0.2,1.1,0.6,1.1C70.3,208.6,70.6,208.3,70.6,207.6z M69.7,207.6c0-0.2,0.1-0.3,0.2-0.3
						c0.1,0,0.2,0.1,0.2,0.3c0,0.2-0.1,0.3-0.2,0.3C69.8,207.8,69.7,207.7,69.7,207.6z"/>
					<path d="M71.6,209.4c0.5-0.4,0.8-1,0.8-1.6s-0.2-1.2-0.8-1.6l0.2-0.2c0.6,0.4,0.9,1,0.9,1.8s-0.3,1.4-0.9,1.8L71.6,209.4z"/>
				</g>
			</g>
			<g>
				<g>
					<path d="M105.9,208.1c0-0.8,0.3-1.4,0.9-1.8l0.2,0.2c-0.5,0.4-0.8,1-0.8,1.6s0.2,1.2,0.8,1.6l-0.2,0.2
						C106.2,209.4,105.9,208.8,105.9,208.1z"/>
					<path d="M107.7,208.5c0-0.4,0.3-0.6,0.5-0.7v0c-0.2-0.1-0.4-0.3-0.4-0.6c0-0.4,0.3-0.6,0.8-0.6c0.5,0,0.8,0.3,0.8,0.7
						c0,0.2-0.2,0.5-0.4,0.6v0c0.3,0.1,0.5,0.3,0.5,0.7c0,0.4-0.3,0.7-0.9,0.7C108.1,209.2,107.7,208.9,107.7,208.5z M109.3,208.5
						c0-0.4-0.4-0.4-0.8-0.6c-0.2,0.1-0.4,0.3-0.4,0.6c0,0.3,0.2,0.5,0.6,0.5C109,209,109.3,208.8,109.3,208.5z M109.2,207.3
						c0-0.2-0.2-0.4-0.5-0.4c-0.3,0-0.5,0.2-0.5,0.4c0,0.3,0.3,0.4,0.7,0.6C109.1,207.6,109.2,207.5,109.2,207.3z"/>
					<path d="M110.1,207.9c0-0.9,0.4-1.3,0.9-1.3s0.9,0.5,0.9,1.3c0,0.8-0.4,1.3-0.9,1.3C110.5,209.2,110.1,208.7,110.1,207.9z
						 M111.6,207.9c0-0.7-0.2-1-0.6-1s-0.6,0.3-0.6,1s0.2,1.1,0.6,1.1S111.6,208.6,111.6,207.9z M110.8,207.9c0-0.2,0.1-0.3,0.2-0.3
						c0.1,0,0.2,0.1,0.2,0.3c0,0.2-0.1,0.3-0.2,0.3S110.8,208,110.8,207.9z"/>
					<path d="M113,209.8c0.3-0.1,0.5-0.4,0.5-0.7l-0.1-0.4l0.2,0.3c-0.1,0.1-0.1,0.1-0.2,0.1c-0.2,0-0.3-0.1-0.3-0.3
						c0-0.2,0.1-0.3,0.3-0.3c0.2,0,0.4,0.2,0.4,0.5c0,0.5-0.3,0.8-0.7,0.9L113,209.8z"/>
					<path d="M115,208.9h0.7V207h-0.6v-0.2c0.3,0,0.5-0.1,0.6-0.2h0.2v2.3h0.7v0.3H115L115,208.9L115,208.9z"/>
					<path d="M117.3,208c0-1,0.5-1.4,1.1-1.4c0.3,0,0.5,0.1,0.7,0.3l-0.2,0.2c-0.1-0.1-0.3-0.2-0.5-0.2c-0.4,0-0.8,0.3-0.8,1.1
						c0,0.6,0.2,1,0.7,1c0.3,0,0.5-0.2,0.5-0.6c0-0.4-0.2-0.5-0.5-0.5c-0.2,0-0.4,0.1-0.7,0.4l0-0.3c0.2-0.2,0.5-0.4,0.7-0.4
						c0.5,0,0.8,0.3,0.8,0.8c0,0.5-0.4,0.8-0.9,0.8C117.7,209.2,117.3,208.8,117.3,208z"/>
					<path d="M119.7,207.9c0-0.9,0.4-1.3,0.9-1.3s0.9,0.5,0.9,1.3c0,0.8-0.4,1.3-0.9,1.3C120,209.2,119.7,208.7,119.7,207.9z
						 M121.2,207.9c0-0.7-0.2-1-0.6-1s-0.6,0.3-0.6,1s0.2,1.1,0.6,1.1S121.2,208.6,121.2,207.9z M120.3,207.9c0-0.2,0.1-0.3,0.2-0.3
						c0.1,0,0.2,0.1,0.2,0.3c0,0.2-0.1,0.3-0.2,0.3S120.3,208,120.3,207.9z"/>
					<path d="M122.2,209.7c0.5-0.4,0.8-1,0.8-1.6s-0.2-1.2-0.8-1.6l0.2-0.2c0.6,0.4,0.9,1,0.9,1.8s-0.3,1.4-0.9,1.8L122.2,209.7z"/>
				</g>
			</g>
			<circle cx="253.1" cy="257" r="0.8"/>
			<circle cx="295" cy="257" r="0.8"/>
			<circle cx="253.1" cy="175" r="0.8"/>
			<circle cx="295" cy="175" r="0.8"/>
			<g>
				<g>
					<path d="M244.3,171.6c0-0.8,0.3-1.4,0.9-1.8l0.2,0.2c-0.5,0.4-0.8,1-0.8,1.6s0.2,1.2,0.8,1.6l-0.2,0.2
						C244.6,173,244.3,172.4,244.3,171.6z"/>
					<path d="M246.1,171.5c0-0.9,0.4-1.3,0.9-1.3s0.9,0.5,0.9,1.3c0,0.8-0.4,1.3-0.9,1.3C246.5,172.8,246.1,172.3,246.1,171.5z
						 M247.6,171.5c0-0.7-0.2-1-0.6-1s-0.6,0.3-0.6,1s0.2,1.1,0.6,1.1S247.6,172.2,247.6,171.5z M246.8,171.4c0-0.2,0.1-0.3,0.2-0.3
						c0.1,0,0.2,0.1,0.2,0.3c0,0.2-0.1,0.3-0.2,0.3C246.9,171.7,246.8,171.6,246.8,171.4z"/>
					<path d="M249,173.4c0.3-0.1,0.5-0.4,0.5-0.7l-0.1-0.4l0.2,0.3c-0.1,0.1-0.1,0.1-0.2,0.1c-0.2,0-0.3-0.1-0.3-0.3
						c0-0.2,0.1-0.3,0.3-0.3c0.2,0,0.4,0.2,0.4,0.5c0,0.5-0.3,0.8-0.7,0.9L249,173.4z"/>
					<path d="M250.9,171.5c0-0.9,0.4-1.3,0.9-1.3s0.9,0.5,0.9,1.3c0,0.8-0.4,1.3-0.9,1.3S250.9,172.3,250.9,171.5z M252.4,171.5
						c0-0.7-0.2-1-0.6-1s-0.6,0.3-0.6,1s0.2,1.1,0.6,1.1S252.4,172.2,252.4,171.5z M251.5,171.4c0-0.2,0.1-0.3,0.2-0.3
						c0.1,0,0.2,0.1,0.2,0.3c0,0.2-0.1,0.3-0.2,0.3S251.5,171.6,251.5,171.4z"/>
					<path d="M253.5,173.3c0.5-0.4,0.8-1,0.8-1.6s-0.2-1.2-0.8-1.6l0.2-0.2c0.5,0.4,0.9,1,0.9,1.8s-0.3,1.4-0.9,1.8L253.5,173.3z"/>
				</g>
			</g>
			<g>
				<g>
					<path d="M296.2,171.9c0-0.8,0.3-1.4,0.9-1.8l0.2,0.2c-0.5,0.4-0.8,1-0.8,1.6s0.2,1.2,0.8,1.6l-0.2,0.2
						C296.5,173.3,296.2,172.7,296.2,171.9z"/>
					<path d="M298,172.4c0-0.4,0.3-0.6,0.5-0.7v0c-0.2-0.1-0.4-0.3-0.4-0.6c0-0.4,0.3-0.6,0.8-0.6c0.5,0,0.8,0.3,0.8,0.7
						c0,0.2-0.2,0.5-0.4,0.6v0c0.3,0.1,0.5,0.3,0.5,0.7c0,0.4-0.3,0.7-0.9,0.7C298.4,173.1,298,172.8,298,172.4z M299.6,172.4
						c0-0.4-0.4-0.4-0.8-0.6c-0.2,0.1-0.4,0.3-0.4,0.6c0,0.3,0.2,0.5,0.6,0.5C299.3,172.8,299.6,172.7,299.6,172.4z M299.5,171.2
						c0-0.2-0.2-0.4-0.5-0.4c-0.3,0-0.5,0.2-0.5,0.4c0,0.3,0.3,0.4,0.7,0.6C299.4,171.5,299.5,171.3,299.5,171.2z"/>
					<path d="M300.4,171.8c0-0.9,0.4-1.3,0.9-1.3s0.9,0.5,0.9,1.3c0,0.8-0.4,1.3-0.9,1.3C300.8,173.1,300.4,172.6,300.4,171.8z
						 M301.9,171.8c0-0.7-0.2-1-0.6-1s-0.6,0.3-0.6,1s0.2,1.1,0.6,1.1C301.7,172.8,301.9,172.5,301.9,171.8z M301.1,171.8
						c0-0.2,0.1-0.3,0.2-0.3c0.1,0,0.2,0.1,0.2,0.3c0,0.2-0.1,0.3-0.2,0.3C301.2,172,301.1,171.9,301.1,171.8z"/>
					<path d="M303.3,173.7c0.3-0.1,0.5-0.4,0.5-0.7l-0.1-0.4l0.2,0.3c-0.1,0.1-0.1,0.1-0.2,0.1c-0.2,0-0.3-0.1-0.3-0.3
						c0-0.2,0.1-0.3,0.3-0.3c0.2,0,0.4,0.2,0.4,0.5c0,0.5-0.3,0.8-0.7,0.9L303.3,173.7z"/>
					<path d="M305.2,171.8c0-0.9,0.4-1.3,0.9-1.3s0.9,0.5,0.9,1.3c0,0.8-0.4,1.3-0.9,1.3C305.5,173.1,305.2,172.6,305.2,171.8z
						 M306.7,171.8c0-0.7-0.2-1-0.6-1s-0.6,0.3-0.6,1s0.2,1.1,0.6,1.1C306.4,172.8,306.7,172.5,306.7,171.8z M305.8,171.8
						c0-0.2,0.1-0.3,0.2-0.3c0.1,0,0.2,0.1,0.2,0.3c0,0.2-0.1,0.3-0.2,0.3C306,172,305.8,171.9,305.8,171.8z"/>
					<path d="M307.8,173.6c0.5-0.4,0.8-1,0.8-1.6s-0.2-1.2-0.8-1.6l0.2-0.2c0.5,0.4,0.9,1,0.9,1.8s-0.3,1.4-0.9,1.8L307.8,173.6z"/>
				</g>
			</g>
			<g>
				<g>
					<path d="M244.7,260.1c0-0.8,0.3-1.4,0.9-1.8l0.2,0.2c-0.5,0.5-0.8,1-0.8,1.6s0.2,1.2,0.8,1.6l-0.2,0.2
						C245,261.5,244.7,260.9,244.7,260.1z"/>
					<path d="M246.5,260c0-0.9,0.4-1.3,0.9-1.3s0.9,0.5,0.9,1.3c0,0.8-0.4,1.3-0.9,1.3C246.8,261.3,246.5,260.8,246.5,260z M248,260
						c0-0.7-0.2-1-0.6-1s-0.6,0.3-0.6,1s0.2,1.1,0.6,1.1S248,260.7,248,260z M247.2,260c0-0.2,0.1-0.3,0.2-0.3
						c0.1,0,0.2,0.1,0.2,0.3c0,0.2-0.1,0.3-0.2,0.3C247.3,260.2,247.2,260.1,247.2,260z"/>
					<path d="M249.4,261.9c0.3-0.1,0.5-0.4,0.5-0.7l-0.1-0.4l0.2,0.3c-0.1,0.1-0.1,0.1-0.2,0.1c-0.2,0-0.3-0.1-0.3-0.3
						c0-0.2,0.1-0.3,0.3-0.3c0.2,0,0.4,0.2,0.4,0.5c0,0.5-0.3,0.8-0.7,1L249.4,261.9z"/>
					<path d="M251.4,261h0.7v-1.9h-0.6v-0.2c0.3,0,0.5-0.1,0.6-0.2h0.2v2.3h0.7v0.3h-1.7V261z"/>
					<path d="M253.7,260.1c0-1,0.5-1.4,1.1-1.4c0.3,0,0.5,0.1,0.7,0.3l-0.2,0.2c-0.1-0.1-0.3-0.2-0.5-0.2c-0.4,0-0.8,0.3-0.8,1.1
						c0,0.6,0.2,1,0.7,1c0.3,0,0.5-0.2,0.5-0.6c0-0.4-0.2-0.5-0.5-0.5c-0.2,0-0.4,0.1-0.7,0.4l0-0.3c0.2-0.2,0.5-0.4,0.7-0.4
						c0.5,0,0.8,0.3,0.8,0.8c0,0.5-0.4,0.8-0.9,0.8C254.1,261.3,253.7,260.9,253.7,260.1z"/>
					<path d="M256,260c0-0.9,0.4-1.3,0.9-1.3s0.9,0.5,0.9,1.3c0,0.8-0.4,1.3-0.9,1.3C256.4,261.3,256,260.8,256,260z M257.5,260
						c0-0.7-0.2-1-0.6-1s-0.6,0.3-0.6,1s0.2,1.1,0.6,1.1S257.5,260.7,257.5,260z M256.7,260c0-0.2,0.1-0.3,0.2-0.3
						c0.1,0,0.2,0.1,0.2,0.3c0,0.2-0.1,0.3-0.2,0.3C256.8,260.2,256.7,260.1,256.7,260z"/>
					<path d="M258.6,261.8c0.5-0.5,0.8-1,0.8-1.6s-0.2-1.2-0.8-1.6l0.2-0.2c0.5,0.4,0.9,1,0.9,1.8s-0.3,1.4-0.9,1.8L258.6,261.8z"/>
				</g>
			</g>
			<g>
				<g>
					<path d="M292.9,260.5c0-0.8,0.3-1.4,0.9-1.8l0.2,0.2c-0.5,0.5-0.8,1-0.8,1.6s0.2,1.2,0.8,1.6l-0.2,0.2
						C293.2,261.8,292.9,261.2,292.9,260.5z"/>
					<path d="M294.7,260.9c0-0.4,0.3-0.5,0.5-0.7v0c-0.2-0.1-0.4-0.3-0.4-0.6c0-0.4,0.3-0.6,0.8-0.6c0.5,0,0.8,0.3,0.8,0.7
						c0,0.2-0.2,0.5-0.4,0.6v0c0.3,0.1,0.5,0.3,0.5,0.7c0,0.4-0.3,0.7-0.9,0.7C295,261.6,294.7,261.3,294.7,260.9z M296.2,260.9
						c0-0.4-0.4-0.4-0.8-0.6c-0.2,0.1-0.4,0.3-0.4,0.5c0,0.3,0.2,0.5,0.6,0.5C296,261.4,296.2,261.2,296.2,260.9z M296.1,259.7
						c0-0.2-0.2-0.4-0.5-0.4c-0.3,0-0.5,0.2-0.5,0.4c0,0.3,0.3,0.4,0.7,0.5C296,260,296.1,259.9,296.1,259.7z"/>
					<path d="M297.1,260.3c0-0.9,0.4-1.3,0.9-1.3s0.9,0.5,0.9,1.3c0,0.8-0.4,1.3-0.9,1.3S297.1,261.1,297.1,260.3z M298.6,260.3
						c0-0.7-0.2-1-0.6-1s-0.6,0.3-0.6,1s0.2,1.1,0.6,1.1C298.3,261.4,298.6,261,298.6,260.3z M297.7,260.3c0-0.2,0.1-0.3,0.2-0.3
						c0.1,0,0.2,0.1,0.2,0.3c0,0.2-0.1,0.3-0.2,0.3C297.9,260.5,297.7,260.4,297.7,260.3z"/>
					<path d="M300,262.2c0.3-0.1,0.5-0.4,0.5-0.7l-0.1-0.4l0.2,0.3c-0.1,0.1-0.1,0.1-0.2,0.1c-0.2,0-0.3-0.1-0.3-0.3
						c0-0.2,0.1-0.3,0.3-0.3c0.2,0,0.4,0.2,0.4,0.5c0,0.5-0.3,0.8-0.7,1L300,262.2z"/>
					<path d="M301.9,261.3h0.7v-1.9h-0.6v-0.2c0.3,0,0.5-0.1,0.6-0.2h0.2v2.3h0.7v0.3h-1.7V261.3z"/>
					<path d="M304.2,260.4c0-1,0.5-1.4,1.1-1.4c0.3,0,0.5,0.1,0.7,0.3l-0.2,0.2c-0.1-0.1-0.3-0.2-0.5-0.2c-0.4,0-0.8,0.3-0.8,1.1
						c0,0.6,0.2,1,0.7,1c0.3,0,0.5-0.2,0.5-0.6c0-0.4-0.2-0.5-0.5-0.5c-0.2,0-0.4,0.1-0.7,0.4l0-0.3c0.2-0.2,0.5-0.4,0.7-0.4
						c0.5,0,0.8,0.3,0.8,0.8c0,0.5-0.4,0.8-0.9,0.8C304.7,261.6,304.2,261.2,304.2,260.4z"/>
					<path d="M306.6,260.3c0-0.9,0.4-1.3,0.9-1.3s0.9,0.5,0.9,1.3c0,0.8-0.4,1.3-0.9,1.3C306.9,261.6,306.6,261.1,306.6,260.3z
						 M308.1,260.3c0-0.7-0.2-1-0.6-1s-0.6,0.3-0.6,1s0.2,1.1,0.6,1.1C307.9,261.4,308.1,261,308.1,260.3z M307.3,260.3
						c0-0.2,0.1-0.3,0.2-0.3c0.1,0,0.2,0.1,0.2,0.3c0,0.2-0.1,0.3-0.2,0.3C307.4,260.5,307.3,260.4,307.3,260.3z"/>
					<path d="M309.2,262.1c0.5-0.5,0.8-1,0.8-1.6s-0.2-1.2-0.8-1.6l0.2-0.2c0.5,0.4,0.9,1,0.9,1.8s-0.3,1.4-0.9,1.8L309.2,262.1z"/>
				</g>
			</g>
		</g>
	</g>
</g>
</svg>
