<?xml version="1.0" encoding="utf-8"?>
<!-- Generator: Adobe Illustrator 23.1.1, SVG Export Plug-In . SVG Version: 6.00 Build 0)  -->
<svg version="1.1" xmlns="http://www.w3.org/2000/svg" xmlns:xlink="http://www.w3.org/1999/xlink" x="0px" y="0px"
	 viewBox="0 0 340 253.5" style="enable-background:new 0 0 340 253.5;" xml:space="preserve">
<style type="text/css">
	.st0{fill:#676767;}
	.st1{fill:#E93725;}
	.st2{fill:#CCCCCB;}
	.st3{fill:#796350;}
	.st4{fill:#595959;}
	.st5{fill:#DC8844;}
	.st6{fill:#907259;}
	.st7{fill:#BD7F4C;}
	.st8{fill:#131313;}
	.st9{fill:#CC732A;}
	.st10{fill:#575655;}
	.st11{fill:#E5F4F7;stroke:#5C5A5C;stroke-width:2;stroke-linecap:round;stroke-linejoin:round;stroke-miterlimit:10;}
	.st12{fill:none;}
	.st13{font-family:'ArialMT';}
	.st14{font-size:7px;}
	.st15{font-size:5px;}
	.st16{font-size:4px;}
</style>
<g id="Layer_1">
	<g>
		<g>
			<g>
				<g>
					<path class="st0" d="M0.2,63.5c0-0.3,0-0.7,0-1c0-17.7,0-35.4,0-53.1C0.2,5,3.3,1,7.7,0.1C8.3,0,8.9,0,9.4,0
						c48,0,95.9,0,143.8,0c4.7,0,8.9,4,9.1,8.2c0.1,1.1,0.1,2.2,0.1,3.2c0,20,0,40.1,0,60.1c0,3.4-1,6.3-3.9,8.4
						c-1.6,1.1-3.4,1.8-5.3,1.8c-6.3,0.1-12.7,0-19,0c0-0.1,0-0.1,0-0.2c0.2-0.2,0.3-0.5,0.2-0.8c0-0.1,0-0.1,0-0.2
						c6.1,0,12.1,0,18.1,0c0.7,0,1.4-0.1,2.2-0.2c3.9-0.9,6.3-3.8,6.4-7.1c0.2-7.8,0.1-15.7,0-23.6c0-0.1,0-0.1,0-0.2
						c0.4-0.3,0.6-0.7,0.6-1.2c0-4.9,0-9.9,0-14.8c0-0.5-0.1-1-0.8-1.1c0.2-0.4,0.2-0.8,0.2-1.2c0-7.1,0-14.2,0-21.3
						c0-0.9-0.1-1.9-0.4-2.8c-1-3.6-4.1-5.8-8.1-5.8c-35.2,0-70.5,0-105.7,0c-0.2-0.6-0.7-0.7-1.2-0.7c-3.8,0-7.5,0-11.2,0
						c-0.4,0-0.9,0-1.1,0.5c0,0.2-0.1,0.2-0.1,0.3c-7.8,0-15.6,0-23.4,0c-0.7,0-1.4,0-2,0.1C4,2.2,1.5,5.4,1.5,9.6
						c0,14.4,0,28.7,0,43.1c0,3.6,0,7.1,0,10.6C1,63.2,0.6,63.3,0.2,63.5z"/>
					<path class="st0" d="M120.9,81.7c-0.4,0-0.7,0-1.1,0c-36.7,0-73.3,0-110,0c-4.8,0-8.5-3-9.5-7.6c-0.1-0.7-0.1-1.3-0.1-1.9
						c0.4,0.3,0.8,0.3,1.3,0.2c-0.1,4.2,3.4,8,8.3,8c37,0,73.9,0,110.9,0c-0.1,0.4,0,0.8,0.2,1.1C120.9,81.6,120.9,81.7,120.9,81.7z
						"/>
					<path class="st1" d="M120.9,81.5c-0.2-0.4-0.3-0.7-0.2-1.1c0.3-0.3,0.7-0.4,1.2-0.4c3.8,0,7.5,0,11.3,0c0.4,0,0.8,0,1,0.4
						c0.1,0.1,0.1,0.2,0.1,0.2c0.1,0.3,0,0.6-0.2,0.8c-0.1,0.1-0.2,0.1-0.3,0.2c-4.2,0-8.5,0-12.7,0C121.1,81.7,121,81.6,120.9,81.5
						z"/>
					<path class="st1" d="M1.5,72.4c-0.4,0-0.9,0.1-1.3-0.2c0-0.1,0-0.2-0.1-0.2c0-0.1,0-0.1-0.1-0.2c0-1.1,0-2.2,0-3.2v-0.1v-0.1
						c0-0.1,0.1-0.2,0.1-0.3c0.4-0.2,0.9,0.2,1.2-0.2C2.1,69.4,2.2,70.9,1.5,72.4z"/>
					<path class="st2" d="M1.5,67.9c-0.4,0.3-0.9,0-1.2,0.2c-0.3-1.5-0.3-3,0-4.5c0.4-0.2,0.8-0.3,1.2-0.2C2,64.8,1.9,66.4,1.5,67.9
						z"/>
					<path class="st3" d="M0.1,71.7c0,0.1,0,0.1,0.1,0.2C0.2,71.9,0.1,71.8,0.1,71.7z"/>
					<path class="st3" d="M0.2,68.3L0.2,68.3v0.2C0.1,68.4,0.1,68.4,0.2,68.3z"/>
					<path class="st4" d="M120.9,81.5c0.1,0.1,0.2,0.1,0.2,0.2c-0.1,0-0.2,0-0.3,0C120.9,81.7,120.9,81.6,120.9,81.5z"/>
					<path class="st4" d="M133.9,81.7c0.1-0.1,0.2-0.1,0.3-0.2c0,0.1,0,0.1,0,0.2C134.1,81.7,134,81.7,133.9,81.7z"/>
					<path class="st5" d="M1.5,67.9c0.4-1.5,0.5-3-0.1-4.5c0-3.6,0-7.1,0-10.6c0-14.4,0-28.7,0-43.1c0-4.2,2.4-7.3,6.4-8.2
						c0.7-0.1,1.4-0.1,2-0.1c7.8,0,15.6,0,23.4,0c0.1,0,0.1,0.1,0.2,0.1c-0.1,0.9,0.5,1,1.2,1c3.7,0,7.4,0,11.2,0
						c0.7,0,1.2-0.3,1.2-1c35.2,0,70.5,0,105.7,0c4,0,7.1,2.2,8.1,5.8c0.2,0.9,0.4,1.8,0.4,2.8c0,7.1,0,14.2,0,21.3
						c0,0.4,0.1,0.8-0.2,1.2c-0.7,0.1-0.9,0.5-0.9,1.1c0,4.9,0,9.8,0,14.8c0,0.6,0.2,1.1,0.9,1.2c0.1,0.1,0.1,0.1,0.2,0.2
						c0,7.8,0.2,15.7,0,23.6c-0.1,3.2-2.4,6.2-6.4,7.1c-0.7,0.2-1.4,0.2-2.2,0.2c-6.1,0-12.1,0-18.1,0c-0.1,0-0.1,0-0.2,0
						c-0.2-0.4-0.6-0.4-1-0.4c-3.8,0-7.5,0-11.3,0c-0.5,0-0.8,0.1-1.2,0.4c-37,0-73.9,0-110.9,0c-4.9,0-8.4-3.8-8.3-8
						C2.2,70.9,2.1,69.4,1.5,67.9z M145.3,15c0.1,0,0.3,0,0.3,0c0.1-0.2-0.1-0.3-0.3-0.3c-0.7-0.5-1.5-0.7-2.4-0.7
						c-8.2,0-16.4,0-24.7,0c-1,0-1.9,0.3-2.7,1c-1.5,1.1-1.7,2.7-1.7,4.3c0,14.3,0,28.5,0,42.8c0,0.5,0.1,1.1,0.1,1.6
						c0.3,2.2,2.1,3.7,4.3,3.7c8.3,0,16.5,0,24.8,0c0.9,0,1.8-0.2,2.7-1.1c-0.6,0-1,0-1.4,0c-8.1,0-16.3-0.1-24.5,0
						c-2.7,0-5-1.6-5-4.9c0-13.8,0-27.5,0-41.3c0-0.9,0-1.8,0.4-2.6c0.8-1.6,2.1-2.5,4-2.5C128,15,136.6,15,145.3,15z M55.1,61.5
						c13.3,0,26.7,0,40,0c1,0,1.2-0.3,1.2-1.2c0-12.9,0-25.8,0-38.7c0-0.9-0.2-1.2-1.2-1.2c-26.6,0-53.3,0-79.9,0
						c-1,0-1.2,0.2-1.2,1.2c0,12.9,0,25.8,0,38.7c0,0.9,0.2,1.3,1.2,1.3C28.6,61.5,41.9,61.5,55.1,61.5z M133.3,44.6
						c0-0.1,0-0.2,0.1-0.2c0.4,0,0.7,0,1,0c3.3,0,6.5,0,9.8,0c0.9,0,1.1-0.3,1.1-1.1c-0.1-0.9,0-1.9,0-2.8c0-0.6-0.2-0.9-0.8-0.9
						c-5.7,0-11.4,0-17.1,0c-0.7,0-0.9,0.3-0.8,0.9c0,1.2,0.1,2.3,0,3.5c-0.1,0.8,0.2,1.3,1,1.7c2.4,1,4.8,2.1,7.1,3.2
						c0.3,0.1,0.8,0.1,0.8,0.5s-0.5,0.4-0.8,0.6c-2.4,1.1-4.8,2.2-7.2,3.2c-0.5,0.2-0.9,0.4-0.9,1.1c0,1.4,0,2.8,0,4.1
						c0,0.5,0.2,0.8,0.8,0.8c5.7,0,11.5,0,17.2,0c0.6,0,0.8-0.2,0.8-0.8c0-0.9-0.1-1.9,0-2.8c0-0.8-0.3-1-1-1c-3.3,0-6.6,0-9.9,0
						c-0.3,0-0.7,0-1,0c2.1-1.1,4.2-2,6.4-2.9c0.5-0.2,1.1-0.3,1.2-1c0.4-2.2,0-2.9-2-3.7H139C137,46.2,135.2,45.4,133.3,44.6z
						 M126.6,28c0,1.8,0.1,3.6,0,5.4c0,0.9,0.2,1.3,1.2,1.2c2.8-0.1,5.5-0.1,8.3,0c1,0,1.3-0.2,1-1.2c-0.5-1.8-0.6-3.7-0.2-5.6
						c0.3-1.2,1.1-2,2.2-2.1c1.1-0.1,2.1,0.5,2.5,1.7c0.4,1,0.6,2.1,0.4,3.2c-0.2,1.3-0.6,2.6-1.3,3.8c-0.4,0.8-0.2,1.1,0.7,1.1
						c0.8,0,1.5,0,2.3,0c0.6,0,0.9-0.2,1.1-0.8c0.5-1.4,0.7-2.8,0.8-4.2c0.2-2.6,0-5.1-1.7-7.2c-1.6-2.1-3.8-2.7-6.2-2.3
						c-2.2,0.3-3.5,1.8-4.1,3.8c-0.4,1.4-0.6,2.8-0.5,4.3c0,0.7-0.2,1-0.9,1c-0.2,0-0.5,0-0.8,0c-0.9,0.1-1.2-0.2-1.2-1.1
						c0.1-1.6,0-3.3,0-4.9c0-2.8,0-2.8-2.8-2.7c-0.7,0-0.9,0.3-0.9,1C126.6,24.2,126.6,26.1,126.6,28z"/>
					<path class="st2" d="M161,49.4c-0.6-0.1-0.9-0.6-0.9-1.2c0-4.9,0-9.8,0-14.8c0-0.6,0.2-1.1,0.9-1.1s0.8,0.5,0.8,1.1
						c0,4.9,0,9.9,0,14.8c0,0.5-0.2,0.9-0.6,1.2C161.1,49.4,161,49.4,161,49.4z"/>
					<path class="st2" d="M47,1.3c0,0.8-0.5,1-1.2,1c-3.7,0-7.4,0-11.2,0c-0.7,0-1.3-0.1-1.2-1c0-0.1,0-0.1,0-0.2
						c0.2-0.5,0.7-0.5,1.1-0.5c3.8,0,7.5,0,11.2,0C46.4,0.6,46.8,0.7,47,1.3z"/>
					<path class="st6" d="M33.5,1.1c0,0.1,0,0.1,0,0.2c-0.1,0-0.1,0-0.2-0.1C33.3,1.2,33.4,1.2,33.5,1.1z"/>
					<path class="st7" d="M134.2,80.4c0.1,0,0.1,0,0.2,0c0,0.1,0,0.1,0,0.2C134.3,80.6,134.3,80.5,134.2,80.4z"/>
					<path class="st7" d="M161,49.4c0.1,0,0.1,0,0.2,0c0,0.1,0,0.1,0,0.2C161.1,49.5,161,49.5,161,49.4z"/>
					<path class="st8" d="M55.1,61.5c-13.3,0-26.5,0-39.8,0c-1,0-1.2-0.3-1.2-1.3c0-12.9,0-25.8,0-38.7c0-0.9,0.2-1.2,1.2-1.2
						c26.6,0,53.3,0,79.9,0c1,0,1.2,0.3,1.2,1.2c0,12.9,0,25.8,0,38.7c0,1-0.2,1.2-1.2,1.2C81.8,61.5,68.5,61.5,55.1,61.5z"/>
					<path class="st9" d="M133.3,44.6c1.8,0.8,3.7,1.6,5.5,2.4h0.1c2,0.8,2.4,1.6,2,3.7c-0.1,0.7-0.7,0.8-1.2,1
						c-2.1,0.9-4.2,1.8-6.4,2.9c0.3,0,0.7,0,1,0c3.3,0,6.6,0,9.9,0c0.7,0,1.1,0.2,1,1c-0.1,0.9,0,1.9,0,2.8c0,0.6-0.2,0.8-0.8,0.8
						c-5.7,0-11.5,0-17.2,0c-0.6,0-0.8-0.2-0.8-0.8c0-1.4,0-2.8,0-4.1c0-0.7,0.4-0.9,0.9-1.1c2.4-1.1,4.8-2.1,7.2-3.2
						c0.3-0.1,0.8-0.2,0.8-0.6s-0.5-0.4-0.8-0.5c-2.4-1.1-4.7-2.2-7.1-3.2c-0.8-0.3-1.1-0.8-1-1.7c0.1-1.2,0-2.3,0-3.5
						c0-0.6,0.1-0.9,0.8-0.9c5.7,0,11.4,0,17.1,0c0.6,0,0.8,0.3,0.8,0.9c0,0.9-0.1,1.9,0,2.8c0.1,0.8-0.2,1.1-1.1,1.1
						c-3.3-0.1-6.5,0-9.8,0c-0.4,0-0.7,0-1,0C133.4,44.5,133.4,44.5,133.3,44.6z"/>
					<path class="st9" d="M126.6,28c0-1.9,0-3.8,0-5.7c0-0.7,0.2-0.9,0.9-1c2.8-0.1,2.8-0.1,2.8,2.7c0,1.6,0.1,3.3,0,4.9
						c0,0.9,0.3,1.2,1.2,1.1c0.2,0,0.5,0,0.8,0c0.7,0.1,0.9-0.3,0.9-1c0-1.4,0.1-2.9,0.5-4.3c0.6-2.1,1.9-3.5,4.1-3.8
						c2.4-0.3,4.6,0.2,6.2,2.3c1.7,2.2,1.9,4.7,1.7,7.2c-0.1,1.4-0.3,2.9-0.8,4.2c-0.2,0.6-0.5,0.8-1.1,0.8c-0.8-0.1-1.5,0-2.3,0
						c-0.9,0-1.2-0.3-0.7-1.1c0.7-1.2,1-2.5,1.3-3.8c0.2-1.1,0-2.2-0.4-3.2c-0.5-1.2-1.5-1.8-2.5-1.7s-1.9,0.9-2.2,2.1
						c-0.4,1.9-0.4,3.7,0.2,5.6c0.3,1,0,1.2-1,1.2c-2.8-0.1-5.5-0.1-8.3,0c-1,0-1.2-0.3-1.2-1.2C126.6,31.6,126.6,29.8,126.6,28z"/>
					<path class="st10" d="M145.3,15c-8.7,0-17.3,0-26,0c-1.9,0-3.2,0.8-4,2.5c-0.4,0.8-0.4,1.8-0.4,2.6c0,13.8,0,27.5,0,41.3
						c0,3.4,2.3,5,5,4.9c8.1-0.1,16.3,0,24.5,0c0.4,0,0.8,0,1.4,0c-0.9,0.8-1.8,1.1-2.7,1.1c-8.3,0-16.5,0-24.8,0
						c-2.2,0-3.9-1.6-4.3-3.7c-0.1-0.5-0.1-1.1-0.1-1.6c0-14.3,0-28.5,0-42.8c0-1.7,0.3-3.3,1.7-4.3c0.8-0.6,1.7-1,2.7-1
						c8.2,0,16.4,0,24.7,0c0.9,0,1.6,0.2,2.4,0.7C145.3,14.7,145.3,14.9,145.3,15z"/>
					<path class="st3" d="M145.3,15c0-0.1,0-0.2,0-0.4c0.2,0.1,0.3,0.1,0.3,0.3C145.6,15,145.4,15,145.3,15z"/>
				</g>
				<rect x="14.4" y="20.2" class="st11" width="82" height="41.9"/>
			</g>
			<g>
				<g>
					<path class="st0" d="M339.8,18.4c0,0.3,0,0.7,0,1c0,17.7,0,35.4,0,53.1c0,4.4-3.1,8.4-7.5,9.3c-0.6,0.1-1.1,0.1-1.7,0.1
						c-48,0-95.9,0-143.9,0c-4.7,0-8.9-4-9.1-8.2c-0.1-1.1-0.1-2.2-0.1-3.2c0-20,0-40.1,0-60.1c0-3.4,1-6.3,3.9-8.4
						c1.6-1.1,3.4-1.8,5.3-1.8c6.3,0,12.7,0,19,0c0,0.1,0,0.1,0,0.2c-0.2,0.2-0.3,0.5-0.2,0.8c0,0.1,0,0.2,0,0.2
						c-6.1,0-12.1,0-18.1,0c-0.7,0-1.4,0-2.2,0.2c-3.9,0.9-6.3,3.8-6.4,7.1c-0.2,7.9-0.1,15.7,0,23.6c0,0.1,0,0.1,0,0.2
						c-0.4,0.3-0.6,0.7-0.6,1.2c0,4.9,0,9.9,0,14.8c0,0.5,0.1,1,0.8,1.1c-0.2,0.4-0.2,0.8-0.2,1.2c0,7.1,0,14.2,0,21.3
						c0,0.9,0.1,1.9,0.4,2.8c1,3.6,4.1,5.8,8.1,5.8c35.2,0,70.5,0,105.7,0c0.2,0.6,0.7,0.7,1.2,0.7c3.8,0,7.5,0,11.2,0
						c0.4,0,0.9,0,1.1-0.5c0.1-0.1,0.1-0.1,0.2-0.1c7.8,0,15.6,0,23.4,0c0.7,0,1.4,0,2-0.1c3.9-0.8,6.4-3.9,6.4-8.2
						c0-14.4,0-28.7,0-43.1c0-3.6,0-7.1,0-10.6C339,18.7,339.4,18.6,339.8,18.4z"/>
					<path class="st0" d="M219.1,0.2c0.4,0,0.7,0,1.1,0c36.7,0,73.3,0,110,0c4.8,0,8.5,3,9.5,7.6c0.1,0.7,0.1,1.3,0.1,1.9
						c-0.4-0.3-0.8-0.3-1.3-0.2c0.1-4.2-3.4-8-8.3-8c-37,0-74,0-110.9,0c0.1-0.4,0-0.8-0.2-1.1C219.1,0.3,219.1,0.2,219.1,0.2z"/>
					<path class="st1" d="M219.1,0.4c0.2,0.3,0.3,0.7,0.2,1.1c-0.3,0.3-0.7,0.4-1.2,0.4c-3.8,0-7.5,0-11.3,0c-0.4,0-0.8,0-1-0.4
						c-0.1-0.1-0.1-0.2-0.1-0.2c-0.1-0.3,0-0.6,0.2-0.8c0.1-0.1,0.2-0.1,0.3-0.2c4.2,0,8.5,0,12.7,0C218.9,0.2,219,0.3,219.1,0.4z"
						/>
					<path class="st1" d="M338.5,9.5c0.4,0,0.9-0.1,1.3,0.2c0,0.1,0,0.2,0.1,0.2c0,0.1,0,0.1,0.1,0.2c0,1.1,0,2.2,0,3.2v0.1v0.1
						c0,0.1-0.1,0.2-0.1,0.3c-0.4,0.2-0.9-0.2-1.2,0.2C337.9,12.5,337.8,11,338.5,9.5z"/>
					<path class="st2" d="M338.5,14c0.4-0.3,0.9,0,1.2-0.2c0.3,1.5,0.3,3,0,4.5c-0.4,0.2-0.8,0.3-1.2,0.2
						C338,17.1,338.1,15.5,338.5,14z"/>
					<path class="st3" d="M339.9,10.1c0-0.1,0-0.1-0.1-0.2C339.8,10,339.9,10.1,339.9,10.1z"/>
					<path class="st3" d="M339.8,13.5L339.8,13.5v-0.2C339.9,13.5,339.9,13.5,339.8,13.5z"/>
					<path class="st4" d="M219.1,0.4c-0.1-0.1-0.2-0.1-0.2-0.2c0.1,0,0.2,0,0.3,0C219.1,0.2,219.1,0.3,219.1,0.4z"/>
					<path class="st4" d="M206.1,0.2c-0.1,0.1-0.2,0.1-0.3,0.2c0-0.1,0-0.1,0-0.2C205.9,0.2,206,0.2,206.1,0.2z"/>
					<path class="st5" d="M338.5,14c-0.4,1.5-0.5,3,0.1,4.5c0,3.6,0,7.1,0,10.6c0,14.4,0,28.7,0,43.1c0,4.2-2.4,7.3-6.4,8.2
						c-0.7,0.1-1.4,0.1-2,0.1c-7.8,0-15.6,0-23.4,0c-0.1,0-0.1-0.1-0.2-0.1c0.1-0.9-0.5-1-1.2-1c-3.7,0-7.4,0-11.1,0
						c-0.7,0-1.2,0.3-1.2,1.1c-35.2,0-70.5,0-105.7,0c-4,0-7.1-2.2-8.1-5.8c-0.2-0.9-0.4-1.8-0.4-2.8c0-7.1,0-14.2,0-21.3
						c0-0.4-0.1-0.8,0.2-1.2c0.7-0.1,0.9-0.5,0.9-1.1c0-4.9,0-9.8,0-14.8c0-0.6-0.2-1.1-0.9-1.2c-0.1-0.1-0.1-0.1-0.2-0.2
						c0-7.8-0.2-15.7,0-23.6c0.1-3.2,2.4-6.2,6.4-7.1c0.7-0.2,1.4-0.2,2.2-0.2c6.1,0,12.1,0,18.1,0c0.1,0,0.1,0,0.2,0
						c0.2,0.4,0.6,0.4,1,0.4c3.8,0,7.5,0,11.3,0c0.5,0,0.8-0.1,1.2-0.4c37,0,74,0,110.9,0c4.9,0,8.4,3.8,8.3,8
						C337.8,11,337.9,12.5,338.5,14z M194.7,66.9c-0.1,0-0.3,0-0.3,0c-0.1,0.2,0.1,0.3,0.3,0.3c0.7,0.5,1.5,0.7,2.4,0.7
						c8.2,0,16.4,0,24.7,0c1,0,1.9-0.3,2.7-0.9c1.5-1.1,1.7-2.7,1.7-4.3c0-14.3,0-28.5,0-42.8c0-0.5,0-1.1-0.1-1.6
						c-0.3-2.2-2.1-3.7-4.3-3.7c-8.3,0-16.5,0-24.8,0c-0.9,0-1.8,0.2-2.7,1.1c0.6,0,1,0,1.4,0c8.1,0,16.3,0.1,24.5,0
						c2.7,0,5,1.6,5,4.9c0,13.8,0,27.5,0,41.3c0,0.9,0,1.8-0.4,2.6c-0.8,1.6-2.1,2.5-4,2.5C212,66.9,203.4,66.9,194.7,66.9z
						 M284.9,20.3c-13.3,0-26.7,0-40,0c-1,0-1.2,0.3-1.2,1.2c0,12.9,0,25.8,0,38.7c0,0.9,0.2,1.2,1.2,1.2c26.6,0,53.3,0,79.9,0
						c1,0,1.2-0.2,1.2-1.2c0-12.9,0-25.8,0-38.7c0-0.9-0.2-1.3-1.2-1.3C311.4,20.4,298.1,20.3,284.9,20.3z M206.7,37.3
						c0,0.1,0,0.2-0.1,0.2c-0.4,0-0.7,0-1,0c-3.3,0-6.5,0-9.8,0c-0.9,0-1.1,0.3-1.1,1.1c0.1,0.9,0,1.9,0,2.8c0,0.6,0.2,0.9,0.8,0.9
						c5.7,0,11.4,0,17.1,0c0.7,0,0.9-0.3,0.8-0.9c0-1.2-0.1-2.3,0-3.5c0.1-0.8-0.2-1.3-1-1.7c-2.4-1-4.8-2.1-7.1-3.2
						c-0.3-0.1-0.8-0.1-0.8-0.5s0.5-0.4,0.8-0.6c2.4-1.1,4.8-2.2,7.2-3.2c0.5-0.2,0.9-0.4,0.9-1.1c0-1.4,0-2.8,0-4.1
						c0-0.5-0.2-0.8-0.8-0.8c-5.7,0-11.5,0-17.2,0c-0.6,0-0.8,0.2-0.8,0.8c0,0.9,0.1,1.9,0,2.8c0,0.8,0.3,1,1,1c3.3,0,6.6,0,9.9,0
						c0.3,0,0.7,0,1,0c-2.1,1.1-4.2,2-6.4,2.9c-0.5,0.2-1.1,0.3-1.2,1c-0.4,2.2,0,2.9,2,3.7h0.1C203,35.7,204.8,36.5,206.7,37.3z
						 M213.4,54c0-1.8-0.1-3.6,0-5.4c0-0.9-0.2-1.3-1.2-1.2c-2.8,0.1-5.5,0.1-8.3,0c-1,0-1.3,0.2-1,1.2c0.5,1.8,0.6,3.7,0.2,5.6
						c-0.3,1.2-1.1,2-2.2,2.1c-1.1,0.1-2.1-0.5-2.5-1.7c-0.4-1-0.6-2.1-0.4-3.2c0.2-1.3,0.6-2.6,1.3-3.8c0.4-0.8,0.2-1.1-0.7-1.1
						c-0.8,0-1.5,0-2.3,0c-0.6,0-0.9,0.2-1.1,0.8c-0.5,1.4-0.7,2.8-0.8,4.2c-0.2,2.6,0,5.1,1.7,7.2c1.6,2.1,3.8,2.7,6.2,2.3
						c2.2-0.3,3.5-1.8,4.1-3.8c0.4-1.4,0.6-2.8,0.5-4.3c0-0.7,0.2-1,0.9-1c0.2,0,0.5,0,0.8,0c0.9-0.1,1.2,0.2,1.2,1.1
						c-0.1,1.6,0,3.3,0,4.9c0,2.8,0,2.8,2.8,2.7c0.7,0,0.9-0.3,0.9-1C213.4,57.7,213.4,55.8,213.4,54z"/>
					<path class="st2" d="M179,32.5c0.6,0.1,0.9,0.6,0.9,1.2c0,4.9,0,9.8,0,14.8c0,0.6-0.2,1.1-0.9,1.1s-0.8-0.5-0.8-1.1
						c0-4.9,0-9.9,0-14.8c0-0.5,0.2-0.9,0.6-1.2C178.9,32.5,179,32.5,179,32.5z"/>
					<path class="st2" d="M293,80.6c0-0.8,0.5-1.1,1.2-1.1c3.7,0,7.4,0,11.1,0c0.7,0,1.3,0.1,1.2,1c0,0.1,0,0.1,0,0.2
						c-0.2,0.5-0.7,0.5-1.1,0.5c-3.8,0-7.5,0-11.2,0C293.6,81.3,293.2,81.2,293,80.6z"/>
					<path class="st6" d="M306.5,80.8c0-0.1,0-0.1,0-0.2c0.1,0,0.1,0,0.2,0.1C306.7,80.7,306.6,80.7,306.5,80.8z"/>
					<path class="st7" d="M205.8,1.5c-0.1,0-0.1,0-0.2,0c0-0.1,0-0.2,0-0.2C205.7,1.3,205.7,1.4,205.8,1.5z"/>
					<path class="st7" d="M179,32.5c-0.1,0-0.1,0-0.2,0c0-0.1,0-0.1,0-0.2C178.9,32.4,179,32.4,179,32.5z"/>
					<path class="st8" d="M284.9,20.3c13.3,0,26.5,0,39.8,0c1,0,1.2,0.3,1.2,1.3c0,12.9,0,25.8,0,38.7c0,0.9-0.2,1.2-1.2,1.2
						c-26.6,0-53.3,0-79.9,0c-1,0-1.2-0.3-1.2-1.2c0-12.9,0-25.8,0-38.7c0-1,0.2-1.2,1.2-1.2C258.2,20.4,271.5,20.3,284.9,20.3z"/>
					<path class="st9" d="M206.7,37.3c-1.8-0.8-3.7-1.6-5.5-2.4h-0.1c-2-0.8-2.4-1.6-2-3.7c0.1-0.7,0.7-0.8,1.2-1
						c2.1-0.9,4.2-1.8,6.4-2.9c-0.3,0-0.7,0-1,0c-3.3,0-6.6,0-9.9,0c-0.7,0-1.1-0.2-1-1c0.1-0.9,0-1.9,0-2.8c0-0.6,0.2-0.8,0.8-0.8
						c5.7,0,11.5,0,17.2,0c0.6,0,0.8,0.2,0.8,0.8c0,1.4,0,2.8,0,4.1c0,0.7-0.4,0.9-0.9,1.1c-2.4,1.1-4.8,2.1-7.2,3.2
						c-0.3,0.1-0.8,0.2-0.8,0.6s0.5,0.4,0.8,0.5c2.4,1.1,4.7,2.2,7.1,3.2c0.8,0.3,1.1,0.8,1,1.7c-0.1,1.2,0,2.3,0,3.5
						c0,0.6-0.1,0.9-0.8,0.9c-5.7,0-11.4,0-17.1,0c-0.6,0-0.8-0.3-0.8-0.9c0-0.9,0.1-1.9,0-2.8c-0.1-0.8,0.2-1.1,1.1-1.1
						c3.3,0.1,6.5,0,9.8,0c0.4,0,0.7,0,1,0C206.6,37.4,206.6,37.4,206.7,37.3z"/>
					<path class="st9" d="M213.4,54c0,1.9,0,3.8,0,5.7c0,0.7-0.2,0.9-0.9,1c-2.8,0.1-2.8,0.1-2.8-2.7c0-1.6-0.1-3.3,0-4.9
						c0-0.9-0.3-1.2-1.2-1.1c-0.2,0-0.5,0-0.8,0c-0.7-0.1-0.9,0.3-0.9,1c0,1.4-0.1,2.9-0.5,4.3c-0.6,2.1-1.9,3.5-4.1,3.8
						c-2.4,0.3-4.6-0.2-6.2-2.3c-1.7-2.2-1.9-4.7-1.7-7.2c0.1-1.4,0.3-2.9,0.8-4.2c0.2-0.6,0.5-0.8,1.1-0.8c0.8,0.1,1.5,0,2.3,0
						c0.9,0,1.2,0.3,0.7,1.1c-0.7,1.2-1,2.5-1.3,3.8c-0.2,1.1,0,2.2,0.4,3.2c0.5,1.2,1.5,1.8,2.5,1.7s1.9-0.9,2.2-2.1
						c0.4-1.9,0.4-3.7-0.2-5.6c-0.3-1,0-1.2,1-1.2c2.8,0.1,5.5,0.1,8.3,0c1,0,1.2,0.3,1.2,1.2C213.4,50.3,213.4,52.1,213.4,54z"/>
					<path class="st10" d="M194.7,66.9c8.7,0,17.3,0,26,0c1.9,0,3.2-0.8,4-2.5c0.4-0.8,0.4-1.8,0.4-2.6c0-13.8,0-27.5,0-41.3
						c0-3.4-2.3-5-5-4.9c-8.1,0.1-16.3,0-24.5,0c-0.4,0-0.8,0-1.4,0c0.9-0.8,1.8-1.1,2.7-1.1c8.3,0,16.5,0,24.8,0
						c2.2,0,4,1.6,4.3,3.7c0.1,0.5,0.1,1.1,0.1,1.6c0,14.3,0,28.5,0,42.8c0,1.7-0.3,3.3-1.7,4.3c-0.8,0.6-1.7,0.9-2.7,0.9
						c-8.2,0-16.4,0-24.7,0c-0.9,0-1.6-0.2-2.4-0.7C194.7,67.2,194.7,67,194.7,66.9z"/>
					<path class="st3" d="M194.7,66.9c0,0.1,0,0.2,0,0.4c-0.2-0.1-0.3-0.1-0.3-0.3C194.4,66.9,194.6,66.9,194.7,66.9z"/>
				</g>
				<rect x="243.6" y="19.8" class="st11" width="82" height="41.9"/>
			</g>
			<g>
				<g>
					<path class="st0" d="M56.4,90.7c0.3,0,0.7,0,1,0c17.7,0,35.4,0,53.1,0c4.4,0,8.4,3.1,9.3,7.5c0.1,0.6,0.1,1.1,0.1,1.7
						c0,47.9,0,95.9,0,143.8c0,4.7-4,8.9-8.2,9.1c-1.1,0.1-2.2,0.1-3.2,0.1c-20,0-40.1,0-60.1,0c-3.4,0-6.3-1-8.4-3.9
						c-1.1-1.6-1.8-3.4-1.8-5.3c-0.1-6.3,0-12.7,0-19c0.1,0,0.1,0,0.2,0c0.2,0.2,0.5,0.3,0.8,0.2c0.1,0,0.2,0,0.2,0
						c0,6,0,12.1,0,18.1c0,0.7,0.1,1.5,0.2,2.2c0.9,3.9,3.8,6.3,7.1,6.4c7.8,0.2,15.7,0,23.6,0c0.1,0,0.1,0,0.2,0
						c0.3,0.5,0.7,0.6,1.2,0.6c4.9,0,9.9,0,14.8,0c0.5,0,1-0.1,1.1-0.8c0.4,0.2,0.8,0.2,1.2,0.2c7.1,0,14.2,0,21.3,0
						c0.9,0,1.9-0.1,2.8-0.4c3.6-1,5.8-4.1,5.8-8.1c0-35.2,0-70.5,0-105.7c0.6-0.2,0.7-0.7,0.7-1.2c0-3.8,0-7.5,0-11.2
						c0-0.4,0-0.9-0.5-1.1c-0.1-0.1-0.1-0.1-0.1-0.2c0-7.8,0-15.6,0-23.4c0-0.7,0-1.4-0.1-2.1c-0.8-3.9-3.9-6.4-8.2-6.4
						c-14.4,0-28.7,0-43.1,0c-3.6,0-7.1,0-10.6,0C56.7,91.5,56.6,91.1,56.4,90.7z"/>
					<path class="st0" d="M38.2,211.4c0-0.4,0-0.7,0-1.1c0-36.7,0-73.3,0-110c0-4.8,3-8.5,7.6-9.5c0.7-0.1,1.3-0.1,1.9-0.1
						c-0.3,0.4-0.3,0.8-0.2,1.3c-4.2-0.1-8,3.4-8,8.3c0,37,0,73.9,0,110.9c-0.4-0.1-0.8,0-1.1,0.2C38.3,211.4,38.3,211.4,38.2,211.4
						z"/>
					<path class="st1" d="M38.4,211.4c0.3-0.2,0.7-0.3,1.1-0.2c0.3,0.3,0.4,0.7,0.4,1.2c0,3.8,0,7.5,0,11.3c0,0.4,0,0.8-0.4,1
						c-0.1,0-0.2,0.1-0.2,0.1c-0.3,0.1-0.6,0-0.8-0.2c-0.1-0.1-0.1-0.2-0.2-0.3c0-4.2,0-8.5,0-12.7
						C38.3,211.6,38.3,211.5,38.4,211.4z"/>
					<path class="st1" d="M47.5,92c0-0.4-0.1-0.9,0.2-1.3c0.1,0,0.2,0,0.2-0.1c0.1,0,0.1,0,0.2-0.1c1.1,0,2.2,0,3.2,0l0.1,0.1h0.1
						c0.1,0,0.2,0.1,0.3,0.1c0.2,0.4-0.2,0.9,0.2,1.2C50.5,92.5,49,92.6,47.5,92z"/>
					<path class="st2" d="M52.1,92c-0.3-0.4,0-0.9-0.2-1.2c1.5-0.3,3-0.3,4.5-0.1c0.2,0.4,0.3,0.8,0.2,1.2
						C55.1,92.5,53.6,92.4,52.1,92z"/>
					<path class="st3" d="M48.2,90.6c-0.1,0-0.1,0-0.2,0.1C48,90.6,48.1,90.6,48.2,90.6z"/>
					<path class="st3" d="M51.6,90.6L51.6,90.6l-0.2-0.1C51.5,90.5,51.5,90.5,51.6,90.6z"/>
					<path class="st4" d="M38.4,211.4c-0.1,0.1-0.1,0.2-0.2,0.2c0-0.1,0-0.2,0-0.3C38.3,211.4,38.3,211.4,38.4,211.4z"/>
					<path class="st4" d="M38.2,224.4c0.1,0.1,0.1,0.2,0.2,0.3c-0.1,0-0.1,0-0.2,0C38.2,224.6,38.2,224.5,38.2,224.4z"/>
					<path class="st5" d="M52.1,92c1.5,0.4,3,0.5,4.5-0.1c3.6,0,7.1,0,10.6,0c14.4,0,28.7,0,43.1,0c4.2,0,7.3,2.4,8.2,6.4
						c0.1,0.7,0.1,1.4,0.1,2.1c0,7.8,0,15.6,0,23.4c0,0.1-0.1,0.1-0.1,0.2c-0.9-0.1-1,0.5-1,1.2c0,3.7,0,7.4,0,11.1
						c0,0.7,0.3,1.2,1.1,1.2c0,35.2,0,70.5,0,105.7c0,4-2.2,7.1-5.8,8.1c-0.9,0.2-1.9,0.4-2.8,0.4c-7.1,0-14.2,0-21.3,0
						c-0.4,0-0.8,0.1-1.2-0.2c-0.1-0.7-0.5-0.9-1.1-0.9c-4.9,0-9.8,0-14.8,0c-0.6,0-1.1,0.2-1.2,0.9c-0.1,0-0.1,0.1-0.2,0.2
						c-7.8,0-15.7,0.2-23.6,0c-3.2-0.1-6.2-2.4-7.1-6.4c-0.2-0.7-0.2-1.4-0.2-2.2c0-6,0-12.1,0-18.1c0-0.1,0-0.1,0-0.2
						c0.4-0.2,0.4-0.6,0.4-1c0-3.8,0-7.5,0-11.3c0-0.5-0.1-0.8-0.4-1.2c0-37,0-73.9,0-110.9c0-4.9,3.8-8.4,8-8.3
						C49,92.6,50.5,92.5,52.1,92z M104.9,235.7c0,0.1,0,0.3,0,0.3c0.2,0.1,0.3-0.1,0.3-0.3c0.5-0.7,0.7-1.5,0.7-2.4
						c0-8.2,0-16.5,0-24.7c0-1-0.4-1.9-0.9-2.7c-1.1-1.5-2.7-1.7-4.4-1.7c-14.3,0-28.5,0-42.8,0c-0.5,0-1.1,0.1-1.6,0.1
						c-2.2,0.3-3.7,2.1-3.7,4.3c0,8.3,0,16.5,0,24.8c0,1,0.2,1.8,1.1,2.7c0-0.6,0-1,0-1.4c0-8.1,0.1-16.3,0-24.5c0-2.7,1.6-5,4.9-5
						c13.8,0,27.5,0,41.3,0c0.9,0,1.8,0,2.6,0.4c1.6,0.8,2.5,2.1,2.5,4C104.9,218.4,104.9,227.1,104.9,235.7z M58.4,145.6
						c0,13.3,0,26.7,0,40c0,1,0.3,1.2,1.2,1.2c12.9,0,25.8,0,38.7,0c0.9,0,1.2-0.2,1.2-1.2c0-26.6,0-53.3,0-79.9
						c0-1-0.2-1.2-1.2-1.2c-12.9,0-25.8,0-38.7,0c-0.9,0-1.3,0.2-1.3,1.2C58.4,119.1,58.4,132.3,58.4,145.6z M75.3,223.8
						c0.1,0,0.2,0,0.2,0.1c0,0.4,0,0.7,0,1c0,3.3,0,6.5,0,9.8c0,0.9,0.3,1.1,1.1,1.1c0.9-0.1,1.9,0,2.8,0c0.6,0,0.9-0.2,0.9-0.8
						c0-5.7,0-11.4,0-17.1c0-0.7-0.3-0.9-0.9-0.8c-1.2,0-2.3,0.1-3.5,0c-0.8,0-1.3,0.2-1.7,1c-1,2.4-2.1,4.8-3.2,7.1
						c-0.1,0.3-0.1,0.8-0.5,0.8s-0.4-0.5-0.6-0.8c-1.1-2.4-2.2-4.8-3.2-7.2c-0.2-0.5-0.4-0.9-1.1-0.9c-1.4,0-2.8,0-4.1,0
						c-0.5,0-0.8,0.2-0.8,0.8c0,5.7,0,11.5,0,17.2c0,0.6,0.2,0.8,0.8,0.8c0.9,0,1.9,0,2.8,0c0.8,0,1-0.3,1-1c0-3.3,0-6.6,0-9.9
						c0-0.3,0-0.7,0-1c1.1,2.1,2,4.2,2.9,6.4c0.2,0.5,0.3,1,1,1.2c2.2,0.4,2.9,0,3.7-2v-0.1C73.7,227.5,74.5,225.6,75.3,223.8z
						 M92,217.1c-1.8,0-3.6,0-5.4,0c-0.9,0-1.3,0.2-1.2,1.2c0.1,2.8,0.1,5.5,0,8.3c0,1,0.2,1.3,1.2,1c1.8-0.5,3.7-0.6,5.6-0.2
						c1.2,0.3,2,1.1,2.1,2.2c0.1,1.1-0.5,2.1-1.7,2.5c-1,0.4-2.1,0.6-3.2,0.4c-1.3-0.2-2.6-0.6-3.8-1.3c-0.8-0.4-1.1-0.2-1.1,0.7
						c0,0.8,0,1.5,0,2.3c0,0.6,0.2,0.9,0.8,1.1c1.4,0.5,2.8,0.7,4.2,0.8c2.6,0.2,5.1,0,7.2-1.7c2.1-1.6,2.6-3.8,2.3-6.2
						c-0.3-2.2-1.8-3.5-3.9-4.1c-1.4-0.4-2.8-0.6-4.3-0.5c-0.7,0-1-0.2-1-0.9c0-0.2,0-0.5,0-0.8c-0.1-0.9,0.2-1.2,1.1-1.2
						c1.6,0.1,3.3,0,4.9,0c2.8,0,2.8,0,2.7-2.8c0-0.7-0.3-0.9-1-0.9C95.8,217.1,93.9,217.1,92,217.1z"/>
					<path class="st2" d="M70.5,251.4c0.1-0.6,0.6-0.9,1.2-0.9c4.9,0,9.8,0,14.8,0c0.6,0,1.1,0.2,1.1,0.9s-0.5,0.8-1.1,0.8
						c-4.9,0-9.9,0-14.8,0c-0.5,0-0.9-0.2-1.2-0.6C70.5,251.6,70.5,251.5,70.5,251.4z"/>
					<path class="st2" d="M118.6,137.5c-0.8,0-1.1-0.5-1.1-1.2c0-3.7,0-7.4,0-11.1c0-0.7,0.1-1.3,1-1.2c0.1,0,0.1,0,0.2,0
						c0.5,0.2,0.5,0.7,0.5,1.1c0,3.8,0,7.5,0,11.2C119.3,136.8,119.2,137.3,118.6,137.5z"/>
					<path class="st6" d="M118.8,123.9c-0.1,0-0.1,0-0.2,0c0-0.1,0-0.1,0.1-0.2C118.7,123.8,118.8,123.8,118.8,123.9z"/>
					<path class="st7" d="M39.5,224.7c0,0.1,0,0.1,0,0.2c-0.1,0-0.2,0-0.2,0C39.3,224.8,39.4,224.7,39.5,224.7z"/>
					<path class="st7" d="M70.5,251.4c0,0.1,0,0.1,0,0.2c-0.1,0-0.1,0-0.2,0C70.4,251.5,70.5,251.5,70.5,251.4z"/>
					<path class="st8" d="M58.4,145.6c0-13.3,0-26.5,0-39.8c0-1,0.3-1.2,1.3-1.2c12.9,0,25.8,0,38.7,0c0.9,0,1.2,0.2,1.2,1.2
						c0,26.6,0,53.3,0,79.9c0,1-0.3,1.2-1.2,1.2c-12.9,0-25.8,0-38.7,0c-1,0-1.2-0.2-1.2-1.2C58.4,172.3,58.4,158.9,58.4,145.6z"/>
					<path class="st9" d="M75.3,223.8c-0.8,1.8-1.6,3.7-2.4,5.5v0.1c-0.8,2-1.6,2.4-3.7,2c-0.7-0.1-0.8-0.7-1-1.2
						c-0.9-2.1-1.8-4.2-2.9-6.4c0,0.3,0,0.7,0,1c0,3.3,0,6.6,0,9.9c0,0.7-0.2,1.1-1,1c-0.9,0-1.9,0-2.8,0c-0.6,0-0.8-0.2-0.8-0.8
						c0-5.7,0-11.5,0-17.2c0-0.6,0.2-0.8,0.8-0.8c1.4,0,2.8,0,4.1,0c0.7,0,0.9,0.4,1.1,0.9c1.1,2.4,2.1,4.8,3.2,7.2
						c0.1,0.3,0.2,0.8,0.6,0.8s0.4-0.5,0.5-0.8c1.1-2.4,2.2-4.7,3.2-7.1c0.3-0.8,0.8-1.1,1.7-1c1.2,0.1,2.3,0,3.5,0
						c0.6,0,0.9,0.1,0.9,0.8c0,5.7,0,11.4,0,17.1c0,0.6-0.3,0.8-0.9,0.8c-0.9,0-1.9,0-2.8,0c-0.8,0-1.1-0.2-1.1-1.1
						c0.1-3.3,0-6.5,0-9.8c0-0.4,0-0.7,0-1C75.5,223.8,75.4,223.8,75.3,223.8z"/>
					<path class="st9" d="M92,217.1c1.9,0,3.8,0,5.6,0c0.7,0,0.9,0.2,1,0.9c0.1,2.8,0.1,2.8-2.7,2.8c-1.6,0-3.3,0-4.9,0
						c-0.9,0-1.2,0.3-1.1,1.2c0,0.2,0,0.5,0,0.8c-0.1,0.7,0.3,0.9,1,0.9c1.4,0,2.9,0.1,4.3,0.5c2.1,0.6,3.5,1.9,3.9,4.1
						c0.4,2.4-0.2,4.6-2.3,6.2c-2.1,1.7-4.7,1.9-7.2,1.7c-1.4-0.1-2.9-0.3-4.2-0.8c-0.6-0.2-0.8-0.5-0.8-1.1c0.1-0.8,0-1.5,0-2.3
						c0-0.9,0.3-1.2,1.1-0.7c1.2,0.7,2.5,1,3.8,1.3c1.1,0.2,2.2,0,3.2-0.4c1.1-0.5,1.8-1.5,1.7-2.5c-0.1-1-0.9-1.9-2.1-2.2
						c-1.9-0.5-3.7-0.4-5.6,0.2c-1,0.3-1.2,0-1.2-1c0.1-2.8,0.1-5.5,0-8.3c0-1,0.3-1.2,1.2-1.2C88.4,217.1,90.2,217.1,92,217.1z"/>
					<path class="st10" d="M104.9,235.7c0-8.7,0-17.3,0-26c0-1.9-0.9-3.2-2.5-4c-0.8-0.4-1.8-0.4-2.6-0.4c-13.8,0-27.5,0-41.3,0
						c-3.4,0-5,2.3-4.9,5c0.1,8.1,0,16.3,0,24.5c0,0.4,0,0.8,0,1.4c-0.8-0.9-1.1-1.8-1.1-2.7c0-8.3,0-16.5,0-24.8
						c0-2.2,1.6-3.9,3.7-4.3c0.5-0.1,1.1-0.1,1.6-0.1c14.3,0,28.5,0,42.8,0c1.7,0,3.3,0.3,4.4,1.7c0.6,0.8,0.9,1.7,0.9,2.7
						c0,8.2,0,16.5,0,24.7c0,0.9-0.2,1.6-0.7,2.4C105.2,235.7,105.1,235.7,104.9,235.7z"/>
					<path class="st3" d="M104.9,235.7c0.1,0,0.2,0,0.4,0c-0.1,0.2-0.1,0.3-0.3,0.3C104.9,236,105,235.8,104.9,235.7z"/>
				</g>
				<rect x="57.9" y="104.9" class="st11" width="41.9" height="82"/>
			</g>
			<g>
				<g>
					<path class="st0" d="M287.4,253.3c-0.3,0-0.6,0-1,0c-17.7,0-35.4,0-53.1,0c-4.4,0-8.4-3.1-9.3-7.5c-0.1-0.6-0.1-1.1-0.1-1.7
						c0-47.9,0-95.9,0-143.9c0-4.7,4-8.9,8.2-9.1c1.1-0.1,2.2-0.1,3.2-0.1c20,0,40.1,0,60.1,0c3.4,0,6.3,1,8.4,3.9
						c1.1,1.6,1.8,3.4,1.8,5.3c0,6.3,0,12.7,0,19c-0.1,0-0.1,0-0.2,0c-0.2-0.2-0.5-0.3-0.8-0.2c-0.1,0-0.1,0-0.2,0
						c0-6.1,0-12.1,0-18.1c0-0.7,0-1.4-0.2-2.2c-0.9-3.9-3.8-6.3-7.1-6.4c-7.9-0.2-15.7-0.1-23.6,0c-0.1,0-0.1,0-0.2,0
						c-0.3-0.4-0.7-0.6-1.2-0.6c-4.9,0-9.9,0-14.8,0c-0.5,0-1,0.1-1,0.8c-0.4-0.2-0.8-0.2-1.2-0.2c-7.1,0-14.2,0-21.3,0
						c-0.9,0-1.9,0.1-2.8,0.4c-3.6,1-5.8,4.1-5.8,8.1c0,35.2,0,70.5,0,105.7c-0.6,0.2-0.7,0.7-0.7,1.2c0,3.8,0,7.5,0,11.2
						c0,0.4,0,0.9,0.5,1.1c0,0.1,0.1,0.1,0.1,0.2c0,7.8,0,15.6,0,23.4c0,0.7,0,1.4,0.1,2c0.8,3.9,4,6.4,8.2,6.4
						c14.4,0,28.7,0,43.1,0c3.5,0,7.1,0,10.6,0C287.1,252.5,287.2,252.9,287.4,253.3z"/>
					<path class="st0" d="M305.6,132.6c0,0.4,0,0.7,0,1.1c0,36.7,0,73.3,0,110c0,4.8-3,8.5-7.6,9.5c-0.6,0.1-1.3,0.1-1.9,0.1
						c0.3-0.4,0.3-0.8,0.2-1.3c4.2,0.1,8-3.4,8-8.3c0-37,0-73.9,0-110.9c0.4,0.1,0.8,0,1.1-0.2C305.5,132.6,305.6,132.6,305.6,132.6
						z"/>
					<path class="st1" d="M305.4,132.6c-0.4,0.2-0.7,0.3-1.1,0.2c-0.3-0.3-0.4-0.7-0.4-1.2c0-3.8,0-7.5,0-11.3c0-0.4,0-0.8,0.4-1
						c0.1-0.1,0.2-0.1,0.2-0.1c0.3-0.1,0.6,0,0.8,0.2c0.1,0.1,0.1,0.2,0.2,0.3c0,4.2,0,8.5,0,12.7
						C305.6,132.4,305.5,132.5,305.4,132.6z"/>
					<path class="st1" d="M296.3,252c0,0.4,0.1,0.9-0.2,1.3c-0.1,0-0.2,0-0.2,0.1c-0.1,0-0.1,0-0.2,0.1c-1.1,0-2.2,0-3.2,0h-0.1
						h-0.1c-0.1,0-0.2-0.1-0.3-0.1c-0.2-0.4,0.2-0.9-0.2-1.2C293.3,251.4,294.8,251.3,296.3,252z"/>
					<path class="st2" d="M291.8,252c0.4,0.4,0,0.9,0.2,1.2c-1.5,0.3-3,0.3-4.5,0c-0.2-0.4-0.3-0.8-0.2-1.2
						C288.7,251.5,290.2,251.6,291.8,252z"/>
					<path class="st3" d="M295.6,253.4c0.1,0,0.1,0,0.2-0.1C295.8,253.4,295.7,253.4,295.6,253.4z"/>
					<path class="st3" d="M292.2,253.4L292.2,253.4h0.2C292.3,253.4,292.3,253.4,292.2,253.4z"/>
					<path class="st4" d="M305.4,132.6c0.1-0.1,0.1-0.2,0.2-0.2c0,0.1,0,0.2,0,0.3C305.6,132.6,305.5,132.6,305.4,132.6z"/>
					<path class="st4" d="M305.6,119.6c-0.1-0.1-0.1-0.2-0.2-0.3c0.1,0,0.1,0,0.2,0C305.6,119.4,305.6,119.5,305.6,119.6z"/>
					<path class="st5" d="M291.8,252c-1.5-0.4-3-0.5-4.5,0.1c-3.5,0-7.1,0-10.6,0c-14.4,0-28.7,0-43.1,0c-4.2,0-7.3-2.4-8.2-6.4
						c-0.1-0.7-0.1-1.4-0.1-2c0-7.8,0-15.6,0-23.4c0-0.1,0.1-0.1,0.1-0.2c0.9,0.1,1-0.5,1-1.2c0-3.7,0-7.4,0-11.1
						c0-0.7-0.3-1.2-1-1.2c0-35.2,0-70.5,0-105.7c0-4,2.2-7.1,5.8-8.1c0.9-0.2,1.9-0.4,2.8-0.4c7.1,0,14.2,0,21.3,0
						c0.4,0,0.8-0.1,1.2,0.2c0,0.7,0.5,0.9,1.1,0.9c4.9,0,9.9,0,14.8,0c0.6,0,1-0.2,1.2-0.9c0.1-0.1,0.1-0.1,0.2-0.2
						c7.9,0,15.7-0.2,23.6,0c3.2,0.1,6.2,2.4,7.1,6.4c0.2,0.7,0.2,1.4,0.2,2.2c0,6.1,0,12.1,0,18.1c0,0.1,0,0.1,0,0.2
						c-0.4,0.2-0.4,0.6-0.4,1c0,3.8,0,7.5,0,11.3c0,0.5,0.1,0.8,0.4,1.2c0,37,0,73.9,0,110.9c0,4.9-3.8,8.4-8,8.3
						C294.8,251.3,293.3,251.4,291.8,252z M238.9,108.3c0-0.1,0-0.3,0-0.3c-0.2-0.1-0.3,0.1-0.3,0.3c-0.5,0.7-0.7,1.5-0.7,2.4
						c0,8.2,0,16.4,0,24.7c0,1,0.4,1.9,1,2.7c1.1,1.5,2.7,1.7,4.4,1.7c14.3,0,28.5,0,42.8,0c0.5,0,1.1-0.1,1.6-0.1
						c2.2-0.3,3.7-2.1,3.7-4.3c0-8.3,0-16.5,0-24.8c0-0.9-0.2-1.8-1.1-2.7c0,0.6,0,1,0,1.4c0,8.1-0.1,16.3,0,24.5c0,2.7-1.6,5-5,5
						c-13.8,0-27.5,0-41.3,0c-0.9,0-1.8,0-2.6-0.4c-1.6-0.8-2.5-2.1-2.5-4C238.9,125.6,238.9,116.9,238.9,108.3z M285.4,198.4
						c0-13.3,0-26.7,0-40c0-1-0.3-1.2-1.2-1.2c-12.9,0-25.8,0-38.7,0c-0.9,0-1.2,0.2-1.2,1.2c0,26.6,0,53.3,0,79.9
						c0,1,0.2,1.2,1.2,1.2c12.9,0,25.8,0,38.7,0c1,0,1.3-0.2,1.3-1.2C285.4,224.9,285.4,211.7,285.4,198.4z M268.5,120.2
						c-0.1,0-0.1,0-0.2-0.1c0-0.4,0-0.7,0-1c0-3.3,0-6.5,0-9.8c0-0.9-0.3-1.1-1.1-1.1c-0.9,0.1-1.9,0-2.8,0c-0.6,0-0.9,0.2-0.9,0.8
						c0,5.7,0,11.4,0,17.1c0,0.7,0.3,0.9,0.9,0.8c1.2,0,2.3-0.1,3.5,0c0.9,0.1,1.3-0.2,1.7-1c1-2.4,2.1-4.8,3.2-7.1
						c0.1-0.3,0.1-0.8,0.5-0.8s0.4,0.5,0.6,0.8c1.1,2.4,2.1,4.8,3.2,7.2c0.2,0.5,0.4,0.9,1.1,0.9c1.4,0,2.8,0,4.1,0
						c0.5,0,0.8-0.2,0.8-0.8c0-5.7,0-11.5,0-17.2c0-0.6-0.2-0.8-0.8-0.8c-0.9,0-1.9,0.1-2.8,0c-0.8,0-1,0.3-1,1c0,3.3,0,6.6,0,9.9
						c0,0.3,0,0.7,0,1c-1.1-2.1-2-4.2-2.9-6.4c-0.2-0.5-0.3-1.1-1-1.2c-2.1-0.4-2.9,0-3.7,2v0.1
						C270.1,116.5,269.3,118.3,268.5,120.2z M251.8,126.9c1.8,0,3.6-0.1,5.4,0c0.9,0,1.3-0.2,1.2-1.2c-0.1-2.8-0.1-5.5,0-8.3
						c0-1-0.2-1.3-1.2-1c-1.8,0.5-3.7,0.6-5.6,0.2c-1.2-0.3-2-1.1-2.1-2.2s0.5-2.1,1.7-2.5c1-0.4,2.1-0.6,3.2-0.4
						c1.3,0.2,2.6,0.6,3.8,1.3c0.8,0.4,1.1,0.2,1.1-0.7c0-0.8,0-1.5,0-2.3c0-0.6-0.2-0.9-0.8-1.1c-1.4-0.5-2.8-0.7-4.2-0.8
						c-2.6-0.2-5.1,0-7.2,1.7c-2,1.6-2.6,3.8-2.3,6.2c0.3,2.2,1.8,3.5,3.9,4.1c1.4,0.4,2.8,0.6,4.3,0.5c0.7,0,1,0.2,1,0.9
						c0,0.2,0,0.5,0,0.8c0.1,0.9-0.2,1.2-1.1,1.2c-1.6-0.1-3.3,0-4.9,0c-2.8,0-2.8,0-2.7,2.8c0,0.7,0.3,0.9,1,0.9
						C248.1,126.9,250,126.9,251.8,126.9z"/>
					<path class="st2" d="M273.3,92.6c-0.1,0.6-0.5,0.9-1.2,0.9c-4.9,0-9.9,0-14.8,0c-0.6,0-1.1-0.2-1.1-0.9c0-0.7,0.5-0.8,1-0.8
						c4.9,0,9.9,0,14.8,0c0.5,0,0.9,0.2,1.2,0.6C273.3,92.4,273.3,92.5,273.3,92.6z"/>
					<path class="st2" d="M225.2,206.5c0.8,0,1,0.5,1,1.2c0,3.7,0,7.4,0,11.1c0,0.7-0.1,1.3-1,1.2c-0.1,0-0.1,0-0.2,0
						c-0.5-0.2-0.5-0.7-0.5-1.1c0-3.8,0-7.5,0-11.2C224.5,207.2,224.6,206.7,225.2,206.5z"/>
					<path class="st6" d="M225,220.1c0.1,0,0.1,0,0.2,0c0,0.1,0,0.1-0.1,0.2C225.1,220.2,225.1,220.1,225,220.1z"/>
					<path class="st7" d="M304.3,119.3c0-0.1,0-0.1,0-0.2c0.1,0,0.1,0,0.2,0C304.5,119.2,304.4,119.2,304.3,119.3z"/>
					<path class="st7" d="M273.3,92.6c0-0.1,0-0.1,0-0.2c0.1,0,0.1,0,0.2,0C273.4,92.4,273.4,92.5,273.3,92.6z"/>
					<path class="st8" d="M285.4,198.4c0,13.3,0,26.5,0,39.8c0,1-0.3,1.2-1.3,1.2c-12.9,0-25.8,0-38.7,0c-1,0-1.2-0.2-1.2-1.2
						c0-26.6,0-53.3,0-79.9c0-1,0.3-1.2,1.2-1.2c12.9,0,25.8,0,38.7,0c1,0,1.2,0.2,1.2,1.2C285.4,171.7,285.4,185.1,285.4,198.4z"/>
					<path class="st9" d="M268.5,120.2c0.8-1.8,1.6-3.7,2.4-5.5v-0.1c0.8-2,1.5-2.4,3.7-2c0.7,0.1,0.8,0.7,1,1.2
						c0.9,2.1,1.8,4.2,2.9,6.4c0-0.3,0-0.7,0-1c0-3.3,0-6.6,0-9.9c0-0.7,0.2-1.1,1-1c0.9,0.1,1.9,0,2.8,0c0.5,0,0.8,0.2,0.8,0.8
						c0,5.7,0,11.5,0,17.2c0,0.6-0.2,0.8-0.8,0.8c-1.4,0-2.8,0-4.1,0c-0.7,0-0.9-0.4-1.1-0.9c-1.1-2.4-2.1-4.8-3.2-7.2
						c-0.1-0.3-0.2-0.8-0.6-0.8s-0.4,0.5-0.5,0.8c-1.1,2.4-2.2,4.7-3.2,7.1c-0.3,0.8-0.8,1.1-1.7,1c-1.1-0.1-2.3,0-3.5,0
						c-0.6,0-0.9-0.1-0.9-0.8c0-5.7,0-11.4,0-17.1c0-0.6,0.3-0.8,0.9-0.8c0.9,0,1.9,0.1,2.8,0c0.8-0.1,1.1,0.2,1.1,1.1
						c0,3.3,0,6.5,0,9.8c0,0.4,0,0.7,0,1C268.3,120.2,268.4,120.2,268.5,120.2z"/>
					<path class="st9" d="M251.8,126.9c-1.9,0-3.8,0-5.7,0c-0.7,0-1-0.2-1-0.9c-0.1-2.8-0.1-2.8,2.7-2.8c1.6,0,3.3-0.1,4.9,0
						c0.9,0,1.2-0.3,1.1-1.2c0-0.2,0-0.5,0-0.8c0.1-0.7-0.3-0.9-1-0.9c-1.5,0-2.9-0.1-4.3-0.5c-2.1-0.6-3.5-1.9-3.9-4.1
						c-0.4-2.4,0.2-4.6,2.3-6.2c2.2-1.7,4.7-1.9,7.2-1.7c1.4,0.1,2.9,0.3,4.2,0.8c0.6,0.2,0.8,0.5,0.8,1.1c0,0.8,0,1.5,0,2.3
						c0,0.9-0.3,1.2-1.1,0.7c-1.2-0.7-2.5-1-3.8-1.3c-1.1-0.2-2.2,0-3.2,0.4c-1.1,0.5-1.8,1.5-1.7,2.5s0.9,1.9,2.1,2.2
						c1.9,0.4,3.7,0.4,5.6-0.2c1-0.3,1.2,0,1.2,1c-0.1,2.8-0.1,5.5,0,8.3c0,1-0.3,1.2-1.2,1.2C255.5,126.9,253.7,126.9,251.8,126.9z
						"/>
					<path class="st10" d="M238.9,108.3c0,8.7,0,17.3,0,26c0,1.9,0.9,3.2,2.5,4c0.8,0.4,1.8,0.4,2.6,0.4c13.8,0,27.5,0,41.3,0
						c3.4,0,5-2.3,5-5c-0.1-8.1,0-16.3,0-24.5c0-0.4,0-0.8,0-1.4c0.8,0.9,1.1,1.8,1.1,2.7c0,8.3,0,16.5,0,24.8
						c0,2.2-1.5,3.9-3.7,4.3c-0.5,0.1-1.1,0.1-1.6,0.1c-14.3,0-28.5,0-42.8,0c-1.7,0-3.3-0.3-4.4-1.7c-0.6-0.8-1-1.7-1-2.7
						c0-8.2,0-16.4,0-24.7c0-0.9,0.2-1.6,0.7-2.4C238.6,108.2,238.8,108.2,238.9,108.3z"/>
					<path class="st3" d="M238.9,108.3c-0.1,0-0.2,0-0.4,0c0-0.2,0.1-0.3,0.3-0.3C238.9,108,238.9,108.1,238.9,108.3z"/>
				</g>
				<rect x="244.1" y="157.1" class="st11" width="41.9" height="82"/>
			</g>
		</g>
	</g>
</g>
<g id="Layer_2">
</g>
<g id="Layer_3">
	<rect x="3.4" y="12.3" class="st12" width="18.4" height="8.1"/>
	<text transform="matrix(1 0 0 1 3.3905 17.3093)" class="st13 st14">(0,0)</text>
	<rect x="88" y="11.2" class="st12" width="23" height="8.3"/>
	<text transform="matrix(1 0 0 1 88.03 16.2489)" class="st13 st14">(160,0)</text>
	<rect x="87.5" y="64.5" class="st12" width="27.5" height="7.5"/>
	<text transform="matrix(1 0 0 1 87.47 69.5291)" class="st13 st14">(160,80)</text>
	<rect x="3" y="64.2" class="st12" width="18.4" height="8.1"/>
	<text transform="matrix(1 0 0 1 2.9905 69.2093)" class="st13 st14">(0,80)</text>
	<rect x="230.1" y="11.2" class="st12" width="18.4" height="8.1"/>
	<text transform="matrix(1 0 0 1 230.0905 16.2407)" class="st13 st14">(0,0)</text>
	<rect x="312.9" y="11.2" class="st12" width="23" height="8.3"/>
	<text transform="matrix(1 0 0 1 312.9405 16.2047)" class="st13 st14">(160,0)</text>
	<rect x="312.4" y="63.7" class="st12" width="27.5" height="7.5"/>
	<text transform="matrix(1 0 0 1 312.3806 68.728)" class="st13 st14">(160,80)</text>
	<rect x="230.1" y="63.4" class="st12" width="18.4" height="8.1"/>
	<text transform="matrix(1 0 0 1 230.0905 68.4082)" class="st13 st14">(0,80)</text>
	<rect x="44.8" y="96.8" class="st12" width="18.4" height="8.1"/>
	<text transform="matrix(1 0 0 1 44.8208 101.7767)" class="st13 st14">(0,0)</text>
	<rect x="94.4" y="96.7" class="st12" width="23" height="8.3"/>
	<text transform="matrix(1 0 0 1 94.3952 101.7047)" class="st13 st14">(80,0)</text>
	<rect x="92.1" y="190.5" class="st12" width="27.5" height="7.5"/>
	<text transform="matrix(1 0 0 1 92.1259 195.5395)" class="st13 st14">(80,160)</text>
	<rect x="42.2" y="190.2" class="st12" width="23.9" height="7.8"/>
	<text transform="matrix(1 0 0 1 42.191 195.2197)" class="st13 st14">(0,160)</text>
	<rect x="232.7" y="148.2" class="st12" width="18.4" height="8.1"/>
	<text transform="matrix(1 0 0 1 232.7208 153.2316)" class="st13 st14">(0,0)</text>
	<rect x="282.3" y="148.1" class="st12" width="23" height="8.3"/>
	<text transform="matrix(1 0 0 1 282.2952 153.1596)" class="st13 st14">(80,0)</text>
	<rect x="277.6" y="242" class="st12" width="27.5" height="7.5"/>
	<text transform="matrix(1 0 0 1 277.6259 246.9944)" class="st13 st14">(80,160)</text>
	<rect x="230.1" y="241.7" class="st12" width="23.9" height="8.1"/>
	<text transform="matrix(1 0 0 1 230.091 246.6751)" class="st13 st14">(0,160)</text>
	<rect x="17.8" y="44.8" class="st12" width="77.6" height="9.3"/>
	<text transform="matrix(1 0 0 1 17.8218 49.7799)" class="st13 st14">Landskab</text>
	<rect x="246.7" y="45" class="st12" width="77.6" height="9.3"/>
	<text transform="matrix(1 0 0 1 246.6825 49.9799)" class="st13 st14">Omvendt Landskab</text>
	<rect x="61" y="107.7" class="st12" width="77.6" height="9.3"/>
	<text transform="matrix(1 0 0 1 60.9826 112.7485)" class="st13 st14">Portræt</text>
	<rect x="246.7" y="160.4" class="st12" width="77.6" height="18.2"/>
	<text transform="matrix(1 0 0 1 246.6825 165.4043)"><tspan x="0" y="0" class="st13 st14">Omvendt</tspan><tspan x="0" y="8.4" class="st13 st14">Portræt</tspan></text>
	<rect x="17.8" y="52.9" class="st12" width="77.6" height="9.3"/>
	<text transform="matrix(1 0 0 1 17.8218 56.4327)" class="st13 st15">lcd.LANDSCAPE</text>
	<rect x="247.2" y="52.9" class="st12" width="77.6" height="9.3"/>
	<text transform="matrix(1 0 0 1 247.1826 56.4327)" class="st13 st15">lcd.LANDSCAPE_FLIP</text>
	<rect x="246.7" y="176.7" class="st12" width="77.6" height="9.3"/>
	<text transform="matrix(1 0 0 1 246.6825 179.6098)" class="st13 st16">lcd.PORTRAIT_FLIP</text>
	<rect x="61" y="116" class="st12" width="77.6" height="9.3"/>
	<text transform="matrix(1 0 0 1 60.9826 119.5482)" class="st13 st15">lcd.PORTRAIT</text>
</g>
</svg>
