<?xml version="1.0" encoding="utf-8"?>
<!-- Generator: Adobe Illustrator 23.1.1, SVG Export Plug-In . SVG Version: 6.00 Build 0)  -->
<svg version="1.1" id="Layer_1" xmlns="http://www.w3.org/2000/svg" xmlns:xlink="http://www.w3.org/1999/xlink" x="0px" y="0px"
	 viewBox="0 0 340 253.5" style="enable-background:new 0 0 340 253.5;" xml:space="preserve">
<style type="text/css">
	.st0{fill:#676767;}
	.st1{fill:#E93725;}
	.st2{fill:#CCCCCB;}
	.st3{fill:#796350;}
	.st4{fill:#595959;}
	.st5{fill:#DC8844;}
	.st6{fill:#907259;}
	.st7{fill:#BD7F4C;}
	.st8{fill:#131313;}
	.st9{fill:#CC732A;}
	.st10{fill:#575655;}
	.st11{fill:#E5F4F7;stroke:#5C5A5C;stroke-width:2;stroke-linecap:round;stroke-linejoin:round;stroke-miterlimit:10;}
</style>
<g>
	<g>
		<g>
			<g>
				<path class="st0" d="M0.2,63.5c0-0.3,0-0.7,0-1c0-17.7,0-35.4,0-53.1C0.2,5,3.3,1,7.7,0.1C8.3,0,8.9,0,9.4,0
					c48,0,95.9,0,143.8,0c4.7,0,8.9,4,9.1,8.2c0.1,1.1,0.1,2.2,0.1,3.2c0,20,0,40.1,0,60.1c0,3.4-1,6.3-3.9,8.4
					c-1.6,1.1-3.4,1.8-5.3,1.8c-6.3,0.1-12.7,0-19,0c0-0.1,0-0.1,0-0.2c0.2-0.2,0.3-0.5,0.2-0.8c0-0.1,0-0.1,0-0.2
					c6.1,0,12.1,0,18.1,0c0.7,0,1.4-0.1,2.2-0.2c3.9-0.9,6.3-3.8,6.4-7.1c0.2-7.8,0.1-15.7,0-23.6c0-0.1,0-0.1,0-0.2
					c0.4-0.3,0.6-0.7,0.6-1.2c0-4.9,0-9.9,0-14.8c0-0.5-0.1-1-0.8-1.1c0.2-0.4,0.2-0.8,0.2-1.2c0-7.1,0-14.2,0-21.3
					c0-0.9-0.1-1.9-0.4-2.8c-1-3.6-4.1-5.8-8.1-5.8c-35.2,0-70.5,0-105.7,0c-0.2-0.6-0.7-0.7-1.2-0.7c-3.8,0-7.5,0-11.2,0
					c-0.4,0-0.9,0-1.1,0.5c0,0.2-0.1,0.2-0.1,0.3c-7.8,0-15.6,0-23.4,0c-0.7,0-1.4,0-2,0.1C4,2.2,1.5,5.4,1.5,9.6
					c0,14.4,0,28.7,0,43.1c0,3.6,0,7.1,0,10.6C1,63.2,0.6,63.3,0.2,63.5z"/>
				<path class="st0" d="M120.9,81.7c-0.4,0-0.7,0-1.1,0c-36.7,0-73.3,0-110,0c-4.8,0-8.5-3-9.5-7.6c-0.1-0.7-0.1-1.3-0.1-1.9
					c0.4,0.3,0.8,0.3,1.3,0.2c-0.1,4.2,3.4,8,8.3,8c37,0,73.9,0,110.9,0c-0.1,0.4,0,0.8,0.2,1.1C120.9,81.6,120.9,81.7,120.9,81.7z"
					/>
				<path class="st1" d="M120.9,81.5c-0.2-0.4-0.3-0.7-0.2-1.1c0.3-0.3,0.7-0.4,1.2-0.4c3.8,0,7.5,0,11.3,0c0.4,0,0.8,0,1,0.4
					c0.1,0.1,0.1,0.2,0.1,0.2c0.1,0.3,0,0.6-0.2,0.8c-0.1,0.1-0.2,0.1-0.3,0.2c-4.2,0-8.5,0-12.7,0C121.1,81.7,121,81.6,120.9,81.5z
					"/>
				<path class="st1" d="M1.5,72.4c-0.4,0-0.9,0.1-1.3-0.2c0-0.1,0-0.2-0.1-0.2c0-0.1,0-0.1-0.1-0.2c0-1.1,0-2.2,0-3.2v-0.1v-0.1
					c0-0.1,0.1-0.2,0.1-0.3c0.4-0.2,0.9,0.2,1.2-0.2C2.1,69.4,2.2,70.9,1.5,72.4z"/>
				<path class="st2" d="M1.5,67.9c-0.4,0.3-0.9,0-1.2,0.2c-0.3-1.5-0.3-3,0-4.5c0.4-0.2,0.8-0.3,1.2-0.2C2,64.8,1.9,66.4,1.5,67.9z
					"/>
				<path class="st3" d="M0.1,71.7c0,0.1,0,0.1,0.1,0.2C0.2,71.9,0.1,71.8,0.1,71.7z"/>
				<path class="st3" d="M0.2,68.3L0.2,68.3v0.2C0.1,68.4,0.1,68.4,0.2,68.3z"/>
				<path class="st4" d="M120.9,81.5c0.1,0.1,0.2,0.1,0.2,0.2c-0.1,0-0.2,0-0.3,0C120.9,81.7,120.9,81.6,120.9,81.5z"/>
				<path class="st4" d="M133.9,81.7c0.1-0.1,0.2-0.1,0.3-0.2c0,0.1,0,0.1,0,0.2C134.1,81.7,134,81.7,133.9,81.7z"/>
				<path class="st5" d="M1.5,67.9c0.4-1.5,0.5-3-0.1-4.5c0-3.6,0-7.1,0-10.6c0-14.4,0-28.7,0-43.1c0-4.2,2.4-7.3,6.4-8.2
					c0.7-0.1,1.4-0.1,2-0.1c7.8,0,15.6,0,23.4,0c0.1,0,0.1,0.1,0.2,0.1c-0.1,0.9,0.5,1,1.2,1c3.7,0,7.4,0,11.2,0
					c0.7,0,1.2-0.3,1.2-1c35.2,0,70.5,0,105.7,0c4,0,7.1,2.2,8.1,5.8c0.2,0.9,0.4,1.8,0.4,2.8c0,7.1,0,14.2,0,21.3
					c0,0.4,0.1,0.8-0.2,1.2c-0.7,0.1-0.9,0.5-0.9,1.1c0,4.9,0,9.8,0,14.8c0,0.6,0.2,1.1,0.9,1.2c0.1,0.1,0.1,0.1,0.2,0.2
					c0,7.8,0.2,15.7,0,23.6c-0.1,3.2-2.4,6.2-6.4,7.1c-0.7,0.2-1.4,0.2-2.2,0.2c-6.1,0-12.1,0-18.1,0c-0.1,0-0.1,0-0.2,0
					c-0.2-0.4-0.6-0.4-1-0.4c-3.8,0-7.5,0-11.3,0c-0.5,0-0.8,0.1-1.2,0.4c-37,0-73.9,0-110.9,0c-4.9,0-8.4-3.8-8.3-8
					C2.2,70.9,2.1,69.4,1.5,67.9z M145.3,15c0.1,0,0.3,0,0.3,0c0.1-0.2-0.1-0.3-0.3-0.3c-0.7-0.5-1.5-0.7-2.4-0.7
					c-8.2,0-16.4,0-24.7,0c-1,0-1.9,0.3-2.7,1c-1.5,1.1-1.7,2.7-1.7,4.3c0,14.3,0,28.5,0,42.8c0,0.5,0.1,1.1,0.1,1.6
					c0.3,2.2,2.1,3.7,4.3,3.7c8.3,0,16.5,0,24.8,0c0.9,0,1.8-0.2,2.7-1.1c-0.6,0-1,0-1.4,0c-8.1,0-16.3-0.1-24.5,0
					c-2.7,0-5-1.6-5-4.9c0-13.8,0-27.5,0-41.3c0-0.9,0-1.8,0.4-2.6c0.8-1.6,2.1-2.5,4-2.5C128,15,136.6,15,145.3,15z M55.1,61.5
					c13.3,0,26.7,0,40,0c1,0,1.2-0.3,1.2-1.2c0-12.9,0-25.8,0-38.7c0-0.9-0.2-1.2-1.2-1.2c-26.6,0-53.3,0-79.9,0
					c-1,0-1.2,0.2-1.2,1.2c0,12.9,0,25.8,0,38.7c0,0.9,0.2,1.3,1.2,1.3C28.6,61.5,41.9,61.5,55.1,61.5z M133.3,44.6
					c0-0.1,0-0.2,0.1-0.2c0.4,0,0.7,0,1,0c3.3,0,6.5,0,9.8,0c0.9,0,1.1-0.3,1.1-1.1c-0.1-0.9,0-1.9,0-2.8c0-0.6-0.2-0.9-0.8-0.9
					c-5.7,0-11.4,0-17.1,0c-0.7,0-0.9,0.3-0.8,0.9c0,1.2,0.1,2.3,0,3.5c-0.1,0.8,0.2,1.3,1,1.7c2.4,1,4.8,2.1,7.1,3.2
					c0.3,0.1,0.8,0.1,0.8,0.5s-0.5,0.4-0.8,0.6c-2.4,1.1-4.8,2.2-7.2,3.2c-0.5,0.2-0.9,0.4-0.9,1.1c0,1.4,0,2.8,0,4.1
					c0,0.5,0.2,0.8,0.8,0.8c5.7,0,11.5,0,17.2,0c0.6,0,0.8-0.2,0.8-0.8c0-0.9-0.1-1.9,0-2.8c0-0.8-0.3-1-1-1c-3.3,0-6.6,0-9.9,0
					c-0.3,0-0.7,0-1,0c2.1-1.1,4.2-2,6.4-2.9c0.5-0.2,1.1-0.3,1.2-1c0.4-2.2,0-2.9-2-3.7H139C137,46.2,135.2,45.4,133.3,44.6z
					 M126.6,28c0,1.8,0.1,3.6,0,5.4c0,0.9,0.2,1.3,1.2,1.2c2.8-0.1,5.5-0.1,8.3,0c1,0,1.3-0.2,1-1.2c-0.5-1.8-0.6-3.7-0.2-5.6
					c0.3-1.2,1.1-2,2.2-2.1c1.1-0.1,2.1,0.5,2.5,1.7c0.4,1,0.6,2.1,0.4,3.2c-0.2,1.3-0.6,2.6-1.3,3.8c-0.4,0.8-0.2,1.1,0.7,1.1
					c0.8,0,1.5,0,2.3,0c0.6,0,0.9-0.2,1.1-0.8c0.5-1.4,0.7-2.8,0.8-4.2c0.2-2.6,0-5.1-1.7-7.2c-1.6-2.1-3.8-2.7-6.2-2.3
					c-2.2,0.3-3.5,1.8-4.1,3.8c-0.4,1.4-0.6,2.8-0.5,4.3c0,0.7-0.2,1-0.9,1c-0.2,0-0.5,0-0.8,0c-0.9,0.1-1.2-0.2-1.2-1.1
					c0.1-1.6,0-3.3,0-4.9c0-2.8,0-2.8-2.8-2.7c-0.7,0-0.9,0.3-0.9,1C126.6,24.2,126.6,26.1,126.6,28z"/>
				<path class="st2" d="M161,49.4c-0.6-0.1-0.9-0.6-0.9-1.2c0-4.9,0-9.8,0-14.8c0-0.6,0.2-1.1,0.9-1.1s0.8,0.5,0.8,1.1
					c0,4.9,0,9.9,0,14.8c0,0.5-0.2,0.9-0.6,1.2C161.1,49.4,161,49.4,161,49.4z"/>
				<path class="st2" d="M47,1.3c0,0.8-0.5,1-1.2,1c-3.7,0-7.4,0-11.2,0c-0.7,0-1.3-0.1-1.2-1c0-0.1,0-0.1,0-0.2
					c0.2-0.5,0.7-0.5,1.1-0.5c3.8,0,7.5,0,11.2,0C46.4,0.6,46.8,0.7,47,1.3z"/>
				<path class="st6" d="M33.5,1.1c0,0.1,0,0.1,0,0.2c-0.1,0-0.1,0-0.2-0.1C33.3,1.2,33.4,1.2,33.5,1.1z"/>
				<path class="st7" d="M134.2,80.4c0.1,0,0.1,0,0.2,0c0,0.1,0,0.1,0,0.2C134.3,80.6,134.3,80.5,134.2,80.4z"/>
				<path class="st7" d="M161,49.4c0.1,0,0.1,0,0.2,0c0,0.1,0,0.1,0,0.2C161.1,49.5,161,49.5,161,49.4z"/>
				<path class="st8" d="M55.1,61.5c-13.3,0-26.5,0-39.8,0c-1,0-1.2-0.3-1.2-1.3c0-12.9,0-25.8,0-38.7c0-0.9,0.2-1.2,1.2-1.2
					c26.6,0,53.3,0,79.9,0c1,0,1.2,0.3,1.2,1.2c0,12.9,0,25.8,0,38.7c0,1-0.2,1.2-1.2,1.2C81.8,61.5,68.5,61.5,55.1,61.5z"/>
				<path class="st9" d="M133.3,44.6c1.8,0.8,3.7,1.6,5.5,2.4h0.1c2,0.8,2.4,1.6,2,3.7c-0.1,0.7-0.7,0.8-1.2,1
					c-2.1,0.9-4.2,1.8-6.4,2.9c0.3,0,0.7,0,1,0c3.3,0,6.6,0,9.9,0c0.7,0,1.1,0.2,1,1c-0.1,0.9,0,1.9,0,2.8c0,0.6-0.2,0.8-0.8,0.8
					c-5.7,0-11.5,0-17.2,0c-0.6,0-0.8-0.2-0.8-0.8c0-1.4,0-2.8,0-4.1c0-0.7,0.4-0.9,0.9-1.1c2.4-1.1,4.8-2.1,7.2-3.2
					c0.3-0.1,0.8-0.2,0.8-0.6s-0.5-0.4-0.8-0.5c-2.4-1.1-4.7-2.2-7.1-3.2c-0.8-0.3-1.1-0.8-1-1.7c0.1-1.2,0-2.3,0-3.5
					c0-0.6,0.1-0.9,0.8-0.9c5.7,0,11.4,0,17.1,0c0.6,0,0.8,0.3,0.8,0.9c0,0.9-0.1,1.9,0,2.8c0.1,0.8-0.2,1.1-1.1,1.1
					c-3.3-0.1-6.5,0-9.8,0c-0.4,0-0.7,0-1,0C133.4,44.5,133.4,44.5,133.3,44.6z"/>
				<path class="st9" d="M126.6,28c0-1.9,0-3.8,0-5.7c0-0.7,0.2-0.9,0.9-1c2.8-0.1,2.8-0.1,2.8,2.7c0,1.6,0.1,3.3,0,4.9
					c0,0.9,0.3,1.2,1.2,1.1c0.2,0,0.5,0,0.8,0c0.7,0.1,0.9-0.3,0.9-1c0-1.4,0.1-2.9,0.5-4.3c0.6-2.1,1.9-3.5,4.1-3.8
					c2.4-0.3,4.6,0.2,6.2,2.3c1.7,2.2,1.9,4.7,1.7,7.2c-0.1,1.4-0.3,2.9-0.8,4.2c-0.2,0.6-0.5,0.8-1.1,0.8c-0.8-0.1-1.5,0-2.3,0
					c-0.9,0-1.2-0.3-0.7-1.1c0.7-1.2,1-2.5,1.3-3.8c0.2-1.1,0-2.2-0.4-3.2c-0.5-1.2-1.5-1.8-2.5-1.7s-1.9,0.9-2.2,2.1
					c-0.4,1.9-0.4,3.7,0.2,5.6c0.3,1,0,1.2-1,1.2c-2.8-0.1-5.5-0.1-8.3,0c-1,0-1.2-0.3-1.2-1.2C126.6,31.6,126.6,29.8,126.6,28z"/>
				<path class="st10" d="M145.3,15c-8.7,0-17.3,0-26,0c-1.9,0-3.2,0.8-4,2.5c-0.4,0.8-0.4,1.8-0.4,2.6c0,13.8,0,27.5,0,41.3
					c0,3.4,2.3,5,5,4.9c8.1-0.1,16.3,0,24.5,0c0.4,0,0.8,0,1.4,0c-0.9,0.8-1.8,1.1-2.7,1.1c-8.3,0-16.5,0-24.8,0
					c-2.2,0-3.9-1.6-4.3-3.7c-0.1-0.5-0.1-1.1-0.1-1.6c0-14.3,0-28.5,0-42.8c0-1.7,0.3-3.3,1.7-4.3c0.8-0.6,1.7-1,2.7-1
					c8.2,0,16.4,0,24.7,0c0.9,0,1.6,0.2,2.4,0.7C145.3,14.7,145.3,14.9,145.3,15z"/>
				<path class="st3" d="M145.3,15c0-0.1,0-0.2,0-0.4c0.2,0.1,0.3,0.1,0.3,0.3C145.6,15,145.4,15,145.3,15z"/>
			</g>
			<rect x="14.4" y="20.2" class="st11" width="82" height="41.9"/>
		</g>
		<g>
			<g>
				<path class="st0" d="M339.8,18.4c0,0.3,0,0.7,0,1c0,17.7,0,35.4,0,53.1c0,4.4-3.1,8.4-7.5,9.3c-0.6,0.1-1.1,0.1-1.7,0.1
					c-48,0-95.9,0-143.9,0c-4.7,0-8.9-4-9.1-8.2c-0.1-1.1-0.1-2.2-0.1-3.2c0-20,0-40.1,0-60.1c0-3.4,1-6.3,3.9-8.4
					c1.6-1.1,3.4-1.8,5.3-1.8c6.3,0,12.7,0,19,0c0,0.1,0,0.1,0,0.2c-0.2,0.2-0.3,0.5-0.2,0.8c0,0.1,0,0.2,0,0.2
					c-6.1,0-12.1,0-18.1,0c-0.7,0-1.4,0-2.2,0.2c-3.9,0.9-6.3,3.8-6.4,7.1c-0.2,7.9-0.1,15.7,0,23.6c0,0.1,0,0.1,0,0.2
					c-0.4,0.3-0.6,0.7-0.6,1.2c0,4.9,0,9.9,0,14.8c0,0.5,0.1,1,0.8,1.1c-0.2,0.4-0.2,0.8-0.2,1.2c0,7.1,0,14.2,0,21.3
					c0,0.9,0.1,1.9,0.4,2.8c1,3.6,4.1,5.8,8.1,5.8c35.2,0,70.5,0,105.7,0c0.2,0.6,0.7,0.7,1.2,0.7c3.8,0,7.5,0,11.2,0
					c0.4,0,0.9,0,1.1-0.5c0.1-0.1,0.1-0.1,0.2-0.1c7.8,0,15.6,0,23.4,0c0.7,0,1.4,0,2-0.1c3.9-0.8,6.4-3.9,6.4-8.2
					c0-14.4,0-28.7,0-43.1c0-3.6,0-7.1,0-10.6C339,18.7,339.4,18.6,339.8,18.4z"/>
				<path class="st0" d="M219.1,0.2c0.4,0,0.7,0,1.1,0c36.7,0,73.3,0,110,0c4.8,0,8.5,3,9.5,7.6c0.1,0.7,0.1,1.3,0.1,1.9
					c-0.4-0.3-0.8-0.3-1.3-0.2c0.1-4.2-3.4-8-8.3-8c-37,0-74,0-110.9,0c0.1-0.4,0-0.8-0.2-1.1C219.1,0.3,219.1,0.2,219.1,0.2z"/>
				<path class="st1" d="M219.1,0.4c0.2,0.3,0.3,0.7,0.2,1.1c-0.3,0.3-0.7,0.4-1.2,0.4c-3.8,0-7.5,0-11.3,0c-0.4,0-0.8,0-1-0.4
					c-0.1-0.1-0.1-0.2-0.1-0.2c-0.1-0.3,0-0.6,0.2-0.8c0.1-0.1,0.2-0.1,0.3-0.2c4.2,0,8.5,0,12.7,0C218.9,0.2,219,0.3,219.1,0.4z"/>
				<path class="st1" d="M338.5,9.5c0.4,0,0.9-0.1,1.3,0.2c0,0.1,0,0.2,0.1,0.2c0,0.1,0,0.1,0.1,0.2c0,1.1,0,2.2,0,3.2v0.1v0.1
					c0,0.1-0.1,0.2-0.1,0.3c-0.4,0.2-0.9-0.2-1.2,0.2C337.9,12.5,337.8,11,338.5,9.5z"/>
				<path class="st2" d="M338.5,14c0.4-0.3,0.9,0,1.2-0.2c0.3,1.5,0.3,3,0,4.5c-0.4,0.2-0.8,0.3-1.2,0.2
					C338,17.1,338.1,15.5,338.5,14z"/>
				<path class="st3" d="M339.9,10.1c0-0.1,0-0.1-0.1-0.2C339.8,10,339.9,10.1,339.9,10.1z"/>
				<path class="st3" d="M339.8,13.5L339.8,13.5v-0.2C339.9,13.5,339.9,13.5,339.8,13.5z"/>
				<path class="st4" d="M219.1,0.4c-0.1-0.1-0.2-0.1-0.2-0.2c0.1,0,0.2,0,0.3,0C219.1,0.2,219.1,0.3,219.1,0.4z"/>
				<path class="st4" d="M206.1,0.2c-0.1,0.1-0.2,0.1-0.3,0.2c0-0.1,0-0.1,0-0.2C205.9,0.2,206,0.2,206.1,0.2z"/>
				<path class="st5" d="M338.5,14c-0.4,1.5-0.5,3,0.1,4.5c0,3.6,0,7.1,0,10.6c0,14.4,0,28.7,0,43.1c0,4.2-2.4,7.3-6.4,8.2
					c-0.7,0.1-1.4,0.1-2,0.1c-7.8,0-15.6,0-23.4,0c-0.1,0-0.1-0.1-0.2-0.1c0.1-0.9-0.5-1-1.2-1c-3.7,0-7.4,0-11.1,0
					c-0.7,0-1.2,0.3-1.2,1.1c-35.2,0-70.5,0-105.7,0c-4,0-7.1-2.2-8.1-5.8c-0.2-0.9-0.4-1.8-0.4-2.8c0-7.1,0-14.2,0-21.3
					c0-0.4-0.1-0.8,0.2-1.2c0.7-0.1,0.9-0.5,0.9-1.1c0-4.9,0-9.8,0-14.8c0-0.6-0.2-1.1-0.9-1.2c-0.1-0.1-0.1-0.1-0.2-0.2
					c0-7.8-0.2-15.7,0-23.6c0.1-3.2,2.4-6.2,6.4-7.1c0.7-0.2,1.4-0.2,2.2-0.2c6.1,0,12.1,0,18.1,0c0.1,0,0.1,0,0.2,0
					c0.2,0.4,0.6,0.4,1,0.4c3.8,0,7.5,0,11.3,0c0.5,0,0.8-0.1,1.2-0.4c37,0,74,0,110.9,0c4.9,0,8.4,3.8,8.3,8
					C337.8,11,337.9,12.5,338.5,14z M194.7,66.9c-0.1,0-0.3,0-0.3,0c-0.1,0.2,0.1,0.3,0.3,0.3c0.7,0.5,1.5,0.7,2.4,0.7
					c8.2,0,16.4,0,24.7,0c1,0,1.9-0.3,2.7-0.9c1.5-1.1,1.7-2.7,1.7-4.3c0-14.3,0-28.5,0-42.8c0-0.5,0-1.1-0.1-1.6
					c-0.3-2.2-2.1-3.7-4.3-3.7c-8.3,0-16.5,0-24.8,0c-0.9,0-1.8,0.2-2.7,1.1c0.6,0,1,0,1.4,0c8.1,0,16.3,0.1,24.5,0
					c2.7,0,5,1.6,5,4.9c0,13.8,0,27.5,0,41.3c0,0.9,0,1.8-0.4,2.6c-0.8,1.6-2.1,2.5-4,2.5C212,66.9,203.4,66.9,194.7,66.9z
					 M284.9,20.3c-13.3,0-26.7,0-40,0c-1,0-1.2,0.3-1.2,1.2c0,12.9,0,25.8,0,38.7c0,0.9,0.2,1.2,1.2,1.2c26.6,0,53.3,0,79.9,0
					c1,0,1.2-0.2,1.2-1.2c0-12.9,0-25.8,0-38.7c0-0.9-0.2-1.3-1.2-1.3C311.4,20.4,298.1,20.3,284.9,20.3z M206.7,37.3
					c0,0.1,0,0.2-0.1,0.2c-0.4,0-0.7,0-1,0c-3.3,0-6.5,0-9.8,0c-0.9,0-1.1,0.3-1.1,1.1c0.1,0.9,0,1.9,0,2.8c0,0.6,0.2,0.9,0.8,0.9
					c5.7,0,11.4,0,17.1,0c0.7,0,0.9-0.3,0.8-0.9c0-1.2-0.1-2.3,0-3.5c0.1-0.8-0.2-1.3-1-1.7c-2.4-1-4.8-2.1-7.1-3.2
					c-0.3-0.1-0.8-0.1-0.8-0.5s0.5-0.4,0.8-0.6c2.4-1.1,4.8-2.2,7.2-3.2c0.5-0.2,0.9-0.4,0.9-1.1c0-1.4,0-2.8,0-4.1
					c0-0.5-0.2-0.8-0.8-0.8c-5.7,0-11.5,0-17.2,0c-0.6,0-0.8,0.2-0.8,0.8c0,0.9,0.1,1.9,0,2.8c0,0.8,0.3,1,1,1c3.3,0,6.6,0,9.9,0
					c0.3,0,0.7,0,1,0c-2.1,1.1-4.2,2-6.4,2.9c-0.5,0.2-1.1,0.3-1.2,1c-0.4,2.2,0,2.9,2,3.7h0.1C203,35.7,204.8,36.5,206.7,37.3z
					 M213.4,54c0-1.8-0.1-3.6,0-5.4c0-0.9-0.2-1.3-1.2-1.2c-2.8,0.1-5.5,0.1-8.3,0c-1,0-1.3,0.2-1,1.2c0.5,1.8,0.6,3.7,0.2,5.6
					c-0.3,1.2-1.1,2-2.2,2.1c-1.1,0.1-2.1-0.5-2.5-1.7c-0.4-1-0.6-2.1-0.4-3.2c0.2-1.3,0.6-2.6,1.3-3.8c0.4-0.8,0.2-1.1-0.7-1.1
					c-0.8,0-1.5,0-2.3,0c-0.6,0-0.9,0.2-1.1,0.8c-0.5,1.4-0.7,2.8-0.8,4.2c-0.2,2.6,0,5.1,1.7,7.2c1.6,2.1,3.8,2.7,6.2,2.3
					c2.2-0.3,3.5-1.8,4.1-3.8c0.4-1.4,0.6-2.8,0.5-4.3c0-0.7,0.2-1,0.9-1c0.2,0,0.5,0,0.8,0c0.9-0.1,1.2,0.2,1.2,1.1
					c-0.1,1.6,0,3.3,0,4.9c0,2.8,0,2.8,2.8,2.7c0.7,0,0.9-0.3,0.9-1C213.4,57.7,213.4,55.8,213.4,54z"/>
				<path class="st2" d="M179,32.5c0.6,0.1,0.9,0.6,0.9,1.2c0,4.9,0,9.8,0,14.8c0,0.6-0.2,1.1-0.9,1.1s-0.8-0.5-0.8-1.1
					c0-4.9,0-9.9,0-14.8c0-0.5,0.2-0.9,0.6-1.2C178.9,32.5,179,32.5,179,32.5z"/>
				<path class="st2" d="M293,80.6c0-0.8,0.5-1.1,1.2-1.1c3.7,0,7.4,0,11.1,0c0.7,0,1.3,0.1,1.2,1c0,0.1,0,0.1,0,0.2
					c-0.2,0.5-0.7,0.5-1.1,0.5c-3.8,0-7.5,0-11.2,0C293.6,81.3,293.2,81.2,293,80.6z"/>
				<path class="st6" d="M306.5,80.8c0-0.1,0-0.1,0-0.2c0.1,0,0.1,0,0.2,0.1C306.7,80.7,306.6,80.7,306.5,80.8z"/>
				<path class="st7" d="M205.8,1.5c-0.1,0-0.1,0-0.2,0c0-0.1,0-0.2,0-0.2C205.7,1.3,205.7,1.4,205.8,1.5z"/>
				<path class="st7" d="M179,32.5c-0.1,0-0.1,0-0.2,0c0-0.1,0-0.1,0-0.2C178.9,32.4,179,32.4,179,32.5z"/>
				<path class="st8" d="M284.9,20.3c13.3,0,26.5,0,39.8,0c1,0,1.2,0.3,1.2,1.3c0,12.9,0,25.8,0,38.7c0,0.9-0.2,1.2-1.2,1.2
					c-26.6,0-53.3,0-79.9,0c-1,0-1.2-0.3-1.2-1.2c0-12.9,0-25.8,0-38.7c0-1,0.2-1.2,1.2-1.2C258.2,20.4,271.5,20.3,284.9,20.3z"/>
				<path class="st9" d="M206.7,37.3c-1.8-0.8-3.7-1.6-5.5-2.4h-0.1c-2-0.8-2.4-1.6-2-3.7c0.1-0.7,0.7-0.8,1.2-1
					c2.1-0.9,4.2-1.8,6.4-2.9c-0.3,0-0.7,0-1,0c-3.3,0-6.6,0-9.9,0c-0.7,0-1.1-0.2-1-1c0.1-0.9,0-1.9,0-2.8c0-0.6,0.2-0.8,0.8-0.8
					c5.7,0,11.5,0,17.2,0c0.6,0,0.8,0.2,0.8,0.8c0,1.4,0,2.8,0,4.1c0,0.7-0.4,0.9-0.9,1.1c-2.4,1.1-4.8,2.1-7.2,3.2
					c-0.3,0.1-0.8,0.2-0.8,0.6c0,0.4,0.5,0.4,0.8,0.5c2.4,1.1,4.7,2.2,7.1,3.2c0.8,0.3,1.1,0.8,1,1.7c-0.1,1.2,0,2.3,0,3.5
					c0,0.6-0.1,0.9-0.8,0.9c-5.7,0-11.4,0-17.1,0c-0.6,0-0.8-0.3-0.8-0.9c0-0.9,0.1-1.9,0-2.8c-0.1-0.8,0.2-1.1,1.1-1.1
					c3.3,0.1,6.5,0,9.8,0c0.4,0,0.7,0,1,0C206.6,37.4,206.6,37.4,206.7,37.3z"/>
				<path class="st9" d="M213.4,54c0,1.9,0,3.8,0,5.7c0,0.7-0.2,0.9-0.9,1c-2.8,0.1-2.8,0.1-2.8-2.7c0-1.6-0.1-3.3,0-4.9
					c0-0.9-0.3-1.2-1.2-1.1c-0.2,0-0.5,0-0.8,0c-0.7-0.1-0.9,0.3-0.9,1c0,1.4-0.1,2.9-0.5,4.3c-0.6,2.1-1.9,3.5-4.1,3.8
					c-2.4,0.3-4.6-0.2-6.2-2.3c-1.7-2.2-1.9-4.7-1.7-7.2c0.1-1.4,0.3-2.9,0.8-4.2c0.2-0.6,0.5-0.8,1.1-0.8c0.8,0.1,1.5,0,2.3,0
					c0.9,0,1.2,0.3,0.7,1.1c-0.7,1.2-1,2.5-1.3,3.8c-0.2,1.1,0,2.2,0.4,3.2c0.5,1.2,1.5,1.8,2.5,1.7c1-0.1,1.9-0.9,2.2-2.1
					c0.4-1.9,0.4-3.7-0.2-5.6c-0.3-1,0-1.2,1-1.2c2.8,0.1,5.5,0.1,8.3,0c1,0,1.2,0.3,1.2,1.2C213.4,50.3,213.4,52.1,213.4,54z"/>
				<path class="st10" d="M194.7,66.9c8.7,0,17.3,0,26,0c1.9,0,3.2-0.8,4-2.5c0.4-0.8,0.4-1.8,0.4-2.6c0-13.8,0-27.5,0-41.3
					c0-3.4-2.3-5-5-4.9c-8.1,0.1-16.3,0-24.5,0c-0.4,0-0.8,0-1.4,0c0.9-0.8,1.8-1.1,2.7-1.1c8.3,0,16.5,0,24.8,0
					c2.2,0,4,1.6,4.3,3.7c0.1,0.5,0.1,1.1,0.1,1.6c0,14.3,0,28.5,0,42.8c0,1.7-0.3,3.3-1.7,4.3c-0.8,0.6-1.7,0.9-2.7,0.9
					c-8.2,0-16.4,0-24.7,0c-0.9,0-1.6-0.2-2.4-0.7C194.7,67.2,194.7,67,194.7,66.9z"/>
				<path class="st3" d="M194.7,66.9c0,0.1,0,0.2,0,0.4c-0.2-0.1-0.3-0.1-0.3-0.3C194.4,66.9,194.6,66.9,194.7,66.9z"/>
			</g>
			<rect x="243.6" y="19.8" class="st11" width="82" height="41.9"/>
		</g>
		<g>
			<g>
				<path class="st0" d="M56.4,90.7c0.3,0,0.7,0,1,0c17.7,0,35.4,0,53.1,0c4.4,0,8.4,3.1,9.3,7.5c0.1,0.6,0.1,1.1,0.1,1.7
					c0,47.9,0,95.9,0,143.8c0,4.7-4,8.9-8.2,9.1c-1.1,0.1-2.2,0.1-3.2,0.1c-20,0-40.1,0-60.1,0c-3.4,0-6.3-1-8.4-3.9
					c-1.1-1.6-1.8-3.4-1.8-5.3c-0.1-6.3,0-12.7,0-19c0.1,0,0.1,0,0.2,0c0.2,0.2,0.5,0.3,0.8,0.2c0.1,0,0.2,0,0.2,0
					c0,6,0,12.1,0,18.1c0,0.7,0.1,1.5,0.2,2.2c0.9,3.9,3.8,6.3,7.1,6.4c7.8,0.2,15.7,0,23.6,0c0.1,0,0.1,0,0.2,0
					c0.3,0.5,0.7,0.6,1.2,0.6c4.9,0,9.9,0,14.8,0c0.5,0,1-0.1,1.1-0.8c0.4,0.2,0.8,0.2,1.2,0.2c7.1,0,14.2,0,21.3,0
					c0.9,0,1.9-0.1,2.8-0.4c3.6-1,5.8-4.1,5.8-8.1c0-35.2,0-70.5,0-105.7c0.6-0.2,0.7-0.7,0.7-1.2c0-3.8,0-7.5,0-11.2
					c0-0.4,0-0.9-0.5-1.1c-0.1-0.1-0.1-0.1-0.1-0.2c0-7.8,0-15.6,0-23.4c0-0.7,0-1.4-0.1-2.1c-0.8-3.9-3.9-6.4-8.2-6.4
					c-14.4,0-28.7,0-43.1,0c-3.6,0-7.1,0-10.6,0C56.7,91.5,56.6,91.1,56.4,90.7z"/>
				<path class="st0" d="M38.2,211.4c0-0.4,0-0.7,0-1.1c0-36.7,0-73.3,0-110c0-4.8,3-8.5,7.6-9.5c0.7-0.1,1.3-0.1,1.9-0.1
					c-0.3,0.4-0.3,0.8-0.2,1.3c-4.2-0.1-8,3.4-8,8.3c0,37,0,73.9,0,110.9c-0.4-0.1-0.8,0-1.1,0.2C38.3,211.4,38.3,211.4,38.2,211.4z
					"/>
				<path class="st1" d="M38.4,211.4c0.3-0.2,0.7-0.3,1.1-0.2c0.3,0.3,0.4,0.7,0.4,1.2c0,3.8,0,7.5,0,11.3c0,0.4,0,0.8-0.4,1
					c-0.1,0-0.2,0.1-0.2,0.1c-0.3,0.1-0.6,0-0.8-0.2c-0.1-0.1-0.1-0.2-0.2-0.3c0-4.2,0-8.5,0-12.7C38.3,211.6,38.3,211.5,38.4,211.4
					z"/>
				<path class="st1" d="M47.5,92c0-0.4-0.1-0.9,0.2-1.3c0.1,0,0.2,0,0.2-0.1c0.1,0,0.1,0,0.2-0.1c1.1,0,2.2,0,3.2,0l0.1,0.1h0.1
					c0.1,0,0.2,0.1,0.3,0.1c0.2,0.4-0.2,0.9,0.2,1.2C50.5,92.5,49,92.6,47.5,92z"/>
				<path class="st2" d="M52.1,92c-0.3-0.4,0-0.9-0.2-1.2c1.5-0.3,3-0.3,4.5-0.1c0.2,0.4,0.3,0.8,0.2,1.2
					C55.1,92.5,53.6,92.4,52.1,92z"/>
				<path class="st3" d="M48.2,90.6c-0.1,0-0.1,0-0.2,0.1C48,90.6,48.1,90.6,48.2,90.6z"/>
				<path class="st3" d="M51.6,90.6L51.6,90.6l-0.2-0.1C51.5,90.5,51.5,90.5,51.6,90.6z"/>
				<path class="st4" d="M38.4,211.4c-0.1,0.1-0.1,0.2-0.2,0.2c0-0.1,0-0.2,0-0.3C38.3,211.4,38.3,211.4,38.4,211.4z"/>
				<path class="st4" d="M38.2,224.4c0.1,0.1,0.1,0.2,0.2,0.3c-0.1,0-0.1,0-0.2,0C38.2,224.6,38.2,224.5,38.2,224.4z"/>
				<path class="st5" d="M52.1,92c1.5,0.4,3,0.5,4.5-0.1c3.6,0,7.1,0,10.6,0c14.4,0,28.7,0,43.1,0c4.2,0,7.3,2.4,8.2,6.4
					c0.1,0.7,0.1,1.4,0.1,2.1c0,7.8,0,15.6,0,23.4c0,0.1-0.1,0.1-0.1,0.2c-0.9-0.1-1,0.5-1,1.2c0,3.7,0,7.4,0,11.1
					c0,0.7,0.3,1.2,1.1,1.2c0,35.2,0,70.5,0,105.7c0,4-2.2,7.1-5.8,8.1c-0.9,0.2-1.9,0.4-2.8,0.4c-7.1,0-14.2,0-21.3,0
					c-0.4,0-0.8,0.1-1.2-0.2c-0.1-0.7-0.5-0.9-1.1-0.9c-4.9,0-9.8,0-14.8,0c-0.6,0-1.1,0.2-1.2,0.9c-0.1,0-0.1,0.1-0.2,0.2
					c-7.8,0-15.7,0.2-23.6,0c-3.2-0.1-6.2-2.4-7.1-6.4c-0.2-0.7-0.2-1.4-0.2-2.2c0-6,0-12.1,0-18.1c0-0.1,0-0.1,0-0.2
					c0.4-0.2,0.4-0.6,0.4-1c0-3.8,0-7.5,0-11.3c0-0.5-0.1-0.8-0.4-1.2c0-37,0-73.9,0-110.9c0-4.9,3.8-8.4,8-8.3
					C49,92.6,50.5,92.5,52.1,92z M104.9,235.7c0,0.1,0,0.3,0,0.3c0.2,0.1,0.3-0.1,0.3-0.3c0.5-0.7,0.7-1.5,0.7-2.4
					c0-8.2,0-16.5,0-24.7c0-1-0.4-1.9-0.9-2.7c-1.1-1.5-2.7-1.7-4.4-1.7c-14.3,0-28.5,0-42.8,0c-0.5,0-1.1,0.1-1.6,0.1
					c-2.2,0.3-3.7,2.1-3.7,4.3c0,8.3,0,16.5,0,24.8c0,1,0.2,1.8,1.1,2.7c0-0.6,0-1,0-1.4c0-8.1,0.1-16.3,0-24.5c0-2.7,1.6-5,4.9-5
					c13.8,0,27.5,0,41.3,0c0.9,0,1.8,0,2.6,0.4c1.6,0.8,2.5,2.1,2.5,4C104.9,218.4,104.9,227.1,104.9,235.7z M58.4,145.6
					c0,13.3,0,26.7,0,40c0,1,0.3,1.2,1.2,1.2c12.9,0,25.8,0,38.7,0c0.9,0,1.2-0.2,1.2-1.2c0-26.6,0-53.3,0-79.9c0-1-0.2-1.2-1.2-1.2
					c-12.9,0-25.8,0-38.7,0c-0.9,0-1.3,0.2-1.3,1.2C58.4,119.1,58.4,132.3,58.4,145.6z M75.3,223.8c0.1,0,0.2,0,0.2,0.1
					c0,0.4,0,0.7,0,1c0,3.3,0,6.5,0,9.8c0,0.9,0.3,1.1,1.1,1.1c0.9-0.1,1.9,0,2.8,0c0.6,0,0.9-0.2,0.9-0.8c0-5.7,0-11.4,0-17.1
					c0-0.7-0.3-0.9-0.9-0.8c-1.2,0-2.3,0.1-3.5,0c-0.8,0-1.3,0.2-1.7,1c-1,2.4-2.1,4.8-3.2,7.1c-0.1,0.3-0.1,0.8-0.5,0.8
					s-0.4-0.5-0.6-0.8c-1.1-2.4-2.2-4.8-3.2-7.2c-0.2-0.5-0.4-0.9-1.1-0.9c-1.4,0-2.8,0-4.1,0c-0.5,0-0.8,0.2-0.8,0.8
					c0,5.7,0,11.5,0,17.2c0,0.6,0.2,0.8,0.8,0.8c0.9,0,1.9,0,2.8,0c0.8,0,1-0.3,1-1c0-3.3,0-6.6,0-9.9c0-0.3,0-0.7,0-1
					c1.1,2.1,2,4.2,2.9,6.4c0.2,0.5,0.3,1,1,1.2c2.2,0.4,2.9,0,3.7-2v-0.1C73.7,227.5,74.5,225.6,75.3,223.8z M92,217.1
					c-1.8,0-3.6,0-5.4,0c-0.9,0-1.3,0.2-1.2,1.2c0.1,2.8,0.1,5.5,0,8.3c0,1,0.2,1.3,1.2,1c1.8-0.5,3.7-0.6,5.6-0.2
					c1.2,0.3,2,1.1,2.1,2.2c0.1,1.1-0.5,2.1-1.7,2.5c-1,0.4-2.1,0.6-3.2,0.4c-1.3-0.2-2.6-0.6-3.8-1.3c-0.8-0.4-1.1-0.2-1.1,0.7
					c0,0.8,0,1.5,0,2.3c0,0.6,0.2,0.9,0.8,1.1c1.4,0.5,2.8,0.7,4.2,0.8c2.6,0.2,5.1,0,7.2-1.7c2.1-1.6,2.6-3.8,2.3-6.2
					c-0.3-2.2-1.8-3.5-3.9-4.1c-1.4-0.4-2.8-0.6-4.3-0.5c-0.7,0-1-0.2-1-0.9c0-0.2,0-0.5,0-0.8c-0.1-0.9,0.2-1.2,1.1-1.2
					c1.6,0.1,3.3,0,4.9,0c2.8,0,2.8,0,2.7-2.8c0-0.7-0.3-0.9-1-0.9C95.8,217.1,93.9,217.1,92,217.1z"/>
				<path class="st2" d="M70.5,251.4c0.1-0.6,0.6-0.9,1.2-0.9c4.9,0,9.8,0,14.8,0c0.6,0,1.1,0.2,1.1,0.9c0,0.7-0.5,0.8-1.1,0.8
					c-4.9,0-9.9,0-14.8,0c-0.5,0-0.9-0.2-1.2-0.6C70.5,251.6,70.5,251.5,70.5,251.4z"/>
				<path class="st2" d="M118.6,137.5c-0.8,0-1.1-0.5-1.1-1.2c0-3.7,0-7.4,0-11.1c0-0.7,0.1-1.3,1-1.2c0.1,0,0.1,0,0.2,0
					c0.5,0.2,0.5,0.7,0.5,1.1c0,3.8,0,7.5,0,11.2C119.3,136.8,119.2,137.3,118.6,137.5z"/>
				<path class="st6" d="M118.8,123.9c-0.1,0-0.1,0-0.2,0c0-0.1,0-0.1,0.1-0.2C118.7,123.8,118.8,123.8,118.8,123.9z"/>
				<path class="st7" d="M39.5,224.7c0,0.1,0,0.1,0,0.2c-0.1,0-0.2,0-0.2,0C39.3,224.8,39.4,224.7,39.5,224.7z"/>
				<path class="st7" d="M70.5,251.4c0,0.1,0,0.1,0,0.2c-0.1,0-0.1,0-0.2,0C70.4,251.5,70.5,251.5,70.5,251.4z"/>
				<path class="st8" d="M58.4,145.6c0-13.3,0-26.5,0-39.8c0-1,0.3-1.2,1.3-1.2c12.9,0,25.8,0,38.7,0c0.9,0,1.2,0.2,1.2,1.2
					c0,26.6,0,53.3,0,79.9c0,1-0.3,1.2-1.2,1.2c-12.9,0-25.8,0-38.7,0c-1,0-1.2-0.2-1.2-1.2C58.4,172.3,58.4,158.9,58.4,145.6z"/>
				<path class="st9" d="M75.3,223.8c-0.8,1.8-1.6,3.7-2.4,5.5v0.1c-0.8,2-1.6,2.4-3.7,2c-0.7-0.1-0.8-0.7-1-1.2
					c-0.9-2.1-1.8-4.2-2.9-6.4c0,0.3,0,0.7,0,1c0,3.3,0,6.6,0,9.9c0,0.7-0.2,1.1-1,1c-0.9,0-1.9,0-2.8,0c-0.6,0-0.8-0.2-0.8-0.8
					c0-5.7,0-11.5,0-17.2c0-0.6,0.2-0.8,0.8-0.8c1.4,0,2.8,0,4.1,0c0.7,0,0.9,0.4,1.1,0.9c1.1,2.4,2.1,4.8,3.2,7.2
					c0.1,0.3,0.2,0.8,0.6,0.8s0.4-0.5,0.5-0.8c1.1-2.4,2.2-4.7,3.2-7.1c0.3-0.8,0.8-1.1,1.7-1c1.2,0.1,2.3,0,3.5,0
					c0.6,0,0.9,0.1,0.9,0.8c0,5.7,0,11.4,0,17.1c0,0.6-0.3,0.8-0.9,0.8c-0.9,0-1.9,0-2.8,0c-0.8,0-1.1-0.2-1.1-1.1
					c0.1-3.3,0-6.5,0-9.8c0-0.4,0-0.7,0-1C75.5,223.8,75.4,223.8,75.3,223.8z"/>
				<path class="st9" d="M92,217.1c1.9,0,3.8,0,5.6,0c0.7,0,0.9,0.2,1,0.9c0.1,2.8,0.1,2.8-2.7,2.8c-1.6,0-3.3,0-4.9,0
					c-0.9,0-1.2,0.3-1.1,1.2c0,0.2,0,0.5,0,0.8c-0.1,0.7,0.3,0.9,1,0.9c1.4,0,2.9,0.1,4.3,0.5c2.1,0.6,3.5,1.9,3.9,4.1
					c0.4,2.4-0.2,4.6-2.3,6.2c-2.1,1.7-4.7,1.9-7.2,1.7c-1.4-0.1-2.9-0.3-4.2-0.8c-0.6-0.2-0.8-0.5-0.8-1.1c0.1-0.8,0-1.5,0-2.3
					c0-0.9,0.3-1.2,1.1-0.7c1.2,0.7,2.5,1,3.8,1.3c1.1,0.2,2.2,0,3.2-0.4c1.1-0.5,1.8-1.5,1.7-2.5c-0.1-1-0.9-1.9-2.1-2.2
					c-1.9-0.5-3.7-0.4-5.6,0.2c-1,0.3-1.2,0-1.2-1c0.1-2.8,0.1-5.5,0-8.3c0-1,0.3-1.2,1.2-1.2C88.4,217.1,90.2,217.1,92,217.1z"/>
				<path class="st10" d="M104.9,235.7c0-8.7,0-17.3,0-26c0-1.9-0.9-3.2-2.5-4c-0.8-0.4-1.8-0.4-2.6-0.4c-13.8,0-27.5,0-41.3,0
					c-3.4,0-5,2.3-4.9,5c0.1,8.1,0,16.3,0,24.5c0,0.4,0,0.8,0,1.4c-0.8-0.9-1.1-1.8-1.1-2.7c0-8.3,0-16.5,0-24.8
					c0-2.2,1.6-3.9,3.7-4.3c0.5-0.1,1.1-0.1,1.6-0.1c14.3,0,28.5,0,42.8,0c1.7,0,3.3,0.3,4.4,1.7c0.6,0.8,0.9,1.7,0.9,2.7
					c0,8.2,0,16.5,0,24.7c0,0.9-0.2,1.6-0.7,2.4C105.2,235.7,105.1,235.7,104.9,235.7z"/>
				<path class="st3" d="M104.9,235.7c0.1,0,0.2,0,0.4,0c-0.1,0.2-0.1,0.3-0.3,0.3C104.9,236,105,235.8,104.9,235.7z"/>
			</g>
			<rect x="57.9" y="104.9" class="st11" width="41.9" height="82"/>
		</g>
		<g>
			<g>
				<path class="st0" d="M287.4,253.3c-0.3,0-0.6,0-1,0c-17.7,0-35.4,0-53.1,0c-4.4,0-8.4-3.1-9.3-7.5c-0.1-0.6-0.1-1.1-0.1-1.7
					c0-47.9,0-95.9,0-143.9c0-4.7,4-8.9,8.2-9.1c1.1-0.1,2.2-0.1,3.2-0.1c20,0,40.1,0,60.1,0c3.4,0,6.3,1,8.4,3.9
					c1.1,1.6,1.8,3.4,1.8,5.3c0,6.3,0,12.7,0,19c-0.1,0-0.1,0-0.2,0c-0.2-0.2-0.5-0.3-0.8-0.2c-0.1,0-0.1,0-0.2,0
					c0-6.1,0-12.1,0-18.1c0-0.7,0-1.4-0.2-2.2c-0.9-3.9-3.8-6.3-7.1-6.4c-7.9-0.2-15.7-0.1-23.6,0c-0.1,0-0.1,0-0.2,0
					c-0.3-0.4-0.7-0.6-1.2-0.6c-4.9,0-9.9,0-14.8,0c-0.5,0-1,0.1-1,0.8c-0.4-0.2-0.8-0.2-1.2-0.2c-7.1,0-14.2,0-21.3,0
					c-0.9,0-1.9,0.1-2.8,0.4c-3.6,1-5.8,4.1-5.8,8.1c0,35.2,0,70.5,0,105.7c-0.6,0.2-0.7,0.7-0.7,1.2c0,3.8,0,7.5,0,11.2
					c0,0.4,0,0.9,0.5,1.1c0,0.1,0.1,0.1,0.1,0.2c0,7.8,0,15.6,0,23.4c0,0.7,0,1.4,0.1,2c0.8,3.9,4,6.4,8.2,6.4c14.4,0,28.7,0,43.1,0
					c3.5,0,7.1,0,10.6,0C287.1,252.5,287.2,252.9,287.4,253.3z"/>
				<path class="st0" d="M305.6,132.6c0,0.4,0,0.7,0,1.1c0,36.7,0,73.3,0,110c0,4.8-3,8.5-7.6,9.5c-0.6,0.1-1.3,0.1-1.9,0.1
					c0.3-0.4,0.3-0.8,0.2-1.3c4.2,0.1,8-3.4,8-8.3c0-37,0-73.9,0-110.9c0.4,0.1,0.8,0,1.1-0.2C305.5,132.6,305.6,132.6,305.6,132.6z
					"/>
				<path class="st1" d="M305.4,132.6c-0.4,0.2-0.7,0.3-1.1,0.2c-0.3-0.3-0.4-0.7-0.4-1.2c0-3.8,0-7.5,0-11.3c0-0.4,0-0.8,0.4-1
					c0.1-0.1,0.2-0.1,0.2-0.1c0.3-0.1,0.6,0,0.8,0.2c0.1,0.1,0.1,0.2,0.2,0.3c0,4.2,0,8.5,0,12.7
					C305.6,132.4,305.5,132.5,305.4,132.6z"/>
				<path class="st1" d="M296.3,252c0,0.4,0.1,0.9-0.2,1.3c-0.1,0-0.2,0-0.2,0.1c-0.1,0-0.1,0-0.2,0.1c-1.1,0-2.2,0-3.2,0h-0.1h-0.1
					c-0.1,0-0.2-0.1-0.3-0.1c-0.2-0.4,0.2-0.9-0.2-1.2C293.3,251.4,294.8,251.3,296.3,252z"/>
				<path class="st2" d="M291.8,252c0.4,0.4,0,0.9,0.2,1.2c-1.5,0.3-3,0.3-4.5,0c-0.2-0.4-0.3-0.8-0.2-1.2
					C288.7,251.5,290.2,251.6,291.8,252z"/>
				<path class="st3" d="M295.6,253.4c0.1,0,0.1,0,0.2-0.1C295.8,253.4,295.7,253.4,295.6,253.4z"/>
				<path class="st3" d="M292.2,253.4L292.2,253.4h0.2C292.3,253.4,292.3,253.4,292.2,253.4z"/>
				<path class="st4" d="M305.4,132.6c0.1-0.1,0.1-0.2,0.2-0.2c0,0.1,0,0.2,0,0.3C305.6,132.6,305.5,132.6,305.4,132.6z"/>
				<path class="st4" d="M305.6,119.6c-0.1-0.1-0.1-0.2-0.2-0.3c0.1,0,0.1,0,0.2,0C305.6,119.4,305.6,119.5,305.6,119.6z"/>
				<path class="st5" d="M291.8,252c-1.5-0.4-3-0.5-4.5,0.1c-3.5,0-7.1,0-10.6,0c-14.4,0-28.7,0-43.1,0c-4.2,0-7.3-2.4-8.2-6.4
					c-0.1-0.7-0.1-1.4-0.1-2c0-7.8,0-15.6,0-23.4c0-0.1,0.1-0.1,0.1-0.2c0.9,0.1,1-0.5,1-1.2c0-3.7,0-7.4,0-11.1
					c0-0.7-0.3-1.2-1-1.2c0-35.2,0-70.5,0-105.7c0-4,2.2-7.1,5.8-8.1c0.9-0.2,1.9-0.4,2.8-0.4c7.1,0,14.2,0,21.3,0
					c0.4,0,0.8-0.1,1.2,0.2c0,0.7,0.5,0.9,1.1,0.9c4.9,0,9.9,0,14.8,0c0.6,0,1-0.2,1.2-0.9c0.1-0.1,0.1-0.1,0.2-0.2
					c7.9,0,15.7-0.2,23.6,0c3.2,0.1,6.2,2.4,7.1,6.4c0.2,0.7,0.2,1.4,0.2,2.2c0,6.1,0,12.1,0,18.1c0,0.1,0,0.1,0,0.2
					c-0.4,0.2-0.4,0.6-0.4,1c0,3.8,0,7.5,0,11.3c0,0.5,0.1,0.8,0.4,1.2c0,37,0,73.9,0,110.9c0,4.9-3.8,8.4-8,8.3
					C294.8,251.3,293.3,251.4,291.8,252z M238.9,108.3c0-0.1,0-0.3,0-0.3c-0.2-0.1-0.3,0.1-0.3,0.3c-0.5,0.7-0.7,1.5-0.7,2.4
					c0,8.2,0,16.4,0,24.7c0,1,0.4,1.9,1,2.7c1.1,1.5,2.7,1.7,4.4,1.7c14.3,0,28.5,0,42.8,0c0.5,0,1.1-0.1,1.6-0.1
					c2.2-0.3,3.7-2.1,3.7-4.3c0-8.3,0-16.5,0-24.8c0-0.9-0.2-1.8-1.1-2.7c0,0.6,0,1,0,1.4c0,8.1-0.1,16.3,0,24.5c0,2.7-1.6,5-5,5
					c-13.8,0-27.5,0-41.3,0c-0.9,0-1.8,0-2.6-0.4c-1.6-0.8-2.5-2.1-2.5-4C238.9,125.6,238.9,116.9,238.9,108.3z M285.4,198.4
					c0-13.3,0-26.7,0-40c0-1-0.3-1.2-1.2-1.2c-12.9,0-25.8,0-38.7,0c-0.9,0-1.2,0.2-1.2,1.2c0,26.6,0,53.3,0,79.9
					c0,1,0.2,1.2,1.2,1.2c12.9,0,25.8,0,38.7,0c1,0,1.3-0.2,1.3-1.2C285.4,224.9,285.4,211.7,285.4,198.4z M268.5,120.2
					c-0.1,0-0.1,0-0.2-0.1c0-0.4,0-0.7,0-1c0-3.3,0-6.5,0-9.8c0-0.9-0.3-1.1-1.1-1.1c-0.9,0.1-1.9,0-2.8,0c-0.6,0-0.9,0.2-0.9,0.8
					c0,5.7,0,11.4,0,17.1c0,0.7,0.3,0.9,0.9,0.8c1.2,0,2.3-0.1,3.5,0c0.9,0.1,1.3-0.2,1.7-1c1-2.4,2.1-4.8,3.2-7.1
					c0.1-0.3,0.1-0.8,0.5-0.8s0.4,0.5,0.6,0.8c1.1,2.4,2.1,4.8,3.2,7.2c0.2,0.5,0.4,0.9,1.1,0.9c1.4,0,2.8,0,4.1,0
					c0.5,0,0.8-0.2,0.8-0.8c0-5.7,0-11.5,0-17.2c0-0.6-0.2-0.8-0.8-0.8c-0.9,0-1.9,0.1-2.8,0c-0.8,0-1,0.3-1,1c0,3.3,0,6.6,0,9.9
					c0,0.3,0,0.7,0,1c-1.1-2.1-2-4.2-2.9-6.4c-0.2-0.5-0.3-1.1-1-1.2c-2.1-0.4-2.9,0-3.7,2v0.1C270.1,116.5,269.3,118.3,268.5,120.2
					z M251.8,126.9c1.8,0,3.6-0.1,5.4,0c0.9,0,1.3-0.2,1.2-1.2c-0.1-2.8-0.1-5.5,0-8.3c0-1-0.2-1.3-1.2-1c-1.8,0.5-3.7,0.6-5.6,0.2
					c-1.2-0.3-2-1.1-2.1-2.2c-0.1-1.1,0.5-2.1,1.7-2.5c1-0.4,2.1-0.6,3.2-0.4c1.3,0.2,2.6,0.6,3.8,1.3c0.8,0.4,1.1,0.2,1.1-0.7
					c0-0.8,0-1.5,0-2.3c0-0.6-0.2-0.9-0.8-1.1c-1.4-0.5-2.8-0.7-4.2-0.8c-2.6-0.2-5.1,0-7.2,1.7c-2,1.6-2.6,3.8-2.3,6.2
					c0.3,2.2,1.8,3.5,3.9,4.1c1.4,0.4,2.8,0.6,4.3,0.5c0.7,0,1,0.2,1,0.9c0,0.2,0,0.5,0,0.8c0.1,0.9-0.2,1.2-1.1,1.2
					c-1.6-0.1-3.3,0-4.9,0c-2.8,0-2.8,0-2.7,2.8c0,0.7,0.3,0.9,1,0.9C248.1,126.9,250,126.9,251.8,126.9z"/>
				<path class="st2" d="M273.3,92.6c-0.1,0.6-0.5,0.9-1.2,0.9c-4.9,0-9.9,0-14.8,0c-0.6,0-1.1-0.2-1.1-0.9c0-0.7,0.5-0.8,1-0.8
					c4.9,0,9.9,0,14.8,0c0.5,0,0.9,0.2,1.2,0.6C273.3,92.4,273.3,92.5,273.3,92.6z"/>
				<path class="st2" d="M225.2,206.5c0.8,0,1,0.5,1,1.2c0,3.7,0,7.4,0,11.1c0,0.7-0.1,1.3-1,1.2c-0.1,0-0.1,0-0.2,0
					c-0.5-0.2-0.5-0.7-0.5-1.1c0-3.8,0-7.5,0-11.2C224.5,207.2,224.6,206.7,225.2,206.5z"/>
				<path class="st6" d="M225,220.1c0.1,0,0.1,0,0.2,0c0,0.1,0,0.1-0.1,0.2C225.1,220.2,225.1,220.1,225,220.1z"/>
				<path class="st7" d="M304.3,119.3c0-0.1,0-0.1,0-0.2c0.1,0,0.1,0,0.2,0C304.5,119.2,304.4,119.2,304.3,119.3z"/>
				<path class="st7" d="M273.3,92.6c0-0.1,0-0.1,0-0.2c0.1,0,0.1,0,0.2,0C273.4,92.4,273.4,92.5,273.3,92.6z"/>
				<path class="st8" d="M285.4,198.4c0,13.3,0,26.5,0,39.8c0,1-0.3,1.2-1.3,1.2c-12.9,0-25.8,0-38.7,0c-1,0-1.2-0.2-1.2-1.2
					c0-26.6,0-53.3,0-79.9c0-1,0.3-1.2,1.2-1.2c12.9,0,25.8,0,38.7,0c1,0,1.2,0.2,1.2,1.2C285.4,171.7,285.4,185.1,285.4,198.4z"/>
				<path class="st9" d="M268.5,120.2c0.8-1.8,1.6-3.7,2.4-5.5v-0.1c0.8-2,1.5-2.4,3.7-2c0.7,0.1,0.8,0.7,1,1.2
					c0.9,2.1,1.8,4.2,2.9,6.4c0-0.3,0-0.7,0-1c0-3.3,0-6.6,0-9.9c0-0.7,0.2-1.1,1-1c0.9,0.1,1.9,0,2.8,0c0.5,0,0.8,0.2,0.8,0.8
					c0,5.7,0,11.5,0,17.2c0,0.6-0.2,0.8-0.8,0.8c-1.4,0-2.8,0-4.1,0c-0.7,0-0.9-0.4-1.1-0.9c-1.1-2.4-2.1-4.8-3.2-7.2
					c-0.1-0.3-0.2-0.8-0.6-0.8s-0.4,0.5-0.5,0.8c-1.1,2.4-2.2,4.7-3.2,7.1c-0.3,0.8-0.8,1.1-1.7,1c-1.1-0.1-2.3,0-3.5,0
					c-0.6,0-0.9-0.1-0.9-0.8c0-5.7,0-11.4,0-17.1c0-0.6,0.3-0.8,0.9-0.8c0.9,0,1.9,0.1,2.8,0c0.8-0.1,1.1,0.2,1.1,1.1
					c0,3.3,0,6.5,0,9.8c0,0.4,0,0.7,0,1C268.3,120.2,268.4,120.2,268.5,120.2z"/>
				<path class="st9" d="M251.8,126.9c-1.9,0-3.8,0-5.7,0c-0.7,0-1-0.2-1-0.9c-0.1-2.8-0.1-2.8,2.7-2.8c1.6,0,3.3-0.1,4.9,0
					c0.9,0,1.2-0.3,1.1-1.2c0-0.2,0-0.5,0-0.8c0.1-0.7-0.3-0.9-1-0.9c-1.5,0-2.9-0.1-4.3-0.5c-2.1-0.6-3.5-1.9-3.9-4.1
					c-0.4-2.4,0.2-4.6,2.3-6.2c2.2-1.7,4.7-1.9,7.2-1.7c1.4,0.1,2.9,0.3,4.2,0.8c0.6,0.2,0.8,0.5,0.8,1.1c0,0.8,0,1.5,0,2.3
					c0,0.9-0.3,1.2-1.1,0.7c-1.2-0.7-2.5-1-3.8-1.3c-1.1-0.2-2.2,0-3.2,0.4c-1.1,0.5-1.8,1.5-1.7,2.5c0.1,1,0.9,1.9,2.1,2.2
					c1.9,0.4,3.7,0.4,5.6-0.2c1-0.3,1.2,0,1.2,1c-0.1,2.8-0.1,5.5,0,8.3c0,1-0.3,1.2-1.2,1.2C255.5,126.9,253.7,126.9,251.8,126.9z"
					/>
				<path class="st10" d="M238.9,108.3c0,8.7,0,17.3,0,26c0,1.9,0.9,3.2,2.5,4c0.8,0.4,1.8,0.4,2.6,0.4c13.8,0,27.5,0,41.3,0
					c3.4,0,5-2.3,5-5c-0.1-8.1,0-16.3,0-24.5c0-0.4,0-0.8,0-1.4c0.8,0.9,1.1,1.8,1.1,2.7c0,8.3,0,16.5,0,24.8c0,2.2-1.5,3.9-3.7,4.3
					c-0.5,0.1-1.1,0.1-1.6,0.1c-14.3,0-28.5,0-42.8,0c-1.7,0-3.3-0.3-4.4-1.7c-0.6-0.8-1-1.7-1-2.7c0-8.2,0-16.4,0-24.7
					c0-0.9,0.2-1.6,0.7-2.4C238.6,108.2,238.8,108.2,238.9,108.3z"/>
				<path class="st3" d="M238.9,108.3c-0.1,0-0.2,0-0.4,0c0-0.2,0.1-0.3,0.3-0.3C238.9,108,238.9,108.1,238.9,108.3z"/>
			</g>
			<rect x="244.1" y="157.1" class="st11" width="41.9" height="82"/>
		</g>
		<g>
			<g>
				<g>
					<path d="M19.1,44.4h0.6v4h2.2v0.5h-2.8C19.1,48.9,19.1,44.4,19.1,44.4z"/>
					<path d="M22.9,48.1c0-0.8,0.7-1.1,2.4-1.2c0-0.4-0.2-0.8-0.9-0.8c-0.4,0-0.9,0.2-1.2,0.4L23,46.1c0.3-0.2,0.9-0.5,1.5-0.5
						c0.9,0,1.4,0.5,1.4,1.4v2.1h-0.5v-0.4l0,0c-0.4,0.3-0.8,0.5-1.3,0.5C23.4,49,22.9,48.7,22.9,48.1z M25.3,48.1v-0.9
						c-1.4,0.1-1.9,0.4-1.9,0.8s0.3,0.5,0.7,0.5C24.5,48.6,24.9,48.4,25.3,48.1z"/>
					<path d="M27.1,45.6h0.5v0.6l0,0c0.3-0.4,0.7-0.7,1.3-0.7c0.8,0,1.2,0.5,1.2,1.3v2.1h-0.6v-2c0-0.6-0.2-0.9-0.8-0.9
						c-0.4,0-0.7,0.2-1,0.6v2.3h-0.6L27.1,45.6L27.1,45.6z"/>
					<path d="M31,47.3c0-1.1,0.7-1.8,1.5-1.8c0.4,0,0.7,0.2,1,0.4l0,0v-0.6V44h0.6v4.9h-0.5l-0.1-0.4l0,0c-0.3,0.3-0.7,0.5-1.1,0.5
						C31.6,49,31,48.4,31,47.3z M33.5,48.1v-1.7c-0.3-0.3-0.6-0.4-0.9-0.4c-0.6,0-1,0.5-1,1.3s0.4,1.3,1,1.3
						C32.9,48.5,33.2,48.4,33.5,48.1z"/>
					<path d="M35.2,48.5l0.3-0.4c0.4,0.3,0.8,0.4,1.4,0.4s0.8-0.2,0.8-0.5c0-0.2-0.1-0.4-1-0.6s-1.3-0.5-1.3-1s0.5-0.9,1.4-0.9
						c0.5,0,1,0.2,1.3,0.4l-0.3,0.4c-0.3-0.2-0.7-0.3-1.1-0.3c-0.6,0-0.8,0.2-0.8,0.5c0,0.3,0.3,0.4,1,0.6c1.1,0.2,1.4,0.5,1.4,1
						s-0.5,1-1.5,1C36.2,49,35.6,48.8,35.2,48.5z"/>
					<path d="M39.5,44.1h0.6v3.3l0,0l1.8-1.8h0.7L40.1,48v0.9h-0.6V44.1z M40.8,47.2l0.3-0.4l1.6,2.1h-0.6L40.8,47.2z"/>
					<path d="M43.5,48.1c0-0.8,0.7-1.1,2.4-1.2c0-0.4-0.2-0.8-0.9-0.8c-0.4,0-0.9,0.2-1.2,0.4l-0.2-0.4c0.3-0.2,0.9-0.5,1.5-0.5
						c0.9,0,1.4,0.5,1.4,1.4v2.1H46l-0.1-0.4l0,0c-0.4,0.3-0.8,0.5-1.3,0.5C44,49,43.5,48.7,43.5,48.1z M45.9,48.1v-0.9
						C44.5,47.3,44,47.6,44,48s0.3,0.5,0.7,0.5C45.2,48.6,45.5,48.4,45.9,48.1z"/>
					<path d="M48.2,48.6L48.2,48.6L48.1,49h-0.4v-4.9h0.6v1.3v0.7l0,0c0.3-0.3,0.7-0.5,1.1-0.5c0.9,0,1.4,0.7,1.4,1.7
						c0,1.1-0.7,1.8-1.5,1.8C48.9,49,48.5,48.9,48.2,48.6z M50.2,47.2c0-0.7-0.3-1.2-0.9-1.2c-0.3,0-0.6,0.2-1,0.5v1.7
						c0.3,0.3,0.7,0.4,0.9,0.4C49.7,48.5,50.2,48.1,50.2,47.2z"/>
					<path d="M19.2,53.1v-1.9h-0.7v-0.3h1v2.2c0,0.3,0.2,0.4,0.4,0.4c0.1,0,0.2,0,0.4-0.1l0.1,0.2c-0.2,0.1-0.3,0.1-0.5,0.1
						C19.4,53.8,19.2,53.6,19.2,53.1z"/>
					<path d="M20.9,52.8c0-0.7,0.5-1,1.1-1c0.3,0,0.5,0.1,0.7,0.3l-0.1,0.1c-0.2-0.1-0.3-0.2-0.5-0.2c-0.5,0-0.8,0.3-0.8,0.8
						c0,0.4,0.3,0.7,0.8,0.7c0.2,0,0.4-0.1,0.6-0.2l0.2,0.2c-0.2,0.2-0.5,0.3-0.8,0.3C21.4,53.8,20.9,53.4,20.9,52.8z"/>
					<path d="M23.2,52.8c0-0.6,0.4-1,0.9-1c0.2,0,0.4,0.1,0.6,0.2l0,0v-0.4v-0.8H25v2.8h-0.3v-0.3l0,0c-0.2,0.2-0.4,0.3-0.6,0.3
						C23.6,53.8,23.2,53.4,23.2,52.8z M24.7,53.2v-1C24.5,52,24.4,52,24.2,52c-0.3,0-0.6,0.3-0.6,0.7c0,0.5,0.2,0.7,0.6,0.7
						C24.3,53.5,24.5,53.4,24.7,53.2z"/>
					<path d="M26.3,53.5c0-0.2,0.1-0.3,0.3-0.3s0.3,0.1,0.3,0.3s-0.1,0.3-0.3,0.3C26.4,53.8,26.3,53.7,26.3,53.5z"/>
					<path d="M28.3,51.1h0.3v2.3h1.3v0.3h-1.6V51.1z"/>
					<path d="M31.2,51.1h0.4l0.9,2.6h-0.4l-0.4-1.5c-0.1-0.3-0.2-0.6-0.3-0.9l0,0c-0.1,0.3-0.2,0.6-0.3,0.9l-0.5,1.5h-0.3L31.2,51.1
						z M30.8,52.7H32V53h-1.2V52.7z"/>
					<path d="M32.9,51.1h0.4l0.8,1.7l0.2,0.5l0,0c0-0.3,0-0.6,0-0.8v-1.4h0.3v2.6h-0.3L33.5,52l-0.2-0.5l0,0c0,0.3,0,0.6,0,0.8v1.4
						H33L32.9,51.1L32.9,51.1z"/>
					<path d="M35.4,51.1h0.7c0.8,0,1.2,0.5,1.2,1.3s-0.4,1.3-1.2,1.3h-0.7V51.1L35.4,51.1z M36,53.5c0.6,0,0.9-0.4,0.9-1.1
						s-0.3-1-0.9-1h-0.3v2.1H36z"/>
					<path d="M37.7,53.4l0.2-0.2c0.2,0.2,0.5,0.3,0.8,0.3c0.4,0,0.6-0.2,0.6-0.4c0-0.3-0.2-0.4-0.5-0.5l-0.4-0.2
						c-0.3-0.1-0.6-0.3-0.6-0.7c0-0.4,0.4-0.7,0.9-0.7c0.3,0,0.6,0.1,0.8,0.3l-0.2,0.3c-0.2-0.2-0.4-0.2-0.6-0.2
						c-0.3,0-0.5,0.1-0.5,0.4c0,0.2,0.2,0.3,0.5,0.4l0.4,0.2c0.3,0.1,0.6,0.3,0.6,0.7c0,0.4-0.3,0.8-0.9,0.8
						C38.2,53.8,37.9,53.6,37.7,53.4z"/>
					<path d="M40.1,52.4c0-0.8,0.5-1.4,1.2-1.4c0.3,0,0.6,0.2,0.7,0.3l-0.2,0.2c-0.1-0.1-0.3-0.2-0.5-0.2c-0.5,0-0.8,0.4-0.8,1.1
						s0.3,1.1,0.8,1.1c0.2,0,0.4-0.1,0.6-0.3l0.2,0.2c-0.2,0.2-0.5,0.4-0.8,0.4C40.6,53.8,40.1,53.3,40.1,52.4z"/>
					<path d="M43.2,51.1h0.4l0.9,2.6h-0.4l-0.4-1.5c-0.1-0.3-0.2-0.6-0.3-0.9l0,0c-0.1,0.3-0.2,0.6-0.3,0.9l-0.5,1.5h-0.3L43.2,51.1
						z M42.8,52.7H44V53h-1.2V52.7z"/>
					<path d="M45,51.1h0.8c0.6,0,1,0.2,1,0.8c0,0.6-0.4,0.8-1,0.8h-0.5v1H45V51.1L45,51.1z M45.8,52.4c0.5,0,0.7-0.2,0.7-0.5
						c0-0.4-0.2-0.5-0.7-0.5h-0.5v1H45.8z"/>
					<path d="M47.5,51.1h1.6v0.3h-1.3v0.8h1.1v0.3h-1.1v0.9h1.3v0.3h-1.7L47.5,51.1L47.5,51.1z"/>
				</g>
			</g>
			<g>
				<g>
					<path d="M248.1,46.7c0-1.5,0.7-2.3,1.7-2.3s1.7,0.9,1.7,2.3c0,1.5-0.7,2.4-1.7,2.4C248.8,49,248.1,48.1,248.1,46.7z M251,46.7
						c0-1.1-0.5-1.8-1.1-1.8s-1.1,0.7-1.1,1.8c0,1.2,0.5,1.8,1.1,1.8S251,47.8,251,46.7z"/>
					<path d="M252.3,45.6h0.5V46l0,0c0.2-0.3,0.4-0.5,0.8-0.5c0.3,0,0.5,0.2,0.6,0.6c0.2-0.4,0.4-0.6,0.8-0.6c0.5,0,0.7,0.4,0.7,1
						v2.4h-0.6v-2.3c0-0.4-0.1-0.6-0.4-0.6c-0.2,0-0.4,0.2-0.5,0.5v2.4h-0.5v-2.3c0-0.4-0.1-0.6-0.3-0.6c-0.2,0-0.4,0.2-0.5,0.5v2.4
						h-0.6V45.6L252.3,45.6z"/>
					<path d="M256.4,45.6h0.6l0.8,1.9c0.1,0.3,0.2,0.7,0.4,1l0,0c0.1-0.3,0.2-0.7,0.4-1l0.8-1.9h0.5l-1.4,3.3h-0.6L256.4,45.6z"/>
					<path d="M260.6,47.3c0-1.1,0.8-1.7,1.7-1.7c1,0,1.5,0.6,1.5,1.6c0,0.1,0,0.2,0,0.3H261v-0.4h2.5l-0.2,0.1c0-0.8-0.4-1.2-1-1.2
						s-1.1,0.5-1.1,1.3c0,0.9,0.6,1.3,1.3,1.3c0.4,0,0.7-0.1,1-0.3l0.2,0.4c-0.3,0.2-0.8,0.4-1.3,0.4
						C261.4,49,260.6,48.4,260.6,47.3z"/>
					<path d="M264.9,45.6h0.5v0.6l0,0c0.4-0.4,0.7-0.7,1.3-0.7c0.8,0,1.1,0.5,1.1,1.3v2.1h-0.5v-2c0-0.6-0.2-0.9-0.8-0.9
						c-0.4,0-0.7,0.2-1,0.6v2.3h-0.6V45.6z"/>
					<path d="M268.8,47.3c0-1.1,0.7-1.8,1.5-1.8c0.4,0,0.7,0.2,1,0.4l0,0v-0.6V44h0.6v4.9h-0.5v-0.4l0,0c-0.3,0.3-0.7,0.5-1.1,0.5
						C269.4,49,268.8,48.4,268.8,47.3z M271.3,48.1v-1.7c-0.3-0.3-0.6-0.4-0.9-0.4c-0.6,0-1,0.5-1,1.3s0.4,1.3,1,1.3
						C270.7,48.5,271,48.4,271.3,48.1z"/>
					<path d="M273.9,47.6V46h-1v-0.4h1l0.1-1.1h0.5v1.1h1.6v0.5h-1.6v1.6c0,0.6,0.2,0.9,0.8,0.9c0.3,0,0.6-0.1,0.8-0.2l0.1,0.4
						c-0.3,0.1-0.6,0.2-1,0.2C274.2,49,273.9,48.5,273.9,47.6z"/>
					<path d="M281.7,44.4h0.6v4h2.2v0.5h-2.8L281.7,44.4L281.7,44.4z"/>
					<path d="M285.4,48.1c0-0.8,0.7-1.1,2.4-1.2c0-0.4-0.2-0.8-0.9-0.8c-0.4,0-0.9,0.2-1.2,0.4l-0.2-0.4c0.3-0.2,0.9-0.5,1.5-0.5
						c0.9,0,1.4,0.5,1.4,1.4v2.1h-0.5v-0.4l0,0c-0.4,0.3-0.8,0.5-1.3,0.5C285.9,49,285.4,48.7,285.4,48.1z M287.8,48.1v-0.9
						c-1.4,0.1-1.9,0.4-1.9,0.8s0.3,0.5,0.7,0.5C287.1,48.6,287.5,48.4,287.8,48.1z"/>
					<path d="M289.6,45.6h0.5v0.6l0,0c0.4-0.4,0.7-0.7,1.3-0.7c0.8,0,1.1,0.5,1.1,1.3v2.1h-0.6v-2c0-0.6-0.2-0.9-0.8-0.9
						c-0.4,0-0.7,0.2-1,0.6v2.3h-0.6L289.6,45.6L289.6,45.6z"/>
					<path d="M293.5,47.3c0-1.1,0.7-1.8,1.5-1.8c0.4,0,0.7,0.2,1,0.4l0,0v-0.6V44h0.6v4.9h-0.5v-0.4l0,0c-0.3,0.3-0.7,0.5-1.1,0.5
						C294.1,49,293.5,48.4,293.5,47.3z M296,48.1v-1.7c-0.3-0.3-0.6-0.4-0.9-0.4c-0.6,0-1,0.5-1,1.3s0.4,1.3,1,1.3
						C295.4,48.5,295.7,48.4,296,48.1z"/>
					<path d="M297.7,48.5l0.3-0.4c0.4,0.3,0.8,0.4,1.5,0.4c0.6,0,0.8-0.2,0.8-0.5c0-0.2-0.1-0.4-1-0.6s-1.3-0.5-1.3-1
						s0.5-0.9,1.4-0.9c0.5,0,1,0.2,1.4,0.4l-0.3,0.4c-0.3-0.2-0.7-0.3-1.1-0.3c-0.6,0-0.8,0.2-0.8,0.5c0,0.3,0.3,0.4,1,0.6
						c1.1,0.2,1.4,0.5,1.4,1s-0.5,1-1.5,1C298.7,49,298.1,48.8,297.7,48.5z"/>
					<path d="M302.1,44.1h0.6v3.3l0,0l1.8-1.8h0.6l-2.5,2.4v0.9H302v-4.8H302.1z M303.4,47.2l0.3-0.4l1.6,2.1h-0.6L303.4,47.2z"/>
					<path d="M306,48.1c0-0.8,0.7-1.1,2.4-1.2c0-0.4-0.2-0.8-0.9-0.8c-0.4,0-0.9,0.2-1.2,0.4l-0.2-0.4c0.3-0.2,0.9-0.5,1.5-0.5
						c0.9,0,1.4,0.5,1.4,1.4v2.1h-0.5v-0.4l0,0c-0.4,0.3-0.8,0.5-1.3,0.5C306.5,49,306,48.7,306,48.1z M308.5,48.1v-0.9
						c-1.4,0.1-1.9,0.4-1.9,0.8s0.3,0.5,0.7,0.5C307.7,48.6,308.1,48.4,308.5,48.1z"/>
					<path d="M310.8,48.6L310.8,48.6l-0.1,0.4h-0.5v-4.9h0.6v1.3v0.7l0,0c0.3-0.3,0.7-0.5,1.1-0.5c0.9,0,1.4,0.7,1.4,1.7
						c0,1.1-0.7,1.8-1.5,1.8C311.5,49,311.1,48.9,310.8,48.6z M312.7,47.2c0-0.7-0.3-1.2-0.9-1.2c-0.3,0-0.6,0.2-1,0.5v1.7
						c0.3,0.3,0.7,0.4,0.9,0.4C312.3,48.5,312.7,48.1,312.7,47.2z"/>
					<path d="M248.7,53.1v-1.9H248v-0.3h1v2.2c0,0.3,0.1,0.4,0.4,0.4c0.1,0,0.2,0,0.4-0.1l0.1,0.2c-0.2,0.1-0.3,0.1-0.5,0.1
						C249,53.8,248.7,53.6,248.7,53.1z"/>
					<path d="M250.5,52.8c0-0.7,0.5-1,1.1-1c0.3,0,0.5,0.1,0.7,0.3l-0.2,0.2c-0.2-0.1-0.3-0.2-0.5-0.2c-0.5,0-0.8,0.3-0.8,0.8
						c0,0.4,0.3,0.7,0.8,0.7c0.2,0,0.4-0.1,0.6-0.2l0.1,0.2c-0.2,0.2-0.5,0.3-0.8,0.3C250.9,53.8,250.5,53.4,250.5,52.8z"/>
					<path d="M252.8,52.8c0-0.6,0.4-1,0.9-1c0.2,0,0.4,0.1,0.6,0.2l0,0v-0.4v-0.8h0.3v2.8h-0.3v-0.3l0,0c-0.2,0.2-0.4,0.3-0.6,0.3
						C253.1,53.8,252.8,53.4,252.8,52.8z M254.3,53.2v-1c-0.2-0.2-0.3-0.2-0.5-0.2c-0.3,0-0.6,0.3-0.6,0.7c0,0.5,0.2,0.7,0.6,0.7
						C253.9,53.5,254.1,53.4,254.3,53.2z"/>
					<path d="M255.8,53.5c0-0.2,0.1-0.3,0.3-0.3c0.2,0,0.3,0.1,0.3,0.3s-0.1,0.3-0.3,0.3C256,53.8,255.8,53.7,255.8,53.5z"/>
					<path d="M257.9,51.1h0.3v2.3h1.3v0.3h-1.6L257.9,51.1L257.9,51.1z"/>
					<path d="M260.8,51.1h0.4l0.9,2.6h-0.4l-0.5-1.5c-0.1-0.3-0.2-0.6-0.3-0.9l0,0c-0.1,0.3-0.2,0.6-0.3,0.9l-0.5,1.5h-0.3
						L260.8,51.1z M260.4,52.7h1.2V53h-1.2V52.7z"/>
					<path d="M262.5,51.1h0.4l0.8,1.7l0.2,0.5l0,0c0-0.3,0-0.6,0-0.8v-1.4h0.3v2.6h-0.4L263,52l-0.2-0.5l0,0c0,0.3,0,0.6,0,0.8v1.4
						h-0.3V51.1z"/>
					<path d="M264.9,51.1h0.6c0.8,0,1.2,0.5,1.2,1.3s-0.4,1.3-1.2,1.3h-0.7L264.9,51.1L264.9,51.1z M265.5,53.5
						c0.6,0,0.9-0.4,0.9-1.1s-0.3-1-0.9-1h-0.3v2.1H265.5z"/>
					<path d="M267.2,53.4l0.2-0.2c0.2,0.2,0.5,0.3,0.8,0.3c0.4,0,0.6-0.2,0.6-0.4c0-0.3-0.2-0.4-0.5-0.5l-0.4-0.2
						c-0.3-0.1-0.6-0.3-0.6-0.7c0-0.4,0.4-0.7,0.9-0.7c0.3,0,0.6,0.1,0.8,0.3l-0.2,0.2c-0.2-0.2-0.4-0.2-0.6-0.2
						c-0.3,0-0.5,0.1-0.5,0.4c0,0.2,0.2,0.3,0.5,0.4l0.4,0.2c0.3,0.1,0.6,0.3,0.6,0.7c0,0.4-0.4,0.8-0.9,0.8
						C267.8,53.8,267.5,53.6,267.2,53.4z"/>
					<path d="M269.6,52.4c0-0.8,0.5-1.4,1.2-1.4c0.3,0,0.6,0.2,0.7,0.3l-0.2,0.2c-0.1-0.1-0.3-0.2-0.5-0.2c-0.5,0-0.8,0.4-0.8,1.1
						s0.3,1.1,0.8,1.1c0.2,0,0.4-0.1,0.6-0.3l0.2,0.2c-0.2,0.2-0.5,0.4-0.8,0.4C270.1,53.8,269.6,53.3,269.6,52.4z"/>
					<path d="M272.8,51.1h0.4l0.9,2.6h-0.4l-0.5-1.5c-0.1-0.3-0.2-0.6-0.3-0.9l0,0c-0.1,0.3-0.2,0.6-0.3,0.9l-0.5,1.5h-0.3
						L272.8,51.1z M272.4,52.7h1.2V53h-1.2V52.7z"/>
					<path d="M274.6,51.1h0.8c0.6,0,1,0.2,1,0.8c0,0.6-0.4,0.8-1,0.8h-0.5v1h-0.3V51.1L274.6,51.1z M275.3,52.4
						c0.5,0,0.7-0.2,0.7-0.5c0-0.4-0.2-0.5-0.7-0.5h-0.4v1H275.3z"/>
					<path d="M277,51.1h1.6v0.3h-1.3v0.8h1.1v0.3h-1.1v0.9h1.3v0.3h-1.7v-2.6H277z"/>
					<path d="M279.2,54h1.9v0.3h-1.9V54z"/>
					<path d="M281.9,51.1h1.6v0.3h-1.3v0.9h1.1v0.3h-1.1v1.2h-0.3L281.9,51.1L281.9,51.1z"/>
					<path d="M284.3,51.1h0.3v2.3h1.3v0.3h-1.6V51.1L284.3,51.1z"/>
					<path d="M286.5,53.5h0.6v-2.1h-0.6v-0.3h1.6v0.3h-0.6v2.1h0.6v0.3h-1.6V53.5z"/>
					<path d="M289,51.1h0.8c0.6,0,1,0.2,1,0.8c0,0.6-0.4,0.8-1,0.8h-0.5v1H289V51.1L289,51.1z M289.7,52.4c0.5,0,0.7-0.2,0.7-0.5
						c0-0.4-0.2-0.5-0.7-0.5h-0.4v1H289.7z"/>
				</g>
			</g>
			<g>
				<g>
					<path d="M60.9,108.2h1.4c1,0,1.7,0.3,1.7,1.3c0,0.9-0.7,1.4-1.7,1.4h-0.8v1.8h-0.6V108.2z M62.2,110.4c0.8,0,1.2-0.3,1.2-0.9
						s-0.4-0.9-1.2-0.9h-0.7v1.8H62.2z"/>
					<path d="M64.8,111c0-1.1,0.8-1.8,1.7-1.8s1.7,0.6,1.7,1.8c0,1.1-0.8,1.7-1.7,1.7S64.8,112.1,64.8,111z M67.5,111
						c0-0.8-0.4-1.3-1.1-1.3s-1.1,0.5-1.1,1.3s0.4,1.3,1.1,1.3S67.5,111.8,67.5,111z"/>
					<path d="M69.5,109.3H70l0.1,0.8l0,0c0.3-0.5,0.9-0.9,1.5-0.9c0.2,0,0.4,0,0.7,0.1l-0.1,0.5c-0.2-0.1-0.4-0.1-0.6-0.1
						c-0.5,0-1,0.2-1.4,0.9v1.9h-0.6L69.5,109.3L69.5,109.3z"/>
					<path d="M74,111.4v-1.6h-0.9v-0.4h1l0.1-1.1h0.5v1.1h1.6v0.5h-1.6v1.6c0,0.6,0.2,0.9,0.8,0.9c0.3,0,0.6-0.1,0.8-0.1l0.1,0.4
						c-0.3,0.1-0.6,0.2-1,0.2C74.3,112.8,74,112.2,74,111.4z"/>
					<path d="M77.7,109.3h0.5l0.1,0.8l0,0c0.3-0.5,0.9-0.9,1.5-0.9c0.2,0,0.4,0,0.7,0.1l-0.1,0.5c-0.2-0.1-0.4-0.1-0.6-0.1
						c-0.5,0-1,0.2-1.4,0.9v1.9h-0.6L77.7,109.3L77.7,109.3z"/>
					<path d="M81,111.9c0-0.7,0.5-1.1,1.8-1.3v0.4c-1,0.1-1.3,0.4-1.3,0.8c0,0.3,0.2,0.5,0.5,0.5s0.6-0.2,0.9-0.6l0.2,0.3
						c-0.4,0.5-0.8,0.8-1.2,0.8C81.3,112.8,81,112.4,81,111.9z M82.7,111v-0.3c0-0.7-0.2-0.9-0.6-0.9c-0.3,0-0.6,0.1-0.8,0.3
						l-0.2-0.4c0.3-0.2,0.7-0.4,1-0.4c0.4,0,0.8,0.3,0.9,0.9h-0.1c0.2-0.6,0.6-0.9,1-0.9c0.7,0,1,0.7,1,1.5c0,0.1,0,0.3,0,0.4h-2
						v-0.4h1.6l-0.1,0.1c0-0.8-0.2-1.2-0.6-1.2S83,110.1,83,111c0,0.8,0.3,1.3,0.9,1.3c0.2,0,0.5-0.1,0.7-0.2l0.2,0.4
						c-0.2,0.2-0.5,0.3-0.9,0.3C83.1,112.8,82.7,112.1,82.7,111z"/>
					<path d="M86.4,111.4v-1.6h-0.9v-0.4h1l0.1-1.1h0.5v1.1h1.6v0.5h-1.6v1.6c0,0.6,0.2,0.9,0.8,0.9c0.3,0,0.6-0.1,0.8-0.1l0.1,0.4
						c-0.3,0.1-0.6,0.2-1,0.2C86.7,112.8,86.4,112.2,86.4,111.4z"/>
					<path d="M61.2,116.8v-1.9h-0.7v-0.3h1v2.2c0,0.3,0.2,0.4,0.4,0.4c0.1,0,0.2,0,0.4-0.1l0.1,0.2c-0.2,0.1-0.3,0.1-0.5,0.1
						C61.4,117.5,61.2,117.3,61.2,116.8z"/>
					<path d="M62.9,116.5c0-0.6,0.5-1,1.1-1c0.3,0,0.6,0.1,0.7,0.3l-0.2,0.2c-0.2-0.1-0.3-0.2-0.5-0.2c-0.4,0-0.8,0.3-0.8,0.8
						c0,0.4,0.3,0.7,0.8,0.7c0.2,0,0.4-0.1,0.6-0.2l0.2,0.2c-0.2,0.2-0.5,0.3-0.8,0.3C63.4,117.5,62.9,117.2,62.9,116.5z"/>
					<path d="M65.3,116.5c0-0.6,0.4-1,0.9-1c0.2,0,0.4,0.1,0.6,0.2l0,0v-0.4v-0.8h0.3v2.9h-0.3v-0.3l0,0c-0.2,0.2-0.4,0.3-0.6,0.3
						C65.6,117.5,65.3,117.2,65.3,116.5z M66.7,117v-1c-0.2-0.2-0.3-0.2-0.5-0.2c-0.3,0-0.6,0.3-0.6,0.7c0,0.5,0.2,0.7,0.6,0.7
						C66.4,117.3,66.5,117.2,66.7,117z"/>
					<path d="M68.3,117.2c0-0.2,0.1-0.3,0.3-0.3s0.3,0.1,0.3,0.3s-0.1,0.3-0.3,0.3S68.3,117.4,68.3,117.2z"/>
					<path d="M70.2,114.9H71c0.6,0,1,0.2,1,0.8s-0.4,0.8-1,0.8h-0.5v1h-0.3V114.9L70.2,114.9z M71,116.2c0.5,0,0.7-0.2,0.7-0.5
						c0-0.4-0.2-0.5-0.7-0.5h-0.4v1H71z"/>
					<path d="M72.4,116.2c0-0.9,0.4-1.4,1-1.4s1,0.5,1,1.4s-0.4,1.4-1,1.4S72.4,117,72.4,116.2z M74.1,116.2c0-0.7-0.3-1.1-0.7-1.1
						s-0.7,0.4-0.7,1.1c0,0.7,0.3,1.1,0.7,1.1C73.8,117.2,74.1,116.8,74.1,116.2z"/>
					<path d="M75,114.9h0.8c0.5,0,0.9,0.2,0.9,0.7s-0.4,0.8-0.9,0.8h-0.5v1.1H75V114.9z M75.8,116.1c0.4,0,0.6-0.2,0.6-0.5
						s-0.2-0.5-0.6-0.5h-0.4v1H75.8z M76,116.1l0.8,1.4h-0.4l-0.7-1.2L76,116.1z"/>
					<path d="M78.1,115.1h-0.9v-0.3h2.1v0.3h-0.9v2.3h-0.3L78.1,115.1L78.1,115.1z"/>
					<path d="M79.8,114.9h0.8c0.5,0,0.9,0.2,0.9,0.7s-0.4,0.8-0.9,0.8h-0.5v1.1h-0.3V114.9z M80.6,116.1c0.4,0,0.6-0.2,0.6-0.5
						s-0.2-0.5-0.6-0.5h-0.4v1H80.6z M80.8,116.1l0.8,1.4h-0.3l-0.7-1.2L80.8,116.1z"/>
					<path d="M82.8,114.9h0.4l0.9,2.6h-0.4l-0.4-1.5c-0.1-0.3-0.2-0.6-0.3-0.9l0,0c-0.1,0.3-0.2,0.6-0.3,0.9l-0.5,1.5h-0.3
						L82.8,114.9z M82.4,116.4h1.2v0.3h-1.2V116.4z"/>
					<path d="M84.6,117.2h0.7v-2.1h-0.7v-0.3h1.6v0.3h-0.7v2.1h0.7v0.3h-1.6V117.2z"/>
					<path d="M87.7,115.1h-0.9v-0.3h2.1v0.3H88v2.3h-0.3L87.7,115.1L87.7,115.1z"/>
				</g>
			</g>
			<g>
				<g>
					<path d="M247,164.9c0-1.5,0.7-2.3,1.7-2.3s1.7,0.9,1.7,2.3c0,1.5-0.7,2.4-1.7,2.4C247.7,167.2,247,166.3,247,164.9z
						 M249.9,164.9c0-1.1-0.5-1.8-1.1-1.8s-1.1,0.7-1.1,1.8s0.5,1.9,1.1,1.9S249.9,166,249.9,164.9z"/>
					<path d="M251.2,163.8h0.5v0.4l0,0c0.2-0.3,0.4-0.5,0.8-0.5c0.3,0,0.5,0.2,0.6,0.6c0.2-0.4,0.4-0.6,0.8-0.6c0.5,0,0.7,0.4,0.7,1
						v2.4H254v-2.4c0-0.4-0.1-0.6-0.4-0.6c-0.2,0-0.4,0.2-0.5,0.5v2.4h-0.5v-2.4c0-0.4-0.1-0.6-0.3-0.6c-0.2,0-0.4,0.2-0.5,0.5v2.4
						h-0.6V163.8L251.2,163.8z"/>
					<path d="M255.3,163.8h0.6l0.8,1.9c0.1,0.3,0.2,0.7,0.4,1l0,0c0.1-0.3,0.2-0.6,0.4-1l0.8-1.9h0.5l-1.4,3.3h-0.6L255.3,163.8z"/>
					<path d="M259.5,165.4c0-1.1,0.8-1.7,1.7-1.7c1,0,1.5,0.6,1.5,1.6c0,0.1,0,0.2,0,0.3h-2.8v-0.4h2.5l-0.1,0.2
						c0-0.8-0.4-1.2-1-1.2s-1.1,0.5-1.1,1.3c0,0.9,0.6,1.3,1.3,1.3c0.4,0,0.7-0.1,1-0.3l0.2,0.4c-0.3,0.2-0.8,0.4-1.3,0.4
						C260.3,167.2,259.5,166.6,259.5,165.4z"/>
					<path d="M263.8,163.8h0.5v0.6l0,0c0.4-0.4,0.7-0.6,1.3-0.6c0.8,0,1.1,0.5,1.1,1.4v2.1h-0.6v-2c0-0.6-0.2-0.9-0.8-0.9
						c-0.4,0-0.7,0.2-1,0.6v2.3h-0.6L263.8,163.8L263.8,163.8z"/>
					<path d="M267.7,165.5c0-1.1,0.7-1.8,1.5-1.8c0.4,0,0.7,0.2,1,0.4l0,0v-0.6v-1.3h0.6v4.9h-0.5v-0.4l0,0
						c-0.3,0.3-0.7,0.5-1.1,0.5C268.3,167.2,267.7,166.6,267.7,165.5z M270.2,166.2v-1.7c-0.3-0.3-0.6-0.4-0.9-0.4
						c-0.6,0-1,0.5-1,1.3s0.4,1.3,1,1.3C269.6,166.7,269.9,166.6,270.2,166.2z"/>
					<path d="M272.8,165.8v-1.6h-1v-0.4h1l0.1-1.1h0.5v1.1h1.6v0.5h-1.6v1.6c0,0.6,0.2,0.9,0.8,0.9c0.3,0,0.6-0.1,0.8-0.1l0.1,0.4
						c-0.3,0.1-0.6,0.2-1,0.2C273.1,167.2,272.8,166.6,272.8,165.8z"/>
					<path d="M247.4,170.9h1.4c1,0,1.7,0.3,1.7,1.3c0,0.9-0.7,1.4-1.7,1.4H248v1.8h-0.6V170.9z M248.7,173.1c0.8,0,1.2-0.3,1.2-0.9
						c0-0.6-0.4-0.9-1.2-0.9H248v1.8L248.7,173.1L248.7,173.1z"/>
					<path d="M251.2,173.7c0-1.1,0.8-1.8,1.6-1.8s1.6,0.6,1.6,1.8c0,1.1-0.8,1.7-1.6,1.7S251.2,174.8,251.2,173.7z M253.9,173.7
						c0-0.8-0.4-1.3-1.1-1.3s-1.1,0.5-1.1,1.3s0.4,1.3,1.1,1.3S253.9,174.5,253.9,173.7z"/>
					<path d="M255.9,172h0.5l0.1,0.8l0,0c0.4-0.5,0.9-0.9,1.5-0.9c0.2,0,0.5,0,0.7,0.1l-0.1,0.5c-0.2-0.1-0.4-0.1-0.6-0.1
						c-0.5,0-1,0.2-1.4,0.9v1.9H256L255.9,172L255.9,172z"/>
					<path d="M260.5,174.1v-1.6h-1v-0.4h1l0.1-1.1h0.5v1.1h1.6v0.5h-1.6v1.6c0,0.6,0.2,0.9,0.8,0.9c0.3,0,0.6-0.1,0.8-0.1l0.1,0.4
						c-0.3,0.1-0.6,0.2-1,0.2C260.8,175.5,260.5,174.9,260.5,174.1z"/>
					<path d="M264.2,172h0.5l0.1,0.8l0,0c0.4-0.5,0.9-0.9,1.5-0.9c0.2,0,0.5,0,0.7,0.1l-0.1,0.5c-0.2-0.1-0.4-0.1-0.6-0.1
						c-0.5,0-1,0.2-1.4,0.9v1.9h-0.6V172H264.2z"/>
					<path d="M267.4,174.5c0-0.7,0.5-1.1,1.8-1.3v0.4c-1,0.1-1.3,0.4-1.3,0.8c0,0.3,0.2,0.5,0.5,0.5s0.6-0.2,0.9-0.6l0.2,0.3
						c-0.4,0.5-0.8,0.8-1.2,0.8C267.8,175.5,267.4,175.1,267.4,174.5z M269.1,173.7v-0.3c0-0.7-0.2-0.9-0.6-0.9
						c-0.3,0-0.6,0.1-0.8,0.3l-0.2-0.4c0.3-0.2,0.6-0.4,1-0.4c0.5,0,0.8,0.3,0.9,0.9h-0.1c0.2-0.6,0.6-0.9,1-0.9c0.7,0,1,0.7,1,1.5
						c0,0.1,0,0.3,0,0.4h-2v-0.4h1.6l-0.1,0.1c0-0.8-0.2-1.2-0.6-1.2s-0.8,0.4-0.8,1.3c0,0.8,0.3,1.3,0.9,1.3c0.2,0,0.5-0.1,0.6-0.2
						l0.2,0.4c-0.2,0.2-0.5,0.3-0.9,0.3C269.6,175.5,269.1,174.7,269.1,173.7z"/>
					<path d="M272.8,174.1v-1.6h-1v-0.4h1l0.1-1.1h0.5v1.1h1.6v0.5h-1.6v1.6c0,0.6,0.2,0.9,0.8,0.9c0.3,0,0.6-0.1,0.8-0.1l0.1,0.4
						c-0.3,0.1-0.6,0.2-1,0.2C273.1,175.5,272.8,174.9,272.8,174.1z"/>
					<path d="M247.6,179.2v-1.8H247v-0.2h0.9v2.1c0,0.3,0.1,0.4,0.4,0.4c0.1,0,0.2,0,0.3-0.1l0.1,0.2c-0.2,0.1-0.3,0.1-0.5,0.1
						C247.8,179.9,247.6,179.6,247.6,179.2z"/>
					<path d="M249.2,178.9c0-0.6,0.5-0.9,1-0.9c0.3,0,0.5,0.1,0.6,0.3l-0.1,0.2c-0.1-0.1-0.3-0.2-0.5-0.2c-0.4,0-0.7,0.3-0.7,0.7
						s0.3,0.7,0.7,0.7c0.2,0,0.4-0.1,0.5-0.2l0.1,0.2c-0.2,0.2-0.5,0.3-0.7,0.3C249.6,179.9,249.2,179.5,249.2,178.9z"/>
					<path d="M251.3,178.9c0-0.6,0.4-0.9,0.8-0.9c0.2,0,0.4,0.1,0.5,0.2l0,0v-0.3v-0.7h0.3v2.6h-0.2v-0.2l0,0
						c-0.1,0.1-0.4,0.3-0.6,0.3C251.6,179.9,251.3,179.5,251.3,178.9z M252.7,179.3v-0.9c-0.2-0.1-0.3-0.2-0.5-0.2
						c-0.3,0-0.6,0.3-0.6,0.7s0.2,0.7,0.5,0.7C252.4,179.6,252.5,179.5,252.7,179.3z"/>
					<path d="M254.1,179.5c0-0.2,0.1-0.3,0.3-0.3c0.2,0,0.3,0.1,0.3,0.3s-0.1,0.3-0.3,0.3C254.3,179.9,254.1,179.7,254.1,179.5z"/>
					<path d="M255.9,177.4h0.7c0.5,0,0.9,0.2,0.9,0.7s-0.4,0.8-0.9,0.8h-0.4v1h-0.3L255.9,177.4L255.9,177.4z M256.6,178.6
						c0.4,0,0.6-0.1,0.6-0.5s-0.2-0.5-0.6-0.5h-0.4v1H256.6z"/>
					<path d="M257.9,178.6c0-0.8,0.4-1.2,0.9-1.2s0.9,0.5,0.9,1.2c0,0.8-0.4,1.3-0.9,1.3S257.9,179.4,257.9,178.6z M259.5,178.6
						c0-0.6-0.2-1-0.6-1s-0.6,0.4-0.6,1s0.2,1,0.6,1C259.2,179.6,259.5,179.2,259.5,178.6z"/>
					<path d="M260.4,177.4h0.8c0.5,0,0.9,0.2,0.9,0.7s-0.4,0.7-0.9,0.7h-0.4v1h-0.3L260.4,177.4L260.4,177.4z M261.1,178.5
						c0.4,0,0.6-0.2,0.6-0.5s-0.2-0.4-0.6-0.4h-0.4v0.9H261.1z M261.3,178.5l0.7,1.3h-0.4l-0.6-1.1L261.3,178.5z"/>
					<path d="M263.2,177.6h-0.8v-0.3h1.9v0.3h-0.8v2.2h-0.3L263.2,177.6L263.2,177.6z"/>
					<path d="M264.8,177.4h0.8c0.5,0,0.9,0.2,0.9,0.7s-0.4,0.7-0.9,0.7h-0.4v1h-0.3L264.8,177.4L264.8,177.4z M265.5,178.5
						c0.4,0,0.6-0.2,0.6-0.5s-0.2-0.4-0.6-0.4h-0.4v0.9H265.5z M265.7,178.5l0.7,1.3H266l-0.6-1.1L265.7,178.5z"/>
					<path d="M267.6,177.4h0.4l0.8,2.4h-0.3l-0.4-1.4c-0.1-0.3-0.2-0.5-0.2-0.8l0,0c-0.1,0.3-0.2,0.6-0.2,0.8l-0.4,1.4H267
						L267.6,177.4z M267.2,178.8h1.1v0.2h-1.1V178.8z"/>
					<path d="M269.2,179.5h0.6v-1.9h-0.6v-0.3h1.5v0.3h-0.6v1.9h0.6v0.3h-1.5V179.5z"/>
					<path d="M272,177.6h-0.8v-0.3h1.9v0.3h-0.8v2.2H272L272,177.6L272,177.6z"/>
					<path d="M273.5,180.1h1.8v0.3h-1.8V180.1z"/>
					<path d="M276,177.4h1.5v0.3h-1.2v0.8h1v0.3h-1v1.1H276V177.4z"/>
					<path d="M278.2,177.4h0.3v2.2h1.2v0.3h-1.4L278.2,177.4L278.2,177.4z"/>
					<path d="M280.3,179.5h0.6v-1.9h-0.6v-0.3h1.5v0.3h-0.6v1.9h0.6v0.3h-1.5V179.5z"/>
					<path d="M282.6,177.4h0.7c0.5,0,0.9,0.2,0.9,0.7s-0.4,0.8-0.9,0.8h-0.4v1h-0.3L282.6,177.4L282.6,177.4z M283.3,178.6
						c0.4,0,0.6-0.1,0.6-0.5s-0.2-0.5-0.6-0.5h-0.4v1H283.3z"/>
				</g>
			</g>
			<g>
				<g>
					<path d="M6.1,17.1c0-0.8,0.3-1.4,0.9-1.8l0.2,0.2c-0.5,0.5-0.8,1-0.8,1.6s0.2,1.2,0.8,1.6L7,18.9C6.4,18.4,6.1,17.8,6.1,17.1z"
						/>
					<path d="M7.9,16.9c0-0.8,0.3-1.3,0.9-1.3s0.9,0.5,0.9,1.3s-0.3,1.3-0.9,1.3C8.3,18.2,7.9,17.7,7.9,16.9z M9.5,16.9
						c0-0.7-0.2-1-0.6-1s-0.6,0.3-0.6,1S8.5,18,8.9,18C9.2,18,9.5,17.6,9.5,16.9z M8.6,16.9c0-0.2,0.1-0.3,0.2-0.3S9,16.7,9,16.9
						s-0.1,0.3-0.2,0.3S8.6,17,8.6,16.9z"/>
					<path d="M10.8,18.8c0.3-0.2,0.5-0.4,0.5-0.7v-0.4l0.2,0.3c-0.1,0.1-0.1,0.1-0.2,0.1c-0.2,0-0.3-0.1-0.3-0.3s0.2-0.3,0.3-0.3
						c0.2,0,0.4,0.2,0.4,0.5c0,0.5-0.3,0.8-0.7,0.9L10.8,18.8z"/>
					<path d="M12.7,16.9c0-0.8,0.3-1.3,0.9-1.3s0.9,0.5,0.9,1.3s-0.3,1.3-0.9,1.3S12.7,17.7,12.7,16.9z M14.2,16.9
						c0-0.7-0.2-1-0.6-1s-0.6,0.3-0.6,1s0.2,1.1,0.6,1.1C14,18,14.2,17.6,14.2,16.9z M13.4,16.9c0-0.2,0.1-0.3,0.2-0.3
						s0.2,0.1,0.2,0.3s-0.1,0.3-0.2,0.3S13.4,17,13.4,16.9z"/>
					<path d="M15.3,18.7c0.5-0.4,0.8-1,0.8-1.6s-0.2-1.2-0.8-1.6l0.2-0.2c0.5,0.4,0.9,1,0.9,1.8s-0.3,1.4-0.9,1.8L15.3,18.7z"/>
				</g>
			</g>
			<g>
				<g>
					<path d="M94.5,66.6c0-0.8,0.3-1.4,0.9-1.8l0.2,0.2c-0.5,0.4-0.8,1-0.8,1.6s0.2,1.2,0.8,1.6l-0.2,0.2
						C94.8,68,94.5,67.3,94.5,66.6z"/>
					<path d="M96.4,67.4h0.7v-1.9h-0.6v-0.2c0.3,0,0.5-0.1,0.6-0.2h0.2v2.3H98v0.3h-1.7L96.4,67.4L96.4,67.4z"/>
					<path d="M98.7,66.5c0-1,0.5-1.4,1.1-1.4c0.3,0,0.5,0.1,0.7,0.3l-0.2,0.2c-0.1-0.1-0.3-0.2-0.5-0.2c-0.4,0-0.8,0.3-0.8,1.1
						c0,0.6,0.2,1,0.7,1c0.3,0,0.5-0.2,0.5-0.6c0-0.3-0.2-0.5-0.5-0.5c-0.2,0-0.4,0.1-0.7,0.4v-0.3c0.2-0.2,0.5-0.3,0.7-0.3
						c0.5,0,0.8,0.3,0.8,0.8s-0.4,0.8-0.9,0.8C99.1,67.7,98.7,67.3,98.7,66.5z"/>
					<path d="M101.1,66.4c0-0.8,0.4-1.3,0.9-1.3s0.9,0.5,0.9,1.3s-0.4,1.3-0.9,1.3C101.4,67.7,101.1,67.2,101.1,66.4z M102.6,66.4
						c0-0.7-0.2-1-0.6-1s-0.6,0.3-0.6,1s0.2,1.1,0.6,1.1S102.6,67.1,102.6,66.4z M101.7,66.4c0-0.2,0.1-0.3,0.2-0.3s0.2,0.1,0.2,0.3
						c0,0.2-0.1,0.3-0.2,0.3C101.9,66.6,101.7,66.5,101.7,66.4z"/>
					<path d="M104,68.3c0.3-0.2,0.5-0.4,0.5-0.7l-0.1-0.4l0.2,0.3c-0.1,0.1-0.1,0.1-0.2,0.1c-0.2,0-0.3-0.1-0.3-0.3
						c0-0.2,0.1-0.3,0.3-0.3c0.2,0,0.4,0.2,0.4,0.5c0,0.5-0.3,0.8-0.7,0.9L104,68.3z"/>
					<path d="M105.8,67c0-0.3,0.3-0.6,0.5-0.7l0,0c-0.2-0.1-0.4-0.3-0.4-0.6c0-0.4,0.3-0.7,0.8-0.7s0.8,0.3,0.8,0.7
						c0,0.2-0.2,0.5-0.4,0.6l0,0c0.3,0.1,0.5,0.3,0.5,0.7c0,0.4-0.3,0.7-0.9,0.7C106.2,67.7,105.8,67.4,105.8,67z M107.4,67
						c0-0.3-0.4-0.4-0.8-0.6c-0.2,0.1-0.4,0.3-0.4,0.6c0,0.3,0.2,0.5,0.6,0.5C107.1,67.5,107.4,67.3,107.4,67z M107.3,65.8
						c0-0.2-0.2-0.4-0.5-0.4s-0.5,0.2-0.5,0.4c0,0.3,0.3,0.4,0.7,0.6C107.2,66.2,107.3,66,107.3,65.8z"/>
					<path d="M108.2,66.4c0-0.8,0.4-1.3,0.9-1.3s0.9,0.5,0.9,1.3s-0.4,1.3-0.9,1.3S108.2,67.2,108.2,66.4z M109.7,66.4
						c0-0.7-0.2-1-0.6-1s-0.6,0.3-0.6,1s0.2,1.1,0.6,1.1S109.7,67.1,109.7,66.4z M108.9,66.4c0-0.2,0.1-0.3,0.2-0.3s0.2,0.1,0.2,0.3
						c0,0.2-0.1,0.3-0.2,0.3C109,66.6,108.9,66.5,108.9,66.4z"/>
					<path d="M110.8,68.2c0.5-0.4,0.8-1,0.8-1.6s-0.2-1.2-0.8-1.6l0.2-0.2c0.6,0.4,0.9,1,0.9,1.8s-0.3,1.4-0.9,1.8L110.8,68.2z"/>
				</g>
			</g>
			<g>
				<g>
					<path d="M94.5,17.5c0-0.8,0.3-1.4,0.9-1.8l0.2,0.2c-0.5,0.4-0.8,1-0.8,1.6s0.2,1.2,0.8,1.6l-0.2,0.2
						C94.8,18.9,94.5,18.3,94.5,17.5z"/>
					<path d="M96.4,18.3h0.7v-1.9h-0.6v-0.2c0.3,0,0.5-0.1,0.6-0.2h0.2v2.3H98v0.3h-1.7L96.4,18.3L96.4,18.3z"/>
					<path d="M98.7,17.4c0-1,0.5-1.4,1.1-1.4c0.3,0,0.5,0.1,0.7,0.3l-0.2,0.2c-0.1-0.1-0.3-0.2-0.5-0.2c-0.4,0-0.8,0.3-0.8,1.1
						c0,0.6,0.2,1,0.7,1c0.3,0,0.5-0.2,0.5-0.6c0-0.3-0.2-0.5-0.5-0.5c-0.2,0-0.4,0.1-0.7,0.4v-0.3c0.2-0.2,0.5-0.3,0.7-0.3
						c0.5,0,0.8,0.3,0.8,0.8s-0.4,0.8-0.9,0.8C99.1,18.6,98.7,18.2,98.7,17.4z"/>
					<path d="M101.1,17.3c0-0.8,0.4-1.3,0.9-1.3s0.9,0.5,0.9,1.3s-0.4,1.3-0.9,1.3C101.4,18.6,101.1,18.2,101.1,17.3z M102.6,17.3
						c0-0.7-0.2-1-0.6-1s-0.6,0.3-0.6,1s0.2,1.1,0.6,1.1S102.6,18,102.6,17.3z M101.7,17.3c0-0.2,0.1-0.3,0.2-0.3s0.2,0.1,0.2,0.3
						s-0.1,0.3-0.2,0.3C101.9,17.6,101.7,17.5,101.7,17.3z"/>
					<path d="M104,19.2c0.3-0.2,0.5-0.4,0.5-0.7l-0.1-0.4l0.2,0.3c-0.1,0.1-0.1,0.1-0.2,0.1c-0.2,0-0.3-0.1-0.3-0.3s0.1-0.3,0.3-0.3
						c0.2,0,0.4,0.2,0.4,0.5c0,0.5-0.3,0.8-0.7,0.9L104,19.2z"/>
					<path d="M105.8,17.3c0-0.8,0.4-1.3,0.9-1.3s0.9,0.5,0.9,1.3s-0.4,1.3-0.9,1.3C106.2,18.6,105.8,18.2,105.8,17.3z M107.4,17.3
						c0-0.7-0.2-1-0.6-1s-0.6,0.3-0.6,1s0.2,1.1,0.6,1.1S107.4,18,107.4,17.3z M106.5,17.3c0-0.2,0.1-0.3,0.2-0.3s0.2,0.1,0.2,0.3
						s-0.1,0.3-0.2,0.3C106.6,17.6,106.5,17.5,106.5,17.3z"/>
					<path d="M108.4,19.1c0.5-0.4,0.8-1,0.8-1.6s-0.2-1.2-0.8-1.6l0.2-0.2c0.6,0.4,0.9,1,0.9,1.8s-0.3,1.4-0.9,1.8L108.4,19.1z"/>
				</g>
			</g>
			<g>
				<g>
					<path d="M3.9,66.7c0-0.8,0.3-1.4,0.9-1.8L5,65.1c-0.5,0.4-0.8,1-0.8,1.6s0.2,1.2,0.8,1.6l-0.2,0.2C4.2,68,3.9,67.4,3.9,66.7z"
						/>
					<path d="M5.7,66.5c0-0.8,0.3-1.3,0.9-1.3s0.9,0.5,0.9,1.3s-0.3,1.3-0.9,1.3C6.1,67.8,5.7,67.3,5.7,66.5z M7.2,66.5
						c0-0.7-0.2-1-0.6-1S6,65.8,6,66.5s0.2,1.1,0.6,1.1C7,67.5,7.2,67.2,7.2,66.5z M6.4,66.5c0-0.2,0.1-0.3,0.2-0.3
						c0.1,0,0.2,0.1,0.2,0.3c0,0.2-0.1,0.3-0.2,0.3C6.5,66.7,6.4,66.6,6.4,66.5z"/>
					<path d="M8.6,68.4c0.3-0.2,0.5-0.4,0.5-0.7L9,67.3l0.2,0.3c-0.1,0.1-0.1,0.1-0.2,0.1c-0.2,0-0.3-0.1-0.3-0.3
						c0-0.2,0.2-0.3,0.3-0.3c0.2,0,0.4,0.2,0.4,0.5C9.4,68.1,9.1,68.4,8.6,68.4L8.6,68.4z"/>
					<path d="M10.5,67.1c0-0.3,0.3-0.6,0.5-0.7l0,0c-0.2-0.1-0.4-0.3-0.4-0.6c0-0.4,0.3-0.7,0.8-0.7s0.8,0.3,0.8,0.7
						c0,0.2-0.2,0.5-0.4,0.6l0,0c0.3,0.1,0.5,0.3,0.5,0.7c0,0.4-0.3,0.7-0.9,0.7S10.5,67.5,10.5,67.1z M12,67.1
						c0-0.3-0.3-0.4-0.8-0.6c-0.2,0.1-0.4,0.3-0.4,0.6c0,0.3,0.2,0.5,0.6,0.5C11.8,67.6,12,67.4,12,67.1z M11.9,65.9
						c0-0.2-0.2-0.4-0.5-0.4s-0.5,0.2-0.5,0.4c0,0.3,0.3,0.4,0.7,0.6C11.8,66.2,11.9,66.1,11.9,65.9z"/>
					<path d="M12.9,66.5c0-0.8,0.3-1.3,0.9-1.3s0.9,0.5,0.9,1.3s-0.3,1.3-0.9,1.3C13.2,67.8,12.9,67.3,12.9,66.5z M14.4,66.5
						c0-0.7-0.2-1-0.6-1s-0.6,0.3-0.6,1s0.2,1.1,0.6,1.1C14.1,67.5,14.4,67.2,14.4,66.5z M13.5,66.5c0-0.2,0.1-0.3,0.2-0.3
						s0.2,0.1,0.2,0.3c0,0.2-0.1,0.3-0.2,0.3C13.6,66.7,13.5,66.6,13.5,66.5z"/>
					<path d="M15.4,68.3c0.5-0.4,0.8-1,0.8-1.6s-0.2-1.2-0.8-1.6l0.2-0.2c0.5,0.4,0.9,1,0.9,1.8s-0.3,1.4-0.9,1.8L15.4,68.3z"/>
				</g>
			</g>
			<circle cx="96.4" cy="62.1" r="0.8"/>
			<circle cx="96.4" cy="20.2" r="0.8"/>
			<circle cx="14.4" cy="62.1" r="0.8"/>
			<circle cx="14.4" cy="20.2" r="0.8"/>
			<g>
				<g>
					<path d="M235.6,16.6c0-0.8,0.3-1.4,0.9-1.8l0.2,0.2c-0.5,0.5-0.8,1-0.8,1.6s0.2,1.2,0.8,1.6l-0.2,0.2
						C235.9,18,235.6,17.4,235.6,16.6z"/>
					<path d="M237.4,16.5c0-0.8,0.4-1.3,0.9-1.3s0.9,0.5,0.9,1.3s-0.4,1.3-0.9,1.3S237.4,17.3,237.4,16.5z M238.9,16.5
						c0-0.7-0.2-1-0.6-1s-0.6,0.3-0.6,1s0.2,1.1,0.6,1.1C238.7,17.5,238.9,17.2,238.9,16.5z M238.1,16.4c0-0.2,0.1-0.3,0.2-0.3
						c0.1,0,0.2,0.1,0.2,0.3s-0.1,0.3-0.2,0.3C238.2,16.7,238.1,16.6,238.1,16.4z"/>
					<path d="M240.3,18.4c0.3-0.2,0.5-0.4,0.5-0.7l-0.1-0.4l0.2,0.3c-0.1,0.1-0.1,0.1-0.2,0.1c-0.2,0-0.3-0.1-0.3-0.3
						s0.1-0.3,0.3-0.3s0.4,0.2,0.4,0.5C241.1,18.1,240.8,18.4,240.3,18.4L240.3,18.4z"/>
					<path d="M242.2,16.5c0-0.8,0.4-1.3,0.9-1.3s0.9,0.5,0.9,1.3s-0.4,1.3-0.9,1.3S242.2,17.3,242.2,16.5z M243.7,16.5
						c0-0.7-0.2-1-0.6-1s-0.6,0.3-0.6,1s0.2,1.1,0.6,1.1C243.4,17.5,243.7,17.2,243.7,16.5z M242.8,16.4c0-0.2,0.1-0.3,0.2-0.3
						c0.1,0,0.2,0.1,0.2,0.3s-0.1,0.3-0.2,0.3C243,16.7,242.8,16.6,242.8,16.4z"/>
					<path d="M244.8,18.3c0.5-0.4,0.8-1,0.8-1.6s-0.2-1.2-0.8-1.6l0.2-0.2c0.5,0.4,0.9,1,0.9,1.8s-0.3,1.4-0.9,1.8L244.8,18.3z"/>
				</g>
			</g>
			<g>
				<g>
					<path d="M320,66.2c0-0.8,0.3-1.4,0.9-1.8l0.2,0.2c-0.5,0.4-0.8,1-0.8,1.6s0.2,1.2,0.8,1.6l-0.2,0.2
						C320.4,67.5,320,66.9,320,66.2z"/>
					<path d="M322,67h0.7v-1.9h-0.6v-0.2c0.3,0,0.5-0.1,0.6-0.2h0.2V67h0.7v0.3h-1.7L322,67L322,67z"/>
					<path d="M324.3,66.1c0-1,0.5-1.4,1.1-1.4c0.3,0,0.5,0.1,0.7,0.3l-0.2,0.2c-0.1-0.1-0.3-0.2-0.5-0.2c-0.4,0-0.8,0.3-0.8,1.1
						c0,0.6,0.2,1,0.7,1c0.3,0,0.5-0.2,0.5-0.6c0-0.3-0.2-0.5-0.5-0.5c-0.2,0-0.4,0.1-0.7,0.4v-0.3c0.2-0.2,0.5-0.3,0.7-0.3
						c0.5,0,0.8,0.3,0.8,0.8s-0.4,0.8-0.9,0.8C324.7,67.3,324.3,66.9,324.3,66.1z"/>
					<path d="M326.6,66c0-0.8,0.4-1.3,0.9-1.3s0.9,0.5,0.9,1.3s-0.4,1.3-0.9,1.3C327,67.3,326.6,66.8,326.6,66z M328.1,66
						c0-0.7-0.2-1-0.6-1s-0.6,0.3-0.6,1s0.2,1.1,0.6,1.1S328.1,66.7,328.1,66z M327.3,66c0-0.2,0.1-0.3,0.2-0.3s0.2,0.1,0.2,0.3
						c0,0.2-0.1,0.3-0.2,0.3S327.3,66.1,327.3,66z"/>
					<path d="M329.5,67.9c0.3-0.2,0.5-0.4,0.5-0.7l-0.1-0.4l0.2,0.3c-0.1,0.1-0.1,0.1-0.2,0.1c-0.2,0-0.3-0.1-0.3-0.3
						c0-0.2,0.1-0.3,0.3-0.3c0.2,0,0.4,0.2,0.4,0.5C330.3,67.6,330,67.9,329.5,67.9L329.5,67.9z"/>
					<path d="M331.4,66.6c0-0.3,0.3-0.6,0.5-0.7l0,0c-0.2-0.1-0.4-0.3-0.4-0.6c0-0.4,0.3-0.7,0.8-0.7s0.8,0.3,0.8,0.7
						c0,0.2-0.2,0.5-0.4,0.6l0,0c0.3,0.1,0.5,0.3,0.5,0.7c0,0.4-0.3,0.7-0.9,0.7S331.4,67,331.4,66.6z M332.9,66.6
						c0-0.3-0.4-0.4-0.8-0.6c-0.2,0.1-0.4,0.3-0.4,0.6c0,0.3,0.2,0.5,0.6,0.5C332.7,67.1,332.9,66.9,332.9,66.6z M332.8,65.4
						c0-0.2-0.2-0.4-0.5-0.4s-0.5,0.2-0.5,0.4c0,0.3,0.3,0.4,0.7,0.6C332.7,65.7,332.8,65.6,332.8,65.4z"/>
					<path d="M333.8,66c0-0.8,0.4-1.3,0.9-1.3s0.9,0.5,0.9,1.3s-0.4,1.3-0.9,1.3C334.1,67.3,333.8,66.8,333.8,66z M335.3,66
						c0-0.7-0.2-1-0.6-1s-0.6,0.3-0.6,1s0.2,1.1,0.6,1.1S335.3,66.7,335.3,66z M334.4,66c0-0.2,0.1-0.3,0.2-0.3s0.2,0.1,0.2,0.3
						c0,0.2-0.1,0.3-0.2,0.3C334.5,66.2,334.4,66.1,334.4,66z"/>
					<path d="M336.3,67.8c0.5-0.4,0.8-1,0.8-1.6s-0.2-1.2-0.8-1.6l0.2-0.2c0.5,0.4,0.9,1,0.9,1.8s-0.3,1.4-0.9,1.8L336.3,67.8z"/>
				</g>
			</g>
			<g>
				<g>
					<path d="M320,17.1c0-0.8,0.3-1.4,0.9-1.8l0.2,0.2c-0.5,0.5-0.8,1-0.8,1.6s0.2,1.2,0.8,1.6l-0.2,0.2
						C320.4,18.4,320,17.8,320,17.1z"/>
					<path d="M322,17.9h0.7V16h-0.6v-0.2c0.3,0,0.5-0.1,0.6-0.2h0.2v2.3h0.7v0.3h-1.7L322,17.9L322,17.9z"/>
					<path d="M324.3,17c0-1,0.5-1.4,1.1-1.4c0.3,0,0.5,0.1,0.7,0.3l-0.2,0.2c-0.1-0.1-0.3-0.2-0.5-0.2c-0.4,0-0.8,0.3-0.8,1.1
						c0,0.6,0.2,1,0.7,1c0.3,0,0.5-0.2,0.5-0.6c0-0.3-0.2-0.5-0.5-0.5c-0.2,0-0.4,0.1-0.7,0.4V17c0.2-0.2,0.5-0.3,0.7-0.3
						c0.5,0,0.8,0.3,0.8,0.8s-0.4,0.8-0.9,0.8C324.7,18.2,324.3,17.8,324.3,17z"/>
					<path d="M326.6,16.9c0-0.8,0.4-1.3,0.9-1.3s0.9,0.5,0.9,1.3s-0.4,1.3-0.9,1.3C327,18.2,326.6,17.7,326.6,16.9z M328.1,16.9
						c0-0.7-0.2-1-0.6-1s-0.6,0.3-0.6,1s0.2,1.1,0.6,1.1S328.1,17.6,328.1,16.9z M327.3,16.9c0-0.2,0.1-0.3,0.2-0.3s0.2,0.1,0.2,0.3
						s-0.1,0.3-0.2,0.3C327.4,17.1,327.3,17,327.3,16.9z"/>
					<path d="M329.5,18.8c0.3-0.2,0.5-0.4,0.5-0.7l-0.1-0.4l0.2,0.3c-0.1,0.1-0.1,0.1-0.2,0.1c-0.2,0-0.3-0.1-0.3-0.3
						s0.1-0.3,0.3-0.3c0.2,0,0.4,0.2,0.4,0.5C330.3,18.5,330,18.8,329.5,18.8L329.5,18.8z"/>
					<path d="M331.4,16.9c0-0.8,0.4-1.3,0.9-1.3s0.9,0.5,0.9,1.3s-0.4,1.3-0.9,1.3C331.7,18.2,331.4,17.7,331.4,16.9z M332.9,16.9
						c0-0.7-0.2-1-0.6-1s-0.6,0.3-0.6,1s0.2,1.1,0.6,1.1S332.9,17.6,332.9,16.9z M332,16.9c0-0.2,0.1-0.3,0.2-0.3s0.2,0.1,0.2,0.3
						s-0.1,0.3-0.2,0.3C332.2,17.1,332,17,332,16.9z"/>
					<path d="M334,18.7c0.5-0.4,0.8-1,0.8-1.6s-0.2-1.2-0.8-1.6l0.2-0.2c0.5,0.4,0.9,1,0.9,1.8s-0.3,1.4-0.9,1.8L334,18.7z"/>
				</g>
			</g>
			<g>
				<g>
					<path d="M233.4,66.2c0-0.8,0.3-1.4,0.9-1.8l0.2,0.2c-0.5,0.4-0.8,1-0.8,1.6s0.2,1.2,0.8,1.6l-0.2,0.2
						C233.7,67.6,233.4,67,233.4,66.2z"/>
					<path d="M235.2,66.1c0-0.8,0.4-1.3,0.9-1.3s0.9,0.5,0.9,1.3s-0.4,1.3-0.9,1.3S235.2,66.9,235.2,66.1z M236.7,66.1
						c0-0.7-0.2-1-0.6-1s-0.6,0.3-0.6,1s0.2,1.1,0.6,1.1C236.4,67.1,236.7,66.8,236.7,66.1z M235.9,66c0-0.2,0.1-0.3,0.2-0.3
						c0.1,0,0.2,0.1,0.2,0.3c0,0.2-0.1,0.3-0.2,0.3C236,66.3,235.9,66.2,235.9,66z"/>
					<path d="M238.1,68c0.3-0.2,0.5-0.4,0.5-0.7l-0.1-0.4l0.2,0.3c-0.1,0.1-0.1,0.1-0.2,0.1c-0.2,0-0.3-0.1-0.3-0.3
						c0-0.2,0.1-0.3,0.3-0.3s0.4,0.2,0.4,0.5C238.9,67.7,238.6,68,238.1,68L238.1,68z"/>
					<path d="M239.9,66.7c0-0.3,0.3-0.6,0.5-0.7l0,0c-0.2-0.1-0.4-0.3-0.4-0.6c0-0.4,0.3-0.7,0.8-0.7s0.8,0.3,0.8,0.7
						c0,0.2-0.2,0.5-0.4,0.6l0,0c0.3,0.1,0.5,0.3,0.5,0.7c0,0.4-0.3,0.7-0.9,0.7C240.3,67.4,239.9,67.1,239.9,66.7z M241.5,66.7
						c0-0.3-0.4-0.4-0.8-0.6c-0.2,0.1-0.4,0.3-0.4,0.6c0,0.3,0.2,0.5,0.6,0.5C241.2,67.1,241.5,67,241.5,66.7z M241.4,65.5
						c0-0.2-0.2-0.4-0.5-0.4s-0.5,0.2-0.5,0.4c0,0.3,0.3,0.4,0.7,0.6C241.3,65.8,241.4,65.6,241.4,65.5z"/>
					<path d="M242.3,66.1c0-0.8,0.4-1.3,0.9-1.3s0.9,0.5,0.9,1.3s-0.4,1.3-0.9,1.3C242.7,67.4,242.3,66.9,242.3,66.1z M243.8,66.1
						c0-0.7-0.2-1-0.6-1s-0.6,0.3-0.6,1s0.2,1.1,0.6,1.1C243.6,67.1,243.8,66.8,243.8,66.1z M243,66c0-0.2,0.1-0.3,0.2-0.3
						c0.1,0,0.2,0.1,0.2,0.3c0,0.2-0.1,0.3-0.2,0.3C243.1,66.3,243,66.2,243,66z"/>
					<path d="M244.9,67.9c0.5-0.4,0.8-1,0.8-1.6s-0.2-1.2-0.8-1.6l0.2-0.2c0.5,0.4,0.9,1,0.9,1.8s-0.3,1.4-0.9,1.8L244.9,67.9z"/>
				</g>
			</g>
			<circle cx="325.9" cy="61.7" r="0.8"/>
			<circle cx="325.9" cy="19.8" r="0.8"/>
			<circle cx="243.9" cy="61.7" r="0.8"/>
			<circle cx="243.9" cy="19.8" r="0.8"/>
			<circle cx="57.5" cy="186.8" r="0.8"/>
			<circle cx="99.4" cy="186.8" r="0.8"/>
			<circle cx="57.5" cy="104.8" r="0.8"/>
			<circle cx="99.4" cy="104.8" r="0.8"/>
			<g>
				<g>
					<path d="M48.6,101.4c0-0.8,0.3-1.4,0.9-1.8l0.2,0.2c-0.5,0.4-0.8,1-0.8,1.6s0.2,1.2,0.8,1.6l-0.2,0.2
						C49,102.8,48.6,102.2,48.6,101.4z"/>
					<path d="M50.5,101.3c0-0.9,0.3-1.3,0.9-1.3s0.9,0.5,0.9,1.3s-0.3,1.3-0.9,1.3C50.8,102.6,50.5,102.1,50.5,101.3z M52,101.3
						c0-0.7-0.2-1-0.6-1c-0.4,0-0.6,0.3-0.6,1s0.2,1.1,0.6,1.1C51.8,102.4,52,102,52,101.3z M51.1,101.2c0-0.2,0.1-0.3,0.2-0.3
						c0.1,0,0.2,0.1,0.2,0.3c0,0.2-0.1,0.3-0.2,0.3S51.1,101.4,51.1,101.2z"/>
					<path d="M53.3,103.2c0.3-0.1,0.5-0.4,0.5-0.7l-0.1-0.4l0.2,0.3c-0.1,0.1-0.1,0.1-0.2,0.1c-0.2,0-0.3-0.1-0.3-0.3
						c0-0.2,0.2-0.3,0.3-0.3c0.2,0,0.4,0.2,0.4,0.5C54.1,102.9,53.8,103.2,53.3,103.2L53.3,103.2z"/>
					<path d="M55.2,101.3c0-0.9,0.3-1.3,0.9-1.3s0.9,0.5,0.9,1.3s-0.3,1.3-0.9,1.3C55.6,102.6,55.2,102.1,55.2,101.3z M56.7,101.3
						c0-0.7-0.2-1-0.6-1s-0.6,0.3-0.6,1s0.2,1.1,0.6,1.1S56.7,102,56.7,101.3z M55.9,101.2c0-0.2,0.1-0.3,0.2-0.3s0.2,0.1,0.2,0.3
						c0,0.2-0.1,0.3-0.2,0.3S55.9,101.4,55.9,101.2z"/>
					<path d="M57.8,103.1c0.5-0.4,0.8-1,0.8-1.6s-0.2-1.2-0.8-1.6l0.2-0.2c0.6,0.4,0.9,1,0.9,1.8s-0.3,1.4-0.9,1.8L57.8,103.1z"/>
				</g>
			</g>
			<g>
				<g>
					<path d="M100.6,101.8c0-0.8,0.3-1.4,0.9-1.8l0.2,0.2c-0.5,0.4-0.8,1-0.8,1.6s0.2,1.2,0.8,1.6l-0.2,0.2
						C100.9,103.1,100.6,102.5,100.6,101.8z"/>
					<path d="M102.4,102.2c0-0.4,0.3-0.6,0.5-0.7l0,0c-0.2-0.1-0.4-0.3-0.4-0.6c0-0.4,0.3-0.6,0.8-0.6s0.8,0.3,0.8,0.7
						c0,0.2-0.2,0.5-0.4,0.6l0,0c0.3,0.1,0.5,0.3,0.5,0.7c0,0.4-0.3,0.7-0.9,0.7C102.7,102.9,102.4,102.6,102.4,102.2z M103.9,102.2
						c0-0.4-0.4-0.4-0.8-0.6c-0.2,0.1-0.4,0.3-0.4,0.6c0,0.3,0.2,0.5,0.6,0.5C103.7,102.6,103.9,102.5,103.9,102.2z M103.8,101
						c0-0.2-0.2-0.4-0.5-0.4s-0.5,0.2-0.5,0.4c0,0.3,0.3,0.4,0.7,0.6C103.7,101.3,103.8,101.1,103.8,101z"/>
					<path d="M104.8,101.6c0-0.9,0.4-1.3,0.9-1.3s0.9,0.5,0.9,1.3s-0.4,1.3-0.9,1.3C105.1,102.9,104.8,102.4,104.8,101.6z
						 M106.3,101.6c0-0.7-0.2-1-0.6-1s-0.6,0.3-0.6,1s0.2,1.1,0.6,1.1C106,102.6,106.3,102.3,106.3,101.6z M105.4,101.5
						c0-0.2,0.1-0.3,0.2-0.3s0.2,0.1,0.2,0.3c0,0.2-0.1,0.3-0.2,0.3S105.4,101.7,105.4,101.5z"/>
					<path d="M107.6,103.5c0.3-0.1,0.5-0.4,0.5-0.7l-0.1-0.4l0.2,0.3c-0.1,0.1-0.1,0.1-0.2,0.1c-0.2,0-0.3-0.1-0.3-0.3
						c0-0.2,0.1-0.3,0.3-0.3c0.2,0,0.4,0.2,0.4,0.5c0,0.5-0.3,0.8-0.7,0.9L107.6,103.5z"/>
					<path d="M109.5,101.6c0-0.9,0.4-1.3,0.9-1.3s0.9,0.5,0.9,1.3s-0.4,1.3-0.9,1.3C109.9,102.9,109.5,102.4,109.5,101.6z
						 M111,101.6c0-0.7-0.2-1-0.6-1s-0.6,0.3-0.6,1s0.2,1.1,0.6,1.1C110.8,102.6,111,102.3,111,101.6z M110.2,101.5
						c0-0.2,0.1-0.3,0.2-0.3s0.2,0.1,0.2,0.3c0,0.2-0.1,0.3-0.2,0.3S110.2,101.7,110.2,101.5z"/>
					<path d="M112.1,103.4c0.5-0.4,0.8-1,0.8-1.6s-0.2-1.2-0.8-1.6l0.2-0.2c0.6,0.4,0.9,1,0.9,1.8s-0.3,1.4-0.9,1.8L112.1,103.4z"/>
				</g>
			</g>
			<g>
				<g>
					<path d="M49,190c0-0.8,0.3-1.4,0.9-1.8l0.2,0.2c-0.5,0.4-0.8,1-0.8,1.6s0.2,1.2,0.8,1.6l-0.2,0.2C49.3,191.3,49,190.7,49,190z"
						/>
					<path d="M50.8,189.8c0-0.9,0.3-1.3,0.9-1.3c0.6,0,0.9,0.5,0.9,1.3s-0.3,1.3-0.9,1.3C51.2,191.1,50.8,190.6,50.8,189.8z
						 M52.4,189.8c0-0.7-0.2-1-0.6-1c-0.4,0-0.6,0.3-0.6,1s0.2,1.1,0.6,1.1C52.1,190.8,52.4,190.5,52.4,189.8z M51.5,189.8
						c0-0.2,0.1-0.3,0.2-0.3c0.1,0,0.2,0.1,0.2,0.3s-0.1,0.3-0.2,0.3C51.6,190,51.5,189.9,51.5,189.8z"/>
					<path d="M53.7,191.7c0.3-0.1,0.5-0.4,0.5-0.7l-0.1-0.4l0.2,0.3c-0.1,0.1-0.1,0.1-0.2,0.1c-0.2,0-0.3-0.1-0.3-0.3
						s0.2-0.3,0.3-0.3c0.2,0,0.4,0.2,0.4,0.5c0,0.5-0.3,0.8-0.7,0.9L53.7,191.7z"/>
					<path d="M55.7,190.8h0.7v-1.9h-0.6v-0.2c0.3,0,0.5-0.1,0.7-0.2h0.2v2.3h0.7v0.3h-1.7C55.7,191.1,55.7,190.8,55.7,190.8z"/>
					<path d="M58,189.9c0-1,0.5-1.4,1.1-1.4c0.3,0,0.5,0.1,0.7,0.3l-0.2,0.2c-0.1-0.1-0.3-0.2-0.5-0.2c-0.4,0-0.8,0.3-0.8,1.1
						c0,0.6,0.2,1,0.7,1c0.3,0,0.5-0.2,0.5-0.6c0-0.4-0.2-0.5-0.5-0.5c-0.2,0-0.4,0.1-0.7,0.4v-0.3c0.2-0.2,0.5-0.4,0.7-0.4
						c0.5,0,0.8,0.3,0.8,0.8s-0.4,0.8-0.8,0.8C58.4,191.1,58,190.7,58,189.9z"/>
					<path d="M60.4,189.8c0-0.9,0.3-1.3,0.9-1.3s0.9,0.5,0.9,1.3s-0.3,1.3-0.9,1.3S60.4,190.6,60.4,189.8z M61.9,189.8
						c0-0.7-0.2-1-0.6-1s-0.6,0.3-0.6,1s0.2,1.1,0.6,1.1C61.6,190.8,61.9,190.5,61.9,189.8z M61,189.8c0-0.2,0.1-0.3,0.2-0.3
						s0.2,0.1,0.2,0.3s-0.1,0.3-0.2,0.3C61.1,190,61,189.9,61,189.8z"/>
					<path d="M62.9,191.6c0.5-0.4,0.8-1,0.8-1.6s-0.2-1.2-0.8-1.6l0.2-0.2c0.6,0.4,0.9,1,0.9,1.8s-0.3,1.4-0.9,1.8L62.9,191.6z"/>
				</g>
			</g>
			<g>
				<g>
					<path d="M97.2,190.3c0-0.8,0.3-1.4,0.9-1.8l0.2,0.2c-0.5,0.4-0.8,1-0.8,1.6s0.2,1.2,0.8,1.6l-0.2,0.2
						C97.5,191.6,97.2,191,97.2,190.3z"/>
					<path d="M99,190.7c0-0.4,0.3-0.6,0.5-0.7l0,0c-0.2-0.1-0.4-0.3-0.4-0.6c0-0.4,0.3-0.6,0.8-0.6s0.8,0.3,0.8,0.7
						c0,0.2-0.2,0.5-0.4,0.6l0,0c0.3,0.1,0.5,0.3,0.5,0.7s-0.3,0.7-0.9,0.7C99.4,191.4,99,191.1,99,190.7z M100.6,190.7
						c0-0.4-0.4-0.4-0.8-0.6c-0.2,0.1-0.4,0.3-0.4,0.6s0.2,0.5,0.6,0.5C100.3,191.2,100.6,191,100.6,190.7z M100.5,189.5
						c0-0.2-0.2-0.4-0.5-0.4s-0.5,0.2-0.5,0.4c0,0.3,0.3,0.4,0.7,0.6C100.4,189.8,100.5,189.7,100.5,189.5z"/>
					<path d="M101.4,190.1c0-0.9,0.4-1.3,0.9-1.3s0.9,0.5,0.9,1.3s-0.4,1.3-0.9,1.3S101.4,190.9,101.4,190.1z M102.9,190.1
						c0-0.7-0.2-1-0.6-1s-0.6,0.3-0.6,1s0.2,1.1,0.6,1.1S102.9,190.8,102.9,190.1z M102.1,190.1c0-0.2,0.1-0.3,0.2-0.3
						s0.2,0.1,0.2,0.3s-0.1,0.3-0.2,0.3S102.1,190.2,102.1,190.1z"/>
					<path d="M104.3,192c0.3-0.1,0.5-0.4,0.5-0.7l-0.1-0.4l0.2,0.3c-0.1,0.1-0.1,0.1-0.2,0.1c-0.2,0-0.3-0.1-0.3-0.3
						s0.1-0.3,0.3-0.3c0.2,0,0.4,0.2,0.4,0.5c0,0.5-0.3,0.8-0.7,0.9L104.3,192z"/>
					<path d="M106.3,191.1h0.7v-1.9h-0.6V189c0.3,0,0.5-0.1,0.6-0.2h0.2v2.3h0.7v0.3h-1.6V191.1L106.3,191.1z"/>
					<path d="M108.6,190.2c0-1,0.5-1.4,1.1-1.4c0.3,0,0.5,0.1,0.7,0.3l-0.2,0.2c-0.1-0.1-0.3-0.2-0.5-0.2c-0.4,0-0.8,0.3-0.8,1.1
						c0,0.6,0.2,1,0.7,1c0.3,0,0.5-0.2,0.5-0.6c0-0.4-0.2-0.5-0.5-0.5c-0.2,0-0.4,0.1-0.7,0.4v-0.3c0.2-0.2,0.5-0.4,0.7-0.4
						c0.5,0,0.8,0.3,0.8,0.8s-0.4,0.8-0.9,0.8C109,191.4,108.6,191,108.6,190.2z"/>
					<path d="M111,190.1c0-0.9,0.4-1.3,0.9-1.3s0.9,0.5,0.9,1.3s-0.4,1.3-0.9,1.3C111.3,191.4,111,190.9,111,190.1z M112.5,190.1
						c0-0.7-0.2-1-0.6-1s-0.6,0.3-0.6,1s0.2,1.1,0.6,1.1S112.5,190.8,112.5,190.1z M111.6,190.1c0-0.2,0.1-0.3,0.2-0.3
						s0.2,0.1,0.2,0.3s-0.1,0.3-0.2,0.3S111.6,190.2,111.6,190.1z"/>
					<path d="M113.5,191.9c0.5-0.4,0.8-1,0.8-1.6s-0.2-1.2-0.8-1.6l0.2-0.2c0.6,0.4,0.9,1,0.9,1.8s-0.3,1.4-0.9,1.8L113.5,191.9z"/>
				</g>
			</g>
			<circle cx="244.4" cy="239.2" r="0.8"/>
			<circle cx="286.3" cy="239.2" r="0.8"/>
			<circle cx="244.4" cy="157.2" r="0.8"/>
			<circle cx="286.3" cy="157.2" r="0.8"/>
			<g>
				<g>
					<path d="M235.6,153.8c0-0.8,0.3-1.4,0.9-1.8l0.2,0.2c-0.5,0.4-0.8,1-0.8,1.6s0.2,1.2,0.8,1.6l-0.2,0.2
						C235.9,155.2,235.6,154.6,235.6,153.8z"/>
					<path d="M237.4,153.7c0-0.9,0.4-1.3,0.9-1.3s0.9,0.5,0.9,1.3s-0.4,1.3-0.9,1.3S237.4,154.5,237.4,153.7z M238.9,153.7
						c0-0.7-0.2-1-0.6-1s-0.6,0.3-0.6,1s0.2,1.1,0.6,1.1S238.9,154.4,238.9,153.7z M238.1,153.6c0-0.2,0.1-0.3,0.2-0.3
						c0.1,0,0.2,0.1,0.2,0.3s-0.1,0.3-0.2,0.3C238.2,153.9,238.1,153.8,238.1,153.6z"/>
					<path d="M240.3,155.6c0.3-0.1,0.5-0.4,0.5-0.7l-0.1-0.4l0.2,0.3c-0.1,0.1-0.1,0.1-0.2,0.1c-0.2,0-0.3-0.1-0.3-0.3
						s0.1-0.3,0.3-0.3s0.4,0.2,0.4,0.5c0,0.5-0.3,0.8-0.7,0.9L240.3,155.6z"/>
					<path d="M242.2,153.7c0-0.9,0.4-1.3,0.9-1.3s0.9,0.5,0.9,1.3s-0.4,1.3-0.9,1.3S242.2,154.5,242.2,153.7z M243.7,153.7
						c0-0.7-0.2-1-0.6-1s-0.6,0.3-0.6,1s0.2,1.1,0.6,1.1S243.7,154.4,243.7,153.7z M242.8,153.6c0-0.2,0.1-0.3,0.2-0.3
						c0.1,0,0.2,0.1,0.2,0.3s-0.1,0.3-0.2,0.3S242.8,153.8,242.8,153.6z"/>
					<path d="M244.8,155.5c0.5-0.4,0.8-1,0.8-1.6s-0.2-1.2-0.8-1.6l0.2-0.2c0.5,0.4,0.9,1,0.9,1.8s-0.3,1.4-0.9,1.8L244.8,155.5z"/>
				</g>
			</g>
			<g>
				<g>
					<path d="M287.5,154.1c0-0.8,0.3-1.4,0.9-1.8l0.2,0.2c-0.5,0.4-0.8,1-0.8,1.6s0.2,1.2,0.8,1.6l-0.2,0.2
						C287.8,155.5,287.5,154.9,287.5,154.1z"/>
					<path d="M289.3,154.6c0-0.4,0.3-0.6,0.5-0.7l0,0c-0.2-0.1-0.4-0.3-0.4-0.6c0-0.4,0.3-0.6,0.8-0.6s0.8,0.3,0.8,0.7
						c0,0.2-0.2,0.5-0.4,0.6l0,0c0.3,0.1,0.5,0.3,0.5,0.7s-0.3,0.7-0.9,0.7C289.7,155.3,289.3,155,289.3,154.6z M290.9,154.6
						c0-0.4-0.4-0.4-0.8-0.6c-0.2,0.1-0.4,0.3-0.4,0.6s0.2,0.5,0.6,0.5C290.6,155,290.9,154.9,290.9,154.6z M290.8,153.4
						c0-0.2-0.2-0.4-0.5-0.4s-0.5,0.2-0.5,0.4c0,0.3,0.3,0.4,0.7,0.6C290.7,153.7,290.8,153.5,290.8,153.4z"/>
					<path d="M291.7,154c0-0.9,0.4-1.3,0.9-1.3s0.9,0.5,0.9,1.3s-0.4,1.3-0.9,1.3S291.7,154.8,291.7,154z M293.2,154
						c0-0.7-0.2-1-0.6-1s-0.6,0.3-0.6,1s0.2,1.1,0.6,1.1C293,155,293.2,154.7,293.2,154z M292.4,154c0-0.2,0.1-0.3,0.2-0.3
						s0.2,0.1,0.2,0.3s-0.1,0.3-0.2,0.3C292.5,154.2,292.4,154.1,292.4,154z"/>
					<path d="M294.6,155.9c0.3-0.1,0.5-0.4,0.5-0.7l-0.1-0.4l0.2,0.3c-0.1,0.1-0.1,0.1-0.2,0.1c-0.2,0-0.3-0.1-0.3-0.3
						s0.1-0.3,0.3-0.3c0.2,0,0.4,0.2,0.4,0.5c0,0.5-0.3,0.8-0.7,0.9L294.6,155.9z"/>
					<path d="M296.5,154c0-0.9,0.4-1.3,0.9-1.3s0.9,0.5,0.9,1.3s-0.4,1.3-0.9,1.3C296.8,155.3,296.5,154.8,296.5,154z M298,154
						c0-0.7-0.2-1-0.6-1s-0.6,0.3-0.6,1s0.2,1.1,0.6,1.1C297.7,155,298,154.7,298,154z M297.1,154c0-0.2,0.1-0.3,0.2-0.3
						s0.2,0.1,0.2,0.3s-0.1,0.3-0.2,0.3C297.3,154.2,297.1,154.1,297.1,154z"/>
					<path d="M299.1,155.8c0.5-0.4,0.8-1,0.8-1.6s-0.2-1.2-0.8-1.6l0.2-0.2c0.5,0.4,0.9,1,0.9,1.8s-0.3,1.4-0.9,1.8L299.1,155.8z"/>
				</g>
			</g>
			<g>
				<g>
					<path d="M236,242.3c0-0.8,0.3-1.4,0.9-1.8l0.2,0.2c-0.5,0.5-0.8,1-0.8,1.6s0.2,1.2,0.8,1.6l-0.2,0.2
						C236.3,243.7,236,243.1,236,242.3z"/>
					<path d="M237.8,242.2c0-0.9,0.4-1.3,0.9-1.3s0.9,0.5,0.9,1.3s-0.4,1.3-0.9,1.3C238.1,243.5,237.8,243,237.8,242.2z
						 M239.3,242.2c0-0.7-0.2-1-0.6-1s-0.6,0.3-0.6,1s0.2,1.1,0.6,1.1S239.3,242.9,239.3,242.2z M238.5,242.2c0-0.2,0.1-0.3,0.2-0.3
						c0.1,0,0.2,0.1,0.2,0.3c0,0.2-0.1,0.3-0.2,0.3C238.6,242.4,238.5,242.3,238.5,242.2z"/>
					<path d="M240.7,244.1c0.3-0.1,0.5-0.4,0.5-0.7l-0.1-0.4l0.2,0.3c-0.1,0.1-0.1,0.1-0.2,0.1c-0.2,0-0.3-0.1-0.3-0.3
						c0-0.2,0.1-0.3,0.3-0.3s0.4,0.2,0.4,0.5c0,0.5-0.3,0.8-0.7,1L240.7,244.1z"/>
					<path d="M242.7,243.2h0.7v-1.9h-0.6v-0.2c0.3,0,0.5-0.1,0.6-0.2h0.2v2.3h0.7v0.3h-1.7v-0.3H242.7z"/>
					<path d="M245,242.3c0-1,0.5-1.4,1.1-1.4c0.3,0,0.5,0.1,0.7,0.3l-0.2,0.2c-0.1-0.1-0.3-0.2-0.5-0.2c-0.4,0-0.8,0.3-0.8,1.1
						c0,0.6,0.2,1,0.7,1c0.3,0,0.5-0.2,0.5-0.6s-0.2-0.5-0.5-0.5c-0.2,0-0.4,0.1-0.7,0.4v-0.3c0.2-0.2,0.5-0.4,0.7-0.4
						c0.5,0,0.8,0.3,0.8,0.8s-0.4,0.8-0.9,0.8S245,243.1,245,242.3z"/>
					<path d="M247.3,242.2c0-0.9,0.4-1.3,0.9-1.3s0.9,0.5,0.9,1.3s-0.4,1.3-0.9,1.3S247.3,243,247.3,242.2z M248.8,242.2
						c0-0.7-0.2-1-0.6-1s-0.6,0.3-0.6,1s0.2,1.1,0.6,1.1S248.8,242.9,248.8,242.2z M248,242.2c0-0.2,0.1-0.3,0.2-0.3
						s0.2,0.1,0.2,0.3c0,0.2-0.1,0.3-0.2,0.3C248.1,242.4,248,242.3,248,242.2z"/>
					<path d="M249.9,244c0.5-0.5,0.8-1,0.8-1.6s-0.2-1.2-0.8-1.6l0.2-0.2c0.5,0.4,0.9,1,0.9,1.8s-0.3,1.4-0.9,1.8L249.9,244z"/>
				</g>
			</g>
			<g>
				<g>
					<path d="M284.2,242.7c0-0.8,0.3-1.4,0.9-1.8l0.2,0.2c-0.5,0.5-0.8,1-0.8,1.6s0.2,1.2,0.8,1.6l-0.2,0.2
						C284.5,244,284.2,243.4,284.2,242.7z"/>
					<path d="M286,243.1c0-0.4,0.3-0.5,0.5-0.7l0,0c-0.2-0.1-0.4-0.3-0.4-0.6c0-0.4,0.3-0.6,0.8-0.6s0.8,0.3,0.8,0.7
						c0,0.2-0.2,0.5-0.4,0.6l0,0c0.3,0.1,0.5,0.3,0.5,0.7c0,0.4-0.3,0.7-0.9,0.7C286.3,243.8,286,243.5,286,243.1z M287.5,243.1
						c0-0.4-0.4-0.4-0.8-0.6c-0.2,0.1-0.4,0.3-0.4,0.5c0,0.3,0.2,0.5,0.6,0.5C287.3,243.6,287.5,243.4,287.5,243.1z M287.4,241.9
						c0-0.2-0.2-0.4-0.5-0.4s-0.5,0.2-0.5,0.4c0,0.3,0.3,0.4,0.7,0.5C287.3,242.2,287.4,242.1,287.4,241.9z"/>
					<path d="M288.4,242.5c0-0.9,0.4-1.3,0.9-1.3s0.9,0.5,0.9,1.3s-0.4,1.3-0.9,1.3S288.4,243.3,288.4,242.5z M289.9,242.5
						c0-0.7-0.2-1-0.6-1s-0.6,0.3-0.6,1s0.2,1.1,0.6,1.1C289.6,243.6,289.9,243.2,289.9,242.5z M289,242.5c0-0.2,0.1-0.3,0.2-0.3
						s0.2,0.1,0.2,0.3c0,0.2-0.1,0.3-0.2,0.3C289.2,242.7,289,242.6,289,242.5z"/>
					<path d="M291.3,244.4c0.3-0.1,0.5-0.4,0.5-0.7l-0.1-0.4l0.2,0.3c-0.1,0.1-0.1,0.1-0.2,0.1c-0.2,0-0.3-0.1-0.3-0.3
						c0-0.2,0.1-0.3,0.3-0.3c0.2,0,0.4,0.2,0.4,0.5c0,0.5-0.3,0.8-0.7,1L291.3,244.4z"/>
					<path d="M293.2,243.5h0.7v-1.9h-0.6v-0.2c0.3,0,0.5-0.1,0.6-0.2h0.2v2.3h0.7v0.3h-1.7L293.2,243.5L293.2,243.5z"/>
					<path d="M295.5,242.6c0-1,0.5-1.4,1.1-1.4c0.3,0,0.5,0.1,0.7,0.3l-0.2,0.2c-0.1-0.1-0.3-0.2-0.5-0.2c-0.4,0-0.8,0.3-0.8,1.1
						c0,0.6,0.2,1,0.7,1c0.3,0,0.5-0.2,0.5-0.6s-0.2-0.5-0.5-0.5c-0.2,0-0.4,0.1-0.7,0.4v-0.3c0.2-0.2,0.5-0.4,0.7-0.4
						c0.5,0,0.8,0.3,0.8,0.8s-0.4,0.8-0.9,0.8C296,243.8,295.5,243.4,295.5,242.6z"/>
					<path d="M297.9,242.5c0-0.9,0.4-1.3,0.9-1.3s0.9,0.5,0.9,1.3s-0.4,1.3-0.9,1.3C298.2,243.8,297.9,243.3,297.9,242.5z
						 M299.4,242.5c0-0.7-0.2-1-0.6-1s-0.6,0.3-0.6,1s0.2,1.1,0.6,1.1S299.4,243.2,299.4,242.5z M298.6,242.5c0-0.2,0.1-0.3,0.2-0.3
						s0.2,0.1,0.2,0.3c0,0.2-0.1,0.3-0.2,0.3C298.7,242.7,298.6,242.6,298.6,242.5z"/>
					<path d="M300.5,244.3c0.5-0.5,0.8-1,0.8-1.6s-0.2-1.2-0.8-1.6l0.2-0.2c0.5,0.4,0.9,1,0.9,1.8s-0.3,1.4-0.9,1.8L300.5,244.3z"/>
				</g>
			</g>
		</g>
	</g>
</g>
</svg>
