<svg id="Layer_1" data-name="Layer 1" xmlns="http://www.w3.org/2000/svg" viewBox="0 0 267.34 162.4"><defs><style>.cls-1{fill:#676868;}.cls-2{fill:#e93a27;}.cls-3{fill:#cccccb;}.cls-4{fill:#7a6451;}.cls-5{fill:#595a5a;}.cls-6{fill:#dc8843;}.cls-7{fill:#917259;}.cls-8{fill:#bd7f4d;}.cls-9{fill:#151515;}.cls-10{fill:#cc7329;}.cls-11{fill:#585756;}.cls-12{fill:#f7ec13;}.cls-12,.cls-13{stroke:#5d5b5c;stroke-linecap:round;stroke-linejoin:round;stroke-width:2px;}.cls-13{fill:#282826;}.cls-14{fill:none;}.cls-15{isolation:isolate;font-size:8px;fill:#fff;font-family:ArialMT, Arial;}.cls-16{letter-spacing:-0.02em;}</style></defs><title>texthelloworld</title><path class="cls-1" d="M105.1,106.2V52.1a9.52,9.52,0,0,1,7.5-9.3,10.28,10.28,0,0,1,1.7-.1H258.1c4.7,0,8.9,4,9.1,8.2.1,1.1.1,2.2.1,3.2v60.1c0,3.4-1,6.3-3.9,8.4a9.39,9.39,0,0,1-5.3,1.8c-6.3.1-12.7,0-19,0v-.2a.78.78,0,0,0,.2-.8v-.2h18.1a18,18,0,0,0,2.2-.2c3.9-.9,6.3-3.8,6.4-7.1.2-7.8.1-15.7,0-23.6v-.2a1.43,1.43,0,0,0,.6-1.2V76.1c0-.5-.1-1-.8-1.1a2.54,2.54,0,0,0,.2-1.2V52.5a9,9,0,0,0-.4-2.8c-1-3.6-4.1-5.8-8.1-5.8H151.8a1.09,1.09,0,0,0-1.2-.7H139.4c-.4,0-.9,0-1.1.5,0,.2-.1.2-.1.3H114.8a12.75,12.75,0,0,0-2,.1,8,8,0,0,0-6.4,8.2V106A1.91,1.91,0,0,0,105.1,106.2Z" transform="translate(0.04 0)"/><path class="cls-1" d="M225.8,124.4H114.7a9.39,9.39,0,0,1-9.5-7.6,12.75,12.75,0,0,1-.1-1.9,1.48,1.48,0,0,0,1.3.2,8,8,0,0,0,8.3,8H225.6a1.39,1.39,0,0,0,.2,1.1Z" transform="translate(0.04 0)"/><path class="cls-2" d="M225.8,124.2a1.47,1.47,0,0,1-.2-1.1,1.59,1.59,0,0,1,1.2-.4h11.3c.4,0,.8,0,1,.4a.31.31,0,0,1,.1.2.78.78,0,0,1-.2.8c-.1.1-.2.1-.3.2H226C226,124.4,225.9,124.3,225.8,124.2Z" transform="translate(0.04 0)"/><path class="cls-2" d="M106.4,115.1a2,2,0,0,1-1.3-.2c0-.1,0-.2-.1-.2s0-.1-.1-.2v-3.4c0-.1.1-.2.1-.3.4-.2.9.2,1.2-.2A4.79,4.79,0,0,1,106.4,115.1Z" transform="translate(0.04 0)"/><path class="cls-3" d="M106.4,110.6c-.4.3-.9,0-1.2.2a11.36,11.36,0,0,1,0-4.5,1.72,1.72,0,0,1,1.2-.2A7.67,7.67,0,0,1,106.4,110.6Z" transform="translate(0.04 0)"/><path class="cls-4" d="M105,114.4c0,.1,0,.1.1.2A.35.35,0,0,1,105,114.4Z" transform="translate(0.04 0)"/><path class="cls-4" d="M105.1,111h0v.2C105,111.1,105,111.1,105.1,111Z" transform="translate(0.04 0)"/><path class="cls-5" d="M225.8,124.2c.1.1.2.1.2.2h-.3C225.8,124.4,225.8,124.3,225.8,124.2Z" transform="translate(0.04 0)"/><path class="cls-5" d="M238.8,124.4c.1-.1.2-.1.3-.2v.2Z" transform="translate(0.04 0)"/><path class="cls-6" d="M106.4,110.6a6.94,6.94,0,0,0-.1-4.5V52.4a7.93,7.93,0,0,1,6.4-8.2,14.08,14.08,0,0,1,2-.1h23.4c.1,0,.1.1.2.1-.1.9.5,1,1.2,1h11.2c.7,0,1.2-.3,1.2-1H257.6c4,0,7.1,2.2,8.1,5.8a12.61,12.61,0,0,1,.4,2.8V74.1a1.72,1.72,0,0,1-.2,1.2.94.94,0,0,0-.9,1.1V91.2c0,.6.2,1.1.9,1.2l.2.2c0,7.8.2,15.7,0,23.6-.1,3.2-2.4,6.2-6.4,7.1a7.84,7.84,0,0,1-2.2.2H239.2c-.2-.4-.6-.4-1-.4H226.9a1.75,1.75,0,0,0-1.2.4H114.8a8,8,0,0,1-8.3-8A6.83,6.83,0,0,0,106.4,110.6ZM250.2,57.7h.3c.1-.2-.1-.3-.3-.3a4,4,0,0,0-2.4-.7H223.1a3.94,3.94,0,0,0-2.7,1c-1.5,1.1-1.7,2.7-1.7,4.3v42.8c0,.5.1,1.1.1,1.6a4.24,4.24,0,0,0,4.3,3.7h24.8a3.53,3.53,0,0,0,2.7-1.1h-1.4c-8.1,0-16.3-.1-24.5,0-2.7,0-5-1.6-5-4.9V62.8a5.69,5.69,0,0,1,.4-2.6,4.19,4.19,0,0,1,4-2.5ZM160,104.2h40c1,0,1.2-.3,1.2-1.2V64.3c0-.9-.2-1.2-1.2-1.2H120.1c-1,0-1.2.2-1.2,1.2V103c0,.9.2,1.3,1.2,1.3C133.5,104.2,146.8,104.2,160,104.2Zm78.2-16.9c0-.1,0-.2.1-.2h10.8c.9,0,1.1-.3,1.1-1.1a26.15,26.15,0,0,1,0-2.8c0-.6-.2-.9-.8-.9H232.3c-.7,0-.9.3-.8.9,0,1.2.1,2.3,0,3.5a1.51,1.51,0,0,0,1,1.7c2.4,1,4.8,2.1,7.1,3.2.3.1.8.1.8.5s-.5.4-.8.6c-2.4,1.1-4.8,2.2-7.2,3.2-.5.2-.9.4-.9,1.1v4.1c0,.5.2.8.8.8h17.2c.6,0,.8-.2.8-.8a26.15,26.15,0,0,1,0-2.8c0-.8-.3-1-1-1H238.4c2.1-1.1,4.2-2,6.4-2.9.5-.2,1.1-.3,1.2-1,.4-2.2,0-2.9-2-3.7h-.1C241.9,88.9,240.1,88.1,238.2,87.3Zm-6.7-16.6c0,1.8.1,3.6,0,5.4,0,.9.2,1.3,1.2,1.2,2.8-.1,5.5-.1,8.3,0,1,0,1.3-.2,1-1.2a11.76,11.76,0,0,1-.2-5.6,2.54,2.54,0,0,1,2.2-2.1,2.35,2.35,0,0,1,2.5,1.7,5.82,5.82,0,0,1,.4,3.2,10.73,10.73,0,0,1-1.3,3.8c-.4.8-.2,1.1.7,1.1h2.3a1,1,0,0,0,1.1-.8,15.58,15.58,0,0,0,.8-4.2c.2-2.6,0-5.1-1.7-7.2a6,6,0,0,0-6.2-2.3,4.9,4.9,0,0,0-4.1,3.8,12.39,12.39,0,0,0-.5,4.3c0,.7-.2,1-.9,1h-.8c-.9.1-1.2-.2-1.2-1.1.1-1.6,0-3.3,0-4.9,0-2.8,0-2.8-2.8-2.7-.7,0-.9.3-.9,1C231.5,66.9,231.5,68.8,231.5,70.7Z" transform="translate(0.04 0)"/><path class="cls-3" d="M265.9,92.1a1.11,1.11,0,0,1-.9-1.2V76.1c0-.6.2-1.1.9-1.1s.8.5.8,1.1V90.9a1.43,1.43,0,0,1-.6,1.2Z" transform="translate(0.04 0)"/><path class="cls-3" d="M151.9,44c0,.8-.5,1-1.2,1H139.5c-.7,0-1.3-.1-1.2-1v-.2c.2-.5.7-.5,1.1-.5h11.2C151.3,43.3,151.7,43.4,151.9,44Z" transform="translate(0.04 0)"/><path class="cls-7" d="M138.4,43.8V44c-.1,0-.1,0-.2-.1A.31.31,0,0,0,138.4,43.8Z" transform="translate(0.04 0)"/><path class="cls-8" d="M239.1,123.1h.2v.2C239.2,123.3,239.2,123.2,239.1,123.1Z" transform="translate(0.04 0)"/><path class="cls-8" d="M265.9,92.1h.2v.2C266,92.2,265.9,92.2,265.9,92.1Z" transform="translate(0.04 0)"/><path class="cls-9" d="M160,104.2H120.2c-1,0-1.2-.3-1.2-1.3V64.2c0-.9.2-1.2,1.2-1.2h79.9c1,0,1.2.3,1.2,1.2v38.7c0,1-.2,1.2-1.2,1.2C186.7,104.2,173.4,104.2,160,104.2Z" transform="translate(0.04 0)"/><path class="cls-10" d="M238.2,87.3c1.8.8,3.7,1.6,5.5,2.4h.1c2,.8,2.4,1.6,2,3.7-.1.7-.7.8-1.2,1-2.1.9-4.2,1.8-6.4,2.9h10.9c.7,0,1.1.2,1,1a26.15,26.15,0,0,0,0,2.8c0,.6-.2.8-.8.8H232.1c-.6,0-.8-.2-.8-.8V97c0-.7.4-.9.9-1.1,2.4-1.1,4.8-2.1,7.2-3.2.3-.1.8-.2.8-.6s-.5-.4-.8-.5c-2.4-1.1-4.7-2.2-7.1-3.2a1.4,1.4,0,0,1-1-1.7c.1-1.2,0-2.3,0-3.5,0-.6.1-.9.8-.9h17.1c.6,0,.8.3.8.9a26.15,26.15,0,0,0,0,2.8c.1.8-.2,1.1-1.1,1.1-3.3-.1-6.5,0-9.8,0h-1C238.3,87.2,238.3,87.2,238.2,87.3Z" transform="translate(0.04 0)"/><path class="cls-10" d="M231.5,70.7V65c0-.7.2-.9.9-1,2.8-.1,2.8-.1,2.8,2.7,0,1.6.1,3.3,0,4.9,0,.9.3,1.2,1.2,1.1h.8c.7.1.9-.3.9-1a15.8,15.8,0,0,1,.5-4.3,4.78,4.78,0,0,1,4.1-3.8,6.24,6.24,0,0,1,6.2,2.3c1.7,2.2,1.9,4.7,1.7,7.2a14.88,14.88,0,0,1-.8,4.2,1,1,0,0,1-1.1.8,17.65,17.65,0,0,0-2.3,0c-.9,0-1.2-.3-.7-1.1a13.16,13.16,0,0,0,1.3-3.8,5.82,5.82,0,0,0-.4-3.2,2.49,2.49,0,0,0-2.5-1.7,2.64,2.64,0,0,0-2.2,2.1,10.66,10.66,0,0,0,.2,5.6c.3,1,0,1.2-1,1.2-2.8-.1-5.5-.1-8.3,0-1,0-1.2-.3-1.2-1.2C231.5,74.3,231.5,72.5,231.5,70.7Z" transform="translate(0.04 0)"/><path class="cls-11" d="M250.2,57.7h-26a4,4,0,0,0-4,2.5,5.91,5.91,0,0,0-.4,2.6v41.3a4.54,4.54,0,0,0,5,4.9c8.1-.1,16.3,0,24.5,0h1.4a3.94,3.94,0,0,1-2.7,1.1H223.2a4.4,4.4,0,0,1-4.3-3.7,8.6,8.6,0,0,1-.1-1.6V62c0-1.7.3-3.3,1.7-4.3a4.49,4.49,0,0,1,2.7-1h24.7a4.2,4.2,0,0,1,2.4.7C250.2,57.4,250.2,57.6,250.2,57.7Z" transform="translate(0.04 0)"/><path class="cls-4" d="M250.2,57.7v-.4c.2.1.3.1.3.3S250.3,57.7,250.2,57.7Z" transform="translate(0.04 0)"/><rect class="cls-12" x="119.34" y="62.9" width="82" height="41.9"/><path class="cls-1" d="M18.2.2H72.3a9.52,9.52,0,0,1,9.3,7.5,9.7,9.7,0,0,1,.1,1.7V153.2c0,4.7-4,8.9-8.2,9.1-1.1.1-2.2.1-3.2.1H10.2c-3.4,0-6.3-1-8.4-3.9A9.39,9.39,0,0,1,0,153.2c-.1-6.3,0-12.7,0-19H.2a.78.78,0,0,0,.8.2h.2v18.1a16.35,16.35,0,0,0,.2,2.2c.9,3.9,3.8,6.3,7.1,6.4,7.8.2,15.7,0,23.6,0h.2a1.22,1.22,0,0,0,1.2.6H48.3c.5,0,1-.1,1.1-.8a2.54,2.54,0,0,0,1.2.2H71.9a9,9,0,0,0,2.8-.4c3.6-1,5.8-4.1,5.8-8.1V46.9a1.09,1.09,0,0,0,.7-1.2V34.5c0-.4,0-.9-.5-1.1-.1-.1-.1-.1-.1-.2V9.8a14.77,14.77,0,0,0-.1-2.1c-.8-3.9-3.9-6.4-8.2-6.4H18.6A7.6,7.6,0,0,0,18.2.2Z" transform="translate(0.04 0)"/><path class="cls-1" d="M0,120.9V9.8A9.39,9.39,0,0,1,7.6.3,12.75,12.75,0,0,1,9.5.2a1.48,1.48,0,0,0-.2,1.3,8,8,0,0,0-8,8.3V120.7a1.39,1.39,0,0,0-1.1.2Z" transform="translate(0.04 0)"/><path class="cls-2" d="M.2,120.9a1.39,1.39,0,0,1,1.1-.2,1.59,1.59,0,0,1,.4,1.2v11.3c0,.4,0,.8-.4,1a.35.35,0,0,0-.2.1.78.78,0,0,1-.8-.2c-.1-.1-.1-.2-.2-.3V121.1A.31.31,0,0,1,.2,120.9Z" transform="translate(0.04 0)"/><path class="cls-2" d="M9.3,1.5A2,2,0,0,1,9.5.2c.1,0,.2,0,.2-.1s.1,0,.2-.1h3.2l.1.1h.1c.1,0,.2.1.3.1.2.4-.2.9.2,1.2A5.85,5.85,0,0,1,9.3,1.5Z" transform="translate(0.04 0)"/><path class="cls-3" d="M13.9,1.5c-.3-.4,0-.9-.2-1.2A13.6,13.6,0,0,1,18.2.2a1.72,1.72,0,0,1,.2,1.2A6.94,6.94,0,0,1,13.9,1.5Z" transform="translate(0.04 0)"/><path class="cls-4" d="M10,.1c-.1,0-.1,0-.2.1C9.8.1,9.9.1,10,.1Z" transform="translate(0.04 0)"/><path class="cls-4" d="M13.4.1h0L13.2,0C13.3,0,13.3,0,13.4.1Z" transform="translate(0.04 0)"/><path class="cls-5" d="M.2,120.9c-.1.1-.1.2-.2.2v-.3C.1,120.9.1,120.9.2,120.9Z" transform="translate(0.04 0)"/><path class="cls-5" d="M0,133.9c.1.1.1.2.2.3H0Z" transform="translate(0.04 0)"/><path class="cls-6" d="M13.9,1.5a6.94,6.94,0,0,0,4.5-.1H72.1a7.93,7.93,0,0,1,8.2,6.4,14.77,14.77,0,0,1,.1,2.1V33.3c0,.1-.1.1-.1.2-.9-.1-1,.5-1,1.2V45.8c0,.7.3,1.2,1.1,1.2V152.7c0,4-2.2,7.1-5.8,8.1a13.51,13.51,0,0,1-2.8.4H50.5a1.72,1.72,0,0,1-1.2-.2.94.94,0,0,0-1.1-.9H33.4c-.6,0-1.1.2-1.2.9-.1,0-.1.1-.2.2-7.8,0-15.7.2-23.6,0-3.2-.1-6.2-2.4-7.1-6.4a7.84,7.84,0,0,1-.2-2.2V134.3c.4-.2.4-.6.4-1V122a1.75,1.75,0,0,0-.4-1.2V9.9a8,8,0,0,1,8-8.3A7.86,7.86,0,0,0,13.9,1.5ZM66.7,145.2v.3c.2.1.3-.1.3-.3a4,4,0,0,0,.7-2.4V118.1a5.12,5.12,0,0,0-.9-2.7c-1.1-1.5-2.7-1.7-4.4-1.7H19.6c-.5,0-1.1.1-1.6.1a4.24,4.24,0,0,0-3.7,4.3v24.8a3.4,3.4,0,0,0,1.1,2.7v-1.4c0-8.1.1-16.3,0-24.5,0-2.7,1.6-5,4.9-5H61.6a5.69,5.69,0,0,1,2.6.4,4.19,4.19,0,0,1,2.5,4ZM20.2,55.1v40c0,1,.3,1.2,1.2,1.2H60.1c.9,0,1.2-.2,1.2-1.2V15.2c0-1-.2-1.2-1.2-1.2H21.4c-.9,0-1.3.2-1.3,1.2C20.2,28.6,20.2,41.8,20.2,55.1Zm16.9,78.2c.1,0,.2,0,.2.1v10.8c0,.9.3,1.1,1.1,1.1a26.15,26.15,0,0,1,2.8,0c.6,0,.9-.2.9-.8V127.4c0-.7-.3-.9-.9-.8-1.2,0-2.3.1-3.5,0a1.62,1.62,0,0,0-1.7,1c-1,2.4-2.1,4.8-3.2,7.1-.1.3-.1.8-.5.8s-.4-.5-.6-.8c-1.1-2.4-2.2-4.8-3.2-7.2-.2-.5-.4-.9-1.1-.9H23.3c-.5,0-.8.2-.8.8v17.2c0,.6.2.8.8.8h2.8c.8,0,1-.3,1-1V133.5c1.1,2.1,2,4.2,2.9,6.4.2.5.3,1,1,1.2,2.2.4,2.9,0,3.7-2V139Q35.9,136,37.1,133.3Zm16.7-6.7H48.4c-.9,0-1.3.2-1.2,1.2.1,2.8.1,5.5,0,8.3,0,1,.2,1.3,1.2,1a11.76,11.76,0,0,1,5.6-.2,2.54,2.54,0,0,1,2.1,2.2,2.35,2.35,0,0,1-1.7,2.5,5.82,5.82,0,0,1-3.2.4,10.73,10.73,0,0,1-3.8-1.3c-.8-.4-1.1-.2-1.1.7v2.3a1,1,0,0,0,.8,1.1,15.58,15.58,0,0,0,4.2.8c2.6.2,5.1,0,7.2-1.7a6.24,6.24,0,0,0,2.3-6.2,4.89,4.89,0,0,0-3.9-4.1,12.39,12.39,0,0,0-4.3-.5c-.7,0-1-.2-1-.9v-.8c-.1-.9.2-1.2,1.1-1.2,1.6.1,3.3,0,4.9,0,2.8,0,2.8,0,2.7-2.8,0-.7-.3-.9-1-.9C57.6,126.6,55.7,126.6,53.8,126.6Z" transform="translate(0.04 0)"/><path class="cls-3" d="M32.3,160.9a1.11,1.11,0,0,1,1.2-.9H48.3c.6,0,1.1.2,1.1.9s-.5.8-1.1.8H33.5a1.43,1.43,0,0,1-1.2-.6Z" transform="translate(0.04 0)"/><path class="cls-3" d="M80.4,47c-.8,0-1.1-.5-1.1-1.2V34.7c0-.7.1-1.3,1-1.2h.2c.5.2.5.7.5,1.1V45.8A.93.93,0,0,1,80.4,47Z" transform="translate(0.04 0)"/><path class="cls-7" d="M80.6,33.4h-.2c0-.1,0-.1.1-.2C80.5,33.3,80.6,33.3,80.6,33.4Z" transform="translate(0.04 0)"/><path class="cls-8" d="M1.3,134.2v.2H1.1A.22.22,0,0,1,1.3,134.2Z" transform="translate(0.04 0)"/><path class="cls-8" d="M32.3,160.9v.2h-.2C32.2,161,32.3,161,32.3,160.9Z" transform="translate(0.04 0)"/><path class="cls-9" d="M20.2,55.1V15.3c0-1,.3-1.2,1.3-1.2H60.2c.9,0,1.2.2,1.2,1.2V95.2c0,1-.3,1.2-1.2,1.2H21.5c-1,0-1.2-.2-1.2-1.2C20.2,81.8,20.2,68.4,20.2,55.1Z" transform="translate(0.04 0)"/><path class="cls-10" d="M37.1,133.3c-.8,1.8-1.6,3.7-2.4,5.5v.1c-.8,2-1.6,2.4-3.7,2-.7-.1-.8-.7-1-1.2-.9-2.1-1.8-4.2-2.9-6.4v10.9c0,.7-.2,1.1-1,1H23.3c-.6,0-.8-.2-.8-.8V127.2c0-.6.2-.8.8-.8h4.1c.7,0,.9.4,1.1.9,1.1,2.4,2.1,4.8,3.2,7.2.1.3.2.8.6.8s.4-.5.5-.8c1.1-2.4,2.2-4.7,3.2-7.1a1.4,1.4,0,0,1,1.7-1c1.2.1,2.3,0,3.5,0,.6,0,.9.1.9.8v17.1c0,.6-.3.8-.9.8H38.4c-.8,0-1.1-.2-1.1-1.1.1-3.3,0-6.5,0-9.8v-1C37.3,133.3,37.2,133.3,37.1,133.3Z" transform="translate(0.04 0)"/><path class="cls-10" d="M53.8,126.6h5.6c.7,0,.9.2,1,.9.1,2.8.1,2.8-2.7,2.8H52.8c-.9,0-1.2.3-1.1,1.2v.8c-.1.7.3.9,1,.9a15.8,15.8,0,0,1,4.3.5,5,5,0,0,1,3.9,4.1,6,6,0,0,1-2.3,6.2c-2.1,1.7-4.7,1.9-7.2,1.7a14.88,14.88,0,0,1-4.2-.8,1,1,0,0,1-.8-1.1,17.65,17.65,0,0,0,0-2.3c0-.9.3-1.2,1.1-.7a13.16,13.16,0,0,0,3.8,1.3,5.82,5.82,0,0,0,3.2-.4,2.41,2.41,0,0,0-.4-4.7,9.73,9.73,0,0,0-5.6.2c-1,.3-1.2,0-1.2-1,.1-2.8.1-5.5,0-8.3,0-1,.3-1.2,1.2-1.2C50.2,126.6,52,126.6,53.8,126.6Z" transform="translate(0.04 0)"/><path class="cls-11" d="M66.7,145.2v-26a4.19,4.19,0,0,0-2.5-4,5.91,5.91,0,0,0-2.6-.4H20.3a4.54,4.54,0,0,0-4.9,5c.1,8.1,0,16.3,0,24.5v1.4a3.94,3.94,0,0,1-1.1-2.7V118.2a4.4,4.4,0,0,1,3.7-4.3,8.6,8.6,0,0,1,1.6-.1H62.4c1.7,0,3.3.3,4.4,1.7a4.39,4.39,0,0,1,.9,2.7v24.7a4.2,4.2,0,0,1-.7,2.4C67,145.2,66.9,145.2,66.7,145.2Z" transform="translate(0.04 0)"/><path class="cls-4" d="M66.7,145.2h.4c-.1.2-.1.3-.3.3S66.8,145.3,66.7,145.2Z" transform="translate(0.04 0)"/><rect class="cls-13" x="19.74" y="14.4" width="41.9" height="82"/><g id="Layer_4" data-name="Layer 4"><rect class="cls-13" x="19.74" y="14.4" width="41.9" height="82"/><rect class="cls-13" x="119.34" y="62.9" width="82" height="41.9"/></g><g id="Layer_4-2" data-name="Layer 4"><rect class="cls-14" x="24.94" y="20.7" width="23.3" height="13.1"/><text class="cls-15" transform="translate(24.93 26.39)">Hello</text><rect class="cls-14" x="124.54" y="69.5" width="23.3" height="13.1"/><text class="cls-15" transform="translate(24.94 33.8)"><tspan class="cls-16">W</tspan><tspan x="7.41" y="0">orld!</tspan></text><text class="cls-15" transform="translate(124.54 74.4)">Hello</text><text class="cls-15" transform="translate(124.55 81.8)"><tspan class="cls-16">W</tspan><tspan x="7.41" y="0">orld!</tspan></text></g></svg>