<svg xmlns="http://www.w3.org/2000/svg" viewBox="0 0 859.48 435.72"><defs><style>.cls-1{opacity:0.48;}.cls-2{fill:#d48523;}.cls-3{fill:#c67d23;}.cls-4{fill:#e68421;}.cls-5{fill:#febf3b;}.cls-6{fill:#eceae9;}.cls-7{fill:#f5f5f5;}.cls-8{fill:#e5dad5;}.cls-9{fill:#f0eeed;}.cls-10{fill:#e9e9e9;}.cls-11{fill:#e7e3e1;}.cls-12{fill:#2b231f;}.cls-13{fill:#cf8223;}.cls-14{fill:#894b0e;}.cls-15{opacity:0.19;}.cls-16{fill:#fff;}.cls-17,.cls-18{fill:#dc8844;}.cls-17{stroke:#565555;}.cls-17,.cls-18,.cls-19,.cls-20,.cls-21,.cls-22,.cls-23{stroke-linecap:round;stroke-linejoin:round;}.cls-17,.cls-18,.cls-20,.cls-21{stroke-width:3px;}.cls-18,.cls-19{stroke:#8c191b;}.cls-19,.cls-20,.cls-21,.cls-22,.cls-23{fill:none;}.cls-19,.cls-22,.cls-23{stroke-width:2px;}.cls-20{stroke:#53b848;}.cls-21,.cls-22{stroke:#305baa;}.cls-23{stroke:#52b848;}.cls-24{isolation:isolate;font-size:12px;font-family:ArialMT, Arial;}</style></defs><title>tyngdeAccel</title><g id="Layer_1" data-name="Layer 1" class="cls-1"><path class="cls-2" d="M651.63,120.93q1.8-31.84,3.62-63.67c.22-3.81.46-7.64,1-11.4.38-2.54.7-5.31,3.29-6.88,2.2.93,3.48-1.43,5.8-1.43,5.85,0,11.43,2.59,17.3,1.46l3,0c1.06,1.45,2.62.86,4,1l2,0c1.57,1.84,3.69,1.94,5.9,2,7.09.14,13.76,3,20.92,3,6.82,0,12.74,4,19.6,4.91,7.06.92,14.26,2.17,21.3,3.67a120.25,120.25,0,0,0,25.28,2.51c2.88,0,6.4.33,8.54,2,5.69,4.32,11.73,4.06,18.15,3.17,7.75-1.06,15.1-3.7,22.59-5.69,2.81-.75,5.39.87,8.18-.69,4.71-2.63,10.19-3,15.45-3.85a7.69,7.69,0,0,1,1.88,6c-2.93,1.67-6.43,1.09-9.52,2.61-3.82,1.87-8.5,4-12.05,3.93-8.19-.18-15.31,4.28-23.38,3.9-1.5-.07-4.52,1.08-5.13,3.35-1.86,7-2,14.33-4.68,21.13a2.13,2.13,0,0,0,.23,1.45c2.45,5.37-1.65,11,.65,16.38a1.29,1.29,0,0,1-.13,1c-4.55,8.49-2.59,18.12-4.68,27.05-.56,2.42,1.31,5.47.6,7.78-1.69,5.52-1.73,11.15-2.47,16.76-1.19,9.16-3.15,18.21-4.58,27.34-.66,4.2,0,8.4-1,12.78s.64,9.55-.47,14.36c-.65,2.84-1.81,6-2.12,8.37-.64,4.75,2,9.89-1,14.83-.53.88,0,2.28.74,3.27.52.65,1.14,1.38.55,2.22-3.49,4.9-1.4,10.79-2.76,16.12-.54,2.12-3.13,4.29-1.24,6.83s1.37,4.85-.94,6.88c-1,.83-1.89,2.06.07,2.48,3.33.7,2.25,2.43.89,3.73-1.76,1.68-1.42,3.64-1.36,5.57a21,21,0,0,1-1.93,10.65,5,5,0,0,0-.46,3.79c1.48,5.92.08,12.28-1.37,17.44-2.23,7.93.13,16.49-4.17,23.86a1.92,1.92,0,0,0,.16,1.46c1.44,3.13-.06,6-.52,9-.57,3.8-1.83,8.08-1,11.43,1.9,8.26-.83,15.3-3.75,22.4-1.11,2.69-3.43,4.6-5.94.79-.34-1.39.41-2.68-1.81-3.91-3-1.67-.89-8.07-6.47-8.42,2-4-1.49-2.26-2.81-2.66-1.13-.35-2.59-.45-2.37-1.95s1.47-.86,2.39-.58c1.11.34,2.38,1,2.81-.75.33-1.32-1-1.41-1.79-2-4.91-3.3-10-3.32-15.28,0-3,1.9-4.74.92-5.42-2.34-.77-3.68-3.27-7.42-5.88-9-3.12-1.92-4.84-3.33-4.39-7.16-.53,2.28-4,3.62-1.92,6,1.57,1.8.74,2.7-.19,4.1-1.75,2.64-2.65,5,2.21,4.6.95-.08,2.13-.2,2.57,1,.58,1.56-.79,2-1.76,2.53s-1.54,1.64-2.26,2.52c-1.37,1.68-3.42,1.06-5.12.72-2.07-.42-1.43-2.3-1.35-3.71.05-1,1.3-2.31-.56-2.87-1.67-.5-2.18.62-2.82,2-1,2.1-1.23,5.16-4.76,4.82h0a1.81,1.81,0,0,0-2-2c-3-.26-6-1.55-9.13-.93l-2.87-.08c-.5-4.19-3.37-5.41-9.12-3.87-7.75-1.54-14.49-6.22-22.45-7.09l.1,0a3.94,3.94,0,0,0-3.08-1.06l0,.09-1.49-1.29c.69-2.41,2-1.73,3.83-1.16,4.08,1.31,8.52,3.58,12.4,2.93s6.79-.57,10,1.73c2.8,2.05,4.71-.81,6.29-2.24,1.17-1.06,1.3-3.52-1.46-4.09h0c-.33-2.86-4.22-6.19,1.21-8.33,1.2-.48,2.87-.85,2.76-3-.15-2.75-3.19.21-3.56-2,1.13-.7,2.69-2.22,3.24-1.92,4.12,2.31,5.82-.32,7.82-3.14.65-.92,2.57-1.08,1.9-2.79s-1.94-.29-2.94-.26c-1.16,0-1.45-.78-1.38-1.62.22-2.52-1.43-4.25-2.69-6.13,1.58-1.33,3.88-.63,5-2.51-1.58-4-6.9-1.1-9-4.61,4.66-.15,9.25-4.94,8.45-9.14-.88-4.58-4.78-1.63-7.28-2.24,1.23-3.22-1.32-6.41-5-5.08-5.23,1.86-4.84-1.38-5.52-4.26h0l2,0c.13.93.11,2,1.33,2.23.13,0,.5-.37.52-.59.11-1.3-.82-1.54-1.83-1.67a4.32,4.32,0,0,0-1.1-3.17,3.86,3.86,0,0,1-.35-5c1.66-2.05,2.52,1.53,3.94,1.13,3.8-6.55,5.47-13.17,1.64-20.19,17.42,4.3,34.19,10.68,51.24,16.15,5.18,1.67,8.26,6.12,7.67,12.1-.82,8.23-2,16.42-2.58,24.66-.59,7.76-1,15.52-2.27,23.22-.17,1.06-.32,2.62,1.29,2.78s2.21-1.17,2.33-2.62c.06-.66,0-1.34.06-2,1.29-13.49,2.39-27,3.94-40.45,1.19-10.39-2.69-17.91-11.9-21.58-2.62-1.05-5.29-2-7.93-3a63.17,63.17,0,0,1-1.75-6.82,3.33,3.33,0,0,1,1.3-2.51c1.09-.82,1.81.22,2.24,1.12s.6,2.65,2.23,1.42c1.31-1,1.17-2.37-.21-3.31-1.66-1.12-2.51-4.26-5.51-2.29a1.27,1.27,0,0,1-2-.65c-.3-.86.3-2.05,1.1-1.75,3.46,1.27,3.72-6.15,7.78-2.74.14-.42.49-.91.38-1.25-.69-2.11.68-2.16,2.11-2.23,1,0,2.33,0,2.42-1.14.06-.72-.85-1.71-1.57-2.25-1.27-1-2-.15-2.62,1.07-1.3,2.34-3.43,1.49-4.6.28-2.16-2.24-4.06-5-3.09-8.37.8-2.73,2.89-1.24,4.54-.79,2.23.61,4.44,1.29,6.68,1.86s4.31.86,5.59-1.65c3.71-2.58,1.92-5.83,1.08-9,.07-.67.14-1.35.2-2,3.56-4,2.49-9.4,2.82-13.78.43-5.65.55-11.57,1.29-17.16,1.68-12.68,1.84-25.47,3.54-38.14,1.27-9.45,2-19,2.75-28.5,1.12-14,3.71-27.85,3.1-41.95l-.24-1.32c3.68-3.53,1.12-8.2,2.09-12.24,0-.17-1.26.45-1.66,1.14-13.82-2.39-27.69-4.56-41.45-7.27-7.81-1.53-15.55-3.42-23.53-4-.8-1-1.91-.76-3-.76-1.21-2.15-3-4.14-5.44-3.51s-2.39,3.91-2.26,5.59c.67,9.18-1.21,18.23-1.86,27.24-.94,12.86-.58,25.84-2.52,38.66-1,6.27-1.31,12.64-1.93,19-2.69.12-4.58,0-3.32-3.8,1.19-3.54,1.06-7.06-4.34-6.87.91-2.3,3.53-.3,4.18-2.38-2.53-1.33-5.36-2.36-5.55-5.87,0-.88-.29-1.79-1.33-1.64a4.48,4.48,0,0,0-2.12,1.15c-1.25,1.11.39,2.81-.88,4.37-2.78-3.58-7.33-2.28-10.9-4.06,4.07-3.93,3-11.29-1.74-12.9h0C655.11,122.58,653.12,121.88,651.63,120.93Zm48,181v-1c2.53-3.2-1.78-4.23-2-6.54-.22,2.46-1.55,5.27,2,6.53-.68.33-.7.67,0,1l1.07.75.25-.38Zm14.49-2.57-1.26.25c-.13,2.75.06,5.57-.48,8.24-.43,2.17-.19,2.73,2.09,3.21a80.57,80.57,0,0,1,11.26,3.51c5.22,1.92,8.05,7.08,6.78,13.16-1,4.82-4.86,6.33-9.41,6.19a4.32,4.32,0,0,0-4.72,3.07c3.55.05,5.47,4.09,8.92,3.42,2.37-.46,7.4-1.41,6.57-2.58-2.86-4,3-3.62,2.21-5.79-1.06-3,2.88-3.68,2.66-5.8-1.09-10.76-11.38-19.43-20.17-18.1-1.44.22-2.09-.06-1.82-1.19C717.55,303.69,714.48,302.11,714.16,299.37Zm.45-1.4c1.12-2.52,1-6.84,4.49-4.47,5.67,3.89,12.27,4.51,18.35,6.87,1.18.45,2.5,1.9,3.6.86,1.25-1.19.63-3.15.48-4.77-.18-1.81-1.49-2.4-3.17-2.49-1.48-.09-3-.3-4.43-.41-5.53-.42-10.16-3.29-15.11-5.34-1.56-.64-4.25-2.41-4.85.77C713.45,291.7,712.3,294.78,714.61,298Zm3,34.53c-1.08-2.35-3.83-2-5.69-3-1.21-.64-1.13,1.49-1.22,2.55-.29,3.16,2.31,3.32,4.25,3.61S717.05,334.06,717.59,332.5Zm18.84,15c-3.58-.19-5.88-.95-9.27.6C730.59,349.14,732.89,349.46,736.43,347.52ZM657.49,118.64c1.6,1.43,2.9,2.25,4.53,1.7.81-.28.87-1.6.38-2.18C660.87,116.34,659.57,118.23,657.49,118.64ZM739,362.31c-.74,0-1.1.34-1,.9a1.84,1.84,0,0,0,2.18,1.53c.34,0,.94-.63.89-.86C740.9,362.73,739.83,362.57,739,362.31Z"/><path class="cls-3" d="M766.65,387.93c2.51,3.81,4.83,1.9,5.94-.79,2.92-7.1,5.65-14.14,3.75-22.4-.78-3.35.48-7.63,1-11.43.46-3,2-5.9.52-9a1.92,1.92,0,0,1-.16-1.46c4.3-7.37,1.94-15.93,4.17-23.86,1.45-5.16,2.85-11.52,1.37-17.44a5,5,0,0,1,.46-3.79,21,21,0,0,0,1.93-10.65c-.06-1.93-.4-3.89,1.36-5.57,1.36-1.3,2.44-3-.89-3.73-2-.42-1-1.65-.07-2.48,2.31-2,2.94-4.19.94-6.88s.7-4.71,1.24-6.83c1.36-5.33-.73-11.22,2.76-16.12.59-.84,0-1.57-.55-2.22-.78-1-1.27-2.39-.74-3.27,3-4.94.37-10.08,1-14.83.31-2.35,1.47-5.53,2.12-8.37,1.11-4.81-.53-9.91.47-14.36s.33-8.58,1-12.78c1.43-9.13,3.39-18.18,4.58-27.34.74-5.61.78-11.24,2.47-16.76.71-2.31-1.16-5.36-.6-7.78,2.09-8.93.13-18.56,4.68-27a1.29,1.29,0,0,0,.13-1c-2.3-5.38,1.8-11-.65-16.38a2.13,2.13,0,0,1-.23-1.45c2.71-6.8,2.82-14.16,4.68-21.13.61-2.27,3.63-3.42,5.13-3.35,8.07.38,15.19-4.08,23.38-3.9,3.55.08,8.23-2.06,12.05-3.93,3.09-1.52,6.59-.94,9.52-2.61.21,11.54-2.19,22.82-3.47,34.21-3.31,29.6-6.94,59.16-10.46,88.73q-5.17,43.38-10.39,86.75c-1.5,12.56-3.13,25.11-4.45,37.69-.56,5.36-1.29,10.59-4.59,15-6.84,9.19-8.8,19.79-9.64,30.9-.5,6.57-.48,13.37-3.92,19.4l-2.88,2.67-.72.68-.19.11a5.39,5.39,0,0,0-3.1,1.79c-1.38,0-2.28.94-3.19,1.82a134.24,134.24,0,0,0-24,11.82c-10,6.11-19.57,6.52-29.44.46-2.15-1.32-5.52-.68-6.46-4,6.53-1,12.72,1.45,19.11,1.85h1C763.82,387.94,764.81,389.63,766.65,387.93Zm57-234.4c0-1.16-.18-2.38-1.17-2.08-4.72,1.46-9.74,2-14.06,4.6-.39.24-.54,1.2-.47,1.78a1.36,1.36,0,0,0,1.88,1.1q6.41-2,12.73-4.2C823,154.56,823.36,153.83,823.62,153.53ZM824.71,182c1.79-.74,5.46.3,6-3,.46-2.74-2.54-1.73-4.09-1.85-2.46-.2-5.35-.41-5.76,3C820.6,182.37,822.69,181.89,824.71,182Zm-4.23,3.59c-5.5-.94-8.59,3.57-12.76,1.89-.91-.37-2-.83-2.65.26a3,3,0,0,0-.06,2.32,2,2,0,0,0,2.61.83C811.57,189.48,815.74,188.58,820.48,185.58Z"/><path class="cls-4" d="M653.67,125c4.72,1.61,5.81,9,1.74,12.9,3.57,1.78,8.12.48,10.9,4.06,1.27-1.56-.37-3.26.88-4.37a4.48,4.48,0,0,1,2.12-1.15c1-.15,1.29.76,1.33,1.64.19,3.51,3,4.54,5.55,5.87-.65,2.08-3.27.08-4.18,2.38,5.4-.19,5.53,3.33,4.34,6.87-1.26,3.76.63,3.92,3.32,3.8a77.87,77.87,0,0,1-1.18,17.07c-1.21,6.81-.27,13.52-1.09,20.29-1,8.27-3,16.71-.26,25.41,1.27,4.09,2.72,3.82,5.55,3.17a2,2,0,0,1,.49,0c20.75,4.82,40.9,11.69,61.36,17.51,2.3.66,2.17,2.64,2.12,4.5-1.28,2.51-3.42,2.21-5.59,1.65s-4.45-1.25-6.68-1.86c-1.65-.45-3.74-1.94-4.54.79-1,3.35.93,6.13,3.09,8.37,1.17,1.21,3.3,2.06,4.6-.28.66-1.22,1.35-2,2.62-1.07.72.54,1.63,1.53,1.57,2.25-.09,1.15-1.44,1.09-2.42,1.14-1.43.07-2.8.12-2.11,2.23.11.34-.24.83-.38,1.25-4.06-3.41-4.32,4-7.78,2.74-.8-.3-1.4.89-1.1,1.75a1.27,1.27,0,0,0,2,.65c3-2,3.85,1.17,5.51,2.29,1.38.94,1.52,2.31.21,3.31-1.63,1.23-1.76-.41-2.23-1.42s-1.15-1.94-2.24-1.12a3.33,3.33,0,0,0-1.3,2.51,63.17,63.17,0,0,0,1.75,6.82,18.72,18.72,0,0,1-2.92-.48c-16.7-5.33-33.38-10.73-50.09-16-4.71-1.49-9.12-1.44-12,3.57a5,5,0,0,0-2,3.86q-1.55,22.53-3,45.06c-.07,1.17-.72,3.19,1,3.36,2.1.2,1.81-1.91,1.9-3.32.7-10.91,1.26-21.82,2.1-32.71.36-4.76,1.26-9.48,1.92-14.22,2.17-3.19,5.27-3.78,8.67-2.73,4.2,1.3,8.32,2.89,12.47,4.35,3.83,7,2.16,13.64-1.64,20.19-1.42.4-2.28-3.18-3.94-1.13a3.86,3.86,0,0,0,.35,5,4.32,4.32,0,0,1,1.1,3.17l0,0-2,0c-.11-.64-.1-1.38-.95-1.49-.17,0-.58.39-.56.55.11.85.85.85,1.49.95.68,2.88.29,6.12,5.52,4.26,3.72-1.33,6.27,1.86,5,5.08,2.5.61,6.4-2.34,7.28,2.24.8,4.2-3.79,9-8.45,9.14,2.06,3.51,7.38.61,9,4.61-1.1,1.88-3.4,1.18-5,2.51,1.26,1.88,2.91,3.61,2.69,6.13-.07.84.22,1.65,1.38,1.62,1,0,2.25-1.51,2.94.26s-1.25,1.87-1.9,2.79c-2,2.82-3.7,5.45-7.82,3.14-.55-.3-2.11,1.22-3.24,1.92.37,2.17,3.41-.79,3.56,2,.11,2.14-1.56,2.51-2.76,3-5.43,2.14-1.54,5.47-1.21,8.33-.08.14-.15.28-.23.41l.22-.41c2.76.57,2.63,3,1.46,4.09-1.58,1.43-3.49,4.29-6.29,2.24-3.16-2.3-6-2.39-10-1.73s-8.32-1.62-12.4-2.93c-1.8-.57-3.14-1.25-3.83,1.16l-1.54.2-.08.09c-2.83-4-7.14-4.59-11.5-5.1-2.8.23-1.4-4.35-4.42-3.87l-3.29-7.16c-.27-1.38-.53-2.76-.79-4.14.08-.12.26-.28.23-.37a6,6,0,0,0-.41-.74c0-.5,0-1,0-1.51a1.53,1.53,0,0,0,.16-2,49.91,49.91,0,0,0,.66-11.32c1-2.18.89-4.46.55-6.76l.39-7.17a7.8,7.8,0,0,0,.34-5.68c.08-.8.17-1.6.25-2.39s.11-1.88.17-2.81c.09-2,.19-4.07.28-6.1,1-2.56.85-5.21.61-7.86.13-2.43.26-4.85.38-7.28a11.74,11.74,0,0,0,.43-6.64c.06-.74.13-1.49.19-2.24a.77.77,0,0,0,.09-.91c.11-2.37.22-4.75.34-7.12a17.49,17.49,0,0,0,.56-7.81c0-.71.07-1.42.11-2.13,0-.32,0-.64.07-1q2.75-43.54,5.51-87.11c.47-7.29,1.14-14.58,1.72-21.86,1-.14,2-.38,1.85-1.7-.09-1-.94-1.17-1.74-1.32.1-4-.28-8.11.87-12.06,1.49.95,3.48,1.65,2,4.07-.86-.25-1.9-.92-2,.77,0,.59-.07,1.52.68,1.45C653.57,127.1,653.56,125.93,653.67,125Zm19,194.58c.42-.45.8-.67.82-.91.73-11.68,1.65-23.34,3.18-35,.16-1.25-.45-2.86,1.19-3.47s2.47-.14,2.55,1.81c.05,1.16,1.17.83,1.91.45a2.1,2.1,0,0,0,1.2-2c-.07-1.73-5.92-5.64-8-5.11-3.09.8-.77,2.95-.9,4.49,0,.5,0,1,0,1.49-1.05,11.66-2.08,23.32-3.2,35C671.28,317.59,671.28,318.6,672.66,319.57Zm-4-173.88a11,11,0,0,1-7.21,6.54,2.64,2.64,0,0,0-1.69,3.2,1.53,1.53,0,0,0,1.71,1.37C665,156.86,669.84,150.25,668.7,145.69Zm58.17,106.09c-4.81-2.29-2.19-6.88-3.84-10.11-.57-1.11-2.12-.81-3.22-.48a1.41,1.41,0,0,0-.86,2c1.33,2.85,2.73,5.66,4.17,8.45a2,2,0,0,0,2.07,1.13C725.59,252.74,726,252.34,726.87,251.78Zm-.49-6.39-.36.83c.28.12.62.39.82.31s.26-.51.38-.79Z"/><path class="cls-5" d="M544.73,171.52c3.48,1.62,6.35,3.65,5.84,8.15-.24,2.08,1.19,2.85,2.84,3.46,2.79,1,5.51,2.28,8.34,3.15a26,26,0,0,1,14.27,10c-.1.33-.19.66-.29,1-6.15,3-13.18,2.9-19.59,5.34a42.25,42.25,0,0,1-7.45,1.55c-4.17.63-8.8.64-12.67,2.92-5.94,3.52-12.89,3.12-19.23,5.12-1.17.37-2.22-.59-3.08-1.38-6.22-5.72-14.24-8.14-21.68-11.45-13.25-5.89-27-10.71-39.94-17.28a8.55,8.55,0,0,0-4.33-.75c-1.84-.29-4-1.23-5.32-1.17-3.1.17-3.31-5-6.7-3l-1.87,0a4.4,4.4,0,0,0-3.73-3.44,73.36,73.36,0,0,1-9.35-2.45,4.23,4.23,0,0,0-.87,0c-.12-2.07-1.95-2-3.24-2.53-11.79-4.82-23.58-9.61-35.18-14.93-13.13-6-26.66-11.18-40.12-16.44-3.7-1.45-6.52-5.57-11.29-4-.07-.25-.13-.51-.18-.76a21.9,21.9,0,0,1,6.94-4.08l2-.28a4.15,4.15,0,0,0,3.3-.77l3.74-.41,1.37-.59,2.6-.25a3.71,3.71,0,0,0,3.25-.76l2.76-.3a2.37,2.37,0,0,0,2.34-.67l3.68-.41a2.33,2.33,0,0,0,2.26-.6l2.71-.29a2.49,2.49,0,0,0,2.42-.7l3.6-.38a2.31,2.31,0,0,0,2.26-.63l3.75-.44,1.37-.57,2.58-.22a4,4,0,0,0,3.31-.77l3.73-.4,1.39-.61c12.42-2.21,22.33,5.44,33.39,8.56,4.43,1.25,8.69,3.07,13,4.63l3,1.12c5.29,2.1,10.44,4.61,16.09,5.72,16.41,6.27,32.79,12.6,49.24,18.79C518.86,162.1,531.81,166.77,544.73,171.52Zm-119-29.46c5.31,4.08,10.75,2.17,16.23.59a51.11,51.11,0,0,0-15.08-5.52c-5.9-2.32-11,1.34-16.69,2.44l7.39,3.63c-9.92,3.35-11.67,3.38-21.39-.73-3.08-1.3-5.54-1.43-7.69,1.1,10.39,7.91,21.61,7.32,33.14,3.78.74-.22,2.15-.31,1.57-1.3C421.28,142.8,425,143.42,425.73,142.06Zm31.73,17c6.1,1.77,11.3,7,18.47,4.72C469.76,162.25,464.82,156,457.46,159.05Zm-76-30.31c7.14,4.67,13.36,6.15,16.78,3.86C392.6,131.13,387.93,126.88,381.42,128.74Z"/><path class="cls-3" d="M574.17,316.18c-.09,2.7-.17,5.4-.26,8.09q-.15,4.37-.28,8.73a1.57,1.57,0,0,0-.18,2.05c-.1,1.4-.21,2.81-.31,4.21q-1.32,5-2.62,9.91c-1.61-.19-2.34.77-2.76,2.12-1.28.32-2.56.65-3.85,1-2,.48-2.79,1.55-.73,2.82,3.82,2.33,2.57,3.94-.47,5.58-1.89,1-3.69,2.21-5.61,3.19-10.92,5.58-23,8.07-34.33,12.68-3.7,1.51-8.89,3.6-12.88-.82a44.25,44.25,0,0,0,15.9-3.16c4.41-1.8,9.12-2.88,13.66-4.37,5.45-1.79,10.43-4.88,16.29-5.62,1.66-.21,4-1.5,3.43-3.51-.55-1.82-2.5-4.14-4.77-3.33-3.21,1.13-7,.83-9.65,3.43-7.64,2.53-15.24,5.19-22.93,7.53-5.54,1.68-10.87,5.17-17.08,2.6-13-8.91-27.06-15.95-40.48-24.1-10.46-6.36-21.37-12-31.47-18.93.91-2.35,2-4.26,4.17-1,.57.84,1.45,1.23,2.08.75,3.61-2.77,5.59-1.44,7.06,2.34.56,1.43,1.95.61,3.06.32,1.88-.49,3.89-.11,3.07,2.23-1.82,5.21,1.52,4.43,4.31,3.91,1.85-.35,4.11-.51,3.88,1.45-.63,5.25,3.06,3.33,5.48,4.42,2.87,1.29,8.72-1.6,8.58,5.28,0,1,4,2.78,5.72,1.67,4.44-2.95,3.67.44,3.37,2.57-.27,1.95.1,2.89,2,3.07,4.3.42,8.35,1.3,11.07,5.15a1.14,1.14,0,0,0,1.76.13c2.27-2.18,5.73.62,8.07-2,.56-.64,2.1-.05,1.26,1.89-1,2.42,2.47,3,2.62,5.17,1.48-.15,3.31-.11,3.89-1.66,1.82-4.85,5-9.33,3.67-15.07-.59-2.48-1.86-5.34,1.42-7.55.93-.63,1.27-3.26.81-4.62-1.54-4.62-1.3-9.1-.61-13.84.55-3.79,2.83-7.13,3-10.7.48-9.43.15-18.9.18-28.36,0-3.83-6.45-7.44-.37-11.45-3.4-2.86,1.19-6.68-1.42-10.08-1.89-2.48,1.11-6.41,0-9.15-1.88-4.65.09-9.17-.26-13.73a55.48,55.48,0,0,1,.85-12.89c.58-3.41.62-5.45,5-5.3,4.58.17,9.48,0,12.25-4.85a2,2,0,0,1,2-1c1.66,4.72,5.23,3.78,7.88,1.85a26.42,26.42,0,0,1,15.07-5c4.78.1,7.25-1.18,10.06-3.93,3.18-1,2.54-3.91,3.09-6.22,2.51,5.35,1.72,11,1.5,16.59-.27,6.82-.29,13.66-.94,20.44-.36,3.69,3.17,5.6,2.86,9.56-.35,4.54-4.33,7.5-3.87,12.2.13,1.39-2.34,1.18-3.81.52-4-1.75-8-3.38-11.87-5.25-2.34-1.12-3.29-.7-3.37,2-.25,8.48-.54,17-1,25.44-.13,2.48,1.17,3.59,3.13,4.48,3.18,1.44,6.33,3,9.48,4.47,6.52,3.14,9.33,9,8.64,16-.26,2.74-4.33,3.11-3,6.25A3.78,3.78,0,0,0,574.17,316.18Zm-36.4-40.88c-.21-.23-.62-.67-.61-.69,2.9-2.87,2.6-6.57,2.51-10.15s-2.07-4.94-5.5-4.4c-4.75.74-8.2,5.09-8.4,10.62-.34,8.94.35,17.89-.87,26.84-.68,5.07-.24,10.3-.19,15.45,0,1.78.62,4.77,2.81,2.24,4.25-4.93,10.53-8.94,9-17.29-.51-2.73-1.24-7.22,0-8.56,4.24-4.73,1.71-9.36,1.3-14.08l.24-.38ZM536.15,257c5.33.62,6.62,3.64,6.7,8.06.29,15.69-.94,31.3-2,46.93-.11,1.55-.71,3.14,2.51,2.15,3.56-1.1,5.37,1.48,4.76,5.46-.31,2-.73,4.72,2.32,4a94.8,94.8,0,0,0,13.14-4.6c1.9-.74,1-3,1.69-4.4.1-.18-.41-1-.72-1-1.83-.32-1.92,1.44-2.7,2.4-2.4,3-6,3-9,2.5s-3-3.55-3.25-6.38c-.38-4.7.83-9.84-3.18-13.83-1.19-1.19-.56-3.19-.68-4.84-.53-7.32,1.09-14.53,1-21.83,0-3.28-1.27-7.21,3.71-8.35.33-.08.53-.74.8-1.13-3.48-1.78-.34-3.81-.06-5.6.32-1.95-.17-3.22-2-3.11C544.91,253.73,540.29,253.17,536.15,257Zm37.79,48.15c-4.38-2.2-8.2-4.09-12-6.06-.85-.45-2.25-1.18-2.24-1.76.06-5-2.59-9-4.14-13.45-1.67-4.77-2.51-9.49-1-14.51.74-2.42-1.08-3.06-3.14-3.31-2.49-.29-1.65,1.55-1.71,2.63-.39,7.79-.75,15.58-1,23.38-.18,4.91,4.19,10,9,10.09A25.45,25.45,0,0,1,568.2,305C569.77,305.73,571.34,307.05,573.94,305.19Zm-4.1,2.47c-3.51-.94-6.14-1.76-8.83-2.33a5.06,5.06,0,0,0-5.26,1.95,3.46,3.46,0,0,0-.58,4.11c.75,1.37,2,.46,3.1.21A47.46,47.46,0,0,0,569.84,307.66ZM538.3,318.18c1-.22,1.33-.75,1.3-1.47,0-.57-.48-.9-1-.56a8.64,8.64,0,0,0-1.23,1.44Z"/><path class="cls-5" d="M691.67,40.06l-2,0c-.73-2.78-2.24-2.39-4-1l-3,0c-.84-2.89-3.49-2.34-5.55-3-3.88-1.16-8.19-.18-11.85-2.39C673.1,30,681.75,30.2,690,28.34c7.53-1.71,15.39-1.45,22.81-4,4.45-1.51,8.93.41,13.22,1.21,12.69,2.38,25.5,4.34,38.22,6.17q33.57,4.8,67.2,9.42c5.54.75,11,1.37,16.69.68,3.59-.43,6.8,3.36,8.48,7.18-5.46-.89-10.23,2.1-15.42,2.72-4.23.51-8.69.83-12.59,2-9.15,2.64-18.12,5.6-27.77,4.13-2.53-.39-4.84-2.23-7.38-2.69C781.26,53,769,51.16,756.87,49c-19.66-3.43-39.55-5.43-59.07-9.74C695.81,38.87,693.51,38.23,691.67,40.06Zm9.15-8.59c4.95.73,9.92,1.06,14.89-1C710.54,29.15,705.63,28.91,700.82,31.47Zm31.84,2.14c-4.51-2.35-8.91-1.53-13.27.58A21.65,21.65,0,0,0,732.66,33.61Z"/><path class="cls-4" d="M576.85,200.06c-.55,2.31.09,5.21-3.09,6.22v-2l.23-.42-.24.41c-9.81.79-19.08,4.12-28.66,6a5.69,5.69,0,0,0-4.34,3,2,2,0,0,0-2,1c-1.81-.44-3.63.31-5.28.57-4.35.71-9.18-.21-12.94,3.25-3,2.77-7.48,2-8.48-1.73-2-7.61-8.86-9.82-14.61-11.66-8.22-2.62-15.48-7.25-23.93-9.53s-16.11-7.47-24.73-9.9c-.34-1.32-.69-2.64-1-4a8.55,8.55,0,0,1,4.33.75c13,6.57,26.69,11.39,39.94,17.28,7.44,3.31,15.46,5.73,21.68,11.45.86.79,1.91,1.75,3.08,1.38,6.34-2,13.29-1.6,19.23-5.12,3.87-2.28,8.5-2.29,12.67-2.92a42.25,42.25,0,0,0,7.45-1.55c6.41-2.44,13.44-2.31,19.59-5.34C576.1,198.2,576.48,199.13,576.85,200.06Z"/><path class="cls-4" d="M691.67,40.06c1.84-1.83,4.14-1.19,6.13-.76,19.52,4.31,39.41,6.31,59.07,9.74,12.17,2.12,24.39,3.94,36.55,6.1,2.54.46,4.85,2.3,7.38,2.69,9.65,1.47,18.62-1.49,27.77-4.13,3.9-1.13,8.36-1.45,12.59-2,5.19-.62,10-3.61,15.42-2.72a2.1,2.1,0,0,1,1,2c-5.26.87-10.74,1.22-15.45,3.85-2.79,1.56-5.37-.06-8.18.69-7.49,2-14.84,4.63-22.59,5.69-6.42.89-12.46,1.15-18.15-3.17-2.14-1.62-5.66-2-8.54-2a120.25,120.25,0,0,1-25.28-2.51c-7-1.5-14.24-2.75-21.3-3.67-6.86-.89-12.78-4.88-19.6-4.91-7.16,0-13.83-2.88-20.92-3C695.36,42,693.24,41.9,691.67,40.06Z"/><path class="cls-4" d="M665.28,33.66c3.66,2.21,8,1.23,11.85,2.39,2.06.62,4.71.07,5.55,3-5.87,1.13-11.45-1.45-17.3-1.46-2.32,0-3.6,2.36-5.8,1.43C660,35.58,663,35,665.28,33.66Z"/><path class="cls-6" d="M641.25,280.07c.24,2.65.43,5.3-.61,7.86C639.72,285.22,640.66,282.66,641.25,280.07Z"/><path class="cls-6" d="M643.24,248.07a17.49,17.49,0,0,1-.56,7.81C642.79,253.27,642,250.6,643.24,248.07Z"/><path class="cls-6" d="M639.94,299.23a7.8,7.8,0,0,1-.34,5.68C638.23,302.92,640,301.13,639.94,299.23Z"/><path class="cls-6" d="M642.06,266.15a11.74,11.74,0,0,1-.43,6.64C641.74,270.58,641.18,268.32,642.06,266.15Z"/><path class="cls-6" d="M639.21,312.08c.34,2.3.49,4.58-.55,6.76C638.78,316.58,638.07,314.25,639.21,312.08Z"/><path class="cls-2" d="M650.76,133c.8.15,1.65.29,1.74,1.32.11,1.32-.84,1.56-1.85,1.7C650.69,135,650.72,134,650.76,133Z"/><path class="cls-7" d="M583.38,198.59c-.28.11-.63.37-.83.28s-.24-.52-.35-.8c.28-.11.63-.37.83-.29S583.27,198.3,583.38,198.59Z"/><path class="cls-6" d="M640.36,294c-.06.93-.11,1.87-.17,2.81A1.88,1.88,0,0,1,640.36,294Z"/><path class="cls-7" d="M574.17,316.18a3.78,3.78,0,0,1,.43-3.39C574.72,314,575,315.14,574.17,316.18Z"/><path class="cls-6" d="M638,330.16a1.53,1.53,0,0,1-.16,2C637.89,331.5,638,330.83,638,330.16Z"/><path class="cls-6" d="M642.34,263a.77.77,0,0,1-.09.91,4,4,0,0,1-.2-.67C642,263.17,642.24,263.08,642.34,263Z"/><path class="cls-6" d="M643.42,245c0,.32,0,.64-.07,1a3.62,3.62,0,0,1-.24-.7C643.1,245.18,643.31,245.07,643.42,245Z"/><path class="cls-6" d="M637.85,333.68a6,6,0,0,1,.41.74c0,.09-.15.25-.23.37a6.34,6.34,0,0,1-.26-.73C637.74,334,637.82,333.81,637.85,333.68Z"/><path class="cls-8" d="M6.22,250.66c0,1.45,0,2.87-2,3v-3C4.88,250.53,5.57,249.44,6.22,250.66Z"/><path class="cls-8" d="M281.66,277l.69,3.51c0,.65-.07,1.3-.1,1.95l-.33.25C281,280.88,281.26,279,281.66,277Z"/><path class="cls-5" d="M90.61,151.78l3.66-.45,1.39-.56,3.61-.42a2.16,2.16,0,0,0,2.19-.61l2.8-.36a2.24,2.24,0,0,0,2.22-.63l2.77-.38,1.43-.6,3.58-.37a2.28,2.28,0,0,0,2.28-.63l2.7-.34,1.46-.66,3.54-.31a2.71,2.71,0,0,0,2.37-.68l4.67-.43,4.8,0c6.22.12,10.64,4.49,15.95,6.76a34,34,0,0,0,7.94,4.55l1.14.74,1,.45,3,1.79,1,.76c7.14,4.2,14,8.9,21.59,12.33l1.43.92a21.57,21.57,0,0,0,2,1.47q40.42,23.52,80.87,47c3.05,1.77,6.07,3.52,6.91,7.35-2.37,1.2-5.5,1.13-6.86,4.05a3.79,3.79,0,0,0-.89,0,9.27,9.27,0,0,0-1.49,0c-11.84,1.94-23.16,6-34.86,8.61-5.23,1.16-11,1.93-15.66,5.34a3.57,3.57,0,0,0-1,0,7.34,7.34,0,0,0-5,1l-2,.09c-9.47.22-17.87,5.06-27.2,6.18-5.89.7-11.51,3.38-17.36,4.67-11.21,2.48-22,6.5-33.42,8.36-12.12,2-22.74-.71-30.84-9.59-5.52-6.05-12.63-9.73-18.5-15.18-6.81-6.31-14.93-11.19-22.08-17.17-11.72-9.8-24.11-18.75-35.86-28.55-7.44-6.19-15-12.34-22.82-18.18-1.31-1-1.81-2.26-2.6-3.46.24-3.92,3.33-4.63,6.24-5.55,1.86-.59,3.69-1.24,5.53-1.87l1.36-.58,2.61-.26a2.58,2.58,0,0,0,2.41-.72l2.58-.24a3.93,3.93,0,0,0,3.3-.78l2.73-.38,1.43-.61,2.53-.2a4.37,4.37,0,0,0,3.35-.81l2.69-.34a3.52,3.52,0,0,0,3.12-.71l2.91-.4a1.93,1.93,0,0,0,2-.62l1.92-.24a2.54,2.54,0,0,0,2.36-.67l3.66-.47,1.38-.54,3.62-.4a2.26,2.26,0,0,0,2.19-.63l2.8-.38,1.42-.59,3.57-.37,1.44-.63,2.51-.19a4.21,4.21,0,0,0,3.32-.82l1.68-.18a4.13,4.13,0,0,0,3.32-.82l2.73-.34a3.62,3.62,0,0,0,3.14-.7l1.85-.28A2.44,2.44,0,0,0,90.61,151.78Zm92.55,76.85c.73,1.35,1.6,2.37,3.39,1.51-.73-1.68-2.1-1.48-3.37-1.54-.36-2.3-2.21-2.61-4-3a8.25,8.25,0,0,0-6-4,8.32,8.32,0,0,0-6-4c-2.93-3.49-5.65-2-8.35.11,2.76-.47,5.54-.08,8.32-.08a6,6,0,0,0,6,4c1.07,2.73,3.18,3.9,6,4C179.5,228,181.35,228.27,183.16,228.63Zm-44,2c-.08-.77-.14-1.56-1.21-1.53a.45.45,0,0,0-.32.31c0,1.08.79,1.1,1.54,1.21A30,30,0,0,0,151.6,239C147.45,236.19,144.72,231.33,139.17,230.62Zm13-17.08,23.65-5.63c-1.93-.66-2.42-1-2.8-.94q-11.44,2.78-22.86,5.63c-3.69.7-7.47,1.09-11.06,2.15-8.29,2.45-17.12,2.9-25,6.76-2.81,1.23-5.88,2.84-2.08,5.88,6.61,5.28,13.62,10.06,20.46,15.05.93.68,2.11,1.77,3,.61,1.34-1.65-.69-2.28-1.57-2.94-5.6-4.16-11.18-8.35-17-12.22-2.7-1.8-3.19-3.53-1.34-6.06ZM205,203.48c-.71.68-.27,1.19.31,1.55q11.67,7.13,23.36,14.19c.91.54,2.07,1.05,3.35-.84-8.77-4.75-16.48-11-25.71-14.83A.75.75,0,0,0,205,203.48Zm-37-8,9.86-2.26a10.43,10.43,0,0,0-1.62-1.8Q148.1,174,119.92,156.62c-4.82-3-5-2.76-6.76,3q-29.88,5.92-59.74,11.86c-1.34.26-3.51-.27-3.61,1.64-.07,1.44,1.62,2.31,3.21,2.55,14.22,10.37,28.53,20.64,42.61,31.2a11.57,11.57,0,0,0,10.56,2.15c18.94-4.4,37.94-8.53,56.91-12.75Zm48.64,23.32c-5.74-5.65-23.37-5.42-32.88.4C194.66,217.58,205.59,214,216.62,218.76ZM154,224.25c-9.48,1.83-18.75-2.52-27.82.76,8.26.13,16.4,1.28,24.56,2.16C152.25,227.34,153.69,226.88,154,224.25Zm17.73-10.88.16.94a5.73,5.73,0,0,0,1.79.27c8.6-1.53,16.88-4.75,25.73-5.07.72,0,1.35-.42,1.25-1.18a1.45,1.45,0,0,0-1.78-1.31c-2.6.49-5.18,1-7.75,1.66C184.66,210.22,178.2,211.81,171.73,213.37Zm30.45-10c-9.28-1.38-21.5.76-25.33,4.21C185.54,206.36,193.5,202.61,202.18,203.33Zm-10.33,23.43.39,1.69c5.49-1.43,11.22-2,16.08-5.74Zm-10-9.71c.12-1-.54-1.32-1.12-1.52-.33-.11-.77.13-1.16.21a7,7,0,0,0,1.12,1.42C180.88,217.34,181.43,217.09,181.8,217.05Z"/><path class="cls-2" d="M328.89,170.35l-.72-7.19a3.09,3.09,0,0,0-.25-3.18c0-1.55-.05-3.11-.08-4.66,0-1.33-.06-2.66-.1-4,0-1.67-.08-3.34-.11-5l0-2c.46-3.75-.09-7.73,2.49-11,4.77-1.55,7.59,2.57,11.29,4,13.46,5.26,27,10.41,40.12,16.44,11.6,5.32,23.39,10.11,35.18,14.93,1.29.53,3.12.46,3.24,2.53-2.43.43-4.91.7-7.28,1.34a3.33,3.33,0,0,0-2.67,3.23c0,1.88,1.46,2.53,3.11,2.45,4.25-.2,3.85,2.12,3.27,5.16-.4,2.06-2.91,4-1.69,5.76,3.37,4.79-.26,3.59-2.76,3.78s-5.09.75-5.09,4.09c0,1.77-1.7,2.38-2.17,3.78-10.37-4.7-20.71-9.48-31.13-14.07-8.23-3.61-16.07-8.13-24.73-10.75-.67-1-1.59-1.94-2.85-1.42-1.6.65-1.07,2.27-1,3.51.3,11.22.71,22.43,1,33.64.21,9.1-.51,18.24,1.31,27.27-2.36.67-4.94,1-7,2.14-1.5.85-2.49.8-3.5-.12-1.31-1.2.38-2,.65-2.94.48-1.74,3.3-2.68,1.62-5.19-1.17-1.73-3-1.95-6-2.61,9.24-3,6.4-10.27,6.9-15.5.84-8.56-1.93-17.19-1.35-25.89.07-1.07.28-2.18-1-2.4-3.64-.62-2.71-2.89-2.23-5.26.28-1.39.58-3.81-.07-4.21-3.63-2.18-1-4.2.16-6.09C333.05,169.48,330.83,172.12,328.89,170.35Z"/><path class="cls-9" d="M440.65,132.75l-3-1.12c.95-2.84-2.13-4.17-2.57-6.36.25-.27.36-.5.47-.5C442.83,124.85,442.83,124.85,440.65,132.75Z"/><path class="cls-10" d="M336.85,128.49a21.9,21.9,0,0,0-6.94,4.08c-.34-.89-.69-1.77-1-2.66a5.79,5.79,0,0,1-.56-1.74c0-.22,1-.7,1-.67C331.53,130.32,334.88,124.39,336.85,128.49Z"/><path class="cls-9" d="M327.74,151.32c0,1.34.07,2.67.1,4-1.79-.23-4.61.7-4.5-2.19C323.43,150.76,326.05,151.47,327.74,151.32Z"/><path class="cls-9" d="M187.86,143.64c-1.36,1.5-2.87,1-4.26.82a1.2,1.2,0,0,1-1.07-1.77c.74-1.55,2.23-1,3.47-.89A2.22,2.22,0,0,1,187.86,143.64Z"/><path class="cls-9" d="M455.59,124.28c.11,1.07-.25,1.86-1.29,1.63s-2.36-.7-2.35-2.17c0-1.06.55-2.09,1.74-2C455.1,121.9,455.17,123.34,455.59,124.28Z"/><path class="cls-9" d="M327.6,144.33l0,2c-.86-.16-2.27.34-2.29-1S326.75,144.5,327.6,144.33Z"/><path class="cls-10" d="M327.92,160a3.09,3.09,0,0,1,.25,3.18,3,3,0,0,1-.46-.81Z"/><path class="cls-10" d="M342.15,127.44a4.15,4.15,0,0,1-3.3.77C339.74,127.06,341,127.38,342.15,127.44Z"/><path class="cls-10" d="M353.11,125.43a3.71,3.71,0,0,1-3.25.76C350.74,125.07,352,125.38,353.11,125.43Z"/><path class="cls-10" d="M386.15,119.45a4,4,0,0,1-3.31.77C383.73,119.06,385,119.38,386.15,119.45Z"/><path class="cls-10" d="M358.21,124.46a2.37,2.37,0,0,1-2.34.67A2.26,2.26,0,0,1,358.21,124.46Z"/><path class="cls-10" d="M364.15,123.45a2.33,2.33,0,0,1-2.26.6A2.33,2.33,0,0,1,364.15,123.45Z"/><path class="cls-10" d="M375.14,121.45a2.31,2.31,0,0,1-2.26.63A2.29,2.29,0,0,1,375.14,121.45Z"/><path class="cls-10" d="M369.28,122.46a2.49,2.49,0,0,1-2.42.7C367.49,122.31,368.38,122.38,369.28,122.46Z"/><path class="cls-10" d="M347.26,126.44l-1.37.59Z"/><path class="cls-9" d="M161.11,156.42l-1.14-.74Z"/><path class="cls-10" d="M391.27,118.44l-1.39.61Z"/><path class="cls-10" d="M380.26,120.44l-1.37.57Z"/><path class="cls-2" d="M.51,174.76c.79,1.2,1.29,2.47,2.6,3.46,7.78,5.84,15.38,12,22.82,18.18,11.75,9.8,24.14,18.75,35.86,28.55,7.15,6,15.27,10.86,22.08,17.17,5.87,5.45,13,9.13,18.5,15.18,8.1,8.88,18.72,11.56,30.84,9.59,11.42-1.86,22.21-5.88,33.42-8.36,5.85-1.29,11.47-4,17.36-4.67,9.33-1.12,17.73-6,27.2-6.18-.27,2.35.43,5.83-4,3.26-.54-.32-1.58.09-2.34.32a162.17,162.17,0,0,1-23.74,5.82c-5,.73-8.56,5.26-14,4.56-4.39-.56-8,2.64-12.67,2.58-2.77,0-6.41,2-9.88,2.65s-8,.66-9.36,4.55.11,8.5.48,12.62,3.1,9.91,1.67,12.25c-3.39,5.55,3.08,10.55-.69,15.3-.05.07.08.32.17.46,1.78,2.84-3.17,6.82,1.54,9.17-.28.37-.51,1-.86,1.07-3.35.83-1.42,2.29-.65,3.87s3.11,2.85,1.76,5.28c-3.14,5.63-6.87,7.17-13.65,5.59a28.79,28.79,0,0,0-2.94-.37l-8.84-7.17,0-1.91a4.64,4.64,0,0,0-2.35-4.59c-3.14-2.1-6.08-9.25-5.15-12.41.25-.86.95-.62,1.6-.46,1.46.36,1.1-.57,1.48-1.54,1.9-4.77-1-5.54-4.53-6,0-2.31.5-4.78-.17-6.87-1.06-3.35.92-7.59-2.87-10.12-1-6.29-8.13-6.45-10.92-11,.79-1.61,1.26-3.4,2.81-4.7,1.42,1.56,2.81,3.08,4.19,4.61,1.07,1.19,2.28,1.38,3.42.25s.6-9-1-9.77c-4-2.12-6.83-5.63-10.21-8.48-.7-.59-1.92-1.28-2.59-1.05-1.42.49-.73,2-.57,3a134.25,134.25,0,0,1,1.84,20.11c-1.82,3.21-2,5.7,2,7.77,3,1.55,5.38,4.11,8,6.22.24,3,1.46,5.9,1,9-2.08.51-4.21,1.32-5.9-.86-.54-.7-1.25-1.3-2.11-.82-1.27.7-.33,1.71-.14,2.6.6,2.88,1.59,5.82-1.72,8.39.32-4.75-1.43-8.1-5.47-10.32-1.46-.8-2.49-2.36-3.72-3.57,4.65-3.9-1.81-.81-1.67-2.48.07-.87-1.88-.82-2.87.14-2.38,2.33-4.33.85-4.76-1.35-.71-3.58-2.72-4-5.67-3.83a10.92,10.92,0,0,1-3.85-.91c-3.7-1.28-5.25-6.7-2.78-9.46a1.87,1.87,0,0,0,.42-1.32,1,1,0,0,0-1.48-.76c-2.75,1.19-4.09-1.05-6.08-2.1-4.6-2.42-6.17-8.46-11.8-9.5a.9.9,0,0,1-.37-1.57c3.94-4.18-1.95-3.36-2.81-5.08-1.24-2.51-2.88-.36-4.13,1a3.39,3.39,0,0,1-3.09.48c1.27-4.83-9.11-1.55-5.42-7.84-.41-.21-1-.72-1.2-.6-5,3.49-7.57-.4-10.58-3.3-1.31-1.26-1.54.12-1.79,1.07l-1.85-.17c.31-11.54-1.58-22.92-3.48-34.18-2-11.94-3.59-23.88-4.84-35.9C-.15,177.59.5,176.29.51,174.76Zm13.68,45.87-.27-.21.3.19c-.33,5.59,4.39,7.08,7.78,10.51C23,224.14,17.75,223.06,14.19,220.63Zm48.42,40.78c-1.73,5.4,3.59,6.48,5.66,9.46.76,1.08,2.48,2.66,3.52,1.41a3.49,3.49,0,0,0-.75-4.91C68.22,265.44,66.09,262.51,62.61,261.41Z"/><path class="cls-10" d="M136.08,144.37l-4.8,0A4,4,0,0,1,136.08,144.37Z"/><path class="cls-10" d="M80.53,153.76a4.13,4.13,0,0,1-3.32.82C78.09,153.37,79.33,153.67,80.53,153.76Z"/><path class="cls-10" d="M86.4,152.72a3.62,3.62,0,0,1-3.14.7C84.13,152.4,85.29,152.66,86.4,152.72Z"/><path class="cls-10" d="M75.53,154.76a4.21,4.21,0,0,1-3.32.82C73.09,154.37,74.33,154.67,75.53,154.76Z"/><path class="cls-10" d="M24.54,164.76a3.93,3.93,0,0,1-3.3.78C22.12,164.37,23.35,164.67,24.54,164.76Z"/><path class="cls-10" d="M34.58,162.76a4.37,4.37,0,0,1-3.35.81C32.12,162.36,33.37,162.68,34.58,162.76Z"/><path class="cls-10" d="M40.39,161.71a3.52,3.52,0,0,1-3.12.71C38.13,161.4,39.28,161.66,40.39,161.71Z"/><path class="cls-10" d="M49.62,159.78a2.54,2.54,0,0,1-2.36.67A2.21,2.21,0,0,1,49.62,159.78Z"/><path class="cls-10" d="M18.66,165.78a2.58,2.58,0,0,1-2.41.72A2.25,2.25,0,0,1,18.66,165.78Z"/><path class="cls-10" d="M45.34,160.69a1.93,1.93,0,0,1-2,.62Z"/><path class="cls-10" d="M60.47,157.74a2.26,2.26,0,0,1-2.19.63A2.21,2.21,0,0,1,60.47,157.74Z"/><path class="cls-10" d="M90.61,151.78a2.44,2.44,0,0,1-2.36.66A2.24,2.24,0,0,1,90.61,151.78Z"/><path class="cls-10" d="M101.46,149.74a2.16,2.16,0,0,1-2.19.61A2.26,2.26,0,0,1,101.46,149.74Z"/><path class="cls-10" d="M126.61,144.78a2.71,2.71,0,0,1-2.37.68A2.24,2.24,0,0,1,126.61,144.78Z"/><path class="cls-10" d="M116.54,146.77a2.28,2.28,0,0,1-2.28.63A2.22,2.22,0,0,1,116.54,146.77Z"/><path class="cls-10" d="M106.48,148.75a2.24,2.24,0,0,1-2.22.63A2.24,2.24,0,0,1,106.48,148.75Z"/><path class="cls-10" d="M110.68,147.77l-1.43.6Z"/><path class="cls-10" d="M120.7,145.77l-1.46.66Z"/><path class="cls-10" d="M95.66,150.77l-1.39.56Z"/><path class="cls-10" d="M54.66,158.77l-1.38.54Z"/><path class="cls-10" d="M69.7,155.77l-1.44.63Z"/><path class="cls-10" d="M13.64,166.76l-1.36.58Z"/><path class="cls-10" d="M28.7,163.77l-1.43.61Z"/><path class="cls-10" d="M64.69,156.77l-1.42.59Z"/><path class="cls-11" d="M812.58,393c-.5-.27-1.37-.45-1.45-.81-.23-1.05.74-1.07,1.46-1.22C812.59,391.6,812.58,392.27,812.58,393Z"/><path class="cls-8" d="M808.94,373l.72-.68Z"/><path class="cls-12" d="M696.65,70.81c8,.53,15.72,2.42,23.53,4,13.76,2.71,27.63,4.88,41.45,7.27,0,3.71-1.61,7.35-.43,11.1l.24,1.32A4.91,4.91,0,0,0,760,98c-1.37,15-2.7,30.1-4.1,45.15-1.57,16.87-3.44,33.71-4.72,50.59-1,13.4-3.19,26.72-3.21,40.2-.06.67-.13,1.35-.2,2-.91,2.06-2.26,2.25-4.39,1.62C724.17,232,705,226.49,685.75,221c0-1-.09-2,0-3,1.63-21.8,3.31-43.59,4.91-65.39.78-10.58,1.37-21.17,2.15-31.75C694,104.15,695.36,87.48,696.65,70.81Z"/><path class="cls-13" d="M682.69,222.93c-2.83.65-4.28.92-5.55-3.17-2.7-8.7-.74-17.14.26-25.41.82-6.77-.12-13.48,1.09-20.29A77.87,77.87,0,0,0,679.67,157c.62-6.32,1-12.69,1.93-19,1.94-12.82,1.58-25.8,2.52-38.66.65-9,2.53-18.06,1.86-27.24-.13-1.68-.15-5,2.26-5.59s4.23,1.36,5.44,3.51c-1.58,5-.56,10.22-1.08,15.32-1.73,16.76-2.92,33.57-3.9,50.39-.63,10.9-1.39,21.79-2.21,32.67-1.32,17.46-3.06,34.89-3.74,52.4Z"/><path class="cls-13" d="M766.65,387.93c-1.84,1.7-2.83,0-4-1-.33-.34-.67-.67-1.35-1.3l.35.29a1.75,1.75,0,0,0,0-.46c-.09-.28-.22-.55-.34-.83a1,1,0,0,0,0,1,2.25,2.25,0,0,1,.35,1.29c-6.39-.4-12.58-2.83-19.11-1.85l0-.05a2,2,0,0,0-.92-2.1,2,2,0,0,0-1-2c-.13.09-.39.23-.37.27a5.45,5.45,0,0,0,.37.72c0,.33,0,.67,0,1l-3.2.11a2.11,2.11,0,0,1-.83,0c-.27-.9.69-2.79-1.32-2.31s-2.54-1-3.64-1.8c-.2-.69-.14-1.82-1.24-1.46s-.67,1.56-.77,2.43l-1.18.14a1.84,1.84,0,0,1-.84,0c-1.09-3.92-2.76-4.52-6-2.15l-7.07-2.19-.87-.75,0-.07c-.26-1.29-.57-2.45-2.05-.86a4,4,0,0,1-1-.06l-1-.94,0,0,.09-2.07c3.53.34,3.77-2.72,4.76-4.82.64-1.36,1.15-2.48,2.82-2,1.86.56.61,1.84.56,2.87-.08,1.41-.72,3.29,1.35,3.71,1.7.34,3.75,1,5.12-.72.72-.88,1.15-1.94,2.26-2.52s2.34-1,1.76-2.53c-.44-1.18-1.62-1.06-2.57-1-4.86.42-4-2-2.21-4.6.93-1.4,1.76-2.3.19-4.1-2.12-2.43,1.39-3.77,1.92-6-.45,3.83,1.27,5.24,4.39,7.16,2.61,1.6,5.11,5.34,5.88,9,.68,3.26,2.44,4.24,5.42,2.34,5.27-3.35,10.37-3.33,15.28,0,.8.54,2.12.63,1.79,2-.43,1.71-1.7,1.09-2.81.75-.92-.28-2.18-.86-2.39.58s1.24,1.6,2.37,1.95c1.32.4,4.83-1.29,2.81,2.66,5.58.35,3.47,6.75,6.47,8.42C767.06,385.25,766.31,386.54,766.65,387.93Zm-16-7-.41-.22.41.23.42.22Zm4.06,2.52c-.11-2,4.28-2.51,1.7-5.17-.54-.56-1.47-1.43-2-.7C753.06,379.37,753.51,381.4,754.71,383.45Zm-7-8.81c.41-2.22,2.32-3.56,2.68-5.73,0-.26-1.52-1.05-2.15-.41C746.62,370.15,746.15,372.15,747.69,374.64Zm-17.34-1.7c.32-.39.81-.73.78-1a1.26,1.26,0,0,0-.87-.79c-.64-.08-1.28.23-1.08,1C729.26,372.46,729.86,372.63,730.35,372.94Zm11.22,4.38c-.18-.26-.33-.76-.66-.94-.52-.27-.93.14-.88.65a1.59,1.59,0,0,0,.65,1.08C741.28,378.49,741.42,377.94,741.57,377.32Z"/><path class="cls-14" d="M682.75,220.83c.68-17.51,2.42-34.94,3.74-52.4.82-10.88,1.58-21.77,2.21-32.67,1-16.82,2.17-33.63,3.9-50.39.52-5.1-.5-10.3,1.08-15.32,1.06,0,2.17-.21,3,.76-1.29,16.67-2.61,33.34-3.85,50-.78,10.58-1.37,21.17-2.15,31.75-1.6,21.8-3.28,43.59-4.91,65.39-.08,1,0,2,0,3Z"/><path class="cls-14" d="M689.81,267.66c-4.15-1.46-8.27-3.05-12.47-4.35-3.4-1.05-6.5-.46-8.67,2.73a1.81,1.81,0,0,1-2-2c2.85-5,7.26-5.06,12-3.57,16.71,5.31,33.39,10.71,50.09,16a18.72,18.72,0,0,0,2.92.48c2.64,1,5.31,1.91,7.93,3,9.21,3.67,13.09,11.19,11.9,21.58-1.55,13.45-2.65,27-3.94,40.45-.06.66,0,1.34-.06,2-.12,1.45-.67,2.78-2.33,2.62s-1.46-1.72-1.29-2.78c1.26-7.7,1.68-15.46,2.27-23.22.62-8.24,1.76-16.43,2.58-24.66.59-6-2.49-10.43-7.67-12.1C724,278.34,707.23,272,689.81,267.66Z"/><path class="cls-14" d="M714.61,375.67l7.07,2.19c1.67,1.6,3.79,1.95,6,2.15a1.84,1.84,0,0,0,.84,0c2.07,2.76,5.07,3,8.15,3a2.16,2.16,0,0,0,.84,0c.84,2.85,3.23,1.76,5.1,2l0,.05c.94,3.28,4.31,2.64,6.46,4,9.87,6.06,19.46,5.65,29.44-.46a134.24,134.24,0,0,1,24-11.82c1.19,2.62.19,4.68-2.05,5.92-7.68,4.24-15.48,8.26-23.2,12.44-5.37,2.9-10.85,2.76-16.35.64q-34.61-13.38-69.16-26.85c-7.73-3-15.47-6-23.15-9.15-1.6-.65-3.71-.69-4.46-2.78,8,.87,14.7,5.55,22.45,7.09,2.93,1.54,5.75,3.35,9.12,3.87l2.87.08c2.9,3.39,6.83,4.52,11.05,5l0,0,1,.94a4,4,0,0,0,1,.06,2,2,0,0,0,2.05.86l0,.07Z"/><path class="cls-13" d="M714.16,299.37c.32,2.74,3.39,4.32,2.63,7.59-.27,1.13.38,1.41,1.82,1.19,8.79-1.33,19.08,7.34,20.17,18.1.22,2.12-3.72,2.81-2.66,5.8.77,2.17-5.07,1.77-2.21,5.79.83,1.17-4.2,2.12-6.57,2.58-3.45.67-5.37-3.37-8.92-3.42a4.32,4.32,0,0,1,4.72-3.07c4.55.14,8.41-1.37,9.41-6.19,1.27-6.08-1.56-11.24-6.78-13.16a80.57,80.57,0,0,0-11.26-3.51c-2.28-.48-2.52-1-2.09-3.21.54-2.67.35-5.49.48-8.24Z"/><path class="cls-3" d="M747.94,234c0-13.48,2.18-26.8,3.21-40.2,1.28-16.88,3.15-33.72,4.72-50.59,1.4-15.05,2.73-30.1,4.1-45.15a4.91,4.91,0,0,1,1.47-3.59c.61,14.1-2,28-3.1,42-.75,9.51-1.48,19-2.75,28.5-1.7,12.67-1.86,25.46-3.54,38.14-.74,5.59-.86,11.51-1.29,17.16C750.43,224.58,751.5,230,747.94,234Z"/><path class="cls-3" d="M682.75,220.83l3,.12c19.21,5.54,38.42,11,57.6,16.67,2.13.63,3.48.44,4.39-1.62.84,3.13,2.63,6.38-1.08,9,.05-1.86.18-3.84-2.12-4.5-20.46-5.82-40.61-12.69-61.36-17.51a2,2,0,0,0-.49,0Z"/><path class="cls-13" d="M714.61,298c-2.31-3.19-1.16-6.27-.64-9,.6-3.18,3.29-1.41,4.85-.77,4.95,2,9.58,4.92,15.11,5.34,1.48.11,3,.32,4.43.41,1.68.09,3,.68,3.17,2.49.15,1.62.77,3.58-.48,4.77-1.1,1-2.42-.41-3.6-.86-6.08-2.36-12.68-3-18.35-6.87C715.64,291.13,715.73,295.45,714.61,298Z"/><path class="cls-13" d="M717.59,332.5c-.54,1.56-.81,3.47-2.66,3.19s-4.54-.45-4.25-3.61c.09-1.06,0-3.19,1.22-2.55C713.76,330.51,716.51,330.15,717.59,332.5Z"/><path class="cls-3" d="M709.58,373c-4.22-.47-8.15-1.6-11.05-5,3.14-.62,6.08.67,9.13.93a1.81,1.81,0,0,0,2,2h0Z"/><path class="cls-3" d="M761.2,93.13c-1.18-3.75.42-7.39.43-11.1.4-.69,1.7-1.31,1.66-1.14C762.32,84.93,764.88,89.6,761.2,93.13Z"/><path class="cls-3" d="M695.66,367.94c-3.37-.52-6.19-2.33-9.12-3.87C692.29,362.53,695.16,363.75,695.66,367.94Z"/><path class="cls-4" d="M699.66,301c-3.57-1.26-2.24-4.07-2-6.53.25,2.31,4.56,3.34,2,6.54Z"/><path class="cls-13" d="M736.43,347.52c-3.54,1.94-5.84,1.62-9.27.6C730.55,346.57,732.85,347.33,736.43,347.52Z"/><path class="cls-4" d="M657.49,118.64c2.08-.41,3.38-2.3,4.91-.48.49.58.43,1.9-.38,2.18C660.39,120.89,659.09,120.07,657.49,118.64Z"/><path class="cls-13" d="M739,362.31c.8.26,1.87.42,2.1,1.57,0,.23-.55.82-.89.86a1.84,1.84,0,0,1-2.18-1.53C737.93,362.65,738.29,362.3,739,362.31Z"/><path class="cls-4" d="M685.67,39c1.76-1.4,3.27-1.79,4,1C688.29,39.89,686.73,40.48,685.67,39Z"/><path class="cls-4" d="M685.68,294.94c1,.13,1.94.37,1.83,1.67,0,.22-.39.62-.52.59-1.22-.26-1.2-1.3-1.33-2.23Z"/><path class="cls-13" d="M709.66,370.93a1.81,1.81,0,0,1-2-2A1.81,1.81,0,0,1,709.66,370.93Z"/><path class="cls-4" d="M699.67,301.94l1.3.39-.25.38-1.07-.75Z"/><path class="cls-14" d="M664.19,357a2.43,2.43,0,0,1-3.08-1.06A3.94,3.94,0,0,1,664.19,357Z"/><path class="cls-14" d="M661.14,356.06a2.79,2.79,0,0,1-3-1.09l1.54-.2Z"/><path class="cls-4" d="M699.65,302c-.69-.34-.67-.68,0-1h0v1Z"/><path class="cls-14" d="M823.62,153.53c-.26.3-.58,1-1.09,1.2q-6.33,2.21-12.73,4.2a1.36,1.36,0,0,1-1.88-1.1c-.07-.58.08-1.54.47-1.78,4.32-2.59,9.34-3.14,14.06-4.6C823.44,151.15,823.57,152.37,823.62,153.53Z"/><path class="cls-14" d="M824.71,182c-2-.1-4.11.38-3.84-1.89.41-3.41,3.3-3.2,5.76-3,1.55.12,4.55-.89,4.09,1.85C830.17,182.29,826.5,181.25,824.71,182Z"/><path class="cls-14" d="M820.48,185.58c-4.74,3-8.91,3.9-12.86,5.3a2,2,0,0,1-2.61-.83,3,3,0,0,1,.06-2.32c.62-1.09,1.74-.63,2.65-.26C811.89,189.15,815,184.64,820.48,185.58Z"/><path class="cls-2" d="M761.65,385.93l1,1h-1Z"/><path class="cls-3" d="M666.68,264a1.81,1.81,0,0,0,2,2c-.66,4.74-1.56,9.46-1.92,14.22-.84,10.89-1.4,21.8-2.1,32.71-.09,1.41.2,3.52-1.9,3.32-1.76-.17-1.11-2.19-1-3.36q1.42-22.53,3-45.06A5,5,0,0,1,666.68,264Z"/><path class="cls-2" d="M672.66,319.57c-1.38-1-1.38-2-1.26-3.24,1.12-11.66,2.15-23.32,3.2-35,0-.49,0-1,0-1.49.13-1.54-2.19-3.69.9-4.49,2-.53,7.89,3.38,8,5.11a2.1,2.1,0,0,1-1.2,2c-.74.38-1.86.71-1.91-.45-.08-1.95-1-2.37-2.55-1.81s-1,2.22-1.19,3.47c-1.53,11.61-2.45,23.27-3.18,35C673.46,318.9,673.08,319.12,672.66,319.57Z"/><path class="cls-2" d="M668.7,145.69c1.14,4.56-3.68,11.17-7.19,11.11a1.53,1.53,0,0,1-1.71-1.37,2.64,2.64,0,0,1,1.69-3.2A11,11,0,0,0,668.7,145.69Z"/><path class="cls-2" d="M726.87,251.78c-.92.56-1.28,1-1.68,1a2,2,0,0,1-2.07-1.13c-1.44-2.79-2.84-5.6-4.17-8.45a1.41,1.41,0,0,1,.86-2c1.1-.33,2.65-.63,3.22.48C724.68,244.9,722.06,249.49,726.87,251.78Z"/><path class="cls-14" d="M658,355.06c-4.14-1-8.4-1.75-11.5-5.1C650.89,350.47,655.2,351.1,658,355.06Z"/><path class="cls-2" d="M653.67,125c-.11.94-.1,2.11-1.29,2.23-.75.07-.71-.86-.68-1.45.08-1.69,1.12-1,2-.77Z"/><path class="cls-2" d="M683.66,295c-.64-.1-1.38-.1-1.49-.95,0-.16.39-.57.56-.55.85.11.84.85.95,1.49Z"/><path class="cls-2" d="M726.38,245.38l.84.36c-.12.28-.18.72-.38.79s-.54-.19-.82-.31Z"/><path class="cls-2" d="M690.66,351.94l-.22.41c.08-.13.15-.27.23-.41Z"/><path class="cls-13" d="M404.64,200.84c.47-1.4,2.16-2,2.17-3.78,0-3.34,2.53-3.9,5.09-4.09s6.13,1,2.76-3.78c-1.22-1.73,1.29-3.7,1.69-5.76.58-3,1-5.36-3.27-5.16-1.65.08-3.07-.57-3.11-2.45a3.33,3.33,0,0,1,2.67-3.23c2.37-.64,4.85-.91,7.28-1.34a4.23,4.23,0,0,1,.87,0c1.38,2.66,9.85,6.83,12.78,6.27.12,0,.2-.24.3-.38l1.87,0c.09,2.71,7,3.1,2.21,7.41,2,.7,4.19-1.21,5.58,1,1.93,3,3.55.67,5.26-.28,8.62,2.43,16.29,7.62,24.73,9.9s15.71,6.91,23.93,9.53c5.75,1.84,12.56,4,14.61,11.66,1,3.72,5.47,4.5,8.48,1.73,3.76-3.46,8.59-2.54,12.94-3.25,1.65-.26,3.47-1,5.28-.57-2.77,4.89-7.67,5-12.25,4.85-4.33-.15-4.37,1.89-5,5.3a55.48,55.48,0,0,0-.85,12.89c.35,4.56-1.62,9.08.26,13.73,1.11,2.74-1.89,6.67,0,9.15,2.61,3.4-2,7.22,1.42,10.08-6.08,4,.38,7.62.37,11.45,0,9.46.3,18.93-.18,28.36-.19,3.57-2.47,6.91-3,10.7-.69,4.74-.93,9.22.61,13.84.46,1.36.12,4-.81,4.62-3.28,2.21-2,5.07-1.42,7.55,1.35,5.74-1.85,10.22-3.67,15.07-.58,1.55-2.41,1.51-3.89,1.66-.15-2.13-3.66-2.75-2.62-5.17.84-1.94-.7-2.53-1.26-1.89-2.34,2.65-5.8-.15-8.07,2a1.14,1.14,0,0,1-1.76-.13c-2.72-3.85-6.77-4.73-11.07-5.15-1.93-.18-2.3-1.12-2-3.07.3-2.13,1.07-5.52-3.37-2.57-1.67,1.11-5.74-.67-5.72-1.67.14-6.88-5.71-4-8.58-5.28-2.42-1.09-6.11.83-5.48-4.42.23-2-2-1.8-3.88-1.45-2.79.52-6.13,1.3-4.31-3.91.82-2.34-1.19-2.72-3.07-2.23-1.11.29-2.5,1.11-3.06-.32-1.47-3.78-3.45-5.11-7.06-2.34-.63.48-1.51.09-2.08-.75-2.21-3.26-3.26-1.35-4.17,1a70.82,70.82,0,0,1-16.09-9.81c3.73.14,3.53-7.68,8.84-4.38.12.08.52-.31.78-.49-2.48-2.3.73-6.47-2.1-8.08a9.35,9.35,0,0,1-5.06-6.65c-.24-1.11-2.19-2.18-.34-3.17a3.78,3.78,0,0,1,4.6.49c.32.33.34.94.6,1.36,1.75,2.77,4.26,2.18,5.89.45,2.63-2.79-2.07-1.33-1.89-2.66.19-1.54-3.55-1.72-1-4.32,1.47-1.49-1.14-1.46-2.24-1.69h-1c.58-3.32.66-6.55-3.1-8.1a62.13,62.13,0,0,1-8.68-4.91c-8-4.94-16.48-9.27-24.76-13.83-12.05-6.61-24.5-12.51-36.47-19.32.72-.66,1.43-1.33,2.14-2q33.3,17.87,66.59,35.78c2.81,1.52,4.4,2.3,4.38-2.1q-.19-29.72-.06-59.41c0-2.84-1.08-4.12-3.57-5.12a47,47,0,0,1-10.67-5.3c0-1,.63-2.19-.47-3-.16-.12-.54.06-.82.1l.57,2.67Zm42.16,14.29-.2.16c-2.86,1.71-2.73,4.72-2.75,7.33-.12,23.38-.24,46.76.07,70.14.07,5.23.58,10.93,5.65,14.51a6.54,6.54,0,0,0,3.41,4.58c9.37,5,18.65,10.07,28,15.13.79.43,1.67,1.69,2.49.47s-.43-2-1.42-2.63-2-1.25-3-1.81q-14.62-8-29.27-15.93c-3.47-6.07-4.13-12.59-4.09-19.53.17-23.29.22-46.58,1.09-69.86,2.14-2.58,4.51-2.69,7.51-1.28,9.29,4.35,18.68,8.5,28.07,12.66.92.41,2.1,1.72,3,.35.82-1.18,0-2.23-1.19-2.77-10.4-4.71-20.77-9.47-31.24-14-1.85-.8-4.35-1.2-5.41,1.7ZM460.44,266c5.92,8.62,15.64,10.9,24.65,15.44C484.26,275.76,475.51,270.34,460.44,266ZM466,302.63c-1.45.21-3.07-.95-3.52,1.06-.3,1.39,1.44,1.58,2.38,2.12,5.3,3.06,10.8,5.76,15.79,9.36.89.64,2.11,1.51,3.2.75,1.38-1,.12-2.13-.31-3.06C480,305.25,471.71,306.28,466,302.63ZM430.88,202.12a13.78,13.78,0,0,0,1.5-11.81c-.83-2.93-4-4-7.25-3.52-.23,0-.58-.33-.77-.59-2.29-3.1-2.86-.45-3.35,1.15a26.74,26.74,0,0,0-.51,4.9l2.48-.5c6.35-1.38,7.3-.54,6.87,5.69C429.75,198.84,429.3,200.41,430.88,202.12Zm27.33,62.54c-.89-1.44-1.82-3.05-3.28-2.89-1.72.19-1.68,2.3-1.75,3.59s1.25,2.8,2.48,2.4C456.74,267.4,457.39,265.72,458.21,264.66Zm-17.74-73.59c-.42-1.11-.63-2.42-2-2.56a3,3,0,0,0-3.22,2.43c-.33,1.43,1.23,1.9,2.26,2A2.56,2.56,0,0,0,440.47,191.07ZM433,187c.12-.28.39-.62.31-.82s-.51-.26-.79-.38c-.11.28-.39.62-.31.82S432.76,186.83,433,187Z"/><path class="cls-3" d="M425.73,142.06c-.76,1.36-4.45.74-2.52,4,.58,1-.83,1.08-1.57,1.3-11.53,3.54-22.75,4.13-33.14-3.78,2.15-2.53,4.61-2.4,7.69-1.1,9.72,4.11,11.47,4.08,21.39.73l-7.39-3.63c5.68-1.1,10.79-4.76,16.69-2.44C426.5,138.78,426.11,140.42,425.73,142.06Z"/><path class="cls-4" d="M425.73,142.06c.38-1.64.77-3.28,1.15-4.93A51.11,51.11,0,0,1,442,142.65C436.48,144.23,431,146.14,425.73,142.06Z"/><path class="cls-3" d="M457.46,159.05c7.36-3,12.3,3.2,18.47,4.72C468.76,166.07,463.56,160.82,457.46,159.05Z"/><path class="cls-2" d="M448.79,185.31c-1.71.95-3.33,3.28-5.26.28-1.39-2.19-3.6-.28-5.58-1,4.78-4.31-2.12-4.7-2.21-7.41,3.39-2,3.6,3.15,6.7,3,1.28-.06,3.48.88,5.32,1.17C448.1,182.67,448.45,184,448.79,185.31Z"/><path class="cls-3" d="M381.42,128.74c6.51-1.86,11.18,2.39,16.78,3.86C394.78,134.89,388.56,133.41,381.42,128.74Z"/><path class="cls-2" d="M433.87,177.18c-.1.14-.18.36-.3.38-2.93.56-11.4-3.61-12.78-6.27a73.36,73.36,0,0,0,9.35,2.45A4.4,4.4,0,0,1,433.87,177.18Z"/><path class="cls-14" d="M509.89,375.7c-11.2-3.64-20.48-10.86-30.48-16.65-38.09-22.05-76-44.44-113.91-66.72-8.73-5.13-17.34-10.45-26.12-15.49-2.81-1.61-2.46-3-.65-5l26,14.55a13,13,0,0,0,7,3.92h0a4.28,4.28,0,0,0,3.82,2.22c13.07,9,27,16.66,41.12,23.88a70.82,70.82,0,0,0,16.09,9.81c10.1,6.95,21,12.57,31.47,18.93,13.42,8.15,27.51,15.19,40.48,24.1.65,2.18,8.09,5.06,9.42,3.28,2-2.74,4.46-1.57,6.65-1.55,1.7,0,3.27.34,4.65-.91,2.71-2.47,6.21-3,9.57-3.67,3.56-.76,6.29-3.31,9.61-4.34,3.86-1.21-.07-2,.11-2.94,2.68-2.6,6.44-2.3,9.65-3.43,2.27-.81,4.22,1.51,4.77,3.33.6,2-1.77,3.3-3.43,3.51-5.86.74-10.84,3.83-16.29,5.62-4.54,1.49-9.25,2.57-13.66,4.37A44.25,44.25,0,0,1,509.89,375.7Z"/><path class="cls-14" d="M537.75,275.28c.41,4.72,2.94,9.35-1.3,14.08-1.2,1.34-.47,5.83,0,8.56,1.56,8.35-4.72,12.36-9,17.29-2.19,2.53-2.79-.46-2.81-2.24-.05-5.15-.49-10.38.19-15.45,1.22-8.95.53-17.9.87-26.84.2-5.53,3.65-9.88,8.4-10.62,3.43-.54,5.42.87,5.5,4.4s.39,7.28-2.51,10.15c0,0,.4.46.61.69Zm-10.52,31.23c1.06-.94,2.28-1.51,2.44-3a275,275,0,0,0,1-32.73c0-1.26-.32-2.46-1.94-2.17a2.08,2.08,0,0,0-1.75,2.57,23.12,23.12,0,0,1,.33,4.34C527.13,285.71,527.23,295.92,527.23,306.51Z"/><path class="cls-14" d="M536.15,257c4.14-3.87,8.76-3.31,13.08-3.57,1.8-.11,2.29,1.16,2,3.11-.28,1.79-3.42,3.82.06,5.6-.27.39-.47,1.05-.8,1.13-5,1.14-3.73,5.07-3.71,8.35,0,7.3-1.57,14.51-1,21.83.12,1.65-.51,3.65.68,4.84,4,4,2.8,9.13,3.18,13.83.23,2.83.27,5.9,3.25,6.38s6.63.48,9-2.5c.78-1,.87-2.72,2.7-2.4.31.05.82.83.72,1-.73,1.42.21,3.66-1.69,4.4a94.8,94.8,0,0,1-13.14,4.6c-3.05.71-2.63-2-2.32-4,.61-4-1.2-6.56-4.76-5.46-3.22,1-2.62-.6-2.51-2.15,1.06-15.63,2.29-31.24,2-46.93C542.77,260.68,541.48,257.66,536.15,257Z"/><path class="cls-14" d="M573.94,305.19c-2.6,1.86-4.17.54-5.74-.2a25.45,25.45,0,0,0-10.48-2.79c-4.79-.11-9.16-5.18-9-10.09.27-7.8.63-15.59,1-23.38.06-1.08-.78-2.92,1.71-2.63,2.06.25,3.88.89,3.14,3.31-1.55,5-.71,9.74,1,14.51,1.55,4.42,4.2,8.49,4.14,13.45,0,.58,1.39,1.31,2.24,1.76C565.74,301.1,569.56,303,573.94,305.19Z"/><path class="cls-13" d="M573.76,204.31v2c-2.81,2.75-5.28,4-10.06,3.93a26.42,26.42,0,0,0-15.07,5c-2.65,1.93-6.22,2.87-7.88-1.85a5.69,5.69,0,0,1,4.34-3c9.58-1.88,18.85-5.21,28.66-6Z"/><path class="cls-12" d="M544.75,359.14c-.18.94,3.75,1.73-.11,2.94-3.32,1-6,3.58-9.61,4.34-3.36.71-6.86,1.2-9.57,3.67-1.38,1.25-3,.92-4.65.91-2.19,0-4.61-1.19-6.65,1.55-1.33,1.78-8.77-1.1-9.42-3.28,6.21,2.57,11.54-.92,17.08-2.6C529.51,364.33,537.11,361.67,544.75,359.14Z"/><path class="cls-4" d="M569.84,307.66a47.46,47.46,0,0,1-11.57,3.94c-1.1.25-2.35,1.16-3.1-.21a3.46,3.46,0,0,1,.58-4.11,5.06,5.06,0,0,1,5.26-1.95C563.7,305.9,566.33,306.72,569.84,307.66Z"/><path class="cls-14" d="M538.3,318.18l-.88-.59a8.64,8.64,0,0,1,1.23-1.44c.47-.34.93,0,1,.56C539.63,317.43,539.28,318,538.3,318.18Z"/><path class="cls-6" d="M573.63,333l-.18,2.05A1.57,1.57,0,0,1,573.63,333Z"/><path class="cls-14" d="M537.77,275.3l.22-.4-.24.38Z"/><path class="cls-4" d="M700.82,31.47c4.81-2.56,9.72-2.32,14.89-1C710.74,32.53,705.77,32.2,700.82,31.47Z"/><path class="cls-4" d="M732.66,33.61a21.65,21.65,0,0,1-13.27.58C723.75,32.08,728.15,31.26,732.66,33.61Z"/><path class="cls-13" d="M573.75,204.3l.24-.41-.23.42Z"/><path class="cls-3" d="M122.05,336.66A28.79,28.79,0,0,1,125,337c6.78,1.58,10.51,0,13.65-5.59,1.35-2.43-1-3.63-1.76-5.28s-2.7-3,.65-3.87c.35-.09.58-.7.86-1.07-4.71-2.35.24-6.33-1.54-9.17-.09-.14-.22-.39-.17-.46,3.77-4.75-2.7-9.75.69-15.3,1.43-2.34-1.29-8.17-1.67-12.25s-1.84-8.65-.48-12.62,5.95-3.88,9.36-4.55,7.11-2.68,9.88-2.65c4.67.06,8.28-3.14,12.67-2.58,5.43.7,9-3.83,14-4.56a162.17,162.17,0,0,0,23.74-5.82c.76-.23,1.8-.64,2.34-.32,4.42,2.57,3.72-.91,4-3.26l2-.09c2.36,3,3.77,1.41,5-1a3.57,3.57,0,0,1,1,0c1.17,1.52,2.49,1.05,4,.5a80.31,80.31,0,0,1,13.41-3.89c9.33-1.58,18-5.81,27.62-6.31,1.72-.09,5.85-.94,7-4.26a3.79,3.79,0,0,1,.89,0c2.69.56,4.58-1.81,7.08-1.95l1.26,18q.64,14.22,1.28,28.44c-.4,1.93-.65,3.84.26,5.71,0,4.59.41,9.23-1.34,13.65-3.64,2.09-6.58,5.3-10.89,6.35-1.71.42-1.86,1.65-.1,2.76,1.23.78,2.15,2,3.38,2.81,2.21,1.39,4.35,3,3.94,5.79s-3.33,3.61-5.62,4.37c-10.37,3.44-21.12,5.95-31.11,10.24-8.85,3.8-18.32,3.92-27.26,6.69a30.09,30.09,0,0,0-4.09,1.54c-8,3.81-16.19,7.09-25.21,7.52a3.09,3.09,0,0,1,2.93-2.33,31.47,31.47,0,0,0,13.6-5.41c4.1-2.78,8.25-6,13.8-5,1,.18,1.15-.63,1.11-1.24-.3-4.64,1.63-4.32,4.72-2.34.86.56,2.27.4,3.42.35,8-.34,15.64-1.23,23.19-4.56,8.07-3.56,16.82-5.61,25.27-8.31,1.33-.42,2.67-.91,2.07-2.7-.9-2.7-11.53-8.16-14.37-7.36-3.81,1.08-7.53,2.9-11.39,3.27-3.48.33-4,3.5-6.38,4.81-4.34,2.38-8.22.08-12.31-.07-2.25-.08-3.6-1-3.86-3-.32-2.44,1.37-3.59,3.56-3.92,3.74-.57,7.48-1,10.37,2.77.7-7.21-1.48-13.82-.3-20.52.56-3.23-1.06-4-4.07-3.29-3.95.91-7.91,3.22-12,.06-.67-.52-2.35-.17-3.36.24-7.26,3-15,4.05-22.51,6.09-2.49.68-4.35,1.58-4,4.63.17,1.66-.3,3.15-2.34,3-10.74-.66-11.35-.14-10.57,10.24.38,5.09,1,10.16,1.53,15.25.79-4.72,5.47-5.21,7.63-7.92,3.67,1.07,7,2.37,5.38,7.34-2.46-.3-5,.11-6.11,2.34-2.25,4.4-6.57,4.79-10.07,4.2a19.28,19.28,0,0,0-8.65.65c-9.09,2.51-18,5.59-27.19,7.81C135.6,341.32,128.26,342.23,122.05,336.66Zm87.12-81c-1.69.2-3.58-.56-5,1-2.52,0-5,.26-7,2-1.39.14-3-.45-4,1-5.33-.28-9.93,1.09-13.43,5.45-2.44,3,1,1.26,1.43,1.87a11.49,11.49,0,0,0-1.12,10.69l.12,3c-1.64.47-1.58-1.82-2.84-1.89-.92,4.61.61,9,.77,13.44.11,2.75,1.78,2.33,3.84,2.22,5.36-.3,9.31-4,14.13-5.43,6.64-2,13.61-3,20.08-5.45,5.39-2,11.11.33,16.39-2.56,7.06-3.87,14.19.4,14.59,8.22,0,.48-.23,1.27,1,1.32,0-2.85-.17-5.67,0-8.46.37-4.69-2.4-5.48-5.77-4.26-4.11,1.48-5.47-1.95-5.37-3.78.26-4.92-2.16-3.34-4.57-2.61C217.21,276,201.87,280,186.47,283.9c-3.46.88-5.44.14-6.31-3.31,2.14-.1,4.38.15,6.43-.35,12-2.91,24-5.89,35.92-9.11,3.11-.84,6.55-1.18,9-3.79,3.25-3.46,4.34-7.41,2.51-11.82-1.62-3.88-4.91-3.08-8-2.36-1.37.33-1.77-.42-1.86-1.57,3.65-.15,7.31-1.54,10.94.12l1.07.91q1.1,5.08,2.17,10.18c.39-3.65,1-7.36-2.14-10.2l-.9-1.09c-3.74-3.37-7.43-2.39-11.1.12-4.34-.37-8.18,1.23-12,3C211.1,254.72,209.85,254.29,209.17,255.62ZM170.89,297.5c-1.47.15-2.89,0-2.37,2.47.33,1.54-.46,3.65,2,3.33,1.49-.19,3.88-.32,3.62-3A2.83,2.83,0,0,0,170.89,297.5Zm66-29.62a3.27,3.27,0,0,0-.94.75c-.39.63.18.88.63.84a1.51,1.51,0,0,0,1.09-.61C238,268.37,237.59,268,236.89,267.88Z"/><path class="cls-11" d="M238.78,359.86c-.28.11-.63.37-.83.28s-.23-.51-.34-.8c.28-.1.62-.36.82-.28S238.67,359.58,238.78,359.86Z"/><path class="cls-14" d="M122.05,336.66c6.21,5.57,13.55,4.66,20.62,2.94,9.16-2.22,18.1-5.3,27.19-7.81a19.28,19.28,0,0,1,8.65-.65c3.5.59,7.82.2,10.07-4.2,1.14-2.23,3.65-2.64,6.11-2.34,5.61.13,10.49-4.71,16.45-2.44.18.07.74-.54,1-.93,1.31-2.49,3-1.93,4.95-.8s5.43,1,5.53.08c.31-2.75,4.3-5.19,1.35-8.06-3.24-3.14-6.83-8.39-11.16-7-8.63,2.72-17.71,4.1-26.11,7.87.33,1.8,2.9,2,2.66,4-2.16,2.71-6.84,3.2-7.63,7.92-.52-5.09-1.15-10.16-1.53-15.25-.78-10.38-.17-10.9,10.57-10.24,2,.13,2.51-1.36,2.34-3-.31-3.05,1.55-3.95,4-4.63,7.5-2,15.25-3.12,22.51-6.09,1-.41,2.69-.76,3.36-.24,4.1,3.16,8.06.85,12-.06,3-.69,4.63.06,4.07,3.29-1.18,6.7,1,13.31.3,20.52-2.89-3.77-6.63-3.34-10.37-2.77-2.19.33-3.88,1.48-3.56,3.92.26,2,1.61,2.94,3.86,3,4.09.15,8,2.45,12.31.07,2.4-1.31,2.9-4.48,6.38-4.81,3.86-.37,7.58-2.19,11.39-3.27,2.84-.8,13.47,4.66,14.37,7.36.6,1.79-.74,2.28-2.07,2.7-8.45,2.7-17.2,4.75-25.27,8.31-7.55,3.33-15.24,4.22-23.19,4.56-1.15.05-2.56.21-3.42-.35-3.09-2-5-2.3-4.72,2.34,0,.61-.15,1.42-1.11,1.24-5.55-1-9.7,2.17-13.8,5a31.47,31.47,0,0,1-13.6,5.41,3.09,3.09,0,0,0-2.93,2.33l-.83.57c-2.76-.54-5.51-1.05-7.37,1.9l-2.51.52c-.81-1.14-1.25-.72-1.54.36l-3.22.4c-6.58,1.06-13,2.76-19.58,4-11,2.13-20.66,1.76-28.62-7.58-3.11-3.65-6.71-7.79-12.69-6.56l-2.46-.83-.08-.29-.29.08a1.43,1.43,0,0,1-.75-.41c0-.51,0-.57-.1,0-6.54-3.23-10.91-9.06-16.19-13.76q-35.76-31.85-71-64.24c-2-1.88-5.63-3.07-5-7q21.24,19.08,42.47,38.15,22.68,20.4,45.31,40.85c4.11,4.89,4.44,5,9.37,1.05,1.45-1.17,2.75-2.3,4.72-2.19Z"/><path class="cls-13" d="M99.12,330.63Q76.47,310.2,53.81,289.78q-21.23-19.09-42.47-38.15l-1.14-2c.25-1,.48-2.33,1.79-1.07,3,2.9,5.59,6.79,10.58,3.3.18-.12.79.39,1.2.6-3.69,6.29,6.69,3,5.42,7.84a3.39,3.39,0,0,0,3.09-.48c1.25-1.34,2.89-3.49,4.13-1,.86,1.72,6.75.9,2.81,5.08a.9.9,0,0,0,.37,1.57c5.63,1,7.2,7.08,11.8,9.5,2,1.05,3.33,3.29,6.08,2.1a1,1,0,0,1,1.48.76,1.87,1.87,0,0,1-.42,1.32c-2.47,2.76-.92,8.18,2.78,9.46a10.92,10.92,0,0,0,3.85.91c3-.13,5,.25,5.67,3.83.43,2.2,2.38,3.68,4.76,1.35,1-1,2.94-1,2.87-.14-.14,1.67,6.32-1.42,1.67,2.48,1.23,1.21,2.26,2.77,3.72,3.57,4,2.22,5.79,5.57,5.47,10.32,3.31-2.57,2.32-5.51,1.72-8.39-.19-.89-1.13-1.9.14-2.6.86-.48,1.57.12,2.11.82,1.69,2.18,3.82,1.37,5.9.86-.31,3.39,1.16,6.82,4.3,6.56,3.71-.31-.38-3.73.74-5.57,3.53.45,6.43,1.22,4.53,6-.38,1,0,1.9-1.48,1.54-.65-.16-1.35-.4-1.6.46-.93,3.16,2,10.31,5.15,12.41a4.64,4.64,0,0,1,2.35,4.59c-1.84.75-3.21-3.59-5.37-.38C105.76,330.24,102.43,330.51,99.12,330.63Zm-65.3-67.3c-.28-.12-.62-.39-.82-.31s-.26.51-.38.78c.28.12.62.4.81.32S33.7,263.61,33.82,263.33Z"/><path class="cls-3" d="M175.42,346.94c1.86-2.95,4.61-2.44,7.37-1.9A7.76,7.76,0,0,1,175.42,346.94Z"/><path class="cls-3" d="M171.37,347.82c.29-1.08.73-1.5,1.54-.36C172.62,348.53,172.18,349,171.37,347.82Z"/><path class="cls-3" d="M104.43,337.07l.29-.08.08.29-.3.09Z"/><path class="cls-3" d="M103.58,336.64c.1-.55.13-.49.1,0Z"/><path class="cls-4" d="M364.74,286.42l-26-14.55-2-1.31a2.94,2.94,0,0,0-.84-.49.87.87,0,0,0-.35-.85c-3.35-5.15-4.14-11-4.73-16.92-.08-3.69-.15-7.38-.23-11.07q-.07-3.4-.16-6.8l-.15-3.25a.44.44,0,0,0-.06-.72A7.51,7.51,0,0,0,330,226a4,4,0,0,0-.2-3.74c.24-16.34-.73-32.66-1.35-49l-.06-2.92.46,0c1.94,1.77,4.16-.87,6.49.6-1.11,1.89-3.79,3.91-.16,6.09.65.4.35,2.82.07,4.21-.48,2.37-1.41,4.64,2.23,5.26,1.25.22,1,1.33,1,2.4-.58,8.7,2.19,17.33,1.35,25.89-.5,5.23,2.34,12.53-6.9,15.5,3,.66,4.82.88,6,2.61,1.68,2.51-1.14,3.45-1.62,5.19-.27,1-2,1.74-.65,2.94,1,.92,2,1,3.5.12,2.08-1.17,4.66-1.47,7-2.14l3.6,2.11c12,6.81,24.42,12.71,36.47,19.32C395.53,265,404,269.34,412,274.28a62.13,62.13,0,0,0,8.68,4.91c3.76,1.55,3.68,4.78,3.1,8.1-8-2.48-14.36-8.17-22.37-10.68-2.29-.71-3.92-5.17-6.71-1.51-1.81,2.38-5.86.61-6.68,4.81-.5,2.52-3.13,5.61-6.6,3.68-3.15-1.75-2.92-2.18-4,1.47-.54,1.74-1.06,3.48-1.59,5.23l-4,0h0C371.41,285.48,368.54,285.11,364.74,286.42Z"/><path class="cls-12" d="M163.1,196.3c-19,4.22-38,8.35-56.91,12.75a11.57,11.57,0,0,1-10.56-2.15C81.55,196.34,67.24,186.07,53,175.7a33.24,33.24,0,0,0,3.46-.36c17.85-3.59,35.7-7.12,53.5-10.92a8.33,8.33,0,0,1,6.91,1.38c11,7.06,22.38,13.69,33.2,21.08C154.49,189.88,160.09,191.37,163.1,196.3Z"/><path class="cls-14" d="M163.1,196.3c-3-4.93-8.61-6.42-13-9.42-10.82-7.39-22.15-14-33.2-21.08a8.33,8.33,0,0,0-6.91-1.38c-17.8,3.8-35.65,7.33-53.5,10.92a33.24,33.24,0,0,1-3.46.36c-1.59-.24-3.28-1.11-3.21-2.55.1-1.91,2.27-1.38,3.61-1.64q29.86-6,59.74-11.86Q139,175.83,164.91,192c1.29.81,3.31,1.15,3.07,3.41Z"/><path class="cls-4" d="M168,195.44c.24-2.26-1.78-2.6-3.07-3.41q-25.84-16.23-51.75-32.38c1.76-5.79,1.94-6,6.76-3q28.21,17.28,56.3,34.76a10.43,10.43,0,0,1,1.62,1.8Z"/><path class="cls-2" d="M271.15,232.58c-1.14,3.32-5.27,4.17-7,4.26-9.62.5-18.29,4.73-27.62,6.31A80.31,80.31,0,0,0,223.13,247c-1.5.55-2.82,1-4-.5,4.64-3.41,10.43-4.18,15.66-5.34,11.7-2.58,23-6.67,34.86-8.61A9.27,9.27,0,0,1,271.15,232.58Z"/><path class="cls-3" d="M115.56,221.83c-1.85,2.53-1.36,4.26,1.34,6.06,5.8,3.87,11.38,8.06,17,12.22.88.66,2.91,1.29,1.57,2.94-.93,1.16-2.11.07-3-.61-6.84-5-13.85-9.77-20.46-15.05-3.8-3-.73-4.65,2.08-5.88Z"/><path class="cls-3" d="M206.27,203.55c9.23,3.8,16.94,10.08,25.71,14.83-1.28,1.89-2.44,1.38-3.35.84q-11.72-7-23.36-14.19c-.58-.36-1-.87-.31-1.55Z"/><path class="cls-4" d="M216.62,218.76c-11-4.72-22-1.18-32.88.4C193.25,213.34,210.88,213.11,216.62,218.76Z"/><path class="cls-2" d="M115.56,221.83l-1.53-.32c7.9-3.86,16.73-4.31,25-6.76,3.59-1.06,7.37-1.45,11.06-2.15a2.17,2.17,0,0,1,2,.94Z"/><path class="cls-4" d="M154,224.25c-.31,2.63-1.75,3.09-3.26,2.92-8.16-.88-16.3-2-24.56-2.16C135.25,221.73,144.52,226.08,154,224.25Z"/><path class="cls-4" d="M171.73,213.37c6.47-1.56,12.93-3.15,19.4-4.69,2.57-.61,5.15-1.17,7.75-1.66a1.45,1.45,0,0,1,1.78,1.31c.1.76-.53,1.16-1.25,1.18-8.85.32-17.13,3.54-25.73,5.07a5.73,5.73,0,0,1-1.79-.27Z"/><path class="cls-4" d="M152.12,213.54a2.17,2.17,0,0,0-2-.94Q161.54,209.77,173,207c.38-.09.87.28,2.8.94Z"/><path class="cls-2" d="M202.18,203.33c-8.68-.72-16.64,3-25.33,4.21C180.68,204.09,192.9,202,202.18,203.33Z"/><path class="cls-4" d="M191.85,226.76l16.47-4c-4.86,3.77-10.59,4.31-16.08,5.74Z"/><path class="cls-4" d="M139.17,230.62c5.55.71,8.28,5.57,12.43,8.34a30,30,0,0,1-12.42-8.35Z"/><path class="cls-4" d="M167.15,217.63c-2.77,0-5.55-.39-8.31.08,2.7-2.12,5.42-3.6,8.35-.11Z"/><path class="cls-2" d="M279.12,230.61c-2.5.14-4.39,2.51-7.08,1.95,1.36-2.92,4.49-2.85,6.86-4.05C279,229.21,279.05,229.91,279.12,230.61Z"/><path class="cls-4" d="M173.18,221.6a8.25,8.25,0,0,1,6,4l0,0c-2.83-.1-4.94-1.27-6-4Z"/><path class="cls-4" d="M173.15,221.63a6,6,0,0,1-6-4l0,0a8.32,8.32,0,0,1,6,4Z"/><path class="cls-2" d="M218.16,246.56c-1.24,2.44-2.65,4-5,1A7.34,7.34,0,0,1,218.16,246.56Z"/><path class="cls-4" d="M179.18,225.6c1.79.39,3.64.7,4,3l0,0c-1.81-.36-3.66-.68-4-3Z"/><path class="cls-4" d="M183.18,228.6c1.27.06,2.64-.14,3.37,1.54-1.79.86-2.66-.16-3.39-1.51Z"/><path class="cls-4" d="M181.8,217.05c-.37,0-.92.29-1.16.11a7,7,0,0,1-1.12-1.42c.39-.08.83-.32,1.16-.21C181.26,215.73,181.92,216,181.8,217.05Z"/><path class="cls-4" d="M139.18,230.61c-.75-.11-1.57-.13-1.54-1.21a.45.45,0,0,1,.32-.31c1.07,0,1.13.76,1.21,1.53Z"/><path class="cls-2" d="M206.27,203.55l-1.31-.07A.75.75,0,0,1,206.27,203.55Z"/><path class="cls-10" d="M187.71,171.75l1.43.92Z"/><path class="cls-10" d="M165.11,158.66l1,.76Z"/><path class="cls-6" d="M330.38,234.43q.09,3.39.16,6.8A8,8,0,0,1,330.38,234.43Z"/><path class="cls-6" d="M329.84,222.22A4,4,0,0,1,330,226C330,224.72,329.91,223.47,329.84,222.22Z"/><path class="cls-10" d="M328.43,170.32l.06,2.92A2,2,0,0,1,328.43,170.32Z"/><path class="cls-6" d="M330.17,230.46a.44.44,0,0,1,.06.72A.46.46,0,0,1,330.17,230.46Z"/><path class="cls-12" d="M409.59,203a47,47,0,0,0,10.67,5.3c2.49,1,3.59,2.28,3.57,5.12q-.13,29.7.06,59.41c0,4.4-1.57,3.62-4.38,2.1q-33.24-18-66.59-35.78c-2.44-1.39-3-3.5-3-6.23-.27-19-.72-37.92-1.12-56.88,8.66,2.62,16.5,7.14,24.73,10.75,10.42,4.59,20.76,9.37,31.13,14.07l4.22,1.87A.71.71,0,0,0,409.59,203Z"/><path class="cls-14" d="M348.78,176c.4,19,.85,37.92,1.12,56.88,0,2.73.58,4.84,3,6.23-.71.67-1.42,1.34-2.14,2l-3.6-2.11c-1.82-9-1.1-18.17-1.31-27.27-.27-11.21-.68-22.42-1-33.64,0-1.24-.56-2.86,1-3.51C347.19,174.08,348.11,175,348.78,176Z"/><path class="cls-3" d="M88.2,278.62a134.25,134.25,0,0,0-1.84-20.11c-.16-1-.85-2.52.57-3,.67-.23,1.89.46,2.59,1.05,3.38,2.85,6.17,6.36,10.21,8.48,1.56.81,2.18,8.57,1,9.77s-2.35.94-3.42-.25c-1.38-1.53-2.77-3.05-4.19-4.61-1.55,1.3-2,3.09-2.81,4.7A6,6,0,0,1,88.2,278.62Z"/><path class="cls-4" d="M88.2,278.62a6,6,0,0,0,2.07-4c2.79,4.51,9.93,4.67,10.92,11-.74,2.45-1,5.11-3,7-2.66-2.11-5.09-4.67-8-6.22C86.2,284.32,86.38,281.83,88.2,278.62Z"/><path class="cls-3" d="M98.2,292.61c2-1.9,2.25-4.56,3-7,3.79,2.53,1.81,6.77,2.87,10.12.67,2.09.15,4.56.17,6.87-1.12,1.84,3,5.26-.74,5.57-3.14.26-4.61-3.17-4.3-6.56C99.66,298.51,98.44,295.62,98.2,292.61Z"/><path class="cls-14" d="M62.61,261.41c3.48,1.1,5.61,4,8.43,6a3.49,3.49,0,0,1,.75,4.91c-1,1.25-2.76-.33-3.52-1.41C66.2,267.89,60.88,266.81,62.61,261.41Z"/><path class="cls-3" d="M99.12,330.63c3.31-.12,6.64-.39,8.69-3.43,2.16-3.21,3.53,1.13,5.37.38l0,1.91c-2-.11-3.27,1-4.72,2.19C103.56,335.63,103.23,335.52,99.12,330.63Z"/><path class="cls-14" d="M14.19,220.63c3.56,2.43,8.77,3.51,7.81,10.49-3.39-3.43-8.11-4.92-7.78-10.51Z"/><path class="cls-14" d="M14.22,220.61l-.3-.19.27.21Z"/><path class="cls-2" d="M754.71,383.45c-1.2-2.05-1.65-4.08-.32-5.87.55-.73,1.48.14,2,.7C759,380.94,754.6,381.47,754.71,383.45Z"/><path class="cls-3" d="M736.63,383.05c-3.08,0-6.08-.24-8.15-3l1.18-.14a2,2,0,0,0,2-1c1.1.79,1.68,2.26,3.64,1.8S736.36,382.15,736.63,383.05Z"/><path class="cls-3" d="M727.64,380c-2.17-.2-4.29-.55-6-2.15C724.88,375.49,726.55,376.09,727.64,380Z"/><path class="cls-2" d="M747.69,374.64c-1.54-2.49-1.07-4.49.53-6.14.63-.64,2.19.15,2.15.41C750,371.08,748.1,372.42,747.69,374.64Z"/><path class="cls-3" d="M742.57,385c-1.87-.23-4.26.86-5.1-2l3.19-.11h1A2,2,0,0,1,742.57,385Z"/><path class="cls-2" d="M730.35,372.94c-.49-.31-1.09-.48-1.17-.78-.2-.79.44-1.1,1.08-1a1.26,1.26,0,0,1,.87.79C731.16,372.21,730.67,372.55,730.35,372.94Z"/><path class="cls-2" d="M731.67,378.94a2,2,0,0,1-2,1c.1-.87-.31-2.07.77-2.43S731.47,378.25,731.67,378.94Z"/><path class="cls-2" d="M741.57,377.32c-.15.62-.29,1.17-.89.79A1.59,1.59,0,0,1,740,377c0-.51.36-.92.88-.65C741.24,376.56,741.39,377.06,741.57,377.32Z"/><path class="cls-3" d="M713.69,374.85a2,2,0,0,1-2.05-.86C713.12,372.4,713.43,373.56,713.69,374.85Z"/><path class="cls-2" d="M761,385.34l.33-.7c.12.28.25.55.34.83a1.75,1.75,0,0,1,0,.46Z"/><path class="cls-2" d="M741.65,382.93h-1c0-.33,0-.67,0-1v-1A2,2,0,0,1,741.65,382.93Z"/><path class="cls-2" d="M750.65,380.93l.42.23-.42-.22Z"/><path class="cls-3" d="M740.65,380.94v1a5.45,5.45,0,0,1-.37-.72S740.52,381,740.65,380.94Z"/><path class="cls-2" d="M750.65,380.94l-.41-.23.41.22Z"/><path class="cls-3" d="M714.61,375.67l-.87-.75Z"/><path class="cls-3" d="M710.66,373.93l-1-.94Z"/><path class="cls-2" d="M375.8,290.29c.53-1.75,1.05-3.49,1.59-5.23,1.12-3.65.89-3.22,4-1.47,3.47,1.93,6.1-1.16,6.6-3.68.82-4.2,4.87-2.43,6.68-4.81,2.79-3.66,4.42.8,6.71,1.51,8,2.51,14.42,8.2,22.37,10.68h0c.33.68.66.69,1,0,1.1.23,3.71.2,2.24,1.69-2.56,2.6,1.18,2.78,1,4.32-.18,1.33,4.52-.13,1.89,2.66-1.63,1.73-4.14,2.32-5.89-.45-.26-.42-.28-1-.6-1.36a3.78,3.78,0,0,0-4.6-.49c-1.85,1,.1,2.06.34,3.17a9.35,9.35,0,0,0,5.06,6.65c2.83,1.61-.38,5.78,2.1,8.08-.26.18-.66.57-.78.49-5.31-3.3-5.11,4.52-8.84,4.38-14.14-7.22-28.05-14.84-41.12-23.88l.23-.28C376.84,291.6,376.81,290.94,375.8,290.29Zm44.85,14.46a2.29,2.29,0,0,0-2.08-2.28,1.29,1.29,0,0,0-1.6,1.34,2.13,2.13,0,0,0,2,2.28C420,306.22,420.49,305.68,420.65,304.75Z"/><path class="cls-3" d="M446.77,217.69c-.87,23.28-.92,46.57-1.09,69.86,0,6.94.62,13.46,4.09,19.53l-.2.19c-5.07-3.58-5.58-9.28-5.65-14.51-.31-23.38-.19-46.76-.07-70.14,0-2.61-.11-5.62,2.75-7.33C446.66,216.09,446.71,216.89,446.77,217.69Z"/><path class="cls-14" d="M446.77,217.69c-.06-.8-.11-1.6-.17-2.4l.2-.16.76-.78c1.06-2.9,3.56-2.5,5.41-1.7,10.47,4.53,20.84,9.29,31.24,14,1.18.54,2,1.59,1.19,2.77-.95,1.37-2.13.06-3-.35-9.39-4.16-18.78-8.31-28.07-12.66C451.28,215,448.91,215.11,446.77,217.69Z"/><path class="cls-3" d="M460.44,266c15.07,4.3,23.82,9.72,24.65,15.44C476.08,276.94,466.36,274.66,460.44,266Z"/><path class="cls-3" d="M466,302.63c5.7,3.65,14,2.62,17.54,10.23.43.93,1.69,2.09.31,3.06-1.09.76-2.31-.11-3.2-.75-5-3.6-10.49-6.3-15.79-9.36-.94-.54-2.68-.73-2.38-2.12C462.94,301.68,464.56,302.84,466,302.63Z"/><path class="cls-14" d="M449.77,307.08Q464.41,315,479,323c1,.56,2,1.2,3,1.81s2.33,1.27,1.42,2.63-1.7,0-2.49-.47c-9.32-5.06-18.6-10.17-28-15.13a6.54,6.54,0,0,1-3.41-4.58Z"/><path class="cls-2" d="M430.88,202.12c-1.58-1.71-1.13-3.28-1-4.68.43-6.23-.52-7.07-6.87-5.69l-2.48.5a26.74,26.74,0,0,1,.51-4.9c.49-1.6,1.06-4.25,3.35-1.15.19.26.54.63.77.59,3.25-.47,6.42.59,7.25,3.52A13.78,13.78,0,0,1,430.88,202.12Z"/><path class="cls-3" d="M458.21,264.66c-.82,1.06-1.47,2.74-2.55,3.1-1.23.4-2.54-1.1-2.48-2.4s0-3.4,1.75-3.59C456.39,261.61,457.32,263.22,458.21,264.66Z"/><path class="cls-2" d="M440.47,191.07a2.56,2.56,0,0,1-3,1.88c-1-.11-2.59-.58-2.26-2a3,3,0,0,1,3.22-2.43C439.84,188.65,440.05,190,440.47,191.07Z"/><path class="cls-2" d="M409.59,203a.71.71,0,0,1-.73-.27c-.18-.88-.37-1.77-.56-2.66.28,0,.66-.22.82-.1C410.22,200.79,409.58,201.94,409.59,203Z"/><path class="cls-2" d="M433,187c-.28-.12-.71-.18-.79-.38s.2-.54.31-.82c.28.12.71.18.79.38S433.16,186.67,433,187Z"/><path class="cls-4" d="M424.79,287.29c-.34.68-.67.67-1,0Z"/><path class="cls-3" d="M447.56,214.35l-.76.78Z"/><path class="cls-8" d="M335.85,270.07a2.94,2.94,0,0,1,.84.49C336.07,271,336,270.53,335.85,270.07Z"/><path class="cls-2" d="M364.74,286.42c3.8-1.31,6.67-.94,7,3.92A13,13,0,0,1,364.74,286.42Z"/><path class="cls-2" d="M371.76,290.33l4,0c0,.66,0,1.32,0,2l-.23.28A4.28,4.28,0,0,1,371.76,290.33Z"/><path class="cls-3" d="M527.23,306.51c0-10.59-.1-20.8.11-31a23.12,23.12,0,0,0-.33-4.34,2.08,2.08,0,0,1,1.75-2.57c1.62-.29,1.92.91,1.94,2.17a275,275,0,0,1-1,32.73C529.51,305,528.29,305.57,527.23,306.51Z"/><path class="cls-14" d="M212.19,254.63c3.8-1.77,7.64-3.37,12-3l0,0c.09,1.16.49,1.91,1.86,1.58,3.12-.72,6.41-1.52,8,2.36,1.83,4.41.74,8.36-2.51,11.82-2.45,2.61-5.89,3-9,3.79-11.92,3.22-23.92,6.2-35.92,9.11-2.05.5-4.29.25-6.43.35l0,0-.12-3c2.16-1.51,4.89-.48,7.11-1.6,1.85-1,4.66-1.64,1.93-4.59,8.24-2.89,16.75-4.78,25.23-6.77,2.47,3.59,5.62,1.93,8.62,1.06,3.52-1,1.51-2.23.05-3.38,0-4.39-2.88-2.64-4.86-2.13-10.25,2.64-20.41,5.68-30.73,8-2.72.6-2.06,1.75-2.06,3.25-3.69.61-2.54-3.24-4.17-4.52-.47-.61-3.87,1.16-1.43-1.87,3.5-4.36,8.1-5.73,13.43-5.45l0,0-3,2c-1.4.08-2.94-.4-4,1l-1.35.45c.09.13.25.39.28.37.4-.21.79-.45,1.18-.69,1.38-.15,2.93.36,4-1,3.61.19,6.84-.9,11.19-3.05h-4.23l0,0c2-1.75,4.46-2,7-2l0,0c-.87,2-.82,2.18,0,2,4.44-1,9.15-1.17,13.08-3.9l6.08-.29c-3-1.9-4.6-1-6.2.15l-5,.05Z"/><path class="cls-14" d="M180.16,280.59c.87,3.45,2.85,4.19,6.31,3.31,15.4-3.87,30.74-7.94,45.95-12.52,2.41-.73,4.83-2.31,4.57,2.61-.1,1.83,1.26,5.26,5.37,3.78,3.37-1.22,6.14-.43,5.77,4.26-.21,2.79,0,5.61,0,8.46-1.18-.05-.92-.84-1-1.32-.4-7.82-7.53-12.09-14.59-8.22-5.28,2.89-11,.56-16.39,2.56-6.47,2.4-13.44,3.45-20.08,5.45-4.82,1.45-8.77,5.13-14.13,5.43-2.06.11-3.73.53-3.84-2.22-.16-4.46-1.69-8.83-.77-13.44,1.26.07,1.2,2.36,2.84,1.89Z"/><path class="cls-12" d="M189.31,317.26c.24-2-2.33-2.16-2.66-4,8.4-3.77,17.48-5.15,26.11-7.87,4.33-1.37,7.92,3.88,11.16,7,3,2.87-1,5.31-1.35,8.06-.1.91-3.63,1-5.53-.08s-3.64-1.69-4.95.8c-.21.39-.77,1-1,.93-6-2.27-10.84,2.57-16.45,2.44C196.34,319.63,193,318.33,189.31,317.26Z"/><path class="cls-12" d="M181.18,267c1.63,1.28.48,5.13,4.17,4.52l3.75,0c2.73,2.95-.08,3.64-1.93,4.59-2.22,1.12-4.95.09-7.11,1.6A11.49,11.49,0,0,1,181.18,267Z"/><path class="cls-14" d="M170.9,297.5a2.83,2.83,0,0,1,3.28,2.81c.26,2.67-2.13,2.8-3.62,3-2.5.32-1.71-1.79-2-3.33C168,297.51,169.42,297.65,170.9,297.5Z"/><path class="cls-14" d="M224.17,251.63c3.67-2.51,7.36-3.49,11.1-.12l-.21.2c-3.62-1.66-7.28-.27-10.93-.13Z"/><path class="cls-14" d="M236.17,252.6c3.14,2.84,2.53,6.55,2.14,10.2q-1.08-5.08-2.17-10.18Z"/><path class="cls-14" d="M236.89,267.88c.7.12,1.06.49.78,1a1.51,1.51,0,0,1-1.09.61c-.45,0-1-.21-.63-.84A3.27,3.27,0,0,1,236.89,267.88Z"/><path class="cls-14" d="M204.17,256.62c1.42-1.56,3.31-.8,5-1l0,0c-1.41,1.63-3.32.73-5,1Z"/><path class="cls-14" d="M193.18,259.63c1-1.45,2.62-.86,4-1l0,0c-1.07,1.39-2.61.9-4,1Z"/><path class="cls-14" d="M209.17,255.62c.68-1.33,1.93-.9,3-1l0,0c-.73,1.15-1.88,1-3,1Z"/><path class="cls-14" d="M235.27,251.51l.9,1.09,0,0-1.08-.91Z"/><path class="cls-2" d="M33.82,263.34c-.12.27-.19.7-.39.78s-.53-.2-.81-.32c.12-.27.18-.7.38-.78S33.54,263.21,33.82,263.34Z"/><path class="cls-13" d="M420.65,304.75c-.16.93-.67,1.47-1.64,1.34a2.13,2.13,0,0,1-2-2.28,1.29,1.29,0,0,1,1.6-1.34A2.29,2.29,0,0,1,420.65,304.75Z"/><path class="cls-4" d="M375.81,292.27c0-.66,0-1.32,0-2C376.81,290.94,376.84,291.6,375.81,292.27Z"/><path class="cls-3" d="M189.1,271.45l-3.75,0c0-1.5-.66-2.65,2.06-3.25,10.32-2.31,20.48-5.35,30.73-8,2-.51,4.87-2.26,4.86,2.13l-8.67,2.32C205.85,266.67,197.34,268.56,189.1,271.45Z"/><path class="cls-12" d="M214.33,264.68l8.67-2.32c1.46,1.15,3.47,2.35-.05,3.38C220,266.61,216.8,268.27,214.33,264.68Z"/><path class="cls-3" d="M209.15,255.59c1.12,0,2.27.15,3-1l5-.05.12.14c-3.93,2.73-8.64,2.87-13.08,3.9-.82.19-.87,0,0-2C205.83,256.32,207.74,257.22,209.15,255.59Z"/><path class="cls-3" d="M193.15,259.59c1.39-.1,2.93.39,4-1h4.23c-4.35,2.15-7.58,3.24-11.19,3.05l-.06-.07Z"/><path class="cls-3" d="M217.11,254.54c1.6-1.12,3.23-2,6.2-.15l-6.08.29Z"/><path class="cls-3" d="M190.19,261.64c-1.05,1.39-2.6.88-4,1l-.11-.13c1.09-1.37,2.63-.89,4-1Z"/><path class="cls-3" d="M186.21,262.67c-.39.24-.78.48-1.18.69,0,0-.19-.24-.28-.37l1.35-.45Z"/></g><g id="Layer_2" data-name="Layer 2"><g class="cls-15"><path class="cls-16" d="M286.71,325.54"/></g><path class="cls-17" d="M119.11,52"/><polyline class="cls-18" points="421.28 41.69 418.16 226.38 415.23 408.38"/><line class="cls-19" x1="421.83" y1="38.98" x2="418.17" y2="44.3"/><line class="cls-19" x1="421.83" y1="38.98" x2="424.51" y2="44.79"/><line class="cls-19" x1="415.16" y1="411.89" x2="418.41" y2="406.32"/><line class="cls-19" x1="415.16" y1="411.89" x2="412.05" y2="406.3"/><line class="cls-20" x1="770.72" y1="4" x2="733.91" y2="406.26"/><line class="cls-21" x1="140.48" y1="410.03" x2="140.48" y2="50.83"/><line class="cls-22" x1="140.58" y1="48.03" x2="137.38" y2="53.63"/><line class="cls-22" x1="140.58" y1="48.03" x2="143.78" y2="53.63"/><line class="cls-22" x1="140.68" y1="412.03" x2="143.98" y2="406.53"/><line class="cls-22" x1="140.68" y1="412.03" x2="137.58" y2="406.33"/><line class="cls-23" x1="771.09" y1="1" x2="767.11" y2="6.08"/><line class="cls-23" x1="771.09" y1="1" x2="773.44" y2="7"/><line class="cls-23" x1="733.41" y1="409.55" x2="737.34" y2="404.44"/><line class="cls-23" x1="733.41" y1="409.55" x2="731" y2="403.57"/><text class="cls-24" transform="translate(115.4 431.82)">(0.0 , 0.0, 1.0)</text><text class="cls-24" transform="translate(376.57 431.82)">(1.0 , 0.0, 0.0)</text><text class="cls-24" transform="translate(695.66 431.82)">(0.0 , 1.0, 0.0)</text></g></svg>